<?xml version="1.0" encoding="UTF-8"?>
<svg id="_レイヤー_2" data-name="レイヤー 2" xmlns="http://www.w3.org/2000/svg" viewBox="0 0 289.39 44.02">
  <defs>
    <style>
      .cls-1 {
        fill: #23b470;
      }
    </style>
  </defs>
  <path class="cls-1" d="M.8,32.94c-.43-.44-.6-.29-.6-.91s.33-.62.33-1.24-.39-.62-.39-1.24.81-.62.81-1.24.01-.62.01-1.24-.39-.62-.39-1.24-.34-.62-.34-1.24.32-.61.32-1.23-.34-.61-.34-1.23-.11-.62-.11-1.23S0,20.3,0,19.68s.28-.62.28-1.24.6-.62.6-1.24S.01,16.58.01,15.96s.8-.62.8-1.24-.29-.62-.29-1.24-.38-.62-.38-1.24.37-.62.37-1.24-.11-.62-.11-1.24-.31-.62-.31-1.24.26-.62.26-1.24.11-.62.11-1.24-.31-.62-.31-1.25.19-.62.19-1.25S0,2.91,0,2.28s.3-.55.72-1.01c.4-.43.32-.1.91-.1s.59-.43,1.17-.43.59.27,1.18.27.59.11,1.18.11.59.02,1.18.02.55-.22,1.06.08c.54.32.88.06,1.2.6s.16.63.49,1.16-.16.83.16,1.36.37.51.69,1.05.29.56.61,1.1.88.21,1.2.75-.42.98-.09,1.52.82.24,1.14.78.44.47.77,1.01.38.51.7,1.05.33.54.66,1.08-.08.79.24,1.33.8.26,1.12.8-.17.84.16,1.38.18.63.5,1.17.33.53.66,1.07.78.27,1.11.81.35.53.67,1.08-.2.86.12,1.41.2.75.64,1.21c.12.13.86-.09.9-.27.14-.6-.12-.67-.16-1.29s-.07-.62-.11-1.24.37-.64.33-1.27-.19-.61-.23-1.24.09-.62.08-1.24-.36-.62-.36-1.26.22-.64.22-1.28-.27-.64-.27-1.28.16-.64.16-1.28-.47-.64-.47-1.28.47-.64.47-1.28-.11-.64-.11-1.28.3-.64.3-1.28-.03-.64-.03-1.29-.71-.64-.71-1.29.76-.65.76-1.29-.82-.76-.38-1.24c.41-.44.54-.47,1.14-.47s.6.09,1.21.09.6-.13,1.21-.13.61.8,1.21.8.47-.45.89-.02-.18.3-.18.92.16.62.16,1.24.78.62.78,1.24-.29.62-.29,1.24.37.62.37,1.24-.99.62-.99,1.24.56.62.56,1.24-.03.61-.03,1.23.04.61.04,1.23.2.62.2,1.23-.49.62-.49,1.24.05.62.05,1.24.16.62.16,1.24-.28.62-.28,1.24.76.62.76,1.24-.36.62-.36,1.24-.57.62-.57,1.24.72.62.72,1.24-.39.62-.39,1.24.2.62.2,1.24-.18.62-.18,1.24.52.62.52,1.24-.16.62-.16,1.25-.02.62-.02,1.25.02.63.02,1.25.53,1.16.08,1.6-.98-.6-1.61-.6-.64.75-1.28.75-.64-.77-1.28-.77-.64.04-1.28.04-.78.66-1.34.34.1-.86-.23-1.4-1.05-.1-1.37-.64.4-.97.08-1.51-.52-.42-.84-.96-.91-.19-1.24-.73.29-.91-.03-1.46-.15-.65-.48-1.19-.44-.47-.77-1.02-.67-.33-1-.88.1-.8-.22-1.34-.4-.5-.73-1.05-.65-.35-.98-.89.14-.82-.18-1.37-1.12-.07-1.44-.62-.33-.54-.65-1.09-.32-.55-.64-1.1.08-.79-.25-1.33-.52-.43-.84-.98-.46-.47-.79-1.01-.43-.49-.76-1.04.11-.81-.33-1.27c-.12-.13-.53-.3-.57-.12-.14.6-.04.7,0,1.32s.65.59.69,1.21-.38.65-.34,1.27-.15.63-.12,1.26.6.6.62,1.22.05.64.05,1.28-.3.64-.3,1.27-.03.64-.03,1.28-.01.64-.01,1.28,0,.64,0,1.28-.13.64-.13,1.28-.11.64-.11,1.28-.08.64-.08,1.28.18.64.18,1.27-.18.64-.18,1.28.71.64.71,1.28.01.64.01,1.29.05.76-.39,1.23c-.4.44-.53-.42-1.13-.42s-.6.05-1.2.05-.6.85-1.2.85-.6-.39-1.2-.35c-.48.03-.45.04-.87-.39Z"/>
  <path class="cls-1" d="M35.98,7.86c-.53,0-1.1.05-1.55-.14s-.44-1.01-.82-1.38c-.37-.37-1.39-.29-1.57-.74s.47-1.11.47-1.64-.47-1.1-.28-1.55.79-.66,1.16-1.03c.37-.37.7-.71,1.15-.89s.92-.49,1.45-.49.95.41,1.4.59,1.18.06,1.54.43c.37.37-.07,1.22.11,1.67s.67.74.67,1.27.29,1.14.1,1.6-.72.79-1.09,1.17c-.37.38-.95.34-1.39.53s-.83.61-1.35.61ZM32.96,33.32c-.43-.46-.18-.68-.18-1.31s.69-.63.69-1.27-.9-.64-.9-1.27.78-.64.78-1.28-.58-.64-.58-1.27.38-.64.38-1.27-.11-.64-.11-1.27-.22-.64-.22-1.28.33-.64.33-1.27-.52-.64-.52-1.27.86-.64.86-1.28-.43-.64-.43-1.28-.41-.64-.41-1.28.26-.64.26-1.27.37-.64.37-1.28.19-.64.19-1.28-.73-.64-.73-1.29-.12-.77.31-1.24c.39-.43.54-.37,1.12-.37s.59.81,1.18.81.59.01,1.18.01.59-.39,1.18-.39.95-.7,1.36-.27c.43.46-.26.79-.26,1.43s.34.63.34,1.27.11.64.11,1.27.09.64.09,1.28-.28.64-.28,1.27-.6.64-.6,1.27.87.64.87,1.27-.8.64-.8,1.28.29.64.29,1.27.38.64.38,1.27-.37.64-.37,1.28.11.64.11,1.28.31.64.31,1.28-.26.64-.26,1.27-.11.64-.11,1.28.31.64.31,1.28-.19.64-.19,1.29.64,1.12.21,1.6c-.39.43-.93-.67-1.51-.67s-.59.21-1.18.21-.59.43-1.18.43-.61-.41-1.18-.27c-.64.15-.83.47-1.24.04Z"/>
  <path class="cls-1" d="M55.16,43.94c-.47,0-.9-.7-1.34-.73-.47-.04-.93.14-1.37.06-.47-.08-.96.1-1.39-.03-.45-.13-.71-.69-1.13-.86-.35-.15-.68-.26-1.01-.43-.34-.18-.72-.23-1.02-.43s-.71-.29-.99-.53-.95-.13-1.2-.4c-.3-.32.16-1.26-.08-1.59-.26-.35-1.23-.22-1.43-.58-.21-.38.09-.82-.05-1.21.45-.39.58.01,1.13-.21s.27-.92.82-1.15.53-.29,1.08-.52.54-.26,1.1-.48.68-.13,1.27-.17c.16.37.51.74.73,1.06s-.03,1.06.25,1.34.7.48,1.02.71c.33.23.72.53,1.09.68s.86.18,1.26.25.84-.58,1.25-.58.8.21,1.19.15c.41-.06.81-.06,1.18-.2s.74-.31,1.08-.53.36-.75.65-1.04c.31-.31.63-.5.85-.89s.88-.56,1.01-1c.12-.4.45-.85.51-1.31.05-.42-.06-.92-.06-1.38,0-.9-.06-.94-.23-1.82-.04-.18-.43-.29-.59-.2-.24.34-.61.64-.91.93s-.64.4-.99.63-.28,1.15-.66,1.32c-.41.19-.98.04-1.43.17s-.83.65-1.3.7c-.44.05-.96-.63-1.43-.63s-.88-.07-1.33-.13-.87-.12-1.31-.24-.89-.14-1.31-.33-1.11.14-1.51-.1c-.33-.2-.31-.96-.61-1.19s-.84-.19-1.12-.45-.18-.88-.43-1.17-.36-.64-.58-.96-1.18-.16-1.37-.5c-.21-.38.34-1.14.17-1.54s-.81-.62-.93-1.05-.29-.84-.36-1.28.24-.91.2-1.35-.39-.85-.39-1.3.59-.86.63-1.29-.05-.87.03-1.29.01-.89.13-1.3.61-.69.78-1.08-.24-1.08-.02-1.45c.19-.34.25-.79.47-1.1s.4-.73.64-1.01,1.13,0,1.41-.25.42-.65.73-.88.51-.61.84-.8c.4-.24.85-.38,1.26-.56s.95.01,1.39-.11.84-.22,1.3-.29.86-.1,1.33-.1.89.02,1.34.07c.47.06,1.07-.61,1.5-.5s.78.67,1.19.85c.39.17.62.58.96.81s.81.31,1.1.6.41.84.65,1.19c.16.09.52,0,.57-.17.17-.58-.41-.64-.41-1.24s-.38-1.04.03-1.48c.38-.41.85.06,1.41.06s.57.12,1.13.12.57-.33,1.14-.33.57.42,1.14.42.88-.54,1.26-.12c.42.46-.19.74-.19,1.36s-.09.63-.09,1.25-.14.63-.14,1.26.68.63.68,1.25-.08.63-.08,1.25-.11.63-.11,1.25.05.63.05,1.26.09.63.09,1.26.06.63.06,1.26-.68.63-.68,1.26.59.63.59,1.26-.27.63-.27,1.26-.13.63-.13,1.26.28.63.28,1.26-.26.63-.26,1.26.17.63.17,1.27-.24.63-.24,1.27c0,.45-.37.86-.4,1.29s.2.89.13,1.32,0,.9-.11,1.32.13,1-.03,1.4-.59.73-.8,1.12c-.19.35-.47.65-.69.98s-.73.42-.98.71-.29.8-.58,1.06-.87.13-1.19.36-.22,1.11-.57,1.3c-.37.21-.98-.04-1.39.13s-.72.55-1.14.67-.78.59-1.21.66-.93-.39-1.37-.36-.85.28-1.3.28ZM55.25,27.69c.52,0,1.14.61,1.63.48s.97-.55,1.43-.8c.31-.17.46-.6.73-.83s.85-.18,1.08-.46.42-.63.6-.94c.2-.35.25-.83.38-1.23.12-.37.05-.83.11-1.25.05-.39-.45-.8-.45-1.23s.94-.91.88-1.31c-.06-.43-1.01-.66-1.12-1.04-.13-.41.25-1,.05-1.35-.18-.31-.23-.76-.45-1.02s-1,.02-1.27-.2-.53-.31-.84-.47c-.46-.24-.85-.35-1.34-.47s-.89-.48-1.41-.48-.99.11-1.48.23-1.23-.3-1.7-.06c-.31.16-.61.49-.88.71s-.63.46-.86.73-.36.67-.54.98c-.2.35.26,1,.14,1.41-.12.38-.42.69-.48,1.12-.05.39-.18.79-.18,1.23s.02.84.07,1.23c.06.43.52.7.64,1.08.13.41.13.77.33,1.12.18.32-.07.91.15,1.17s.37.73.64.95.71.34,1.03.5c.47.24,1.08.23,1.57.35s1.03-.15,1.55-.15Z"/>
  <path class="cls-1" d="M79.66,33.94c-.38,0-.73-.2-1.09-.24-.38-.04-.77.17-1.13.09s-.64-.42-.99-.55-.79,0-1.12-.18c-.41-.21-.47-.89-.82-1.16s-1.26.05-1.57-.28,0-1.12-.24-1.52-.57-.71-.73-1.16-.94-.75-1.02-1.22c-.07-.45.54-1,.54-1.49,0-.37-.58-.79-.53-1.14.05-.37.28-.75.38-1.09s.71-.51.87-.84.29-.63.51-.92c.28-.39.19-1.13.54-1.46s1.05-.24,1.45-.51.75-.58,1.2-.78c.36-.16.82-.04,1.2-.16s.73-.19,1.13-.27.69-.83,1.09-.87.83.19,1.23.19c.44,0,.84.61,1.25.64.45.03.91-.49,1.31-.43.36.05.76-.16,1.08-.1.36.07.65.46.96.54.6.15,1.21.44,1.6.62.21-.45.06-.56.06-1.05,0-.4.14-.89.04-1.25s-.76-.54-.97-.86-.45-.54-.76-.81c-.34-.29-.76-.32-1.19-.5-.4-.17-.77-.12-1.25-.2-.42-.07-.79-1.04-1.28-1.04-.36,0-.72.49-1.07.54s-.8-.17-1.14-.06-.6.48-.93.64-.76.16-1.05.35-.47.59-.73.83-.49.58-.72.86c-.56-.22-.47-.4-.94-.77s-.33-.55-.8-.92-.84.09-1.31-.28-.68-.34-1.02-.84c.25-.32.54-1.08.82-1.36s.81-.34,1.11-.6.67-.44,1-.67c.33-.23.81-.19,1.16-.38s.56-.68.94-.83.78-.22,1.17-.34c.41-.12.78-.43,1.2-.5s.84-.3,1.27-.34.88.35,1.31.35.84-.17,1.23-.15c.42.02.8.36,1.19.41.42.05.83,0,1.22.09.41.09.76.32,1.14.44.4.13.82.14,1.18.31s.82.23,1.15.44.33.88.63,1.15c.33.29.54.59.81.93s.82.45,1.03.83.28.8.43,1.22c.14.4.23.8.32,1.24.09.42.06.84.1,1.29.04.42.34.84.34,1.29,0,.64.07.64.07,1.28s.09.64.09,1.28-.11.64-.11,1.28.42.64.42,1.29-.41.64-.41,1.28-.54.64-.54,1.28.87.64.87,1.28-.85.64-.85,1.29.06.64.06,1.29.42.65.42,1.29.61,1,.18,1.49c-.38.43-.79-.35-1.37-.35s-.58-.01-1.16-.01-.58.3-1.16.3-.58-.3-1.17-.3-.39.21-.8-.2-.7-.22-.7-.81.13-.49-.05-1.05c-.05-.17-.01-.62-.18-.54-.22.28-.38.84-.66,1.1-.26.24-.42.6-.72.83-.32.24-.51.79-.89.99-.36.18-.93-.06-1.34.08-.44.15-.89.29-1.38.36-.46.07-.93.08-1.43.08ZM81.05,29.45c.37,0,.76.16,1.1.11.36-.05.66-.4.98-.51.34-.12.79-.05,1.08-.24.41-.26.61-.79.92-1.13s1.06-.47,1.28-.89c.22-.42-.41-1.16-.3-1.6s.83-.98.83-1.45c-.34-.17-.96-.34-1.35-.48-.36-.12-.92.43-1.32.33-.42-.1-.72-.81-1.15-.86s-.88.53-1.31.53c-.46,0-.85-.13-1.24-.08-.47.06-.99-.35-1.35-.22-.45.16-.87.46-1.14.73-.33.33-.1.97-.27,1.38s-.72.7-.72,1.18c0,.45.19.86.35,1.24s.22.93.54,1.23c.35.33.91.65,1.45.8.44.12,1.03-.06,1.6-.06Z"/>
  <path class="cls-1" d="M108.78,34.5c-.45,0-.87-.86-1.3-.9s-.97.52-1.4.44-.95-.04-1.37-.16-.76-.59-1.17-.77-.58-.8-.96-1.02c-.36-.21-1.17.26-1.51.02s-.61-.64-.91-.92-.57-.65-.84-.96.04-1.07-.2-1.41-.71-.49-.91-.86-.96-.52-1.13-.91,0-.95-.13-1.37-.19-.85-.28-1.28-.45-.83-.49-1.27.51-.89.51-1.34,0-.86.04-1.29.42-.79.5-1.21.15-.81.28-1.22-.11-.93.06-1.33.68-.6.89-.98c.21-.37-.11-1.05.12-1.38s.9-.34,1.17-.65.44-.7.75-.98.45-.75.79-1,.64-.56,1.01-.77c.38-.22,1.04.11,1.45-.07s.79-.3,1.21-.43.73-.63,1.17-.71.87-.15,1.32-.19.88-.05,1.33-.05.86.5,1.29.54.9-.21,1.33-.13.77.46,1.19.58,1.06-.33,1.46-.15.91.24,1.29.46c.36.21.69.54,1.02.78s.72.49,1.02.77.22.96.5,1.27.83.4,1.07.74.33.78.54,1.14c.21.38-.12.99.05,1.39s.78.6.9,1.02.43.79.51,1.22.2.86.24,1.3.09.88.09,1.32-.07.9-.11,1.32-.51.81-.59,1.23.07.91-.05,1.32-.64.68-.81,1.08.11,1.01-.11,1.39-.83.46-1.06.8-.59.55-.86.85-.39.73-.69,1.01-.45.74-.79.99-.83.23-1.19.44c-.38.22-.59.8-.99.97s-1.03-.28-1.45-.15-.77.39-1.21.47-.84.11-1.29.14-.85.84-1.3.84ZM108.78,27.98c.37,0,.79.81,1.14.76s.57-.75.91-.87.55-.39.86-.56.76-.09,1.04-.32.89-.17,1.12-.45-.26-1.04-.07-1.37c.21-.36.47-.6.6-1.01.13-.39.29-.72.35-1.15.06-.4.8-.78.8-1.22s-.35-.87-.4-1.27c-.06-.43-.74-.67-.87-1.05-.13-.41.03-.86-.18-1.22-.19-.32-.36-.63-.59-.9s-.68-.29-.95-.53-.23-.9-.55-1.08c-.32-.18-.68-.33-1.02-.45s-.66-.54-1.02-.6-.79-.07-1.16-.07-.74.43-1.09.49-.84-.19-1.18-.07-.42.85-.75,1.03c-.33.18-.92-.03-1.21.2s-.47.63-.71.91-.22.74-.41,1.06c-.21.35-.27.74-.41,1.14-.13.38-.79.66-.86,1.09-.06.4-.1.86-.1,1.3s.44.85.5,1.25c.06.43.16.83.29,1.21.13.41.29.78.5,1.14.19.33.02.94.26,1.21s.75.36,1.04.6.48.7.81.87c.32.17.93-.27,1.27-.15s.68.02,1.04.08.65-.01,1.01-.01Z"/>
  <path class="cls-1" d="M136.16,33.54c-.44,0-.91.87-1.33.83s-.8-.68-1.21-.76-.8-.29-1.2-.42-.69-.49-1.09-.66-1.12.35-1.5.13c-.36-.21-.47-.81-.8-1.05s-.52-.62-.82-.9-.71-.41-.99-.72-.65-.52-.89-.86-.59-.6-.79-.97-.6-.71-.77-1.11.12-.98,0-1.4.02-.87-.06-1.3-.16-.82-.2-1.26-.26-.83-.26-1.28-.13-.85-.09-1.27-.36-.94-.28-1.35.3-.84.43-1.25.6-.7.76-1.09.03-.95.23-1.32c.2-.37,1.16-.26,1.39-.6s.28-.78.55-1.1.04-1.11.34-1.4.84-.34,1.16-.6.66-.52,1.01-.74.98.02,1.36-.16.49-1.09.89-1.23.9-.07,1.32-.16.86-.21,1.29-.26.88.52,1.31.52.87-.08,1.29-.05c.44.04.9-.12,1.31-.04.44.08.76.54,1.16.66s.85.12,1.24.3.72.43,1.09.66c.33.21.97-.03,1.27.2s.15,1,.42,1.26.61.44.85.74.36.65.57.97.87.38,1.04.73c.18.36-.19.95-.05,1.33s.12.76.23,1.15.46.68.53,1.08.17.77.2,1.18.39.79.39,1.19c0,.48.12.92.09,1.27-.03.35-.38.63-.41.78-.61.07-.62-.35-1.24-.35s-.62.45-1.23.45-.61-.51-1.23-.51-.61,0-1.23,0-.61.09-1.23.09-.62-.11-1.23-.11-.62.44-1.23.44-.62-.46-1.23-.46-.62.85-1.23.85-.62-.69-1.23-.69-.62.22-1.23.22-.61.14-1.23.14-.62-.51-1.24-.51-.62.21-1.24.21-.62.35-1.24.35-1,.42-1.41-.04c-.46-.52-.14-.85-.14-1.54s-.03-.7-.03-1.4.04-.72.51-1.24c.44-.47.47.27,1.12.27s.64-.63,1.29-.63.64.14,1.29.14.64-.32,1.29-.32.64.3,1.29.3.64.55,1.29.55.64-.51,1.28-.51.65-.44,1.29-.44.65.91,1.29.91.65-.04,1.3-.04.62-.34,1.22-.58c-.03-.51-.39-.7-.66-1.24-.14-.28.11-.78-.09-1.03s-.8-.07-1.04-.3c-.25-.23-.03-1.08-.32-1.26-.28-.18-.7-.24-1.02-.38-.35-.15-.85.09-1.26.02-.37-.07-.75,0-1.16,0-.38,0-.83-.65-1.18-.58s-.59.72-.93.86-.71.19-1.03.39c-.32.2-.91.13-1.18.39s-.47.68-.7.98.29,1.03.12,1.38c-.19.38-.46.65-.58,1.08-.12.41-.56.73-.61,1.18-.05.42.03.85.03,1.31s-.21.93-.15,1.36c.06.46.23.9.36,1.31.13.44.42.8.63,1.19.18.34.37.66.6.95s.41.65.69.9.72.25,1.06.44c.33.19.44.9.8,1.02s.78.3,1.16.36.81.16,1.2.16c.43,0,.84-.57,1.24-.63.43-.06.8-.23,1.17-.37.4-.14.55-.61.9-.83.31-.2.83-.05,1.1-.29s.3-.68.53-.96.74-.61.93-.93c.65.13.53.57,1.13.86s.82-.16,1.41.14.22,1.06.82,1.36.88-.22,1.36.25c-.21.37-.48.67-.71,1.01s-.68.51-.95.82-.43.7-.73.99-.73.38-1.06.63-.47.74-.82.96c-.38.24-.83.29-1.24.48s-.62.91-1.06,1.04-.89.26-1.34.35-.94-.22-1.4-.18c-.44.04-.89-.43-1.35-.43Z"/>
  <path class="cls-1" d="M157.04,34.11c-.43-.44.29-.98.29-1.6s-.43-.62-.43-1.24.64-.62.64-1.24-.13-.62-.13-1.24-.11-.62-.11-1.24-.26-.62-.26-1.24.16-.62.16-1.24-.2-.61-.2-1.23.33-.61.33-1.23,0-.62,0-1.23-.4-.62-.4-1.24.21-.62.21-1.24-.12-.62-.12-1.24,0-.62,0-1.24.34-.62.34-1.24-.34-.62-.34-1.24.14-.62.14-1.24.47-.62.47-1.24-.71-.62-.71-1.24.55-.62.55-1.24-.49-.62-.49-1.24.12-.62.12-1.24.67-.62.67-1.25-.31-.62-.31-1.25.02-.63.02-1.25-.27-.55.18-.99.39.04,1.05.04.65-.32,1.3-.32.65.03,1.31.03.65.39,1.31.39.66-.27,1.31-.27.6-.23,1.14.13.4.33.63.92,0,.67.23,1.26.04.66.26,1.25.26.58.49,1.17.52.48.75,1.08.45.51.67,1.1.19.61.41,1.2.46.51.68,1.1-.4.84-.18,1.43.53.48.76,1.08.23.6.45,1.19.64.44.87,1.04-.1.72.12,1.32-.36.82-.14,1.41.43.52.66,1.11.03.67.25,1.27.47.51.7,1.11.59.46.82,1.06.26.5.63,1.04c.1.15.1.5.2.35.36-.52.4-.58.62-1.17s-.19-.75.03-1.34.74-.4.96-.99-.2-.75.03-1.35.58-.46.81-1.06.08-.65.31-1.24.43-.51.66-1.11-.26-.78-.04-1.37.36-.55.59-1.14.53-.48.75-1.08-.59-.9-.37-1.5,1.07-.28,1.3-.88-.68-.94-.45-1.53,1.07-.28,1.29-.87-.23-.77,0-1.36.17-.62.4-1.22.17-.62.39-1.22.72-.42.94-1.02-.54-1.21-.01-1.57.83.33,1.48.33.65-.3,1.31-.3.66.19,1.31.19.66.22,1.31.22.66-.62,1.32-.62.95-.13,1.43.32c.45.42-.42.73-.42,1.35s.16.62.16,1.24-.21.62-.21,1.24-.08.62-.08,1.24.87.62.87,1.24-.35.62-.35,1.24,0,.62,0,1.24.2.61.2,1.23-.14.61-.14,1.23-.5.62-.5,1.23.41.62.41,1.24-.09.62-.09,1.24-.31.62-.31,1.24.72.62.72,1.24-.01.62-.01,1.24-.59.62-.59,1.24.17.62.17,1.24.34.62.34,1.24-.65.62-.65,1.24.69.62.69,1.24-.15.62-.15,1.24-.08.62-.08,1.24.18.62.18,1.25.21.62.21,1.25-.16.63-.16,1.25-.18.51-.61.96-.3.55-.9.55-.6-.32-1.21-.32-.6.48-1.21.48-.61,0-1.21,0-.83.05-1.26-.38.38-.66.38-1.26-.38-.61-.38-1.22-.23-.61-.23-1.22.54-.61.54-1.22,0-.61,0-1.22-.54-.61-.54-1.22.02-.61.02-1.22.02-.61.02-1.22.74-.61.74-1.22-.19-.61-.19-1.23-.48-.61-.48-1.23-.16-.62-.16-1.23.03-.63.06-1.24c.02-.67.52-.64.57-1.31s-.47-.7-.43-1.37.26-.66.31-1.33.31-.67.18-1.33c-.04-.18-.11-.06-.21.09-.36.51-.3.51-.53,1.1s.13.73-.09,1.31-.61.44-.84,1.03-.5.48-.73,1.08.33.8.11,1.39-.44.51-.66,1.09-.8.37-1.03.96.23.77,0,1.36.21.76-.02,1.35-.23.59-.46,1.18-.61.44-.84,1.04-.59.45-.82,1.04.54.89.31,1.48-.9.33-1.12.92.23.77,0,1.36-.1.64-.33,1.24-.17.62-.4,1.21-.49.49-1,.86c-.48.35-.47.5-1.06.5s-.59-.67-1.18-.67-.59.05-1.18.05-.77.73-1.26.39c-.51-.36-.03-.73-.26-1.32s0-.68-.22-1.26-.37-.53-.6-1.12-.31-.56-.54-1.15.04-.69-.18-1.28-.42-.51-.65-1.1-.02-.67-.25-1.26-.54-.47-.77-1.06-.62-.44-.85-1.03-.32-.55-.55-1.14.13-.73-.1-1.33-.57-.46-.8-1.05.07-.71-.16-1.3-.08-.65-.31-1.24.02-.69-.21-1.28-.83-.36-1.06-.95.49-.87.26-1.47-.95-.22-1.31-.74c-.1-.15-.13-.48-.16-.31-.13.66-.27.74-.22,1.41s1.03.6,1.07,1.27.07.67.11,1.34-.79.72-.76,1.39c.02.61.69.6.69,1.2s-.68.61-.68,1.22.5.61.5,1.22.17.61.17,1.22-.69.61-.69,1.22.4.61.4,1.22-.35.61-.35,1.22.61.61.61,1.22-.32.61-.32,1.22.1.61.1,1.23.34.61.34,1.23-.73.62-.73,1.23.46.51.03.96-.31-.02-.91-.02-.6.63-1.2.63-.6-.02-1.2-.02-.74-.82-1.31-.63c-.81.27-1.05,1.11-1.47.68Z"/>
  <path class="cls-1" d="M204.14,34.88c-.38,0-.74-.55-1.1-.59-.38-.04-.67-.38-1.03-.45s-.91.5-1.25.38-.69-.36-1.02-.53c-.41-.21-.84-.45-1.2-.71s-.17-1.11-.47-1.45-1.29-.14-1.53-.53-.49-.9-.65-1.35-.28-.97-.36-1.44c-.07-.45.58-.99.58-1.47,0-.37.06-.69.11-1.04.05-.37-.64-.89-.54-1.23s.44-.67.6-.99.78-.37,1-.66c.28-.39.68-.58,1.03-.91s.51-.79.92-1.06.77-.51,1.22-.72c.36-.16.55-.83.93-.95s.85,0,1.24-.09.79-.22,1.2-.25.81-.21,1.22-.21c.44,0,.88.28,1.29.3.45.03.92-.23,1.32-.17.36.05.66.44.99.5.36.07.76-.07,1.08,0,.6.15.86.57,1.25.75.21-.45.64-.42.64-.92,0-.4-.06-.92-.16-1.27s-.71-.61-.92-.93-.78-.24-1.09-.5c-.34-.29-.4-.95-.83-1.13-.4-.17-.82-.52-1.29-.6-.42-.07-.93.35-1.41.35-.36,0-.73-.18-1.09-.13s-.77-.02-1.11.1-.77.11-1.1.27-.69.35-.98.54-.19.94-.45,1.18-.69.38-.92.65c-.56-.22-.34-.57-.81-.94s-.55-.28-1.02-.65-.66-.13-1.14-.5-.39-.48-.72-.99c.25-.32.22-.77.5-1.06s.74-.41,1.04-.67.76-.31,1.09-.54c.33-.23.65-.46,1-.65s.57-.69.95-.85.94.29,1.34.17c.41-.12.71-.61,1.13-.69s.89.4,1.32.36.8-.48,1.23-.48.81.26,1.21.28c.42.02.88-.48,1.27-.43.42.05.78.41,1.17.49.41.09.89-.07,1.26.05.4.13.57.81.93.97s1.01-.15,1.35.06.3.94.6,1.21c.33.29.62.54.89.88s.96.4,1.17.79.09.92.24,1.34c.14.4.78.7.87,1.14.09.42-.75.98-.71,1.43.04.42.68.82.68,1.27,0,.64-.45.64-.45,1.28s-.01.64-.01,1.28.26.64.26,1.28-.46.64-.46,1.29.76.64.76,1.28-.32.64-.32,1.28-.17.64-.17,1.28.65.64.65,1.29-.39.64-.39,1.29.48.65.48,1.29-.35.56-.78,1.04c-.38.43-.3-.17-.87-.17s-.58.94-1.16.94-.58-.82-1.16-.82-.58.63-1.17.63-1.04.37-1.45-.04.54-.87.54-1.46-.55-.47-.72-1.03c-.05-.17.31-.15.15-.07-.22.28-.65.31-.92.57-.26.24-.67.25-.97.47-.32.24-.41.8-.79.99-.36.18-.65.6-1.05.74-.44.15-.9.55-1.4.62-.46.07-1.01,0-1.51,0ZM205.53,29.47c.37,0,.74.51,1.08.46.36-.05.83.13,1.15.02.34-.12.36-.91.66-1.1.41-.26.77-.46,1.09-.8s.52-.7.74-1.12c.22-.42,1.08-.62,1.19-1.06s-.68-.83-.68-1.29c-.34-.17-.48-.13-.87-.27-.36-.12-.7-.24-1.11-.33-.42-.1-.72-.85-1.15-.9s-.89-.12-1.33-.12c-.46,0-.84.8-1.22.85-.47.06-.86-.06-1.22.06-.45.16-1.09-.05-1.36.22-.33.33-.81.73-.97,1.14s0,1.01,0,1.49c0,.45.14.92.29,1.29s.82.36,1.14.66c.35.33.57.69,1.11.84.44.12.9-.05,1.47-.05Z"/>
  <path class="cls-1" d="M222.38,33.65c-.43-.45-.47-.52-.47-1.14s0-.62,0-1.24.17-.62.17-1.24.21-.62.21-1.24-.46-.62-.46-1.24.87-.62.87-1.24-.81-.62-.81-1.24.78-.61.78-1.23-.05-.61-.05-1.23-.11-.62-.11-1.23-.42-.62-.42-1.24-.15-.62-.15-1.24-.16-.62-.16-1.24.08-.62.08-1.24.91-.62.91-1.24-.58-.62-.58-1.24-.4-.62-.4-1.24.28-.62.28-1.24,0-.62,0-1.24.29-.62.29-1.24-.16-.62-.16-1.24.32-.62.32-1.24-.67-.62-.67-1.25.51-.62.51-1.25-.1-.63-.1-1.25-.62-1.03-.19-1.49c.4-.43.84.12,1.42.12s.59.46,1.18.46.59-.14,1.18-.14.59-.13,1.18-.13.47-.21.88.22.44.33.44.94-.17.62-.17,1.24.01.62.01,1.24-.05.62-.05,1.24-.18.62-.18,1.24.06.62.06,1.24.14.62.14,1.24,0,.61,0,1.23.07.61.07,1.23-.33.62-.33,1.23.24.62.24,1.24.57.62.57,1.24-.11.62-.11,1.24-.7.62-.7,1.24-.18.62-.18,1.24.49.62.49,1.24.3.62.3,1.24,0,.62,0,1.24-.05.62-.05,1.24-.33.62-.33,1.24-.14.62-.14,1.24.4.62.4,1.24-.12.62-.12,1.25-.12.62-.12,1.25.49.63.49,1.25.19.95-.24,1.41c-.4.43-.75.11-1.34.11s-.59.22-1.18.22-.59-.42-1.18-.42-.63-.32-1.21-.21-.64.49-1.05.06ZM225.8,28.8c-.56-.23-.42-.47-.42-1.08s0-.6,0-1.21.17-.61.17-1.22.21-.61.21-1.22-.46-.61-.46-1.22.6-.49.84-1.05-.21-.89.25-1.34,1,.1,1.46-.35.42-.49.88-.94.38-.53.83-.98.16-.75.61-1.19.35-.56.8-1.01.35-.56.81-1.02.51-.4.97-.85,1.1.19,1.56-.26.05-.87.52-1.32.18-.74.64-1.2.59-.5,1.19-.76c.55-.24.69-.03,1.29-.03s.6.29,1.2.29.6-.16,1.21-.16.6.32,1.21.32.61-.67,1.21-.67.62.34,1.2.51c.17.05.16.2.06.35-.35.49-.24.63-.67,1.05s-.59.26-1.02.68-.75.09-1.18.51-.33.52-.76.94-.34.51-.77.94-.68.17-1.11.6-.05.82-.48,1.24-.55.3-.99.72-.42.43-.86.85-.47.38-.9.81-.56.3-1,.72-.39.47-.83.89-.34.52-.77.95-.43.42-.86.84-.39.47-.82.9-.67.19-1.11.61-.27.6-.7,1.02-.04.83-.48,1.26-.51.35-.95.78-1.09-.1-1.41.42.01,1.12-.56.89ZM237.48,33.63c-.53-.3-.71-.19-1.03-.71s-.33-.51-.65-1.03-.18-.61-.5-1.12-.15-.62-.47-1.14-.71-.27-1.03-.79.42-.98.1-1.49-1.01-.08-1.33-.6.34-.93.01-1.44-.37-.49-.69-1.01-.42-.46-.74-.98-.68-.3-1.01-.82-.89-.57-.83-1.18c.05-.57.4-.73.81-1.13s.46-.34.87-.74,1.04.25,1.45-.15,0-.81.42-1.22.41-1.33.98-1.23c.63.11.46.91.81,1.44s.36.53.71,1.06.11.69.46,1.22.49.44.84.97.09.71.45,1.24.91.16,1.26.7-.07.82.28,1.35.44.48.8,1.01.59.37.94.91.17.66.52,1.19-.03.79.32,1.32.47.46.83,1,.46.46.82,1,.07.73.43,1.27.9.21,1.18.79c.08.16.04.32-.13.38-.55.17-.57.01-1.15.01s-.58-.05-1.16-.05-.58-.18-1.16-.18-.58.06-1.16.06-.59.09-1.17.14-.58.23-1.09-.06Z"/>
  <path class="cls-1" d="M258.12,34.31c-.44,0-.83-.28-1.26-.32s-.85.08-1.27,0-.92.13-1.32,0-.7-.56-1.09-.74-.96,0-1.34-.21c-.36-.21-.43-.85-.75-1.09s-1.1.04-1.4-.23-.19-.98-.46-1.29-1.07-.21-1.31-.55-.08-.95-.29-1.31.05-.97-.12-1.37-.52-.69-.64-1.11-.7-.72-.78-1.15.36-.92.32-1.36-.78-.84-.78-1.28.29-.87.32-1.29.04-.88.12-1.29.49-.76.61-1.17.52-.69.69-1.08-.22-1.04-.01-1.41c.2-.37.57-.65.8-.99s.58-.61.85-.92.51-.66.81-.95.35-.9.67-1.16.72-.49,1.07-.72.86-.3,1.25-.49.94.01,1.34-.12.81-.22,1.23-.31.77-.7,1.2-.75.89.76,1.32.76.92-.86,1.34-.82c.44.04.89.24,1.31.32.44.08.94.06,1.34.18s.63.87,1.02,1.04,1.05-.09,1.42.13c.33.21.51.67.81.9s.38.73.65,1,.92.21,1.16.51.38.71.59,1.03.3.73.47,1.07c.18.36-.07.89.07,1.27s.14.75.25,1.14.52.67.59,1.07.35.76.38,1.17-.27.81-.27,1.21c0,.48-.24.86-.27,1.2-.03.35.35.4.32.55-.61.07-.59.19-1.2.19s-.62.55-1.23.55-.61-.93-1.23-.93-.61.84-1.23.84-.61-.06-1.23-.06-.62,0-1.23,0-.62.09-1.23.09-.62-.75-1.23-.75-.62.22-1.23.22-.62-.03-1.23-.03-.62-.05-1.23-.05-.61.52-1.23.52-.62-.88-1.24-.88-.62.34-1.24.34-.62.02-1.24.02-1.15.9-1.56.44c-.46-.52.3-.98.3-1.68s.48-.7.48-1.4-1.16-1.1-.69-1.61c.44-.47.88-.17,1.52-.17s.64-.12,1.29-.12.64.62,1.29.62.64.18,1.29.18.64-.64,1.29-.64.64-.14,1.29-.14.64.95,1.28.95.65-.03,1.29-.03.65-.12,1.29-.12.65-.75,1.3-.75.86,1.08,1.46.84c-.03-.51-.78-1.24-1.05-1.78-.14-.28-.03-.63-.23-.88s-.46-.36-.69-.58c-.25-.23-.25-.76-.54-.94-.28-.18-.53-.5-.86-.63-.35-.15-.9.36-1.3.28-.37-.07-.7-.43-1.11-.43-.38,0-.82-.44-1.17-.38s-.46,1.03-.81,1.16-.58.27-.89.47c-.32.2-1.02-.13-1.3.13s-.76.42-.98.72.02.92-.16,1.27c-.19.38-.61.7-.73,1.13-.12.41-.04.89-.09,1.34-.05.42-.42.86-.42,1.31s.14.95.19,1.38c.06.46.15.95.28,1.36.13.44.69.71.89,1.09.18.34.24.75.47,1.04s.49.59.77.84.7.3,1.03.49c.33.19.67.28,1.02.41s.63.57,1.01.63.77.28,1.16.28c.43,0,.78-.84,1.17-.9.43-.06.8.04,1.18-.1.4-.14,1.12.34,1.46.12.31-.2.26-.92.53-1.15s.44-.55.67-.82.56-.15.74-.46c.65.13.84-.38,1.44-.08s.38.72.98,1.01.43.63,1.03.92.8-.15,1.28.32c-.21.37.04.87-.2,1.2s-1.02.28-1.29.59-.29.87-.58,1.15-.5.73-.82.99-.7.5-1.05.73c-.38.24-1.14-.25-1.55-.07s-.75.38-1.19.51-.71.8-1.16.88-.91-.02-1.37.02c-.44.04-.89-.16-1.35-.16Z"/>
  <path class="cls-1" d="M273.51,33.89c-.43-.46.43-.77.43-1.4s.08-.63.08-1.27.14-.64.14-1.27-.13-.64-.13-1.28-.79-.64-.79-1.27-.06-.64-.06-1.27.84-.64.84-1.27-.8-.64-.8-1.28.64-.64.64-1.27-.66-.64-.66-1.27.27-.64.27-1.28-.18-.64-.18-1.28.63-.64.63-1.28.15-.64.15-1.27-.82-.64-.82-1.28.25-.64.25-1.28-.36-.64-.36-1.29.35-.51.82-.95c.51-.47.38-.84,1.07-.84s.69.76,1.38.76.69-.5,1.39-.5.97-.31,1.44.21c.51.57.1.81.1,1.58s.03.7.2,1.45c.04.18-.02.37.13.27.2-.36.02-1.12.28-1.45s.87-.33,1.19-.6c.33-.28.39-1.03.78-1.26s1.17.43,1.6.27c.44-.17.84-.2,1.31-.28s.85-.98,1.33-.98c.6,0,1.17.25,1.65.34.48.09.82.39,1.18.54.15.57.4.57.4,1.16s-.35.59-.35,1.18.02.59.02,1.18.2.59.2,1.18-.52.48-.69,1.05c-.31-.12-.3.36-.61.26s-.61-.17-.92-.25c-.31-.08-.51-.58-.85-.62s-.64.08-.98.08c-.37,0-.73-.18-1.07-.12-.36.06-.6.44-.92.57s-1.01-.34-1.31-.14-.21.88-.46,1.13-.6.4-.79.69-.6.49-.74.82c-.16.35.15.88.05,1.26s-.41.7-.46,1.09c-.05.37.49.77.49,1.18,0,.63.04.63.04,1.27s-.35.64-.35,1.27-.64.63-.64,1.27.65.63.65,1.27-.64.63-.64,1.27.53.64.53,1.27.1.64.1,1.27.23.64.23,1.28.17.91-.27,1.38c-.4.43-.7.09-1.29.09s-.59-.09-1.18-.09-.59-.34-1.18-.34-.56.29-1.13.45c-.69.19-.98.36-1.38-.08Z"/>
</svg>