<?xml version="1.0" encoding="UTF-8"?>
<svg id="_素材配置" data-name="素材配置" xmlns="http://www.w3.org/2000/svg" viewBox="0 0 1000 1000">
  <path d="M456.81,420.26c2.59,1.43,1.83,1.63.32-.35-.99-1.29-2.02-2.44-3.43-3.3-2.11-1.3-5-2.04-7.45-2.54-2.72-.55-5.31-.15-8.03.05-1.47.1-3.24-.1-.88.49-1.33-.33-2.59-1.45-3.98-1.84-2.34-.66-5.21-1.22-7.65-1.26-.72-.01-6.1,0-2.94.72s-1.64-1.2-2.23-1.39c-3.07-.99-6.62-.84-9.46.84-.93.55-1.92,1.35-2.7,2.08-1.93,1.79-1.82,1.1.99.35h5.32l-.73-.29,4.41,2.57c-2.48-2.29-4.04-4.66-7.6-5.68-4-1.15-6.55.49-10.23,1.06h5.32c-2.15-.57-5.45-2.2-8.6-2.02-3.45.19-6.78,1.06-10.16,1.61h5.32c-.67-.15-3.04-1.3-4.52-1.63-2.37-.52-4.77-.3-7.16-.04-4.82.51-7.21,3.03-10.69,5.94l4.41-2.57-.74.26h5.32l1.63.92-2.02-1.56c-1.04-.67-2.12-1.27-3.32-1.64-2.24-.69-4.97-.77-7.34-.76-4.32.02-9.68.68-13.8,2.01-3.84,1.24-7.71,2.61-11.57,3.81-1.88.58-3.48.84-5.42.97-1.81.12-4.78,1.29-6.23,1.13l5.05,1.37c-4.23-1.81-7.96-3.37-12.55-1.68-1.89.7-3.04,1.97-4.74,2.98-.81.69-.65.55.48-.44-1.58.36-1.91.5-.98.42l5.05,1.37c-2.92-1.34-5.18-3.16-8.59-3.29-2.94-.11-6.84,2.13-8.27,2.44-1.57.34-5.51.7-8.15,1.64-1.93.69-3.7,1.6-5.21,3.03-.31.29-2.38,2.11-.88,1.23-11.09,6.52-1.03,23.82,10.09,17.27,1.25-.74,2.69-1.56,3.53-2.78,1.13-1.2.87-1.17-.78.1.72-.22,1.44-.44,2.16-.64,1.46-.35,3.02-.28,4.49-.64,1.12-.1,2.17-.47,3.14-1.12,1.9-.61,1.86-.79-.12-.53l-5.05-1.37c4.09,1.86,7.24,3.99,12.03,2.99,2.2-.46,4.7-1.2,6.69-2.23,1.36-.7,3.31-2.33,4.01-2.66l-5.05,1.37,1.16.12-5.05-1.37c3.75,1.59,7.22,3.06,11.36,2.19,2.21-.46,3.89-.85,6.15-1.04,6.23-.52,12.39-3.4,18.31-5.21,2.42-.74,5.09-1.25,7.65-1.41.25-.02,3.37.03,3.35.12.06-.23-6.33-3.02-.3.61,3.03,1.83,6.42,2.33,9.82,1.31,3.22-.97,4.87-3.32,7.29-5.33l-4.41,2.57c-1.63.56,3.99-.89-.21-.77,1.21-.03,2.9,1.39,4.08,1.7,3.26.87,6.06-.02,9.22-.54l2.66-.36c-2.6-.75-3.24-.8-1.92-.16.81.99,2.77,1.31,4.06,1.6,3.75.86,6.37-.7,9.87-1.2h-5.32l.73.28-4.41-2.57c3.2,2.93,5.77,6.19,10.62,6.19,2.34,0,4.46-.8,6.38-2.06,1.02-.63,1.93-1.39,2.72-2.29,1.37-1.34.81-1.22-1.69.39h-5.32c.55.17,2.9,1.59,4.35,1.94,2.66.63,4.19.07,6.83-.12-2.32.17,2.12.29,2.06.27.98.32,2.85,1.67,4.39,2.05,2.04.5,3.71.26,5.7.19,1.01.04,2.02.02,3.04-.05,2.92-.27,3.55-.39,1.9-.36l1.45.44c-2.64-2.68-3.32-3.12-2.03-1.32,1.18,1.97,2.9,3.6,4.9,4.7,11.28,6.22,21.38-11.05,10.09-17.27h0Z"/>
  <path d="M546.43,435.19c.96-.24,1.99-.42,2.91-.78-.93.37-2.26-.24-.32.26,2.58.66,3.76.67,6,1.03,5.52.88,8.9-1.89,12.8-5.22l-4.41,2.57c1.64-.69,3.51-.99,5.27-1.33h-5.32c-1.32-.25,1.12.85,1.46,1.04,1.72.93,4.01,1.55,5.97,1.55,4.1,0,7.19-2.62,10.24-4.99l-4.41,2.57c1.29-.51,4.15-.36,5.9-.49,3.01-.21,5.68-1,8.59-1.63h-5.32c-1.63-.36.86.71,1.29.94,2.24,1.21,4.76,1.75,7.28,1.4,3.99-.56,6.35-2.99,9.25-5.47l-4.41,2.57c.25-.09,4.47.32,5.75.35,1.1.02,2.07.05,3.17.17,4.17.47-3.66-1.15,3.14.96,5.02,1.56,9.87-.77,14.85-.24,1.46.15,2.84.42,4.32.44,1.88.02,1.31.38.12-.26,2.03,1.1,3.86,2.01,5.33,2.82,2.94,1.62,6.31,2.14,9.56,1.24,1.13-.32,2.22-.92,3.21-1.55.85-.6,1.66-1.24,2.45-1.93,1.02-.83.5-.57-1.56.8h-5.32c.13.05,3.85,2.47,3.9,2.5,3.05,1.84,5.78,2.58,9.38,2.59,2.73,0,5.54.03,8.02-1.31,2.56-.91,1.51-1.04-3.15-.39l2.39,1.01c1.3.46,2.97,1.01,4.34,1.2-1.07-.15-2.21-1.75-.28.09.98.94,2.04,1.71,3.22,2.34,2.77,1.47,5.46,1.21,8.42,1.39,2.75.54,3.51.62,2.3.24-.84-.32-.53-.07.94.74,1.35.85,2.98,1.38,4.47,1.86,2.66.87,5.28,1.21,8.02,1.75,5.29,1.04,10.8-1.5,12.3-6.98,1.35-4.91-1.66-11.25-6.98-12.3-3.92-.77-6.83-1.39-10.38-3.1-4.38-2.11-9.31-1.92-14.03-2.23l5.05,1.37c1.32.68-.74-.85-1.04-1.11-.87-.79-1.83-1.42-2.85-1.97-2.59-1.4-5.65-1.7-8.39-2.66-3.22-1.13-5.98-1.69-9.36-.7-4.47,1.31-1.87,2.18-.74.78-.3.37-4.08,0-4.52-.02l5.05,1.37c-3.9-1.65-6.38-4.41-10.21-5.53-2.63-.77-5.3-.59-7.82.45-1.24.52-1.96,1.01-3.03,1.82-.5.36-.98.74-1.43,1.14-1.02.83-.5.57,1.56-.78h5.32c-.14-.05-3.81-2.1-4.02-2.2-3.11-1.44-5.21-2.25-8.7-2.45-5.55-.32-10.64-.65-16.17.4l1.72.47-2.39-1.01c-1.46-.45-2.98-.53-4.49-.72-2.68-.34-5.22-.42-7.91-.46-2.84-.04-5.57-.63-8.37.18-3.18.92-5.09,3.07-7.48,5.11l4.41-2.57-.89.33h5.32c1.5.35-1-.79-1.29-.95-1.03-.55-2.16-.93-3.3-1.21-3.37-.82-6.13.5-9.33.96-2.66.38-5.4.08-8.06.56-3.62.65-6.07,2.58-8.91,4.8l4.41-2.57-1.08.44h5.32c1.57.32-3.99-2.1-3.85-2.05-2.63-.79-5.09-.41-7.71.11-2.06.41-4.35.98-6.18,2.05-.98.7-1.92,1.46-2.83,2.25-.89.98-1.03,1.08-.42.3l5.05-1.37c1.32.09-5.27-1.08-3.53-.83-3.74-.55,1.94.25-2.02-.33s-7.09.18-10.83,1.11c-12.48,3.1-7.2,22.39,5.32,19.29h0Z"/>
</svg>