<?xml version="1.0" encoding="UTF-8"?>
<svg id="_レイヤー_2" data-name="レイヤー 2" xmlns="http://www.w3.org/2000/svg" viewBox="0 0 1000 1000">
  <g>
    <path d="M566.16,393.26c-6.59,3.11-15.92,7.82-18.02,15.44-2.81,10.21,7.16,16.49,15.91,16.98,14.69.82,29.76-8.32,35.58-21.86,2.13-4.96,1.47-10.72-3.59-13.68-4.33-2.54-11.38-1.33-13.68,3.59-1.49,3.19-3.3,5.82-6.25,7.8-1.55,1.04-3.11,1.77-4.89,2.22-1.09.28-2.85.26-3.08.35-.63-.16-.77-.2-.43-.12,1.26.22,1.61,1.4,1.04,3.53-.6,2.21-.28,3.38.94,3.5.09.03.16-.03.2-.15.88.17,4.63-3.02,5.85-3.54,1.72-.74,3.64-1.27,5.48-1.61,1.04-.19,2.05-.28,3.11-.32.55-.03,1.11-.04,1.66-.01,1.67.13,1.15-.2-1.55-.99l-2.57-4.41-.06-.11,1.37-5.05c-1.51,3.18-9.45,2.86-12.4,2.26l4.41,16.71c3.98-4.5,9.17-6.36,15.02-4.71-1.47-5.57-2.94-11.14-4.41-16.71-4.62,4.94-10.96,7.06-17.56,5.34.8,6.09,1.59,12.18,2.39,18.28,4.67-3.17,9.61-4.54,15.2-3.22-.8-6.09-1.59-12.18-2.39-18.28-8.33,4.01-17.31,5.87-26.53,5.91,1.68,6.21,3.36,12.42,5.05,18.63,45.95-25.96,100.94-19.32,151.02-13.13v-20c-46.54-5.19-94.25,1.08-137.88,18.09-5.03,1.96-8.52,6.71-6.98,12.3,1.32,4.8,7.24,8.96,12.3,6.98,42.23-16.46,87.52-22.39,132.57-17.37,5.38.6,10-5.02,10-10,0-5.96-4.62-9.33-10-10-54.03-6.68-111.73-12.04-161.12,15.86-8.66,4.89-4.8,18.68,5.05,18.63,12.87-.06,25.06-3.08,36.63-8.65,7.77-3.74,5.66-16.38-2.39-18.28-10.56-2.49-21.56-.91-30.62,5.23-6.85,4.65-6.38,16,2.39,18.28,13.29,3.46,27.59-.4,37.02-10.48,5.11-5.46,3.01-14.63-4.41-16.71-12.31-3.45-25.95.22-34.48,9.86-4.63,5.23-3.43,15.12,4.41,16.71,8.34,1.69,16.53,1.23,24.38-2.2,7.08-3.09,13.81-9.77,11.76-18.24-4.24-17.54-30.93-9.96-40.98-2.96-6.27,4.37-12.13,10.82-9.93,19.14,1.85,7,8.43,10.98,15.23,11.83,13.79,1.72,28-7.86,33.72-20.09-5.76-3.36-11.51-6.73-17.27-10.09-1.82,4.23-4.35,7.58-8.44,9.83-1.72.94-3.57,1.64-5.52,1.97-.95.16-1.98.08-2.94.21-2.7.37-.65-1.53.97,1.68l1.37,5.05-.02-1.11-1.37,5.05c-.13.31-.7.17-.35.13,1-.11,2.65-1.86,3.49-2.39,2.15-1.36,4.39-2.53,6.69-3.62,4.88-2.31,6.14-9.31,3.59-13.68-2.92-5-8.78-5.9-13.68-3.59h0Z"/>
    <path d="M564.7,397.82l-7.07.45,8.63,15.05c.85-1.76,1.14-2.08,3.02-2.49-2.57-6.09-5.14-12.18-7.71-18.28-2.29,1.52-3.68,1.71-6.47,1.38,1.68,6.21,3.36,12.42,5.05,18.63,2.72-1.32,5.58-1.9,8.58-2-1.68-6.21-3.36-12.42-5.05-18.63-2.63,1.48-5.49,2.73-8.52,3.1,1.68,6.21,3.36,12.42,5.05,18.63,46.93-22.28,101.6-25.9,151.23-10.89,12.35,3.73,17.62-15.56,5.32-19.29-54.96-16.62-114.86-11.67-166.64,12.91-8.65,4.11-4.76,19.85,5.05,18.63,6.71-.83,12.68-2.49,18.62-5.83,8.51-4.79,4.92-18.98-5.05-18.63-6.7.23-12.66,1.83-18.68,4.73-3.94,1.9-5.7,7.28-4.6,11.29,1.26,4.58,5.21,6.81,9.64,7.34,5.79.69,11.73-.89,16.57-4.11,9.46-6.29,3.55-20.74-7.71-18.28-6.42,1.4-12.1,5.75-14.97,11.68-3.06,6.32.5,15.56,8.63,15.05l7.07-.45c12.78-.81,12.87-20.81,0-20h0Z"/>
  </g>
  <g>
    <path d="M421.54,419.81c3.5,2.34,6.69,5.05,9.35,8.32l-2.57-4.41.52,1.45v-5.32l.21-.42,3.59-3.59c.12-.08,3.12,1.28-.99.02-.71-.22-1.47-.33-2.19-.53-2.12-.6-4.1-1.58-5.87-2.91-3.33-2.51-5.42-5.92-6.47-9.9-6.43,1.77-12.86,3.54-19.29,5.32,3.94,13.2,16.31,25.85,30.89,25.98,7.31.06,14.88-3.53,17.17-10.94,2.51-8.13-2.99-15.36-8.94-20.2-9.18-7.47-34.99-18.81-39.98-.67-4.67,16.97,19.34,25.08,31.97,24.39,7.15-.39,13.01-8.33,8.63-15.05-6.91-10.61-19.21-17.42-32.05-15.79-6.76.86-13.45,8.08-8.63,15.05,7.73,11.19,20.65,18.27,34.47,16.78,7.96-.86,14.02-10.66,7.07-17.07-7.91-7.3-18.28-11.41-29.11-10.47-9.95.86-13.52,12.88-5.05,18.63,9.74,6.62,20.91,11.07,32.56,12.84,4.46.68,8.87-.45,11.29-4.6,2.05-3.5,1.88-9.44-1.56-12.12-45.61-35.54-103.75-38.82-159.32-40.17-12.89-.31-12.84,19.53,0,20,44.28,1.6,87.65,14.04,126.11,36.02,11.19,6.4,21.28-10.88,10.09-17.27-41.54-23.73-88.4-37.02-136.2-38.75v20c49.27,1.2,104.43,2.57,145.18,34.32,3.24-5.57,6.49-11.14,9.73-16.71-10.18-1.55-19.26-5.04-27.78-10.83-1.68,6.21-3.36,12.42-5.05,18.63,5.63-.49,10.74.7,14.97,4.61,2.36-5.69,4.71-11.38,7.07-17.07-6.58.71-13.28-1.2-17.2-6.88-2.88,5.02-5.76,10.03-8.63,15.05,5.83-.74,11.41.72,14.78,5.89,2.88-5.02,5.76-10.03,8.63-15.05-3.14.17-5.93.01-8.91-1.13-1.11-.42-2.16-1.37-3.26-1.67-1.98-.55.16-1.53-.17,1.07l-1.37,5.05v.23c-1.47.86-2.94,1.71-4.41,2.57,2.1-.68,6.55,1.27,8.79,2.46,1.79.96,3.46,2,4.97,3.35.37.33,1.79,2.18,2.21,2.2.07,0,2.53-7.62,2.95-6.73.07.15-1.95-.2-2.8-.51-1.32-.49-2.68-1.14-3.81-1.98-2.96-2.2-4.99-5.28-6.04-8.77-3.68-12.31-22.59-7.17-19.29,5.32,3.97,14.98,17.01,26.2,32.41,27.87,8.48.92,18.24-3.4,18.24-13.21,0-8.78-10.38-15.66-16.84-19.97-10.74-7.17-20.76,10.15-10.09,17.27h0Z"/>
    <path d="M429.5,427.63l6.93,1.48c7.11,1.52,14.71-4.63,12.3-12.3s-7.47-12.52-14.84-15.31c-9.39-3.56-16.89,10.25-9.73,16.71,5.18,4.68,11.06,7.14,18.06,7.34,10.53.3,12.78-13.34,5.05-18.63-4.61-3.16-9.88-5.35-15.38-6.34-4.42-.8-8.91.53-11.29,4.6-2.04,3.5-1.88,9.44,1.56,12.12,5.3,4.11,10.67,7.18,17.18,8.98,11.27,3.13,16.92-12.1,7.71-18.28-47.75-32.01-106.47-44.47-163.17-36.1-5.35.79-8.29,7.55-6.98,12.3,1.57,5.73,6.94,7.78,12.3,6.98,51.37-7.58,104.77,5.27,147.76,34.09l7.71-18.28c-2.96-.82-5.89-1.93-8.35-3.84-3.24,5.57-6.49,11.14-9.73,16.71,4.05.73,7.22,2,10.6,4.32,1.68-6.21,3.36-12.42,5.05-18.63-1.61-.05-2.69-.36-3.92-1.48l-9.73,16.71c.46.18.75.96.87,1.34,4.1-4.1,8.2-8.2,12.3-12.3l-6.93-1.48c-12.55-2.68-17.92,16.6-5.32,19.29h0Z"/>
  </g>
</svg>