<?xml version="1.0" encoding="UTF-8"?>
<svg id="_レイヤー_2" data-name="レイヤー 2" xmlns="http://www.w3.org/2000/svg" viewBox="0 0 1000 1000">
  <path d="M550.17,412.08c-1.97-2.19-2.45-2.47-1.44-.86.57,1.04,1.26,1.99,2.07,2.87,1.27,1.39,2.63,2.35,4.36,3.04,4.75,1.88,8.55-.13,12.85-2.07l-5.05,1.37c-3.27.33,1.31.98,2.55,1.31,1.68.45,3.51.47,5.24.7,3.85.52,7.22.62,11.05.62l-5.05-1.37c-.85-.41-.15-.13.36.4.79.84,1.82,1.71,2.8,2.29,2.06,1.22,4.57,1.84,6.89,2.33,5.12,1.09,8.29-.76,12.69-2.84l-5.05,1.37.78-.07-5.05-1.37c1.28.63,3.35,2.57,5.25,3.26,2.98,1.09,5.49.61,8.52.64l-5.05-1.37c-.81-.38-.22-.28.36.3.81.81,1.83,1.68,2.8,2.25,2.53,1.49,5.3,1.7,8.15,2.01,1.82.2,3.63.45,5.45.58,2,.14,5.18-.71,6.17-.75l-5.05-1.37c-1.71-1.92-2.17-2.36-1.39-1.3.59.84,1.2,1.65,1.86,2.44.78.83,1.67,1.66,2.65,2.24,3.06,1.82,6.48,2.11,9.85,1.12.57-.23,1.14-.46,1.7-.71,2.77-1,1.5-1.12-3.83-.37.62.82,2.38,1.32,3.26,1.63,3.28,1.16,6.3.23,8.65.22l-5.05-1.37c.65.31,2.69,1.9,4.04,2.59,2.45,1.26,4.1,1.02,6.72,1.59,1.54.34,2.94,1.1,4.48,1.46,2.56.6,4.86.14,7.35.21l-5.05-1.37c4.2,1.79,6.62,4.62,11.21,6.12,2.33.77,4.76,1.44,7.23,1.34,3.04-.13,5.51-1.68,8.23-2.83l-5.05,1.37c-.59.03,3.08,1.06.23-.44,1.41.74,2.52,2.22,3.98,3.01,3.29,1.77,7.47.9,9.82,1.02l-5.05-1.37c-1.91-2.07-1.84-1.86.2.62l.72.8c1.87,1.77,4.04,2.81,6.55,3.22,1.49.24,4.63.68,5.78-.3,1.09-.2.83-.26-.77-.19,1.02.39,2.04.49,3.05.3,5.33.8,10.75-1.34,12.3-6.98,1.3-4.72-1.61-11.49-6.98-12.3-2.36-.35-4.83-.77-7.21-.88-1.51-.07-4.35.55-4.84.54l5.05,1.37c1.61,1.76,1.8,1.89.59.39-.46-.64-.96-1.25-1.5-1.81-1.14-1.11-2.56-1.97-4.03-2.54-2.88-1.12-6.73-.43-8.63-.52l5.05,1.37c-.92-.51-2.5-2.15-3.92-2.89-1.88-.99-3.99-1.48-6.05-1.93-4.89-1.05-8.18.48-12.57,2.34l5.05-1.37c.76.05.36-.09-1.19-.42q1.29,1.1,0,0c-1.48-1.15-2.59-1.69-4.11-2.54-1.84-1.03-3.33-2.2-5.45-2.78-1.38-.38-6.44-.17-6.5-.18.42.07-3.15-1.21-4-1.37-3.32-.82-3.53-.51-.62.92-.65-.54-1.31-1.07-1.99-1.58-2.16-1.52-4.38-2.54-7.1-2.65-1.49-.06-4.4.64-4.8.64l5.05,1.37c-2.7-1.14-4.83-2.98-7.85-3.43-1.67-.25-3.25-.19-4.93.23-1.58.4-6.02,1.32-1.37,1.04l5.05,1.37c.69.37,2.28,2.83,1.1.89-.89-1.47-1.89-2.47-3.2-3.48-2.32-1.79-4.98-2.58-7.92-2.46-1.36.05-2.61.42-3.91.77l1.4.26-2.66-.36c-2.51-.29-5.03-.47-7.54-.8l5.05,1.37c1.15.54-.21-.21-.75-.65-1.06-.86-2.05-1.66-3.25-2.3-3.21-1.71-6.31-1.12-9.71-1.14l5.05,1.37c-2.94-1.45-5.22-4.14-9.49-4.09-3.68.04-5.85,1.89-8.91,3.34l5.05-1.37c.9.19.55.08-1.05-.32,1.56,1.39,1.75,1.47.57.25-1.09-1.08-2.29-1.99-3.65-2.7-2.08-1.09-4.26-1.46-6.58-1.37-6.46.25,1.94.91-4.78,0-1.49-.2-3.24-.22-4.66-.61s-2.78-1.4-4.28-1.76c-4.37-1.05-7.81.83-11.66,2.57l5.05-1.37-.94.1,5.05,1.37c1.97,2.18,2.45,2.47,1.44.86-.36-.67-.79-1.29-1.29-1.86-1.11-1.48-2.27-2.65-3.95-3.54-11.36-6.05-21.47,11.21-10.09,17.27h0Z"/>
  <path d="M438.55,391.74c-1.46.68-3.17,2.28-4.11,2.72l5.05-1.37-.94-.1,5.05,1.37c-3.76-1.69-7.37-3.75-11.66-2.57-2.1.58-3.82,1.71-5.47,3.06-1.31,1.07-1.33,1.12-.07.14-2.85.96-3.21,1.24-1.11.82l5.05,1.37c-2.67-1.32-5.03-2.86-8.12-3s-6.41.56-9.24,1.62c-1.57.59-2.78,1.37-4.07,2.44-.42.31-.81.66-1.18,1.03-.6.58-.51.5.27-.21,1.09-.81.82-.87-.8-.18l1.44-.17c-1.7-.3-3.28-.91-5.07-.88-2.47.03-5.03.82-7.49,1.03-2.78.24-5.97.33-8.68,1.06s-5.33,1.78-7.91,2.67c-2.74.94-5.05,2.96-7.13,4.02l5.05-1.37-.79-.07,5.05,1.37c-4.71-2.33-8.04-4.35-13.49-2.71-1.99.6-4.17,1.34-5.94,2.41-1.41.85-2.44,2.02-3.41,3.32-1.38,1.86-2.4,2.03.4.4l5.05-1.37-.8-.09,5.05,1.37c-2.04-1.13-3.71-2.73-6.04-3.37-3.65-1-6.59.11-9.93,1.44-1.95.78-3.99,1.34-5.92,2.18-1.48.64-2.85,1.42-4.03,2.55l-.72.85c-2.04,2.42-2.11,2.67-.21.75l5.05-1.37-.79-.07,5.05,1.37c-4.55-2.24-7.49-3.97-12.86-3.02-2.26.4-4.49.82-6.5,1.99-1.01.59-1.98,1.38-2.79,2.21-.41.45-.79.92-1.14,1.42-1.21,1.48-1.02,1.37.57-.34l5.05-1.37c-2.01.05-6.11-.36-9.14.06-3.76.52-6.01,2.24-9.3,3.7l5.05-1.37c-5.9.62-10.7,1.11-16.16,3.59-2.04.93-4.37,1.37-6.36,2.47-1,.55-2,1.23-2.84,2.02-.19.18-2.32,1.99-.95,1.23-11.23,6.29-1.16,23.57,10.09,17.27,1-.56,2-1.23,2.84-2.02.21-.2,2.56-2.34.72-1.13s.96-.11,1.43-.28c1.28-.47,2.57-.95,3.8-1.55,4.13-2.03,8.81-.96,13-3.19.69-.37,1.32-.9,2.01-1.24,1.1-.54-2.1-.1.85.03,4.25.19-2.85-.92,1.14.09,1.22.31,2.56.37,3.82.33,2.88-.1,5.81-1.38,7.88-3.4.68-.67,3.25-4.85,1.16-1.83-1.44.94-1.57,1.24-.39.88.87-.18.99-.19.35-.03l-5.05-1.37c5.01,2.46,9.33,5.2,14.91,1.93,1.02-.6,1.97-1.39,2.79-2.23,4.84-4.98-.09-.43-.38-.63.17.12,2.55-.9,2.86-1.01.89-.31,1.76-.65,2.62-1.03,1.67-.6,1.59-.68-.24-.25l-5.05-1.37c4.4,2.43,8.02,5.1,13.34,2.96,2.21-.89,3.87-2.32,5.28-4.22.64-.86,2.8-3.01,0-.88-3.15,2.4.4.54-.34.47l-5.05-1.37c5.78,2.86,10.48,5.23,16.49.84.7-.5,1.36-1.05,1.98-1.66l-.95.76c1.2-.41,2.42-.72,3.61-1.13,2.68-.91,4.12-1.54,6.93-1.69s5.96-1.09,8.68-1.06c-2.77-.04-.02.62,1.14.82,1.76.3,3.4.25,5.16-.1,3.03-.6,6.1-1.5,8.63-3.29.81-.57,1.73-1.72,2.58-2.19l-1.29,1.25c1.48-.52,1.9-.56,1.24-.11l-5.05-1.37c4.15,2.05,7.69,3.89,12.43,2.49,3.65-1.08,7.23-3.94,10.04-5.24l-5.05,1.37.94.09-5.05-1.37c2.94,1.32,5.65,2.93,9,2.93,3.88,0,6.47-2.82,9.16-4.08,4.89-2.29,6.14-9.32,3.59-13.68-2.93-5.01-8.77-5.89-13.68-3.59h0Z"/>
</svg>