<?xml version="1.0" encoding="UTF-8"?>
<svg id="_レイヤー_2" data-name="レイヤー 2" xmlns="http://www.w3.org/2000/svg" viewBox="0 0 1000 1000">
  <path d="M560.74,422.64c-.36,5.97,2.84,12.04,8.89,13.75,5.72,1.62,12.02-.94,17.54-2.35,11.83-3.03,23.66-6.07,35.49-9.11,11.51-2.96,23.02-5.92,34.52-8.89,10.54-2.72,22.35-4.51,31.88-10.02,4.7-2.72,9.58-6.93,9.58-12.86,0-7.92-6.35-10.95-13.06-12.03-11.81-1.92-23.69-3.46-35.6-4.58-23.59-2.23-47.58-3.11-71.25-1.64-7.87.49-14.09,4.07-14.97,12.48-.36,3.44-.49,6.92-.76,10.37-.67,8.3-1.44,16.6-2.26,24.89-.53,5.38,4.98,10,10,10,5.85,0,9.47-4.6,10-10,.58-5.9,1.13-11.81,1.65-17.71.41-4.7-.07-12.29,1.52-16.09l-2.57,4.41.96-.76-4.41,2.57c2.98-.86,7.97-.47,11.58-.57,4.56-.12,9.12-.18,13.68-.18,9.45,0,18.89.28,28.32.82,9.1.52,18.19,1.29,27.26,2.31,4.29.48,8.57,1.02,12.85,1.63,2.26.33,4.51.67,6.76,1.02,1.29.2,2.57.41,3.86.63,2.17.5,2.55.51,1.15.02l-4.6-5.98.25,1.05,1.01-7.71c1.39-.91,1.27-.83-.36.24-.89.55-1.82,1.04-2.76,1.49-1.63.72-3.36,1.21-5.06,1.71-4.06,1.19-8.19,2.16-12.29,3.22-9.91,2.56-19.82,5.11-29.73,7.66-9.59,2.47-19.18,4.93-28.77,7.4-4.8,1.23-9.59,2.46-14.39,3.69-2.56.66-5.12,1.31-7.67,1.97-1.28.33-2.56.66-3.84.98-2.97.49-2.55.82,1.26,1l3.59,3.59-.54-1.03,1.37,5.05c-.17-.81-.19-1.62-.07-2.43.77-12.86-19.24-12.81-20,0Z"/>
  <path d="M427.93,410.05c-.25-5.35-.49-10.7-.74-16.04-.3-6.46-.5-12.98-6.77-16.65-4.35-2.55-10.54-2.01-15.38-2.17-5.86-.2-11.72-.3-17.58-.3-23.06.02-46.06,1.7-68.9,4.8-9.26,1.26-30.38,1.59-26.23,16.7,2.7,9.81,15.61,13.57,24.23,15.87,22.2,5.92,44.5,11.47,66.75,17.19,6.39,1.64,12.79,3.28,19.18,4.92,5.8,1.49,12.49,4.3,18.49,2.6,7.2-2.04,9.3-9.08,8.7-15.7-.59-6.5-1.29-12.99-1.94-19.49-.54-5.37-4.21-10-10-10-4.99,0-10.54,4.59-10,10,.42,4.22.84,8.45,1.26,12.67.36,3.6,1.23,7.6.8,11.21l1.37-5.05-.54,1.03,3.59-3.59c3.81-.18,4.23-.51,1.26-1-1.28-.33-2.56-.66-3.84-.98-2.56-.66-5.12-1.31-7.67-1.97-4.48-1.15-8.95-2.3-13.43-3.45-9.91-2.54-19.82-5.09-29.73-7.64s-19.18-4.94-28.77-7.41c-4.42-1.14-8.87-2.19-13.25-3.47-1.7-.5-3.44-.99-5.06-1.71-.95-.45-1.87-.95-2.76-1.49-1.63-1.07-1.75-1.15-.36-.24l1.01,7.71.25-1.05c-1.53,1.99-3.06,3.98-4.6,5.98-1.4.48-1.02.48,1.15-.02,1.29-.21,2.57-.42,3.86-.63,1.93-.31,3.86-.6,5.8-.88,4.27-.62,8.55-1.17,12.84-1.66,9.38-1.07,18.8-1.88,28.23-2.42s18.22-.79,27.34-.82c4.56-.01,9.12.04,13.68.15,3.85.1,9.33-.34,12.56.6l-4.41-2.57.96.76-2.57-4.41c.85,2.02.59,6.49.72,9.32.17,3.77.35,7.55.52,11.32.59,12.82,20.59,12.89,20,0h0Z"/>
</svg>