<?xml version="1.0" encoding="UTF-8"?>
<svg id="_レイヤー_2" data-name="レイヤー 2" xmlns="http://www.w3.org/2000/svg" viewBox="0 0 1000 1000">
  <path d="M303.01,401.18c35.64,28.39,78.46,45.48,123.74,50.27,22.32,2.36,44.9,1.33,66.96-2.75s47.35-10.42,62.63-27.38c14.72-16.34,18.28-42.14.43-57.69-14.13-12.31-36.53-15.64-52.69-5.22-17.46,11.26-26.37,34.89-19.57,54.78,7.52,21.97,28.79,33.26,49.13,41.1,51.91,20.02,114.96,22.83,158.73-16.63,9.58-8.64-4.6-22.74-14.14-14.14-30.78,27.74-75.29,29.82-113.63,19.81-17.61-4.59-38.71-10.62-52.33-23.42-11.01-10.35-13.46-26.25-4.03-38.63,1.78-2.33,4-4.41,6.5-5.95,2.22-1.36,5.82-2.67,7.7-2.93,6.34-.9,12.3.48,17.54,3.6,4.81,2.86,8.36,6.81,9.1,12.68.99,7.81-3.66,15.57-9.08,20.76-13.09,12.53-34.4,16.79-51.62,19.98-18.47,3.42-37.45,4.07-56.16,2.55-41.43-3.38-82.51-18.97-115.09-44.92-4.22-3.36-10.02-4.12-14.14,0-3.49,3.49-4.25,10.76,0,14.14h0Z"/>
</svg>