<?xml version="1.0" encoding="UTF-8"?>
<svg id="_レイヤー_2" data-name="レイヤー 2" xmlns="http://www.w3.org/2000/svg" viewBox="0 0 1000 1000">
  <path d="M562.71,420.14c.35-.96.05-.27-.23.22-.84,1.48-1.37,3.35-1.37,5.05,0,3.26,1.54,6.64,4.13,8.59,5.29,3.96,9.93,2,15.25-.39l-5.05,1.37c-1.38.03,2.49.37,2.22.34,1.18.14,2.05.09,3.2.07,2.69-.06,5.33-.49,7.98-.89,2.34-.36,4.82-.69,7.08-1.42s4.95-3.07,6.24-3.76l-5.05,1.37c2.98-.08,5.46.44,8.45-.7,1.8-.69,4.07-2.73,5.05-3.24l-5.05,1.37c.22,0,3.36.73,4.73.69,2.4-.06,4.76-.95,7.1-1.36,2.54-.44,4.75-.46,7.05-1.8.99-.58,1.97-1.33,2.79-2.15.35-.34,1.85-1.49.56-.79l-5.05,1.37c-.14,0,2.81.91,3.66.95,2.46.11,4.55-.35,6.7-1.59,3.02-1.76,4.06-3.23,7.34-4.66l-5.05,1.37.93.07-5.05-1.37c4.69,2.13,9.09,4.4,14.15,1.6,3.45-1.91,4.27-4.88,6.43-7.72l-3.59,3.59.56-.34-5.05,1.37c2.91-.33,5.82-.51,8.73-.93,3.43-.5,6.09-2.04,9.23-3.38l-5.05,1.37c1.95-.05,5.43.82,8.19.86,4.46.07,6.93-2.63,9.97-4.34l-5.05,1.37c-1.6.04,1.24.44,1.54.5,1.67.36,3.29.41,4.97.13,1.03-.17,10.11-3.81,8.9-6.09.33.62-4.68,2.79.11,1.09,1.47-.52,2.79-1.15,4.06-2.01,2.54-1.7,3.85-3.44,5.73-5.27,5.18-5.01,4.95-12.5-.35-17.34-2.39-2.19-5.29-3.36-8.54-3.21-3.53.16-5.57,1.94-8.48,3.47l5.05-1.37c.88-.12-1.34-.31-1.82-.49-.86-.33-.49-.34-1.56-.84-2.38-1.12-5.33-2.38-7.88-2.97s-5.03-.77-7.51-1.37c-1.62-.39-3.24-.73-4.92-.67-.55.02-4.6.16-2.72.44-.98-.15-1.98-.7-2.97-.91-2.8-.6-4.08,0-6.86.12-1.88.09-3.82-.45-5.74-.44-2.58.02-5.04-.08-7.61-.17-2.88-.1-5.28,1.03-8.04,1.4h5.32c-2.94-.66-5.36-1.71-8.49-1.41-2.05.19-4.57,1.55-5.94,1.85h5.32c-2.16-.57-5.47-2.02-8.29-2.57-2.33-.45-4.33-.6-6.65.03-1.39.38-3.03,1.56-4,1.82h5.32c-3.43-.57-6.8-1.17-10.25-1.65-3.28-.46-6.33-1.32-9.66-.26-.88.28-5.39,2.24-5.31,3.22l2.87-1.12c-2.05-.07-2.02.22.09.88,3.54,2.5-.84-1.39-1.61-1.85-1.58-.96-3.08-1.47-4.88-1.68-7.09-.8-16.16,3.38-16.31,11.43-.04,1.91.44,3.84,1.36,5.51.53.96,2.73,2.62,2.59,3.4l-1.57-3.86c-.07.53-.07,1.06,0,1.59-.5,1.2-.47,2.59-.97,3.82l2.57-4.41c-2.68,3.03-5.47,5.95-5.47,10.3,0,2.1.68,3.61,1.07,5.56-.1.97,0,1.94.34,2.9.91-2.83,1.03-3.56.38-2.22-1.67,1.67-3.23,8.37-3.23,10.71,0,1.97.57,4.14,1.51,5.88.56,1.03,1.24,1.98,2.05,2.85,1.16,1.53.97,1.01-.59-1.54,3.36,12.41,22.66,7.14,19.29-5.32-.36-1.32-.94-2.55-1.67-3.7l-1.56-2.02c-1.14-1.37-.93-.98.62,1.19v5.32c1.01-3.64,2.67-5.5,3.14-9.6s-1.07-8.5-1.7-12.67v5.32l.34-.85-2.57,4.41c3.85-4.46,5.88-8.49,6.37-14.46.2-2.35.32-4.95-.33-7.22-.36-1.28-.94-2.29-1.63-3.34-.25-.38-2.89-4.05-1.69-2.12l1.37,5.05v-.47c-.97,2.36-1.95,4.71-2.92,7.07-1.77,2.18-4.03,2.15-6.81-.08.86.87,1.8,1.64,2.82,2.32,2.02,1.32,4.16,2.09,6.6,2.15,3.9.09,8.11-.46,11.38-2.64,3.27-2.2,2.62-2.24-1.96-.1,1.39.19,2.79.37,4.18.56,1.11.13,2.31.13,3.42.33,2.9.51,5.31,1.41,8.35.71,1.61-.37,3.44-1.68,4.57-1.97h-5.32c3.62.55,5.06,1.6,8.49,2.54,4.43,1.21,7.05-.8,10.5-1.53h-5.32c3.86.85,6.86,1.99,10.97,1.08,1.88-.42.29-.43,2.33-.46,1.51-.03,3.03.32,4.55.29,3.05-.05,6.12.45,9.14.25,5.25-.35.32-.91,3.42.07,2.3.72,4.66.88,7.02.45,1.57-.12,1.77-.2.61-.22.72.31,1.46.54,2.22.7,1.87.47,3.79.45,5.68.78,1.02.18,3.91,1.69,6.02,2.64,2.83,1.27,6.69,2.37,9.77,2.32,3.79-.07,5.82-1.93,8.87-3.52l-5.05,1.37.79-.1-5.05-1.37c-.81-.7-.85-.65-.1.14l-2.57-4.41.11.74,1.01-7.71c2.85-3.88-1.03-.1-1.58.96-1.17,1.08-1.03,1.27.43.57-.78.19-1.55.41-2.31.65-1.88.61-3.47,1.33-4.99,2.57-.69.43-1.27.97-1.75,1.63-2.01,2.45-2.1,2.68-.28.68l5.05-1.37c1.52-.07-1.14-.39-1.54-.48-1.66-.36-3.3-.44-4.97-.15-3.29.56-5.3,2.86-7.52,4.11l5.05-1.37c-1.78.08-5.5-.79-8.19-.84-2.24-.05-4.14.46-6.18,1.39-.95.34-1.85.79-2.69,1.36,1.18-.48.98-.55-.58-.19-3.26-.07-7.43.39-10.2,2.12-3.16,1.97-3.82,4.68-5.87,7.38l3.59-3.59-.56.34,5.05-1.37-.93-.07,5.05,1.37c-4.46-2.02-8.02-3.82-12.96-2.11-3.46,1.2-6.44,3.98-9.03,5.45l5.05-1.37c.14,0-2.81-.91-3.66-.95-2.2-.1-4.25.27-6.2,1.31-1.26.68-2.71,1.52-3.55,2.73-1.42,1.48-.78,1.28,1.9-.6-1.13.13-2.26.29-3.39.47-.6.11-4.86.62-2.83.78,1.83.14-2.93-.7-3.69-.7-4.45,0-6.58,2.57-9.47,4.1l5.05-1.37c-3.82.1-7.1-.42-10.64,1.74-.88.59-1.71,1.26-2.48,1.99-.8.72-.61.57.6-.44-1.05.19-2.09.54-3.13.73-2.47.45-5.25.6-6.8.46-1.8-.16-3.31-.45-5.12-.15-1.55.25-4.13,1.56-4.59,1.73,2.57.34,5.14.67,7.71,1.01l-.88-.38,4.6,5.98-.19-.73c-.34,2.57-.67,5.14-1.01,7.71.75-1.67,1.61-3.25,2.24-5,1.84-5.08-2.07-10.95-6.98-12.3-5.56-1.53-10.46,1.89-12.3,6.98Z"/>
  <path d="M428.7,407.34c-1.24-3.13-2.99-5.18-5.19-7.62l2.57,4.41-.32-.82v5.32c-1.58,2.53-1.41,2.47.49-.18.74-.97,1.27-2.05,1.59-3.25.75-2.42.68-4.78-.09-7.19-.86-2.68-1.27-2.72-1.81-4.42-.2-.63-1.24-6.26-1.01-3.18s.13-4.35,0-4.83c-.57-2.21-1.78-4.06-3.44-5.6-3.38-3.14-8.58-2.65-11.34-3.57l4.41,2.57c-4.42-3.43-7.05-5.93-13.06-5.71-2.78.1-5.63.24-8.1,1.69-1.98,1.16-3.36,3.01-5.12,4.42l4.41-2.57c-.8.25-4.06-.47-5.58-1.03-2.29-.83-3.66-1.63-6.19-1.63s-4.81.94-7.2,1.38h5.32c-2.45-.54-5.32-2.14-8.6-1.83-3.09.28-5.86,1.9-8.85,2.42,2.26-.39-1.71-.51-2.68-.56-1.28-.06-2.53.1-3.8.11-3.2,0-6.13-.97-9.36-.08-2.51.69-3.85,1.65-6.11,2.15-.48.11-2.3.28-2.6.52,1.76.97,2.14,1.13,1.13.47-.47-.34-.96-.64-1.48-.89-3.43-1.79-7.58-2.04-11.03-.17-1.29.7-2.42,1.55-3.43,2.62l-1.56,2.02c-1.13,1.48-.84,1.24.87-.7l5.05-1.37-.93-.11,5.05,1.37c-2.63-1.15-5.02-2.6-7.98-2.75-2.79-.14-5.36.7-8.05,1.29-1.91.42-3.69.64-5.63.79-1.57.12-3.03.35-4.5.84l-2.39,1.01c-1.45.73-1.38.93.2.6,1.68-.16,1.65-.13-.1.08-1.33.06-2.57.46-3.72,1.19-.81.47-1.66,1.2-2.32,1.88-2.63,2.74-3.98,6.69-2.99,10.43,1.66,6.28,7.08,7.55,12.34,9.43l-4.41-2.57c-1.11-2.15-1.42-2.63-.91-1.45.23.57.46,1.13.71,1.7.67,1.47,1.41,2.87,2.55,4.05,2.32,2.38,5.63,3.57,8.92,3.57.69,0,3.38-.96,3.98-.55-2.56-.22-2.89-.02-.99.58.63.29,1.28.55,1.94.77,2.95.94,6.24-.04,8.13-.05l-5.05-1.37.65.41-3.59-3.59c2.54,3.43,4.25,7.15,8.79,8.4s8.07-1.18,12.02-3.01l-5.05,1.37.77-.05-5.05-1.37c-1.21-.65.08.31.56.78.94.93,2.03,1.73,3.19,2.36,3.03,1.66,6.28,1.24,9.57,1.5l-5.05-1.37c-1.41-.76.66.89.93,1.13,1.18,1.09,2.52,1.93,4.02,2.5,1.59.6,3.25.95,4.98.92.72-.01,4.07-.3,3.5-.33l-5.05-1.37c3.65,1.59,6.51,3.09,10.56,3.55,2.57.29,5.17.12,7.72.59l-1.08-.78c.87.95,1.84,1.77,2.93,2.47,1.89,1.2,3.81,1.73,6.04,1.93,2.99.26,6,.18,8.99.46l-5.05-1.37c-1.89-2.01-2.32-2.26-1.27-.78.69.93,1.4,1.84,2.14,2.73,1.78,1.72,3.96,2.8,6.4,3.14,4.19.58,7.07-1.49,10.66-3.08l-5.05,1.37.77-.04-5.05-1.37c1.75.86,5.14,3.04,7.86,4.09,1.97.76,3.62,1.35,5.82,1.34,1.19,0,4.09-.72,4.17-.72l-5.05-1.37c-1.89-2.04-2.31-2.33-1.25-.86.67.94,1.39,1.84,2.15,2.71,2.18,2.08,4.75,3.06,7.73,3.31,3.49.29,6.84,1.52,10.39,1.6,4.66.11,9.85-1.76,12.32-5.97,1.44-2.46,1.88-5.59,1.17-8.34-.26-1-2.31-4.99-1.67-3.21v5.32c-1.52,2.33-1.7,2.77-.55,1.32.76-.88,1.45-1.81,2.07-2.8.94-1.69,1.53-3.86,1.53-5.78s-.74-4.17-1.72-5.88c-.68-1.01-1.45-1.95-2.3-2.82-1.02-.91-1.15-1.04-.39-.38l1.37,5.05c-.07-.96-.1-1.92-.09-2.88-.98,2.08-.97,2.37,0,.87,1.21-1.59,1.75-3.57,1.94-5.53.5-5-2.2-8.05-5.23-11.62l2.57,4.41-.33-.83c-2.01-5.01-6.67-8.53-12.3-6.98-4.76,1.31-9.01,7.26-6.98,12.3,1.23,3.06,2.96,5.17,5.05,7.63l-2.57-4.41.33.83v-5.32c.41-1.94-2.1,3.95-2.01,3.66-.62,2.06-.59,4.29-.46,6.42.16,2.59.41,5.03,1.8,7.31.68,1.01,1.45,1.95,2.3,2.82,1.02.91,1.15,1.04.39.38l-1.01-7.71c1.44-2.18,1.73-2.75.89-1.72-.68.77-1.31,1.58-1.9,2.42-.76,1.22-1.33,2.51-1.67,3.9-.51,2.05-.36,4.09.28,6.09.16.49,2.19,4.4,1.39,2.43v-5.32l-.16.63,4.6-5.98c.16-.11,2.43-.29,2.38-.19-.04.09-3.32-.94-3.54-.99-2.64-.61-5.2-.52-7.87-.76l5.05,1.37c1.89,2.04,2.31,2.33,1.25.86-.58-.82-1.2-1.61-1.86-2.36-1.26-1.28-2.54-2.14-4.17-2.79-2.3-.92-5.22-1.26-7.65-.49l-1.23.35c3.37.63,3.43.4.19-.71,1.22.96,1.42,1.11.59.45-.82-.67-1.65-1.31-2.5-1.94-1.79-1.11-3.94-1.81-6.06-1.86-3.73-.08-6.15,1.85-9.33,3.26l5.05-1.37-.77.04,5.05,1.37c1.89,2.01,2.32,2.26,1.27.78-.69-.93-1.4-1.84-2.14-2.73-1.35-1.31-3.27-2.47-5.07-2.96-3.69-1.02-7.88-.45-11.65-.82l5.05,1.37c-1.88-1.07-4.08-3.34-6.91-4.11-3.1-.84-6.14-1.02-9.3-1.09-.93-.02-4.2-.5-2.6-.06,1.35.37-1.97-.97-2.32-1.14-1.99-.92-3.96-1.46-6.17-1.43-.72.01-4.07.3-3.5.33l5.05,1.37c1.21.65-.08-.3-.56-.77-.94-.92-2.03-1.72-3.19-2.36-3.03-1.66-6.28-1.24-9.57-1.5l5.05,1.37c1.8.97-3.29-2.93-2.95-2.71-1.76-1.1-3.76-1.8-5.85-1.8-3.67,0-6.22,1.91-9.36,3.36l5.05-1.37-.77.05,5.05,1.37-.65-.41,3.59,3.59c-3.45-4.66-5.94-8.94-12.59-8.75-.16,0-3.92.56-3.88.69,2.76.43,3.16.31,1.2-.36-.64-.29-1.28-.55-1.94-.79-2.83-.92-6.44-.2-8.5-.44,2.36.98,4.71,1.95,7.07,2.93,1.05,2.28,1.33,2.8.84,1.58-.37-.98-.78-1.94-1.21-2.9-.62-1.18-1.37-2.24-2.32-3.19-1.35-1.35-2.9-2.24-4.71-2.86-1.29-.44-3.73-1.84-.76.58l2.57,4.41-.18-.45-1.01,7.71-.85,1.01c-2.36.98-4.71,1.95-7.07,2.93,1.99-.18,4.89-.53,6.59-1.83,1.5-.77,1.37-.96-.37-.59.77,0,1.53-.02,2.29-.1,3.04-.23,8.5-2.16,10.63-1.92l-5.05-1.37c3.73,1.63,7.34,3.67,11.57,2.5,1.82-.5,3.77-1.63,5.14-2.92.83-.84,1.58-1.76,2.24-2.75,1.13-1.48.84-1.25-.87.71l-7.71,1.01c-.81-.5-.64-.37.52.39,1.06.65,2.18,1.17,3.37,1.56,2.26.68,4.35.45,6.61.17,2.45-.3,4.76-.69,7.15-1.27,1.43-.35,5.12-2.41,6.1-2.2-3.28.55-3.19.89.26,1,1.02.19,2.03.21,3.05.06,2.24-.04,3.86.15,6.11.31,4.64.33,8.78-1.81,13.22-2.81h-5.32c1.28.27,3.95,1.66,5.94,1.83,3.01.27,5.62-.69,8.53-1.2h-5.32c1.16.27,3.59,1.4,5.33,1.86,2.9.76,5.71,1.2,8.72,1.11,2.78-.09,5.61-.23,8.08-1.67,1.98-1.16,3.36-3.01,5.12-4.42l-4.41,2.57c-.87.18-.48.17,1.16-.01l-3.32-1.41s4.25,3.18,4.69,3.38c1.67.76,2.86.88,4.78,1.16-.79-.11,6.84.98,3.34.35l-4.41-2.57.66.63-2.57-4.41.21.56v-5.32c-1.24,3.3-.27,7.25.34,10.58.25,1.35.54,2.8.92,4.12.32,1.18.76,2.32,1.32,3.41.56,1.16.74,1.38.55.66v-5.32c1.58-2.53,1.41-2.47-.49.18l-.58.86c-1.22,2.21-1.77,4.73-1.41,7.22.56,3.89,2.87,6.18,5.37,8.95l-2.57-4.41.32.82c1.99,5.02,6.69,8.53,12.3,6.98,4.78-1.31,8.99-7.25,6.98-12.3h0Z"/>
</svg>