<?xml version="1.0" encoding="UTF-8"?>
<svg id="_レイヤー_2" data-name="レイヤー 2" xmlns="http://www.w3.org/2000/svg" viewBox="0 0 1000 1000">
  <path d="M552.23,414.98c49.01,8.6,97.57,19.6,145.5,32.97,12.42,3.46,17.72-15.83,5.32-19.29-47.93-13.36-96.49-24.37-145.5-32.97-5.31-.93-10.77,1.43-12.3,6.98-1.33,4.83,1.64,11.36,6.98,12.3h0Z"/>
  <path d="M441.01,391.14c-49.01,8.6-97.57,19.6-145.5,32.97-12.38,3.45-7.12,22.75,5.32,19.29,47.93-13.36,96.49-24.37,145.5-32.97,5.32-.93,8.32-7.45,6.98-12.3-1.54-5.62-6.96-7.92-12.3-6.98h0Z"/>
</svg>