<?xml version="1.0" encoding="UTF-8"?>
<svg id="_レイヤー_2" data-name="レイヤー 2" xmlns="http://www.w3.org/2000/svg" viewBox="0 0 1000 1000">
  <path d="M401.65,418.41c3.3,1.72,6.25,1.74,9.79,1.19,1.11-.18.87-.16-.72.05-4.81-2.83-6.28-3.31-4.41-1.45.48.63,2.91,3.62.93.56-2.43-3.77.66,2.69.56,2.5.84,1.57,1.86,2.83,3.25,3.9s2.85,1.82,4.61,2.25c1.13.19,2.26.33,3.4.43,1.82.15,1.05-.11-2.33-.79,4.57,2.55,11.12,1.25,13.68-3.59,2.49-4.71,1.29-10.96-3.59-13.68-2.15-1.2-3.84-1.59-6.26-1.83-.5-.06-1-.1-1.5-.11l6.81,5.02c.14-2.9-2.73-5.91-4.55-7.83-2.1-2.21-4.04-4.19-7.11-5-1.43-.38-2.71-.43-4.11-.29-1.11.11-2.22.27-3.31.47,1.72-.39,3.37-.07,4.96.94-4.64-2.41-11.08-1.35-13.68,3.59-2.43,4.6-1.37,11.1,3.59,13.68h0Z"/>
  <path d="M365.01,423.24c2.12,1.04-1.18-1.24.69.45.8.72,1.77,1.52,2.7,2.08,1.86,1.13,5.03,1.88,6.35,2.48-.51-.23,1.47.92,1.47.92.92.54,2.24,2.11.78.05-1.86-2.62.71,1.32,1.19,1.83.96,1.04,2.11,1.84,3.24,2.68,4.33,3.23,11.17.71,13.68-3.59,2.98-5.1.75-10.44-3.59-13.68,1.84,1.95,2.37,2.42,1.57,1.41-.6-.8-1.21-1.59-1.83-2.37-.78-.82-1.66-1.55-2.6-2.18-1.41-.95-2.93-1.86-4.45-2.62-1.27-.63-2.62-1.18-3.94-1.66-.41-.15-2.78-.62-2.04-.64s1.39,1.02.31,0c-.98-.93-2.22-1.83-3.43-2.42-4.85-2.37-10.81-1.32-13.68,3.59-2.57,4.4-1.29,11.3,3.59,13.68h0Z"/>
  <path d="M357.32,427.45c.79.21,1.15.53.11.03-1.13-.54-2.32-1.14-3.53-1.47-2-.54-4-.44-6.03-.48-1.34-.02-2.64-.09-3.98-.02-1.8.09.26.1-.79-.02-1.38-.15-2.75-.38-4.13-.55-5.21-.65-10.22,5.06-10,10,.27,5.97,4.42,9.3,10,10-1.02-.14-.93-.13.29.04,1.21.17,2.43.33,3.64.48,1.33.07,2.66,0,3.98.02.66.06,1.33.07,1.99.04,1.86.07,1.35-.19-1.53-.77.99,1.09,3.38,1.64,4.67,1.98,5.06,1.32,11.09-1.67,12.3-6.98s-1.57-10.89-6.98-12.3h0Z"/>
  <path d="M577.15,399.84c1.74-1.05,1.02-.5-.17-.26-1.34.28-2.43.63-3.71,1.34-.73.4-3.67,2.69-2.22,1.62.94-.69-1.92,1.44-2.05,1.54-.79.61-1.59,1.2-2.29,1.92-.46.55-.91,1.11-1.33,1.68-.94,1.23-1.04,1.35-.3.35l-.61.6c.89-.7.88-.71-.05-.04-1.19.78-2.28,1.71-3.39,2.59-4.12,3.26-3.66,10.78,0,14.14,4.37,4.01,9.74,3.48,14.14,0-1.73,1.37.56-.32.74-.46.9-.67,1.87-1.33,2.69-2.09,1.07-1,1.71-2.22,2.73-3.3-1.27,1.34.67-.51-.21.32s1.03-.75,1.04-.76l2.02-1.56c-2.81,1.25-3.56,1.74-2.24,1.45,1.73.03,3.97-1.03,5.3-1.82,4.48-2.7,6.54-9.1,3.59-13.68-2.9-4.5-8.89-6.47-13.68-3.59h0Z"/>
  <path d="M620.88,407.36c-1.97.26,1.28.58-.92-.1-1.83-.57-4.37-.52-6.21-.1-2.72.62-4.92,1.98-6.86,4-.62.64-1.31,1.37-.2.42-1.13.96-2.58,1.6-3.59,2.72l-.71.72c3.98-1.06,4.82-1.5,2.51-1.33-1.47-.21-3.21.3-4.6.77-5.11,1.73-8.47,6.88-6.98,12.3,1.37,4.99,7.16,8.72,12.3,6.98-.9-.04-.96-.07-.19-.07.52,0,1.04-.03,1.56-.1,1.22-.11,2.42-.29,3.59-.64,2.03-.61,3.64-1.72,5.22-3.1.17-.15,1.99-1.87,1.21-1.19-1.08.93,4.35-3.48,2.49-1.79.53-.48,1.11-.98,1.53-1.56,1.47-2.06-8.11.56-4.53,1.7,1.26.4,3.05.54,4.37.37,5.35-.71,10-4.09,10-10,0-4.85-4.61-10.72-10-10h0Z"/>
  <path d="M637.96,446.4c1.14-.39,2.3-.85,3.34-1.45.88-.51,1.96-2.16,2.94-2.33l-2.55,1.37c.69-.14,1.35-.38,1.97-.71.62-.26,2.16-.75,2.7-1.28l-6.49.1.7.35c1.06.86,3.04,1.26,4.41,1.44,2,.27,3.95.18,5.96.03,5.2-.38,10.25-4.32,10-10-.23-5.09-4.41-10.41-10-10-.98.07-2,.04-2.98.13-2.86.28,2.63,1.6,1.64.59-2.01-2.05-6.89-2.11-9.42-1.5-1.24.3-2.4.82-3.54,1.39-.9.45-1.59.69-.27.15-1.25.51-2.52.9-3.64,1.66l-2.02,1.56c-1.36,1.14-.71.87,1.95-.82-4.94,1.69-8.72,6.95-6.98,12.3,1.59,4.9,7,8.8,12.3,6.98h0Z"/>
</svg>