<?xml version="1.0" encoding="UTF-8"?>
<svg id="_レイヤー_2" data-name="レイヤー 2" xmlns="http://www.w3.org/2000/svg" viewBox="0 0 1000 1000">
  <path d="M552.62,428.32c5.98-8.3,13.99-14.62,23.07-19.22,11.48-5.82,1.37-23.08-10.09-17.27-12.23,6.2-22.26,15.32-30.24,26.4-3.16,4.38-.76,11.14,3.59,13.68,5.04,2.95,10.51.81,13.68-3.59h0Z"/>
  <path d="M591.33,426.05c6.7-3.97,13.59-7.1,21.03-9.43,12.24-3.83,7.02-23.14-5.32-19.29-9.01,2.82-17.69,6.63-25.81,11.44-11.06,6.56-1.01,23.85,10.09,17.27h0Z"/>
  <path d="M637.75,426.45c7.65-1.4,15.66-1.51,23.34-.24,5.32.88,10.76-1.39,12.3-6.98,1.31-4.78-1.63-11.42-6.98-12.3-11.46-1.89-22.54-1.84-33.98.24-5.32.97-8.32,7.42-6.98,12.3,1.54,5.59,6.97,7.96,12.3,6.98h0Z"/>
  <path d="M400.81,415.45c4.35,3.68,8.69,7.36,13.04,11.04,3.99,3.38,10.28,4.2,14.14,0,3.41-3.72,4.26-10.53,0-14.14s-8.69-7.36-13.04-11.04c-3.99-3.38-10.28-4.2-14.14,0-3.41,3.72-4.26,10.53,0,14.14h0Z"/>
  <path d="M366.88,425.77c5.31,1.85,10.24,4.05,15.22,6.73s10.89,1.19,13.68-3.59,1.18-11.11-3.59-13.68c-6.41-3.45-13.12-6.36-19.99-8.75-5.1-1.77-10.94,2.02-12.3,6.98-1.51,5.51,1.86,10.52,6.98,12.3h0Z"/>
  <path d="M354.83,425.53l-15.75-1.75c-5.22-.58-10.22,5.01-10,10,.26,5.91,4.41,9.38,10,10l15.75,1.75c5.22.58,10.22-5.01,10-10-.26-5.91-4.41-9.38-10-10h0Z"/>
</svg>