<?xml version="1.0" encoding="UTF-8"?>
<svg id="_レイヤー_2" data-name="レイヤー 2" xmlns="http://www.w3.org/2000/svg" viewBox="0 0 1000 1000">
  <path d="M567.53,444.17c1.65-1.02,4.54-2.04,5.87-3.42,1.13-1.16-2.15.04.52-.29,1.3-.16,2.52-.32,3.76-.71,4.89-1.55,8.79-5.43,11.5-9.57-1.35,2.05-1.03.44.21.41-2.96.09-4.88.6-.16.67,2.76.04,5.12-.68,7.41-2.21.33-.22,2.96-1.9,2.84-2.49.09.42-5.76,1.54-.39.87,2.95-.37,5.65-1.54,7.84-3.62s-1.16.57-1.18.44c0,.04,3.67-.49,4.18-.64,2.29-.67,4.88-2.1,6.92-3.36,1.29-.79,2.18-2.02,3.34-2.86-1.24.91-1.18.53.38.32.15-.02,2.93-.65,3.17-.72,3.56-1.06-1.37-.3.52-.37,3.6-.13,6.04.79,9.49-1.03,1.29-.68,2.3-1.71,3.49-2.51,1.27-.86-1.81.24.12.1,4.87-.35,9.48-3.54,12.94-5.28l-5.05,1.37c-2.82-.82-2.7-.65.37.5,1.17.5,2.4.74,3.69.72,2.75.11,4.96-.8,7.39-1.95,1.88-.89,3.93-1.91,5.46-3.35.81-.83,1.54-1.73,2.18-2.69,1.1-1.44.73-1.13-1.1.93l-5.05,1.37c-2.45-.68-2.74-.66-.87.04.72.32,1.46.62,2.21.88,1.57.42,3.33.47,4.93.23,3.14-.47,5.63-2.83,7.81-3.85l-5.05,1.37c4.25-.41,11.34-1.72,14.5-1.31l-5.05-1.37c3.36,1.62,6.31,3.43,10.26,2.85s6.2-2.9,9.07-5.2l-4.41,2.57c-3.26,1.27,1.53.81,2.84.78,1.93-.05,4.25-.7,5.93-1.68,1.43-.83,6.15-3.99-.1-.86,1.8.36,2.04.32.7-.11-1.16-.5-1.12-.4.11.31,2.97,2,6.95,2.5,10.3,1.43s4.88-3.34,7.29-5.4l-4.41,2.57.74-.27h-5.32c2.73.45,5.33,1.7,8,2.43,4.2,1.14,7.76-.74,10.96-1.47,12.54-2.86,7.24-22.14-5.32-19.29-1.48.34-3.8,1.5-4.51,1.67h5.32c-3.54-.62-6.85-2.52-10.46-2.8-5.48-.43-8.23,2.58-12.02,5.84l4.41-2.57-.74.28h5.32c1.58.32-.9-.58-1.35-.82-2.14-1.1-3.58-1.29-5.96-1.54-3.64-.37-7.19-.49-10.51,1.35l-.85.62c-3.29,2.22-2.61,2.24,2.04.05-.99-.98-5.92-.39-6.85-.15-3.18.81-5.3,3.04-7.74,5.02,1.47-.86,2.94-1.71,4.41-2.57l-.87.35h5.32c1.19.17-.89-.36-1.49-.66-1.63-.78-3.23-1.28-5.05-1.37-2.56-.12-5.12.53-7.67.81-2.7.29-5.49.17-8.16.68-3.27.63-5.47,2.73-7.81,3.85l5.05-1.37c2.87.76,2.76.57-.33-.56-1.16-.51-2.38-.76-3.67-.73-2.4-.1-4.61.41-6.67,1.69-1.67,1.03-3.32,4.41-4.8,5.06,2.22-1.84,2.32-2.21.29-1.13-.85.6-1.76,1.07-2.74,1.43l5.05-1.37c2.4.7,2.67.7.82-.01-.72-.33-1.46-.62-2.22-.87-1.12-.3-2.43-.39-3.6-.37-2.1.03-4.28.8-6.08,1.88l-2.02,1.56c-1.1.95-1.26,1.06-.48.33,1.58-.27-2.26.06-2.49.12-1.2.32-2.39.8-3.56,1.23-2.56.96-5.26,2.98-6.97,3.93l5.05-1.37c.57.53.24.57-1,.12-1.27-.39-2.54-.46-3.81-.23-2.38.14-4.83.76-7.16,1.21-1.92.37-3.87.72-5.66,1.51-2.02.89-3.29,2.44-5.02,3.69.38-.27-3.89,1.5-1.92,1.04-2.82.67-4.98.62-7.53,2.26l-2.02,1.56c-1.74,1.36-1.09,1.2,1.95-.5.14-.64-6.9,1.36-7.41,1.64-1,.72-1.99,1.47-2.95,2.24-2.05,1.96-.68,1.92,4.11-.1-1.38-.71-4.98-.4-6.37-.08-4.18.96-9.01,4.37-11.41,7.92-2.03,3.01-.09.47-.03.52-1.7.91-1.62,1.19.24.85-1.3.12-2.6.28-3.89.48-4.02.97-7.89,3.7-11.37,5.85-10.92,6.76-.89,24.07,10.09,17.27h0Z"/>
  <path d="M442.68,426.82c-2.32-1.49-4.57-3.19-6.94-4.59-2.5-1.48-6.01-1.64-7.82-2.16l4.41,2.57c-1.84-1.66-3.69-4.39-6.56-5.84s-6.25-2.8-9.38-3.93c-1.42-.51-2.85-1.11-4.31-1.49l-1.47-.4c-3.02-.57-3.52-.57-1.53.02,1.41.68,1.51.5.32-.54-2.17-1.89-2.63-2.16-1.37-.82,1.7,2.15-1.07-1.75-1.33-2.05-2.51-2.94-5.76-4.72-9.76-4.65-1.11.12-2.22.28-3.32.47-1.13.21-.89.11.72-.3.91.83-4.16-1.99-3.12-1.48-3.27-1.61-6.94-3.43-10.64-3.64-1.49-.09-3.05.51-4.45.35-1.13.2-.85.12.81-.25-1.55-.53-1.9-.62-1.03-.27l3.59,3.59c-2.28-3.34-3.23-6.69-7.46-8.4s-8.96-.63-13.29-.96l5.05,1.37c1.36.73-.75-.83-1-1.06-1.46-1.31-3.32-2.47-5.23-3-2.78-.76-5.92-.58-8.77-.85s-5.91-.99-8.95-1.45c-.35-.05-2.29-.52-2.55-.48-1.04-.52-.98-.34.19.56-.66-.54-1.34-1.06-2.02-1.58-3.16-2.17-7.11-3.34-10.94-2.19-3.43,1.03,4.06,2.08.97-.04-1.33-.92-3.25-1.33-4.8-1.61-2.89-.52-6.02-.4-8.94-.26-3.07.14-6.65,1.39-8.87,1.73,2.57.34,5.14.67,7.71,1.01.63.28,2.51,3.15,1.23,1.03-.65-1.08-1.54-2.23-2.43-3.13-2.09-2.09-5.02-3.41-7.99-3.5-2.22-.06-5.07.23-7.25.73-1.34.31-2.58.79-3.78,1.48-.4.23-2.21,1.01-.9.72h5.32c-.48-.12-3.02-1.28-4.44-1.61-2.36-.54-4.48-.08-6.83.27s-.99.68-3.39.57c1.66.58,1.72.46.16-.37-1.12-.59-2.29-1.03-3.52-1.33-12.4-3.52-17.7,15.77-5.32,19.29.14.04,3.43,1.76,3.38,1.74,1.75.54,3.47.64,5.29.67,3.63.06,6.75-.93,10.22-1.56h-5.32c2.74.65,6.23,2.57,10.22,1.51.48-.13,4.07-1.06,4.27-2.01.98-.62.58-.56-1.18.2,1.02-.39,2.05-.49,3.07-.3l-5.05-1.37c-1.91-2.27-2.33-2.61-1.23-1.05.67.97,1.39,1.91,2.14,2.83.94,1,2.03,1.8,3.24,2.45,2.5,1.33,4.96,1.58,7.71,1.01,1.27-.1,2.45-.49,3.54-1.18,1.38-.66,1.58-.72.6-.18-1.07.51-.75.58.95.23,1.01,0,2.02.04,3.03.11,3.04,0-1.03-1.07,1.14.63,3.52,2.75,8.08,1.03,10.88.87l-5.05-1.37c1.34.59,4.34,2.74,6.52,3.56,3.13,1.19,5.99,1.43,9.25,1.93,2.48.38,4.66,1.54,7.36,1.57,2.86.03,5.61-.01,8.47.36l-5.05-1.37c-1.71-.9,3.33,2.8,3.03,2.62,1.83,1.14,3.72,1.65,5.86,1.8,3.13.23,6.35-.25,9.44.1l-5.05-1.37.56.38-3.59-3.59c2.06,2.97,2.73,5.93,6.26,7.91,4.03,2.26,8.69,2.8,13.16,2.48,1.77-.35,1.7-.28-.19.2.66.12,1.25.37,1.78.75,1.38,1.19,3.34,1.99,5,2.6,2.23.82,4.61,1.59,6.98,1.74,1.57.1,4.37-.24,5-.16l-5.05-1.37.74.56-3.59-3.59c2.68,3.66,5.23,7.02,8.71,9.31,3.92,2.58,9.15,2.96,13.56,4.75.6.24,1.21.49,1.81.74l2.39,1.01-1.62-1.56c-.71.22,5.86,5.68,6.36,5.91,1.6.74,3.23,1.02,4.97,1.18,2.26.21.26.3-.11-.12,1.5,1.7,4.4,2.95,6.31,4.18,10.87,6.97,20.91-10.34,10.09-17.27h0Z"/>
</svg>