<?xml version="1.0" encoding="UTF-8"?>
<svg id="_レイヤー_2" data-name="レイヤー 2" xmlns="http://www.w3.org/2000/svg" viewBox="0 0 1000 1000">
  <path d="M538.16,393.26c-6.59,3.11-15.92,7.82-18.02,15.44-2.81,10.21,7.16,16.49,15.91,16.98,14.69.82,29.76-8.32,35.58-21.86,2.13-4.96,1.47-10.72-3.59-13.68-4.33-2.54-11.38-1.33-13.68,3.59-1.49,3.19-3.3,5.82-6.25,7.8-1.55,1.04-3.11,1.77-4.89,2.22-1.09.28-2.85.26-3.08.35-.63-.16-.77-.2-.43-.12,1.26.22,1.61,1.4,1.04,3.53-.6,2.21-.28,3.38.94,3.5.09.03.16-.03.2-.15.88.17,4.63-3.02,5.85-3.54,1.72-.74,3.64-1.27,5.48-1.61,1.04-.19,2.05-.28,3.11-.32.55-.03,1.11-.04,1.66-.01,1.67.13,1.15-.2-1.55-.99l-2.57-4.41-.06-.11,1.37-5.05c-1.51,3.18-9.45,2.86-12.4,2.26l4.41,16.71c3.98-4.5,9.17-6.36,15.02-4.71-1.47-5.57-2.94-11.14-4.41-16.71-4.62,4.94-10.96,7.06-17.56,5.34.8,6.09,1.59,12.18,2.39,18.28,4.67-3.17,9.61-4.54,15.2-3.22-.8-6.09-1.59-12.18-2.39-18.28-8.33,4.01-17.31,5.87-26.53,5.91,1.68,6.21,3.36,12.42,5.05,18.63,45.95-25.96,100.94-19.32,151.02-13.13v-20c-46.54-5.19-94.25,1.08-137.88,18.09-5.03,1.96-8.52,6.71-6.98,12.3,1.32,4.8,7.24,8.96,12.3,6.98,42.23-16.46,87.52-22.39,132.57-17.37,5.38.6,10-5.02,10-10,0-5.96-4.62-9.33-10-10-54.03-6.68-111.73-12.04-161.12,15.86-8.66,4.89-4.8,18.68,5.05,18.63,12.87-.06,25.06-3.08,36.63-8.65,7.77-3.74,5.66-16.38-2.39-18.28-10.56-2.49-21.56-.91-30.62,5.23-6.85,4.65-6.38,16,2.39,18.28,13.29,3.46,27.59-.4,37.02-10.48,5.11-5.46,3.01-14.63-4.41-16.71-12.31-3.45-25.95.22-34.48,9.86-4.63,5.23-3.43,15.12,4.41,16.71,8.34,1.69,16.53,1.23,24.38-2.2,7.08-3.09,13.81-9.77,11.76-18.24-4.24-17.54-30.93-9.96-40.98-2.96-6.27,4.37-12.13,10.82-9.93,19.14,1.85,7,8.43,10.98,15.23,11.83,13.79,1.72,28-7.86,33.72-20.09-5.76-3.36-11.51-6.73-17.27-10.09-1.82,4.23-4.35,7.58-8.44,9.83-1.72.94-3.57,1.64-5.52,1.97-.95.16-1.98.08-2.94.21-2.7.37-.65-1.53.97,1.68l1.37,5.05-.02-1.11-1.37,5.05c-.13.31-.7.17-.35.13,1-.11,2.65-1.86,3.49-2.39,2.15-1.36,4.39-2.53,6.69-3.62,4.88-2.31,6.14-9.31,3.59-13.68-2.92-5-8.78-5.9-13.68-3.59h0Z"/>
  <path d="M536.7,397.82l-7.07.45,8.63,15.05c.85-1.76,1.14-2.08,3.02-2.49-2.57-6.09-5.14-12.18-7.71-18.28-2.29,1.52-3.68,1.71-6.47,1.38,1.68,6.21,3.36,12.42,5.05,18.63,2.72-1.32,5.58-1.9,8.58-2-1.68-6.21-3.36-12.42-5.05-18.63-2.63,1.48-5.49,2.73-8.52,3.1,1.68,6.21,3.36,12.42,5.05,18.63,46.93-22.28,101.6-25.9,151.23-10.89,12.35,3.73,17.62-15.56,5.32-19.29-54.96-16.62-114.86-11.67-166.64,12.91-8.65,4.11-4.76,19.85,5.05,18.63,6.71-.83,12.68-2.49,18.62-5.83,8.51-4.79,4.92-18.98-5.05-18.63-6.7.23-12.66,1.83-18.68,4.73-3.94,1.9-5.7,7.28-4.6,11.29,1.26,4.58,5.21,6.81,9.64,7.34,5.79.69,11.73-.89,16.57-4.11,9.46-6.29,3.55-20.74-7.71-18.28-6.42,1.4-12.1,5.75-14.97,11.68-3.06,6.32.5,15.56,8.63,15.05l7.07-.45c12.78-.81,12.87-20.81,0-20h0Z"/>
  <path d="M394.55,419.67c2.3,1.09,4.54,2.26,6.69,3.62.93.58,1.83,1.4,2.8,1.89,1.52.76.47.69.34.37l-1.37-5.05-.02,1.11,1.37-5.05c1.9-3.76,3.75-.97.97-1.68-.84-.22-2.04-.03-2.88-.17-1.96-.33-3.84-1.08-5.58-2.01-4.11-2.21-6.62-5.61-8.44-9.83-5.76,3.36-11.51,6.73-17.27,10.09,5.52,11.8,19.03,21.23,32.39,20.27,7.17-.52,14.73-4.52,16.56-12,2.05-8.37-3.56-14.7-9.93-19.14-9.96-6.94-35.91-14.47-40.76,2.33-2.5,8.67,4.17,15.67,11.54,18.88,7.86,3.42,16.03,3.89,24.38,2.2,7.85-1.59,9.04-11.49,4.41-16.71-8.54-9.64-22.17-13.31-34.48-9.86-7.42,2.08-9.52,11.25-4.41,16.71,9.43,10.08,23.73,13.94,37.02,10.48,8.79-2.29,9.24-13.63,2.39-18.28-9.05-6.14-20.07-7.72-30.62-5.23-8.01,1.89-10.18,14.53-2.39,18.28,11.57,5.57,23.76,8.59,36.63,8.65,9.84.04,13.72-13.74,5.05-18.63-49.39-27.91-107.09-22.54-161.12-15.86-5.36.66-10,4.12-10,10,0,4.94,4.6,10.6,10,10,45.05-5.02,90.33.91,132.57,17.37,5.03,1.96,10.98-2.16,12.3-6.98,1.56-5.66-1.93-10.33-6.98-12.3-43.63-17.01-91.34-23.27-137.88-18.09v20c50.08-6.19,105.08-12.83,151.02,13.13,1.68-6.21,3.36-12.42,5.05-18.63-9.22-.04-18.2-1.9-26.53-5.91-.8,6.09-1.59,12.18-2.39,18.28,5.59-1.32,10.53.04,15.2,3.22.8-6.09,1.59-12.18,2.39-18.28-6.61,1.72-12.94-.4-17.56-5.34l-4.41,16.71c5.85-1.64,11.04.22,15.02,4.71l4.41-16.71c-2.96.6-10.9.92-12.4-2.26l1.37,5.05-.06.11-2.57,4.41c-1.24,1.31-3.57.55-.72.97,1.2.18,2.43.06,3.63.27,1.82.31,3.74.86,5.45,1.55s4.4,3.31,6.05,3.52c.18.02.16.32.39.31l1.78-6.99c.49-.11.39-.08-.28.09-.21-.1-1.41,0-2.37-.19-1.8-.35-3.42-1.04-4.99-2-3.25-1.99-5.27-4.78-6.86-8.19-2.29-4.89-9.32-6.14-13.68-3.59-5.13,3-5.73,8.7-3.59,13.68,5.82,13.53,20.89,22.69,35.58,21.86,8.75-.49,18.73-6.75,15.91-16.98-2.09-7.59-11.46-12.35-18.02-15.44-4.88-2.31-10.79-1.36-13.68,3.59-2.54,4.35-1.32,11.37,3.59,13.68h0Z"/>
  <path d="M406.1,426.96l7.07.45c8.14.51,11.69-8.73,8.63-15.05-2.87-5.93-8.55-10.28-14.97-11.68-11.17-2.44-17.24,11.93-7.71,18.28,4.83,3.21,10.78,4.8,16.57,4.11,4.45-.53,8.38-2.74,9.64-7.34,1.11-4.03-.65-9.39-4.6-11.29-6.02-2.91-11.97-4.5-18.68-4.73-9.95-.34-13.56,13.84-5.05,18.63,5.94,3.34,11.9,5,18.62,5.83,9.8,1.22,13.7-14.53,5.05-18.63-51.78-24.58-111.68-29.53-166.64-12.91-12.29,3.72-7.05,23.03,5.32,19.29,49.63-15.01,104.3-11.38,151.23,10.89l5.05-18.63c-3.03-.38-5.9-1.62-8.52-3.1l-5.05,18.63c3.01.1,5.85.68,8.58,2l5.05-18.63c-2.73.33-4.19.14-6.47-1.38-2.57,6.09-5.14,12.18-7.71,18.28,1.88.41,2.14.67,3.02,2.49,2.88-5.02,5.76-10.03,8.63-15.05l-7.07-.45c-12.85-.81-12.8,19.19,0,20h0Z"/>
</svg>