<?xml version="1.0" encoding="UTF-8"?>
<svg id="_素材配置" data-name="素材配置" xmlns="http://www.w3.org/2000/svg" viewBox="0 0 1000 1000">
  <g>
    <path d="M532.31,377.23c1.41-.54,2.78-1.22,4.2-1.72s3.34.48,4.77,0,2.52-2.01,3.96-2.44,2.87-.95,4.32-1.35,3.17.23,4.63-.14,2.67-1.77,4.14-2.1,3.35,1.32,4.83,1.03,2.67-1.98,4.15-2.25,3.21,1.1,4.7.87,2.49-3.89,3.98-4.09,3.38,2.86,4.87,2.7,2.7-3.38,4.2-3.51,3.12,1.04,4.62.94,3.04.42,4.54.36,3.01.24,4.51.21,3-1.07,4.51-1.06,3.05-.96,4.55-.91,2.88,3.23,4.38,3.31,3.09-1.45,4.59-1.34,3.15-1.35,4.65-1.2,3.04.21,4.54.39,3.02.43,4.51.64,2.52,3.4,4.01,3.64,3.45-2.2,4.93-1.91,2.3,3.77,3.77,4.09,3.25-.83,4.71-.47,2.64,1.74,4.1,2.13,3.14-.14,4.59.28,3.28-.43,4.72.02,2.2,2.92,3.63,3.4,2.9.74,4.31,1.27c1.14.42,3.9-1.34,4.84-.54,1.05.88,1.57,4.29,1.33,5.61-1.41.34-3.83-1.48-5.27-1.45s-2.95,1.93-4.39,1.78-2.55-2.85-3.97-3.05c-1.49-.21-3.13.67-4.62.47s-2.85-1.43-4.35-1.62-3.29,2.2-4.79,2.03-3.04.19-4.53.03-2.63-3.76-4.13-3.91-3.06.3-4.56.17-3.12,1.17-4.62,1.04-2.84-2.33-4.34-2.45-3.08.84-4.58.74-3.02.06-4.52-.03-3.13,2.21-4.63,2.14-2.83-3.75-4.34-3.81-3.06,1.05-4.56,1-3.04.99-4.54.95-2.97-1.64-4.48-1.66-3.02.72-4.52.71-3.01-1.31-4.51-1.31-3.01,1.36-4.51,1.37-3.02-.57-4.52-.55-2.99.87-4.5.91-2.96,1.57-4.46,1.61-3.04-1.11-4.54-1.06-3.01-.02-4.51.05-3.01.07-4.51.15-2.88,2.12-4.38,2.22-3.19-2.67-4.69-2.56-2.93,1.15-4.43,1.27-2.95.71-4.45.84-2.85,1.76-4.34,1.9"/>
    <path d="M534.96,386.88c.43-.18,4.61-1.74,3.23-1.55-1.65.24,1.56.31,1.93.32,3.22.03,5.52-1.24,8.17-2.72,1.67-.93,2.48-.98,4.36-1.22,1.04-.13,8.33-.63,8.64-2.54-.14.87-5.23-.33-1.98.91,1.58.6,4.9.52,6.49.08,1.03-.28,2.64-.83,3.45-1.45,1.53-.82,1.32-.99-.63-.54-1.83-.04-2.17.08-1.04.35,1.64,2.06,8.23-.02,9.81-.93,1.18-.68,2.13-1.51,3.03-2.5l1.56-2.02c1.1-1.51.78-1.3-.97.62-2.57.34-5.14.67-7.71,1.01-2.23-1.51-2.61-1.69-1.14-.55.88.79,1.83,1.48,2.84,2.08,2.2,1.2,4.67,1.68,7.15,1.34,4.3-.58,6.29-3.28,9.21-5.97l-4.41,2.57.73-.29h-5.32c4.74.65,9.25,1.52,14.08,1.75s9.25-1.53,13.98-2.22h-5.32l.74.25-4.41-2.57c3.81,3.16,6.59,6.23,12.04,5.81,3.49-.27,6.89-2.2,9.42-2.23.47,0,2.73.54,3.03.27.64-.59-1.79-1.49-2.12-2.5.59,1.79,3.29,4.15,4.88,5.08,5.42,3.17,9.88,1.02,14.8-1.46l-5.05,1.37.94-.11-5.05-1.37c-1.68-1.81-2.15-2.17-1.41-1.09.54.88,1.15,1.71,1.85,2.48.98,1.06,2.05,1.99,3.33,2.7,1.73.97,3.65,1.37,5.62,1.37,1.24,0,6.59-1.43,2.79-.7-2.71.52-1.15.25.4.99,2.19,1.05,4.18,1.33,6.56,1.52,2.57.2,5.25-.15,7.79.15l-5.05-1.37c-1.97-2.12-1.93-1.94.13.56.75.95,1.66,1.73,2.72,2.34,1.66,1.06,3.47,1.58,5.34,2.13,4.3,1.26,7.31.63,11.56-.11h-5.32l.76.21c-1.99-1.53-3.98-3.06-5.98-4.6-.58-.76.02-.26-.03.57,3.33-3.33,6.67-6.67,10-10,1.49.03-.56-.52-1.09-.71-1.24-.44-2.98-.74-4.18-.74-2.34,0-5.89,1.92-7.05,2.14,2.57.34,5.14.67,7.71,1.01,1.19.51-.63-.66-1.12-1.1-.87-.79-1.82-1.4-2.84-1.94-2.13-1.14-4.21-1.41-6.58-1.29l-2.66.36c2.11.45,2.29.37.53-.26-3.23-1.56-6.79-1.58-10.09-.3-1.15.45-2.07,1.17-3.15,1.68,2.72-1.29.48-.61-1.38-.64l5.05,1.37c1.71,1.96,2,2.2.86.72-.65-.99-1.4-1.91-2.25-2.74-2.13-2-4.87-3.12-7.79-3.26-1.87-.09-3.84.11-5.7.29-1.33,0-2.61.26-3.83.75,5.36,2.3,6.3,2.29,2.8-.04-4.36-2.85-8.14-1.74-12.88-1.53-2.22.1-4.42-.1-6.59.56.28-.09-5.52,2.34-3.71,1.94h5.32l-.74-.3,4.41,2.57c-2.91-2.84-4.96-5.62-9.34-6.26-4.29-.62-8.88,1.46-13.09,2.13h5.32c-2.83-.69-6.08-2.72-9.97-1.67-1.59.05-1.77.18-.53.36-.95-.5-1.95-.82-3.01-.96-2.13-.46-4.35-.42-6.44.21-.94.28-3.51.75-1.08.74-2.47.01-4.35-.57-6.82-.14-2.91.51-6.92,2.04-8.96,2.52h5.32c-4.27-.75-8.07-1.45-12.46-1.34-2.12.06-4.34-.02-6.41.48-1.54.37-3.67,1.98-4.38,2.22h5.32l1.59.89-2.02-1.56c-1.04-.67-2.13-1.3-3.34-1.66-2.93-.86-5.58-.43-8.45.4-1.96.56-3.95.86-5.92,1.35-1.65.42-4.31,1.79-5.09,2.03-12.26,3.79-7.03,23.1,5.32,19.29,2.34-.72,4.05-1.73,5.83-2.15,2.48-.59,4.92-1.28,7.39-1.86h-5.32l-1.59-.9,2.02,1.56c1.05.68,2.13,1.29,3.34,1.66,2.93.91,5.8.61,8.54-.64-.05.02,3.56-1.77,1.6-1.14-1.62.52,1.08.05,1.58.04,2.08-.06,3.69.06,5.63.36,2.74.42,5.22.81,7.95,0,2.21-.66,3.1-1.21,4.84-1.59.8-.17,2.17-.25.69-.25,2.06,0,3.49.52,5.49.32,2.11-.21,3.81-1.17,5.84-1.55h-5.32c2.69.6,5.08,1.7,7.92,1.58.7-.08,1.39-.17,2.08-.27,1.74-.05,1.77-.23.1-.53-1.4-.48-1.62-.51-.67-.07.95.5,1.93.93,2.95,1.29,5.22,1.55,10.42-.86,15.54-1.68h-5.32l.74.3-4.41-2.57c3.17,3.08,5.7,6.44,10.67,6.44,2.28,0,5.04-.77,6.89-2.11,1.48-.92,1.22-.92-.76,0,.75-.03,1.51-.04,2.26-.01.76.05,1.52,0,2.27-.16,4.05-.11,3.58-.75-1.41-1.94,1,1.63,4.47,3.04,6.15,3.45,4.53,1.11,7.67-.83,11.84-.85l-5.05-1.37c-.74-.34-2.18-2.71-.86-.73.64.96,1.41,1.93,2.24,2.74,2.29,2.21,5.42,3.21,8.55,3.28,2.23.05,4.73.08,6.9-.48,1.16-.3,2.26-.82,3.34-1.35.51-.26,2.19-.79.98-.59h-5.32c1.98.62,3.61,1.52,5.67,1.8s3.85-.19,5.95-.29l-5.05-1.37c-1.26-.58.74.79,1.12,1.13,1.46,1.31,3.33,2.4,5.24,2.93,3.83,1.05,7.02-1.01,9.7-1.78h-5.32c2.82.5,4.91,1.74,7.93,1.81,5.67.13,9.64-4.7,10-10,.25-3.63-.72-7.62-2.7-10.66-3.57-5.49-8.55-5.19-14.21-4.29,2.44-.03,2.61-.23.51-.6,2.89,2.72,3.17,2.72.83,0-1.57-1.73-3.61-3.19-5.9-3.83-3.76-1.04-8.09-.28-11.96-.66l5.05,1.37c-2.21-.94-4.11-2.49-6.49-3.14-2.17-.6-6.47.13-7.37.12l5.05,1.37c1.81,1.91,2.19,2.11,1.12.61-.69-.95-1.42-1.87-2.18-2.76-1.36-1.31-3.29-2.45-5.1-2.95s-4.45-.38-6.26.11c-1.17.43-2.3.93-3.4,1.52-1.16.79-1.36.88-.6.28,2.57.34,5.14.67,7.71,1.01,1.65,1.92,2.08,2.37,1.27,1.34-.62-.81-1.25-1.63-1.88-2.44-1-1.03-2.14-1.87-3.39-2.55-3-1.62-6.99-1.74-10.31-2.08-5.75-.59-11.06,1.8-15.68,2.58h5.32l-.74-.27,4.41,2.57c-3.3-2.78-5.94-5.97-10.71-5.97-3.84,0-7.6,1.76-11.32,1.86-3.93.1-7.54-1.39-11.42-1.39-2.85,0-5.74,1.31-7.8,3.22-.52.42-.98.91-1.37,1.45-.88,1.01-.91,1.08-.07.2,2.57-.34,5.14-.67,7.71-1.01,2.22,1.49,2.6,1.66,1.13.52-.88-.79-1.82-1.48-2.84-2.07-2.2-1.2-4.68-1.66-7.15-1.33s-4.66,1.41-6.45,3.11c-.8.87-1.54,1.79-2.22,2.76-1.1,1.5-.78,1.3.97-.6l5.05-1.37c-2.83-.19-7.15-1.47-10.82.91-1.97,1.12-1.24,1.22,2.2.29-.82-.38-1.67-.59-2.57-.62-2.18-.36-4.11-.18-6.21.53-.6.2-5.35,2.24-1.95,1.44-2.26.53-4.83.18-7.21.82-3.49.93-6.11,2.79-9.23,4.37l5.05-1.37c-1.61.18-3.16-.11-4.77,0-2.64.17-4.44,1.09-6.85,2.08-4.99,2.05-8.54,6.64-6.98,12.3,1.3,4.73,7.27,9.05,12.3,6.98h0Z"/>
  </g>
  <g>
    <path d="M443.24,378.42c-1.41-.54-2.72-1.28-4.14-1.78s-2.26-2.74-3.69-3.21-3.06-.39-4.5-.82-3.19.19-4.65-.22-2.81-1.14-4.27-1.5-3.16.31-4.63-.02-2.66-1.91-4.14-2.21-3.24.97-4.72.7-2.61-2.61-4.1-2.84-3.26,1.58-4.76,1.38-2.79-1.98-4.29-2.14-3.17,1.58-4.67,1.45-2.76-3.65-4.26-3.75-3.12,1.48-4.62,1.42-3.03.74-4.54.72-3,.06-4.51.07-3.03-1.01-4.53-.97-2.94,1.75-4.44,1.82-3.22-3.02-4.72-2.9-2.77,3.08-4.27,3.23-2.89,1.03-4.38,1.21-3.13-.85-4.62-.64-2.89.94-4.37,1.18-3.22-.91-4.7-.62-2.8,1.38-4.27,1.69-2.62,1.98-4.08,2.33-3.46-1.46-4.92-1.07-2.69,1.59-4.14,2.01-3.31-.48-4.74-.03-2.12,3.2-3.54,3.69-2.98.55-4.39,1.07c-1.14.42-1.99,1.13-2.93,1.92-1.05.88-3.37,2.18-3.14,3.5,1.41.34,3.84-1.25,5.28-1.22s2.73-.47,4.17-.61,3.13,1.87,4.55,1.67c1.49-.21,2.61-3.1,4.1-3.3s3.18,1.11,4.67.92,2.81-1.91,4.3-2.08,3.35,2.9,4.85,2.74,2.7-3.03,4.2-3.18,3.21,1.97,4.71,1.83,2.85-1.9,4.35-2.02,2.98-.52,4.48-.63,3.17,2.18,4.67,2.08,2.98-.25,4.48-.33,2.82-3.44,4.32-3.52,3.1,1.7,4.6,1.64,2.94-1.94,4.44-1.99,3.11,3.22,4.61,3.18,2.95-2.47,4.45-2.5,3.04,2.51,4.54,2.5,2.98-3.71,4.49-3.71,3,3.64,4.5,3.65,2.99-.03,4.5,0,3.04-2.26,4.55-2.23,3,.46,4.5.51,2.96,1.34,4.46,1.4,3.01-.12,4.51-.05,3.02-.25,4.52-.16,2.95.89,4.45.98,3,.04,4.5.15,3.09-1.01,4.59-.89,3.1-.93,4.6-.8,2.71,3.31,4.21,3.45"/>
    <path d="M448.29,369.78c-.93-.38-1.84-.79-2.75-1.22-2.79-1.1-3.2-1.31-1.21-.62-1.3-1-2.38-2.34-3.87-3.15-4.01-2.17-8.65-1.48-12.82-2.4-2.07-.46-3.35-1.35-5.65-1.51-1.04-.14-2.07-.13-3.1.05,1.57.41,1.89.36.95-.16-.44-1.3-5.58-2.08-6.62-2.12-1.45-.05-4.49.7-4.72.7l5.05,1.37c1.15.51-.74-.51-1.22-.92-1.53-1.29-3.31-2.38-5.27-2.93-3.59-1.01-7.39,1-10.07,1.38h5.32c-1.71-.62-4.13-2.5-6.94-2.5-2.42,0-5.81,1.55-7.33,1.81,2.57.34,5.14.67,7.71,1.01,1.64.71-.56-.95-1.15-1.54-1.48-1.47-3.12-2.48-5.13-3.06-2.22-.65-4.59-.62-6.83.04-.77.23-5.54,1.54-2.33,1.04-2.85.44-5.12.54-7.9.24-2.36-.26-4.47-.78-6.83-.23-1.49.35-3.72,1.62-4.44,1.82h5.32c.91.23,2.81,2,1.25.39-.75-.78-1.86-1.55-2.81-2.1-2.67-1.54-6-1.87-8.91-1.01-2.34.69-4.52,2.15-6.11,3.99-.61.64-.55.62.2-.07.86-.61.82-.71-.11-.28-.85.27-.97.33-.34.17,1.25-.23.49-.38-2.28-.44-2.33-.14-4.92.11-7.1,1.06.87-.38,2.27.25.3-.24-1.2-.3-2.57-.4-3.81-.37-5.05.13-9.05,3.45-13.4,5.39l5.05-1.37c1.51.02-.16-.35-.83-.56-1.28-.4-2.76-.54-4.09-.51-3.39.07-6.2,2.04-9.18,3.38l5.05-1.37c-3.43.32-6.5-.48-9.79,1.34-1.36.75-2.46,1.78-3.48,2.92-4.54,5.09,4.23-.96-1.34.64-1.63.47-3.21,1.15-4.64,2.05-.86.59-1.7,1.22-2.5,1.89.49-.34.46-.31-.09.1-2.94,2.28-5.87,4.67-6.54,8.58-1.09,6.32,2.64,12.64,9.64,12.66,4.59.01,7.83-1.48,12.11-2.19h-5.32c2.81.57,6.11,2.7,9.87,1.67,1.89-.52,3.85-1.67,5.27-2.98.36-.33,2.52-1.93,1.22-1.33l-5.05,1.37c-.95-.07.79.45.86.47,1.57.49,3.53.48,5.14.27,1.99-.26,4.62-1.92,5.63-2.26h-5.32c-2.23-1.49-2.62-1.66-1.16-.51.88.78,1.83,1.48,2.84,2.08,1.71.94,3.88,1.52,5.82,1.52s4.2-.75,5.91-1.74c1.02-.69,1.97-1.47,2.85-2.33.91-1.05,1.07-1.21.48-.47l-7.71,1.01c-.83-.59-.68-.53.44.2,1.08.57,2.19,1.06,3.34,1.49,1.99.59,4.22.64,6.24.15,1.19-.29,6.32-3.01,3.18-1.86,3.61-.15,3.55-.51-.21-1.09.45.34.92.65,1.42.91,3.65,2.22,8.18,2.01,12.25,1.31,4.25-.74,6.34-3.3,9.33-5.99l-4.41,2.57.74-.28h-5.32c1.82.37,4.65,1.99,7.25,1.99s5.4-1.86,7.1-2.35h-5.32c-2.29-1.36-2.73-1.43-1.33-.21l2.02,1.56c1.67,1.1,3.28,1.77,5.25,2.01,2.17.26,4.1-.07,6.08-.95.77-.23,1.47-.6,2.08-1.12,2.62-1.86,2.71-2.06.28-.6h-5.32c-2.38-1.45-2.27-1.25.34.61.98.76,2.08,1.31,3.3,1.63,2.03.64,4.14.84,6.22.26,3.65-1.02,5.53-3.61,8.15-6.01l-4.41,2.57.75-.27h-5.32l.75.27-4.41-2.57c1.71,1.54,2.98,3.48,5.02,4.67,2.67,1.56,5.78,1.73,8.79,1.63s5.91-.34,8.36-2.14l.91-.67c-3.34.35-3.86.61-1.56.77-.17-.23,3.21,1.01,3.14.98,4.68,1.46,9.59.02,14.23,1,2.99.64,6.2.76,9.23.46,1.11-.11,2.28-.51,3.26-.71,1.53-.31,6.19.55,2.67-.86l-4.41-2.57c2.69,2.44,4.28,4.26,7.89,5.73,5,2.04,10.99-2.22,12.3-6.98,1.57-5.73-1.96-10.25-6.98-12.3l-.73-.3,4.41,2.57c-1.62-1.48-2.83-3.29-4.78-4.43-3.13-1.83-6.51-1.76-9.96-1.13-2.06.38-4.51,1-6.5,1.09-2.54.12-4.89-.95-7.45-1.06s-5.02.37-7.52.21c1.65.1-1.37-.53-1.81-.67-1.41-.44-2.86-.55-4.32-.73-3.22-.41-6.03-.7-9.09.58-1.14.48-2,1.09-3.02,1.73l1.73-.59c-1.62-.09-1.99-.06-1.09.09l4.41,2.57c-3.29-2.97-5.88-6.31-10.82-6.31s-7.54,3.35-10.81,6.36l4.41-2.57-.75.28h5.32c2.01,1.23,2.23,1.29.68.16-.61-.51-1.25-.97-1.92-1.4-1.64-.94-4.07-1.62-5.95-1.62-1.98,0-4.24.69-5.94,1.63l-.89.61c-2.62,1.86-2.71,2.06-.28.61h5.32c2.12,1.27,2.69,1.47,1.72.59-.72-.75-1.52-1.4-2.41-1.95-1.22-.79-2.48-1.44-3.92-1.82-3.99-1.04-6.85,1.13-9.76,1.99h5.32c-3.1-.65-6.16-2.68-10.28-1.5-3.6,1.04-5.1,3.38-7.63,5.66l4.41-2.57c.92.05.57.1-1.07.15,1.99,1.01,2.24,1.04.74.11-2.07-1.28-4.45-2.03-6.9-2.08-4.2-.09-8.39,2.01-11.48,3.01h5.32c1.54.25-.87-.42-1.4-.68-2.32-1.14-4.71-1.68-7.3-1.33-2.11.29-3.9,1.13-5.6,2.34-.66.46-1.27.98-1.84,1.55-.91,1.05-1.07,1.21-.48.48,2.57-.34,5.14-.67,7.71-1.01,2.08,1.39,2.6,1.67,1.57.85-.79-.67-1.6-1.31-2.44-1.91-1.12-.72-2.3-1.26-3.59-1.6-1.17-.31-9.96-.59-10.24,1.97.08-.7,6.06-.12.7-.97-1.69-.27-3.46-.37-5.14.09-1.88.52-3.85,1.66-5.27,2.97-.35.32-2.52,1.95-1.22,1.34,2.57-.34,5.14-.67,7.71-1.01-.27-.05-2.5-1.16-3.43-1.44-2.46-.75-4.65-.46-7.13-.11-1.31.19-2.66.28-3.95.57-.42.1-3.84.78-2.14.78l9.64,12.66c-2.66,3.05-3.14,3.88-1.46,2.47l2.02-1.56c-.77.34,1.81-.13,2.18-.23,1.87-.52,3.44-1.27,4.91-2.51.94-.79,6-5.16,1.75-2.38l-5.05,1.37c2.06-.23,3.99.24,6.07-.15,2.88-.54,5.2-2.06,7.85-3.2l-5.05,1.37c-2.37,0,4.47,1.08,3.98,1.06,2.49.09,4.88-.56,7.03-1.82.34-.2,4.25-3.07,4.47-2.38-2.91-.09-3.35.05-1.32.42,1.26.26,2.53.39,3.81.39.14,0,7.01-1.09,4.8-1.04,3.04-.08,5.21.52,8.32-.23,4.57-1.1,7.37-3.19,10.72-6.29l-4.41,2.57.88-.36h-5.32c-2.11-1.36-2.66-1.62-1.65-.77.76.7,1.57,1.34,2.42,1.92,1.23.78,2.53,1.39,3.95,1.75,3.86.98,7-1.1,9.76-1.82h-5.32c4.26.66,8.08,1.51,12.45,1.17,3.67-.29,8.35-1.95,11.06-2.41h-5.32l.73.3-4.41-2.57c2.21,2.14,3.65,4.38,6.75,5.51,4.54,1.66,7.68-.41,11.18-.95h-5.32c1.7.58,4.16,2.5,6.94,2.5,3.13,0,5.85-1.38,8.64-2.6l-5.05,1.37-.64-.15-4.41-2.57c3.57,2.95,6.45,5.6,11.47,5.37,1.32-.06,2.61-.29,3.87-.68-3.5-.81-4.25-.67-2.27.42,2.38,1.59,4.96,1.47,7.63,1.88,3.51.54,7.17,1.26,10.85,1.61,3.39.65,3.54.5.45-.46.8,1.02,1.77,1.86,2.89,2.53,1.58,1.04,3.38,1.69,5.12,2.43,4.96,2.11,10.72,1.48,13.68-3.59,2.46-4.2,1.41-11.55-3.59-13.68h0Z"/>
  </g>
</svg>