<?xml version="1.0" encoding="UTF-8"?>
<svg id="base" xmlns="http://www.w3.org/2000/svg" viewBox="0 0 1000 1000">
  <path d="M578.51,444.36c.98-.77,1.57-1.68,2.47-2.52,2.48-2.32,2.99-1.42.88-1.05h-5.32c4.83.98,8.96,2.48,13.43-.83,1.92-1.42,3.15-3.22,4.05-5.4.37-.91,1.98-3.76-.18-.83-1.38,1.61-1.38,1.81,0,.6,1.39-1.02,1.35-1.04-.13-.07h-5.32c2.59.61,4.56,1.61,7.35,1.48,3.62-.17,7.47-1.85,10.62-3.54,1.19-.64,2.43-1.34,3.55-2.1-.42.28,5.24-3.66,1.67-1.82,3.12-1.61,6.7-.88,9.82-2.62,1.32-.73,2.42-1.8,3.41-2.91l1.56-2.02c-2.07,1.54-2.15,1.77-.24.72,2.74-.6,5.71-2.42,8.33-3.38,3.02-1.11-1.67-.33,1.3.19,1.42.25,3.7-.48,4.99-1.02,3.58-1.48,5.27-4.44,7.42-7.41l-3.59,3.59.76-.54c4.39-3.13,6.49-8.72,3.59-13.68-2.54-4.34-9.26-6.74-13.68-3.59-2.72,1.94-4.32,4.25-6.23,6.9l3.59-3.59c2.34-.61,2.57-.91.68-.89-1.08.14-2.15.28-3.23.44-1.76.44-3.33,1.34-5.02,2-3.04,1.2-6.1,2.14-9.01,3.71-1.56.84-2.8,1.41-4.13,2.74-.48.6-.96,1.2-1.42,1.81-1.74,2.04-.83,1.58,2.75-1.4-2.22-1.03-9.55,2.51-11.24,3.52-1.19.71-2.51,2.15-3.24,2.66-.36.25-2.22,1.03-2.83,1.64l-1.45.42c2.51.6,2.9.61,1.17.02-1.46-.57-3.03-.97-4.61-.97-3.75,0-6.68,1.9-9.59,4.04-1.63,1.2-3.08,2.39-4.15,4.13-.52,1.06-.99,2.14-1.41,3.24-.65,1.72-.34,1.39.95-.99l4.41-2.57-.78.13h5.32c-4.34-.89-8.13-2.3-12.42.05-3.48,1.91-5.97,5.17-9,7.57-4.24,3.36-3.51,10.63,0,14.14,4.18,4.18,9.9,3.37,14.14,0h0Z"/>
</svg>