<?xml version="1.0" encoding="UTF-8"?>
<svg id="_レイヤー_2" data-name="レイヤー 2" xmlns="http://www.w3.org/2000/svg" viewBox="0 0 1000 1000">
  <path d="M400.81,415.45c4.35,3.68,8.69,7.36,13.04,11.04,3.99,3.38,10.28,4.2,14.14,0,3.41-3.72,4.26-10.53,0-14.14s-8.69-7.36-13.04-11.04c-3.99-3.38-10.28-4.2-14.14,0-3.41,3.72-4.26,10.53,0,14.14h0Z"/>
  <path d="M366.88,425.77c5.31,1.85,10.24,4.05,15.22,6.73s10.89,1.19,13.68-3.59,1.18-11.11-3.59-13.68c-6.41-3.45-13.12-6.36-19.99-8.75-5.1-1.77-10.94,2.02-12.3,6.98-1.51,5.51,1.86,10.52,6.98,12.3h0Z"/>
  <path d="M354.83,425.53l-15.75-1.75c-5.22-.58-10.22,5.01-10,10,.26,5.91,4.41,9.38,10,10l15.75,1.75c5.22.58,10.22-5.01,10-10-.26-5.91-4.41-9.38-10-10h0Z"/>
  <path d="M575.05,401.3c-4.35,3.68-8.69,7.36-13.04,11.04-4.01,3.39-3.75,10.7,0,14.14,4.26,3.91,9.87,3.62,14.14,0s8.69-7.36,13.04-11.04c4.01-3.39,3.75-10.7,0-14.14-4.26-3.91-9.87-3.62-14.14,0h0Z"/>
  <path d="M617.8,406.48c-6.88,2.39-13.58,5.3-19.99,8.75-4.75,2.56-6.25,9.14-3.59,13.68,2.81,4.81,8.91,6.16,13.68,3.59s9.91-4.89,15.22-6.73,8.48-6.85,6.98-12.3c-1.36-4.95-7.18-8.77-12.3-6.98h0Z"/>
  <path d="M635.17,445.53l15.75-1.75c5.18-.57,10.26-4.19,10-10-.22-4.92-4.43-10.62-10-10l-15.75,1.75c-5.18.57-10.26,4.19-10,10,.22,4.92,4.43,10.62,10,10h0Z"/>
</svg>