<?xml version="1.0" encoding="UTF-8"?>
<svg id="_レイヤー_2" data-name="レイヤー 2" xmlns="http://www.w3.org/2000/svg" viewBox="0 0 1000 1000">
  <path d="M304.08,403.93c3.03,1.38,5.87,1.67,9.11,2.07l-5.05-1.37.86.37-3.59-3.59c-.89-1.17.39.99.59,1.54.86,2.4,2.19,4.36,4.16,5.93,1.67,1.33,3.56,1.98,5.63,2.27.39.06,4.72.43,3.07-.09l-4.41-2.57c1.65,1.28,3.21,2.79,4.98,3.9.96.61,5.58,4.05,3.34,1.23l-2.57-4.41c1.28,4.17,1.89,8.27,6.08,10.73s8.22.94,12.57.22h-5.32l.78.16-4.41-2.57c-1.13-2.13-1.29-2.3-.48-.52.21.58.46,1.14.75,1.67.67,1.17,1.49,2.24,2.48,3.16,2.5,2.33,5.7,3.23,9.05,3.07l2.66-.36c-4.59-1.97-6.08-2.19-4.46-.66.57,1,2.39,2.06,3.36,2.66.75.46,2.32.87,2.84,1.22s1.16,1.32,1.72,1.86c2.34,2.29,5.78,3.99,9.11,3.9,1.49-.04,1.2.04-.1-.4,1.15.39,2.33,1.04,3.45,1.53,2.73,1.18,5.34,2.6,8.34,2.82,1.33.1,2.54-.16,3.84-.12-.35,0,2.21,1.21,1.01.33l-3.59-3.59c.98,1.58,2.4,5.75,5.62,7.8s7.08,1.7,10.54,2.49c3.88.89,8.51,1.78,12.5.92,2.29-.3,1.6-.4-2.06-.29.67.51,1.41.89,2.21,1.15,2.08.96,4.14,1.25,6.43,1.42,3.13.24,6.32-.13,9.4.57,3.85.87,7.55,1.78,11.52,2.14.75.07,1.5.12,2.25.15,1.8.17,1.06-.23-2.22-1.21.27,1.44,5.13,3.19,6.16,3.45,2.06.51,4.21.39,6.24-.24,1.24-.33,2.35-.88,3.33-1.67,2.58-1.81,2.72-2.05.43-.72h-5.32c4.29.59,8.59,1.05,12.74,2.06,5.09,1.24,10.14-.36,15.06-1.48h-5.32c1.23.25,3.96,1.57,5.96,1.81,2.2.26,4.45.35,6.65.17,2.56-.21,5.4-.58,7.89-1.29,1.95-.55,5.6-2.17,6.47-2.28-.89.12,1.73.24,1.99.25,1.03.02,2.06.03,3.09.06,2.67.08,5.37-.16,8.02-.62,4.54-.78,8.22-3.22,12.32-5.05l-5.05,1.37c3.85-.5,7.97-.53,11.72-1.69,4.14-1.28,6.2-4.53,8.5-7.93l-3.59,3.59.73-.54-5.05,1.37c-2.34-.04-3.04-.61-.28.63,1.26.57,2.06.83,3.41,1.05,2.82.44,5.47-.19,7.87-1.69,1.41-.88,2.53-1.98,3.43-3.35,1.74-2.64-2.85,1.13.42-.22,2.45-1.01,4.08-2.83,6.26-4.23,1.42-.91-1.78.19,1.11-.37-1.31.25,3.31-1.12,2.24-.77,2.32-.77,4.3-1.53,6.31-2.95,5.57-3.93,6.73-7.51,7.45-14.02l-1.37,5.05.39-.83-3.59,3.59c1.7-1.21,3.42-1.66,5.04-3.12s2.6-3.38,4.03-5.04c2.65-3.08,5.4-5.86,5.31-10.64-.12-1.31-.32-2.61-.61-3.9.04,2.04.27,2.15.68.31.24-.29,1.72-4.56,1.56-4.08.86-2.66.87-5.42.17-8.12-.53-1.89-.61-1.87-.26.06.46-1.25.71-2.55.74-3.89.17-4.42-1.84-10.22-5.08-13.28-1.48-1.4-2.36-1.64-3.94-2.5.68.85.44.69-.7-.47-1.01-.9-2.1-1.68-3.28-2.32-.3-.49-.71-.89-1.23-1.19-1.56-1.42-1.56-1.12.02.89-.31-.13-3.1-5.39-3.69-5.94-2.17-2.02-5-3.07-7.96-3.07.28,0-6.18.7-4.24.85l5.05,1.37c-2.04-1.24-3.71-2.59-6.09-3.32-1.34-.29-2.7-.5-4.07-.63-1.51.07-1.86-.03-1.04-.31l4.41,2.57c-2.93-2.32-5.21-4.53-9.08-5.03-4.1-.53-8.54.6-12.31,2.13-1.28.52-2.58.92-3.77,1.66-5.76,3.57-.38,1.72-.41,1.52-.41-2.32-11.52,5.69-11.89,5.99l4.41-2.57c.88-.35.21.05-.6.06-1.72.04-3.38.38-4.97.97-2.93,1.09-4.78,3.2-6.58,5.7-1.26,1.76-2.44,3.61-3,5.72-.44,1.64-.34,3.28-.1,4.93.34,2.32-.2,3.42.63-.13l2.57-4.41-.5.46,4.41-2.57c-3.76,1.54-7.3,1.81-9.94,5.4-1.77,2.41-2.41,5.21-2.03,8.16.17,1.37.45,2.17.98,3.43.96,2.31.45,2.98.46-.16l1.37-5.05c-.67,1.2-2.79,4.21-3.96,5.93-2.62,3.83-2.72,7.35-2.15,11.77.29,2.23.48,3.92,1.65,5.91.72,1.22,2.36,2.4,3,3.68-1.88-3.73-1,.62-.72,1.5.3.95,2.13,4.33,2.19,4.77v-5.32c-.48,2.91-1.34,5.77-.62,8.74.68,2.8,2.29,4.96,4,7.2,3.49,4.57,8.58,7.02,13.37,10.22,1.83,1.23,3.61,2.51,5.34,3.9.49.48,1.02.91,1.59,1.3,1.81,1.56,1.5.9-.93-1.97.09-.03,1.51,3.53,1.62,3.72,3.8,6.52,10.09,6.13,16.55,5.01h-5.32c-1.87-1.12-2.13-1.05-.79.22.97.79,1.96,1.54,2.99,2.25.81.61,2.56,2.09,3.93,2.82,2.61,1.39,5.61,1.75,8.48,1.04,1.13-.38,2.23-.82,3.3-1.33,1.73-.79,1.28-.77-1.38.05l-5.05-1.37.74.56-3.59-3.59c1.77,2.63,3.28,5.3,6.12,6.97,3.27,1.92,7.45.86,9.85,1.01l-5.05-1.37c-1.54-.95.49.95.79,1.24,1.35,1.31,3.38,2.52,5.19,3.04,1.44.41,3.05.35,4.48.52.93.15,1.86.28,2.8.4,2.65.55,1.92-.16-2.17-2.15.57,3.61,7.22,6.24,10.12,6.3,3.48.08,6.11-1.61,9.1-3.04l-5.05,1.37c1.02-.1,5.37,1.51,7.49.81,1.44-.48-1.82-1.17.3.09,1.3.78,2.9,1.13,4.3,1.71l-4.41-2.57c3.84,3.1,6.71,5.11,11.81,5.38,2.16.11,4.48.11,6.56-.52,1.21-.35,2.32-.89,3.33-1.61,2.57-1.88,2.71-2.07.41-.57h-5.32l.87.34-4.41-2.57c2.44,2.05,4.6,4.26,7.8,5.13,2.9.79,6.34.68,9.34.69,3.36.01,6.18-.35,9.03-2.21,2.74-1.74,2.72-2.05-.06-.91-2.96.6-2.77.94.58,1.01,1.45.12,3,.2,4.46.26,5.64.21,12.01-.13,17.38-1.92,1.55-.52,3.01-1.25,4.42-2.04,1.17-.72,1.33-.83.47-.34-1.33.65-.62.63,2.13-.07,3.24-.66,5.55-2.9,7.58-4.11l-5.05,1.37c-1.85.06.94.51,1.44.63,1.91.46,4.3.47,6.23-.06s3.78-1.74,5.17-3.07c.78-.89,1.52-1.82,2.22-2.79-4.65,1.79-5.84,2.75-3.56,2.89,3.11,1.01,7.59-1.75,10.03-3.37,1.6-1.05,2.95-2.07,4.13-3.56.2-.26,2.64-3.62,1.38-2.41l-4.41,2.57c4.69-1.67,10-.99,13.98-5.04,1.55-1.57,2.34-3.2,3.33-4.56l1.56-2.02-2.08,1.19c0,.23,3.83-1.72,4.38-2.09,10.65-7.12.65-24.45-10.09-17.27-1.93,1.29-4.9,2.43-7.03,4.8-1.6,1.78-3.5,5.04-4.6,6.23l4.41-2.57c-1.57.5-5.39.73-7.77,1.55-2.14.73-4.15,1.51-5.82,3.07-.69.65-3.27,2.94-2.97,4.06-.52.99-.23.71.87-.84-1.51.88-1.71,1.04-.6.49,1.08-.36.87-.52-.62-.48-1.08.14-2.15.29-3.23.43-1.85.46-3.28,1.19-4.72,2.39-1.04.87-6.13,5.07-1.66,2.11l5.05-1.37c1.64-.1-.93-.48-1.43-.6-1.16-.28-2.4-.35-3.59-.32-2.21.06-4.18.79-6.02,1.95-.55.34-4.43,3.82-1.78,1.85s-1.82-.34-3,.01c-1.46.44-2.59,1.18-3.92,1.76-.77.34-2.93,1.06-4.79,1.3-5.04.64-9.87-.47-14.83-.3-2.04.07-4.14.65-5.93,1.64-1.12.62-4.79,3.79-1.41,1.47,2.27-1.55.44-.65-1.49-.72-.56-.02-3.32-.51-2.66-.27,1.47.86,2.94,1.71,4.41,2.57-3.64-3.02-6.7-5.87-11.79-5.33-2.05.22-3.83.89-5.57,2.02-2.93,2.07-2.68,2.11.76.13-1.61.1-2,.09-1.18-.04l4.41,2.57c-4.54-3.6-9.2-7.23-15.22-7.2-2.79.01-5.27-.77-8.07-.82-3.48-.07-6.12,1.65-9.11,3.05l5.05-1.37-.93.08,5.05,1.37c3.47,2.14.19-.65-.81-1.65-1.11-1.11-2.56-1.99-4.01-2.57-.51-.21-9.47-2.16-9.8-1.56.26-.47,4.19,3.28,1.59.21-.85-1-1.99-1.79-3.14-2.42-3.36-1.83-7.39-.83-9.85-1.01l5.05,1.37-.74-.55,3.59,3.59c-2.27-3.33-4.32-6.83-8.51-7.98-1.86-.51-4.24-.49-6.1-.02-1.13.39-2.23.83-3.31,1.34-1.74.79-1.28.77,1.38-.06l5.05,1.37c-2.4-1.39-4.37-4.14-7.08-5.79-4.15-2.55-8.14-1.55-12.63-.82h5.32l-.96-.17,4.41,2.57c1.22,2.48,1.47,2.88.75,1.21l-1.01-2.39c-.69-1.25-1.57-2.41-2.59-3.4-2.17-2.1-4.83-3.85-7.24-5.67s-5.15-3.44-7.7-5.11c-1.21-.79-2.37-1.75-3.53-2.6-.83-.55-.79-.34.11.62-.41-1.37-.75-1.76-1.03-1.16v5.32c.34-2.52.99-4.86.8-7.41-.22-2.87-1.91-4.63-2.8-7.17-.62-1.79-.4-3.66-1.37-5.54-1.06-2.06-2.66-3.57-4.07-5.37l2.57,4.41c-.18.69-.27.33-.26-1.07-.23-1.71-.24-1.77-.02-.19l-2.57,4.41c2.63-3.25,4.46-5.46,6.31-8.96,1.39-2.64,1.73-5.61,1.01-8.5-.39-1.13-.84-2.23-1.34-3.31-.8-1.75-.75-1.28.15,1.4l-2.93,7.07c-2.74,1.38-3.19,1.82-1.36,1.3.59-.1,1.15-.28,1.69-.55,2.66-.94,5.02-2.57,6.47-5.05,1.22-2.08,1.56-4.43,1.43-6.79-.07-1.27-.28-2.51-.62-3.72.83,2.12.45,3.58-1.14,4.36l-5.05,1.37c2.21-.22,4.44-.08,6.59-.71,1.43-.42,2.64-1.14,3.85-1.96.73-.55,1.44-1.12,2.13-1.71l-1.88.74c.14-.35,3.45-.43,4.1-.62,1.62-.47,3.05-1.38,4.32-2.46-.05.04,2.83-2.67,1.19-1.46s2.05-.58,2.23-.69l1.49-.22-4.21-1.3s2.73,2.15,2.85,2.22c1.57.92,2.89,1.24,4.57,1.54.22.04,4.53.31,1.86-.13s1.42,1.34,2.37,1.85c1.57.83,3.27,1.29,5.05,1.37,2.49.11,4.54-.66,6.89-1.2h-5.32l.89.14-4.41-2.57c-1.41-2.67-1.43-2.5-.05.51l.44.94c1.07,1.75,1.9,2.34,3.28,3.6,2.01,1.82,4.14,3.45,6.29,5.08.48.36,3.27,2.9,3.99,2.47-2.19,1.31-1.24-6.12-2.36-2.09-1.06,3.81.36,7.03.9,10.73v-5.32c-.68,2.51-1.92,4.9-2.62,7.43s-.09,6.77-.24,8.04l1.37-5.05c.55-.78-.69.32-.79.41-.86.78-1.61,1.94-2.27,2.87-.51.73-.9,1.77-1.55,2.38,1.47-1.38.66-1.16-.65-.5-5.18,2.6-5.42,8.14-6.08,13.1l1.37-5.05-.43.77,3.59-3.59c-3.8,2.93-8.25,3.16-12.8,6.33-1.92,1.34-3.48,2.42-5.53,3.59-1.18.67-2.41,1.44-3.39,2.39-1.21,1.17-4.5,4.09-.54,1.37l5.05-1.37c2.7.78,3.2.75,1.48-.1-1.09-.46-2.19-.92-3.28-1.38-1.87-.49-4.24-.52-6.08-.01-4.14,1.14-6.23,4.63-8.5,7.95l3.59-3.59c.2-.14-2.71.22-3.23.29-2.56.34-4.75.56-7.09,1.79-2.49,1.31-4.43,2.59-7.39,2.76-3.95.24-7.97-.77-11.9.14-3.51.81-6.6,2.7-10.26,3.08-.19.02-4.8.13-2.79.27,1,.47.81.37-.56-.31-1.11-.65-2.29-1.06-3.54-1.25-4.03-.88-6.83,1.46-10.5,1.32-2.21-.08-4.82-1.19-7.17-1.37-1.09-.08-2.27-.21-3.32-.33-2.72-.31-5.02-.8-7.73.05-1.24.32-2.35.88-3.33,1.68-2.58,1.82-2.72,2.05-.43.7h5.32c3.92,1.26.71-.04-.64-.86-1.14-.69-2.4-1.28-3.7-1.61-2.82-.7-5.8-.35-8.66-.81-5.27-.85-10.14-2.2-15.61-2.37-1.11-.04-2.77.06-3.8-.16,2.59.57.41-.46-.74-1-3.36-1.58-5.83-.85-9.33-.88-.8,0-2.78-.34-4.4-.84-3.28-1.02-6.19-.88-9.54-1.21l5.05,1.37-.55-.4,3.59,3.59c-.48-.81-.58-.96-.32-.45.51,1.03.21.32-.88-2.13-.28-.56-.49-1.1-.83-1.63-2.1-3.27-5.11-4.62-8.71-5.57-2.26-.6-5.56-.53-7.12-.75-1.14-.16-4.1-1.71-5.79-2.45s-3.07-1.21-4.84-1.45c-5.36-.71.52.41.46.71.34-1.57-5.46-3.96-6.45-4.56-1.76-1.06-3.52-3.13-6.04-4.23-1.55-.68-3.02-1.03-4.77-1.07l-1.08.09c-3.4.32-3.55.45-.45.4l4.41,2.57c1.33,2.52,1.32,2.3-.03-.65-.49-1.12-1.18-2.11-2.05-2.99-1.4-1.5-3.06-2.69-5.07-3.24-3.62-1-6.69.24-10.19.8h5.32l-.78-.17,4.41,2.57-.51-.62,2.57,4.41c-.69-2.2-.78-4.47-1.99-6.53-1.96-3.35-4.68-4.13-7.87-5.84-1.78-.96-3.33-2.5-5.23-3.38-1.49-.69-3.11-1.11-4.76-1.15-.51-.01-3.37-.29-1.74.25l4.41,2.57-.58-.74,2.57,4.41c-1.23-3.45-2.05-6.78-5.18-9.12s-6.47-2.36-10.13-2.84l5.05,1.37-.85-.39c-4.91-2.24-10.76-1.4-13.68,3.59-2.51,4.3-1.35,11.43,3.59,13.68h0Z"/>
</svg>