<?xml version="1.0" encoding="UTF-8"?>
<svg id="_レイヤー_2" data-name="レイヤー 2" xmlns="http://www.w3.org/2000/svg" viewBox="0 0 1000 1000">
  <g>
    <path d="M566.01,392.92c-1.71,1.31-3.03,2.33-4.31,4.14-.29.42-2.07,2.22-.83,1.15l4.41-2.57c-3.49.94-9.39,1.09-11.54,6.16-.97,1.46-.7,1.54.82.26-1.5.89-2.7,2.08-3.59,3.59-1.31,2.1-1.73,4.28-1.9,6.71-.3,4.51,3.35,8.33,7.34,9.64.43.13.85.29,1.25.48l-5.98-4.6c-.52-.68-.48-1.29-.02,0s.81,2.55,1.47,3.7c1.4,2.46,3.86,4.53,6.64,5.29,5.79,1.59,9.41-2.11,13.52-5.33l-4.41,2.57c-1.41-.16-.7-.31,2.13-.44.9-.2,1.79-.41,2.68-.64.89-.21,1.75-.48,2.6-.83-2.38-.51-2.67-.52-.89-.04,4.64.89,8.16-.21,11.79-1.94s6.95-4.49,9.28-7.64c1.45-1.97,2.85-3.97,3.61-6.33.52-1.62.3-4.15.44-5.04.84-5.33-1.37-10.76-6.98-12.3s-10.64,1.82-12.3,6.98c-.18.57-.47,2.2-.48,2.27l-.86,1.33,3.79-1.59c.54-.93-6.6,1.77-6.11,1.54-.64.3-1.18.61-1.81.9-2.48,1.13-4.99,2.2-7.32,3.56s-3.21,3.05-5.04,4.7l4.41-2.57-.73.28h5.32c.38.48.27.5-.34.07-.95-.5-1.94-.93-2.95-1.3-1.73-.82-.64-.74-.45-.32l1.37,5.05c-3.1,3.7-3.76,4.95-1.96,3.76.49-.28.97-.6,1.42-.95,1.31-.92,2.32-1.96,3.42-3.1,1.34-1.4,3.24-3.32,5.22-3.85-2.43.66,1.17.44,1.82.33,1.4-.22,2.66-.75,4.02-1.03.61-.12,2.51-.05,2.92-.27-1.7.91-4.63-3.28-3.94-5.04l2.57-4.41c.4-.37-1.3.31-1.25.35l1.13-.56-2.66.36c-1.55.2-3.03.36-4.65.46-2.56.17-4.7.45-7.14,1.23-2.77.89.86.49-.69-.04-.81-.28-2.46,0-3.32-.08,2.36,5.69,4.71,11.38,7.07,17.07-.4.36,2.1-1.14,2.72-1.53.84-.52,1.62-1.09,2.51-1.54-2.01,1.02,1.41-.13,2.54-.4,1.77-.43,3.6-1.06,5.32-1.67,1.15-.41,2.28-.9,3.31-1.53.5-.37.99-.75,1.48-1.13,1.54-1.12,1.33-1.06-.62.17h-5.32c2.03.46,3.87,1.39,5.81,2.13-1.47-5.57-2.94-11.14-4.41-16.71-1.22,1.18-3.92,2.34-4.74,3.83,1.86-.21,2.21-.31,1.07-.31-1.09-.06-2.17.05-3.25.34-1.25.24-2.45.69-3.7.9-3.59.61-10.69,1.07-12.98.82,1.68,6.21,3.36,12.42,5.05,18.63-1.39.73,1.78-.36,1.88-.39,1.09-.31,2.13-.63,3.17-1.12,1.55-.73,2.72-1.43,4.02-2.68l.72-.88c2.01-2.46,2.1-2.68.28-.68l-5.05,1.37c2.9-.31,5.42.47,8.37-.33.63-.13,1.24-.36,1.81-.67,3.03-1.02,1.5-1.55-4.58-1.6.3,1.12,2.74,2.2,3.74,2.7-.67-5.24-1.35-10.47-2.02-15.71-1.73,1.38-2.73,3.38-4.04,5.11l3.59-3.59c2.3-.46,2.51-.61.61-.46-1.29.13-2.57.32-3.84.58-1.7.34-3.39.78-5.07,1-4.73.64-8.81,2.24-13.35,3.4h5.32c.32.65-.01.58-1.01-.21-1.11-.64-2.29-1.06-3.54-1.26v19.29c3.4-.91,6-.72,8.76-3.36.82-.78,1.64-1.71,2.23-2.68.38-.7.72-1.43,1-2.18.8-1.78.65-1.6-.45.53l-4.41,2.57.91-.14h-5.32c2.79.56,5.32,1.38,8.2.84,1.72-.32,3.18-.86,4.65-1.82,5.99-3.93.02-.83-.08-.95,1.68,1.96,8.27-1.82,9.44-2.91,1.95-1.81,2.69-3.9,4.04-6.08l-3.59,3.59c-.85.64,1.64-.15.84-.19l-5.05-1.37c5.04,2.19,9.44,4.35,14.74,1.33,1.15-.65,2.22-2.15,3.47-2.56l-2.16,1.43,1.47-.18c2.51.11,5.34-1.73,6.91-2.45,2.93-1.33,6.59-2.23,10.24-2.4,2.21-.1,4.44-.52,6.64-.74,2.34-.23,4.36.19,6.7.17.73,0,2.31.04,2.95-.29-.56.29-2.82-1.53-.87-.01,2.23,1.74,5.45,2.29,8.17,1.98,1.57-.17,7.22-1.68,7.5-3.61l-2.96,1.44,1.48.12c.52.18,1.22.02,1.77.07,1.63.15,3.24.42,4.87.53.33.02,3.46.12,1.52-.13-1.84-.24,1.25.66,1.58.79,1.56.62,3.24,1.14,4.95,1.14,2.79,0,4.78-1.28,7.3-2.12.13-.04,4.27-1.13,4.42-1.15h-5.32c2.4.59,4.48,1.53,7.02,1.65,1.29.06,4.34.3,1.56-.47,2.01.55,3.82,1.85,5.98,2.28s4.23.82,6.33.78c8.8-.15-4.83-4.23,1.21-.22,1.69,1.12,3.4,1.85,5.4,2.12,2.46.34,4.96-.15,7.14-1.37.97-.67,1.92-1.38,2.83-2.14,1.45-1.2,1.06-1.11-1.17.28l-7.71-1.01c-1.76-2.06-2.07-2.37-.93-.92.63.99,1.38,1.89,2.23,2.69,1.4,1.31,3.28,2.38,5.12,2.89,3.58.99,7.24-.49,10.89-.2-.89-6.55-1.77-13.1-2.66-19.64-1.21.1-2.35.48-3.4,1.16-1.05.62-1.19.67-.42.13h5.32c4.3,1.55.23-.56-.97-1.26-1.61-.94-4.06-1.67-5.91-1.67-1.65,0-3.31.64-4.92.81-.4.35-.77.36-1.08.04-1.98-.23-1.97-.05.02.55,2.21,1.04,2.04.72-.53-.97l-.86-.63c-1.67-.93-4-1.65-5.93-1.65s-4.24.67-5.94,1.61l-.91.63c-2.61,1.84-2.72,2.06-.33.66h5.32c-3.72-.65-7.04-1.8-10.85-.65-1.05.31-2.03.76-2.94,1.34-.98.53-.71.5.81-.08-1.76-.2-1.95-.12-.58.23,1.2.49,1.19.36-.03-.4-5.74-4.72-12.94-.22-18.22,1.2h5.32c2.26,1.39,2.68,1.49,1.25.3-.91-.74-1.85-1.45-2.81-2.13-2.17-1.21-4.68-1.73-7.13-1.37-4.17.61-6.29,3.24-9.15,5.89l4.41-2.57c-1.29.54-7.05-.05-9.1-.36-2.51-.38-4.86-.15-7.16.97-1.37.67-2.38,1.5-3.62,2.39-.52.37-1.96,1.01-.79.51l5.05-1.37c4.73.4.21-.6-1.19-.98-1.55-.43-3.32-.47-4.9-.24-2.98.43-5.91,2.81-7.77,3.65l5.05-1.37c6.12.41-3.28-1.32-3.93-1.34-1.77-.07-3.32.28-4.98.87-3.34,1.19-6.45,3.81-9.01,5.22l5.05-1.37-.94-.06,5.05,1.37c-2.3-1-4.37-2.22-6.86-2.66-3.23-.57-5.79.44-8.72,1.63-2.35.95-4.61,1.93-6.81,3.21-1.08.63-2.04,1.29-3.03,2.08-1.95,1.56,1.2.03-.53.19-.85.08-1.97.72-2.77,1.03-.46.17-.92.35-1.37.55-1.69.56-.86.88,2.49.96-.91-1.86-6.92-1.79-8.4-1.54-3.19.54-6.12,2.36-7.83,5.18-.59.97-1.02,2.03-1.42,3.08-1.05,2.76-1.19.82.63-.63-4.23,3.36-3.51,10.63,0,14.14,4.18,4.18,9.9,3.37,14.14,0,1.47-1.17,2.26-2.68,3-4.33.3-.68.58-1.37.85-2.07.67-1.78.35-1.27-.97,1.51l-7.07,2.93c-2.28-.7-2.51-.7-.69,0,.74.34,1.5.64,2.28.88,1.6.42,3.31.42,4.93.16,2.81-.45,5.55-1.84,8.21-2.85,3.12-1.18,4.97-2.62,7.74-4.33-.62.38,2.62-1.2,2.57-1.17,1.77-.89,4.31-.64,1.44-.8l-5.05-1.37c3.01,1.29,5.72,2.92,9.13,2.9,2.13-.01,4.25-.81,6.06-1.92-.69.42,5.21-3.89,1.87-1.88l2.39-1.01c-5.16-.91-5.84-.7-2.02.62,1.48.5,2.99.85,4.57.81,3.71-.09,6.75-2.8,9.1-3.83l-5.05,1.37c-4.68-.34-.27.57,1.19.97,1.8.5,4.43.57,6.23.08,3.09-.85,5.23-3.03,7.62-4.97l-4.41,2.57c-.95.39-3.27-.31-.99.41,1.45.46,3.04.39,4.53.37,2.22-.03,4.45-.16,6.67-.2,5.51-.1,8.16-2.61,11.96-6.11l-4.41,2.57.72-.29h-5.32c-2.26-1.41-2.68-1.51-1.25-.31.91.74,1.85,1.45,2.81,2.13,2.24,1.25,4.62,1.65,7.14,1.38,3.29-.35,7.77-2.62,10.04-3.16h-5.32c-1.95-.46,3.96,2.13,3.62,2.02,1.64.5,3.34.52,5.03.59,1.91.08,3.7.16,5.6-.28,1.5-.35,3.71-1.75,4.42-1.94h-5.32c3.28.54,6.36,1.82,9.74.95,1.1-.28,2.31-.7,3.29-1.27.66-.45,1.3-.92,1.92-1.42,1.56-1.12,1.33-1.07-.69.14h-5.32c-4.3-1.38-.35.5,1.08,1.29,2.15,1.2,4.25,1.53,6.66,1.69,3.87.25,7.12-.61,10.88-1.13h-5.32c-4.27-1.48-.27.52.97,1.25,1.37.8,3.02,1.3,4.58,1.5s3.4.1,5-.34l2.39-1.01c1.05-.63,1.19-.67.42-.12,4.85-.72,7.82-6.58,7.16-10.97-.77-5.14-4.73-8.27-9.82-8.67-2.96-.23-5.34.24-8.23.56l5.05,1.37c1.76,2.06,2.07,2.36.93.92-.63-.99-1.38-1.89-2.23-2.69-1.8-1.68-4.01-2.74-6.45-3.07s-4.95.15-7.14,1.36c-.98.67-1.92,1.38-2.83,2.14-1.44,1.2-1.06,1.11,1.17-.28h5.32c5.69,2.12-2.7-2.07-3.31-2.27-2.81-.92-4.83-.43-7.67-.21,2.49-.19-2.33-.47-1.83-.3-2.02-.69-3.65-1.91-5.85-2.24-1.55-.23-3.11.17-4.6-.03-2.97-.41-4.97-1.62-8.22-.93s-6.48,2.42-9.06,2.91h5.32c-1.17-.29-4.75-1.75-7.02-1.96-2.46-.23-4.92-.34-7.38-.59s-4.86-.52-7.24-.21c-1.61.21-3.16.65-4.6,1.44l-.88.59c-2.63,1.88-2.71,2.06-.24.55h5.32c1.44.37-.38-.51-.76-.75-1.15-.73-2.42-1.2-3.73-1.51-2.59-.61-4.87.13-7.42.09-5.36-.08-10.66.39-16.03.39-4.94,0-10.47,2.08-14.95,4.14-1.21.56-3.15,1.91-.66,1.02-1.4.5-3.38.21-4.88.53-2.59.56-5.55,2.84-7.03,3.57l5.05-1.37-.94-.06,5.05,1.37c-5.32-2.35-8.98-3.51-14.74-1.85-2.4.69-4.66,1.64-6.46,3.44-.94.94-1.66,2.16-2.28,3.32-.45.84-1.35,1.65-.2.74l7.07-2.93c-2.49.3-4.85-.35-7.39.34-2.25.61-4.97,3.3-5.93,3.95l5.05-1.37c1.63-.2-.91-.18-1.56-.31-2.58-.51-5.02-.34-7.43.64-1.93.79-3.42,2.08-4.67,3.71-.55.58-.98,1.24-1.28,1.98-1.36,2.94-1.37,3.17-.04.7l4.41-2.57c-1.44.35-2.9.4-4.34.79-9.21,2.48-9.85,17.17,0,19.29,3.29.71,7.08,2.47,11.41,1.07,2.02-.65,3.99-1.62,6.08-2.05,1.72-.36,3.63-.45,5.43-.76,3.58-.62,6.26-.74,9.65-1.64,2.13-.57,4.17-1.67,5.75-3.25.73-.93,1.45-1.87,2.17-2.82.61-1.11.71-1.2.31-.27,4.87-3.9,3.33-13.05-2.02-15.71.55.71.38.6-.51-.32-.94-.75-1.9-1.48-2.87-2.19-1.72-.96-3.98-1.63-5.96-1.67-2.25-.04-4.32.68-6.36,1.52-1.62.68-1.59.67.1-.01-.87-.13-1.74-.23-2.62-.29-2.15-.02-4.37.47-6.27,1.49-.76.41-5.51,3.55-5.19,4.88-.19-.81,5.58-2.64.57-1.26-1.9.53-3.7,1.18-5.45,2.11-3.89,2.05-5.73,7.17-4.6,11.29,1.25,4.54,5.21,6.87,9.64,7.34,3.63.39,5.6-.44,8.86-.59,3.66-.17,7.13-.62,10.74-1.25,2.32-.4,6.14-.63,9.35-2.65,2.98-1.86,6.15-4.4,8.78-6.95,5.81-5.63,2.34-14.16-4.41-16.71-3.23-1.22-6.98-3.08-11.12-2.13-1.95.45-3.75,1.28-5.24,2.62-1.54,1.06-1.33,1.08.62.04-.96.14-1.88.43-2.75.86-6.86,1.96-13.27,4.32-18.71,9.26-7.05,6.39-.85,16.22,7.07,17.07,1.71.18,3.52.2,5.24.07.22-.02,9.01-1.61,5.27-1.19,3.1-.35,6.47-.48,9.44-.81,9.25-1.04,17.55-7.25,15.77-17.44-1.62-9.23-9.82-13.5-18.6-12.71-8.02.73-15.88,2.38-22.23,7.66-1.25,1.04-2.31,2.31-3.51,3.35-.69.59-2.97,2.07-3.85,2.87-3.27,2.96-4.78,6.59-4.44,11.02.69,9.02,10.36,15.3,18.4,15.96,4.25.35,8.83-1.46,11.13-5.28-2.46,1.26-2.22,1.23.71-.1l1.24-.76c1.42-.67,3.76-2.49,5.3-2.55-2.87.85-2.65.96.67.34,1.21-.19,2.34-.6,3.41-1.23,1.53-.83,2.71-1.96,3.83-3.25,3.11-3.58,4.41-7.33,5.83-11.73l-19.29-5.32c-.26,1.65-.12,3.66-.49,5.22.51-2.19-.15-.28-.48-.03.17-.13-1.72,1.19-2.07,1.39,1.13-.64-3.85,1.03-1.73.59h5.32c-2.13-.38-4.18-1.1-6.37-1.07-2.52.04-4.65,1.1-7.02,1.75-1.59.44-3.2.58-4.81,1.07-1.8.55-3.45,1.57-4.79,2.87-1.52,1.47-1.83.48,1-.11l7.71,1.01-.48-.33,3.59,3.59c.67,1.37.17.02-.06-.71-.37-1.18-.92-2.33-1.58-3.36-1.72-2.69-4.25-4.1-7.23-5.08,2.45,3.21,4.89,6.43,7.34,9.64l.05-.7-1.37,5.05.48-.96-3.59,3.59c2.5-1.82,4.1-4.64,5.56-6.26l-4.41,2.57c1.71-.57,5.71-.73,8.19-2.5,2.21-1.58,3.42-3.83,4.97-5.98l-3.59,3.59.72-.56c4.28-3.28,6.56-8.6,3.59-13.68-2.46-4.21-9.37-6.9-13.68-3.59h0Z"/>
    <path d="M562,397.46c-.83.23-6.06,1.8-1.88.96l-2.66.36c-1.39.2-1.72.26-1,.16,2.36,5.69,4.71,11.38,7.07,17.07-.94,1.21-.04.17,1.04-.43,1.21-.67,2.51-1.51,3.48-2.48l1.56-2.02c1.09-1.49.89-1.5-.58-.02.78-.4,1.24-.7,2.08-.94l-7.71-18.28c1.75-.9-1.24.12-1.56.18-.09.01-2.34.24-1.62.16-1.62.17-3.23.07-4.84.57-1.4.44-5.85,1.48-1.31,1.1,1.68,6.21,3.36,12.42,5.05,18.63.83-.52,1.61-1.1,2.42-1.65.33-.25.67-.49,1.03-.71.78-.53.69-.43-.29.28,2.4-.22,4.73-.11,7.13-.02-1.68-6.21-3.36-12.42-5.05-18.63-1.51.94-3.37,1.71-4.78,2.76-2.14.79-1.96,1,.55.62-1.36-.2-2.72-.37-4.08-.52,1.68,6.21,3.36,12.42,5.05,18.63,1.85-.79,6.25-1.39,8.79-3.16s3.46-4.16,5.1-6.58l-3.59,3.59c.65-.49,5.68-2.4,7.76-3.12-2.02.71,3.76,1.04,1.15-.07-1.28-.13-1.23,0,.16.37.77.26,1.56.42,2.37.47,3.15.4,6.27-.46,9.24-1.51,1.93-.69,3.71-1.64,5.21-3.07,1.16-1.11,4.53-3.81.87-1.59l-5.05,1.37.95.06-5.05-1.37c3.02,1.35,5.7,3.07,9.19,2.99s8.4-1.53,11.24-3.72c.67-.43,1.26-.96,1.77-1.59,1.12-1.16.95-1.25-.51-.27-2.08.91-1.6,1.01,1.42.29.75-.09,1.5-.2,2.25-.34,2.89-.46,6.07-1.91,8.05-2.56h-5.32c-1.17-.2.54.41,1.03.67,1.24.65,2.47,1.16,3.82,1.46,3.01.68,6.81.34,9.83-.22,2.25-.41,4.45-1.11,6.68-1.56,1-.26.99-.33-.04-.22l2.66.36c1.04.07,2.89.45,3.78-.12.97.04,1-.13.11-.49-1.01-.57-.84-.54.49.1,1.21.41,2.27.95,3.52,1.24,2.86.65,5.82.04,8.69-.3,2.6-.31,4.96-.1,7.55-.2s4.79-1.32,7.32-1.69h-5.32l.88.32-4.41-2.57c3.99,3.09,8.3,6.14,13.51,6.7,1.5.16,3.79.25,5.15-.32s1.26-.74-.27-.75c3.33,0,5.85,1.95,9.4.79,1.76-.57.91-.11-.23-.47.48.15,2.62.9,2.76.96,1.29.55,3.81,1.96,5.79,2.48,1.85.48,2.74,1.06,4.6,1.99,3.18,1.59,6.32,1.2,9.71,1.52,5.38.51,10-4.96,10-10,0-5.84-4.6-9.48-10-10-1.58-.15-3.09-.03-4.66-.16l5.05,1.37c-1.43-.66-2.65-1.6-4.06-2.29-2.25-1.11-4.51-1.2-6.79-2.06-1.5-.56-5.82-2.91-8.54-3.5-2.94-.64-4.9.4-7.71.47,2.89-.07-.2-.48-1.47-.74-.46-.09-8.16-.12-7.68.62,3.24.88,3.26.72.06-.46-.8-.19-1.58-.44-2.34-.76l4.41,2.57c-4.1-3.21-7.53-6.17-13.14-4.98-1.03.22-3.01.83-3.51.9-2.34.31-4.8.07-7.19.36-.62.09-1.25.15-1.88.17-3.47.11-3.54.46-.22,1.05-1.17-.51-2.34-1-3.52-1.49-1.25-.25-2.52-.44-3.79-.57-1.64-.04-3.25.49-4.9.44-2.81-.09-4.73-.6-7.58.06-1.75.41-3.43.93-5.21,1.24-1.55.27-4.78-.17-1.69,1.21-1.83-.82-3.25-1.95-5.31-2.4-3.39-.75-5.75.14-8.8,1.37-2.59,1.04-6.53.93-9.83,1.92-2.13.64-4.66,1.99-6,3.81-1.15,1.28-.94,1.26.64-.03-1.53.39-1.93.5-1.19.33l5.05,1.37c-5.11-2.31-9.71-4.41-15.04-1.12-1.35.83-2.65,2.06-3.51,3.42-1.81,2.86,3.84-1.66.14-.41.85-.29,2.9.6.82-.2-1.3-.5-2.8-.62-4.17-.61-5.11.04-9.37,2.18-14.02,3.73-2.65.89-5.18,1.63-7.23,3.68-.79.79-1.46,1.83-2.07,2.77s-1.64,1.92-.45,1l4.41-2.57c-3.59.98-6.7,1.91-10.16,3.39-3.99,1.71-5.66,7.42-4.6,11.29,1.25,4.57,5.21,6.84,9.64,7.34,3.84.44,6.84.37,10.66-1.37,2.7-1.23,5.23-2.67,7.75-4.22,8.56-5.28,4.87-18.27-5.05-18.63-3.77-.14-7.75-.34-11.48.41s-5.9,2.57-8.9,4.42c-7.88,4.87-5.34,19.52,5.05,18.63,2.63-.22,4.57-.68,6.95-1.83,1.66-.77,1.39-.72-.79.16,1.3.24,2.59.16,3.88-.23,3.25-.58,6.42-1.32,9.38-2.85,10.15-5.23,3.1-21.35-7.71-18.28-6.14,1.74-10.12,4.83-13.45,10.15l3.59-3.59c-2.18,1.69-4.74,2.15-6.55,4.47-2.53,3.24-3.84,6.88-2.07,10.92,1.45,3.31,5.21,6.59,9.14,6.15,4.24-.48,7.07-1.13,10.85-2.19,12.37-3.48,7.11-22.79-5.32-19.29h0Z"/>
  </g>
  <g>
    <path d="M419.32,418.55c2.59,2.23,4.97,4.59,7.74,6.65,1.19.89,2.36,1.4,3.62,2.13.67.34.72.33.16-.03,2.53,2.04,2.69,2.09.49.16v-10.09l-.28.58,5.98-4.6c-.6.23-5.27.4-6.67,2.16-.62.77,4.32.53,1.15-.52-1.33-.44-2.79-.7-4.13-1.12-.83-.25-1.62-.45-2.41-.74-.94-.33-3.98-2.4-2.47-1.01-1.54-1.42-2.1-2.59-3.96-3.86-.25-.17-2.51-1.54-2.03-1.09l2.57,4.41-.03,2.25.36-2.66c.08-1.43-.07-2.77-.33-4.21-.33-1.85-.72-3.67-1.04-5.54-1.94-11.17-19.95-8.47-19.64,2.66-.05-1.86-.58,2.13-.68,2.69-.52,2.88-.37,5.95,1.15,8.54,2.36,4.04,6.27,4.91,10.25,6.56l-4.41-2.57c-.68-.56,1.13,2.16,1.33,2.46,1.04,1.52,2.34,2.99,3.69,4.25,2.07,1.93,4.38,4.33,6.85,5.67,3.07,1.66,7.12,3.02,10.61,2.87,2.43-.11,3.97-.97,6.14-1.78-4.17,1.55,2.77-.45,3.63-.78,7.25-2.81,8.63-10.55,8.88-17.2.15-4.02-1.25-7.92-4.47-10.46-3.06-2.4-6.43-2.47-10.11-2.82l5.05,1.37c1.65,1.8,1.98,1.95.97.46-.66-1.02-1.42-1.94-2.3-2.77-1.39-1.35-3.2-2.78-4.84-3.77-2-1.2-4.13-1.88-6.5-1.84-1.28.01-2.51.24-3.69.69-3.06,1.16-3.19,1.32-.39.49l5.05,1.37c-1.95-.99-3.85-2.26-5.98-2.84-1.17-.32-3.47-.78-4.66-.43-1.43.42,2.31,1.27-.45.07-5.38-2.35-12.22-1.66-15.47,3.89-2.7,4.61-1.72,9.91.9,14.31,2.93,4.91,7.29,6.91,12.32,9.03l-4.41-2.57c-.65-.69-1.53-3.22-1.07-1.08.22,1.02.86,2.26,1.4,3.19,1.66,2.82,4.68,4.73,7.85,5.23,4.61.72,8.08-1.19,12.66-1.98h-5.32c-1.83-.5,1.06.66,1.36.81,1.31.66,2.66,1.31,4.11,1.55,9.88,1.63,16.53-8.82,9.73-16.71-1.73-2.01-4.03-3.52-5.72-4.88-.73-.59-4.47-3.98-2.33-1.65-1.46-1.59-2.39-3.28-4.21-4.53-3.39-2.33-6.99-2.31-10.91-2.73-3.21-.34-6.17-1-9.42-.88-9.12.34-12.59,10.48-7.07,17.07.48.66,1.05,1.24,1.69,1.75,1.39,1.39,1.39,1.05.01-1.02-.43.2,2.01,4.96,1.85,4.71,2.65,4.35,6.39,4.72,10.71,6.18l-4.41-2.57c3.37,2.9,5.37,6.21,10.41,6.25,3.7.03,6.24-1.83,9.34-3.45l-5.05,1.37.77-.1-5.05-1.37c-1.82-1.97-2.17-2.24-1.05-.79.63.98,1.37,1.87,2.2,2.67,1.41,1.33,3.22,2.36,5.1,2.85,2.1.54,4.13.34,6.16-.28.86-.26,6.1-3.67,4.37-2.81,6.15-3.04,5.95-11.19,2.02-15.71-3.11-3.58-6.98-6.38-11.32-8.3-4.89-2.16-9.78-2.07-15-1.48-6.63.74-13.64,8.25-8.63,15.05-.53-.73-.18-.08.05.5.64,1.65,1.36,3.09,2.57,4.41,1.69,1.85,3.74,3.11,6.2,3.74,3.75.96,7.49.65,10.79,1.86.95.35,1.92.68,2.88,1.01,1.15.39,3.38,1.82.85-.33-2.83-2.41-.45.17.07.83.81,1.05,1.37,1.69,2.42,2.5,2.11,1.65,4.58,2.52,7.28,2.48,1.52-.02,2.96-.37,4.36-.91.34-.13,2.92-.86,1.58-.66,6.44-.94,9.03-9.72,5.98-14.69l-.52-.84,1.37,5.05c-.33-3.7-.9-7.17-3.65-9.92-2.54-2.54-5.87-2.65-8.94-3.93l4.41,2.57c-2.77-2.54-4.38-4.84-8.25-6.21-2.25-.79-7.15-1.93-8.13-2.26l4.41,2.57c1.44,1.31-2.51-3.6-2.26-3.33-1.84-1.93-4.06-2.78-6.46-3.78-2.08-.87-4.04-1.64-6.35-1.6-1.28.07-2.53.28-3.75.63-1.37.44-1.54.52-.53.23l5.05,1.37c-.88-.43-1.74-.91-2.57-1.43,1.12,1.82,1.24,1.98.37.5-1.3-1.72-2.31-3.25-4.2-4.46s-3.51-1.79-5.78-1.91c-1.5-.08-4.38.39-4.85.35l5.05,1.37-.75-.54,3.59,3.59c-1.79-2.44-3.15-4.96-5.86-6.59-3.15-1.89-6.53-1.54-10.01-1.9l5.05,1.37c-3.27-1.51-5.56-3.61-9.5-3.59-1.86,0-3.69.38-5.34,1.26-2.23.79-1.54.87,2.05.23-3.11-.68-3.51-.58-1.23.3l3.59,3.59c-2.57-3.48-4.29-7.25-8.9-8.52-3.77-1.04-9.21-.09-11.78-.02l5.05,1.37c1.13.49-.17-.08-.79-.54-1.23-.91-2.24-1.72-3.62-2.39-3.2-1.57-5.68-.87-9.06-.81-2.48.05-4.8-.54-7.3.03-1.15.26-2.22.61-3.3,1.15-.55.27-2.71.92-1.38.71l7.71,1.01c1.95,2.31,2.39,2.69,1.29,1.14-.68-.95-1.39-1.88-2.12-2.79-1.5-1.59-3.47-2.82-5.6-3.41-2.61-.72-4.69,0-7.2.41-1.39.13-2.77.3-4.15.51,2.64.91,3.31,1.02,2,.33-1.27-1.33-4.95-1.93-6.67-1.99-1.39.06-2.77.22-4.15.46,2.86.88,3.35.93,1.45.13-4.77-2.52-8.54-.81-13.3-.12h5.32c-3.9-.58-7.24-1.23-11.21-.62-2.17.33-6.25,1.64-7.46,1.86h5.32c-5.32-1.29-10.33-1.93-15.89-2.18.89,6.55,1.77,13.1,2.66,19.64,1.51-.36,3.71-1.61,4.51-1.79h-5.32l.87.34-4.41-2.57c3.13,2.81,6.01,5.59,10.48,5.71,3.11.09,6.96-.53,10.1-.79,7.47-.64.71-1.49.54-1.24-.28.4,5.14,2.15,5.96,2.38,1.84.52,3.58,1.12,5.54,1.16,1.5.03,4.63-1.2,4.69-1.21l-5.05-1.37c-1.13-.49.17.14.77.61,1.08.84,2.05,1.65,3.26,2.28,3.03,1.61,6.25,1.27,9.54,1.5l-5.05-1.37c-1.45-.65.64.48,1.1.88,1.93,1.65,4.02,2.8,6.57,3.13,3.96.52,6.89-1.21,10.35-2.75l-5.05,1.37c1.38-.11,2.97.23,4.26.09l1.43.45-2.77-2.23c-.2.18,2.25,3.1,2.39,3.24,1.89,1.94,4.05,3.02,6.69,3.51,1.4.26,2.39.2,3.79.08.64-.08,1.29-.17,1.93-.27.7-.21.79-.15.27.19l-5.05-1.37c3.66,1.69,7.12,2.88,10.91,4.18,2.54.87,3.81,1.89,6.58,2.04,1.27.19,2.54.11,3.8-.26,1.26-.46,1.6-.45,1,.04l-5.05-1.37.62.47-3.59-3.59c1.29,2.04,1.91,3.98,3.73,5.74,3.1,3,5.89,2.67,9.73,3.24-1.2-.18,1.31.43,1.74.58,1.72.6-1.43-1.38.3.49,1.4,1.51,7.57,5.3,9.72,3.8,1.13.08.82-.1-.92-.55-1.75-.91-1.99-.8-.71.33.94,1.2,2.79,2.11,4.13,2.73,2.39,1.11,4.76,1.43,7.09,2.71s4.02,2.77,6.12,4.2c2.57,1.75,6.5,2.2,8.2,2.73,12.31,3.86,17.58-15.44,5.32-19.29-1.21-.38-2.47-.64-3.74-.7-2.9-.13,2.38,1.88.23-.29-1.46-1.47-3.59-2.54-5.39-3.56-2.2-1.25-4.58-2.56-6.98-3.39-.93-.32-2.02-.39-2.91-.75,2.29.93.49-.23-.56-1.09-2.01-1.65-4.18-2.54-6.75-2.88-.64-.14-1.28-.2-1.93-.19-1.66-.1-.87.31,2.36,1.24-.03-.61-2.48-2.11-2.88-2.37-1.84-1.16-4.02-1.98-6.07-2.75-1.37-.51-2.36-.79-3.82-.92.17.02-3.43.02-2.24.2l4.41,2.57c1.47,1.14-.2-.76-.67-1.54-1.07-1.77-2.37-3.14-4.14-4.21-1.95-1.18-4.2-1.76-6.5-1.71l-2.66.36c-2.11.3-1.67.34,1.34.12.09-.52-7.59-2.71-8.37-3-2.2-.83-4.01-1.87-6.4-1.99-1.27-.19-2.53-.1-3.79.26-1.25.39-1.55.36-.88-.09l5.05,1.37c2.84,1.73,1.91,1.64.49-.25-.97-1.29-1.99-2.41-3.38-3.28-2.06-1.28-4.94-2.15-7.34-2.66-5.92-1.28-10.88.03-16.24,2.44l5.05-1.37-.93.08,5.05,1.37c1.16.54-.12-.1-.71-.56-1.07-.84-2.04-1.63-3.24-2.26-3.02-1.6-6.25-1.31-9.54-1.5l5.05,1.37c.64.77.52.68-.37-.28-.9-.8-1.84-1.54-2.81-2.24-1.73-1-3.91-1.69-5.89-1.73-1.27.12-2.54.28-3.8.48-1.46.34-1.61.54-.44.61,1.25.25,1.02.15-.67-.32-1.55-.17-1.94-.29-1.18-.37-1.5-.6-2.89-1.64-4.51-2.04-2.82-.69-4.88.11-7.61.5,1.46-.21-2.8.24-2.62.23-1-.05-1.99,0-2.98.12-3.14.23-3.55.39-1.21.48l4.41,2.57c-2.41-2.17-4.56-4.44-7.82-5.34-3.88-1.07-6.95,1.1-9.83,1.79-11.3,2.71-8.32,19.15,2.66,19.64,1.47.07,2.94.14,4.4.22-.09,0,4.38.32,2.31-.13,2.66.57,3.63,1.72,6.52,1.72,2.29,0,4.12-.67,6.16-1.57l1.12-.48c-2.18.75-1.74.8,1.34.17-2.19.16,1.41.17,2.07.27,3.75.61,6.31-.66,9.82-1.15h-5.32c-.7-.16.64.12.88.25,1.67.86,3.02,1.25,4.82,1.45,1.42.16,2.73.2,4.15-.11,3.1-.67-2.57-1.59-.16-.02,4.78,3.12,10.2.74,15.18.2l-5.05-1.37c-2.21-.95-2.37-2.82-1.01-.77.71,1.07,1.49,2.11,2.42,2.99,2.75,2.59,6.65,3.69,10.34,2.84,1.15-.27,2.22-.62,3.3-1.16.5-.22.97-.48,1.43-.79.76-.45.64-.41-.38.13-1.33.5-1.12.67.63.5l1.48.13,1.51-.07c3.14-.31,3.55-.42,1.24-.35l-4.41-2.57c3.19,2.62,5.81,5.27,10.28,5.36,3.9.08,5.28-.72,9.12-.34l-5.05-1.37.67.4-3.59-3.59c2.8,3.74,4.54,7.54,9.63,8.63,2.05.44,4.7.76,6.8.75,1.21,0,2.49-.24,3.63-.58,1.59-.47,4.96-.89.85-.77l-5.05-1.37c1.81.8,3.29,2.06,5.19,2.74,2.8,1.01,5.54.79,8.44,1.14l-5.05-1.37.76.52-3.59-3.59c1.88,2.54,3.4,5.22,6.23,6.86,3.3,1.92,7.45.8,9.9,1.01l-5.05-1.37.74.55-3.59-3.59c2.52,3.62,4.62,6.24,8.68,8.29,2.35,1.19,4.57,2.19,7.28,2.14,1.28-.07,2.53-.28,3.76-.64,1.37-.46,1.54-.53.52-.2l-5.05-1.37c1.25.54,2.5,1.07,3.76,1.59-2.01-2.39-2.51-2.73-1.5-1,.79,1.96,3,4.03,4.8,5.09,2.44,1.43,4.7,1.18,7.31,1.86-.59-.15,3.2,1.4,3.9,1.69l-4.41-2.57c1.5,1.31,2.5,2.95,4.16,4.13s4.74,1.78,5.54,2.14l-3.59-3.59.53.82-1.37-5.05c.27,2.86.53,5.41,2.07,7.92l5.98-14.69c-1.92.28-3.51,1.23-5.16,2.17l5.05-1.37-1.02.09,5.05,1.37c1.66,1.85,2.12,2.24,1.37,1.18-.56-.87-1.17-1.69-1.86-2.47-.79-.86-1.64-1.68-2.65-2.3-2.46-1.5-5.45-2.15-8.15-3.1s-5.06-1.49-8.04-1.92c-.89-.13-4.45-.53-5.33-.82l4.41,2.57-.65-.79,2.57,4.41c-.42-1.91-.87-3.66-2.06-5.28-2.88,5.02-5.76,10.03-8.63,15.05,1.22-.14,2.26-.08,3.48-.13,1-.03,1.99-.12,2.97-.29,1.79-.19,1.77-.24-.04-.14,2.45,1.09,4.04,2.51,5.76,4.49.67-5.24,1.35-10.47,2.02-15.71-1.67.83-2.83,1.99-4.01,3.37l4.41-2.57-.84.28h5.32l-.68-.27,4.41,2.57c.5.82.4.7-.3-.34-.67-.96-1.4-1.87-2.2-2.73-1.77-1.68-3.99-2.82-6.41-3.12-4.32-.53-7.07,1.67-10.69,3.36l5.05-1.37h-.74c1.68.46,3.36.92,5.05,1.38.02.02-2.65-2.91-3.34-3.32-1.12-.54-2.27-1-3.45-1.37-1.15-.49-1.49-.45-1.01.13l3.59,3.59c.78,1.02.08.11-.25-.77-.47-1.25-.91-2.51-1.61-3.66-1.33-2.17-3.49-3.49-5.09-5.41-2.36,5.69-4.71,11.38-7.07,17.07,3.56-.13,8.13.36,11.62,1.11l-4.41-2.57c1.01.8,3.76,3.93,5.53,5.4,1.9,1.57,4.12,3.02,5.72,4.88,3.24-5.57,6.49-11.14,9.73-16.71,1,.66.89.63-.34-.1-.63-.39-1.28-.73-1.95-1.04-1.84-.89-3.74-1.58-5.83-1.58-2.52,0-7.5,1.81-8.67,1.8l7.07,2.93c1.32,2.57,1.65,2.97,1.02,1.2l-1.01-2.39c-.88-1.69-1.94-3.04-3.45-4.18-.97-.88-2.1-1.48-3.4-1.79-1.36-.67-1.61-.73-.74-.18,1.1,1.29-.07-1.53.12-.53v5.32l.37-.96-4.6,5.98.81-.43-7.71,1.01c1.49.23,2.82,1.09,4.44,1.46,1.33.3,2.66.42,4.01.36,1.77-.07,1.77-.11,0-.12,2.52.89,4.32,2.08,7.15,1.99,1.3,0,2.53-.23,3.71-.73,3.08-1.2,3.19-1.33.34-.38l-5.05-1.37c.46.31,1.97,1.55,1.12.72,1.41,1.39,2.15,3.35,3.8,4.62,3.11,2.38,6.49,2.3,10.17,2.77l-5.05-1.37.77.41-3.59-3.59.5.91-1.37-5.05c.21,2.09-.77,5.57-.89,8.35l1.37-5.05-.67.86,3.59-3.59c2.93-1.39-1.67.08-2.47.32l-2.39,1.01,2.96-.46c-1.71-.65-2.05-.74-1.01-.28.87.48.76.27-.33-.64-.72-.88-1.84-1.45-2.62-2.3-1.65-1.82-2.34-4.11-4.17-5.89-1.43-1.39-2.92-2.14-4.73-2.83-1.95-.74-2.24-1.98.14.6l2.57,4.41-.14-.83v5.32c.42-2.73,1.47-5.16,1.39-8-6.55.89-13.1,1.77-19.64,2.66-.14-.79.93,5.11.96,5.08-.04-3.05-.2-2.89-.48.49-.13,1.25-.03,2.49.3,3.72,1.14,4.73,4.87,6.53,7.85,9.08,1.83,1.56,3.12,3.32,5.36,4.48,1.93,1,4.51,1.97,6.54,2.71,3.87,1.42,8.24,2.66,12.37,2.94,2.35.16,5.46-.01,7.48-1.5,1.51-.92,1.09-1.01-1.27-.28,1.24-.15,2.48-.33,3.71-.51,5.65-1.56,9.68-7.28,8.05-13.19-1.25-4.54-5.13-7.66-8.29-9.45s-5.21-3.62-7.86-5.9c-4.09-3.52-10.12-4.02-14.14,0-3.6,3.6-4.11,10.6,0,14.14h0Z"/>
    <path d="M434.63,428.47c1.19-.08,2.3-.46,3.32-1.14,1.14-.67,1.32-.71.57-.12l-7.71-1.01c1.29.6,2.26,1.57,3.55,2.17,8.53,3.96,19.26-4.47,13.68-13.68-1.23-2.03-3.75-4.11-4.73-5.09l2.57,4.41c.69,2.39.41-1.33.38-2.01-.11-2.84-1.24-5.63-3.27-7.66-3.56-3.56-7.63-2.77-12.04-3.34s-8.59,3.5-9.64,7.34c-1.25,4.56.97,8.65,4.6,11.29,3.88,2.83,9.31,4.94,14.07,5.6s9.78-.77,11.8-5.79c1.7-4.21.51-10.4-4.09-12.49-2.49-1.13-4.86-1.58-7.39-2.41l4.41,2.57c1.37,1.25-.67-1.78-.99-2.27-1.06-1.66-2.53-3.1-4.25-4.06-4.48-2.51-9.03-1.06-13.34.98l5.05-1.37-1.13.14c-4.45.57-8.37,2.72-9.64,7.34-1.07,3.88.59,9.6,4.6,11.29,2.13.9,4.3,1.43,6.33,2.04l-4.41-2.57c3.87,3.14,6.76,5.66,11.7,7.14,9.2,2.75,17.46-10.11,9.73-16.71-2.77-2.37-5.09-4.33-8.54-5.71-2.49-.99-4.98-1.36-7.45-2.25l4.41,2.57c.98.97-.05-.56-.32-1.06-.62-1.16-1.54-2.23-2.49-3.13-2.45-2.33-5.74-2.89-8.79-4.01l4.41,2.57c-3.93-3.15-6.22-6.5-11.91-6.38-.82.02-5.61.46-1.56.65,2.91.14,1-.27-.29-.97-2.31-1.25-4.84-2.01-7.29-2.93l4.41,2.57c1.12.89-.64-.91-.95-1.36-1.14-1.66-2.56-3.16-4.33-4.16s-4.1-1.52-6.22-1.47c-1.34.12-2.67.33-3.99.63,1.61-.1,1.81-.24.62-.41-1.7-.49-1.13.09,1.7,1.75-.61-.83-1.24-1.64-1.9-2.43-1.28-1.33-2.66-2.29-4.34-2.99-2.01-.83-4-1-6.13-.7-.83.03-1.63.21-2.4.54-3.04,1.16-3.19,1.32-.47.49l5.05,1.37c-1.55-.86-3.85-3.09-6.27-3.75-2.14-.59-6.53-.03-7.42-.08l5.05,1.37-.67-.43,3.59,3.59c-2.33-3.13-3.79-6.37-7.68-7.96-4.77-1.95-8.66.15-12.99,2.04l5.05-1.37-.95.07,5.05,1.37c1.53.78-3.33-2.9-3.11-2.76-1.77-1.09-3.8-1.73-5.88-1.78-3.86-.08-5.43.69-9.26.24l5.05,1.37c.81.37.08.13-.43-.4-.81-.83-1.85-1.72-2.83-2.29-2.52-1.46-5.34-1.68-8.17-2.02-2.41-.29-4.64-.18-6.89.75-1.24.51-1.95,1-3.02,1.8-.49.36-.97.74-1.43,1.13-1.02.82-.5.54,1.56-.83h5.32c-1.86-.68-4.05-2.6-6.99-2.6-2.41,0-5.78,1.58-7.29,1.86h5.32l-.74-.29,4.41,2.57c-2.61-2.37-4.34-4.88-8.03-5.82-2.04-.52-4.22-.36-6.23.22.29-.08-5.46,2.5-3.69,2.05h5.32c5.3,1.65-3.07-2.16-3.61-2.33-2.03-.64-4.13-.85-6.22-.27-3.66,1.02-5.54,3.59-8.14,6.03l4.41-2.57-.75.29h5.32l-.76-.25,4.41,2.57c-2.65-2.22-4.31-4.68-7.92-5.69-3.17-.89-8-.53-11.14.48-.66.21-5.13,2.19-5.28,3.21,3.5-.95,3.98-1.35,1.44-1.22l-1.51.06c-1.45-.13-3.1-.74-4.65-.7-2.38.07-4.8.79-7.13,1.24-5.31,1.02-8.33,7.39-6.98,12.3,1.53,5.55,6.98,8,12.3,6.98,1-.18,1.99-.38,2.98-.62-1.56.48-.91.69,1.95.64,1.99.17,4.07.24,6.08.1,2.58-.18,4.65-.9,6.8-2.33,2.98-1.99,2.67-2.14-.93-.43,1.61.16,1.99.06,1.14-.31l-4.41-2.57c3.41,2.83,6.03,6.18,10.96,6.18s7.53-3.38,10.8-6.4l-4.41,2.57.75-.28h-5.32c-2.02-1.19-2.25-1.23-.69-.12.62.5,1.26.98,1.92,1.43,1.62.94,4.08,1.65,5.95,1.65,1.98,0,4.26-.66,5.96-1.6.4-.22,2.92-1.41,1.3-1.03h-5.32l.74.28-4.41-2.57c2.52,2.26,4.1,4.66,7.66,5.69,4.14,1.2,7.23-.83,10.32-1.36h-5.32c.6.21,2.82,1.87,4.33,2.25,1.99.49,4.14.42,6.09-.16s3.72-1.73,5.23-3.1c1.79-1.41,1.03-1.07-2.3,1.03,1.01.11,2.02.23,3.02.37l-5.05-1.37c-.61-.76-.46-.63.43.38.88.84,1.83,1.6,2.83,2.29,1.84,1.12,3.8,1.51,5.9,1.76,3.1.37,7.23-.2,9.26-.24l-5.05-1.37c-1.4-.69.73.85,1.09,1.18,1.86,1.7,4.07,2.85,6.58,3.18,4,.53,6.97-1.23,10.47-2.74l-5.05,1.37.95-.06-5.05-1.37.67.42-3.59-3.59c1.99,2.65,3.08,5.43,6.15,7.25,3.51,2.08,7.54,1.12,10.14,1.3l-5.05-1.37c1.96,1.05,4.51,3.45,7.6,3.93,1.72.27,3.17.26,4.94-.17l1.07-.36c3.04-1.17,3.19-1.32.46-.47l-5.05-1.37c-4.82-3.14,2.25,2.73,2.77,3.07,1.43.93,2.98,1.47,4.62,1.94,1.77.51,3.76,1.02,5.58,1.12,1.59.09,4.24-.43,5.01-.35l-5.05-1.37.74.57-3.59-3.59c1.19,1.75,2.17,3.63,3.71,5.12,2.26,2.18,4.95,2.57,7.62,3.87,1.83.89,3.25,2.27,5.3,2.87,1.32.39,2.77.49,4.12.46,1.55-.03,5.45.27,1-.61l-4.41-2.57c1.61,1.26,2.67,2.94,4.4,4.12,2.43,1.66,5.08,2.2,7.78,3.22l-4.41-2.57c-1.35-1.29,2.38,3.78,2.14,3.53,1.57,1.68,3.42,2.78,5.62,3.43,1,.29,2.04.29,3.04.57,2.41,1.44,3.03,1.56,1.84.37.51.63,1.09,1.19,1.74,1.67,3.24-5.57,6.49-11.14,9.73-16.71-1.65-.49-1.29-.63-2.87-1.99-2.84-2.44-6.08-3.17-9.74-3.43l5.05,1.37-1.27-.54c-1.68,6.21-3.36,12.42-5.05,18.63,3.12-.4,5.51-1.26,8.33-2.49l-5.05,1.37h1.1c-1.68-.46-3.36-.92-5.05-1.37l.66.47-3.59-3.59c1.36,2.11,1.93,4.18,3.8,6.03,1.35,1.33,2.92,2.26,4.72,2.85.51.17,2.75.45,2.61.39l7.71-18.28c-3.3-.46-6.6-1.62-9.29-3.58-1.68,6.21-3.36,12.42-5.05,18.63.73.1,4.08.75,2.31.06l-5.98-4.6.34.59-1.37-5.05c.14,2.47-.47,4.43.23,6.97.5,1.8,1.41,3.4,2.68,4.77,1.01,1.09,3.71,4.52,1.61,1.05,4.56-4.56,9.12-9.12,13.68-13.68-2.59-1.2-4.18-2.99-7.27-3.36-1.59-.19-3.35-.11-4.92.31l-2.39,1.01c-1.14.67-1.32.71-.57.12-5.36.73-8.28,7.59-6.98,12.3,1.59,5.78,6.93,7.72,12.3,6.98h0Z"/>
  </g>
</svg>