<?xml version="1.0" encoding="UTF-8"?>
<svg id="_レイヤー_2" data-name="レイヤー 2" xmlns="http://www.w3.org/2000/svg" viewBox="0 0 1000 1000">
  <path d="M475.75,633.87c-2.26,3.49.67.15,1.63-.81,1.29-1.29,2.66-3.45,3.14-5.2.91-3.32-.04-6.43-.55-9.69v5.32c.27-1.56.79-1.81-.81-.58,1.26-.97,2.79-1.46,4-2.59,2.34-2.18,4.17-5.41,5.72-8.17.86-1.52,2-3.91,2.78-4.81,1.07-1.23,2.86-1.99,4.04-3.16s2.17-2.49,3.38-3.63l-12.12,1.56c3.72,2.06,6.6,4.61,11.11,4.79,1.69.13,1.79.07.29-.19.52.59,1.12.87,1.82.84.46.35,2.66,2.88,2.49,2.66,1.86,2.49,3.94,6,8.17,7.23,3.64,1.05,4.88.62,8.43,2.09l-5.98-4.6c-.54-2.82-.67-3.29-.4-1.4.06,1.22.25,2.41.6,3.58.72,2.32,2.11,4.34,4.03,5.82s4.33,2.31,6.81,2.36c1.22-.15,2.44-.31,3.65-.48,1.93-.37,1.48-.52-1.34-.47l-4.41-2.57c.4.44,2.4,3.26,3.4,4.56l-2.57-4.41c.8,1.94,1.49,3.88,2.65,5.61.26.39,4.31,4.26,3.73,3.37,6.99,10.75,24.31.74,17.27-10.09-.83-1.28-1.76-2.68-3.06-3.52l-1.11-.95.28,1.43c-.97-.86-2.28-4.49-3.05-5.58-.66-.92-.35-.61-.78-1.21-2.02-2.79-3.9-5.06-7.41-6.03-1.39-.38-2.65-.42-4.02-.35l-2.66.36c-1.92.36-1.48.52,1.33.49l5.98,4.6c.42.58.58,3.84.41,1.38-.08-1.19-.26-2.42-.6-3.57-.95-3.21-3.31-5.65-6.25-7.1-1.68-.83-3.37-1.08-5.15-1.51-1.01-.24-1.83-.58-2.89-.78-.29-.05-2.93-.79-2.11-.49l4.41,2.57c.94.91-.73-1.44-.81-1.56-.66-1.01-1.49-1.83-2.29-2.7-1.97-2.12-3.83-4.05-6.33-5.61-2.63-1.65-5.43-3.06-8.53-3.49-1.51-.21-3.44-1.01-1.35.13-1.28-.7-2.38-1.73-3.67-2.45-3.99-2.21-8.83-1.55-12.12,1.56-1.13,1.07-2.01,2.44-3.09,3.5-2.03,1.98-4.41,3.07-6.13,5.41-2.24,3.05-3.9,6.39-5.85,9.6-1.06,1.74-1.04.84.23.23-.67.32-1.33.64-1.95,1.04-2.22,1.42-3.76,3.41-4.96,5.71s-2.45,4.92-2.67,7.61c-.13,1.6.08,2.95.27,4.54.07.62-.04,2.36.11,1.16l1.37-5.05c1.78-2.46.49-1.23-1.25.45-.97.94-1.77,2.04-2.51,3.18-7.02,10.83,10.29,20.87,17.27,10.09h0Z"/>
</svg>