<?xml version="1.0" encoding="UTF-8"?>
<svg id="_素材配置" data-name="素材配置" xmlns="http://www.w3.org/2000/svg" viewBox="0 0 1000 1000">
  <path d="M461.5,626.9c-.81-1.39.09,1.49.14,1.66.46,1.56,1.29,2.94,2.28,4.2,1.9,2.4,4.52,4.77,7.22,6.21,2.45,1.3,3.83,1.31,6.08,2.74,1.6,1.02,5.03,2.45,5.64,2.84.41.26,3.65,3.16,1.35.78,1,1.03,1.66,2.36,2.7,3.38,2.24,2.19,5.73,4.3,8.72,5.29,3.34,1.11,7.21,1.19,10.35-.57,1.71-.96,3.26-2.26,4.27-3.97.23-.4,1.62-4.15.95-2.74l-3.59,3.59c-1.82,1.14-3,.83.15.39,1.37-.19,2.22-.35,3.49-.88,3.13-1.31,5.23-3.66,6.52-6.76.86-2.05,1.17-2.95,2.34-4.92.46-.78.96-1.53,1.37-2.34.5-.95.9-1.94,1.18-2.97.42-1.2.11-.83-.91,1.1l-4.41,2.57c4.22-1.64,8.07-2.49,10.51-6.81,1.92-3.4,2.51-8.18,3.59-11.07l-2.57,4.41c-1.66,1.52-2.58,1.67.17.56,1.63-.66,2.69-1.15,4.06-2.45,1.94-1.84,3.54-4.07,5.17-6.18,3.3-4.28.65-11.2-3.59-13.68-5.17-3.02-10.37-.7-13.68,3.59-.22.29-1.63,1.24-1.46,1.58-.25-.52,3.7-1.6,1.04-1.05s-5.13,2.48-6.63,4.5c-1.67,2.23-2.54,5.01-2.64,7.8-.07,1.83,1.19-2.99-.31.21-.3.57-.52,1.16-.67,1.78-.4,1.21-.08.85.96-1.08l4.41-2.57c-4.92,1.95-9.08,3.1-11.29,8.51-1.32,3.23-3.34,7.65-4.96,10.64l3.59-3.59c2.5-.53,3.09-.74,1.74-.6-1.08.07-2.15.2-3.21.4-1.44.34-2.78.86-4.04,1.64-3.38,2.08-4.29,5.26-5.54,8.72l4.6-5.98-.68.38,5.05-1.37c1.55.38,1.48.17-.19-.62.98,1.38.99,1.41.03.07-1.41-1.79-2.58-2.95-4.42-4.38-2.53-1.95-5.59-3.37-7.92-4.62-.7-.38-2.53-1.84-3.65-2.46-1.48-.82-3.23-1.1-4.69-1.81,1.38,1.07,1.34.96-.13-.31l.71,1.53c-.52-1.91-.86-3.6-1.9-5.39-6.5-11.1-23.79-1.05-17.27,10.09h0Z"/>
</svg>