<?xml version="1.0" encoding="UTF-8"?>
<svg id="_レイヤー_2" data-name="レイヤー 2" xmlns="http://www.w3.org/2000/svg" viewBox="0 0 1000 1000">
  <path d="M463.99,436.13c.42.43.92.75,1.48.95,1.45.77,1.07-.02-1.14-2.38-.31.79,1.42,3.81,1.84,4.52.98,1.64,2.64,3.25,4.27,4.22.38.23,2.69,1.72,1.46.48l-2.57-4.41c.46,1.39,1.01,5.78,2.65,8.07,1,1.4,1.92,2.27,3.42,3.27.46.31,2.3,2.01,1.31.81l-2.57-4.41.11.77v-5.32c-1.01,4.37-2.48,7.87-.09,12.28,1.74,3.2,3.68,4.32,5.32,7.56l-1.37-5.05c.27,2.5-.36,4.84.27,7.38.55,2.23,1.5,3.78,1.7,6.02.26,2.75.48,5.72,1.46,8.28.58,1.51,1.39,2.86,2.49,4.05.33.36,1.94,2.49,1.24,1.07-.34-2.57-.67-5.14-1.01-7.71.64-1.07.57-1.04-.22.1-.45.52-.83,1.09-1.14,1.71-.94,1.71-1.48,3.88-1.48,5.82s.76,4.14,1.79,5.89c-.06-.1,3.67,4.53,2.98,3.14l-1.37-5.05c-.08-.79-.22-.53-.43.76-.22,1.25-.37,2.51-.44,3.77.07,2.52,1.09,4.53,1.74,6.88v-5.32c-.55,3.2-2.69,6.64-1.04,11.04.63,1.67,1.46,2.98,2.76,4.26.73.71,1.53,1.34,2.39,1.9,1.5,1.14,1.26.84-.72-.89-.34-2.57-.67-5.14-1.01-7.71.4-1.75-1.36,2.06-1.51,2.42-.75,1.78-1.08,3.5-1.03,5.46s.21,4.35.64,6.28c.32,1.46,1.89,3.29,1.77,4.6-.56-1.65-.83-1.86-.81-.63-.07.73-.13,1.47-.2,2.2-.08.52-.62,2.31-.33,1.45-.51,1.5-1.7,2.89-2.11,4.5-.61,2.42-.24,4.82-.43,7.26l1.37-5.05c2.03-1.95,1.82-1.89-.65.16-.98.73-1.78,1.64-2.39,2.73-1.27,1.99-1.87,4.04-1.9,6.42-.04,3.3.86,6.48.58,9.14.98-2.36,1.95-4.71,2.93-7.07,2.72-1.33,3.18-1.68,1.38-1.07-1.13.36-2.24.79-3.31,1.32-1.65.88-2.91,1.98-4,3.46-3.03,4.12-2.03,8.31-1.23,12.96v-5.32c-.31,1.8-.92,3.63-1.56,5.34l2.57-4.41-.57.54,4.41-2.57c-4.31,1.77-8.22,2.53-10.71,7.03-1.05,1.89-2.23,4.11-2.82,6.18-.33,1.17-.47,2.45-.5,3.66-.01.61-.34,2.42.14,1.07l2.57-4.41-.72.59,4.41-2.57c-2.51,1.02-5.06,1.65-7.16,3.47-2.33,2.02-3.43,5.32-4.48,7.09l3.59-3.59c1.18-.84-.84.23-1.39.42-1.55.53-2.92,1.25-4.17,2.3-2.33,1.96-3.17,4.43-4.9,6.78l3.59-3.59c-1.95,1.31-5.27,2.51-7.23,4.89-1.09,1.33-1.77,2.52-2.32,4.23-.12.36-1.13,3.04-.34,1.71l3.59-3.59c-.83.6-2.16.83-3.78,1.83-2.27,1.39-3.82,3.37-5.32,5.52-2.54,3.66-3.17,8.06-3.93,11.09-.97,3.86-3.93,7.09-2.74,12.18.26,1.1,1.85,5.8,3.36,6.14-1.03-3.57-1.42-4.13-1.17-1.7.2.77.21,1.53.05,2.3l1.37-5.05c-1.28,2.81-2.79,5.29-2.8,8.49-.01,2.99.84,7.29,2.38,9.91,1.39,2.38,4.6,4.24,5.82,5.12-.83-.6,1.14,1.17,1.31,1.32,2.35,2.01,2.66,2.13.93.35-1.13-1.61-1.39-1.65-.77-.11.84,5.6,6.46,9.38,10.5,12.21,2.29,1.61,4.1,3.72,6.64,5.11,1.51.83,3.04,1.59,4.72,2l2.66.36c1.89.13,1.61-.07-.84-.59l-3.59-3.59c1.95,2.54,3.43,4.7,6.14,6.53,10.69,7.23,20.71-10.09,10.09-17.27.81.55,2.04,2.39,1.04.65-.84-1.46-2.19-2.68-3.59-3.59-1.49-.97-5.44-2.87-7.45-2.14-.86-.04-.8.02.16.18.97.31,1.01.24.13-.2.1.19-1.58-1.17-1.45-1.07-2.06-1.74-3.76-3.33-6.26-4.45,1.26.57.97,1.53.57-.04-.04-.15-.93-1.43-.49-.54-1.14-2.33-1.49-4.54-3.35-6.52-1.5-1.59-2.26-2.19-3.5-3.29-.89-.78-1.81-1.52-2.81-2.15-.53-.34-1.75-1.45-.9-.43l2.57,4.41c-.35-.96-.58-1.94-.71-2.96-.72,3.61-.68,4.39.12,2.35,1.41-2.33,1.38-4.79,1.31-7.35-.06-2.12-.09-4.24-.75-6.28-.3-1.22-.85-2.31-1.64-3.26-1.89-2.64-2.07-2.71-.52-.21v5.32c-.37,1.24,2.08-4.56,1.53-3.09.46-1.25.83-2.5,1.21-3.77s.72-2.41.89-3.77c.16-.84.23-1.69.2-2.54-.36,1.59-.24,1.83.36.7,1.07-1.45.48-1.07-1.78,1.14l2.39-1.01c1.42-.71,2.62-1.38,3.81-2.57,1.4-1.4,2.48-3.41,3.08-5.26.13-.41,1.18-2.96.36-1.69l-3.59,3.59c1.61-1.06,4.66-2.1,6.44-3.88s2.52-4.02,3.89-6l-3.59,3.59c-1.28.85,1-.26,1.41-.4,1.55-.54,2.9-1.26,4.15-2.32,2.37-2.01,3.44-5.22,4.48-7.09l-3.59,3.59c-1.02.13-.89.04.4-.27,1.13-.45,2.25-.92,3.36-1.4,2.19-1.28,3.75-3.11,4.81-5.37.83-1.78,1.47-3.86,1.18-5.84-.04-1.76-.19-1.58-.46.55.87-1.27.98-1.67.31-1.2l-4.41,2.57c5.08-2.02,9.24-3.07,11.35-8.76,1.81-4.87,1.81-8.87.87-13.96v5.32l.13-.93-2.57,4.41c-.52.58-3.64,1.62-1.33,1.09,1.21-.28,2.59-.9,3.66-1.51,2.47-1.43,4.62-3.9,5.39-6.69s.05-5.06-.12-7.79c-.01-.23-.07-4.64-.07-4.59l-1.37,5.05c-2.08,3.34.03.55,1.1-.5.96-.94,1.79-2,2.43-3.18.98-1.81,1.35-3.75,1.42-5.8.05-1.58.46-3.13-.25-.91.85-2.67,2.1-4.59,2.52-7.43s.97-5.73.9-8.52c-.03-1.19-.24-2.6-.56-3.76-.39-1-.81-1.98-1.27-2.94-.45-1.01-.36-.73.27.83l-.15-1.45-.68,1.81c.75-1.03,1.25-1.83,1.75-3.01,1.38-3.32,1.35-6.95-.46-10.14-.65-1.15-1.47-2.16-2.43-3.05l-2.02-1.56c-1.49-1.14-1.25-.84.7.89.34,2.57.67,5.14,1.01,7.71.21-1.13,1.55-3.86,1.72-5.86.15-1.76.21-3.74-.57-5.4l-.58-1.39c-.13,1.81-.06,2.16.21,1.06,1.78-1.92.17-7.67-.76-9.39-.55-1.02-1.18-2.01-1.98-2.86-.18-.19-2.04-2.31-1.43-1.12.34,2.57.67,5.14,1.01,7.71-.15.95-.51.84.25-.1s1.2-1.8,1.63-2.91c1.09-2.81,1.16-5.64.11-8.48-.31-.83-2.76-5.84-4.11-5.55,1.02-.21,1.62,5.08,1.02-.14-.12-1.05-.17-2.1-.29-3.15-.14-1.2-.28-2.37-.63-3.52-.14-.48-1.39-4.03-1.19-2.53.22,1.63.38-1.86.38-1.88,0-1.18-.17-2.67-.48-3.79-1.03-3.74-4.74-7.47-6.33-9.94l1.37,5.05c.23,2.15.53-1.01.74-1.92.45-1.98.46-4.13-.11-6.08s-1.77-3.73-3.16-5.12c.2.2-4.54-3.68-3.37-2.36l2.57,4.41c-.3-1.04-.71-5.08-1.87-7.06-.64-1.1-4.45-5.78-6.15-5.15.83-.31,2.47,4.83,1.8,1.63-.32-1.51-1.35-3.17-2.32-4.39-1.94-2.45-4.49-3.22-6.85-5.02-4.3-3.27-11.19-.67-13.68,3.59-3.01,5.14-.72,10.4,3.59,13.68h0Z"/>
</svg>