<?xml version="1.0" encoding="UTF-8"?>
<svg id="_レイヤー_2" data-name="レイヤー 2" xmlns="http://www.w3.org/2000/svg" viewBox="0 0 1000 1000">
  <path d="M489.07,611.95c-2.34-.55.41.49,1.14.87,1.74.92,3.79,1.53,5.76,1.53s4.03-.59,5.77-1.5c.53-.23,1.02-.52,1.48-.87,1.05-.67.99-.66-.19.01h-5.32c.94.19,1.76.54,2.67.83.62.2,2.69,1.11.63-.06,1.7.97,3.24,2.02,5.21,2.47,5.26,1.21,10.83-1.62,12.3-6.98,1.39-5.05-1.7-11.08-6.98-12.3.76.17,1.34.74.27.01-.85-.58-1.64-.94-2.6-1.34-1.62-.66-3.43-1.22-5.11-1.7-2.27-.65-4.83-.7-7.11-.08-1.22.33-2.4,1.02-3.5,1.63-.9.5-1.81.53-.19.24h5.32c1.87.44.44.02-.43-.49-1.18-.7-2.47-1.24-3.81-1.55-5.25-1.24-10.83,1.64-12.3,6.98s1.71,11.06,6.98,12.3h0Z"/>
</svg>