<?xml version="1.0" encoding="UTF-8"?>
<svg id="_レイヤー_2" data-name="レイヤー 2" xmlns="http://www.w3.org/2000/svg" viewBox="0 0 1000 1000">
  <path d="M454.01,507.62c.93,19.83,2.85,39.57,5.61,59.23,1.37,9.7,2.97,19.37,4.81,29,1.61,8.44,2.8,17.59,9.69,23.54s17.74,9.04,26.36,9.89,17.19-2.33,23.65-8.3c13.51-12.46,13.38-32.08,14.23-49.02,1.12-22.27,2.24-44.55,3.36-66.82.65-12.86-19.36-12.83-20,0-.84,16.71-1.68,33.41-2.52,50.12-.41,8.19-.81,16.38-1.23,24.57-.33,6.52-.49,13.4-2.93,19.56-1.61,4.07-4.64,8.44-9,9.72-2.95.87-6.01.06-8.86-.79s-7.18-1.78-9.58-3.74c-1.47-1.21-1.65-3.12-2.07-4.95-.9-3.97-1.62-7.99-2.36-11.99-1.49-8.03-2.82-16.09-3.99-24.17-2.67-18.51-4.3-37.18-5.17-55.85-.6-12.81-20.61-12.89-20,0h0Z"/>
</svg>