<?xml version="1.0" encoding="UTF-8"?>
<svg id="_レイヤー_2" data-name="レイヤー 2" xmlns="http://www.w3.org/2000/svg" viewBox="0 0 1000 1000">
  <path d="M455.83,504.89c-.84,3.49-3.12,7.55-3.03,11.77.1,4.86,3.2,7.38,6.18,10.6l-2.57-4.41.29.73v-5.32c1.48-2.29,1.29-2.15-.58.42-.74,1.01-1.28,2.12-1.62,3.33-.58,1.9-.81,4.6-.93,6.6-.25,4.08,1.13,9.25,3.4,12.67,2.33,3.51,2.35,2.56.07-2.85-.55,1.2-.82,2.48-.8,3.83-.15,1.86-.13,3.76.03,5.63.38,4.52,2.33,7.3,3.45,11.31v-5.32c.3-1.48-.93,1.12-1.15,1.51-.94,1.72-1.54,3.99-1.55,5.98-.02,3.54.95,7.44,2.17,10.72.44,1.18.84,4.29,1.92,4.71.5.96.54.65.14-.93.02.75.07,1.5.17,2.24.41,4.29,2.64,6.92,3.95,9.9l-1.37-5.05c.02-.42-.66,2.8-.68,3.53-.05,1.39.16,2.73.34,4.11.39,2.98.68,5.96,1,8.94.36,3.37.72,7.27,2.43,10.29.76,1.35,1.84,2.48,3.05,3.43.56.51,1.17.93,1.85,1.25,3.04,1.4,3.18,1.36.42-.14l-2.57-4.41.11.83v-5.32c-.75,4.07-1.48,7.68.73,11.46,1.12,1.92,2.66,3.02,4.55,3.99,1.78.92,5.41,1.01,6.04,1.14l-4.41-2.57c-1.34-2.53-1.67-2.95-.98-1.26.38,1.1.85,2.15,1.42,3.15,1.46,2.34,3.84,4.31,6.52,5.05,1.85.51,4.34.52,6.19.04.72-.19,1.41-.45,2.09-.76-2.95-.06-2.75.07.6.39-3.97-3.29-5.2-3.88-3.69-1.78.66.93,1.37,1.82,2.12,2.67,1.35,1.3,3.25,2.41,5.05,2.9,5.53,1.52,9.27-1.78,13.26-4.89l-4.41,2.57.86-.29h-5.32c-.36-.1,2.46,1.31,3.14,1.5,2.33.64,4.03.42,6.36.14,3.12-.38,6.45-.87,9.34-3.42,1.27-1.12,2.05-2.7,3.29-3.81-1.54,1.38-.49.7.69.02,3.53-2.04,5.5-4.94,6.86-8.7.26-.72,1.8-7.91,1.87-7.94-1.46,2.71-1.66,3.47-.6,2.26.76-.75,1.43-1.57,2.01-2.48.62-1.01,1.19-2.21,1.73-3.27,1.51-2.94,2.78-6.12,3.46-9.37.83-3.99-.91-6.95-1.49-10.29v5.32c1.12-3.54,3.22-5.76,2.2-10.01-.34-1.41-.94-2.68-1.72-3.89l-1.56-2.02c-1.17-1.42-1.01-.96.48,1.37v5.32c.57-2.36,1.63-4.49,1.63-7s-.96-4.73-1.34-7.11v5.32l.27-.72-2.57,4.41c3.41-3.86,5.88-6.54,6.07-12.05.09-2.76.15-13.44-3.14-14.68-.58-.9-.59-.55-.05,1.04.22,1.94.37,1.99.47.16,1.27-4.09-1.59,2.51.28-.98,1.17-2.18,1.5-3.5,2.35-5.51,1.15-2.69,1.5-5.47.62-8.34-.35-1.15-.93-2.16-1.56-3.15-.56-.87-1.21-1.67-1.93-2.41-.87-.99-.63-.41.72,1.75v5.32l.27-.72-2.57,4.41c2.09-2.35,4.41-4,5.43-7.21,1.12-3.52.06-6.23-.71-9.35.77.56.67-.31-.3-2.62-.67,2.68-.63,3.37.1,2.07,1.25-.76,1.71-3.9,1.89-5.33.27-2.15-.06-4.11-.92-6.07-.24-.78-.61-1.48-1.12-2.11-1.87-2.6-2.06-2.71-.59-.33v5.32c.04-.18,1.25-2.99,1.58-4.33,3.07-12.5-16.21-17.83-19.29-5.32-.4,1.63-2.08,5.42-1.76,8.31.19,1.7.56,3.05,1.42,4.61l.62.91c1.87,2.6,2.06,2.71.59.33v-5.32s-1.49,2.39-1.75,3.22c-.73,2.26-.67,4.25-.45,6.54.3,3.05,1.23,5.78,1.67,8.74v-5.32l-.27.72,2.57-4.41c-2.6,2.92-5.29,5.06-5.88,9.25-.34,2.46.17,4.94,1.39,7.12.68.95,1.38,1.88,2.12,2.79,1.2,1.41,1.08.95-.36-1.37v-5.32c-1.24,4.25-4.15,8.92-4.29,14.94-.07,3.15.79,6.02,2.78,8.49-1.29-1.6-.24-2.98.09,1.19.04.49-.46,3.78.03,2.46l2.57-4.41c-2.11,2.38-4.37,3.97-5.41,7.21-1.21,3.79.13,6.84.72,10.49v-5.32c-.83,3.47-2.19,6.34-1.18,10.03.34,1.26.93,2.43,1.62,3.52l1.56,2.02c1.17,1.42,1.01.96-.48-1.37v-5.32c-.79,2.57-2.56,4.22-2.56,7.35,0,2.6,1.57,5.69,1.85,7.63v-5.32c-.61,2.59-1.24,4.78-2.6,6.81-1.81,2.7-4.02,4.91-4.5,8.79-.16.85-.23,1.71-.21,2.58.61-1.97.58-2.1-.08-.38-.38.77-.67,1.58-.87,2.41,2.01-2.17,2.35-2.86,1.02-2.06-1.78-.65-6.37,5.88-6.93,6.32l4.41-2.57c-1.16.46-1.51.57-1.03.32-2.62.84-3.38.85-2.28.03l5.05,1.37c-3.08-1.68-5.88-3.16-9.52-2.68-1.64.21-3.1.61-4.58,1.48l-2.02,1.56c-1.45,1.05-1.16.97.88-.25,2.57.34,5.14.67,7.71,1.01,1.95,2.15,2.4,2.47,1.36.96-.69-.92-1.39-1.82-2.12-2.71-1.82-1.76-3.95-2.72-6.39-3.23-1.89-.4-4.31-.95-6.25-.89.4-.01-6.47.91-3.98,1.04l7.07,2.93c1.23,2.48,1.6,3.08,1.11,1.81-.34-.97-.73-1.92-1.17-2.85-.66-1.22-1.48-2.35-2.48-3.33-3-2.91-6.82-3.09-10.72-3.06l5.05,1.37-.96-.41,4.6,5.98c-.09,2.74-.03,3.43.18,2.07.2-1.05.35-2.1.45-3.17,0-1.83-.55-4.28-1.48-5.87s-2.58-3.19-4.16-4.16c-.68-.42-4.6-2.36-2.71-1.31l3.59,3.59c.8,1.06-.17-.37-.17-.83,0-1.01-.08-2.01-.18-3.01-.3-2.92-.74-5.84-1.16-8.74-.48-3.34-.72,1.94.29-1.02.52-1.54.45-3.55.22-5.13-.46-3.11-2.81-5.78-3.7-7.83l1.37,5.05c-.47-4.33-.95-7.7-2.79-11.63.3.64-1.51-4.05-1.45-4.05-.14,0-1.69,2.81-.05.33,2.75-4.17,2.2-8.07.81-12.5-.5-1.6-.78-4.31-1.99-5.47-.46-.98-.4-.69.17.86.02-1-.01-2-.08-3-.07.48.97-2.65,1.02-3.48.15-2.5-.24-4.85-1.54-7.06-.46-.63-.92-1.25-1.41-1.85-1.13-1.61-1.09-1.32.14.86-.18-1.01-.46-1.99-.86-2.93,0,1.7.12,1.09.37-1.85-1.63,3.02-1.79,3.61-.47,1.74.52-.62.98-1.27,1.4-1.95,1.44-2.56,1.97-5.77,1.23-8.62-.94-3.65-3.48-5.39-5.83-7.95l2.57,4.41c.24,2,.41,2.07.51.23.26-1.75.24-1.77-.06-.08.65-1.57,1.53-2.98,1.94-4.68,3.02-12.51-16.26-17.84-19.29-5.32h0Z"/>
</svg>