<?xml version="1.0" encoding="UTF-8"?>
<svg id="_レイヤー_2" data-name="レイヤー 2" xmlns="http://www.w3.org/2000/svg" viewBox="0 0 1000 1000">
  <path d="M455.98,571.74c-.15,1.41.11,2.97.52,4.33.26.87.45,3.03.64.98l1.37-5.05-.56.73,3.59-3.59c-3.25,2.29-6.68,4.38-7.81,8.49-.49,1.77-.45,3.3-.34,5.04.47,3.15.49,3.54.09,1.18-.61,3.12-.55,3.53.16,1.22l3.59-3.59c-2.51,1.74-5.13,2.82-6.87,5.56-1.95,3.06-1.65,6.28-2.57,9.65-.62,2.27-2.62,4.56-3.02,7.43-.56,4.01,1.2,6.98,2.75,10.48l-1.37-5.05c-.15-2.29-.2-.59-.8.99-.35.92-.73,1.84-.9,2.8-.24,1.29.12,1.94.54.41-.33,1.22-1.97,2.39-2.59,3.5-2.4,4.26-1.2,8.8-1.4,13.37-.18,3.99,3.2,8.95,7.34,9.64,3.35.56,6.09.18,9.35-.46h-5.32c-.73-.64-.52-.57.63.24,1.07.69,2.21,1.23,3.43,1.62,1.99.68,3.87.93,5.94.63,2.46-.35,4.63-1.41,6.45-3.12.83-.81,1.56-1.71,2.2-2.69,1.11-1.42.77-1.11-1.03.92l-5.05,1.37c2.68-.36,5.46-.32,8.06-1.1,1.36-.41,5.38-1.24,1.11-1.29s.14,1.07,1.45,1.43c2.85.79,6.09.42,8.68-.95,1.2-.64,2.24-1.45,3.26-2.37.34-.3,1.88-1.39.74-.79l-5.05,1.37c3.35-.32,6.72.11,9.8-1.61,1-.56,2.04-1.26,2.86-2.05.55-.58,1.06-1.2,1.52-1.85,1.2-1.46,1.02-1.37-.53.3l-5.05,1.37c3.38-.41,7.13-1.29,10.4-1.53,2.69-.19,5.63.12,8.45-.19,5.37-.59,10-4.17,10-10,0-4.95-4.6-10.59-10-10-2.38.26-4.82.29-7.19.26-2.84-.03-5.32.59-8.1,1.05-2.43.4-5.05.34-7.41,1.26-1.49.58-2.89,1.46-4.05,2.56l-.74.84c-2.02,2.44-2.11,2.68-.26.71l5.05-1.37c-3.37.33-6.68-.09-9.8,1.61-1.03.56-1.99,1.22-2.87,2.01-.25.22-2.35,1.79-1.12,1.15l5.05-1.37c3.05.17,1.35-.24-1.04-.96-1.17-.35-2.45-.6-3.68-.61-2.97-.03-5.04,1.34-7.76,1.94s-5.03.36-7.53,1.91c-.97.6-1.88,1.41-2.66,2.23-.64.8-1.26,1.61-1.87,2.43-.79,1.03-.35.59,1.33-1.33l5.05-1.37c1.9.07,2.57.68.5-.57-1.18-.71-2.55-1.09-3.86-1.38-2.9-.65-5.41.19-8.22.64h5.32l-1.12-.19,7.34,9.64c.11-2.6-.24-5.27-.2-7.81l-1.37,5.05c.33-.7,2.37-3.44,3.05-5.16.75-1.89,1.13-3.9,1.83-5.79.94-2.57,1.94-4.54,1.85-7.36-.1-3.06-1.7-5.52-2.88-8.22l1.37,5.05-.05-.93-1.37,5.05c1.21-2.5,2.89-4.17,3.59-7.02.29-1.18.47-2.45.69-3.65l.27-1.47c.6-3.12.55-3.53-.15-1.22l-3.59,3.59c3.49-2.45,6.96-4.12,8.33-8.58,1.22-3.94.56-8.42,1.01-11.86l-1.37,5.05.55-.73-3.59,3.59c3.24-2.31,6.69-4.37,7.82-8.48.51-1.84.54-4.25.07-6.09-.24-.94-.65-4.05-.87-1.88.56-5.38-4.99-10-10-10-5.87,0-9.44,4.6-10,10h0Z"/>
</svg>