<?xml version="1.0" encoding="UTF-8"?>
<svg id="_素材配置" data-name="素材配置" xmlns="http://www.w3.org/2000/svg" viewBox="0 0 1000 1000">
  <path d="M532.09,630.13c2.45-1.98,5.14-3.98,6.25-7.47.49-1.54.61-3.08.52-4.68l-.36-2.66c-.39-1.37-.4-1.57-.02-.61l-1.37,5.05c1.94-3.44,3.77-6.22,3.58-10.41-.18-1.37-.37-2.74-.56-4.11-.05,1.74.03,1.72.22-.04.57-2.64.31-5.22-.73-7.67-1.51-3.59-4.86-6-7.88-8.16-1.9-1.35-3.89-2.61-6.12-3.36-1.32-.44-4.32-.86-4.51-.91l4.41,2.57c1.52,1.35-1.11-2.4-1.65-3.04-1.99-2.37-4.29-3.69-7.32-4.34-2.08-.45-4.61-.74-6.72-.65s-3.62.81-5.53,1.59c-.53.22-2.15.59-1.05.42,2.57.34,5.14.67,7.71,1.01,2.39,2.45,2.49,2.37.3-.25-.4-.6-.89-1.11-1.46-1.54-1.49-1.36-3.31-2.4-5.28-2.9-2.08-.52-4.31-.35-6.36.25-1.25.41-2.42.97-3.53,1.67,1.68-.44,1.65-.51-.09-.2-2.73.18-1.8.65,2.78,1.41-.93-.79-1.91-1.51-2.93-2.17-1.74-.96-3.98-1.6-5.95-1.6-4.36,0-7.26,2.77-10.43,5.31l4.41-2.57c.81-.07.42-.14-1.19-.2-1.39.02-2.76.16-4.12.42-1.99.29-3.91.68-5.84,1.25-4.64,1.37-7.85,3.87-10.38,6.94-2.32,2.82-5.68,5.8-7.37,9.04-1.38,2.64-1.75,5.69-.95,8.58-.01-.04,2.14,5.08,1.92,3.99v-5.32l-.35.89,2.57-4.41c-3.63,4.5-6.71,8.59-4.47,14.61.36.96,3.64,6.83,5.28,6.29-.87.28-2.52-10.41-2.76-3.33-.05,1.4.08,2.82.46,4.17,1.35,4.74,4.42,8.95,8.47,11.68,2.35,1.59,4.88,2.83,7.7,3.23,1.07.15,4.27.98,1.13-.51-2.86-1.35-.91.09-.04.9,2.16,2.02,4.96,3.25,7.91,3.4,1.52.08,2.96-.32,4.46-.38,1.62-.07-1.69-.74.07.21,3.88,2.08,12.06.7,15.81-1.29,2.88-1.53-3.63-.42.02.28s-1.06-1.24.35-.12c1.98,1.57,5.17,2.34,7.59,2.3,5.99-.12,8.48-4.53,11.49-8.84l-3.59,3.59c4.3-3.15,9.12-3.3,13.42-5.72,11.22-6.3,1.15-23.58-10.09-17.27-2.64,1.48-7.56,2.49-10.79,4.24-4.03,2.18-5.76,5.04-8.39,8.54l3.59-3.59-.68.41,5.05-1.37-.96-.09,5.05,1.37c-5.84-2.86-12.24-5.03-18.71-2.53-1.27.49-3.43.86-1.08.51-4.78.71-.49.8-3.5.11s-7.02-.21-9.1-.36l5.05,1.37c1.38.78-.68-1-.98-1.29-1.39-1.32-3.35-2.56-5.2-3.09-1.68-.48-3.63-.13-5.24-.58,1.44.39,1.6.3.49-.25-1.05-.62-.96-.59.25.09l-.53-1.18c.18,4.49.42,4.8.73.94.09-1.55.09-3.15-.35-4.67s-1.32-2.97-2.37-4.2c-.42-.7-.97-1.27-1.65-1.72-2.5-2.05-2.69-2.1-.57-.16l1.01,7.71c-1.09,1.74-1.27,2.13-.54,1.18.66-.81,1.3-1.64,1.93-2.48.94-1.61,1.71-4.07,1.71-5.94,0-3.47-1.8-6.1-3.28-9.04l1.37,5.05-.05-.88-1.37,5.05c.67-1.23,2.92-3.42,4-4.79s2.2-2.72,3.33-3.63l-4.41,2.57c3.34-1.32,6.27-1.74,9.76-1.71,4.78.04,7.64-2.62,11.18-5.35l-4.41,2.57.85-.29h-5.32c-2.4-1.49-2.3-1.29.31.58.96.78,2.05,1.33,3.27,1.64,1.66.53,3.3.64,5.03.53.4-.03,5.14-.53,5.53-.62,1.5-.33,4.01-1.7,4.58-1.83h-5.32l.86.33-4.41-2.57c1.76,1.56,3.93,4.91,7.59,5.92,4.31,1.19,7.89-.91,11.62-2.67l-5.05,1.37c-.49-.52-.11-.54,1.15-.05,1.78.32,1.77.23,0-.26l-3.59-3.59c2.6,3.93,3.79,7.39,8.98,8.81,1.22.34,2.66.16,3.84.56,1.7.57-1.19-.6-.68.05.98,1.25,2.83,1.98,3.89,3.31l-2.57-4.41.22,1.16v-5.32c-.32,2.17-.95,4.34-.86,6.56.13,1.39.35,2.76.65,4.12.75-2.82.72-3.61-.09-2.36-1.48.12-2.24,5.66-2.28,6.51-.2,1.2-.12,2.41.26,3.6.24,1.83.34,1.51.31-.97l2.57-4.41c-1.03,1.1-2.36,1.99-3.68,3.06-4.2,3.4-3.54,10.61,0,14.14,4.15,4.15,9.93,3.41,14.14,0Z"/>
</svg>