<?xml version="1.0" encoding="UTF-8"?>
<svg id="_レイヤー_2" data-name="レイヤー 2" xmlns="http://www.w3.org/2000/svg" viewBox="0 0 1000 1000">
  <path d="M458.94,593.39c-8.56,19.85-15.04,40.31-18.93,61.59-.93,5.1,1.34,11.05,6.98,12.3,11.04,2.45,22.88-2.09,33.56-4.8s21.59-5.69,32.31-8.79c12.34-3.56,7.09-22.87-5.32-19.29-9.46,2.73-18.96,5.34-28.49,7.81-4.45,1.15-8.91,2.27-13.37,3.36-3.93.96-9.3,3.33-13.37,2.42l6.98,12.3c3.55-19.46,9.07-38.63,16.91-56.81,2.14-4.95,1.47-10.72-3.59-13.68-4.22-2.47-11.53-1.4-13.68,3.59h0Z"/>
</svg>