<?xml version="1.0" encoding="UTF-8"?>
<svg id="base" xmlns="http://www.w3.org/2000/svg" viewBox="0 0 1000 1000">
  <path d="M456.34,613.04c-.88-1.34.12,1.12.24,1.5.49,1.54,1.27,2.91,2.29,4.14,1.1,1.32,2.43,2.64,4.04,3.35,3.17,1.39-.44-1.7,1.09.46,3.9,5.48,9.51,6.06,15.21,8.45l-4.41-2.57c-1.26-2.31-1.47-2.54-.63-.69.27.72.59,1.41.95,2.08.8,1.33,1.94,2.53,3.18,3.45,2.54,1.88,6.28,1.96,8.09,2.5l-4.41-2.57-1.08-1.85c.34.98.76,1.93,1.24,2.84.65,1.14,1.5,2.18,2.42,3.11,9.07,9.16,23.21-4.98,14.14-14.14,1.2,2.29,1.39,2.51.56.68-.27-.72-.6-1.43-.97-2.11-.8-1.34-1.95-2.53-3.2-3.45-1.35-1-2.83-1.7-4.48-2.11-.73-.18-3.97-.5-3.61-.39l4.41,2.57c1.25,2.32,1.46,2.56.62.71-.21-.56-.45-1.11-.73-1.64-.64-1.13-1.44-2.23-2.39-3.13-1.92-1.83-5.37-2.57-6.4-2.86-.5-.14-3.61-1.84-3.71-1.65-.01.03,3.09,3.26.34-.2-2.1-2.63-4.63-3.8-7.41-5.54l3.59,3.59c.78,1.15.09-.27-.11-.98-.37-1.28-.91-2.54-1.64-3.65-7.01-10.73-24.34-.72-17.27,10.09h0Z"/>
</svg>