<?xml version="1.0" encoding="UTF-8"?>
<svg id="_レイヤー_2" data-name="レイヤー 2" xmlns="http://www.w3.org/2000/svg" viewBox="0 0 1000 1000">
  <path d="M463.06,433.63c10.8,13.03,15.95,29.69,19.2,46.02,3.47,17.47,5.86,36.26,1.66,53.8-3.8,15.86-12.14,30.36-23.24,42.24-6.01,6.43-13.22,11.99-17.68,19.73-4.78,8.3-6.02,17.95-4.56,27.31,3.17,20.42,19.77,34.29,38.17,41.24,5.05,1.91,10.96-2.12,12.3-6.98,1.54-5.62-1.91-10.38-6.98-12.3-12.79-4.83-25.24-16.04-24.12-30.88.58-7.7,5.48-12.64,10.76-17.73,6.25-6.03,11.95-12.43,17.04-19.48,9.86-13.67,16.83-29.79,19.23-46.51,2.73-19.07.26-38.62-3.62-57.37-4.01-19.42-11.28-37.86-24.02-53.23-3.45-4.16-10.57-3.57-14.14,0-4.12,4.12-3.46,9.97,0,14.14h0Z"/>
</svg>