<?xml version="1.0" encoding="UTF-8"?>
<svg id="_レイヤー_2" data-name="レイヤー 2" xmlns="http://www.w3.org/2000/svg" viewBox="0 0 1000 1000">
  <path d="M452.46,589.36c-3.47,1.85-6.53,3.25-8.57,6.87-.45.94-.87,1.9-1.24,2.88,1.31-1.69,1.52-2.11.62-1.27-1.04.43-1.99,2.21-2.87,2.96l4.41-2.57c-2.72.85-6.51.73-9.35,3.37-.95.88-2.16,3.78-3.02,3.99l1.62-1.48c-1.05.41-2.08.85-3.09,1.34-2.63,1.42-5.51,3.48-7.61,5.59-2.43,2.45,1.45.16-1.19.73-1.79.39-4.14,1.85-5.46,3.07-.89.82-1.72,1.72-2.37,2.75-1.9,3.01,4.74-2.36-.28-.24-3.31,1.4-6.17,3.81-7.2,7.41-1.96,6.84,2.59,14.82,8.93,17.6,2.56,1.12,5.39,1.14,7.27,1.6,2.49.6,4.95,1.35,7.34,2.27.83.42,1.68.79,2.57,1.1-1.24-.83-1.46-.92-.65-.27,1.18.83,2.2,1.82,3.49,2.5,2.19,1.15,4.19,1.2,6.54,1.59,1.69-.08,2.08-.04,1.17.1-1.24.15-.58.51,1.99,1.08,2.85,1.01,6.11,1.3,9.16,1.35,1.09.06,2.16-.05,3.23-.34,1.46-.25,1.6-.31.44-.18-2.16-.56,1.7.68,2.11.8,2.88.87,5.67,2.19,8.6,2.88,3.77.88,7.19-1.01,10-1.47,5.33-.87,8.31-7.5,6.98-12.3-1.56-5.67-6.95-7.86-12.3-6.98-1.55.25-3.93,1.36-4.69,1.47h5.32c-5.1-1.43-10.19-4.12-15.57-4.34-2.68-.11-4.4.54-6.18.28-2.52-.37.17.63-1.93-.66-1.41-.86-3.69-1.49-5.24-1.45-3.65.09,1.17.39.58,1.15.15-.19-3.58-2.72-3.94-2.92-2.24-1.21-4.84-2.13-7.22-2.99s-4.75-1.6-7.17-2.17c-1.45-.34-2.98-.87-4.49-.84-3.45.07,2.38,0,2.79,1.86v5.32l.19-.7-2.57,4.41c-2.4,1.32-2.77,1.63-1.1.94.96-.34,1.89-.74,2.78-1.21,1.57-.9,2.99-2.09,4.05-3.56,1.87-2.6-2.23.34.5-.26,1.95-.43,4-1.83,5.46-3.07,1.88-1.6,3.38-3.28,5.6-4.42,2.09-1.08,4.06-1.59,5.81-3.22,1.18-1.1,2.16-3.15,2.92-3.93l-4.41,2.57c.75-.24,3.47-.33,4.94-.8,2.77-.87,4.52-2.7,6.45-4.7,1.36-1.41,2.72-2.68,3.71-4.42.41-.73,1.8-5.04.37-1.64-1.18,1.25-1.24,1.56-.17.92.7-.31,1.39-.66,2.05-1.05,11.36-6.07,1.27-23.34-10.09-17.27h0Z"/>
</svg>