<?xml version="1.0" encoding="UTF-8"?>
<svg id="base" xmlns="http://www.w3.org/2000/svg" viewBox="0 0 1000 1000">
  <path d="M713.35,763.6c.77-1.26,1.66-3.83,1.95-4.32l-3.59,3.59c-1.65,1.06,4.23-1.46,3.92-1.29,1.9-1.04,3.44-2.65,4.87-4.25,1.75-1.95,3.24-3.78,4-6.34.22-1.22.4-2.46.53-3.69-1.77,3.24-1.86,3.87-.25,1.89.81-.35,3.08-2.23,3.97-3.03,1.77-1.59,2.77-3.39,3.86-5.44,1.04-1.94,1.66-3.96,2.5-5.94-1.23,1.37-1.17,1.35.16-.06.42-.65.95-1.19,1.58-1.62l-4.41,2.57c3.1-1.09,5.84-1.36,8.41-3.86,2.36-2.3,3.13-5.89,4.37-7.83,1.56-2.44,3.68-4.44,4.99-7.03s1.46-5.9,2.69-8.61c.12-.26,1.77-2.81.67-1.35-.81.65-.62.55.57-.29,1.08-.65,2.01-1.45,2.8-2.41,1.58-1.73,2.19-3.72,3.11-5.82,1.35-3.08-1.12,1.58,1.91-2.84,1.07-1.56,1.92-3.17,2.44-5.01,1-3.51-1.43.71.6-1.11,3.12-2.79,3.23-7.42,3.91-10.01l-2.57,4.41c-2.37,1.16-2.94,1.49-1.73.96.95-.4,1.9-.8,2.85-1.2,1.24-.69,2.35-1.58,3.31-2.6,2.1-2.22,3.53-5.61,4.58-8.45,2.09-5.61,5.03-10.93,5.6-16.95.06-.69,0-.5.12-1.8.51-5-.71-.6.56-3.42.64-1.42.42-.93,1.25-2.1l1.56-2.02c.83-1.22.78-1.3-.15-.23-1.2,2.49,1.24-.64,2.05-1.5,1.3-1.37,2.57-3.36,3.07-5.19s.49-4.36.03-6.26l-.36-1.08c-1.17-3.03-1.32-3.19-.46-.5l-1.37,5.05c-3.24,4.83,2.74-2.22,3.07-2.74,1.17-1.81,1.87-3.94,2.44-6.02.7-2.57,1.13-4.88.46-7.53-.41-1.11-.86-2.21-1.35-3.29-.81-1.71-.82-1.23-.02,1.44l-1.37,5.05c1.16-2,3.8-5.09,5.15-7.78,1.63-3.26,4.75-11.17,1.85-14.48-1.01-1.16-.04,2.57.23.71.28-1.96-.96,1.2.02-.1,1.28-1.68,2.3-3.22,3.31-5.04,1.14-2.05,2.23-3.86,2.61-6.25.33-2.06-.66-5.1-.69-6.19l-1.37,5.05c.85-1.71,3.46-5.41,4.29-7.04,1.85-3.63,1.95-7.43,2.06-11.43.09-2.9.62-4.47,1.55-6.21,2.11-3.96,1.22-7.65,1.18-10.82l-1.37,5.05c.68-1.5,3-4.74,3.62-7.22.78-3.13.41-6.34.79-9.45-.26,2.2.99-1.51,1.25-2.38.41-1.38.59-2.72.52-4.15-.16-3.55-1.94-5.56-3.49-8.46l1.37,5.05c.16,1.21-.96,3.02.43,1.18.91-1.21,1.37-3.29,1.62-4.78.38-2.35.29-5.01.25-7.38-.03-1.8.27-1.46-.34-.09.52-1.15,1.19-2.23,1.58-3.44.89-2.73.68-5.46.82-8.26l-1.37,5.05c1.58-3.7,4.78-6.62,3.54-11.88-.36-1.53-.93-2.97-1.78-4.31-.99-1.53-1.01-1.32-.06.61-.04-1.01-.01-2.03.08-3.04l-1.37,5.05c-.77,1.7.83-.43,1.42-1.03,1.48-1.48,2.66-3.43,3.22-5.47.96-3.49-.73-6.88-.16-10.34-.41,1.44-.13.85.85-1.78.49-1.33.76-2.71.81-4.13,0-2.22-.77-4.19-1.57-6.21-.73-1.39-.81-1.59-.22-.61.48,1.05.67.75.55-.91.42-1.5.12-3.18.26-4.7s.45-3.14.73-4.66l.38-1.48c.52-2.11.3-2.01-.66.31.11.97,3.38-5.87,3.19-5.28.73-2.26.57-4.13.29-6.41-.41-3.35.1-5.86.37-9.29.14-1.74.13-3.38-.39-5.08-.34-1.22-.88-2.32-1.63-3.32-1.86-2.58-2.06-2.71-.6-.41v5.32c.82-3.6,2.16-7.15,2.27-10.91.08-2.73-.53-4.45-1.47-6.94-1.14-3.01.47,2.65.08-1.39-.84,1.82-.94,2.24-.3,1.27.33-.43.62-.88.87-1.36,1.03-1.89,1.46-3.82,1.59-5.95.19-3.29.28-7.19-.14-10.42-.21-1.63-.55-4.27-1.79-5.4-.65-1.3-.57-.68.26,1.86.22-1.39.39-2.78.5-4.18.39-3.73,0-6.6-.87-10.2-.59-2.45-1.21-5.3-1.17-7.83.03-1.51.61-3.07.56-4.61-.08-2.36-.7-4.81-1.04-7.15v5.32c.48-3.34,2.5-6.95.87-11.27-.63-1.67-1.46-2.98-2.76-4.27-.72-.71-1.51-1.35-2.37-1.9-1.46-1.13-1.21-.82.77.92l1.01,7.71c-.15.91.04-.01.39-.58.73-1.17,1.29-2.54,1.63-3.86.64-2.48.36-5.18.11-7.7-.31-2.99-1.29-5.68-3.34-7.92-.34-.37-2.39-2.72-1.18-.89s-.01-1.13-.08-.5l-1.37,5.05c1.3-2.68,2.84-5.07,2.99-8.17.07-1.48-.06-2.89-.52-4.33-.16-.51-1.34-4.21-1.16-2.46-.31-3.02.27-5.65-1.42-8.55-.67-1.15-1.5-2.09-2.46-2.97l-2.02-1.56c-1.47-1.06-1.22-.66.76,1.19l1.37,5.05c-.68,2.37-.66,2.64.04.79.33-.73.63-1.47.88-2.23.49-1.83.52-4.43.01-6.26s-1.72-3.86-3.03-5.22c-.28-.29-2.18-2.37-1.32-.92l1.37,5.05c-.13-2.94.93-6.7-1.24-10.41-1.74-2.97-3.27-4.17-4.77-7.36l1.37,5.05c-.19-1.9.06-6.03-.63-8.96-.92-3.91-2.81-5.89-4.68-9.27-.95-1.73-1.99-4.87-3.85-6.99-1.12-1.27-.7-.46-1.61-1.93s-1.49-3.2-2.24-4.75c-.57-1.18-1.08-2.41-1.67-3.58-.66-1.63-.67-1.59-.04.11.04-.87-.02-1.73-.19-2.58-.53-3.99-2.72-5.89-4.66-9.12-.35-.67-.69-1.33-1.03-2,.21,1.6.26,1.86.14.78-.05-1.97-.46-3.79-1.28-5.56-.89-1.92-2.06-3.38-3.71-4.68-.28-.22-3.5-2.69-2.35-1.46l2.57,4.41c.94,4.37.71-.32.71-1.75,0-1.6-.43-3.32-1.07-4.78-1.28-2.88-4.09-4.57-5.73-6.29l2.57,4.41c-1.11-2.68-1.4-5.46-3.19-7.87-.97-1.31-2.07-2.34-3.49-3.21s-4.97-3.44-1.62-.38l2.57,4.41c-.49-1.19-.52-2.26-.89-3.48l-1.01-2.39c.37,1.81.49,2.12.35.93.8-3.05-1.99-7.42-4.02-9.3-.32-.3-7.4-3.87-7.43-3.21,1.97,1.02,2.46,1.04,1.47.05-.48-.58-.95-1.16-1.41-1.76-.97-1.15-2.02-2.23-3.01-3.37l2.57,4.41c.52,1.31-.06-.87-.11-1.56-.15-2.07-.66-4.1-1.72-5.92-1.84-3.15-5.78-4.41-7.86-5.96l3.59,3.59c.22.5-.29-2.4-.33-2.52-.58-1.62-1.4-3.01-2.55-4.29-.19-.22-3.52-3.78-1.66-.94-.66-1.01-.81-2.48-1.4-3.55-1.54-2.81-4.11-5.13-7.25-5.98-.72-.19-4.18-1.02-4.72-.53l3.19,1.36c-2.2-2.01-2.62-2.17-1.23-.46.7,1.33.94,1.52.71.55-.06-.53-.16-1.06-.31-1.57-.45-1.55-1.28-2.94-2.25-4.21-1.38-1.79-2.74-2.94-3.82-4.81-3.55-6.17-8.15-6.4-14.5-6.73l5.05,1.37-.73-.33,3.59,3.59-.36-.72,1.37,5.05c-.34-4.04.12-7.65-2.58-11.11-3.1-3.97-7.48-4.11-12.08-4.68l5.05,1.37c-1.33-.64-3.71-3.31-5.3-4.46-2.03-1.48-4.14-2.86-6.18-4.33l3.59,3.59c-2.28-3-3.77-6.35-6.52-9.11-1.63-1.64-3.55-2.89-5.81-3.47-1.24-.23-2.49-.37-3.74-.43-1.39.05-1.54.04-.46-.02l4.41,2.57c-.8-.79-3.19-3.91-5.04-5.07-.8-.5-1.64-.91-2.52-1.23-2.34-1.19-1.83-.34,1.53,2.56.17-1.14-1.61-3.45-2.25-4.32-1.93-2.61-4.42-3.87-7.44-4.9-.73-.25-.35-.03-1.43-.4l-2.39-1.01c-1.76-.61-1.57-.31.55.91l2.57,4.41c-1.25-3.18-1.66-6.23-4.3-8.76-1.5-1.44-3.33-2.31-5.32-2.82-1.24-.34-2.5-.44-3.76-.29-3.37.33-3.55.45-.53.37l4.41,2.57c-1.84-1.77-3.25-4.51-6.26-5.83-1.45-.64-3.38-1.25-4.99-1.14-1.7-.1-1.78.06-.24.48,1.84.82,1.53.44-.93-1.15-1.16-.78-2.43-1.68-3.82-1.98-1.52-.81-1.6-.67-.23.44,1.11,1.32,1.27,1.28.49-.12-1-3.02-4.48-5.13-7.2-6.19-1.49-.58-7.39-3.24-8.75-2.1-1.08-.05-.88.15.61.61l-1.38-.6c-5.18-3.38,2.12,1.71-2.02-1.4-3.27-2.45-5.72-2.81-9.52-3.92,1.86.54-2.09-1.13-2.08-1.13-1.5-.69-2.99-1.18-4.58-1.6-1.17-.31-2.48-.8-3.67-.95-2.73-.34.08.67-.87,0-3.59-2.52-5.61-3.51-10-4.22-.73-.12-1.78-.44-2.62-.5-1.65-.59-1.09-.03,1.68,1.68l-1.56-2.02c-2.36-2.58-5.37-4.24-8.95-4.24-1.39,0-2.65.26-3.93.68-1.11.36-7.78,3.62.35.87-.68.23-2.3-.95-.4.24-1.41-.88-2.48-2.17-3.98-2.98-2.67-1.43-6.25-3.06-9.29-3.08-3.4-.02-6.12,1.59-9.13,2.9l5.05-1.37c-.94.07-5.07-2.29-6.79-2.9-2.61-.94-5.51-1.05-8.06-1.96-1.73-.62-4.7-2.69-7.62-2.73-2.09-.03-4.12.58-5.98,1.49-.54.26-2.95.92-1.54.72h5.32c-2.37-.66-4.5-1.66-7.03-1.72-1.46-.04-4.6,1.01-4.67,1.02l5.05,1.37c1.06.49,2.62,3.22.99.61-.67-1.07-1.53-2.15-2.43-3.03-2.42-2.35-5.73-3.3-9.02-3.03-1.79.15-3.23.53-4.88,1.39s-1.01.37.35.17c-1.4.21-5.63.01-2.23,1.12,4.54,1.47-2.27-1.41-1.88-1.29-2.33-.71-4.62-.34-6.96-.66s-4.78-1.17-7.32-1.31c-5.26-.3-9.72.9-14.74,1.86h5.32c-.73-.14-4.01-1.44-5.87-1.59-3.15-.26-5.21.61-8.06,1.74-.98.45-.73.42.75-.09l-2.66.36c-.61.04-1.22.04-1.84.05-1.88.04-4.34.25-6.03-.04-1.44-.25-3.11-1.07-4.83-1.19-1.91-.14-3.61,0-5.46.59-.46.15-3.45.77-1.79.7-2.33.09-4.26-.23-6.58.52-2.05.66-3.22,1.65-4.82,2.93-.46.37-1.92,1.17-.87.72l7.71-1.01c2.04,1.39,2.55,1.68,1.51.87-.8-.66-1.62-1.29-2.45-1.91-1.12-.71-2.32-1.25-3.61-1.58-4.02-1.05-6.74.38-10.23,1.98,1.67-.2,1.88-.32.64-.38-.75-.11-1.51-.13-2.28-.05-1.27-.04-2.55-.13-3.82-.13-2.09,0-3.96.44-5.8,1.38-1.44.74-2.62,2.18-4.06,2.81,2.12-.94-.11-.72-1.22-.38-1.55.47-2.98,1.21-4.51,1.73-2.2.75-4.35.64-6.67.84-6.56.57-12.01,2.32-17.98,4.9l5.05-1.37c-4.08.4-7.79-.06-11.24,2.74-1.37,1.11-2.38,2.39-3.2,3.94-.41.94-.8,1.88-1.2,2.83.41-.81.36-.76-.16.13l3.59-3.59-.54.4,5.05-1.37c-1.4.14-6.04-.19-8.61.73-1.31.47-2.54,1.54-3.84,1.92,4.34-1.28-3.17-.12-2.5-.27-3.3.71-4.66,2.47-7.4,4.1,2.97-1.77-1.23.09-1.67.25-1.16.43-2.32.88-3.47,1.34-2.72,1.09-4.82,2.8-6.74,4.32.13-.11-1.91,1.46-2.36,1.63,3.95-1.45-3.05-.31-2.67-.39-2.53.53-5.54,1.39-7.79,2.7-1.59.93-3.31,2.66-4.26,4.23-.21.35-1.75,2.75-.56,1.59l4.41-2.57c2.71.1,3.02.04.94-.18-.79-.14-1.58-.22-2.38-.24-1.88.02-4.31.64-5.94,1.59s-3.25,2.61-4.26,4.21c-.24.38-1.84,2.57-.6,1.38l4.41-2.57c-1.33.46-6.41,1.41-9.02,2.31-5.36,1.85-6.85,6.05-8.75,10.87l2.57-4.41-.61.71,4.41-2.57c-2.63.99-7.07,1.54-10.29,3.22-3.76,1.96-5.41,5.43-7.83,8.16-.36.41-1.28.73-1.49,1.17.13-.28,3.31-.21.62-.27-2.41-.06-4.95.47-7.06,1.69-3.84,2.23-6.67,5.97-8.74,8.69-4.64,6.11-9.54,10.84-15.01,16.75-2.73,2.95-5.76,5.55-8.59,8.4-3.07,3.09-5.04,6.35-7.34,9.93l3.59-3.59c.82-.56.15-.1-.55.06-1.14.26-2.43.74-3.42,1.32-1.92,1.11-3.03,2.12-4.66,3.37-4.4,3.39-4.83,7.52-5.51,12.67l1.37-5.05c-.24.55-1.75,2.35-2.46,3.34-.63.7-1.13,1.48-1.51,2.35-1.23,2.72-1.38,3.17-.46,1.35l4.41-2.57c-4.33,1.72-8.16,3.01-10.28,7.51-.87,1.83-1.27,3.75-1.23,5.8,0,1.74.1,1.52.28-.66-.64.46-.85.95-.64,1.47-2.94,2.18-4.51,5.25-6.64,8.14s-4.86,5.16-6.48,8.4-3.9,5.76-5.56,9.01c-1.21,2.37-2.42,4.75-2.38,7.5v1.29c.6-1.74.49-1.73-.31.04,3.36-1.87,4.03-2.39,1.99-1.57-1.11.39-2.18.87-3.21,1.43-1.57.98-3.17,2.53-4.12,4.16-2.49,4.25-.9,8.21.1,12.5v-5.32c.83-1.54.76-1.61-.22-.19-.59.72-1.14,1.48-1.64,2.27-.33.68-.67,1.35-1,2.03-.64.95-.35.99.86.11-.36,1.03-2.66,2.02-3.39,2.79-1.53,1.6-2.48,3.3-3.03,5.44-.05.19-.57,4.55-.34,4.52.54-.06,2.77-5.61-.94.1-.91,1.4-1.46,2.86-1.81,4.49-.18.83,0,4.06.06,3.71l2.57-4.41c.84-.44.66-.34-.54.28-1.05.62-2.03,1.34-2.95,2.15-1.41,1.36-2.64,3.23-3.16,5.14-.75,2.72.56,5.28.03,7.77.71-3.4-1.16.35-1.48,1-.42.63-.78,1.29-1.08,1.99,1.95-2.12,1.71-2.12-.72,0-1.5,1.34-2.64,2.79-3.42,4.63-.98,2.31-1.14,4.86-.54,7.3.35,1.13.79,2.23,1.31,3.3.77,1.73.72,1.27-.13-1.39l1.37-5.05-.55.76,3.59-3.59c-4.67,3.36-7.08,5.91-8.79,11.48-1.37,4.49-1.53,8.58-2.13,13.14l1.37-5.05c-2.12,4.5-4.24,9.02-6.33,13.53-1.21,2.59-2.76,5.02-2.8,7.99-.02,1.16.08,2.49.38,3.6.27.76.57,1.51.9,2.24.69,1.84.72,1.58.08-.78l1.37-5.05c.63-1.19-.28.14-.72.62-.9.99-1.7,2.04-2.34,3.21-1.72,3.16-1.15,6.4-1.26,9.73l1.37-5.05c.75-1.46-.69.67-1.02,1.05-1.69,1.9-2.82,4.03-3.16,6.57-.55,3.98,1.2,6.95,2.7,10.45l-1.37-5.05c.08,1.14-1.64,3.78-2.48,5.7-1.17,2.68-2.4,5.34-3.32,8.14s-1.93,6.22-1.8,9.28c.09,1.97.61,3.74,1.6,5.47.46.8,1.34,3.26,1.09,1.43v-5.32c-.32,2.2-.68,4.03-1.34,6.09-.7,1.4-.7,1.57-.02.53.63-.78.65-.87.06-.27-.71.26-2.74,3.29-2.7,3.22-1.52,2.62-2.04,5.61-1.39,8.56.3,1.35.8,2.55,1.41,3.81.25.53.74,2.2.56,1.03v-5.32c-.11.35-1.48,2.91-1.84,4.29s-.33,3.01-.7,4.46c-.63,2.49-1.65,4.37-1.81,7.03-.07,1.09.22,2.31.12,3.37-.4,3.91-1.56,7.63-1.27,11.64.27,3.72,1.53,7.07,1.36,9.89-.03.51-.5,5.16-.25,5.24,1.67-3.59,1.51-3.9-.47-.92-.57.59-.96,1.28-1.17,2.07-1.53,3.27-1.56,8.81.12,12.13.16,2.3.43,1.78.81-1.57-.46.56-.87,1.16-1.23,1.78-1.25,2.23-1.75,4.76-1.43,7.27.54,4.25,3.34,6.47,5.86,9.52l-2.57-4.41.25.75v-5.32l-.3.9,2.57-4.41c-2.59,3.28-5.49,6.17-5.49,10.68s2.88,7.36,5.43,10.65l-2.57-4.41.3.9v-5.32c-.41,2.41-1.28,4.68-1.35,7.17-.05,1.75.4,3.48.33,5.24-.09,2.29-.5,4.09.03,6.42.34,1.46,1.61,3.81,1.78,4.42v-5.32c.37-1.61-.81.94-1.03,1.33-1.22,2.22-1.74,4.79-1.39,7.29.55,3.93,2.94,6.3,5.37,9.18l-2.57-4.41c1.32,3.43.44,10.46-.38,14.8-.53,2.82-1.39,5.92-.59,8.81.87,3.15,3.06,5.31,5.05,7.75l-2.57-4.41.35.87v-5.32c-.27,1.94-1.91,5.75-1.51,8.71.48,3.58,2.63,6.1,4.78,8.87l-2.57-4.41.45,1.07v-5.32c.17-1.18-.43.94-.71,1.52-.79,1.62-1.28,3.24-1.37,5.05-.08,1.69.14,3.06.68,4.66.45,1.34,1.47,5.3,1.69,1.78.29-4.81-.8,2.71-.78,2.23-.08,1.76.18,3.36.81,5,.57,1.49,1.39,2.89,2.5,4.06.28.29,2.2,2.44,1.49,1.09l-1.37-5.05c.12,2.88-.15,5.48.8,8.3.27.81,2.16,5.76,1.43,1.8s-1.06,1.62-1.09,2.3c-.26,5.56,3.11,9.77,5.19,14.57l-1.37-5.05c.14,1.26.29,3.82.23,4.34-.38,3.41-1.33,5.45.02,8.97.82,2.13,2.36,3.39,3.65,5.16,1.14,1.56-.96-1.55.33.61.64,1.07,1.21,2.3,1.71,3.45l-1.37-5.05c.82-2.72.84-3.23.04-1.54l-1.01,2.39c-.62,1.9-.81,3.69-.51,5.65.43,2.87,3,8.02,6.29,8.84,1.35.94.8.11-1.66-2.5,1.05,3.37,1.39,3.18,1.03-.58-.73.41-1.02,4.81-1.02,4.76-.09,3.31,1.54,7.28,3.11,10.2.74,1.38,2.32,2.58,2.91,3.96-1.38-3.23-.17,1.75-.12,1.93.83,2.94,1.54,5.87,2.31,8.81s1.97,5.77,3.09,8.55c1.67,4.12,4.36,6.05,7.8,8.55l-3.59-3.59c1.09,1.42,1.85,3.15,2.66,4.75l-1.37-5.05c-.07-.63,1.58-3.98.37-1.74-.61,1.12-1.18,2.46-1.51,3.69-.8,2.91-.43,6.12.98,8.78,1.06,1.99,2.52,4.24,4.05,5.89.92,1,1.94,1.85,3.13,2.54.37.21,1.98,1.38,1.11.43l-2.57-4.41c.36.94.58,1.97.98,2.88,1.26,2.87.62-.57.39-.73.3.21-.48,3.1-.48,3.75,0,1.6.42,3.32,1.06,4.77,2.16,4.92,6.49,5.81,10.96,7.65l-4.41-2.57.58.54-2.57-4.41c-1.29-5.9-.43,3.69-.29,4.33.47,2.03,1.29,3.83,2.78,5.34,2.53,2.55,5.67,3.09,8.83,4.35l-4.41-2.57.59.53-2.57-4.41.17.78v-5.32c-.52,3.38-1.78,6.22-.81,9.79,1.14,4.25,4.02,5.37,6.44,7.8l-2.57-4.41c1.29,3.48,1.93,8.62,6.58,11.46,1.38.92,1.45.86.19-.19.42.93.9,1.82,1.45,2.68,1.07,1.63,2.41,2.81,3.68,4.23,2.46,2.76,4.41,5.86,6.58,8.87,1.32,1.83,3.4,3.56,4.5,5.48-1.62-2.83.49,2.5.84,3.11,2.07,3.61,5.84,5.76,8.9,8.44s4.62,6.12,7.78,8.41c.62.55,1.3,1.01,2.04,1.36-2.13-5.25-2.76-5.8-1.89-1.63.51,2.32,1.53,4.6,3.24,6.31,3.46,3.46,7.67,2.98,12.05,3.28l-5.05-1.37c-3.89-1.86.38-.67.57,1.69-.22-2.85-1.1-1.55-.47.29,1.06,3.11,3.16,5.78,6.08,7.37.38.21,4.94,2.75,2.36.9-.61-.44,4.01,3.35,2.83,2.13,2.37,2.43,4.26,4.82,7.06,6.87,1.26.92,2.81,2.05,4.39,2.36,1.79.81,1.58.39-.62-1.27-2.1-2.45-2.34-2.21-.73.72,1.53,2.99,3.73,5.02,6.84,6.25,4.8,1.9-.23-.43.08-1.11-.27.58,2.58,3.48,3.02,3.9,2.62,2.49,6.94,2.89,9.13,3.72l-4.41-2.57c-1.19-2.21-1.37-2.41-.54-.6.21.57.45,1.12.74,1.66.66,1.15,1.47,2.25,2.44,3.16,2.04,1.93,4.9,3.19,7.43,4.35,2.19,1.01,3.93,2.03,5.99,3.27,2.72,1.64,5.75,1.47,7.9,2.05l-4.41-2.57c2.7,2.21,4.79,4.69,7.9,6.5,1.49.87,2.92,1.59,4.6,2,.67.16,10.29,1.03,4.22-.25l-4.41-2.57.48.49-2.57-4.41c1.72,4.19,1.97,8.4,6.4,10.99,2.43,1.42,5.69,1.75,8.38,1.11,1.28-.31,2.43-.94,3.66-1.41.45-.17,2.43-.66.74-.23h-5.32l.68.09-4.41-2.57c-1.03-.88.58,1.03.82,1.39,1.08,1.63,2.6,3.19,4.31,4.19,3.59,2.1,7.64,1.36,11.51.82h-5.32c1.62.23,4.05,1.99,5.8,2.7,1.46.59,3.18,1.18,4.45,2.14,1.04.8,2.5,2.66,4.24,3.66,2.5,1.43,5.21,1.11,7.79,1.64,3.53.73,6.15,3.09,9.24,4.71,4.4,2.32,10.91,1.16,14.49,1.41l-5.05-1.37c-1.19-.7.18.56.56.97.88.97,2.06,1.79,3.2,2.42,2.95,1.64,6.39,1.37,9.63,1.76l-5.05-1.37c1.72.91,3.9,3.16,6.37,3.84s5.02.45,7.52,1.15c2.74.77,5.67,1.8,8.54,1.88s4.81-.44,7.2-.75c-.12.02,3.14-.46,2.21-.4.38-.02,4.55.21,2.33-.07-2.33-.3,3.58,1.7,2.75,1.41,1.08.37,2.2.63,3.3.91,2.8.72,5.73,1.17,8.64,1.19s6.04-1.39,8.08-1.72h-5.32l.73.3-4.41-2.57c2.56,2.36,4.43,4.7,7.94,5.8s7.91,1.35,11.73,1.11,6.9.17,10.62.13c1.85-.02,3.92-.13,5.7-.54,1.56-.36,3.55-1.64,4.51-1.91h-5.32c3.91.63,6.35,1.86,10.62,1.13,2.87-.5,5.67-1.5,8.55-1.64,3.5-.18,6.61.71,10.21-.01,3.22-.65,6.69-.72,9.75-1.95.78-.3,1.54-.65,2.27-1.04-1.63.39-1.83.58-.6.57,1.44.56,3.76-.14,5.26-.19,3.1-.1,6.11.49,9.2.63,3.26.15,6.61-.76,9.66-1.85,2.51-.89,5.54-2.97,7.35-3.64h-5.32c-.96-.13-.73-.46.18.28s1.85,1.25,2.97,1.67c3.25,1.25,6.53,1.22,9.69-.4,1.24-.64,3.61-2.2,4.08-2.51,1.1-.73,2.2-1.44,3.24-2.3.41-.34,1.92-1.25.69-.64l-5.05,1.37c5.42-.14,10.83-.83,16.16-2.11,2.36-.57,3.87-1.09,6.3-1.31s4.09-.75,6.03-1.98l2.02-1.56c1.25-1.07,1.17-1.24-.23-.5-1.54.51-1.46.59.23.26.95-.09,1.89-.26,2.81-.51,1.54-.44,2.94-1.42,4.46-1.91,1.59-.52,3.68-.8,4.41-.89,3.54-.45,6.39-.73,9.13-3.39.91-.89,1.73-1.92,2.34-3.05.38-.7,1.79-2.34.34-1.13l-4.41,2.57c3.97-.97,7.97-1.82,11.89-3.06,2.46-.78,4.75-1.75,6.57-3.64.75-.92,1.47-1.87,2.15-2.84.62-1.11.72-1.21.28-.3l-4.41,2.57c2.41-.77,7.93-1.8,11.19-3.83,4.03-2.51,4.76-6.37,6.32-10.42l-2.57,4.41.52-.59-4.41,2.57c1.89-.51,4.93-.15,7.35-1.57,2.16-1.26,3.71-4.14,4.91-5.4l-4.41,2.57c2.64-.93,7.15-1.82,10.48-3.84,1.96-1.19,3.66-2.7,4.8-4.73.56-1.11,1.01-2.27,1.34-3.46.29-1.36.34-1.57.15-.63l-3.59,3.59c1.18-.58,4.64-1.57,6.41-3.23.69-.63,1.3-1.33,1.83-2.1,1.33-1.53.98-1.42-1.06.33.02.07,3.41-1.3,3.54-1.37,2.72-1.47,4.2-3.6,5.94-6.05-.12.17,2.32-3.05,2.36-3.03-.37-.21-3.54,2.21.54.48,4.62-1.97,10.04-4.33,11.75-10.33.44-1.53,1.21-1.82-.37-.05.72-.81,1.32-1.78,2.07-2.51,2.04-1.96,4.84-3.59,7.01-5.43,4.13-3.49,3.59-10.55,0-14.14-4.09-4.09-10-3.5-14.14,0-3.08,2.6-6.46,4.5-8.99,7.7-1.07,1.35-2.32,2.68-3.14,4.18.15-.28-2.5,5.45-1.39,3.79l3.59-3.59c-2.23,1.38-5.86,2.11-8.68,3.85-2.04,1.25-3.49,3.22-4.97,5.03-.75.92-1.76,1.85-2.31,2.9-1.42,2.73,2.94-.5,1.3-.55-2.09-.05-5.18,2.48-6.52,3.85-.49.48-.92,1-1.31,1.56-1.09,1.24-1.05,1.34.12.3,1.13-.7,1.24-.88.32-.55-.62.14-1.21.36-1.78.66-2.55,1.02-4.64,2.59-6.09,4.98-.63,1.03-1.05,2.17-1.46,3.31-.2.55-1.02,2.09-.32,1.15l3.59-3.59c-.17.1-4.71,2.62-1.31,1.36-1.52.56-3.44.33-5.05.85-3.76,1.21-5.23,4.3-7.3,6.41l4.41-2.57c-3.07.87-6.47.2-9.64,3.43-2.54,2.58-2.81,5.45-4.03,8.57l2.57-4.41c2.57-2.85-3.46.89.05-.01-2.11.54-4.14.41-6.17,1.35s-3.37,2.07-4.71,3.68c-.35.42-2.88,3.12-1.66,2.12l4.41-2.57c-4.14,1.39-8.43,2.2-12.6,3.37-2.66.75-4.82,2.13-6.54,4.27-.62.77-1.01,1.42-1.46,2.27s-1.31,1.6-.14.65l4.41-2.57c-.2.04-3.87.24-5.48.6-2.63.59-4.9,1.73-7.44,2.56-1.56.51-3.26.56-4.86,1.04-2.53.76-4.51,3.14-6.09,4.14l5.05-1.37c-3.87.44-7.11.83-10.9,1.79-1.67.43-3.55.26-5.27.69-.46.12-4.21,1.64-2.09,1.25-2.52.46-4.17-.7-6.86.04-1.96.54-3.72,1.66-5.24,2.98-1.43,1.25-3.03,2.51-5.16,3.48l5.05-1.37-.79-.1,5.05,1.37c-3.17-1.78-5.42-3.82-9.39-3.82-3.06,0-5.98,1.82-7.93,2.75-2.15,1.02-3.14,1.2-4.62,1.98l-1.46.44c1.64.14,1.01.04-1.9-.3-3.33-.35-6.54-.39-9.89-.21-4.02.22-7.71-.38-11.43,1.65-2.55,1.39,2.39.18-1.2.26-2.2.05-4.25.68-6.38,1.02-1,.31-.98.31.05,0-1.39-.21-2.78-.38-4.18-.52-1.47-.06-3.05.02-4.51.14-3.94.32-7.68,1.85-11.61,2.38h5.32c-3.48-.54-6.14-2.14-9.87-1.23-1.69.41-3.08,1.27-4.65,1.97,2.54-1.14-.58-.14-1.76-.19-3.39-.15-5.71-.42-9.11-.18-2.48.18-4.8.24-7.15-.69l4.41,2.57c-4.8-4.38-8.63-7.64-15.6-5.12-.8.33-1.59.67-2.38,1.03l1.21-.78c-.33-.09-2-.3-2.57-.42-2.33-.51-3.79-1.72-6.51-2.42-5.08-1.3-11.36-.58-15.7.42-2.64.61,1.97.96-1.2-.19-1.18-.43-2.45-.67-3.65-1.07-3.2-1.07-6.17-.97-9.46-1.23l5.05,1.37c-1.28-.66-3.28-2.63-5.17-3.33-2.74-1.02-5.58-.89-8.44-1.25l5.05,1.37c1.61.92-3.23-3.09-2.95-2.92-1.81-1.15-3.69-1.74-5.85-1.84-1.73-.08-3.34.42-5.05.47.68-.52.27-.66-1.26-.42-1.05.14-2.1.1-3.14-.09l5.05,1.37c-3.54-1.79-6.6-4.18-10.42-5.59-1.91-.7-3.86-1.23-5.85-1.59-3.36-.75-3.53-.51-.53.74-.76-1.05-1.71-1.9-2.85-2.55-3.27-2.21-7.03-3.37-10.49-5.16-2.09-1.08-3.79-2.22-6.16-2.71-2.75-.57-5.25,0-7.97.37h5.32l-1.16-.18,4.41,2.57c.44.86.36.7-.25-.48-.62-1.04-1.33-2.02-2.13-2.93-1.51-1.58-3.36-2.68-5.46-3.22s-4.35-.49-6.48.16c.43-.13-5.89,2.01-3.58,1.43h5.32l-.67-.1,4.41,2.57-.48-.48,2.57,4.41c-2.28-5.45-2.86-10.55-9.71-12.2-.57-.14-5.88-.76-6.4.11l3.29.34c-.38-.73-.82-1.01-1.33-.83-1.51-2.2-4.37-4.3-6.93-5.11-1.39-.44-3.02-.92-4.45-.66-1.11-.03-.88.04.69.21l-1.23-.89c-.57-.46-7.94-4.3-8.22-4.01-.26.27,4.07,6.02.49-.23-.66-1.15-1.46-2.26-2.43-3.17-2.62-2.48-7-2.89-9.13-3.72l4.41,2.57c-.52-.53-1.8-2.73-2.9-3.76-.82-.77-5.44-4.16-6.65-3.37,3.48,4.45,4.27,4.82,2.37,1.11-.41-1.14-1.07-2.13-1.98-2.97-1.41-1.55-2.92-2.52-4.81-3.34-.76-.35-1.53-.65-2.32-.9,1.53.95,1.53.83,0-.36-1.47-1.41-2.63-3.1-4.12-4.48-2.78-2.59-7.56-4.94-9.82-6.42l3.59,3.59c.54.79.12.35-.08-.43-.32-1.29-.9-2.63-1.57-3.77-1.24-2.08-1.93-3.34-3.7-5.32-3.64-4.06-7.76-3.81-12.76-4.17l5.05,1.37-.72-.35,3.59,3.59c.72,2.88.8,2.66.22-.66l-.2-1.07c-.55-1.82-1.65-3.87-3.02-5.24-1.09-1.09-2.6-2.15-3.96-2.86.88,1.3.99,1.45.33.43-.39-.65-.83-1.28-1.32-1.86-2.27-3.07-5.07-5.36-7.97-7.79-.56-.47-3.53-3.02-3.55-2.93,1.24,2.05,1.66,2.43,1.25,1.13-.22-1.05-.61-2.06-1.16-3-1.34-2.58-3.58-4.58-5.32-6.88-2.04-2.69-3.88-5.5-5.97-8.16-1.51-1.93-3.29-3.62-4.55-5.67-.97-1.58-1.72-3.08-3.08-4.42-.96-.95-2.92-1.99-3.43-2.49l2.57,4.41c-.37-.97-1.04-5.16-2.15-7.06-1.24-2.12-4.13-3.78-5.34-5.02l2.57,4.41-.18-.77v5.32c.64-4.35,2.19-8.36-.28-12.57s-6.44-4.77-10.4-6.37l4.41,2.57-.58-.54,2.57,4.41c.07,2.99.24,2.81.51-.55.24-1.26.16-2.52-.23-3.77-.47-2.03-1.28-3.83-2.77-5.34-2.54-2.58-5.73-3.1-8.9-4.42l4.41,2.57-.57-.55,2.57,4.41.16,2.15.36-2.66c.07-1.27.06-2.48-.23-3.75-.49-2.13-1.26-4.46-2.23-6.41-1.19-2.41-2.82-4.41-5.21-5.75-.39-.22-2.41-1.48-.94-.24,1.59,1.34-.91-1.76-1.08-2.04l1.37,5.05c.08.62-1.6,4-.38,1.75.61-1.12,1.18-2.46,1.52-3.69.83-3.01.36-5.99-.98-8.79-2.15-4.52-4.89-7.22-8.9-10.16l3.59,3.59c-1.91-2.56-2.63-7.75-3.59-11.39-1.41-5.34-2.78-10.1-5.99-14.61-.51-.64-.53-.62-.06.07.54.91.48.69-.17-.66-.54-1.68-.69-1.59-.46.27-.12,1.81.02,1.94.43.39.98-2.4.74-5.63-.05-7.99-.7-2.08-1.82-4.7-2.96-6.53-.62-.99-1.42-1.82-2.26-2.61-.77-.68-1.58-1.29-2.44-1.84-1.07-.74-.66-.24,1.23,1.51l1.37,5.05c-.83,2.73-.85,3.24-.05,1.55.49-1.07.94-2.16,1.34-3.27.76-3,.28-5.72-1-8.5-.76-1.65-1.51-3.42-2.45-4.97.17.27-3.59-4.66-2.74-3.05l1.37,5.05c.02-.63.95-3.35.97-4.92.03-2.17-.15-5.13-.72-7.19-.6-2.19-1.83-3.53-2.84-5.43.55-.74.23-1.57-.94-2.48.08,2.85.4,3.26.94,1.21.87-2.33.43-5.32-.33-7.55-.35-1.25-.91-2.38-1.68-3.4.17,1.97.28,1.94.32-.09.11-2.6-.49-5.18-1.87-7.4.08.12-3.75-4.47-3.05-3.12l1.37,5.05c-.04.92.34-.83.36-.9.47-1.59.48-3.52.23-5.14-.21-1.35-.52-2.36-1.13-3.59-.16-.65-.46-1.22-.89-1.7-.7-1.1-.73-.59-.11,1.51l-1.37,5.05c1.24-2.52,2.68-4.74,2.91-7.62.14-1.87-.03-3.29-.63-5.06l-1.01-2.39c-1.95-2.93-2.12-2.68-.52.76l-1.37,5.05c1.54-3.63,3.23-7.22,2.19-11.27-.82-3.2-3.07-5.31-5.06-7.75l2.57,4.41c.21,1.8.37,1.8.46.02.14-.95.25-1.91.35-2.86.19-1.21.52-2.55.66-3.84.29-2.77.47-5.5.32-8.3s-.1-5.97-.82-8.63c-.89-3.24-3.13-5.38-5.2-7.85l2.57,4.41-.33-.88v5.32c-.36,1.6.8-.92,1.02-1.33.94-1.71,1.58-3.98,1.58-5.96,0-2.17-.74-4.24-1.67-6.16-.79-1.54-.8-1.46-.03.24.14-.75.22-1.5.25-2.26.05-1.3-.38-2.7-.33-3.92.05-1.37.71-3.02.82-4.51.17-2.19-.06-4.08-.98-6.08-.4-1.24-1.09-2.31-2.07-3.22-1-1.44-.98-1.16.07.83v5.32l.29-.9-2.57,4.41c2.92-3.71,5.98-6.88,5.32-12.01-.55-4.25-3.35-6.46-5.87-9.52l2.57,4.41-.24-.75v5.32c-.46,1.7.8-.8,1.02-1.19,1.17-2.1,1.59-4.33,1.54-6.7-.08-3.71-1.26-7.35-1.83-10.98v5.32c-1.38,4.08.75.03,1.42-1.11.83-1.41,1.24-3.03,1.49-4.61.46-2.85.44-5.92.54-8.81.18-5.32-2.14-8.48-1.26-13.99,1.11-6.91.79-9.76,2.81-16.33.42-1.38,2.2-4.47,2.2-6.95,0-2.06-.59-4.16-1.51-5.98-.26-.51-1.03-2.96-.81-1.52l-1.01,7.71c-.49,1.09.35-.36.72-.82.87-1.06,1.68-2.07,2.31-3.28,1.32-2.53,2.48-5.34,2.97-8.14s1.05-5.89.33-8.68c-.66-2.59-2.06-4.01-3.28-6.24l1.37,5.05c-.32-2.47,3.48-9.87,5.01-12.23s2.58-7.07,2.65-9.94c.08-3.43-1.6-6.12-2.89-9.12l1.37,5.05-.06-.94-1.37,5.05c-.59,1.17.22-.15.67-.67.88-1.02,1.69-2.04,2.33-3.23,1.72-3.17,1.13-6.4,1.26-9.73l-1.37,5.05c-.71,1.35.8-.7,1.07-1,1.31-1.45,2.48-3.33,3.01-5.23s.45-4.36-.03-6.26c-.41-1.64-1.08-5.93-.97-1.46l-1.37,5.05c2.29-5.35,4.82-10.6,7.45-15.79s.53-10.63,3.52-14.81l-3.59,3.59c3.27-2.37,6.76-4.42,7.91-8.61.51-1.87.49-4.24.03-6.11-.36-1.13-.8-2.23-1.32-3.3-.77-1.74-.72-1.27.14,1.39l-1.37,5.05c-1.52,2.19-.98,1.53.71,0,.91-.82,1.7-1.63,2.39-2.67,1.24-1.85,2.34-3.88,3.21-5.93.93-2.18,1.72-4.46,2.13-6.79.25-1.42.25-2.4.15-3.82-.08-.66-.17-1.32-.27-1.98-.27-.68-.19-.82.23-.44l-2.93,7.07c-.79.97.46-.21.99-.57.98-.67,1.96-1.37,2.79-2.22.96-.99,5.11-7.39,3.35-9.22,0-1.14-.26-.89-.79.77-.93,1.5-1.04,1.83-.32.97,1.04-.31,2-2.35,2.59-3.41,1.22-2.23.97-6.13,1.18-7.27l-2.57,4.41c.7-.88,3.12-2.76,4.24-4.36,1.46-2.08,2.38-4.41,3.87-6.48,3.74-5.17,2.86-9.02,1.54-14.77v5.32l.12-.79-2.57,4.41c-2.31,1.18-2.85,1.53-1.62,1.05.98-.34,1.93-.74,2.87-1.18,1.25-.68,2.4-1.52,3.39-2.55,2.01-2.09,3.79-5.66,4.66-8.42.53-1.68.41-3.4.64-5.08-.41,2.87.47-.45,1.09-1.36.67-.99,1.77-1.88,2.45-2.94.49-.76,2.18-4.6,1.91-4.15.8-1.32,3.78-4.4,5.31-6.46,1.32-1.78,2.53-3.33,3.97-4.92,2.01-2.21,3.67-4.49,5-7.19,1.02-2.07,1.54-3.62,1.68-5.93.04-.61.62-3.13.02-1.5l-2.57,4.41.72-.6-4.41,2.57c2.93-1.18,5.9-1.98,8.22-4.29,1.91-1.9,1.99-3.53,3.29-5.75-.83,1.43,1.6-1.88,1.59-1.87,1.3-1.63,2.38-3.2,2.95-5.27l.36-2.66c.48-2.62-.31-1.56-2.38,3.17.36.09,5.27-2.15,2.16-1.73-2.25.3,1.67-.21,2.48-.57,3.65-1.63,4.85-4.11,6.89-7.18,1.22-1.82,2.92-3.33,4.51-4.88,4.61-4.47,8.59-9.33,12.99-13.97,2.1-2.22,4.29-3.43,6.08-6.05.93-1.36,2.18-2.72,3.81-4.54.56-.63,2.73-2.93,2.36-3.5-.27.09-.19.03.24-.2l-1.84.14c3.72-.02,6.25-.38,9.47-2.46,2.75-1.77,5.46-3.97,7.7-6.36.46-.49,3.22-3.37,2.87-4.06.75,1.47-5.84,2.56,1.05.48-.99.3-2.46.95,2.15-.2,2.02-.5,3.98-1.54,5.48-2.97,2.43-2.33,3.14-5.33,4.33-8.31l-2.57,4.41.61-.7-4.41,2.57c3.55-1.41,4.87-1.08,8.48-2.12,2.19-.63,4.05-1.73,5.61-3.39-.27.28,3.63-4.76,2.17-3.4l-4.41,2.57c-2.72-.11-3.03-.06-.95.17.79.14,1.58.22,2.38.24,1.88-.02,4.32-.63,5.94-1.58s3.29-2.63,4.25-4.23c.22-.37,1.76-2.72.56-1.58l-4.41,2.57c1.04-.4,4.08-1.17,4.06-1.17,2.77-.38,4.89.02,7.52-1.38,1.62-.86,3.19-2.02,4.69-3.08,1.07-.67,2.03-1.48,2.85-2.43-1.73.69-1.69.69.13,0,1.86-.68,3.75-1.32,5.6-2.03.45-.17,6.67-3.7,6.28-3.91-3.34,1.11-3.89,1.61-1.65,1.51,1.27-.14,2.53-.32,3.78-.55,2.27-.68,4.26-2.07,6.37-3.08l-5.05,1.37c2.5-.27,6.97.53,10.35-1.63,1.72-1.1,3-2.55,4.03-4.29.47-1.09.93-2.18,1.39-3.27-.41.81-.36.76.17-.12l-3.59,3.59.54-.39-5.05,1.37c2.43-.26,4.89.1,7.29-.56,1.98-.54,3.61-1.72,5.55-2.24,3.06-.82,6.15-.9,9.27-1.16,4.19-.36,7.38-1.5,11.23-2.87,2.27-.81,4.52-1,6.72-2.11,1.34-.68,3.5-2.27,4.06-2.52l-5.05,1.37c2.79-.07,5.59.28,8.38.24,3.03-.05,5.77-1.78,7.68-2.46h-5.32c-2.2-1.5-2.56-1.68-1.08-.54.88.79,1.83,1.49,2.86,2.08,1.72.94,3.88,1.51,5.83,1.51,4.42,0,7.3-2.88,10.38-5.57l-4.41,2.57c-.19.08,3.25.16,4.12.04,2.06-.27,3.77-1.13,5.73-1.68h-5.32c2.07.28,3.85,1.23,5.98,1.45,2.7.28,5.4.3,8.12.3,2.3,0,4.45-.24,6.75-.54s5.77-1.71,7.13-2.03h-5.32c-.49-.09.66,0,1.02.18,1.15.57,2.29.95,3.52,1.23,3.06.69,5.34-.23,8.14-.92,3.31-.81,6.55,0,9.92.71,1.33.28,2.8.44,4.17.37,1.55-.08,1.72.1.17-.45,2.5.89,4.44,2.31,7.24,2.3,4.39-.01,7.97-2.41,11.99-3.11l-7.71-1.01c-2.06-.92-2.43-2.64-.71-.22.93,1.31,1.87,2.45,3.16,3.42,2.84,2.13,7,3.2,10.49,1.96,2.32-.82-.99-1.08.39-.23,1.22.76,3.42,1.04,4.84,1.04,3.43,0,6.04-1.64,8.97-3.09l-5.05,1.37c-2.1-.67-2.59-.68-1.48-.02.87.64,1.84,1.09,2.91,1.36,1.37.47,2.62.68,4.05.96,2.66.53,4.98,1.4,7.43,2.42,2.96,1.23,6.31,2.76,9.57,2.83,3.44.08,6.12-1.61,9.13-2.91l-5.05,1.37c-2.25.15-.3-.02,1.1.76-1.22-.69-1.06-.66-.1.25,2.12,2.02,4.85,2.94,7.58,3.8,2.31.73,4.5,1.23,6.92.85,1.37-.21,2.14-.46,3.41-1.01,2.39-1.04,2.84-.44-.32-.44l-5.05-1.37c-1.67-1.71-1.9-1.82-.66-.33.47.63.96,1.24,1.47,1.84.79.78,1.84,1.51,2.81,2.07,2.33,1.33,6.82,2.91,9.55,2.72,2.07.45,1.82.11-.77-1.03l.87.91c1.24,1.22,2.64,2.03,4.19,2.69,2.73,1.16,5.79,1.26,8.6,2.19,2.38.79,4.48,2.24,7,2.78l2.66.36c-2.21-1.27-2.8-1.44-1.76-.51.36,1.07,2.32,2.04,3.4,2.64,5.45,3,10.62,2.74,15.67,4.71l-4.41-2.57c-.76-.7-.11.11.13.63.5,1.06,1.28,2.15,2.09,2.98,2.05,2.11,4.22,2.5,6.7,3.86,1.77.97,3.14,2.49,5.04,3.32s5.05.66,6.16.93l-4.41-2.57c1.82,1.72,3.27,4.51,6.26,5.83,1.57.69,2.98,1.05,4.77,1.1l1.11-.07c3.37-.33,3.55-.45.52-.35l-4.41-2.57.52.58-2.57-4.41c1.68,4.19,2.53,8.15,6.84,10.56,1.49.83,3.62,1.32,4.38,1.55.8.25,2.69,1.69,3.49,1.4,1.31.45.95-.1-1.06-1.64-2-2.58-2.21-2.38-.64.59,1.11,2.08,2.65,3.94,4.67,5.2.43.27,3.71,1.77,3.73,1.72-.07.22-2.55-3.11-1.01-.57s4.27,4.71,7.22,5.57c1.18.34,2.41.43,3.64.56.69.07,2.26.57,1,.07l-4.41-2.57c2.07,2.13,2.48,3.43,3.92,5.61,1.93,2.9,5.12,4.64,7.9,6.63,2.24,1.6,3.94,3.89,6.31,5.35,2.89,1.78,6.07,1.69,9.28,2.1l-5.05-1.37.85.41-3.59-3.59.37.71-1.37-5.05c.39,4.41-.12,8.65,3.36,12.13s7.65,2.95,12.04,3.2l-5.05-1.37.72.34-3.59-3.59c1.72,2.44,2.53,5.19,4.92,7.23l1.08,1.05c-.71-1.74-.95-2.06-.73-.96-.59.69,1.35,4.04,1.54,4.37,1.56,2.68,4.62,5.3,7.26,6.94,1.26.78,2.62,1.23,4.05,1.54l2.66.36c1.89.15,1.5-.11-1.19-.78l-3.59-3.59c.27.46,1.22,3.13,1.96,4.32s1.69,2.14,2.63,3.1c2.06,2.11,0-.74.37.74.7,2.83,1.95,5.02,4.14,6.93,1.49,1.29,4.4,2.48,5.29,3.15l-4.6-5.98c-.51-1.24,0,.3.08,1.01.16,1.41.3,2.74.74,4.08,1.05,3.18,3.49,5.3,5.58,7.78,1.62,1.92,2.95,3.99,5.15,5.33s4.23,1.42,6.63,2.16l-4.41-2.57.62.48-2.57-4.41c1.74,4.68,1.21,11.22,6.64,15.17,1.02.75,3.03,2.25,4.36,2.25-2.89-3.89-4.05-4.78-3.47-2.67.09.58.28,1.13.57,1.65,1.29,3.56,4.29,5.4,6.23,7.49l-2.57-4.41c-.98-4.31-.7.26-.7,1.74,0,1.85.63,4.38,1.57,5.98.99,1.68,2.61,3.22,4.22,4.27.4.26,2.45,1.91,1.33.68l-2.57-4.41c.52,1.61,1.36,5.76,2.65,8.36.68,1.38,1.39,2.65,2.27,3.9,1.78,2.8,2.07,2.71.88-.3v1.25c.04,3.57,1.99,7.14,3.46,10.29,1.32,2.84,2.56,5.95,4.18,8.61.74,1.21,2.35,2.42,2.87,3.19.41.61,1.05,2.31,1.57,3.31.78,1.53,1.98,2.71,2.82,4.17.66.8.52.61-.42-.59.16,1.73.33,1.98.52.77.26-1.14.25-.96-.02.55-.35,1.07-.45,2.15-.3,3.24.04,2.35.71,4.24,1.74,6.31,1.29,2.59,3.54,5.17,4.74,7.18l-1.37-5.05c.11,1.96-.71,5.84.44,8.72.62,1.54,1.35,2.79,2.54,4.02.29.3,2.15,2.38,1.31.92l-1.37-5.05c.79-2.8.62-2.67-.52.4l-.38,1.04c-.63,2.52-.48,5.06.48,7.46.66,1.64,1.53,2.94,2.82,4.2.76.66,1.56,1.28,2.38,1.86,1.48,1.06,1.22.67-.78-1.18l-1.37-5.05c.08,2.05-.25,3.99.08,6.04.03.97.27,1.89.71,2.77,1.02,2.83,1.26,3.21.74,1.14l1.37-5.05c-2.21,4.6-3.76,8.06-2.3,13.23.57,2,1.35,4.35,2.44,6.11.67,1.03,1.45,1.97,2.34,2.81,1.01.91,1.17,1.03.5.38l-1.37-5.05c.13,1.01.19,2.03.19,3.05,1.05-1.92,1.09-2.11.12-.57-1.2,2.2-2.08,4.43-2.08,6.99,0,2.86,1.33,5.72,3.28,7.79.83.83,1.74,1.58,2.73,2.23,1.47,1.13,1.21.82-.79-.91l-1.01-7.71c-.36,2.7-1.91,6.41-1.38,10.07.06.41.33,3.8.36,2.62.03-1-.55,3.76-.51,4.57.25,5.49,2.64,11.18,2,16.52-.37,3.11-.99,6,0,9.11.34,1.03.77,2.02,1.32,2.95.5.97.45.73-.17-.73-.28,1.31-.32,3.27-.08,4.55l.04,1.52c.83-1.81.93-2.24.3-1.26-.91.66-1.57,2.74-1.88,3.75-.97,3.14-.78,7.54-.09,10.75.31,1.43.73,2.81,1.46,4.1.57,1.36.36.75-.63-1.84-.06.76-.19,1.52-.38,2.26-.85,3.44-1.91,6.36-.85,9.97-.11-.37,2.76,6.19,3.19,5.35l-1.48-3.93c-.13.94-.26,1.89-.39,2.84-.22,1.86-1.48,8.52.06,10.05,2.08-4.23,2.34-5.24.78-3.02-.49.61-.96,1.24-1.4,1.88-1,1.72-1.15,2.97-1.57,4.77-.57,2.47-.98,4.96-1.36,7.47-.5,3.34-.66,6.82-.91,10.19s1.33,6.27,1.78,8.89v-5.32c-.94,3.09-1.91,5.27-2.01,8.57-.08,2.6.36,5.1.52,7.69l1.37-5.05c.39-.87.69-.65-.25.03-.55.4-1.03.84-1.5,1.33-2.23,2.34-3.12,5.38-3.3,8.55-.12,2.27-.26,4.7.32,6.92.3,1.16.8,2.31,1.4,3.35.24.42,1.02,2.21.8,1.03l1.01-7.71c-.31.74-1.83,2.79-2.53,4.18-1.3,2.6-1.5,5.22-1.4,8.07.52-1.57.55-1.86.07-.89-.53.92-.96,1.89-1.3,2.91-.73,2.23-.71,4.45-.8,6.75-.09,1-.14,2-.15,3.01.07,2.02.16,2.05.28.08-.55,1.49-1.76,2.84-2.17,4.47-1.2,4.72,1.18,8.01,3.24,11.89l-1.37-5.05c.35-1.85.24-1.94-.34-.26-.38.86-.73,1.73-1.04,2.62-.42,1.62-.33,3.31-.32,4.95,0,.52.12,3.83-.2,3.78,1.45-2.18,1.74-2.7.87-1.56-.66.84-1.31,1.68-1.95,2.52-1.69,2.77-2.43,6.73-1.47,9.91.31,1.75.44,1.61.4-.43.4-1.95.2-2.17-.6-.64-.81,1.02-1.25,2.93-1.62,4.17-.83,2.82-1.22,5.67-1.28,8.59-.03,1.26-.17,2.54-.18,3.8-.02,3.48,1.19-1.09-.4,1.08l-1.01,2.39c1.01-1.5,1.16-1.8.44-.89-1.16.73-1.84,2.31-2.47,3.53-1.96,3.79-.57,6.92-.5,9.91l1.37-5.05c-2.18,5.06-6.04,8.67-7.56,14.56-.49,1.9-.5,4.35,0,6.25.14.54.33,1.06.55,1.56.41,1.14.44.67.09-1.39-.69.64-1.85,3.98-2.08,4.32-2.28,3.36-4.48,5.32-4.35,9.76.06,2,.7,4.23,1.71,5.95l.52.96c-.12-4.09-.47-4.82-1.06-2.2l1.88-2.48c-.97.72-1.91,1.46-2.84,2.23-1.1,1.14-1.98,2.54-2.59,3.99-.84,2.01-1,4-.71,6.13.03.84.21,1.64.54,2.41,1.17,3.03,1.32,3.19.46.5l1.37-5.05c2.14-2.02,1.96-2-.54.08-.94.75-1.72,1.65-2.33,2.7-1.88,2.43,1.17-1.53-1.15,1.5s-4.5,7.06-5.29,10.97c-.65,3.19-.61,6.98-1.3,9.18-.96,3.08-2.64,5.98-3.75,9.01-.07.39-.19.76-.36,1.11-1.43,2.22-.63,2.06,2.41-.48-1.26.15-3.02,1.19-4.1,1.84-2.43,1.47-4.26,3.86-5.11,6.56-.32,1-.39,4.9-.7,5,1.62-3.1,1.71-3.82.28-2.14l-1.56,2.02c-1.3,1.97-1.47,4.28-2.53,6.24.84-1.53-2.24,2.19-2.44,2.54-1.2,2.08-1.6,4.51-2.45,6.72l2.57-4.41c-1.81,1.97-4.56,4.08-6.43,6.96s-2.55,5.61-3.48,8.74c-.74,2.5-1.29,3.04-3.18,5.59-.87,1.18-1.87,2.39-2.61,3.66-.55,1.11-1.05,2.25-1.5,3.42-.62,1.77-.35,1.57.82-.61l4.41-2.57c-2.03.72-4.18.93-6.08,2.05-2.45,1.43-4.8,4.11-6.41,6.4-1.41,2.01-2.06,4.72-2.6,6.19-.48,1.31-1.9,2.61-.16,1.07-1.19,1.05-2.76,1.76-3.96,2.89-1.83,1.72-3.81,3.99-4.97,6.18-.78,1.49-1.25,3.08-1.36,4.76-.43,2.37-.08,1.81,1.05-1.67l-1.05,1.08c1.8-.64,2.15-.83,1.05-.57-.53.09-1.06.22-1.57.39-1.54.49-2.94,1.26-4.18,2.29-2.41,2-3.39,5.27-4.53,7.13-6.74,11.01,10.55,21.06,17.27,10.09Z"/>
  <path d="M831.37,445.21c1.93-3.06,4.42-5.64,7.13-8.1l-4.41,2.57c-2.34.76,4.48-.17,4.06-.07,2.05-.48,3.74-1.36,5.31-2.79.57-.52,4.14-4.45,1.23-1.75.98-.91,3.42-2.58,3.76-2.77l-5.05,1.37c-2.33-.56-2.65-.53-.95.11,1.56.9,3.24,1.36,5.05,1.37,2.24.1,4.26-.44,6.37-1.09,2.5-.77,4.58-1.4,6.54-3.23,1.34-1.25,1.99-2.39,2.65-3.04l-4.41,2.57.71-.3h-5.32c1.61.23,3,.97,4.59,1.33,1.38.39,2.77.46,4.16.21,3.07-.35,3.55-.44,1.43-.28l-4.41-2.57c3.28,2.6,6.16,5.07,10.65,5.01,1.87-.03,3.66-.44,5.3-1.3,2.25-.82,1.54-.85-2.13-.08,1.51.47,1.96.55,1.34.21l-3.59-3.59c1.61,2.22,2.83,4.55,5.16,6.15,1.96,1.35,3.59,1.99,6.06,2.15,1.29.08,6.22.34,2.26-.38l-4.41-2.57c-1.48-1.26,2.45,3.42,2.28,3.24,1.43,1.51,3.09,2.57,5.08,3.21,1.65.53,3.31.51,4.99.89-4.85-1.08,1.76,1.26,1.54,1.13l-3.59-3.59c-.16-1.06-.08-.96.24.3.41,1.13.87,2.25,1.37,3.35.47.93.8,1.21,1.5,2.75,2.01,4.44,6.14,5.92,8.89,8l-3.59-3.59c-.39-.85,0,1.33.08,1.65.45,1.75,1.55,3.68,2.79,4.95.78.79,1.76,1.61,2.7,2.18.24.14,2.59,1.65,1.38.45l-2.57-4.41c-.39-1.1.42,2.15.43,2.19.29,1.75.59,3.21,1.53,4.81,1.29,2.2,3.42,3.37,4.93,5.31l-2.57-4.41.16.9v-5.32c-.5,3.19-1.39,6.18-.5,9.42.45,1.62,1.38,3.05,2.4,4.35.47.68,1.01,1.31,1.61,1.87-.8-1.6-.84-1.6-.13,0,1.47,4.43,5.17,8.39,4.56,12.92l1.37-5.05c-1.04,2.39-2.21,4.62-2.43,7.25-.29,3.56.92,5.41,1.97,8.58-1.44-4.32.68,1.84.09-.48.46-.84.5-.88.14-.1-.43.98-.85,1.96-1.25,2.95-.36,1.21-.48,2.52-.61,3.77-.05.46-.64,4.36-.06,2.26s-.92,1.54-.92,1.54c-.73,1.71-1.11,2.97-1.21,4.94-.05,1.01.1,2,.11,3-.01-2.2.08-1.05-.71.73-2.45,5.53-.15,9.35,2.24,14.23l-1.37-5.05c-.17-2.16-.69,4.09-.69,4.05-1.06,2.3-.59,1.98,1.42-.98-.99.69-1.92,1.44-2.81,2.26-3.08,3.25-4.06,8.09-5.62,12.18-.7,1.83-1.62,3.66-2.17,5.54-.35,1.36-.58,2.74-.69,4.14,1.3-2.44,1.25-2.93-.14-1.48-1.77,1.48-2.97,4.11-3.45,6.27-.38,1.24-.46,2.48-.24,3.73.29,3.39.45,3.55.48.45l2.57-4.41c.94-1.06-1.15.53-1.45.72-1.36.87-2.51,1.96-3.45,3.27-1.94,2.72-1.76,6.05-2.37,8.29l2.57-4.41c3.02-2.83-.64-.33-1.84.37-1.35.79-2.59,1.98-3.51,3.21-2.05,2.75-1.68,5.97-2.38,8.38l2.57-4.41c1-.98-.46-.02-.99.25-1,.53-2.01,1.33-2.82,2.13-1.14,1.13-1.88,2.33-2.58,3.71l-1.01,2.39c.75-.86.78-.99.11-.39-1.97,1.96-3.84,3.47-4.74,6.33-.36,1.16-.62,2.33-.68,3.56-.03.57-.45,3.01.05,1.7l4.6-5.98c1.01-.75-.34.08-1.02.33-1.12.43-2.26.83-3.29,1.45-1.33.8-6.6,5.61-5.62,7.94-.32,1.08-.05.9.81-.53,1.19-1.18,1.33-1.47.43-.86-.96-.08-2.64,1.76-3.44,2.59-1.73,1.8-2.57,5.04-3.44,6.52l3.59-3.59c5.03-2.73-3.71.56-4.3.87-1.83.97-3.35,2.21-4.44,4.03-.83,1.38-1.28,2.85-1.6,4.39-.74,3.56-.45,3.55.87-.04-1.17.97-1.45,1.36-.83,1.2l5.05-1.37c-4.7.59-8.54,1.42-12.68,3.88-2.36,1.4-4.13,3.32-5.19,5.84-.54,1.27-.7,2.12-.89,3.48-.1.62-.18,1.25-.23,1.88-.15,1.35.03.75.55-1.78l3.59-3.59-.86.37,5.05-1.37c-2.73.32-5.41.26-7.94,1.49-2.71,1.32-4.76,4.17-6.3,5.62l4.41-2.57c-.66.21-3.08.18-4.41.55-1.85.52-3.27,1.41-4.82,2.46s-3.23,2.09-4.55,3.52c-.72.78-3.51,4.45-3.03,5.43,2.21-2.27,2.54-2.99,1.02-2.15-.7.31-1.39.64-2.08.98-1.06.49-2.12,1.01-3.21,1.44-3.29,1.31-6.7,3.4-9.06,4.81l5.05-1.37c2.67.95,3.12,1.06,1.36.34-1.06-.56-2.16-.98-3.31-1.27-2.85-.68-5.91-.35-8.5,1.07-1.72.94-2.86,2.27-4.15,3.65.88-.54.73-.45-.46.28-.91.58-1.73,1.25-2.48,2.01-1.05.93-.51.73,1.61-.61-1.01.26-2.04.38-3.07.35-1.94.08-2.81.02-4.07-.06-3.31-.22-5.71-.57-8.86,1.04-1.39.71-3.31,2.3-4.1,2.66l5.05-1.37-.93-.1,5.05,1.37c-4.93-2.25-9.93-4.48-15.11-1.23-1.45.91-.87.34.34.3-1.01.03-2.02-.02-3.02.05-2.64.2-5.29,1.88-7.1,2.42-12.32,3.63-7.07,22.94,5.32,19.29,1.66-.49,3.04-1.39,4.61-2.02-2.07.82-.56.32.95.22s3.04-.28,4.51-.74l2.39-1.01c1.68-.85,1.38-.89-.91-.13l-5.05-1.37c2.91,1.36,5.62,2.94,8.96,2.95,3.82,0,6.53-2.76,9.15-4.03l-5.05,1.37c4.06-.13,10.79.75,15.94-.59,2.93-.76,4.89-2.47,7.04-4.16.68-.53,1.98-1.27,2.76-2.02.28-.27,2.29-2.23.79-1.26l-5.05,1.37c-1.85.14-3.34-1.05-.16.19,1.65.64,2.86,1.13,4.77,1.11,2.96-.02,5.5-1.08,7.84-2.81.56-.41,3.49-2.13.83-.92.92-.42,1.93-.7,2.86-1.08,2.69-1.09,5.33-2.29,7.96-3.54,2.43-1.15,4.6-2.36,6.23-4.58.47-.64,2.69-3.91,2.25-4.41l-1.83,2.31,1.23-.86c-1.53.15-1.74.21-.62.17.67.02,1.34-.04,2.01-.19,1.72-.25,3.3-.64,4.85-1.54,1.95-1.14,4.16-4.19,5.1-5.11l-4.41,2.57c-1.1-.13-.98-.18.38-.15,1.24-.14,2.47-.3,3.71-.48,1.82-.5,3.96-1.63,5.27-2.94s2.47-3.28,3.02-5.07c.3-1.18.49-2.39.57-3.61.23-1.89.06-1.48-.52,1.21l-3.59,3.59c1.59-.93,3.25-1.82,4.92-2.59l-5.05,1.37c4.94-.59,8.72-1,12.33-4.78,1.46-1.53,3.02-3.38,4-5.23.28-.53,3.41-9.42.82-4.39l-3.59,3.59c-2.73,1.42-1.25.9,1.36.24,1.15-.29,2.33-.72,3.37-1.32,1.53-.88,6.48-5.34,5.78-7.82.38-1.06.15-.86-.69.58-1.12,1.21-1.24,1.51-.35.89.91.13,2.64-1.79,3.42-2.61,1.79-1.87,2.41-5.17,3.13-6.65l-3.59,3.59c-1.26.9,1.04-.32,1.54-.49,2.37-.82,4.41-2.14,5.95-4.14,1.31-1.69,1.97-3.55,2.31-5.62.08-.48.67-4.57.11-3.04l-2.57,4.41c1.38-1.44,2.98-2.5,4.19-4.13.82-1.11,1.55-2.23,1.98-3.56.95-2.91-2.58,1.25-.31.39,1.98-.75,4.1-2.92,5.16-4.73,1.35-2.3,1.13-5.62,1.6-7.37l-2.57,4.41c-3.12,2.82.73.3,1.86-.36,1.35-.79,2.57-1.98,3.5-3.22,2-2.7,1.79-6.01,2.37-8.29l-2.57,4.41c-1.08,1.17,1.1-.48,1.47-.72,1.61-1.03,3.24-2.62,4.21-4.29s1.52-4.06,1.56-5.97l-.11-1.07c-.27-4.29-.74-3.56-1.42,2.21,2.72.18,4.34-7.23,4.74-8.96.62-2.76,1.71-5.29,2.72-7.95.42-1.11,1.06-2.31,1.29-3.49,1.01-2.29.53-1.95-1.44,1.04l2.02-1.56c2.55-2.37,3.81-5.49,4.87-8.74.93-2.85,1.52-6.38,1.4-9.37-.13-3.44-1.96-5.66-3.4-8.54l1.37,5.05c-.77,2.49-.73,2.88.1,1.18.54-1.12,1-2.27,1.37-3.45.42-1.74.6-3.89.29-5.66-.57,1.57-.62,1.87-.13.89.53-.93.96-1.9,1.3-2.92.53-1.65,1.19-4.2.87-5.97.18-1.2.02-1.01-.46.59.5-1.17,1-2.33,1.49-3.5.52-1.71.55-3.52.48-5.28-.14-3.47-1.61-7.69-2.22-10.08v5.32c.47-2.77,2.01-6.31,1.39-9.99-.5-2.99-1.24-5.95-2.28-8.8s-2.6-5.16-3.72-7.85c-.97-2.34-3.08-5.01-3.97-6.39l1.37,5.05c.18,1.39,0-.65.14-1.45.37-2.09.41-4.16-.16-6.22-.98-3.56-3.77-5.13-5.94-7.7l2.57,4.41c-.43-1.39-1.08-5.78-2.74-8.01-.98-1.31-2-2.34-3.45-3.22-.34-.21-2.76-1.65-1.41-.42l2.57,4.41c-1.12-2.73-1.17-5.52-3.1-7.97s-5.29-3.65-7-4.82l3.59,3.59c.32.51-.89-1.93-.94-2.03-.06-.13-1.83-3.2-1.02-1.46-1.2-2.59-1.7-4.98-3.82-7.1-3.71-3.71-9.71-4.32-13.33-5.6l4.41,2.57c1.17,1.12-.53-1.02-.69-1.26-1.09-1.63-2.57-3.18-4.28-4.18-3.28-1.92-7.38-1.03-9.97-1.34l7.07,2.93c.37.9.24.75-.38-.45-.7-.99-1.44-1.95-2.2-2.89-1.86-1.86-4.15-2.81-6.63-3.48-2.09-.57-4.41-1.03-6.56-.95-.63.03-10.06,1.94-3.9,1.35l5.05,1.37c-2.5-1.12-5.59-3.77-9.23-3.9-.68-.02-5.87.24-3.58.52,1.64.21-1.91-.84-2.31-.93-3.88-.95-8.09-.02-11.01,2.79-.78.75-2.83,2.77-2.89,3.53l2.53-2.39c-1.49.36-1.84.49-1.06.38l5.05,1.37c-5.03-2.19-9.36-4.28-14.69-1.2-3.32,1.92-6.13,5.34-8.55,7.37l4.41-2.57c1.13-.28.33-.25-.4-.32-1.17-.11-2.57.04-3.7.33-2.8.74-4.91,2.4-6.88,4.45-3.26,3.4-6.13,6.54-8.66,10.55-6.9,10.91,10.4,20.96,17.27,10.09h0Z"/>
  <path d="M171.24,412.26c-.98.03-6.56.4-6.96,1.75.29-.99,6.12.26,1.23-.99-.98-.25-1.93-.54-2.89-.84-2.47-.76-5.06-1.31-7.64-.67-3.27.81.84.55-.67.26-.93-.18-1.85-.67-2.8-.87-2.89-.62-6-.21-8.59,1.28-.45.26-2.92,2.05-2.87,2.15-.6-1.15,7.51-.24,3.7-1.96-2.71-1.22-6.86-.24-9.25,1.1-1.02.57-1.92,1.33-2.83,2.07-.43.35-1.96,1.22-.67.59l5.05-1.37c2.55.74,3.22.8,2.03.18-.89-.54-1.84-.96-2.84-1.27-1.14-.36-2.29-.68-3.51-.71-2.97-.05-5.69,1.07-8.48,1.96-3,.96-5.99,1.73-8.31,4.01-.96.94-1.68,1.98-2.3,3.15l-1.01,2.39c-.68,1.73-.35,1.42.97-.95l4.41-2.57c2.64.11,2.93.05.87-.17-.78-.14-1.56-.22-2.35-.24-1.61.02-3.24.44-4.69,1.1-3.1,1.41-4.57,4.4-5.84,6.04l4.41-2.57c-.77.32-4.45.93-6.11,1.77-1.84.93-3.24,2.17-4.66,3.64-1.34,1.38-2.66,2.76-3.57,4.47-.32.59-3.54,9.45-.84,4.21l3.59-3.59c2.74-.7,3.17-.97,1.3-.82-1.2.14-2.39.31-3.59.5-2.86.84-4.93,2.6-6.65,4.98-2.06,2.86-4.57,4.94-6.99,7.54-2.64,2.83-5.17,6.78-6.95,10.23-2.3,4.46-.95,8.12.06,12.59v-5.32l-.12.78,2.57-4.41-.58.54,4.41-2.57c-3.63,1.46-7.16,2.06-9.69,5.44-1.51,2.02-2.28,4.43-2.28,6.98.11,1.27.3,2.52.59,3.76.44,1.36.48,1.54.13.54l2.93-7.07c.81-1.01-.79.59-1.26.91-1.63,1.13-3.12,2.59-4.14,4.32-.87,1.47-1.22,3.17-1.37,4.84-.21.85-.24,1.71-.08,2.57,1.75-2.83,2.05-3.63.91-2.41-3.12,1.76-3.86,6.89-4.23,9.97-.27,2.27.1,6.54.07,7.74l1.37-5.05c-2.17,4.82-5.5,10.05-4.25,15.77.31,1.43,1.1-1.75-.43.37-.91,1.26-1.37,3.29-1.57,4.8-.44,3.3,1.12,6.27,1.5,8.57v-5.32c-.49,1.9-2.13,5.36-1.79,8.39.19,1.7.57,3.05,1.43,4.61.8,1.45,2.5,5.38,1.23,1.17v-5.32c1.21-4.12-.53-.16-1.31,1.24-1.23,2.23-1.76,4.76-1.43,7.27.52,3.87,2.87,6.26,5.21,9.14l-2.57-4.41.33.87v-5.32c-.54,3.2-2.45,6.79-1.05,11,.37,1.23.92,2.37,1.66,3.42.02-3.65-.21-4.35-.68-2.08-.66,2.3-.44,4.92.2,7.17.31,1.07.73,2.1,1.23,3.1.06-2.93-.04-3.36-.31-1.3-.6,2.52-.43,5.27.58,7.65,1.66,3.92,4.81,5.29,8.12,7.41l-3.59-3.59.47.63-1.37-5.05c0-.95,1.42-3.72.02-1.86-.73.97-1.31,2.47-1.64,3.63-.78,2.71-.48,5.15.44,7.77.87,2.48,1.98,5.24,3.77,7.2.91,1,1.91,1.85,3.1,2.55.37.22,1.96,1.41,1.11.47l-2.57-4.41c-.86-4.49-.54-.55-.56.98-.02,1.36.1,2.78.5,4.1.75,2.48,2.24,5.28,3.71,7.4.77,1.11,1.71,2.49,2.87,3.24,1.02.66-.76-2.18-.33.25.55,3.05,3.21,6.06,5.78,7.63.84.51,4.9,2.68,2.55.84-2.71-2.12,2.91,2.48,1.98,1.79,1.93,1.44-.22-1.14.27.51.33,1.1,2.28,3.29,2.81,3.89l1.05,1.06c1.35,1.47,1.53,1.29.56-.53-.61-1.96-.75-2.02-.4-.18.09.8.21,1.59.37,2.37.79,2.81,2.97,5.47,4.89,7.62,2.07,2.33,4.29,3.42,7.17,4.48.56.21,1.49.42.46-.06.99.46,1.99,1.33,2.89,1.89,1.57.99.57,1.43.27-.33.29,1.7.57,3.12,1.47,4.69,1.57,2.73,4.02,4.7,7.05,5.6,2.76.82,3.86.74,5.96,1.44.42.14,1.99.57,1.78.51,1.31,1.05,1.58,1.14.84.29-.52-.68-.53-.69-.04-.04,2.09,2.18,3.7,4.12,6.07,6.06,2.73,2.24,5.68,2.98,8.9,4.21l-4.41-2.57c.7.63,2.06,2.64,3.18,3.66,2.37,2.16,5.15,2.72,8.1,3.61,1.87.57,3.66,1.38,5.56,1.82,2.08.48,5.96.1,6.96.23l-5.05-1.37c.76.53,3.02,2.84,4.77,3.63s3.76,1.37,5.61,2.11c2.96,1.18,4.98,1.84,8.11,2.29,1.31.19,2.96.26,3.92.67,2.2.93,3.66,2.32,6.22,2.76,1.86.32,3.19.17,5.13-.14,2.31-.37.09.29-.33-.02,3.52,2.54,10.38,1.38,14.52,1.58l-5.05-1.37c-1.05-.45.87.74,1.3,1.12,1.61,1.4,3.31,2.12,5.28,2.92,5.01,2.03,10.99-2.21,12.3-6.98,1.57-5.72-1.96-10.26-6.98-12.3l-.87-.35,4.41,2.57c-1.76-1.54-3.23-3.14-5.35-4.24-2.99-1.54-6.27-1.41-9.53-1.51-2.1-.07-3.45-.38-5.44-.93-2.62-.73-6.59-.11-8.07-.16l5.05,1.37c-3.1-1.4-5.07-3.16-8.62-3.87s-6.32-.93-9.48-2.21c-1.24-.5-3.07-.89-4.22-1.56,2.99,1.74-1.13-1.64-1.65-1.98-4.01-2.63-7.87-2.07-12.38-1.45h5.32c-3.18-.46-6.77-1.91-9.82-2.95l4.41,2.57c-.66-.57-2.03-2.62-3.18-3.66-1.74-1.58-3.73-2.16-5.83-3.11-1.62-.31-2-.44-1.13-.39.83.09.56-.22-.83-.94-.03-.05-1.93-2.33-2.68-3.07-2.35-2.31-6.37-5-9.62-5.83-2.53-.64-6.87-1.31-8.36-1.92l5.98,4.6c.75,1.11.03-.68-.12-1.25-.34-1.32-.94-2.59-1.66-3.74-1.41-2.25-3.61-4.41-5.68-6.05s-4.51-3.15-6.87-4.15c-.23-.1-2.91-1.29-3.25-.98l2.3,1.46-1.56-2.02c1.14,3.4,1.49,3.93,1.06,1.59-.07-.62-.16-1.24-.27-1.86-.33-1.29-.81-2.6-1.52-3.75-1.3-2.11-3.4-3.66-4.89-5.59-2.82-3.64-6.27-8.23-10.74-9.39-1.85-.95-1.67-.56.52,1.19,1.49,2.05,2.01,2.42,1.56,1.11.32-.91-1.02-3.03-1.62-4.02-1.1-1.8-2.85-3.74-3.86-4.76l-.64-1.39.46,3.25c.7-.36.38-4.16.3-5.06-.32-3.34-1.95-6.08-4.57-8.14-.47-.37-2.34-1.92-3.04-1.84,2.86-.35.61,5.94,1.03,5.93,1.45-.03,2.7-6.6,2.72-7.56.16-6.48-4.37-8.88-9-11.93l3.59,3.59-.44-.64,1.37,5.05c0-.08.37-3.32.3-4.73-.01-1.42-.3-2.78-.85-4.07-1.11-3.24-1.34-3.19-.68.17.18.16.58-6.94.4-7.65-.34-1.38-2-3.96-2.08-4.19v5.32c.34-2.4,2.32-6.4,1.42-9.93-.82-3.23-3.09-5.33-5.06-7.81l2.57,4.41-.31-.87v5.32c-1.22,2.01-1.27,2.24-.15.68.5-.62.98-1.26,1.43-1.92.94-1.63,1.63-4.07,1.63-5.95,0-1.98-.69-4.24-1.63-5.94l-.62-.89c-1.87-2.62-2.06-2.71-.58-.28v5.32c.3-1.3,1.97-4.71,1.97-7.06,0-2.68-1.35-4.89-1.68-7.24v5.32c.14-.39,1.88-2.79,2.24-4.24.51-2.05.18-3.69.21-5.68.07-3.82,2.07-4.35,2.78-8.63.37-2.23-.29-4.15-.39-6.35,0,2.37.14,1.97.41-1.18-1.41,2.21-1.63,2.8-.65,1.75,1.53-.68,3.21-4.34,3.64-5.82.18-1.26.35-2.53.51-3.8.01-1.91-.26-1.67-.83.71l-3.59,3.59c2.98-2.08,5.88-3.7,7.38-7.26,1.6-3.79.58-7.03-.21-10.81v5.32l.14-.92-2.57,4.41.56-.55-4.41,2.57c3.98-1.66,8.08-2.33,10.49-6.44s.85-8.26-.08-12.6v5.32c.22-1.17,3.49-5.1,5.13-6.72,3.05-3.01,5.43-5.97,7.94-9.44l-3.59,3.59c-2.77.67-3.22.93-1.33.8,1.2-.15,2.4-.32,3.6-.49,2.35-.69,4.39-2.04,5.88-3.96,1.25-1.61,1.96-3.33,2.38-5.33.72-3.64.44-3.55-.83.25.25-.98.62-1.33,1.13-1.07l-5.05,1.37c3.05-.37,6.03-.53,8.76-2.12,2.22-1.3,3.35-4.2,4.64-5.53l-4.41,2.57c-3.24-.13-3.14-.02.31.33l1.07.06c2.58-.07,4.95-.84,7-2.37,1.4-1.05,2.43-2.22,3.31-3.78.43-.93.83-1.87,1.2-2.82.64-1.73.35-1.41-.87.97l-4.41,2.57c1.85-.67,4.97-.91,6.47-2.12,1.34-.31.96-.48-1.14-.52-1.96-.53-2.43-.54-1.41-.02.27.61,3.04,1.44,3.71,1.63,2.8.79,5.96.38,8.5-.96,1.18-.62,2.15-1.48,3.21-2.3.53-.41,1.87-1.05.72-.55l-5.05,1.37c1.15.09,4.72,1.43,7.29.73,1.07-.29,2.3-.77,3.24-1.32.63-.44,1.24-.91,1.84-1.39,1.61-1.16,1.33-1.08-.85.24h-5.32c2.03.32,3.73,1.33,5.83,1.5,1.87.16,3.63-.47,5.46-.37-2.01-.11.45.4,1.27.64,2.39.7,5.19,1.6,7.68,1.61,1.13,0,2.5-.14,3.57-.43.73-.27,1.46-.57,2.18-.88,1.89-.72,1.58-.72-.94,0,12.84-.38,12.9-20.39,0-20h0Z"/>
  <path d="M384,833.81c-.56,3.77-1.23,7.18-.9,11.02.17,1.99.33,3.73,1.14,5.55.24.79.62,1.49,1.15,2.12,1.84,2.56,2.06,2.72.65.48v-5.32l-.26.73,2.57-4.41c-2.2,2.66-4.69,4.54-5.59,8.13-.51,2.04-.36,4.21.21,6.23-.06-.2,2.35,5.36,2.01,3.79v-5.32c-.52,2.68-1.29,5.2-1.46,7.96-.03.43-.41,3.25.04,1.64.67-2.37-2.11,4.14-1.69,2.83-.77,2.38-.91,4.78-.23,7.22.45,1.59,1.34,2.93,2.32,4.22.36.49.74.97,1.14,1.43.83,1.02.55.5-.82-1.56v-5.32l-.29.74,2.57-4.41c-2.05,2.39-4.33,3.98-5.33,7.2-.51,1.64-.68,3.22-.6,4.95.2,3.06.36,3.55.49,1.44.35-1.57.17-1.62-.53-.16-3.86,5.34-1.35,14.17-1.66,20.2l1.37-5.05-.43.7,3.59-3.59c-3.07,2.35-6.28,3.71-7.93,7.55-.99,2.32-1.13,4.92-.52,7.37.38,1.15.83,2.28,1.36,3.38.8,1.79.79,1.36-.04-1.29l2.93-7.07c.8-.97-1.17.49-1.6.75-1.62.98-3.3,2.56-4.28,4.18-.31.59-.58,1.19-.81,1.82-1.21,2.49-.37,1.79,2.52-2.12-.2.85-3.09.08-3.59.06-3.41-.18-6.9.3-10.26.83-2.76.43-5.39,2.05-7.25,2.73h5.32c1.33.26-.46-.46-.99-.77-1.04-.61-2.2-1.09-3.36-1.39-3.09-.81-5.85,0-8.89.43-2.82.39-5.62.35-8.21,1.7-2.09,1.1-3.61,2.73-5.36,4.28l4.41-2.57-.88.36h5.32c1.61.36-3.98-2.24-3.82-2.19-1.66-.51-3.38-.49-5.08-.51-1.89-.02-3.82-.04-5.68.4-1.21.3-2.37.74-3.48,1.32-1.32.59-1.45.72-.39.37,1.83-.32-2.42-.28-2.73-.32-2.35-.28-4.46-.82-6.85-.21-3.55.91-5.33,3.36-7.94,5.56l4.41-2.57-.74.27h5.32c1.01.22.11-.07-.43-.44-.97-.67-2.21-1.25-3.34-1.57-2.4-.68-4.88-.53-7.33-.32-2.81.24-5.26.84-7.54,2.51-1.08.79-1.66,1.48-2.5,2.5-.38.49-.75.97-1.13,1.46-.8,1.03-.43.63,1.12-1.21l7.71-1.01c1.52.35-2.21-1.48-2.57-1.63-1.98-.83-3.95-1.18-6.1-.9-2.03.27-3.74,1.01-5.46,2.15l-2.02,1.56c4.99-1.01,5.47-1.59,1.42-1.74,3.78.88-2.9-1.41-2.34-1.24-2.05-.63-4.37-.77-6.46-.23-3.57.91-5.37,3.38-7.99,5.59l4.41-2.57c3.99-1.46-3.01-.86-4.16-.83-1.82.05-3.91.22-5.65.62-.53.12-4.91,1.26-3.29,1.09-1.65.17-3.65-.54-5.27.12-1.93.1-1.1.69,2.48,1.78-.9-.8-1.84-1.55-2.82-2.25-1.22-.78-2.51-1.37-3.93-1.71-2.16-.51-4.13-.37-6.21.3-.58.19-8.98,4.13-3.48,2.3h5.32c1.76.37-3.98-1.97-3.73-1.9-1.68-.51-3.36-.51-5.08-.38-3.43.25-7.76,1.77-10.07,2.32h5.32c-3.86-.54-6.98-2.1-11.03-.9-1.84.55-3,1.18-4.05,1.51-.57.18-5.17,1.15-5.22,1.2,4.52,1.97,5.16,1.88,1.91-.27l-.93-.64c-2.61-1.43-5.7-1.97-8.6-1.25-3.5.87-5.43,3.34-8.04,5.47l4.41-2.57-.72.26h5.32c-1.19-.28-2.65-1.4-4.07-1.79-1.91-.52-3.61-.47-5.52-.31-2.12.17-4.38.21-6.41.89-2.88.97,1.51.71-3.4.12-2.81-.34-5.86-1.12-8.69-.34-1.79.49-3.71,1.62-5.06,2.92-.75.88-1.46,1.79-2.14,2.72-1.04,1.48-.63,1.26,1.23-.68l5.05-1.37c4.6.28.15-.66-1.41-1.05-2.46-.62-5.08-.45-7.4.53-1.91.8-3.43,2.05-4.68,3.66-.74.96-4.5,6.71-1.1,2.71l4.41-2.57c1.67-.54-1.04,0-1.53.04-2.16.17-3.95.65-5.78,1.8-4.63,2.92-4.6,6.71-5.29,11.46-.06.43-.62,3.49-.07,1.74.62-1.99-1.79,2.51-2.2,3.07-.4.71-.36.75.13.11-.43.37-.81.78-1.15,1.24-1.56,1.86-2.4,3.57-3.3,5.8-2.02,5.01,2.2,10.99,6.98,12.3,5.71,1.57,10.28-1.95,12.3-6.98l.39-.96-2.57,4.41c2.37-2.96,4.77-5.75,6.54-8.78,1.18-2.02,1.87-4.43,2.35-6.72.28-1.32.51-2.66.59-4.01.03-.45.36-2.38-.02-1.4l-4.6,5.98.73-.44-5.05,1.37c3.21-.33,6.31-.05,9.23-1.77,1.65-.96,3.2-2.68,4.17-4.28l.43-1c1.37-2.98,1.36-3.18-.02-.59l-7.07,2.93c-2.86-.78-2.75-.6.33.54l1.04.43c2.51.64,5.06.52,7.44-.45,1.63-.66,2.92-1.54,4.18-2.84.64-.78,1.26-1.58,1.86-2.39,1.06-1.53.64-1.27-1.26.77l-5.05,1.37c-2.46-.21,2.64.48,3.1.53,1.45.17,3,.39,4.46.49,1.99.13,3.78-.18,5.71-.58.12-.02,4.6-.96,2.7-1.08-1.02-.46-.83-.32.56.43.94.55,1.93.94,2.98,1.15,2.16.58,4.11.63,6.27.01,3.42-.97,5.06-3.31,7.64-5.34l-4.41,2.57.76-.26h-5.32l-1.65-.92,2.02,1.56c1.04.67,2.14,1.29,3.34,1.64,2.73.8,5.14.44,7.91.08,4-.51,8.63-2.44,11.72-3.2h-5.32c3.48.5,6.2,2.01,9.9,1.17,1.43-.32,2.68-1.03,4.04-1.53.98-.43.72-.37-.78.16,3.13-.09,3.54-.33,1.23-.71-2.44.16-.94.1.44.83,1.75.92,3.97,1.56,5.97,1.56s4.24-.71,5.93-1.66c1.4-.78,5.38-2.71,1.11-1.3h-5.32c-2.3-1.49-2.72-1.66-1.29-.51.88.77,1.82,1.46,2.81,2.08,2.33,1.28,4.7,1.58,7.31,1.4,3.81-.25,8.03.23,11.67-.96,2.61-1.01,3.21-1.28,1.79-.82,1-.1,2-.19,3-.26,1.25.07,3.11.89,4.58.86,4.77-.09,7.34-3.16,10.65-5.94l-4.41,2.57.74-.27h-5.32c2.9.6,6.73,2.32,10.34,2.56,1.79.12,3.33.02,5.06-.51.56-.17,8.94-4.29,3.46-2.37h-5.32c-1.66-.39,3.98,2.2,3.77,2.13,2.01.61,4.19.78,6.23.21,1.84-.51,3.76-1.6,5.15-2.89.87-.81,1.62-1.72,2.27-2.73,1.16-1.47.9-1.22-.78.76l-5.05,1.37c1-.07,2-.13,3-.19-1.98-.97-2.22-.98-.72-.02,1.92,1.33,4.56,2.13,6.91,2.13,4.72,0,7.36-3.16,10.61-5.91l-4.41,2.57.73-.27h-5.32c3.84.52,7.07,1.34,11,.99,2.51-.22,4.65-.53,6.9-1.73,2.81-1.49-2.75.38,1.23-.11-1.76-.83-2.15-.9-1.16-.22.45.37.94.7,1.45.99,1.68.94,4,1.57,5.96,1.57s4.25-.75,5.93-1.73c1.01-.7,1.96-1.47,2.86-2.31.92-1.03,1.07-1.17.47-.41l-5.05,1.37c3.88-.41,7.72-.96,11.57-1.57h-5.32c-1.19-.23,1.22.9,1.53,1.07,1.45.79,2.99,1.21,4.63,1.37,1.8.17,3.39-.01,5.1-.59-.79.27,3.93-2.11,3.13-1.84,5.35-1.84,11.32.12,16.86-1.37,3-.81,5.44-2.09,7.51-4.41-.39.43,3.97-5.77,3.07-5.37-1.24.54-4.01,4.74-.25,2.35,3.2-2.04,5.5-5.57,5.59-9.41.04-1.5-.19-2.92-.64-4.35l-1.01-2.39c-.77-1.71-.77-1.34-.01,1.13l-1.37,5.05.45-.63-3.59,3.59c2.53-1.77,5.24-2.97,6.97-5.73,2.2-3.49,1.83-7.35,1.73-11.28-.04-1.59-.21-3.12-.2-4.7.09-.76.1-1.52.06-2.29-.41,1.51-.37,1.78.12.83,1.2-.53,1.71-4.07,1.9-5.36.2-.95.25-1.9.14-2.87-.3-3.15-.42-3.55-.36-1.2l-2.57,4.41c2.55-2.93,5.21-5.13,5.8-9.27.35-2.47-.15-4.97-1.35-7.16-.61-1.01-1.31-1.95-2.09-2.84-1.15-1.45-1-1.07.45,1.15v5.32c.28-.8,1.9-2.88,2.3-4.41.58-2.23.29-4.64.67-6.88.48-2.77,1.19-5.19.43-8.04-.3-1.15-.79-2.31-1.39-3.34-.23-.39-1.05-2.24-.73-.89v5.32l.26-.77-2.57,4.41c3.33-4.14,7.06-7.44,5.58-13.4-.19-.75-2.24-6.53-3.46-6.33,1.17-.19.92,5.48,1.04.44.02-.96.23-1.63.38-2.64.79-5.34-1.33-10.75-6.98-12.3-4.72-1.3-11.5,1.61-12.3,6.98h0Z"/>
  <path d="M397.79,888.28c2.69.03,4.91.6,7.58.8,1.71.13,3.44.11,5.11-.39.99-.41,1.97-.83,2.95-1.25,1-.43.75-.32-.76.34,2.59.25,5.65-.64,8.19-1,1.03-.14,4.99-.32,2.55-.55,1.93.18,3.62.92,5.62.97.63.02,5.62-.57,3.72-.6-1.46-.02,2.18.44,2.54.51-2.07-1.24-2.32-1.3-.74-.17.61.5,1.24.96,1.9,1.4,1.73,1,3.97,1.57,5.94,1.63,2.73.09,5.91-.52,8.61-.95s5.47-1.95,7.46-2.49h-5.32c4.15.97,8.33,1.73,12.61,2.44,5.25.88,9.89-1,15-1.8h-5.32c3.75.74,6.29,2.62,10.22,3.03,2.52.27,4.88-.15,7.12-1.4.94-.68,1.87-1.39,2.77-2.12,1.39-1.19.92-1.07-1.41.36h-5.32c3.35.58,6.65,1.5,10.08,1.74s6.06-1.43,8.62-2.09h-5.32c1.29.27,5.43,1.75,7.85,1.82,2.73.08,5.48-.15,8.18-.43.4-.04,5.74-.64,3.29-.77,1.33.07,2.92.83,4.29,1.03,2.65.39,4.99,1.04,7.57,1.61s4.99-.01,7.43.13c2.74.16,4.04.81,6.8.19,1.19-.27,2.2-.81,3.36-1.14,2.53-.73,3.32-.16,5.89.02,3.17.23,6.49-1.24,8.62-1.68h-5.32c1.96.38,3.77,1.1,5.78,1.28.93.22,1.87.24,2.82.05,3.15-.27,3.55-.41,1.21-.42l-4.41-2.57c2.51,2.07,4.69,4.34,7.95,5.21,3.65.98,7.29-1.02,9.79-1.55h-5.32c2.23.47,6.3,2.24,9.76,1.46,1.6-.36,3.1-1.61,4.63-1.82-2.96.4.66.71,1.65.75,12.87.47,12.85-19.53,0-20-2.41-.09-4.72-.37-7.12.16-1.45.32-3.91,1.5-4.48,1.62h5.32c-1.22-.26-4.83-1.82-7.1-1.82s-5.92,1.65-7.13,1.91h5.32l-.89-.31,4.41,2.57c-1.94-1.6-3.57-3.31-5.87-4.39-3.15-1.49-5.69-.52-8.89-.69,1.57.09.14-.22-.62-.44-1.78-.52-3.65-.63-5.47-.47-1.39.12-2.36.43-3.64.92-4.6,1.74.2.57.19.24-.06-1.15-8.22.01-8.45.05-2.2.33-4.07,1.11-6.18,1.57,2.51-.54-.37-.58-1.43-.68-1.27-.11-2.45.02-3.72,0-2.21-.03-4.34-.81-6.68-1.11-1.72-.22-3.12-.62-4.76-.98-3.1-.67-5.39-.45-8.45-.03-2,.27-4.11.21-6.11.48-3.48.47.6.85-.7.43-1.2-.38-2.28-1.05-3.5-1.37-2.97-.78-6.68-.46-9.38,1.18l-1.12.65c2.94-.29,3.33-.51,1.17-.65,0,0-2.09-.4-2.38-.46-2.81-.58-5.45-1.1-8.29-.27-1.14.33-2.15.93-3.14,1.56-.87.56-1.67,1.2-2.4,1.92-.99.88-.39.64,1.79-.72h5.32c-2.6-.64-6.7-2.73-10.22-3.03-4.38-.37-8.65,1.35-12.93,2.08h5.32c-3.3-.45-6.83-.74-10.08-1.45,1.71.37-2.85-1-3.27-1.09-2.2-.49-4.3-.35-6.44.3.55-.17-6.03,2.78-2.19,1.48-.99.34-3.27.48-4.47.63-3.33.07-3.54.4-.61.99,2.75,1.11,2.75.8.02-.93-1.3-.84-2.66-1.46-4.16-1.89-3.91-1.14-7.31-.79-11.26-.69,2.32-.06-1.64-.33-2.11-.41-2.43-.41-4.35-.18-6.8.12s-4.67.64-7.02.84c-3.11.26-7.33,1.54-9.37,1.93h5.32c-3.96-.65-7.52-1.29-11.57-1.34-12.87-.14-12.88,19.86,0,20h0Z"/>
  <path d="M556.6,902.3c-.08,3.29-.36,6.81,1.41,9.77.62,1.04,1.47,2.11,2.34,2.95.36.32.74.62,1.12.92,1.36,1.26.99.4-1.11-2.56v-5.32c-.31,2.13.9-1.65-.34,1.35-.79,1.92-.68,2.42-1.18,4.7-.1.45-.28,1.22-.1.32-.32,1.59-.58,3.17-.68,4.79-.34,5.4,4.84,10,10,10,5.7,0,9.66-4.59,10-10-.08.7-.05.7.09-.01.27-1.04.44-2.11.49-3.2.21-3.31-1.73,3.93.04.25,1.29-2.69,1.62-5.77.83-8.67-.62-2.26-2.17-4.29-3.91-5.8-2.9-2.52,1.75,1.51.92,3.7.31-.83.04-2.33.06-3.2.13-5.4-4.69-10-10-10s-9.87,4.58-10,10h0Z"/>
  <path d="M510.18,904.25c.1-.99-.26.64-.3.78-.29,1.18-.44,2.58-.49,3.8-.03.73-.03,1.56.07,2.29.36,2.73,1.26-1.59.44-.52-1.27,1.66-1.93,3.91-2.18,5.96-.17,1.42-.11,2.39.08,3.8-.03-.19.45,3.26.38,2.12.31,5.39,4.37,10,10,10,5.17,0,10.31-4.58,10-10-.07-1.2-.01-2.69-.42-3.8-1.19-3.23.12,2.5-.88,2.46,1.15.05,2.34-5.68,2.43-6.41.23-1.81-.03-3.53.08-5.33s-.16,1.08.17-.78c.26-1.45.46-2.91.6-4.38.52-5.38-4.97-10-10-10-5.84,0-9.48,4.6-10,10h0Z"/>
  <path d="M465.4,910.76c.26,1.52.99,2.97,1.8,4.27.31.42.61.84.91,1.26.61,1.01.53.84-.27-.51v-5.32c.07-.31.9-2.26,1.3-2.28-.25.02-.98,1.07-1.18,1.31-1.44,1.73-2.7,3.52-3.22,5.75s-.44,4.51.26,6.59c.38,1.13.9,2.34,1.51,3.38,1.06,1.81-.16,1.41-.29-2.13.2,5.22,4.45,10.25,10,10,5.24-.23,10.22-4.4,10-10-.11-2.71-.85-5.69-2.44-7.97-1.51-2.87-2-.12-1.47,8.25.32-.35.64-.7.97-1.04.86-.97,1.79-1.95,2.43-3.07,1.62-2.84,2.25-6.2,1.33-9.41-.34-1.18-.99-2.55-1.67-3.65-.3-.42-.61-.84-.91-1.26-.62-1-.54-.83.22.51-.89-5.17-7.52-8.53-12.3-6.98-5.58,1.8-7.93,6.76-6.98,12.3h0Z"/>
  <path d="M418.25,905.75c.09,1.18.23,2.35.43,3.52.08.58.18,1.15.29,1.72-.19-.71-.21-1.42-.06-2.14l-.55,1.46c-.88,2.87-.47,5.53-.31,8.42.29,5.21,4.39,10.25,10,10,5.17-.23,10.31-4.41,10-10-.06-1.14-.09-2.32-.27-3.45-.03-1.27-.08-1.15-.13.34l.55-1.46c.5-1.62.63-3.3.55-4.97.04.91-.77-6.62-.49-3.44-.45-5.2-4.28-10.26-10-10-5.03.23-10.48,4.42-10,10h0Z"/>
  <path d="M860.47,951.63c-.12-3.8-.12-8.95-2.66-13.56s-6.38-5.38-10.79-7.2l4.41,2.57-.61-.56,2.57,4.41c-.33-1.07-.76-5.14-1.93-7.14-1.01-1.73-2.58-2.66-3.65-4.23,1.41,2.06.18-.69-.16-1.51-1.28-3.07-3.44-5.44-6.58-6.66-1.54-.6-3.12-.92-4.78-.96-.9-.02-2.98-.62-1.13.11l4.41,2.57c-2.67-2.6-4.84-5.27-7.88-7.11-4.54-2.75-9.46-1.58-14.45-1.84-.76-.04-1.7-.18-2.42-.2-3.74-.13,1.16.67-.61.06-2.87-.98-4.94-2.03-8.09-1.67-2.38.27-4.38,1.27-6.22,2.77-.96.78-3.38,2.11-.12.87,4.02-1.53-.49-.68.64-.32l4.41,2.57c-4.11-3.38-6.52-6.54-12.47-6.34-2.58.09-5.26.27-7.62,1.36-2.72,1.26-4.04,3.17-6.19,5.02l4.41-2.57-.76.26h5.32c-5.11-.8-9.77-3.17-15.51-3.28-2.62-.05-4.97.82-7.51,1.23-3.13.51-6.29.95-9.42,1.45h5.32c1.85.46-3.98-2.16-3.66-2.06-2.05-.63-4.14-.74-6.23-.23-3.43.84-5.48,2.37-8.97,3.09h5.32c2.31,1.46,2.76,1.61,1.35.44-.9-.75-1.83-1.45-2.79-2.1-2.56-1.42-5.61-1.94-8.47-1.21-4.02,1.02-5.41,3.77-8.2,6.2l4.41-2.57-.64.22h5.32c-.52-.1-3.16-1.14-4.56-1.45-2.24-.5-4.59-.42-6.81-.92-2.75-.62-5.21-1.25-8.04-.45-1.15.32-2.28.88-3.28,1.49-1.17.72-4.56,2.35-.73,1.1h5.32c-1.13-.3-2.96-1.61-4.57-1.98-1.8-.42-3.85-.5-5.68-.5s-3.39.08-5.07.59c-1.22.32-2.31.86-3.28,1.63-2.62,1.85-2.72,2.06-.29.63h5.32c2.29,1.37,2.74,1.44,1.35.23l-2.02-1.56c-1.66-1.09-3.28-1.76-5.24-2-2.17-.27-4.11.07-6.09.95-.78.23-1.47.61-2.09,1.12-2.62,1.86-2.71,2.06-.3.61h5.32c-2.7-.56-5.8-2.01-9.47-1.71s-7.29,1.38-10.95,1.59c-1.65.09.32.29-3.38-.22,3.26.45-1.37-.72-2.24-.99-4.75-1.44-7.16.75-10.98,1.83h5.32c-3.64-.51-5-1.51-8.45-2.45-4.83-1.31-6.68.89-10.45,1.93h5.32l1.74.94-2.02-1.56c-1.03-.67-2.07-1.27-3.26-1.63-2.23-.68-4.95-.94-7.29-.99-5.33-.11-7.94,2.92-11.79,5.95l4.41-2.57-.75.22h5.32c-2.06-.48-5.67-1.75-8.65-2.05-1.72-.2-2.01-.23-.87-.08l-2.39-1.01c-1.83-.62-3.73-.9-5.66-.88-3.25.04.45.41-2.11-.44,1.35,1.68,1.6,1.91.75.69l-1.56-2.02c-4.2-4.4-1.93.26-1.03-.01.35-.1-1.96-5.84-2-5.9-.21-.56-.51-1.06-.91-1.51-.07,3.41.09,4.29.49,2.64.66-1.03.6-3.77.69-4.26.12-.63.9-2.79.93-4.23.03-1.65-.45-3.22-.54-4.85-.2-3.36.15-6.35-1.15-9.59-.47-1.17-.82-2.04-1.07-2.65-.47-1.16-1.92-3.31-2.1-3.84v5.32c-1.47,2.34-1.27,2.22.6-.37.75-.99,1.3-2.1,1.63-3.31.63-2.03.8-4.15.24-6.23-.4-1.52-1.13-2.87-1.98-4.16-2.18-3.29-2.26-2.61-.24,2.04.63-3.11.57-3.52-.2-1.24-1.96,4.2,2.52-3.48,2.65-3.9.65-2.06.78-4.1.26-6.22-.88-3.54-3.35-5.43-5.46-8.13l2.57,4.41c1.15,3.61-.02-1.42.45-1.1.43.3-2.36,5.21.54.84,1.66-2.5,2.55-5.09,2.16-8.15-.59-4.59-3.65-6.48-6.36-9.61l2.57,4.41-.21-.62v5.32c1-5.6,1.56-10.41,1.2-16.13-.34-5.39-4.35-10-10-10-5.15,0-10.34,4.58-10,10,.14,2.22.48,4.44.28,6.66s-1.12,4.46-1.12,6.81c0,5.17,3.64,7.43,6.54,10.91l-2.57-4.41.21.66v-5.32c.81-2.49.4-1.5-.78.29-.69,1.05-1.32,2.07-1.69,3.3-.65,2.13-1.01,5.12-1.03,7.32-.04,5.15,2.86,7.79,5.76,11.53l-2.57-4.41.24.75v-5.32c1.41-2.39,1.19-2.28-.65.33-.77.98-1.32,2.08-1.64,3.3-.53,1.68-.7,3.51-.94,5.25-.31,2.24-.4,4.17.31,6.39.17.54,4.23,8.89,2.43,3.53v-5.32c1.24-1.97,1.3-2.18.18-.63-.51.61-.98,1.26-1.4,1.93-.8,1.41-1.26,3.03-1.42,4.62-.36,3.49,1.07,5.79,2.4,8.48.34.69.88,2.41,1.36,3.4,1.24,2.56.26-2.23-.04,1.23-.12,1.43.19,2.91.39,4.31.11.94.25,1.87.43,2.8l-.34-1.51c-1.3,5.77-2.45,10.28.41,16.32.87,1.84,1.26,3.61,2.16,5.68.68,1.55,1.51,3.07,2.71,4.29.61.55,1.24,1.07,1.9,1.55,1.54,1.28,1.38,1-.46-.82.99.58,1.6,2.35,2.44,3.2,1.05,1.05,2.22,1.85,3.51,2.56,2.84,1.56,5.97,2.94,9.23,3.17-.03,0,4.25.15,2.37-.18,1.76.31,3.41,1.32,5.24,1.63,1.42.24,2.87.29,4.29.51-2.99-.48.15.25.99.56,3.54,1.35,7.41,1.53,10.8-.45.92-.54,2.63-1.65,3.2-2.59.61-.98-4.85.55-1.31,1.16-3.17-1.58-3.8-1.7-1.9-.38.61.5,1.25.97,1.9,1.4.98.56,2.2,1,3.3,1.29,4.25,1.1,6.46-1.13,9.9-2.07h-5.32c2.04.53,5.44,1.97,8.24,2.49,2.34.43,4.31.59,6.64-.05,1.4-.39,3-1.63,3.98-1.9h-5.32c2.36.48,6.78,1.94,10.19,2.17,3.68.25,7.35-.76,10.96-1.35.69-.11,4.76-.83,1.35-1.04,1.5.09,3.11,1.44,4.67,1.78,2.15.47,4.13.39,6.21-.27,1.22-.32,2.31-.86,3.28-1.63,2.61-1.86,2.72-2.06.31-.61h-5.32c-2.3-1.37-2.76-1.44-1.36-.22l2.02,1.56c1.21.8,2.48,1.47,3.91,1.82,2.13.52,4.15.38,6.21-.27,1.22-.32,2.31-.86,3.28-1.63,2.54-1.72,2.74-2.02.59-.9-1.94.62-1.92.87.07.76-1.42-.5-1.65-.5-.68.01,1.89.75,3.39,1.61,5.43,1.83,2.17.24,4.11-.06,6.08-.98,1.08-.5,7.12-3.49,2.38-1.94h-5.32c2.88.57,5.69,1.91,8.73,1.62l1.51.17c-1.45-.65-1.68-.75-.69-.31,1.39.55,2.63,1.15,4.1,1.48,6.44,1.44,9.32-2.55,13.52-6.2l-4.41,2.57.64-.22h-5.32c-2.31-1.46-2.76-1.61-1.34-.44.9.75,1.83,1.44,2.79,2.1,2.27,1.26,4.58,1.61,7.13,1.39,3.67-.32,7.42-2.47,10.3-3.27h-5.32c-1.04-.26-.14.12.36.48.96.69,2.18,1.25,3.31,1.58,2.62.76,5.09.43,7.73,0,1.63-.27,3.19-.51,4.85-.7,1.39-.16,2.8-.33,4.17-.65,2.57-.61-.47-.69,2.04-.14,4.15.92-1.56-.8.63-.06,1.2.4,2.28,1.06,3.52,1.36,2.07.51,4.29,1.03,6.42,1.21,5.55.47,8.32-2.66,12.13-5.96l-4.41,2.57c-1.08.38,2.11.07.6-.39l-4.41-2.57c3.87,3.12,6.11,6.41,11.73,6.4,2.32,0,5-.12,7.18-.8,1.16-.36,2.15-.94,3.15-1.58.88-.55,1.68-1.2,2.4-1.94.98-.89.38-.67-1.79.65h-5.32c2.52.51,6.77,1.86,10.21,2.19s7.13-.21,10.64.11l-5.05-1.37c2.3,1.19,3.43,3.51,5.85,5.28,3.51,2.57,6.78,2.07,10.77,2.49l-5.05-1.37.7.36-3.59-3.59c.48.82.92,3.28,1.76,4.63,1.27,2.04,3.17,3.54,4.71,5.34l-2.57-4.41c.91,2.45.91,6.59,3.8,9.44,2.58,2.54,5.55,2.88,8.66,4.17l-4.41-2.57c-1.85-1.82-.15,1.45-.36-.27-.24-2.02-.41,2.47-.4,2.99.41,12.84,20.41,12.89,20,0h0Z"/>
</svg>