<?xml version="1.0" encoding="UTF-8"?>
<svg id="base" xmlns="http://www.w3.org/2000/svg" viewBox="0 0 1000 1000">
  <path d="M711.66,765.5c51.15-53.72,79.79-124.03,95.76-195.54,8.56-38.3,14.2-77.5,17.08-116.64,3.16-42.86,1.9-86.42-8-128.39-16.24-68.81-57.04-131.74-112.41-175.56-59.96-47.45-135.99-72.28-212.37-70.86-75.66,1.4-151.78,28.85-207.29,81.02-28.49,26.77-50.99,59.61-68.72,94.3-17.9,35.03-31.55,72.31-40.57,110.59-18.29,77.67-18.13,159.6,1.36,237.02,17.12,67.99,51.21,131.1,104.98,177.1,55.05,47.09,127.37,74.51,199.77,75.98,67.44,1.36,136.76-14.1,191.58-54.8,13.89-10.31,26.82-21.75,38.82-34.21,8.93-9.28-5.2-23.44-14.14-14.14-22.4,23.28-48.09,42.82-77.35,56.7-27.65,13.11-58.01,20.62-88.35,23.98-35.76,3.96-71.83,3.51-107.05-4.33s-65.58-20.46-94.78-38.45c-54.74-33.73-96.74-86.46-119.61-146.39-26.4-69.16-33.97-145.45-25.54-218.78,8.51-73.96,34.27-148.5,77.8-209.26,21.12-29.49,47.66-54.65,78.67-73.51,30.5-18.55,64.35-31.03,99.4-37.65,71.27-13.45,147.49-1.05,210.79,34.35,58.31,32.6,105.33,85.16,131.06,146.87,30.45,73.04,26.56,154.2,14.72,230.88-10.6,68.66-29.42,137.94-68.34,196.31-9.34,14-19.83,27.1-31.43,39.29-8.88,9.32,5.24,23.49,14.14,14.14Z"/>
  <path d="M829.01,446.6c13.45-16.21,37.75-18.76,55.59-8.34,20.19,11.8,30.26,35.71,30.71,58.35.53,26.88-9.9,53.42-24,75.91-12.13,19.36-28.13,36.65-46.94,49.68-21.4,14.82-46.15,24.41-72.29,25.57-12.82.57-12.89,20.57,0,20,55.75-2.48,105.09-36.67,134.91-82.66,16.5-25.45,28.41-56.09,28.34-86.72-.07-29.25-12.71-58.84-37.5-75.43-25.09-16.79-63.09-14.47-82.97,9.5-3.45,4.15-4.07,10.07,0,14.14,3.55,3.55,10.68,4.18,14.14,0h0Z"/>
  <path d="M173.68,413.54c-27.32-6.11-55.77.02-76.28,19.37-18.72,17.67-31.51,41.8-36.48,67s-2.62,52.91,8.08,77.33c10.68,24.38,29.36,44.73,51.01,59.87,25.2,17.61,55.04,27.67,85.52,30.67,5.38.53,10-4.97,10-10,0-5.85-4.6-9.47-10-10-45.45-4.47-90.78-29.22-113.7-69.59-21.36-37.63-17.13-87.91,10.58-121.38,7.25-8.76,14.8-16.31,25.13-20.65,12.75-5.36,27.32-6.35,40.83-3.33,12.54,2.81,17.89-16.47,5.32-19.29h0Z"/>
  <path d="M401.5,836.5c-.49,13.35-.89,26.7-2.15,40.01-.68,7.18-1.46,13.57-3,20.72-.67,3.12-1.45,6.22-2.49,9.24-.26.75-.52,1.49-.81,2.22-.59,1.48.64-1.3-.04.04-.31.61-.64,1.21-.94,1.82-.54,1.12-2.01,1.88.27,0-1.14.94,2.7-1.84.48-.47-1.62,1,1.85-.52.96-.39-.53.08-1.11.39-1.62.55-2.76.87-5.62,1.44-8.46,1.97-1.68.31-3.37.6-5.07.86-1.1.17-2.19.34-3.29.49-.77.11-4.4.59-1.57.22-4.77.62-9.55,1.17-14.34,1.67-46.46,4.85-93.2,6.76-139.83,9.31-6.56.36-13.16.59-19.71,1.23s-12.65,1.97-18.17,5.16c-9.22,5.33-12.97,16.71-14.87,26.68-1.01,5.3,1.48,10.79,6.98,12.3,4.89,1.34,11.28-1.65,12.3-6.98.8-4.18,2.19-8.23,3.76-12.19.71-1.8-.45-.58.88-1.89,1.08-1.06,3.25-1.67,4.76-2.1,1.2-.34,4.38-.32,5.17-1.13.2-.2-3.23.31-1.81.25.8-.03,1.6-.15,2.39-.22,6.32-.52,12.66-.81,18.99-1.15,22.53-1.23,45.07-2.38,67.6-3.75,24.44-1.5,48.89-3.1,73.24-5.7,9.41-1,18.85-2.09,28.16-3.84,5.66-1.06,12.51-2.25,16.83-6.4,4.34-4.18,6.48-11.01,8.07-16.63,2.35-8.29,3.5-16.93,4.49-25.47,1.79-15.42,2.25-30.93,2.82-46.43.47-12.87-19.53-12.85-20,0h0Z"/>
  <path d="M414.8,887.51c65.4.77,130.81,1.54,196.21,2.2,12.87.13,12.88-19.87,0-20-65.4-.66-130.81-1.43-196.21-2.2-12.87-.15-12.88,19.85,0,20h0Z"/>
  <path d="M575.51,902.35c-.12,5.61.04,11.21.48,16.8s4.29,10,10,10c5.08,0,10.43-4.59,10-10s-.6-11.19-.48-16.8-4.68-10-10-10-9.88,4.58-10,10h0Z"/>
  <path d="M526.07,904.27c.08,6.09-.08,12.16-.48,18.24-.36,5.39,4.85,10,10,10,5.71,0,9.64-4.59,10-10,.4-6.08.56-12.15.48-18.24-.07-5.4-4.54-10-10-10s-10.07,4.58-10,10h0Z"/>
  <path d="M483.35,908.11c-.04,4.98-.36,9.94-.96,14.88-.64,5.21,5.05,10.22,10,10,5.96-.27,9.32-4.42,10-10,.6-4.94.92-9.9.96-14.88.04-5.23-4.63-10.24-10-10s-9.96,4.39-10,10h0Z"/>
  <path d="M436.31,905.71l.48,12.96c.19,5.22,4.46,10.25,10,10,5.25-.24,10.21-4.4,10-10l-.48-12.96c-.19-5.22-4.46-10.25-10-10-5.25.24-10.21,4.4-10,10h0Z"/>
  <path d="M877.41,948.89c-3.75-13.3-12.8-27.48-24.98-34.42-10.66-6.08-24.47-4.45-36.34-4.39-27.5.13-54.99,1.05-82.48,1.62-25.73.53-51.58,1.2-77.3-.24-4.52-.25-9-.67-13.5-1.12-2.49-.25,1.93.37-.98-.13-.8-.14-1.6-.25-2.4-.4-1.54-.28-3.09-.6-4.6-1.04-.55-.16-1.11-.39-1.67-.53-2.07-.5,1.59.69.65.29-.36-.15-.8-.37-1.11-.63.9.75.91.82,2.18,2.24-.42-.47-.59-1.11-.92-1.64,1.09,1.73.38,1.05-.02-.35-.63-2.19-1.14-4.39-1.54-6.64-.65-3.64-.55-3.12-.98-7.31-.36-3.49-.62-6.99-.84-10.49-.48-7.63-.73-15.28-.88-22.93-.26-12.92-.15-25.84-.14-38.77,0-12.87-19.99-12.89-20,0-.01,24.54-.66,49.3,2.02,73.74.96,8.7,1.57,20.96,8.44,27.44,5.46,5.15,14,6.02,21.07,6.94,22.48,2.9,45.53,2.26,68.14,1.99,28.63-.34,57.24-1.27,85.87-1.78,13.18-.23,26.37-.42,39.55-.13,6.3.14,9.72,1.97,14.47,7.47,4.42,5.12,7.5,11.23,8.99,16.54,3.49,12.37,22.79,7.11,19.29-5.32h0Z"/>
</svg>