<?xml version="1.0" encoding="UTF-8"?>
<svg id="_レイヤー_2" data-name="レイヤー 2" xmlns="http://www.w3.org/2000/svg" viewBox="0 0 1000 1000">
  <g>
    <path d="M600.62,508.45c3.08.31,5,1.05,8.08.06,2.76-.89,4.65-2.88,6.83-4.66l-4.41,2.57c1.4-.56,3.01-.92,4.31-1.7,2.06-1.03,1.31-1.03-2.24,0,.79.37,1.62.57,2.5.59,3.83.68,6.83-1.09,9.38-1.87h-5.32c-2.25-1.44-2.64-1.57-1.2-.39.9.76,1.84,1.46,2.83,2.11,2.19,1.21,4.67,1.69,7.14,1.36s4.66-1.4,6.45-3.09c.81-.86,1.56-1.78,2.23-2.76,1.12-1.5.81-1.29-.93.64l-5.05,1.37c.92.03,2.06.28,3,.25-.94.03-1.87-.79-.09-.04,2.55,1.07,5.17,1.53,7.87,1.94s5.21.28,7.76-.92c2.14-1.01,2.3-1.86,4.89-1.94,3.52-.11,7.06.94,10.7.62,3.11-.28,5.66-.7,8.25-2.53,1.45-1.02,2.46-2.38,3.79-3.53l-4.41,2.57.72-.27h-5.32c-2.33-1.46-2.2-1.26.38.6l.93.63c2.23,1.22,4.77,1.77,7.28,1.42,3.9-.55,6.26-2.92,9.14-5.31l-4.41,2.57.87-.32h-5.32c-1.66-.39,2.13,1.4,2.48,1.55,1.81.76,3.52.94,5.49,1.08,3.59.25,7.24-.13,10.77-.8,2.56-.48,3.88-.54,6.5-.18,2.35.32,4.46.71,6.8.17,1.41-.32,3.96-1.59,4.38-1.7h-5.32c4.46.63,8.49,1.12,13.03,1.04,2.31-.04,4.9.14,7.09-.74,1.78-.53,1.98-.73.59-.59,1.37.23,2.75.39,4.14.48,5.39.45,10-4.92,10-10,0-5.78-4.6-9.55-10-10-3.74-.31-6.47.11-10.04.82-1.74.34-4.57.3-6.35.24-3.31-.12-6.06-1.35-9.54-.26-6.38,2-.93,1.29-.94.88,0-.28-4.96-.54-5.63-.59-3.11-.24-5.7.27-8.69.9-1,.21-2.05.4-3.08.45-.99.01-1.98-.03-2.96-.12l1.74.56c-6.93-4.86-12.42-2.21-18.27,2.64l4.41-2.57-.87.33h5.32c2.33,1.45,2.2,1.25-.38-.61-.99-.75-2.1-1.3-3.32-1.63-2.01-.62-4.17-.8-6.22-.23-3.44.96-5.36,3.39-7.91,5.59l4.41-2.57c-1.72.65-7.39-.44-10.69-.45-2.29,0-4.82.44-7.05,1-1.07.27-1.98.53-3,1.01-.64.17-1.21.46-1.72.88-1.26.79-.58.77,2.04-.06,0,.09-4.61-.89-1.41.12-1.22-.38-2.32-1.21-3.56-1.55-2.05-.57-4.67-.71-6.79-.8-3.03-.14-5.84.6-8.26,2.44-1.06.81-1.64,1.48-2.46,2.53-.39.47-.76.97-1.1,1.48-.77,1.06-.35.69,1.25-1.11,2.57-.34,5.14-.67,7.71-1.01,2.24,1.44,2.64,1.56,1.2.38-.77-.66-1.58-1.27-2.43-1.84-1.59-.96-3.08-1.44-4.88-1.63-2.58-.27-5.17.2-7.46,1.52-3.04,1.75,4.61.76,1.06-.47-6.73-2.34-13.65,2.93-18.37,6.78l4.41-2.57c1.85-.2,1.88-.34.08-.44-.94-.14-1.89-.25-2.84-.33-5.38-.54-10,4.98-10,10,0,5.86,4.6,9.46,10,10h0Z"/>
    <path d="M637.13,521.16c.29.74.67,1.44,1.14,2.09l-.19-1.39c-.09,2.01.09,2.11.54.31-.54.7-.95,1.47-1.22,2.31-.81,1.79-1.25,3.44-1.23,5.45.08,7.59.36-1.87,3.79-2.83h5.32c2.04.54,2.53,2.93,1.49-.07-.3-.87-.67-1.66-.91-2.54v5.32c-.46,2.53-1.55,2.66.15.62,1.23-1.48,2.16-2.88,2.71-4.79s.55-3.71.14-5.69c-.06-.28-.61-3.3-.63-1.83l-1.37,5.05-.87.7c.84-.57,1.63-1.19,2.37-1.88.2-.2,1.8-1.68.59-.86l-5.05,1.37.79-.05-5.05-1.37c-.3-.17-.39.2-.36-.1l1.37-5.05c-1.1,2.24-2.23,4.34-2.52,6.86-.12,1.01-.22,1.83-.06,2.83.3,1.85-.54,2.61,1.08-.66l3.59-3.59-.66.41,5.05-1.37h-.81c1.68.46,3.36.91,5.05,1.37,2.33,1.22,1.58,2.03.51-.34-.23-.51-.41-1.01-.62-1.52-1.3-3.06-2.7-5.22-4.87-7.75l2.57,4.41-.4-.95v5.32l.22-.81-2.57,4.41c3.32-4.07,5.26-6.89,5.51-12.25l-1.37,5.05.33-.58-3.59,3.59c.09-.05,3.04-1.66,1.02-.88-2.57-.34-5.14-.67-7.71-1.01l.74.31-4.6-5.98-.07-2.18c-.27,1.05-.39,2.1-.35,3.17,0,1.92.4,3.88,1.37,5.56.54.94,1.28,1.98,2.04,2.74.6.49,1.21.96,1.83,1.43,1.56,1.27,1.37,1.01-.57-.78l-1.37-5.05c.01.37-.13,3.98.16,2.28.22-1.3-1.18,2.64-1.39,3.14l2.57-4.41,2.1-1.1-2.39,1.01c-1.19.62-2.26,1.31-3.23,2.28-1.91,1.9-2.71,4.32-3.71,6.75l4.6-5.98c.29-.01.57-.07.84-.17l5.05,1.37c1.17.77.36.05.44-.28.04-.19-1.2-7.43-1.32-4.96-.1,1.93,1.09-.99,1.57-1.8.3-.47.56-.97.77-1.49.94-1.64.63-1.5-.94.42-2.57.34-5.14.67-7.71,1.01l.72.16-4.41-2.57c-1.01-.89.16.14.61.7.82,1.02,1.53,2.08,2.48,2.98,2.15,2.03,4.87,2.66,7.57,3.58l-4.41-2.57.84.67-2.57-4.41c.18-.89.22-.66.13.69.12,1.26.31,2.5.57,3.74.75,2.5,2.13,3.4,3.31,5.57l-1.37-5.05c.12,2.33-.19,4.57.43,6.86.21.99.57,1.92,1.1,2.8.75,1.67.75,1.15,0-1.55l1.37-5.05c2.22-3.45-.31.16-1.6,1.03-1.02.69-2.14,1.08-3.11,1.96-2.28,1.56-1.16,1.42,3.37-.42,2.7,3.51,3.47,4.09,2.31,1.74-.43-1.35-1.51-5.22-1.93-2.02l-1.37,5.05c1.23-2.07,3.68-5.67,3.33-9.85-.13-1.61-.43-3.92-1.54-5.11-.66-1.55-.55-.57.33,2.93.24-.98.56-1.94.97-2.86l-2.57,4.41.65-.66-4.41,2.57c1.09-.37,2.54-.35,4.32-.91.18-.06,4.75-2.41,4.04-2.2h-5.32l.9.25-4.41-2.57c-.15-.13,2.16,2.25,1.92,2.25.49,0,.98-6.01-.59.17-.72,2.82-.17,5.82-.86,7.94l2.57-4.41c1.71-.73,2.01-.91.88-.54-1.04.28-2.04.68-3,1.19-1.53.74-3.65.79-.17.85l5.05,1.37c.22.5.49.98.81,1.44-1.95-5.03-6.72-8.52-12.3-6.98-4.81,1.32-8.95,7.24-6.98,12.3s5.22,10,10.77,11.52c4.93,1.35,9.19-1.49,12.88-2.96,6.3-2.52,8.95-6.94,9.52-13.56-.01.12.56-2.77.36-3.11.17-.85.07-.78-.29.2-.72,1.57-.51,1.04.64-1.6.94-2.79,1.01-5.3.24-8.18-1.28-4.8-4.17-9.9-8.31-12.79-2.8-1.96-6.19-2.92-9.62-2.04-1.15.29-2.34.76-3.38,1.31l-1.04.62c-1.36.74-1.39.91-.09.51,1.38-.26,1.25-.27-.39-.02-.64.08-1.27.17-1.91.26-1.32.31-2.76.73-3.95,1.42-2.8,1.64-4.42,4.37-5.52,7.32-.84,2.27-1.57,4.71-1.5,7.16.04,1.26.35,2.44.73,3.62.34,1,.77,1.96,1.27,2.89.4.67.34.67-.17-.01v-5.32c2.07-5.53-1.99,2.92-2.14,3.47-.73,2.63-.45,5.04.44,7.55.71,2,1.96,3.29,2.84,4.87,1.32,2.37,1.81,4.43,3.89,6.38,3.58,3.36,9.91,4.82,14.66,3.7,3.84-.9,6.52-3.18,9.35-5.32s6.54-4.86,7.71-9.12c.65-2.36.38-4.74-.38-7-.38-1.17-.89-2.27-1.53-3.3.9,2.04,1.15,1.89.73-.47,0-.9-1.63-8.37-3.54-8.19.88,3.16,1.2,3.69.95,1.58.05-1.3-.2-2.52-.77-3.65-1.85-5.44-6.13-6.8-10.98-8.66l4.41,2.57c1.42,1.27-1.35-1.72-1.65-2.08-1.58-1.9-3.37-3.48-5.85-4.16-3.99-1.1-8.27-.08-11.28,2.77-2.26,2.13-3.58,5.24-5.22,7.85-2.3,3.67-3.21,7.4-2.74,11.75.82,7.54,2.76,16.59,9.84,20.83,3.59,2.15,7.64,2.06,11.47.71,4.86-1.72,6.87-4.99,8.73-9.62l-2.57,4.41c-2.34,1.31-2.58,1.53-.72.68.71-.26,1.39-.57,2.04-.96.97-.59,1.76-1.38,2.52-2.19,2.25-2.41,3.74-6.41,4.23-9.64s.56-6.36-.57-9.37c-.55-1.47-1.32-2.81-2.41-3.96s-3.97-4.52-1.39-.63l1.37,5.05c-.02-1.83.53-6.05-1.31-9.2-2.34-4-7.58-6.04-12.03-4.91-2.38.61-6.05,2.68-7.82,4.46-1.08,1.08-1.83,2.41-2.4,3.8-.63,1.19-.91,2.48-.86,3.85-.04,1.03-.05,1.06-.02.08l2.57-4.41c-3.91,4.44-7.07,9.09-4.1,15.12.77,1.57,1.74,2.75,2.84,4.11-.85-1.05-.92-1.84-.36-.14.7,2.1,1.82,4.52,2.99,6.43,3.21,5.27,9.3,8.54,15.35,6.05,4.84-1.99,8.55-8.04,7.15-13.4-.62-2.38-.78.83-.72.92-.09-.15,1.6-4.24,1.7-4.77.51-2.65.08-5.31-.79-7.84-1.84-5.39-6.43-10.98-12.3-11.85-5.77-.85-9.84,3.21-13.3,6.35-2.55,2.32-4.4,5.65-4.5,9.15-.07,2.57.97,4.7,1.34,7.15v-5.32l-.27.75,2.57-4.41c-2.03,2.58-4.35,4.49-5.22,7.83-1.16,4.42.74,8.6,2.63,12.5,3.26,6.77,10.25,12.46,18.03,9.03,3.16-1.39,6-4.09,7.67-7.13.97-1.76,1.53-3.96,1.57-5.95l-.13-1.06c-.35-3.8-.52-3.54-.53.76,2.53-.58,2.33-8.72,2.19-10.4-.35-4.31-1.91-6.98-3.67-10.79-2.27-4.9-9.34-6.13-13.68-3.59-5.03,2.94-5.86,8.76-3.59,13.68h0Z"/>
  </g>
  <g>
    <path d="M402.68,488.37c-1.58-.48-5.5-2.11-8.4-2.11-1.36,0-2.79.19-4.14.31-.74.07-4.07,1.11-3.48,1.04l5.05,1.37c.61.78.47.66-.43-.35-.89-.82-1.84-1.58-2.83-2.28-1.72-1.04-3.88-1.72-5.9-1.73-2.98,0-5.38,1.98-7.47,1.12l4.41,2.57c-4.09-3.23-7.18-4.75-12.41-5.16-1.96-.15-3.86-.2-5.78.38.22-.07-5.49,2.44-3.77,2.07h5.32c.94.37-2.01-1.54-1.96-1.51-1.56-.76-3.15-1.28-4.93-1.28-2.27,0-6.09,1.53-7.23,1.71h5.32l-.86-.35,4.41,2.57c-3.08-2.72-5.93-5.59-10.4-5.59-2.08,0-4.36.63-6.18,1.56-1.57.66-1.54.71.09.17,2.12-.44,1.65-.68-1.41-.72-6.2-.78-12.87-2.32-19.12-2.09-2.19.08-3.64.85-5.66,1.14-1.73.25-2.18-.9-.38-.12-2.03-.88-3.66-1.92-5.88-2.3-1.9-.32-3.84-.37-5.76-.59-3-.35-5.85-.66-8.87-.43-2.02.16-4.01.57-5.79,1.58-.93.71-1.86,1.43-2.78,2.14-1.39,1.22-.93,1.14,1.38-.24h5.32l-.73-.28,4.41,2.57c-2.61-2.4-4.29-4.92-8.02-5.87-2.06-.53-4.19-.35-6.21.24-1.2.33-2.3.87-3.29,1.61-2.61,1.88-2.71,2.07-.31.55h5.32c2.47,1.55,2.39,1.38-.24-.52-.98-.73-2.07-1.26-3.26-1.59-1.64-.51-3.32-.59-5.02-.57-3.61.04-6.65,1.2-10.08,1.84-5.31.99-8.33,7.41-6.98,12.3,1.53,5.58,6.97,7.98,12.3,6.98.97-.18,2.77-.72,3.28-1.03l1.48-.09-2.96-1.44c.09.88,3.37,2.33,4.09,2.65,2.5,1.1,5.18,1.37,7.84.64,1.14-.31,2.28-.83,3.29-1.43.51-.33,1-.69,1.46-1.08,1.57-1.14,1.33-1.07-.7.23h-5.32l.73.28-4.41-2.57c2.62,2.4,4.22,4.91,8.02,5.87s8.51-.42,11.23-3.37c1.69-1.49.84-1.3-2.56.58.99-.08,1.98-.11,2.97-.1,1.47.07,2.95.4,4.42.55.74.04,1.48.11,2.21.2,1.21.13.98.12-.67-.05,1.62,1.42,3.83,1.96,5.88,2.3,4.19.69,7.42-.43,11.42-.7,2.29-.16,5.51.68,7.81.98,2.98.39,5.98.73,8.95,1.12,2.38.32,4.42.71,6.78.19,1.46-.32,4.01-1.36,4.57-1.45h-5.32l.86.35-4.41-2.57c2.4,2.11,4.54,4.34,7.75,5.23,3.54.99,7.51-.99,9.89-1.35h-5.32c-.07-.03,2.27,1.71,3.15,2.01,2.34.79,4.41.97,6.85.32.72-.19,3.86-.97,4.27-2.05,1-.68.59-.56-1.23.35,1.31-.36,1.76-.26,1.36.3l-4.41-2.57c3.4,2.68,6.38,4.93,10.94,5,1.42.02,2.87-.06,4.29-.15,1.08-.12,2.15-.26,3.22-.42,1.27-.13,1.54-.35.81-.64l-5.05-1.37c-.78-.33-.17-.25.43.35.82.82,1.84,1.71,2.83,2.28,2.58,1.49,5.46,1.96,8.36,1.42.26-.05,2.52-.78,2.32-.74-.25.05,1.74-.07,2.07-.21,1.27-.53-.84-.91-.15-.31.96.83,2.8,1.25,3.99,1.61,12.33,3.79,17.6-15.51,5.32-19.29h0Z"/>
    <path d="M344.85,513.35c-1.14,3.47-2.13,7.21-2.19,10.88-.04,2.05.3,3.85,1.05,5.72.29.81.66,1.57,1.11,2.31-.07-3.54-.23-4.48-.47-2.82-2.08,3.58.74,9.51,3.35,11.97s6.64,4.02,10.28,3.95c4.2-.08,8.16-2.4,10.3-6.02.85-1.44,1.1-3.22,1.89-4.67-1.9,3.47-.09,1.19.72.33,3.14-3.35,3.68-7.72,2.82-12.08-.72-3.67-2.91-6.85-4.31-9.38l1.37,5.05c-.32-3.27-.13-6.17-2-9.1-2.23-3.49-6.28-5.46-10.39-5.5-3.69-.03-7.2,1.26-9.82,3.91l-1.56,2.02c-1.64,3.31-1.29,3.22,1.06-.26-.29-.29-2.66,1.64-2.73,1.7-5.29,4.35-5.84,13.9-2.28,19.62,3.12,5.01,9.99,7.15,15.63,6.81,7.98-.48,13.2-8,10.81-15.61-1-3.17-1.31-3.19-.93-.06-.22,3.13.14,3.11,1.08-.06.37-1.07.67-2.21.95-3.3.95-3.69,1.08-7.51-.91-10.92-2.6-4.44-10.15-8.8-15.39-8.8-4.7,0-8.92,3.2-10.34,7.62-.46,1.44-.63,2.87-.56,4.38.02.52.35,4.98.41,3.05l1.37-5.05c-.93,1.6-3.76,5.27-3.86,8.65-.07,2.26.49,4.68.67,6.92.36,4.28,1.76,8.16,5.56,10.52,1.06.66,2.36,1.44,3.57,1.55,1.69.63.76-.11-2.78-2.22.36.63.78,1.22,1.26,1.77,4.95,6.08,12.97,5.73,18.63,1.1,1.91-1.56,4.15-3.37,5.49-5.74,1.93-3.39,1.29-7.01,1.71-10.67l-1.37,5.05c-.43.83,2.85-3.29,2.96-3.46,1.33-2.03,2.17-4.36,2.17-6.83,0-4.14-1.97-8.84-4.55-12.01-2.86-3.51-6.68-4.98-11.06-5.61-5.99-.86-8.88,1.49-13.12,5.14l4.41-2.57c-5.52,1.91-9.72,3.54-11.62,9.74-.51,1.67-.87,3.5-1.24,5.21-.32,1.46-.61,2.98-.63,4.48-.08.65-.03,1.29.14,1.93.21,2.09.29,1.77.23-.96l2.57-4.41c-2.62,3.34-5.42,5.73-5.47,10.39-.03,2.91.95,5.26,2.89,7.4s3.74,2.07,5.73,3.66c-.77-.61-1.16-.73-.18.56,1.11,1.46,3.62,2.64,5.28,3.42,4.24,1.99,8.96,1.96,13.34.41s5.8-4.81,7.4-7.29c2.8-4.35,5.85-6.57,4.59-12.43-.24-1.13-2.55-6.64-1.66-3.05-.4-1.6-.21-3.74-.49-5.44-.74-4.55-2.35-8.32-5.95-11.32-7.45-6.22-16.99-5.68-23.09,1.86-2.7,3.33-5.3,7.6-5.49,11.96-.08,1.68.31,3.23.63,4.85.32-2.19.32-2.34,0-.43-.31,1.31-.42,2.63-.34,3.96.2,4.42,2.95,8.14,6.08,11.07,1.23,1.14,4.52,3.53,6.32,3.25-1.67-1.33-2.04-1.6-1.13-.81.4.36.81.71,1.25,1.02,3.94,3.19,9.04,4.57,13.73,1.97,4.34-2.41,5.7-6.44,6.69-10.94,2.76-12.54-16.52-17.9-19.29-5.32,0,.04-.82,3.02-.27,2.02l3.59-3.59-.81.55,5.05-1.37h-.8c1.68.45,3.36.91,5.05,1.36,1.17.59-.35-.19-.88-.57-1.11-.8-2.09-1.68-3.29-2.33-.19-.1-3.56-1.25-3.56-1.3,0-.08,2.12,2.4.91-.08l1.37,5.05c-.02-1.3,1.43-6.91-.18-8.27-.27-1.05-.35-.76-.23.88-.28,1.86-.07,1.94.63.24.31-.22,1.54-1.69,1.97-2.05l-4.41,2.57c-.67-.28-1.16-.23-1.47.17-.59.74-1.22.08-1.86-2,.12-.12.3,3.02.3,3.01.17,1.77.2,3.43.78,5.15.24.7,1.65,3.56,1.59,3.22.34-2.57.67-5.14,1.01-7.71.25-.57-1.56,1.99-1.97,2.56-.24.33-2.18,3.54-1.48,2.83l4.41-2.57-1.35.55c2.41.77,2.99.84,1.73.2.08.33-1.6-1.64-1.16-1.25-.81-.72-1.77-1.53-2.71-2.08-.71-.32-1.42-.62-2.13-.92-1.91-.84-1.6-.65.91.58l2.93,7.07.07-.66-1.37,5.05c-1.19,1.79,2.81-3.51,2.51-2.99.95-1.63,1.59-3.88,1.59-5.73-.08-.85-.18-1.69-.3-2.53-.23-1.91-.25-1.77-.03.43.39-1.14.4-3.19.83-4.12l-3.59,3.59c-1.04.77,4.12-1.5,4.04-1.45,1.78-1.04,2.94-2.57,4.43-3.92l-4.41,2.57.99-.21h-5.32c.63.07,1.25.16,1.88.28,1.52.39,1.08-.22-1.34-1.85.36-.22.72,2.43.74,2.56v-5.32c1.29-2.01,1.3-2.31.03-.91l-.77.86c-1.76,2.02-2.69,4-3.21,6.62-.13.9-.24,1.81-.34,2.71-.18,2.03.19,1.96,1.11-.21,1.66-2.23,1.33-2.26-.98-.1-1.14.97-1.24,1.07-.29.32l5.05-1.37,2.35.58,3.59,3.59c-1.21-1.94-2.2-3.73-4.08-5.13-1.07-.8-1.76-1.14-3-1.64-3.13-1.27-1.09-1.19.26.54l2.57,4.41c-.04-.3.05-2.29-.02-2.85-.06-.68-.17-1.34-.31-2.01-.19-1.22-.24-.9-.16.96l-2.57,4.41c1.89-2.16,3.9-4.21,4.69-7.07.3-1.08.39-2.39.38-3.52-.1-1.07-.25-2.14-.46-3.19-.22-1.35-.26-.7-.13,1.93-2.33,2.33-4.66,4.66-6.98,6.98l.69-.28h-5.32c-1.45-.34,2.09.99,2.34,1.28l-2.57-4.41.36,1.19v-5.32c-.43,2.83-1.73,5.07-2.46,7.78-.52,1.93-.44,4.29.04,6.2l.39,1.03c1.2,3.1,1.33,3.19.4.26.98-2.36,1.95-4.71,2.93-7.07l.58-.46,5.05-1.37c-.07,0-1.76.33-1.67-.13l4.02,5.04c-.14-.93-.15-1.87-.04-2.8l-1.37,5.05.4-.68-3.59,3.59c1.74-1.12,3.4-1.68,4.97-3.22,2-1.96,2.87-4.45,3.87-7l-2.57,4.41.87-.72-4.41,2.57-.18.12-5.05-1.37,1.16.52-3.59-3.59.55.79-1.37-5.05c.15,2.49,0,4.68.94,7.11s2.61,4.12,4.17,6.07l-2.57-4.41c.29.81.89,2.17.96,3.01l1.37-5.05c.75-.71.62-.63-.38.23-.95.76-1.73,1.68-2.36,2.74-.72,1.12-3.58,5.94-.93,2.96l4.41-2.57,4.84,1.08,2.57,4.41-.17-.92v5.32c.68-3.87,1.35-7.05-.3-10.84-.28-.82-.67-1.59-1.15-2.3.25,2.67.46,3.23.64,1.66.73-1.36.91-3.64,1.41-5.16,4.03-12.26-15.28-17.51-19.29-5.32h0Z"/>
  </g>
</svg>