<?xml version="1.0" encoding="UTF-8"?>
<svg id="_素材配置" data-name="素材配置" xmlns="http://www.w3.org/2000/svg" viewBox="0 0 1000 1000">
  <path d="M585.89,519.71c1.75,4.71,2.71,9.15,6.49,12.93.69.69,2.39,2.04,3.51,2.5.87.36,2.99,1.81.6-.41,2.16,2,3.33,3.9,5.8,5.76,4.09,3.08,9.06,4.51,14.03,5.63,3.24.72,5.36.26,8.57-.3.2-.03,1.47-.34,1.32-.31.91-.04,1.82-.13,2.72-.28,1.45-.36,1.74-.33.88.07l-5.05-1.37c2.24,1.07,4.07,2.68,6.53,3.37,3.89,1.09,8.26-.25,11.08-3.07.94-.94,2.07-2.41,2.59-3.66,1.14-2.72-3.35,1.17-1.47,1.32,2.84.24,7.07-4.04,8.98-5.59,2.07-1.68,5.17-3.67,6.28-6.19,1.17-1.56.65-1.48-1.56.23-3.04,1.37-2.88,1.65.5.87,1.47-.33,2.92-.82,4.23-1.61,2.67-1.59,5.85-4.5,7.32-7.22,1.58-2.92,1.21-5.85,1.55-8.96l-1.37,5.05.34-.7-3.59,3.59c1.48-.94,4.56-1.79,6.37-3.59.83-.83,1.57-1.95,2.14-2.98.46-.96.86-1.94,1.21-2.94.45-1.16.21-.76-.71,1.21l-4.41,2.57c3.38-1.39,6.4-2.35,8.81-5.29,2.13-2.6,3.47-5.95,5.02-8.91,5.97-11.39-11.29-21.51-17.27-10.09-.87,1.65-2.17,3.53-2.78,5.27-1.34,2.17-.72,1.95,1.86-.66-.72.29-1.43.59-2.14.89-4.26,2.07-5.72,5.99-7.41,8.81l3.59-3.59c-2.39,1.62-6.04,2.37-8.1,5.96-1.79,3.13-1.32,6.01-1.72,9.31l1.37-5.05c.31-.78-.04-.57-1.05.63,3.89-1.33,4-1.64.34-.91-1.47.33-2.94.8-4.26,1.58-3.25,1.92-4.56,5.19-6.94,7.18-2.72,2.28-4.02,1.94-7.16,3.85s-4.26,4.78-6.24,7.49l3.59-3.59-.66.47,5.05-1.37c2.93.99,3.55.99,1.87-.02-.51-.39-1.07-.7-1.66-.94-1.8-.91-3.74-1.48-5.78-1.46s-5.11.21-7.01.61c-.89.04-1.72.28-2.49.72,1.54.2,1.71.15.5-.13-2.35-1.35-5.26-.97-7.08-2.79-1.53-1.54-2.24-3.03-4.33-4.37-1.36-.87-2.85-1.36-4.16-2.32l3.59,3.59c-.81-1.05-2.15-2.63-2.64-3.86.37.93-.25-2.23-.27-2.27-1.88-5.06-6.77-8.5-12.3-6.98-4.87,1.34-8.87,7.21-6.98,12.3h0Z"/>
  <path d="M669.32,507.37c2.26,1.24,7.72,2.99,10.3,1.26,1.91-.23,1.03-.6-2.64-1.1-1.93.17-3.32-.47-4.15-1.94.83.32,2.16,3,2.56,3.43,4.37,4.64,11.01,4.66,16.75,2.81,4.97-1.6,8.7-7.01,6.98-12.3-1.61-4.98-6.97-8.7-12.3-6.98-.42.16-.84.28-1.28.37-.7.14-.61.15.28,0l-.94.06,4.85,2.16c1.73,1.6.44.46-.03-.19-.67-.92-1.36-1.93-2.19-2.72-2-1.91-4.32-2.95-7.03-3.32-1.65-.22-3.04-.04-4.69.2-3.43.5-.06-1.02,3.61,1-4.58-2.52-11.12-1.27-13.68,3.59s-1.31,10.99,3.59,13.68h0Z"/>
  <path d="M655.92,528.3c2.74,2.17,5.94,4.63,9.41,5.51,2.05.52,3.96.42,6-.02.53-.09,1.05-.23,1.56-.4,3.52-.92,1.15-2.1-7.1-3.55.78,2.64,3.19,5.41,5.48,6.79,3.45,2.08,7,1.59,10.75,1.46,5.4-.19,10-4.46,10-10s-4.58-10.19-10-10c-1.75.06-3.46.33-5.21.14l5.05,1.37c2.21,1.04,2.91,3.48,1.56.87-.24-.46-.46-.92-.73-1.36-1.61-2.59-4.16-4.78-7.17-5.47-2.35-.54-5.25-.57-7.53.35-3.8,1.53,3.69-.13,3.6.85,0-.02-2.92-1.78-1.52-.68-4.23-3.35-10.01-4.13-14.14,0-3.48,3.48-4.26,10.77,0,14.14h0Z"/>
  <path d="M372.34,512.32c-1.01,1.78-2.08,3.47-3.16,5.2-1.47,2.35.69-.23-2.54,2.48-1.36,1.14-2.63,2.27-3.53,3.87-.93,1.35-.86,1.45.2.3-1.87.95-1.77,1.2.28.73,2.5-.13,2.15-.31-1.04-.52-1.25-.26-2.51-.19-3.76.21-1.57.34-3.02.89-4.39,1.77-2.42,1.55-2.86,2.07-5.98.8l4.41,2.57c-2.99-2.65-4.95-4.61-8.94-5.69-1.29-.35-2.65-.72-3.96-1.01-1.28-.36-2.56-.45-3.85-.27-3.31.34-3.55.45-.72.33l4.41,2.57-.49-.59,2.57,4.41c-2.07-5.61-4.4-11.07-10.05-14.14l-2.39-1.01c-1.86-.71-1.5-.44,1.08.81.47-.5-4.45-4.72-4.51-4.76-2.98-1.82-6.13-1.64-9.43-1.92l5.05,1.37-.84-.4,3.59,3.59-.35-.69,1.37,5.05c-.36-3.46.13-6.54-1.82-9.73-1.09-1.78-2.62-3.05-4.41-4.04-1.09-.68-2.26-1.08-3.52-1.19-3.28-.6-3.54-.52-.76.26l3.59,3.59c-.74-1.07-2.62-5.92-1.85-2.31-.48-2.24-.58-4.02-1.8-6.11-.77-1.31-3.01-3.7-4.45-4.33-1.36-.92-1.49-.74-.38.51-.57-.82-1.19-1.6-1.84-2.35-3.18-4.36-8.68-6.51-13.68-3.59-4.3,2.51-6.79,9.3-3.59,13.68,1.34,1.84,2.75,3.89,4.31,5.55,1.03,1.1,3.53,2.3,3.92,2.64l-2.57-4.41c.99,2.43,2.09,6.94,4.23,10.19,1.3,1.97,2.71,3.53,4.81,4.67.58.32,9.29,3.65,4.29.91l-3.59-3.59.34.7-1.37-5.05c.36,3.89.03,7.4,2.62,10.72,3.13,4.02,7.56,4.17,12.22,4.51l-5.05-1.37c-1.28-1.07-1.36-.97-.23.28.55.74,1.13,1.46,1.73,2.15,1.2,1.17,2.66,1.97,4.17,2.64,4.03,1.79.26-.44.3-.48-.13.1,2.85,3.4,3.08,3.68l-2.57-4.41c1.27,3.58,1.91,6.92,5.13,9.43,1.99,1.55,4.48,2.35,7.01,2.43,1.29-.04,2.56-.18,3.83-.42-2.37-.25-2.51-.09-.43.48,3.13.27-.41-1.44.89.13,1.48,1.78,3.86,2.96,6.04,3.6,4.24,1.23,9.15,1.25,13.42.23,1.99-.47,3.86-1.14,5.59-2.24,7.31-4.64-7.06-.62.71-.18,4.31.24,7.63-1.59,10.99-4.05,3.09-2.26,4.68-5,7.32-7.35,3.26-2.9,5.47-7.02,7.6-10.78,6.37-11.21-10.91-21.3-17.27-10.09h0Z"/>
  <path d="M297.09,490.69c.77-.4,1.59-.64,2.45-.71-.5,0-1,.02-1.5.04-1.42.09-3.13.08-4.45.72-.72.19-.62.19.32.02-.64.03-1.29.04-1.93.03-.66.02-1.32.05-1.98.12-1.23.02-1.31.04-.23.09-5.06-1.31-11.09,1.66-12.3,6.98s1.57,10.9,6.98,12.3c4.1,1.06,9.39.86,13.53-.04.32-.04.63-.11.93-.21.9-.23.61-.23-.87,0,.21-.23,1.58-.04,1.87-.06,2.67-.16,4.96-.57,7.27-2,4.45-2.74,6.56-9.07,3.59-13.68s-8.92-6.52-13.68-3.59h0Z"/>
  <path d="M303.31,511.27c-.66.63-1.3,1.27-1.95,1.91,1.46-1.44-1.26.96-1.45,1.12-1.06.96-1.66,1.75-2.59,3.03-.46.64-2,2.46.15.19s.44-.73-.23-.27c-.93.64-2.24,1.45-2.93,2.38-1.56,2.08,3.59-2.56,4.4-1.35-.53-.79-3.72-.53-4.73-.59-5.23-.34-10.23,4.84-10,10,.26,5.71,4.4,9.64,10,10-.94-.19-.78-.17.49.05,1.23.2,2.47.35,3.71.45,1.46,0,2.94-.24,4.32-.67,2.16-.68,3.33-1.55,5.05-2.97.42-.33.83-.68,1.22-1.05-.92.59-1.09.72-.49.39,1.25.06,5.79-4.34,5.89-5.83-.35.58-.8,1.05-1.36,1.42l2.02-1.56c.92-.79,1.76-1.66,2.63-2.5,3.9-3.74,3.76-10.38,0-14.14-3.9-3.9-10.23-3.75-14.14,0h0Z"/>
</svg>