<?xml version="1.0" encoding="UTF-8"?>
<svg id="_レイヤー_2" data-name="レイヤー 2" xmlns="http://www.w3.org/2000/svg" viewBox="0 0 1000 1000">
  <g>
    <path d="M627.04,524.62c-.61,2.1-2.47,4.25-2.48,7.13,0,1.16.14,2.53.43,3.64.25.76.54,1.51.88,2.25.72,1.84.7,1.58-.07-.78l1.37-5.05c.7-1.34-1.66,1.75-1.92,2.09-.85,1.08-4.82,6.47-1.18,2.31l4.41-2.57-.75.18,9.73,2.57-.45-.51,2.57,4.41c-.85-4.75-4.84-10.29-6.05-14.21v5.32c-1.1,1.95-1.13,2.2-.09.76l1.56-2.02c1.2-2.06,1.67-4.35,1.63-6.7s-1.14-7.12-1.11-8.49l-1.37,5.05.52-.76-3.59,3.59c4.48-3.13,7.18-5.43,8.74-10.92l-2.57,4.41.88-.73-7.07,2.93.94.08-8.63-4.95c1.12,2.06,2.24,3.71,3.25,5.16.78,1.12,1.56,2.12,2.56,3.04l2.02,1.56c1.49,1.08,1.27.77-.68-.94l-1.37-5.05c.06,2.25-.39,4.48-.29,6.73.19,3.98-.12-1.26,1-1.08-.66-.11-2.45,3.57-2.7,4.1-1.87,3.89-1.37,8.73-1.23,12.95l1.37-5.05-.33.76,3.59-3.59-.85.4,5.05-1.37c-2.34.24,0,.16.64.75l2.57,4.41c-.27,1.71-.29,1.97-.07.77.24-1.11.4-2.23.5-3.37.09-1.52,0-2.92-.44-4.41-.9-3.07-3.09-5.03-5.05-7.38l2.57,4.41-.29-.85v5.32c.35-2.6,1.03-5.12,1.23-7.75.02-.26.24-2.94,0-1.8-.23.82-.1.56.4-.78,1.01-2.13.53-1.67-1.44,1.38,1.33.22,4.4-4.09,4.91-4.97,1.85-3.2,1.47-6.71.92-10.16v5.32l.17-1.24-16.71,4.41c1.34,1.39,2.95,2.42,4.48,3.58l-3.59-3.59c-.2-1.45-.18-1.34.04.32.12.98.27,1.95.45,2.92.41,1.54,1.32,2.94,1.78,4.47v-5.32c-.29,1.96-2.08,4.75-2.08,7.43,0,3.16,1.53,5.91,2.82,8.68l-1.37-5.05c.54.29.39.81-.46,1.58.84-1.09.94-1.25.28-.49-.72.78-1.37,1.61-1.97,2.48-.65,1.16-.84,1.34-.56.56l4.41-2.57-.73.21,9.73,2.57-.44-.54c-3.37-4.22-10.62-3.52-14.14,0-4.17,4.17-3.38,9.91,0,14.14l.44.54c2.13,2.67,6.61,3.49,9.73,2.57,4.89-1.43,8.71-6.05,10.97-10.27,1.31-2.45,2.41-5.51,2.71-8.27.36-3.37-1.11-5.91-1.78-8.81v5.32c.5-1.93,1.74-3.86,1.9-6.1.25-3.44-1.07-5.32-1.96-8.46-.71-2.48-.55-4.8-1.86-7.15-.8-1.43-1.99-2.61-3.22-3.67.07.06-2.28-2.11-1.44-1.24-4.74-4.9-15.66-3.24-16.71,4.41-.26,1.88-.37,5.47-.44,6.35l1.37-5.05c2.55-3.75-.49-.35-1.46.63-1.56,1.57-2.21,3.16-3.03,5.17-1.25,3.09-1.64,5.69-2.04,9.01-.36,3.05-1.35,6.13-.59,9.22.82,3.3,3.05,5.38,5.17,7.81l-2.57-4.41c-.46-1.15.18-2.48-.29-.31-.28,1.28-.4,2.66-.36,3.97.1,3.11,1.56,6.35,3.76,8.53,3.38,3.35,8.47,5.02,13.14,4.77,6.44-.34,11.06-5.31,11.16-11.73.02-1.35.44-3.92.03-5.13.01-1.31-.21-1.13-.66.54-.86,1.71-.79,1.83.2.37,1.09-1.19,1.91-2.76,2.38-4.29,1.22-4.02,1.51-9.43,1.28-13.62-.17-3.12-1.45-5.97-3.66-8.15-.6-.59-2-2.07-2.83-2.21-.72-.54-.63-.38.27.49.75,1,.92,1.09.49.26.19-1.14-2.11-3.3-2.79-4.26-2.12-2.96-4.91-4.82-8.63-4.95-6.79-.25-10.44,4.54-12.17,10.44l2.57-4.41c.82-.42.64-.32-.53.32-1,.68-1.97,1.41-2.9,2.18-1.8,1.8-2.86,4.03-3.27,6.5-.37,2.26.16,4.17.5,6.38.29-.67.33-.26.11,1.24.27,3.15.41,3.55.42,1.18l2.57-4.41c-2.04,2.58-4.24,4.78-5.05,8.07-.98,3.97.73,6.65,2.03,9.74,2.08,4.92,3.43,10.57,7.04,14.71,2.35,2.69,6.42,3.39,9.73,2.57s5.88-2.98,7.57-5.93c3.1-5.41-.11-1.18.3-.9.36.24,3.52-4.23,3.08-3.53,1.72-2.77,2.27-6.34,1.45-9.51-.21-.77-.49-1.52-.84-2.24-.97-2.69-1.07-1.5-.29,3.57.97-.11,1.76-3.79,2.01-4.63,3.61-12.38-15.68-17.67-19.29-5.32h0Z"/>
    <path d="M607.1,527.55c1.17-6.6,1.83-13.13,2.44-19.79.09-.99.11-2.18.58-3.12-1.37,2.73,2.59-2.86,2.12-2.16,1.85-2.75,1.84-5.5,3-8.41l-2.57,4.41c1.65-1.78,4.12-2.91,5.57-5.28.62-1.02,1.11-2.16,1.51-3.28.19-.53,1.28-2.51.63-1.63l-3.59,3.59.75-.36-5.05,1.37c1.4-.13,2.78.07,4.18,0,2.82-.14,4.63-1.4,7.16-2.38,3.02-1.17,6.68-1.71,9.9-1.96s6.81-.98,9.77.6c1.81.96,2.76,2.68,4.06,4.18s2.91,2.53,3.88,3.63l-2.57-4.41.18.72v-5.32c-.59,3.9-1.85,7.09-.31,11.05,1.22,3.15,3.86,6.31,4.88,8.59l-1.37-5.05c.4,3.22.06,6.39,1.67,9.37.55,1.02,1.17,1.98,1.96,2.85.42.46,1.67,2.3,1.18,1.16-.34-2.57-.67-5.14-1.01-7.71,1.52-2.37,1.33-2.26-.55.34-.76.99-1.3,2.09-1.63,3.31-.65,2.08-.7,4.07-.24,6.21.23,1.07.77,2.04,1,3.08.16,2.98.33,3.54.49,1.68-.4.92-.66,1.87-.79,2.87-1.07,5.29,1.53,10.8,6.98,12.3,4.94,1.36,11.22-1.67,12.3-6.98.69-3.4,1.56-6.2,1.11-9.74-.37-2.95-1.14-5.65-1.81-8.51v5.32c-1.46,2.37-1.26,2.25.6-.35l.61-.92c1.22-2.23,1.73-4.75,1.39-7.26-.28-2.1-1.11-3.88-2.33-5.56-.26-.37-2.66-3.51-2-2.16l1.37,5.05c-.26-3.59-.29-7.12-2.11-10.36-1.04-1.84-2.91-3.96-3.04-4.78v5.32c1.21-6.24,1.94-11.13-3.45-15.78-3.86-3.33-7.52-8.39-13.28-10.69s-11.58-2.6-17.69-2.02c-5.78.55-12.78,1.19-17.94,4.07l-1.31.61c2.11-.19,2.56-.31,1.37-.34-.84-.22-1.77-.06-2.62,0-4.02.26-7.56,2.24-9.68,5.72-.64,1.06-1.53,2.52-1.69,3.82-.56,1.54-.39,1.5.52-.11,1.21-1.46,1.13-1.62-.26-.46-2.87,1.54-5.1,5-5.9,8.05-.31,1.19-1.32,3.54.04,1.4-.79,1.24-2.09,2.19-2.87,3.51-1.78,3-2.71,6.98-3.01,10.43-.49,5.67-.85,11.41-1.84,16.99s1.44,10.78,6.98,12.3c4.83,1.33,11.35-1.64,12.3-6.98h0Z"/>
    <path d="M675.57,532.66c1.36-.79,3.02-2.12,4.09-2.69,2.76-1.47,5.19-1.88,7.52-4.1.51-.49.89-1.1,1.39-1.59-.92.9,1.18-.82,1.6-1.07,2.07-1.23,4.56-1.85,6.91-2.87,4.96-2.14,6.08-9.42,3.59-13.68-3-5.12-8.7-5.74-13.68-3.59-3.65,1.58-9.73,3.13-12.56,7.07-.22.31-1.08,1.25-.18.61-.05.04-2.01.76-2.28.87-2.45,1.01-4.24,2.46-6.5,3.77-11.12,6.47-1.07,23.76,10.09,17.27h0Z"/>
  </g>
  <g>
    <path d="M355.28,524.56c.62-.72.57-.51-.14.62-.49,1.13-.96,2.26-1.42,3.4-.65,2.55-.53,5.04.42,7.47.68,1.73,1.6,3.11,2.99,4.39.88.78,1.82,1.47,2.83,2.07,1.56,1.01,1.28.53-.86-1.44l-1.37-5.05c0,1.25-.66,3.36-.56,5.07.13,2.26.8,4.17,1.91,6.11,1.9,3.3,4.84,6.41,8.69,7.26,4.67,1.02,8.62-.77,11.29-4.6,1.08-1.54,1.57-3.59,1.63-5.43.02-.65.12-3.38-.3-.72l-2.57,4.41c-.99,1.18.95-.89,1.28-1.14,1.08-.82,1.71-1.39,2.57-2.43,1.47-1.78,2.74-4.02,3.7-6.1,1.22-2.63,1.65-5.51.86-8.37-.3-1.08-.88-2.26-1.45-3.23-.41-.69-1.26-2.65-.94-1.01v5.32l.35-.89-2.57,4.41c3.25-3.99,6.47-7.69,5.05-13.27-.57-2.23-1.81-4.24-3.47-5.83-.55-.45-1.1-.9-1.66-1.34,1.3,2.08,1.68,2.14,1.15.18-.2,2.2-.03,2.42.51.67.41-1.21.64-2.46.68-3.75.06-2.99-.95-5.84-3.02-8-3.54-3.7-7.26-3.05-11.76-3.6l5.05,1.37c-4.97-2.43-9.65-3.42-14.39.16-4.28,3.24-3.87,7.45-4.24,12.12l1.37-5.05c.54-.92-3.01,3.26-3,3.25-1.27,2.07-1.75,4.37-1.82,6.77-.06,2.22.03,4.65.48,6.82.11,1.28.51,2.48,1.2,3.6.97,2.64,1.08,1.49.34-3.43-3.48,3.06-1.3,10.44.14,13.67,2.17,4.88,4.43,6.27,9.23,8.42,3.17,1.42,6.53,3.69,11.15,2.42,5.11-1.41,8.38-6.08,8.73-11.2.1-1.47-1.12-5.55-.51-6.36-.56,3.26-.3,3.28.78.07l.3-1.43c.63-2.96.22-5.91-1.32-8.54-.69-1-1.46-1.95-2.3-2.83-1.03-.92-1.18-1.06-.44-.42l1.01,7.71c-.16.91-.28.47.19-.33.57-.99,1.15-2.21,1.45-3.3.76-2.78.32-5.57-.46-8.28-1.15-4.01-2.82-7.24-4.58-10.74-3.32-6.59-13.92-6.46-17.27,0-.89,1.71-1.43,3.45-2.05,5.26l2.57-4.41c.64-.75-2.14,1.51-2.55,1.86-1.6,1.37-2.8,2.86-3.61,4.8-.86,2.05-.99,4.13-.84,6.3l.36,2.66c0-1.8-.09-1.7-.3.29-.64,3-1.27,6.06-1.15,9.12.08,2.07.67,4.15,1.75,5.92-.1-.17,3.56,4.38,2.86,3.2l-1.37-5.05c-.07-1.2-.25.88-.33,1.29-.39,2.05-.56,3.86-.11,5.89.7,3.13,2.58,5.87,5.39,7.51,6.04,3.54,13.19,1.1,16.93-4.36,3.05-4.46.84-11.09-3.59-13.68-4.95-2.89-10.62-.88-13.68,3.59l-.45.66,5.98-4.6,2.52.12,4.41,2.57-.63-.58,2.57,4.41-.17-.96v5.32c.62-3.32,1.73-6.42.79-9.84-.53-1.92-1.76-3.82-3.08-5.26-.38-.42-1.74-2.47-1.18-1.2l1.37,5.05c0-.83.58-4.29.81-6.14.37-2.9,0-5.88.26-8.37l-1.37,5.05.53-.8-3.59,3.59c1.79-1.29,3.69-2.22,5.26-3.83,1.04-1.07,1.76-2.28,2.39-3.6-.03.07,1.49-3.52.53-1.67h-17.27c.55,1.2.6,1.19.15-.04.5,1.25,1.04,2.48,1.6,3.7.18.47.82,3.51.93,2.61l1.37-5.05c-1.61,3.31-3.35,6.11-2.83,10.01s2.95,6.18,5.49,9l-2.57-4.41.31.84v-5.32c-.53,2.51-1.64,4.75-1.62,7.52.01,2.04.53,3.79.35,5.53l1.37-5.05-.45.95,3.59-3.59-.94.61,5.05-1.37c2.46.05.3-.59-.95-1.18-1.11-.53-2.13-.86-3.34-1.07l4.41,2.57c.91.75-.89,6.49.79,1.48.68-2.01.93-3.94.72-6.03s-1.25-3.57-1.77-5.52c-.46-.93-.35-.8.33.4-.15-1.11-.16-2.21-.03-3.32l-1.37,5.05c-.49,1.06.53-.44.93-.85.95-.99,1.82-2.1,2.49-3.3.86-1.55,1.28-3.29,1.37-5.05.03-.53.48-2.91-.06-1.61l-4.6,5.98.99-.44h-10.09c2.02.86,3.84,1.84,6.01,2.25.27.05,4.66.27,2.77-.03l-4.41-2.57.59.52c-.98-2.36-1.95-4.71-2.93-7.07-.19-1.89-1.06,4.41-1.06,4.29-.07,2.09.4,4.39.88,6.43,1.03,4.41,3.23,6.15,6.09,9.28l-2.57-4.41.27.73v-5.32c1.13-3.88-.72-.13-1.47,1.16-1.33,2.27-1.8,4.7-1.54,7.27.33,3.31,2.12,5.21,3.58,7.96l-1.37-5.05c.7-2.44.58-2.81-.36-1.1-.96,1.62-.66,1.44.89-.55-.33,1.06-2.61,1.98-3.44,2.9-2.91,3.2-2.75,6.41-2.99,10.45l1.37-5.05-.27.38,11.29-4.6-.59-.13,4.41,2.57c-.83-.66-.32.08-1.1-1.57l1.37,5.05c-.26-3.21,1.28-6.57-.98-10.42-.94-1.6-2-2.59-3.41-3.65-.57-.5-1.18-.93-1.84-1.29-1.59-1.01-1.26-.54.98,1.41l1.37,5.05c-.4,4.74,1.04-.87,1.28-2.32.89-5.32-1.4-10.77-6.98-12.3-4.79-1.32-11.4,1.63-12.3,6.98h0Z"/>
    <path d="M410.2,527.7c-.21.94,2.13-3.96,2.16-4.07.64-2.13.52-4.14.2-6.31-.58-3.9-.05-7.65-1-11.54-.79-3.24-2.46-5.97-3.67-9.01s-1.96-6.48-3.52-9.44c-.76-1.43-1.68-2.7-2.86-3.82-.57-.54-8.04-5.89-3.98-1.51,3.39,3.64.04-1.81-.79-3.05-1.22-1.82-2.73-3.17-4.65-4.22-2.98-1.63-6.91-2.94-10.22-4.07-2.8-.96-8.22-1.24-9.51-1.75l4.41,2.57c-4.3-3.67-7.91-7.26-14.16-5.49-2.25.64-4.33,2-6.3,3.19-.99.6-1.98,1.16-2.85,1.97-.07.07-2.32,2.13-.89,1.22l5.05-1.37c2.06-.19-.73-.36-1.56-.55-2.13-.5-4.03-.57-6.16,0-3.79,1.01-8.42,3.79-10.57,7.11-.8,1.24-1.59,2.66-1.95,4.12-.53,1.57-.34,1.46.56-.34l-1.56,2.02c-1.08,1.48-2.04,2.98-2.61,4.73-.46,1.17-.7,2.4-.7,3.68-.12,1.29-.1,1.54.07.75l2.57-4.41c.53-.58,3.36-1.51,1.16-.83-1.08.34-2.2.87-3.17,1.46-2.73,1.66-4.33,4.31-5.25,7.27-1.33,4.28-.53,9.16-.78,12.22-.14,1.78-.06,3.99-.54,5.7.92-3.27-1.51,1.84-1.81,3.06-.77,3.06-.06,6.34,1.54,9.01.5.83,2.62,4.51,1.23.94s-.33.49-.25,1.34c.54,5.37,4.21,10,10,10,4.99,0,10.55-4.59,10-10-.24-2.36-.36-5.11-.99-7.39-.31-1.12-.83-2.26-1.43-3.25-.33-.5-.69-.98-1.08-1.44-1.16-1.6-1.07-1.33.27.8v5.32c.13-.42,1.73-2.92,2.08-4.28.62-2.4.54-5.19.78-7.66.2-2.07.46-3.93.17-6,0-.04-.48-4-.45-1.69.03,2.1.84-1.09.2-.26l-3.59,3.59c-1.59.92,1.33-.62,1.51-.7,1.23-.54,1.96-.9,3.03-1.72,2.66-2.06,4.11-4.84,4.52-8.16.14-.63.2-1.27.18-1.92.03-.87,0-.78-.1.25-1.24,1.6,1.33-.98,1.62-1.44.62-1,1.11-2.12,1.5-3.23.26-.73,1.29-2.4.56-1.45l-3.59,3.59c.42-.28,2.69-1.61,2.59-1.59h-5.32c4.43.78,7.94,2.4,12.38-.02,1.74-.95,2.79-2.41,4.22-3.65-1.86,1.61,2.4-1.16,1.63-.9h-5.32l.77.21-4.41-2.57c1.46,1.14,2.58,2.6,4.1,3.68,2.99,2.11,5.06,2.01,8.46,2.45s8.26,2.17,10.95,3.78l-3.59-3.59c2,2.74,3.11,6.57,6.72,8.78,1.14.51,2.29,1,3.44,1.47-2.7-3.56-3.65-4.38-2.87-2.45-.1,1.22,1.39,3.77,1.81,4.92,1.08,2.95,3.42,6.32,3.69,9.33.12,1.34-.23,2.65-.17,4.01.11,2.51.82,5.04,1.17,7.53v-5.32c.24-1.18-.59.76-.83,1.17-.7,1.21-1.23,2.53-1.54,3.89-2.81,12.54,16.46,17.89,19.29,5.32h0Z"/>
    <path d="M337.26,516.61c1.33,1.08-.14-.61-.51-1.25-.72-1.29-1.65-2.41-2.73-3.4-2.63-2.41-6.28-3.26-9.67-3.96-1.98-.41-3.45-.47-5.37-.21-.8.08-1.59.21-2.37.38,3.8,1.02,4.9,1.04,3.3.04-1.75-1.88-4.84-2.82-7.03-4.02-11.27-6.24-21.37,11.03-10.09,17.27,3.54,1.96,7.52,5.1,11.4,6.15,1.13.31,2.39.43,3.55.43.92,0,3.38-1.06,4.19-.59-.58-.34-3.85-.45-1.31.35,1.22.39,2.46.45,3.68.87l-4.41-2.57c-1.14-.97.11.58.5,1.28.72,1.27,1.61,2.45,2.74,3.38,4.18,3.41,10.05,4.09,14.14,0,3.52-3.52,4.2-10.71,0-14.14h0Z"/>
  </g>
</svg>