<?xml version="1.0" encoding="UTF-8"?>
<svg id="_素材配置" data-name="素材配置" xmlns="http://www.w3.org/2000/svg" viewBox="0 0 1000 1000">
  <path d="M434.46,543.7c-.6-1.92-.58-5.39-1.27-8.26-.89-3.72-3.8-6.92-6.57-9.47-.85-.9-1.84-1.56-2.97-2-3.51-1.81-3.29-1.18.66,1.88.24-1.23-1.93-3.95-2.54-4.89-.52-.83-1.08-1.63-1.66-2.42.78,2.54.99,2.79.61.75-.1-1.96-.71-3.89-1.73-5.56-2.08-3.39-5.21-4.33-7.52-6.68-1.71-1.75-3.54-4.58-6.13-6.61-3.09-2.43-6.41-4.15-9.88-6-1.56-.83-3.09-1.53-4.83-1.9-1.84-.39-5.56.03-6.43-.07l5.05,1.37c-1.06-.63-4.32-2.78-6.45-3.71-3.03-1.33-4.79-2.79-8.05-3.63s-7.57-.64-10.66.34c-1.83.59-3.39,1.55-4.76,2.92-.73.7-1.37,1.49-1.91,2.37-1.14,1.46-.86,1.23.86-.69l5.05-1.37c-1.81.2-3.67.33-5.46.68-1.58.31-8.54,1.44-2.73,1.93,5.19.44.18-.93-1.4-1.37-1.81-.5-3.4-.55-5.2-.22-3.79.7-8.04,2.5-10.81,5.29-.47.47-3.06,3.59-2.29,2.7l-1.05,1.05c-2.21,2.44-2.1,2.68.33.73-.15-.75-7.91,4.9-8.68,5.72-1.17,1.24-2.33,2.59-3.16,4.09-3.25,5.87.63,1.94.31,1.05.02.06-3.25,2.33-3.89,3.02-1.39,1.5-2.24,3.08-2.72,5.06-.95,3.95.68,6.27,1.43,9.81v-5.32l-.12.66,2.57-4.41c2.18-1.23,2.65-1.63,1.41-1.21-1.01.27-1.98.66-2.91,1.16-1.27.67-2.41,1.46-3.42,2.5-2.66,2.76-2.63,6.88-3.07,9.06-1.06,5.29,1.52,10.8,6.98,12.3,4.93,1.35,11.24-1.66,12.3-6.98.26-1.31.53-4.75.5-4.65l-2.57,4.41c-2.39,1.31-2.7,1.65-.94,1.04,1.09-.46,2.18-.92,3.27-1.38,2.42-1.47,4.36-3.79,5.16-6.52,1.2-4.12-.6-6.74-1.32-10.47v5.32l.14-.65-2.57,4.41c1.08-1.09,4.11-2.84,5.36-4.9.85-1.4,1.11-3.13,1.94-4.51-1.61,2.66,1.31-.81-.08.42-1.01.39-.82.34.55-.14l2.39-1.01c1.31-.72,2.47-1.64,3.51-2.69.62-.63,4.8-5.01,4.77-5.53.1,1.91-6.42-1.83-3.93-.15,1.09.73,2.5,1.2,3.79,1.52,3.8.93,6.31-.6,9.81-1.59,2.53-.71,4.72-.36,7.18-1.77,1.14-.65,2.16-1.52,3.06-2.47l1.56-2.02c.7-1.08.86-1.24.46-.48l-4.41,2.57c-1.17.46,1.1-.4,1.16-.04-1.53-.5-1.81-.49-.86.04.52.38,1.09.67,1.72.85.8.37,1.63.67,2.44,1.01.57.24,4.41,2.23,1.41.27,2.13,1.39,3.7,3.16,6.26,3.86,3.05.84,6.06.17,9.09-.29h-5.32c2.53.43,7.14,3.61,8.32,4.99,1.64,1.93,2.92,3.67,4.86,5.32.99.84,1.92,1.72,2.97,2.51.47.42.97.78,1.51,1.09,1.85,1.25,1.18-.09-2.02-4.01-1.29,3.97,3.95,9.95,5.65,13.21,1.39,2.67,3.25,4.54,5.91,5.93,3.89,2.03.97-.42.63-.14,0,0,2.86,3.21,2.98,3.36l-2.57-4.41c.74,2.36.59,6.1,1.61,9.35,3.85,12.23,23.16,7.01,19.29-5.32h0Z"/>
  <path d="M578.07,550.25c.91-1.74,1.79-3.51,2.6-5.31,1.43-2.53,1.51-3.08.24-1.63.57-.52,1.14-1.03,1.72-1.54,3-3.1,4.98-6.68,6.96-10.42l-3.59,3.59c-.72.56-1.21.22.08.11.64-.06,1.27-.23,1.88-.42,2.7-.84,4.64-2.56,6.37-4.73,3.57-4.47,4.44-7.6,4.62-13.17l-1.37,5.05c-.44,1.04,1.66-2.37.2-.77-.85.3-.89.3-.11,0,.59-.23,1.17-.47,1.75-.72,2.23-1.02,3.29-.91,5.97-2.42,2.55-1.43,3.71-3.4,5.52-5.61-.1.12,3.06-3.11,3.08-3.12l-4.41,2.57.91-.13h-5.32c3.74.9,6.99,1.99,10.81.38,3.61-1.52,5.14-4.39,7.31-7.38l-3.59,3.59.75-.51-5.05,1.37c4.2-.46,4.67,1.01,9.07.93,2.21-.04,3.45-.73,5.44-1.25.85-.15,1.7-.3,2.55-.45,1.86-.54,1.5-.75-1.1-.64l-4.41-2.57c3.13,2.64,5.68,5.41,10.16,5.43,1.61,0,3.16-.36,4.66-.86,3.44-1.23,3.17-1.39-.81-.48,1.71.51,1.98.61.82.28-1.88-1.62,1.57,2.31.81,1.38,1.01,1.26,1.7,2.8,2.92,3.95,3.3,3.11,6.95,3.03,11.13,3.5l-5.05-1.37c.61.29,2.22,2.62,1.18.45l-1.37-5.05c.32,3.76.2,7.17,2.66,10.36s5.48,3.82,8.82,5.22l-4.41-2.57c.74.63,2.17,3.53,2.97,4.92.44.77.86,1.5,1.36,2.22.58.88,1.23,1.7,1.96,2.45.82.94.61.51-.63-1.28v-5.32c-.37,2.23-1.17,4.49-.89,6.76.66,5.36,4.13,10,10,10,4.9,0,10.66-4.6,10-10,.21,1.68.06-.78.18-1.45.37-2.07.41-4.16-.15-6.22-.81-2.99-3.33-5.34-4.56-7.27-1.76-2.77-3.1-5.98-5.41-8.39-1.12-1.16-2.48-1.95-3.91-2.65-.71-.3-1.42-.6-2.12-.89-1.26-.33-1.36-.41-.31-.24l4.6,5.98c.35.85-.05.39-.06-.54-.02-1.2-.14-2.62-.45-3.77-.82-2.98-2.76-5.14-5.11-7.01-1.71-1.36-3.37-2.75-5.45-3.51-1.48-.54-2.81-.69-4.37-.92-.67-.1-2.24-.69-.88-.15l4.41,2.57c-2.53-2.84-5-7.17-9.29-9.23-2.46-1.18-5.47-2.29-8.19-2.35-1.16-.02-2.46.05-3.58.35-1.27.34-5.87,1.39-1.49,1.1l5.05,1.37c1.74.88-3.4-2.69-3.09-2.5-1.69-.99-3.9-1.66-5.88-1.7-2.22-.05-4.01.76-6.05,1.33-.85.15-1.7.3-2.55.45-1.66.51-1.85.65-.55.42,1.21-.03,1.1-.21-.32-.52-1.24-.24-2.5-.38-3.76-.42-1.93-.11-3.99-.08-5.89.3-2.49.49-4.65,1.42-6.49,3.26-.76.94-1.48,1.9-2.18,2.88-.62,1.18-.74,1.32-.34.41,2.36-.98,4.71-1.95,7.07-2.93,1.04-.08.18-.04-.55-.26-1.15-.36-2.56-.62-3.75-.62-3.15,0-6.16,1.24-8.42,3.41-1.14,1.1-2.54,2.8-3.14,3.45s-2.2,2-2.3,2.88c-.66.88-.38.7.86-.54,1.6-1.07,1.61-1.32.03-.73-1.88.29-3.07,1.46-4.16,1.99-2.48,1.22-4.38,2.27-6.4,4.24-1.87,1.82-3.61,3.75-4.49,6.24-.53,1.48-.79,2.84-.88,4.42-.03.6-.42,2.43.06,1.19l2.57-4.41c-.62.74-1.22,1.48-1.82,2.24,2.21-.65,2.72-.86,1.52-.63-1.2-.01-2.5.54-3.56,1.02-2.22,1.02-4.04,2.44-5.39,4.56-.37.59-2.51,5.29-1.25,3.21-1.31,2.16-3.37,3.7-5,5.57-2.48,2.86-3.51,6.79-5.26,10.12-5.96,11.39,11.29,21.52,17.27,10.09h0Z"/>
</svg>