<?xml version="1.0" encoding="UTF-8"?>
<svg id="_レイヤー_2" data-name="レイヤー 2" xmlns="http://www.w3.org/2000/svg" viewBox="0 0 1000 1000">
  <path d="M607.81,529.5c-.13,1.77-.38,3.41-.8,5.13-.19.85-.42,1.7-.69,2.54-.82,1.95-.78,2.19.09.74l4.41-2.57-1,.21,7.71,1.01-.87-.53,3.59,3.59c-2.15-3.16-3.22-7.16-3.32-10.96-.04-1.74,0-3.49.3-5.2.22-1.27.9-2.56,1.02-3.81.08-.9,1.13-1.67-.34-.79l-5.05,1.37c-3.03-.07-4.34-.86-3.93-2.37.34,1.11.63,2.24.87,3.38.33,1.73.45,3.38.46,5.15.02,4.08-.78,7.89-2.36,11.66l2.57-4.41v.19c1.68-.46,3.36-.91,5.04-1.37,2.95,3.62,4.23,4.43,3.82,2.42-.07-1.14-.11-2.29-.11-3.43,0-1.96.07-3.95.32-5.9.59-4.53,2.07-8.96,3.81-13.17l-18.28,2.39c2.1,3.18,3.57,6.5,3.89,10.33.13,1.56.13,3.24-.08,4.79-.16,1.18-.9,2.47-.91,3.62s-1.35,1.64.93.26l5.05-1.37-.87.09,7.07,2.93-.5-.6c-3.46-4.15-10.57-3.58-14.14,0-4.11,4.11-3.47,9.98,0,14.14,4.17,5,12.08,4.28,16.46-.05,3.66-3.61,5.49-9.48,6.31-14.44,1.72-10.37-.09-20.95-5.94-29.79-5.1-7.72-15.01-5.5-18.28,2.39-5.17,12.5-11.3,46.71,11.44,45.4,11.5-.67,14.11-14.2,14.68-23.45.51-8.14-.8-19.24-7.15-25.11-3.44-3.18-8.27-4.57-12.84-3.31-5.57,1.53-8.46,6.54-10.42,11.53-3.17,8.06-3.57,17.06-1.73,25.48s7.26,20.33,18.08,17.05c9.58-2.91,11.04-16.8,11.66-25.12.41-5.39-4.89-10-10-10-5.75,0-9.59,4.59-10,10h0Z"/>
  <path d="M590.52,527.23c.97-15.39,5.92-39.83,26.34-37.55s19.56,25.89,19.18,40.93c-.32,12.87,19.68,12.87,20,0,.34-13.58-.01-27.63-6.34-39.99s-18.24-19.38-31.51-20.78c-13.02-1.37-25.87,4.16-34.08,14.29-9.97,12.31-12.62,27.67-13.59,43.09-.81,12.85,19.2,12.8,20,0h0Z"/>
  <path d="M657.05,533.82c7.46-3.5,14.7-7.39,21.75-11.67,10.98-6.68.94-23.98-10.09-17.27-7.04,4.28-14.29,8.17-21.75,11.67-4.89,2.29-6.14,9.32-3.59,13.68,2.93,5.01,8.77,5.89,13.68,3.59h0Z"/>
  <path d="M336.74,524.95c.63,8.32,2.06,22.21,11.66,25.12,10.81,3.28,16.22-8.52,18.08-17.05s1.44-17.43-1.73-25.48c-1.85-4.69-4.3-9.08-9.23-11.02s-10.2-.74-14.04,2.81c-6.37,5.89-7.66,16.97-7.15,25.11.58,9.27,3.18,22.78,14.68,23.45,22.76,1.32,16.6-32.92,11.44-45.4-3.27-7.91-13.2-10.06-18.28-2.39-5.82,8.81-7.7,19.46-5.94,29.79.82,4.77,2.52,10.47,5.96,14.02,4.39,4.54,12.4,5.77,16.82.48,3.46-4.15,4.06-10.08,0-14.14-3.56-3.56-10.67-4.17-14.14,0l-.5.6,7.07-2.93-.87-.09,5.05,1.37c2.6,1.57.51-1.34.18-3.15s-.39-3.69-.24-5.53c.32-3.81,1.79-7.16,3.89-10.33l-18.28-2.39c1.74,4.21,3.22,8.63,3.81,13.17.25,1.94.32,3.94.32,5.9,0,1.15-.03,2.29-.11,3.43-.41,2.01.87,1.2,3.82-2.42l5.05,1.37v-.19c.85,1.47,1.71,2.94,2.57,4.41-1.58-3.77-2.38-7.58-2.36-11.66,0-1.77.13-3.42.46-5.15.24-1.14.53-2.27.87-3.38.41,1.51-.9,2.3-3.93,2.37l-5.05-1.37c-1.77-1.06.24,2.6.5,3.83.43,1.98.53,3.94.48,5.97-.1,3.81-1.16,7.8-3.32,10.96l3.59-3.59-.87.53,7.71-1.01-1-.21,4.41,2.57c.88,1.46.91,1.21.09-.74-.26-.84-.49-1.68-.69-2.54-.42-1.72-.67-3.37-.8-5.13-.41-5.39-4.31-10-10-10-5.1,0-10.41,4.59-10,10h0Z"/>
  <path d="M394.03,522.67c-.97-15.42-3.62-30.77-13.59-43.09-8.19-10.12-21.08-15.67-34.08-14.29s-25.3,8.71-31.51,20.78c-6.35,12.33-6.68,26.42-6.34,39.99.32,12.85,20.32,12.9,20,0-.38-15.15-.61-38.59,19.18-40.93s25.38,22.28,26.34,37.55c.8,12.78,20.81,12.87,20,0h0Z"/>
  <path d="M317.6,511.99c-7.46-3.5-14.7-7.39-21.75-11.67-11.03-6.7-21.09,10.59-10.09,17.27,7.04,4.28,14.29,8.17,21.75,11.67,4.89,2.29,10.78,1.37,13.68-3.59,2.54-4.34,1.32-11.38-3.59-13.68h0Z"/>
</svg>