<?xml version="1.0" encoding="UTF-8"?>
<svg id="base" xmlns="http://www.w3.org/2000/svg" viewBox="0 0 1000 1000">
  <path d="M606.64,478.96c-9.99,10.43-19.79,21.32-24.63,35.19-5.01,14.37-1.96,31.42,11.78,39.69s30.9,2.75,40.7-8.75c9.05-10.62,15.9-27,15.33-41.11-.66-16.42-15.63-33.3-33.25-27.15-5.1,1.78-8.48,6.84-6.98,12.3,1.36,4.95,7.18,8.77,12.3,6.98,9.61-3.35,7.81,13.29,6.3,18.3-2.64,8.78-7.61,21.39-17.92,23.26s-11.62-10.11-9.24-17.45c3.47-10.7,12.18-19.21,19.76-27.13,8.9-9.3-5.22-23.46-14.14-14.14h0Z"/>
  <path d="M566.5,514.59c26.74-17.84,59.13-32.2,91.2-20.07,5.05,1.91,10.96-2.12,12.3-6.98,1.54-5.62-1.91-10.38-6.98-12.3-36.84-13.93-75.73,1.48-106.61,22.08-10.66,7.11-.65,24.44,10.09,17.27h0Z"/>
  <path d="M337.55,493.01c7.46,7.79,15.76,16,19.49,26.36,2.67,7.41,2.16,20.16-8.97,18.21-10.01-1.76-14.99-13.9-17.66-22.4-1.45-4.62-3.32-11-.88-15.62,1.57-2.98,4.03-4.55,6.93-3.54,5.1,1.78,10.94-2.03,12.3-6.98,1.51-5.51-1.87-10.51-6.98-12.3-14.22-4.96-29.29,6.28-32.34,20.18-3.11,14.18,2.48,31.11,10.48,42.89,8.39,12.35,23.6,21.72,38.86,16.56s21.98-21.29,19.05-36.75c-3.08-16.28-15.09-29.21-26.14-40.75-8.92-9.32-23.05,4.84-14.14,14.14h0Z"/>
  <path d="M401.93,497.23c-30.88-20.6-69.77-36.01-106.61-22.08-5.05,1.91-8.51,6.75-6.98,12.3,1.33,4.84,7.22,8.9,12.3,6.98,32.07-12.13,64.46,2.23,91.2,20.07,10.74,7.16,20.76-10.15,10.09-17.27h0Z"/>
  <path d="M670.5,493.98c6.43-5.21,12.54-10.76,18.34-16.67,4.86-4.95,3.15-11.96-2.02-15.71l-.32-.23c-3.71-2.69-9.01-1.19-12.12,1.56l-.3.26c-4.04,3.58-3.66,10.49,0,14.14,4.02,4.02,10.09,3.59,14.14,0l.3-.26-12.12,1.56.32.23c-.67-5.24-1.35-10.47-2.02-15.71-5.8,5.9-11.91,11.46-18.34,16.67-4.2,3.4-3.54,10.6,0,14.14,4.15,4.15,9.93,3.41,14.14,0h0Z"/>
  <path d="M297.04,477.86c-4.97-3.1-9.26-8.06-11.23-13.19s-6.73-8.52-12.3-6.98c-4.82,1.32-8.93,7.23-6.98,12.3,4.05,10.55,10.78,19.14,20.42,25.15,10.95,6.83,21.01-10.47,10.09-17.27h0Z"/>
</svg>