<?xml version="1.0" encoding="UTF-8"?>
<svg id="_レイヤー_2" data-name="レイヤー 2" xmlns="http://www.w3.org/2000/svg" viewBox="0 0 1000 1000">
  <g>
    <path d="M622.66,493.39c1.25-.17,2.51-.33,3.76-.5,2.95-1.07,3.2-1.29.77-.65l-5.05-1.37c-1.15-.77.92,1.32,1.12,1.5,1.8,1.64,3.59,2.1,5.67,3.15.45.23,1.33,1.22,2.04,1.21-.47,0,.52-5.25-.49-3.27-1.9,3.74.67,8.28,2.6,11.24.68,1.05,1.15,2,1.99,3.02.41.69.95,1.26,1.62,1.69,2.49,2.07,2.68,2.1.58.1l-1.37-5.05-.14,1.08,1.37-5.05c-.87,1.89-1.88,3.71-2.33,5.75-.48,1.77-.48,3.54,0,5.32.2,1.95.37,1.88.51-.2l2.57-4.41c-1.69,2.12-3.67,3.87-4.65,6.49-.58,1.55-.92,3.14-.9,4.82s-.22,5.97.79,1.46l2.57-4.41-.66.6,4.41-2.57c-3.49,1.22-6.71,1.78-9.17,4.93-1.09,1.4-1.79,2.86-2.24,4.61-.17,1.05-.31,2.1-.44,3.16-.09,1.34-.09,1.5,0,.5l2.57-4.41c.34-.68.74-.89,1.21-.63l5.05,1.37c-2.59-1.2-4.81-2.76-7.74-3.02s-6.73,1.58-8.34,1.79h5.32l-1.02-.42,4.41,2.57c-1.93-1.56-3.69-3.3-6.03-4.22-1.42-.55-2.89-.89-4.44-.92-1.09-.15-2.17-.05-3.24.3l2.68.29c.68.49,1.48,3.34.7.83-.26-.84-1.33-3.11-1.38-3.27-.36-1.22-1.11-3.84-2.11-5.62-.69-1.23-1.9-2.71-2.38-3.93-.15-.37-.98,2.12.19-.59.47-1.09.86-2.14,1.21-3.26.69-2.25,1.61-4.66,1.6-7.06,0-2.87-1.84,2.07.03-.62,2.81-4.05-1.52,1.57,1.07-2.01l-3.59,3.59c-3.34,1.67,1.44.07,2.33-.22,2.15-.69,2.9-1.99,4.78-2.76.64-.26,1.4-.24,2.01-.31l1.47.11c-1.44-.21-1.33,0,.32.62,11.43,5.86,21.56-11.39,10.09-17.27-4.75-2.44-9.27-3.87-14.67-3.22-2.38.29-4.62.69-6.84,1.62-1.33.55-2.57,1.12-3.67,2.08l1.42.02-2.66.36c-5.59,1.17-8.38,4.93-10.39,9.63-1.68,3.91-1.42,7.01-2.76,10.82-1.67,4.77-2.54,8.67-1.24,13.8.92,3.64,3.6,7.15,4.76,10.26,1.51,4.06,2.64,8.08,6.27,11.24,2.16,1.88,4.79,3.65,7.56,4.39,2.25.6,5.54.11,7,.25l-5.05-1.37c1.68,1.01,4.66,3.37,7.55,3.75,3.17.42,6.18-1.12,8.34-1.79h-5.32c-1.23-.24.63.35,1.13.59,1.4.69,2.7,1.16,4.22,1.42,3.25.55,6.21-.45,9.17-1.7,2.75-1.16,5.11-2.72,6.66-5.37.59-1,.95-2.19,1.22-3.32.2-1.06.33-2.13.4-3.21.14-1.32-.1-.77-.74,1.66l-3.59,3.59c-1.56.92,4.3-1.54,3.97-1.35,1.61-.94,3.32-2.6,4.24-4.19s1.54-4.06,1.57-5.95c-.16-1.23-.33-2.47-.5-3.7-.34-1.3-.38-1.46-.11-.48l-1.37,5.05c-.62,1.21.82-1.01,1.01-1.25,1.25-1.49,2.18-2.92,2.73-4.85.99-3.43-.04-6.61-.67-10v5.32c.85-3.82,2.96-7.85.26-12.53-1.25-2.17-2.68-3.16-4.59-4.66,1.48,1.92,1.71,2.02.68.3-1.81-2.48-2.06-2.72-.75-.7v5.32c.72-4.85,1.22-8.41-1.51-12.78-2.15-3.44-4.58-5.62-8.16-7.49-.84-.44-6.13-4.13-3.44-1.48-1.25-1.24-1.85-2.28-3.48-3.34-4.93-3.21-9.46-1.74-14.39.42l5.05-1.37-1.1.15c-5.35.71-10,4.09-10,10,0,4.85,4.61,10.72,10,10h0Z"/>
    <path d="M576.82,516.9l.62-.51-4.41,2.57c3.69-1.31,7.07-1.74,9.67-5.11s2.14-6.96,2.33-11.01l-1.37,5.05.33-.74-3.59,3.59c-2.71.61-3.12.82-1.24.63,1.22-.12,2.42-.3,3.62-.53,2.54-.76,4.41-2.21,6.11-4.18,1.33-1.54,3.06-3.5,4.04-5.27.55-1.11,1-2.25,1.35-3.43.29-1.32.35-1.5.19-.54l-3.59,3.59.88-.4-5.05,1.37c4.13-.46,8.15-.44,11.36-3.55,1.48-1.43,3.17-3.81,3.44-5.9.69-2.04.11-1.44-1.75,1.81,1.69-.63,1.99-.81.89-.55-1.02.17-.78.19.74.06,1.31-.06,2.58-.28,3.83-.67,1.91-.42,3.98-.9,5.76-1.73,3.91-1.8,5.15-4.75,7.35-8.07l-3.59,3.59.64-.48-5.05,1.37c-1.55.15.68.24,1.38.4,1.98.43,4.26.49,6.24-.05,1.86-.51,3.82-1.77,5.18-3.09,1.18-1.14,4.52-3.85.77-1.56l-5.05,1.37.76.05-5.05-1.37c3.58,1.69,6.38,3.8,10.64,3.27,2.43-.31,4.64-1.42,6.43-3.1.83-.81,1.56-1.71,2.2-2.69,1.13-1.45.79-1.11-1.03,1.01l-5.05,1.37c2.02-.11,4-.04,6.01-.25l2.66-.36c-2.83-.94-3.29-1.01-1.38-.21,1.92.97,3.98,1.6,6.15,1.65,1.39.03,4.65-.84,4.67-.84l-5.05-1.37c-1.72-1.91-2.21-2.31-1.47-1.22.54.88,1.15,1.7,1.84,2.47.79.86,1.61,1.67,2.62,2.29,1.79,1.09,3.58,1.66,5.71,1.78.45.02,3.74,0,1.58-.34-1.81-.29,1.23.97,1.78,1.29,1.01.6,2.04,1.21,3.07,1.77,3.07,1.68,5.75,1.97,9.16,2.41l-5.05-1.37c-1.45-1.67-1.72-1.73-.82-.19.73.98,1.47,1.95,2.23,2.91,1.05.82,2.11,1.63,3.17,2.44-1.44-2.52-1.9-2.78-1.37-.77,1.08,5.45,6.04,7.67,10.57,9.57l-4.41-2.57.86.68-2.57-4.41c.09-.76.11-.44.07.96l.36,2.66c.63,2.6,1.91,4.57,3.93,6.26,1.36,1.14,2.73,1.87,4.48,2.35,1.02.27,2.06.43,3.12.47,1.91.26,1.46.13-1.36-.41l-3.59-3.59c.72,1.25,1.37,2.53,2.06,3.8,6.18,11.29,23.46,1.21,17.27-10.09-1.61-2.94-2.93-5.79-5.95-7.61-1.1-.67-2.35-1.16-3.61-1.48l-2.66-.36c-1.9-.27-1.45-.13,1.33.43l4.6,5.98c-.51-1.6-.68-5.72-2.56-8.09-1.78-2.25-5.54-3.91-6.78-4.83l3.59,3.59c.35.77.15-1.03.13-1.11-.31-1.52-1.35-3.18-2.29-4.38-1.69-2.16-4.1-3.54-6.26-5.19l3.59,3.59c-1.72-2.28-2.62-4.86-5-6.66-1.26-.96-2.87-1.8-4.41-2.22-1.09-.15-2.18-.3-3.27-.43-1.13-.13-.81-.12.95.03-1.13-1.39-4.66-2.87-6.28-3.67-3.27-1.63-6.2-1.11-9.63-1.41l5.05,1.37c1.87,1.93,2.27,2.16,1.21.69-.67-.95-1.39-1.85-2.16-2.72-2.07-1.98-4.87-3.23-7.75-3.29-.71-.01-4.67.03-4.98.73,3.49.97,4.17,1.04,2.05.21-1.09-.65-2.26-1.06-3.5-1.23-3.49-.76-8.05.02-11.68.3-2.95.23-5.59,1.21-7.76,3.24-.85.79-1.58,1.68-2.2,2.66-1.13,1.42-.78,1.11,1.03-.95l5.05-1.37-.77-.09,5.05,1.37c-3.14-1.56-5.52-3.49-9.3-3.41-2.14.05-4.04.74-5.83,1.84-.48.3-7.5,6.33-2.78,3.16l5.05-1.37c2.22-.12-4.46-.8-4.06-.79-2.02-.04-4.21.41-5.95,1.45s-3.16,2.45-4.23,4.07c-.42.64-2.47,3.15-1.01,1.96l4.41-2.57c-4.84,1.42-9.22,1.65-14.06,4.07-5.31,2.66-6.44,6.22-8.53,11.34l2.57-4.41-.52.62,4.41-2.57c1.03.14.85.19-.53.14-1.26.13-2.51.29-3.76.48-1.81.5-3.94,1.61-5.29,2.97-1.62,1.62-2.99,3.99-3.49,6.22-.47,1.59-.35,1.5.38-.28-2.26,2.29-2.12,2.65.42,1.1,4.5-2.08-1.18-.77-2.7-.31-2.32.7-4.42,2.08-5.88,4.01s-2.37,4.25-2.48,6.8c-.04.87-.57,4.16.17,2.29l4.6-5.98c1.5-1.12-.83.1-1.64.36-2.23.7-3.7,1.79-5.48,3.24-4.19,3.41-3.54,10.6,0,14.14,4.15,4.15,9.94,3.42,14.14,0h0Z"/>
  </g>
  <g>
    <path d="M371.61,470.92c-3.17.57-6.27,1.28-8.7,3.56-.82.77-1.63,1.6-2.22,2.58-.75,1.24-3.33,4.78-.41,1.63l4.41-2.57c6.05-1.25-3.59-.42-4.24-.26-2.86.71-5.25,2.35-6.8,4.87-.8,1.29-1.33,2.65-1.68,4.12-.86,4.03-.28,3.61,1.75-1.26-1.13.7-2.12,1.55-2.96,2.57-1.93,2.15-2.53,4.45-3.36,7.07l.85-1.38c-.81.9-1.57,1.85-2.28,2.85-3.08,4.93-1.6,9.49.53,14.34l-1.37-5.05c.76-2.31.69-2.69-.22-1.12-.55,1.09-.99,2.21-1.31,3.38.03-.08-1.1,3-1.36,4.26-.64,3-.19,5.91,1.32,8.59.73.95,1.47,1.9,2.2,2.85.93.91,1.04,1.06.34.46l-1.37-5.05c.08,1.64-.4,4.77.21,7.06.57,2.14,1.45,4.45,2.58,6.41,1.21,2.1,2.94,3.8,5.05,4.95,1.78.97,3.58,1.25,5.59,1.42.43.04,2.51.45,1.12.02l-4.41-2.57c-.98-1.01,2.44,3.75,2.34,3.65,1.37,1.37,3.32,2.53,5.15,3.11,4.22,1.34,8.93,1.42,13.23.49,2.58-.56,4.73-1.38,6.79-3.18.79-.69,3.2-2.38-.06-.59,2.05-1.13,4.07-1.62,5.96-3.03.65-.48,4.56-5.04,2.93-3.37,2.76-2.83,5.04-3.56,7.55-6.34,1.28-1.42,2.74-3.79,3.11-5.77.68-1.76.51-1.9-.52-.42.79-.98,1.55-1.98,2.27-3.01,2.05-3.69,2.95-9.24,1.92-13.31-.49-1.94-1.48-3.64-2.82-5.12-.41-.51-.89-.94-1.43-1.31-2.59-2.1-2.69-2.09-.31.04l1.37,5.05.1-.79-1.37,5.05c3.02-6.01,4.95-10.69.46-16.82-1.61-2.19-3.33-4.52-5.3-6.39-1.06-1.01-2.21-1.98-3.5-2.68-.95-.48-1.94-.87-2.95-1.19-1.07-.42-.81-.14.79.86-3.8-4.68-9.73-6.59-15.61-6.95-3.54-.22-7.04.2-9.89,2.47-1.23.98-2.29,2.21-3.14,3.56-.39.62-2.01,2.38-.62,1.28-4.24,3.35-3.5,10.64,0,14.14,4.19,4.19,9.89,3.36,14.14,0,2.05-1.62,2.8-4.06,4.31-6.08l-3.59,3.59.66-.34-5.05,1.37c1.71-.07,3.51-.21,5.07.68-3.47-1.96,2.56,2.8,2.46,2.75,1.14.5,2.28.98,3.43,1.46,1.58.5,1.55.43-.11-.23,1.19,1.26,2.31,2.65,3.2,4.14l-1.37-5.05v.75c.47-1.68.92-3.36,1.38-5.05-1.61,3.68-3.85,6.47-3.32,10.81s4.31,7.16,6.05,9.03l-2.57-4.41c-.27-.75-.26-.05-.25-.05l.7-1.42c-.76.75-1.37,1.59-1.83,2.53-1.28,2.22-1.63,4.75-2.57,7.1l2.57-4.41c-1.91,2.37-5.9,4.91-8.39,7.77s.08.05-.45.31c-.95.46-1.99.74-2.91,1.28-1.8,1.06-3.09,2.63-4.64,3.97l4.41-2.57c-.82.34-3,.83-3.32.59l3.59,3.59c-1.73-2.69-3.02-5.53-5.92-7.23s-6.15-1.46-9.37-1.8l5.05,1.37-.81-.42,3.59,3.59c-.2-.29-2.5-3.55-1.62-3.31.37,3.32.63,3.83.78,1.54.19-.84.23-1.69.12-2.54-.09-2.09-.7-4.12-1.8-5.91-.74-1.2-2.91-5.16-1.41-.95v5.32c-.65.54-.62.27.1-.81l1.01-2.39c.53-1.11.48-.87,1.38-2.72s1.24-3.37,1.19-5.38c-.01-.64-1.29-8.92-1.08-3.87l-1.37,5.05c-.64.52-.51.35.38-.53.79-.92,1.5-1.88,2.15-2.9,1.12-2.05,1.34-4.27,2.19-6.39l-2.57,4.41c1.62-1.74,3.59-2.94,4.86-5.18.58-1.01,1-2.2,1.29-3.31.11-.61.19-1.23.26-1.85.34-2.07.2-1.78-.41.87l-5.98,4.6c-2.68-.07-2.99,0-.91.22.81.12,1.62.22,2.44.31,1.84,0,4.33-.61,5.93-1.55s3.21-2.65,4.2-4.24l.46-.98c1.36-3,1.36-3.18,0-.54l-4.41,2.57c1.43-.43,2.82-.73,4.29-.99,5.32-.95,8.32-7.44,6.98-12.3-1.54-5.6-6.97-7.94-12.3-6.98h0Z"/>
    <path d="M435.68,505.23c-2.13-3.72-3.55-6.44-7.29-8.92-.86-.57-2.17-1.48-3.43-2.18-1.1-.5-2.22-.96-3.35-1.37-1.24-.32-1.38-.38-.41-.17l3.59,3.59c.88,1.37-.78-2.29-.94-2.64-.92-1.99-2.19-3.51-3.75-5.07-1.86-1.86-3.6-3.89-5.52-5.66-2.86-2.63-7.19-4.9-10.99-5.5-.88-.16-1.77-.24-2.67-.24,1.67.4,1.65.18-.07-.66.54.91,1.08,1.14-1.32-1.48-4.63-5.05-11.65-5.8-17.73-7.66-1.73-.53-3.29-1.94-5.12-2.4-2.22-.56-4.22-.39-6.44,0-1.62.29-6.31,1.63-7.96,1.91h5.32c-4.23-1.21-6.9-1.86-11.28-1.25-2.14.3-3.46.61-5.44,1.19-.46.13-5.47,1.32-3.38,1.11,1.19.11,1.03.02-.47-.26-1.25-.36-2.51-.45-3.78-.27-2.32.12-4.31.97-6.4,1.94-3.4,1.58-5.69,4.5-7.56,6.37l4.41-2.57c-.37.1-3.41.22-4.76.65-2.65.84-5.24,2.92-7.24,4.85-3.62,3.51-3.52,7.43-4.01,12.04l1.37-5.05-.33.68,3.59-3.59c2.48-.69,2.71-.85.7-.5-.8.09-1.6.21-2.39.36-1.75.49-3.89,1.75-5.18,3.03-2.44,2.44-3.04,7.22-3.73,8.94l4.6-5.98c1.36-.96-1.05.18-1.56.35-2.35.77-4.4,2.16-5.91,4.12-1.3,1.68-1.97,3.52-2.2,5.6-.21.81-.24,1.62-.06,2.43.27,3.37.44,3.55.5.52l2.57-4.41c-.23.21-2.76,1.69-3.77,2.66-9.3,8.94,4.86,23.07,14.14,14.14,1.37-1.32,4.57-2.97,5.83-5.88.68-1.56,1.04-2.97,1.08-4.74l-.13-1.11c-.29-3.38-.44-3.55-.47-.5l-4.6,5.98c-1.11.83.92-.17,1.54-.36,1.84-.59,3.77-1.71,5.15-3.09,2.89-2.89,3.17-6.79,3.64-10.59l-1.37,5.05.45-1.01-3.59,3.59c-2.95.78-2.75.87.59.27,1.23-.11,2.39-.5,3.46-1.18,1.8-.96,3.33-2.22,4.38-4.02,1.8-3.09,1.45-6.23,1.87-9.58l-1.37,5.05c-.6,1.07,2.17-1.37,2.17-1.37l-4.41,2.57c2.08-.72,6.44-.68,9.17-3.22,1.15-1.07,1.8-2.94,2.97-3.81-2.38,1.77,1.05.35,1.9-.01l-5.05,1.37c.66-.05,4.21.6,6.09.34,2.31-.32,4.62-1,6.86-1.64.51-.15,1.08-.54,1.56-.67,2.98-.13,3.54-.31,1.67-.53-1.39-.32-1.32-.2.21.33,2.81,1.3,6.08,1.61,9.06.73,1.52-.45,3.45-1.42.71-.74,1.39-.35,3.02.07,4.38-.56,1.03-.21.78-.24-.75-.09-1.55-.14-1.77-.02-.65.37.67,1.1,3.23,1.31,4.53,1.61,2.2.52,4.27.98,6.42,1.77.3.11,2.21,1.07,2.4.95.12-.08-3.73-3.68.26.77,3,3.35,7.78,6.24,12.25,6.9.88.16,1.78.24,2.67.22l-1.21-.14c.41.25,1.25.47,1.58.82,1.11,1.18,2.49,3.75,4.09,4.31,1.72.6-.47-2.2.29,0,.39,1.13.76,2.33,1.33,3.38,1.39,2.54,3.53,4.26,6.09,5.43,1.05.48,2.1.83,3.21,1.15l-1.74-.9,2.02,1.56c1.57.77.9.53.24-.64.6,1.06.98,2.2,1.59,3.26,6.4,11.16,23.69,1.1,17.27-10.09h0Z"/>
  </g>
</svg>