<?xml version="1.0" encoding="UTF-8"?>
<svg id="base" xmlns="http://www.w3.org/2000/svg" viewBox="0 0 1000 1000">
  <path d="M628.89,480.16c-2.93,2.56-6.35,4.47-9.08,7.3-1.6,1.65-2.99,3.49-4.27,5.4-.63.74-1.14,1.56-1.53,2.46-1.38,2.64-1.45,3.12-.22,1.43,1.14-1.15,1.05-1.28-.27-.39-1.02.68-1.96,1.45-2.82,2.32-1.44,1.54-3.21,3.71-4.21,5.54-1.32,2.43-1.38,4.62-1.73,7.28.17-.85.1-.51-.21,1.02-.69,3.13-.57,3.52.35,1.15l3.59-3.59c-3.09,2.24-6.14,3.72-7.64,7.49-.91,2.27-.81,4.44-.93,6.82-.1,1.85-.61,3.94-.54,5.9.15,4.02,2.04,9.19,4.88,12.03,1.17,1.17,2.46,1.73,3.74,2.63-3.96-2.78.84,2.17,1.47,2.83,1.17,1.24,2.74,2.04,4.04,3.09.83.67,4.87,4.77,1.69,1.2,3.36,3.77,5.05,6.78,10.63,7.11,3.79.23,8.41-.27,12.03-1.43,2.79-.89,4.97-2.55,6.61-5,.4-.6,2.49-3.09.91-1.74l-7.07,2.93c-1.23-.37-1.16-.33.22.12.66.27,1.34.44,2.04.52,2.57.52,4.89.34,7.26-.7s4.09-2.66,5.35-4.81c-.16.28,2.34-5.46,1.43-3.98l-3.59,3.59c3-1.85,6.5-2.83,8.43-6.96.77-1.64,1.12-3.16,1.12-5.02,0-1.05-.13-2.09-.37-3.12-.25-1.88-.32-1.35-.19,1.58l-2.57,4.41c-1.21,1.18,1.32-.43,1.46-.51,1.58-.97,3.26-2.66,4.2-4.26,1.86-3.18.98-7.53,1.25-9.96l-1.37,5.05c.39-.89.79-1.78,1.2-2.66.76-2.6,1.09-3.24.99-1.93l-3.59,3.59c2.84-1.79,5.47-2.76,7.28-5.98s1.99-7.06,2.57-10.56c.55-3.31,1.32-6.45.84-9.85s-1.09-6.56-2.2-9.7-2.32-6.33-4.87-8.66c-1.58-1.44-3.66-2.68-5.81-3-3.33-.5,1.01,2.19-.58-.27-2.14-3.33-6.84-4.58-10.51-4.86-2.72-.21-5.83-1.6-8.81-1.24-5.36.64-10,4.14-10,10,0,4.91,4.6,10.64,10,10-.91-.35-.69-.26.65.27.69.35,1.42.57,2.18.67,1.42.33,2.86.44,4.31.32-2.15-1.45-2.53-1.45-1.15,0,2.16,3.48,6.61,3.61,9.99,4.83l-4.41-2.57c-1.01-.84.46,2.06.56,2.45.36,1.35.93,3.13.96,4.53.03,1.58-.69,3.97-.99,5.66-.04.2-1.33,3.78-.42,2.49l3.59-3.59c-3.71,2.44-6.44,4.02-8.31,8.35-2.08,4.81-2.26,8.01-1.46,13.11v-5.32l-.18,1.13,2.57-4.41c1.13-1.26-.97.28-1.41.55-2.14,1.3-3.75,3.16-4.75,5.42-.73,1.65-1.06,3.23-1.05,5.08.05,1.05.18,2.09.38,3.13.28,1.91.32,1.36.1-1.64l4.6-5.98c-1.51,1.13-5.28,2.47-7.14,4.75s-2.31,4.78-3.22,7.38l2.57-4.41-.57.72,4.41-2.57-.75.19h5.32c-4.06-.69-7.28-2.24-11.43-.49-3.87,1.63-5.02,4.73-7.25,7.86l3.59-3.59c.77-.49-.85-.07-.96-.08-1.32-.06-2.65.24-3.99.19l5.05,1.37c.89.49,2,2.38.97.55s-1.87-2.09-3.28-3.36c-1.53-1.38-3.13-2.79-4.98-4.18.89.67,1.02,1.51.18.03-.64-1.12-1.29-2.21-2.18-3.16-1.54-1.66-3.42-2.56-5.22-3.83l3.59,3.59c.07.8-.13.42-.59-1.14-.08,1.42-.01,1.23.19-.55.43-2.41.22-4.69.42-7.09l-1.37,5.05c-.43.76-2.77,2.4-.77,1.41.94-.46,2.04-1.38,2.76-2.1,2.19-2.19,3-4.84,3.39-7.8.2-1.57,1.23-4.53.75-5.9.08-1.02-.05-.81-.39.65-.67,1.58-.54,1.66.38.23.92-1.19,1.04-1.35.36-.47-.74.79-.52.78.65-.02,4.53-2.14,4.88-7.34,7.87-10.73,2.51-2.85,6.48-4.89,9.41-7.45,4.07-3.55,3.64-10.51,0-14.14-4.04-4.04-10.06-3.56-14.14,0h0Z"/>
  <path d="M588.01,515.36c3.22-1.68,6.97-3.26,9.61-5.91s3-5.63,4.18-8.8l-2.57,4.41.51-.57-4.41,2.57c-3.13-.06-3,.07.41.39,1.25.18,2.49.09,3.72-.27,2.37-.55,4.47-1.74,6.15-3.52.78-.99,1.54-1.98,2.29-2.99-1.39,1.65-.98,1.48,1.23-.51-2.53.82-2.19.92,1,.28.71.07,1.29-.11,1.75-.56,2.81-.52,4.94-.75,7.41-2.37,1.09-.66,2.04-1.48,2.84-2.46-1.72.78-1.64.94.26.47,4.41-.32,8.2-2.65,12.1-4.4l-5.05,1.37c-4.43-.2-.27.64,1.27,1.06,2.47.68,5.08.52,7.43-.43,1.91-.78,3.32-1.92,4.66-3.48.46-.59.92-1.19,1.37-1.79,1.04-1.54.64-1.36-1.21.54l-5.05,1.37c-1.23-.09,4.66.97,3.49.91,1.81.09,3.48-.1,5.22-.66l2.39-1.01c-2.34.27-2.52.46-.56.58,1.33.4,3,.36,4.39.52,2.86.34,5.71.61,8.59.74,1.36.06,2.69.08,4.04-.02.73-.05,4.07-1.05,3.52-1l-5.05-1.37c-1.33-.68.67.99.96,1.27,1.35,1.29,3.41,2.53,5.21,3.02,1.92.53,4.35.43,6.25-.05l1.04-.41c3.07-1.12,3.19-1.31.36-.57l-5.05-1.37c-2.41-1.53-1.76-1.18.35,1.02.92.95,2.01,1.73,3.1,2.5,4.41,3.12,11.12.79,13.68-3.59,2.93-5,.84-10.56-3.59-13.68,3.73,2.63.27-.54-.67-1.47-1.29-1.28-3.42-2.58-5.17-3.06-1.92-.53-4.34-.47-6.23,0-1.58.4-6.01,1.27-1.41,1.02l5.05,1.37c1.25.71-.3-.63-.58-.93-.93-.99-2.02-1.73-3.2-2.35-3.6-1.91-6.37-1.13-10.03-.47-2.5.45-8.35-.3-12.03-.76-2.64-.33-5.19-.81-7.83-.21-.92.17-1.8.46-2.63.88-1.62.59-1.59.67.08.24,1.67-.12,1.7-.34.09-.67l-2.66-.36c-6.81-.34-9.15,4-12.73,8.69l3.59-3.59-.66.4,5.05-1.37-.92-.07,5.05,1.37c-5.34-2.27-9.11-3.86-14.7-1.11-3.89,1.92-8.61,1.71-12.42,3.99-.69.41-2.69,1.52-2.9,2.32-.75.67-.49.68.78.03,1.63-.48,1.59-.56-.14-.24-2.33.26-5.04.66-7.27,1.35-4.58,1.41-8.47,6.33-11.14,8.64l4.41-2.57c3.12.04,2.98-.1-.42-.41-1.25-.17-2.49-.07-3.72.28-2,.47-3.82,1.33-5.3,2.8-2.54,2.53-3.03,5.61-4.19,8.79l2.57-4.41c-.64.74-4.3,2.44-6.06,3.37-11.42,5.96-1.31,23.22,10.09,17.27h0Z"/>
  <path d="M358.08,489.93c.49.77,2.06,4.6,3.56,6.11,1.59,1.59,5.34,2.95,6.27,3.55l-3.59-3.59c1.45,2.4,2.18,6.32,4.16,9.74,2.9,4.99,6.03,6.75,11.33,8.58l-4.41-2.57.69.57-2.57-4.41.19.89v-5.32c-.51,2.96-1.41,5.68-.73,8.73.6,2.68,2.09,4.63,3.54,6.8,1.89,2.85,3.88,6.57,2.84,9.35l2.57-4.41c-2.23,2.72-4.07,4.87-4.76,8.44-.13.68-.17,2.16-.26,2.77-.29.76-.46,1.55-.49,2.37-.43,2.29-.09,1.81,1.03-1.42.06.03-1.85,1.54-1.93,1.69-1.48.96-.66.95,2.43-.03l-2.66-.36c-2.87-.08-6.58,1.68-8.25,1.93h5.32c-.89-.26-3.67-2.03-5.58-2.34-2.68-.45-5.22.2-7.86.62h5.32l-1.15-.18,4.41,2.57c1.21.96-.49-.61-.86-1.14-1.29-1.87-2.53-2.88-4.24-4.25-.93-.75-1.74-1.42-2.61-2.23-1.46-1.36-3.48-5.45-2.68-1.18,1.03,5.49.81-1.66.69-2.94-.19-1.88-.7-3.44-1.7-5.09-1.87-3.08-3.15-3.65-4.84-6.92l1.37,5.05c-.32-3.36.22-6.15-1.42-9.36-.94-1.84-1.92-3.3-2.46-5.26v5.32c-.17.82.41-.59.52-.78.84-1.4,1.32-3.15,1.5-4.76.33-2.98-.93-5.46-1.33-8.09v5.32c.12-.68.32-1.33.59-1.95.62-1.45.22-.91-1.23,1.6.7.49,4.33-4.24,4.46-4.46,1.03-1.76,1.53-3.86,1.68-5.86.17-2.22,1.2-2.68-.69.22l-3.59,3.59c.55-.28,2.9-.49,3.84-.86.92-.37,1.83-.78,2.72-1.23-1.85.4-1.76.78.27,1.13,5.06,1.9,10.96-2.11,12.3-6.98,1.54-5.61-1.91-10.39-6.98-12.3-6.71-2.52-12.29-.47-18.74,1.4-3.12.91-5.96,2.99-7.54,5.85-1.03,1.86-1.4,3.88-1.53,5.99-.04.76-.7,3.07-.03,1.36l2.57-4.41c-2.88,2.86-5.01,4.82-6.56,9.02s-.77,7.76.3,12v-5.32c.08-.25-1.41,2.44-1.63,3.16-.71,2.34-.67,4.68-.03,7.03.93,3.39,2.68,6.3,4.29,9.37l-1.37-5.05c.35,5.46,1.05,12.38,5.86,16.21,3.15,2.51-1.52-4.19-.39-4.07-.64-.07-.34,4.4-.26,5.04.41,3.46,2.21,5.8,4.33,8.45,1.42,1.79,2.95,3.41,4.66,4.92,1.16,1.02,2.4,2.21,3.73,3.01,1.71,1.03-1.08-2.1,0,.19,1.24,2.62,4.56,5.22,7.29,5.98,2.48.69,5.83.04,7.68.09l-5.05-1.37c4.46,2.08,7.81,4.45,13.07,3,.29-.08,3.45-1.12,3.52-1.5-.08.41-6.01.33-.51.65,2.83.16,5.41-.27,7.9-1.74,3.68-2.16,7.85-5.4,9.98-9.16,2.44-4.3,2.16-8.15,2.63-13.01l-1.37,5.05c-.57,1.05,2.71-3.91,2.01-2.69,1.08-1.85,1.57-3.93,1.73-6.03.22-2.77-.02-5.63-.34-8.38-.37-3.18-1.44-6.23-2.92-9.09-.67-1.28-1.49-2.47-2.32-3.66l-.72-1.21c-1.79-2.45-2.06-2.72-.8-.81v5.32c.78-4.12,1.81-8.12-.47-12.01-.91-1.55-2.74-3.25-4.28-4.16-1.11-.53-2.24-.98-3.4-1.36-1.34-.3-1.51-.36-.5-.16l3.59,3.59c-1.8-2.9-2.75-5.89-3.84-8.31-1.21-2.7-2.02-4.74-4.35-6.71-1.44-1.21-4.52-2.3-5.26-2.77l3.59,3.59c-.03-.05-1.27-2.95-2-4.08-6.9-10.82-24.22-.8-17.27,10.09h0Z"/>
  <path d="M421.26,495.14c-1.33-.39-2.69-.6-4.09-.58-.63.02-1.26.1-1.88.21-2.05.22-1.77.27.84.18l4.41,2.57-.6-.69,2.57,4.41c-1.22-2.92-2.03-5.85-4.36-8.14-2.56-2.52-5.72-2.62-8.81-3.8l4.41,2.57c-3.86-3.05-7.13-6.98-12.04-8.45-1.26-.38-2.96-1.52-.96.11-.96-.79-1.8-1.7-2.85-2.39-2.39-1.56-4.95-2.05-7.65-2.76-3.73-.99-8.11-1.9-11.64-3.38-3.02-1.26-5.06-2.92-8.59-2.81-2.99.09-5.44,1.64-8.09,2.82l5.05-1.37-.92.08,5.05,1.37c1.76.87-3.31-2.73-3.05-2.57-1.44-.88-3.23-1.49-4.81-2.13-4.86-1.95-8.62-.3-12.5.32h5.32c2.53,1.49,2.46,1.31-.19-.57-.97-.73-2.05-1.26-3.25-1.59-2.03-.64-4.09-.81-6.18-.26-3.42.91-5.44,3.32-8.1,5.42l4.41-2.57-.73.24h5.32c-2.99-.81-5.78-2.91-9.79-1.91-1.48.37-2.8,1.08-4.06,1.9-3.53,2.35-2.56,2.36,2.92.04-.78-.42-1.62-.63-2.51-.64-3.33-.6-7.69-.29-10.79.9-1.86.71-3.05,1.88-4.67,3.01-.81.69-.58.59.68-.28-.92.3-1.84.63-2.74.98-5.06,1.89-8.51,6.77-6.98,12.3,1.34,4.86,7.21,8.88,12.3,6.98,2.15-.8,4.49-1.36,6.52-2.44,1.29-.69,3.31-2.52,3.8-2.78l-5.05,1.37c1.39-.17,3.08-.46,4.48-.31-.73.3-.46.53.82.69,1.07.15,2.15.29,3.22.43,1.94.04,3.54-.29,5.26-1.12,1.21-.58,7.23-3.48,2.1-1.74h-5.32c2.9.68,5.84,2.9,9.79,1.91,1.97-.49,3.63-1.46,5.15-2.81,1.4-1.25,3.04-1.36-.73-.27h-5.32c-2.52-1.55-2.46-1.38.19.52l.86.6c1.68.93,3.98,1.66,5.91,1.66.92,0,5.52-.55,6.17-1.55-4.17-.43-5.05-.23-2.64.59,1.69.81,1.61.64-.23-.5,2.75,2.6,5.32,4.73,9.36,4.82,3.41.07,6.03-1.6,9.01-2.9l-5.05,1.37.91-.05-5.05-1.37c2.16,1.01,4.06,2.41,6.35,3.17,2.09.69,4.26,1.06,6.34,1.81,1.87.67,3.73,1.18,5.65,1.69.9.24,1.94.78,2.88.77,1.48-.02-1.33-1.47.33.3s4.39,3.15,6.74,3.67c.52.12,2.23.59.89-.04,1.03.49,2.35,1.63,3.24,2.41-.65-.57.3.67.43.78,1.23,1.14,2.6,2.03,4.09,2.76,1.82.89,3.74.99,5.59,1.73l-4.41-2.57c-2.57-2.88-.79-.02.22,1.71.91,1.55,2.64,3.37,4.19,4.28,1.71,1,3.99,1.56,5.94,1.61l1.1-.07c3.39-.34,3.55-.46.48-.34,12.38,3.6,17.67-15.69,5.32-19.29h0Z"/>
  <path d="M693.97,493.09c.87-1.14,1.33-2.54,1.67-3.92.18-1.01.32-2.02.42-3.04,0,.81-.19,1.58-.55,2.32l-3.59,3.59c-2.44,1.29,4.03-1.26,3.51-.97,1.29-.72,2.47-1.64,3.49-2.71.44-.54.88-1.09,1.32-1.63.82-.76.99-.96.52-.61-.38.39,4.48-2.95,2.09-1.66,5.03-2.72,10.4-8.11,10.18-14.38h-20v.13c.48,5.38,4.27,10,10.01,10,5.04,0,10.47-4.59,10-10v-.13c-.48-5.38-4.27-10-10.01-10-5.27,0-10.19,4.58-10,10v.37c.47-1.68.92-3.36,1.38-5.05-.38.43-.69.92-.92,1.45-.85,1.51-.32,1.23,1.61-.84-.78-.04-2.37,1.25-3,1.67-1.86,1.25-4.9,3.03-6.64,5.72-1.24,1.34-.78,1.2,1.39-.4-.63.08-1.25.2-1.86.36-1.82.53-3.83,1.64-5.16,2.97-1.52,1.52-2.59,3.51-3.15,5.57-.2,1.14-.37,2.28-.49,3.43.01-.81.19-1.59.54-2.33-3.28,4.3-.67,11.19,3.59,13.68,5.14,3.01,10.4.72,13.68-3.59h0Z"/>
  <path d="M319.11,481.01c2.72,2.9,1.6,2.31.94.46-.84-2.35-2.1-4.26-4.04-5.78-1.35-1.06-2.79-1.73-4.48-2.17-1.02-.17-2.04-.31-3.07-.42-1.84-.17-1.23.08,1.82.74l3.59,3.59c.24,1.15.19,1.12-.15-.07-.4-1.11-.85-2.19-1.34-3.27-.93-1.72-2.24-2.94-3.62-4.25-.87-.87-1.07-1.01-.58-.4-1.64-2.11-2.09-2.69-1.35-1.76,1.14,2.24-.19-1.91-.42-2.87-2.97-12.52-22.26-7.22-19.29,5.32-.44-1.84.55,3.26.7,3.83.42,1.58,1.19,2.92,2.06,4.26,0,0,4.87,6.98,5.58,6.47-.09.06-1.69-3.62-.38-.26.73,1.86,1.64,3.67,3.08,5.11,1.31,1.31,3.24,2.4,5.04,2.93,1.14.25,2.29.42,3.46.52,2.4.26,1.3-.34-3.32-1.8l-2.57-4.41c1.2,3.14,1.8,5.8,4.2,8.37,8.83,9.4,22.95-4.76,14.14-14.14h0Z"/>
</svg>