<?xml version="1.0" encoding="UTF-8"?>
<svg id="_レイヤー_2" data-name="レイヤー 2" xmlns="http://www.w3.org/2000/svg" viewBox="0 0 1000 1000">
  <path d="M626.07,475.94c-9.99,6.24-19.9,12.61-29.71,19.13-4.47,2.97-10.08,5.79-13.44,10.04-4.14,5.22-3.71,12.61,1.1,17.31,3.85,3.76,10.07,5.52,14.94,7.47s10.21,3.82,15.43,5.38c11.33,3.39,22.91,5.52,34.65,6.91,5.37.63,10-5.05,10-10,0-5.93-4.61-9.36-10-10-9.33-1.1-18.57-3.07-27.59-5.68-4.65-1.34-9.25-2.87-13.79-4.58-2.8-1.05-8.65-2.64-10.29-4.55l2.57,4.41-.35-1.12v5.32c-2.45,2.52-2.54,2.9-.28,1.16l1.58-1.07c1.59-1.07,3.17-2.13,4.76-3.19,3.45-2.29,6.9-4.57,10.37-6.83,6.67-4.34,13.39-8.61,20.14-12.83,10.89-6.8.87-24.11-10.09-17.27h0Z"/>
  <path d="M346.88,477.99c17.82,11.3,35.63,22.61,53.45,33.91v-17.27c-17.96,10.48-36.99,18.46-57.05,23.95-12.4,3.39-7.14,22.69,5.32,19.29,21.63-5.92,42.46-14.67,61.83-25.97,6.67-3.89,6.27-13.29,0-17.27-17.82-11.3-35.63-22.61-53.45-33.91-10.9-6.92-20.94,10.38-10.09,17.27h0Z"/>
</svg>