<?xml version="1.0" encoding="UTF-8"?>
<svg id="_レイヤー_2" data-name="レイヤー 2" xmlns="http://www.w3.org/2000/svg" viewBox="0 0 1000 1000">
  <g>
    <path d="M620.28,491.48c8.29,1.73,13.5,8.35,14.09,16.78.46,6.59-2.12,13.74-10.03,12.55-7.29-1.09-12.14-9.33-11.39-16.28s7.15-11.94,14.09-9.64c12.24,4.06,17.49-15.25,5.32-19.29-17.01-5.64-35.32,6.2-38.7,23.41-3.47,17.64,7.37,36.92,25.36,41.09,7.97,1.84,16.75.27,23.43-4.49,8.02-5.72,11.52-14.52,11.93-24.15.76-17.87-10.81-35.52-28.79-39.27-5.28-1.1-10.81,1.55-12.3,6.98-1.36,4.96,1.67,11.19,6.98,12.3h0Z"/>
    <path d="M579.64,515.78c11.4-15.75,29.53-27.87,48.93-30.73,9.61-1.41,19.56-.1,27.84,5.14,8.3,5.25,14.09,13.66,19.12,21.88,6.71,10.96,24.01.93,17.27-10.09s-14.71-21.47-25.62-28.63c-11.44-7.51-25.68-9.87-39.11-8.25-26.76,3.23-50.1,19.01-65.7,40.58-3.17,4.38-.75,11.14,3.59,13.68,5.05,2.95,10.51.8,13.68-3.59h0Z"/>
  </g>
  <g>
    <path d="M371.83,472.2c-17.98,3.75-29.55,21.39-28.79,39.27.41,9.63,3.92,18.43,11.93,24.15,6.68,4.77,15.46,6.34,23.43,4.49,17.99-4.16,28.83-23.45,25.36-41.09-3.38-17.21-21.69-29.05-38.7-23.41-12.16,4.03-6.95,23.36,5.32,19.29,6.74-2.24,13.31,2.24,14.1,9.44.77,7.07-4,15.31-11.4,16.48s-10.24-5.41-10.05-11.75c.25-8.71,5.54-15.79,14.12-17.58,5.29-1.1,8.35-7.33,6.98-12.3-1.51-5.49-7-8.09-12.3-6.98h0Z"/>
    <path d="M435.05,505.68c-15.6-21.57-38.95-37.35-65.7-40.58-13.18-1.59-27.1.65-38.44,7.82s-19.43,17.84-26.29,29.06c-6.73,11.01,10.56,21.07,17.27,10.09,4.87-7.96,10.49-16.27,18.45-21.46,8.48-5.53,18.57-7.03,28.52-5.57,19.4,2.86,37.54,14.97,48.93,30.73,3.16,4.37,8.7,6.5,13.68,3.59,4.31-2.52,6.77-9.28,3.59-13.68h0Z"/>
  </g>
</svg>