<?xml version="1.0" encoding="UTF-8"?>
<svg id="_レイヤー_2" data-name="レイヤー 2" xmlns="http://www.w3.org/2000/svg" viewBox="0 0 1000 1000">
  <g>
    <path d="M595.23,511.25c.21-.09,3.67-.65,4.69-1.25,1.59-.93,3.43-2.84,4.36-4.42.93-1.33.83-1.37-.3-.1.67-.34,1.32-.72,1.95-1.14,1.51-.9,3.16-1.58,4.63-2.53,1.63-1.05,3.39-2.67,4.38-4.4,1.32-1.75.74-1.45-1.75.9,1.2-.37,2.37-.84,3.5-1.38,1.38-.72,2.57-1.64,3.63-2.79.46-.51,5.83-8.09,1.86-3.54l-4.41,2.57c-2.72-.16-3.4-.13-2.03.09.62.12,1.24.21,1.86.27,1.66.21,3.3.31,4.94-.13,3.04-.82,5.71-2.81,7.33-5.53.36-.68.67-1.39.95-2.11,1-2.14.55-1.66-1.35,1.43.43.14,2.25-1.2,2.63-1.45,1.67-1.1,3.35-2.67,4.38-4.4l.66-1.01c-1.14,1.02-1.24,1.17-.33.44,1.93,0-3-.01.35-.68,1.79-.36,3.23-.53,4.93-1.28,2.83-1.24,5.51-2.48,7.83-4.59,1.75-1.59,3.57-2.88,5.4-4.39,1.23-1.01,2.35-2.12,3.2-3.49s3.44-4.97.35-1.56l-4.41,2.57c-2.83.79-3.71.14-.97.75,1.61.36,3.2.46,4.82.27,3.07-.35,5.64-2.07,8.1-3.82,2.3-1.63,4.55-3.5,6.66-5.37,1.87-1.65,3.96-4.49,5.2-5.7l-4.41,2.57c2.4-.76,6.42-.86,9.22-3.35,1.75-1.56,2.94-2.89,4.92-4.21,10.65-7.11.65-24.45-10.09-17.27-3.32,2.22-5.98,4.8-8.97,7.34l4.41-2.57c-.48.15-3.37.31-4.81.78-3.2,1.05-4.74,2.96-6.8,5.39-1.53,1.82-4.23,3.64-6.28,5.77-.6.23-1.15.56-1.65.99,4.32.14,5.34-.09,3.06-.68-1.3-.62-3.03-.74-4.43-.71-4.91.08-9.26,3.33-10.86,7.95-1.01,2.1-.54,1.67,1.4-1.28-.81.58-1.62,1.16-2.44,1.72-1.58,1.17-3.17,2.58-4.63,3.8-1.65.52-1.89.71-.7.56,1.12-.08.93-.04-.56.11-2.89.49-4.83,1.04-7.33,2.66-1.81,1.18-3.77,2.58-5.23,4.16l-1.56,2.02c-.94,1.35-.87,1.35.19.01-1.88,1.2-3.7,2-5.27,3.7-.87.85-1.54,1.83-2.01,2.94-1.4,2.99-1.36,3.17.11.56l4.41-2.57c2.9.15,3.4.09,1.49-.19-1.2-.24-2.4-.37-3.61-.4-2.88.08-5.72,1.17-7.82,3.17-1.23,1.18-3.56,4.15-3.61,6.03,4.12-3.11,4.9-4.13,2.34-3.08-1,.34-1.97.76-2.89,1.28-2.09,1.21-3.5,2.71-4.88,4.67-.94,1.33-.88,1.32.17-.05-.95.37-1.84.83-2.7,1.38-1.99,1.1-4.2,2.36-5.86,3.92-1.05.99-2.48,3.36-2.8,3.72l4.41-2.57c-2.28.96-4.73,1.26-7.08,2.26-4.97,2.11-6.07,9.44-3.59,13.68,3.01,5.15,8.69,5.71,13.68,3.59h0Z"/>
    <path d="M611.7,484.58c-.52,2.34-2.33,6.02-1.51,9.66.09.41,1.71,5.14,1.17,3.09.47,1.8.38,2.66.39,4.31.02,3.26-.68,6.69.14,9.91s3,5.24,5.01,7.63l-2.57-4.41c-.3-2.4-.51-2.02-.65,1.14-.21.93-.21,1.87.02,2.79.04.94.26,1.85.65,2.71,1.03,2.89,1.27,3.21.73.96l1.37-5.05c-2.08,4.33-3.73,8.01-2.14,12.87s.53-.28.84-.33c-.28.04-.59,3.61-.59,3.82-.04,2.56.72,4.85,1.66,7.19,1.56,3.87,3.43,8.88,6.08,12.13,1.91,2.34,4.2,3.58,7.14,4.13.94.17,1.82.23,2.76.24s2.28.43.64-.16l-4.41-2.57c.66.67,3.4,3.73,5.57,4.86,3.06,1.6,6.35,2.61,9.82,2.58,6.5-.04,14.86-4.06,16.67-10.89.78-2.93-2.98,1.83-1.22,1.34,1.31-.36,2.27-1.71,3.15-2.7,1.56-1.74,2.38-3.52,2.88-5.76l.36-2.66c-1.7,2.63-1.91,3.14-.64,1.51,2.29-2.49,3.5-5.79,3.35-9.16,0,.11-1.41-6.46-.89-2.43l.36-2.66c-.15-1.54-.04-1.93.33-1.18l-2.57,4.41c1.96-2.43,4.11-4.6,4.98-7.71s1.16-7.75.28-10.75c-.47-1.58-1.51-2.83-2.15-4.3l.76,1.69c.25-1.69.2-1.96-.17-.82-.42,1.04-.34.89.24-.44.57-.92.94-1.9,1.13-2.95.41-1.56.58-3.29.8-4.9.45-3.32-.66-5.69-.91-8.82s.66-6.11.85-9.13c.25-4.05-.44-6.62-2.19-10.27-.55-1.16-3.1-5.12-3.62-6.26l1.37,5.05c-.4,4.64.71.03,1.07-1.29.43-1.56.47-3.34.24-4.92-.47-3.17-2.36-5.05-3.64-7.78l1.37,5.05c0-.11.35-3.32.26-4.72-.37-5.39-4.33-10-10-10-5.13,0-10.37,4.58-10,10,.06.93-.48,5.28.1,7.38.68,2.49,2.46,4.18,3.47,6.45l-1.37-5.05c.3-4.56-.66-.13-1.05,1.29-.43,1.56-.47,3.33-.26,4.92.22,1.67.79,3.33,1.67,4.78.63.86,1.29,1.7,1.97,2.52.73.91.56.65-.49-.77.16.55,1.6,4.6,1.47,2.76-.16-2.22-.35,2.01-.39,2.39-.34,2.78-.88,5.51-.83,8.36.03,1.63.22,3.34.7,4.9l.6,1.49c-.15-1.25-.26-1.08-.33.52-1.15,3.57,1.19-1.79-.24,1.12-1.08,2.2-1.39,3.73-1.62,6.16-.25,2.62-.49,5.49.27,8.04.56,1.85,1.52,2.67,2.16,4.3l-.83-1.68c.13,1.57.03,1.98-.28,1.22l2.57-4.41c-2.71,3.42-4.79,5.92-5.36,10.37-.13.99-.51,3.81-.54,4.46-.05,1.47.77,4.47.77,4.76l1.37-5.05c.69-.43.56-.2-.38.68-.86.88-1.55,1.88-2.08,2.97-1.27,2.4-1,4-1.6,6.58l2.57-4.41c.71-.89-3.05,2.5-2.59,2.06-1.16,1.09-2.05,2.3-2.79,3.7l-1.01,2.39c-.53,1.46-.41,1.4.37-.19.17-.92.69-1.45,1.56-1.57,1.15.54,1.24.59.28.15-1.21-.63-.95-.29.79,1.04l-1.56-2.02c-1.46-1.54-3.12-2.67-5.16-3.33-2.57-.82-4.83-.36-7.39-.61l5.05,1.37-.62-.36,3.59,3.59c-.98-1.66-1.82-3.62-2.68-5.4-.07-.15-2.65-4.26-1.54-2.16-.2,1.23-.16,1.13.12-.32.29-1.24.41-2.49.36-3.75-.01-1.41-.29-2.75-.83-4.04-1.1-2.87-1.3-3.2-.61-.98l-1.37,5.05c1.05-2.22,2.2-4.15,2.66-6.6.31-1.64.33-3.25-.06-4.88-.27-1.11-.93-5.51-1.28-2.76s.63-1.75.67-2.38c.08-1.48-.15-2.84-.61-4.23-.91-2.78-2.88-4.62-4.69-6.8l2.57,4.41c.39,1.01.09-2.05.1-2.53.07-1.69.21-3.37.1-5.06-.24-3.74-1.36-7.02-2.23-10.55v5.32c.03-.14,1.21-3,1.51-4.34,2.78-12.54-16.49-17.9-19.29-5.32h0Z"/>
  </g>
  <g>
    <path d="M415.39,494.33c-1.09-.59-2.23-1.1-3.4-1.53-1.74-.6-1.58-.37.5.67l2.57,4.41c-1.39-3.76-2.52-7.6-6.2-9.78-1.45-.86-3.08-1.21-4.64-1.75,1.38,1.21,1.36,1.16-.08-.16-.56-.49-1.14-.97-1.73-1.43-3-2.49-5.65-4.11-9.09-5.82-1.34-.66-2.55-1.6-3.89-2.27s-4.3-1.32-4.5-1.41l3.59,3.59c.44.62.62,4.12.67,1.62.02-1.16-.15-2.54-.43-3.65-.65-2.61-1.99-4.94-4.17-6.57s-4.84-2.54-7.51-2.43c-.5.02-2.89.58-.91.35,1.25.36,1.13.26-.35-.29-1.52-.74-1.59-.68-.2.19l2.57,4.41c-1.51-3.72-2.62-7.57-6.33-9.74-1.87-1.09-4.02-1.58-6.14-1.75-1.74-.15-1.74-.11,0,.13-2.74-1.31-3.15-1.4-1.23-.28l2.57,4.41c-1.41-4.1-2.31-7.29-5.81-10.27-2.03-1.73-3.95-3.43-6.58-4.17-1.15-.32-2.46-.51-3.65-.48-.52.01-2.53-.2-1.05.26l4.41,2.57c-1.48-1.44-4.11-4.8-6.32-6.68-1.64-1.4-3.25-2.29-5.33-2.81-1.26-.38-2.53-.46-3.81-.24-3.33.27-3.55.43-.64.49l4.41,2.57c-1.19-1.17-2.84-3.98-4.98-5.23s-4.63-1.31-6.94-2.2l4.41,2.57c-1.03-.95-3.77-4.12-5.75-5.44-1.76-1.17-2.77-2.24-4.42-3.62-4.14-3.46-10.08-4.06-14.14,0-3.56,3.56-4.17,10.67,0,14.14,1.18.99,2.11,2.2,3.27,3.22.96.84,2.12,1.8,3.29,2.35l1.27.78c-.89-1.22-1.03-1.41-.42-.58,2.11,2.15,3.13,3.96,5.97,5.35,1.88.92,3.84.95,5.74,1.7l-4.41-2.57c1.54,1.51,3.34,4.49,6.17,5.73,1.56.68,3,1.06,4.77,1.09l1.15-.12c3.33-.27,3.55-.43.63-.48l-4.41-2.57c2.76,2.38,3.58,4.16,6.32,6.68,1.52,1.39,3.32,2.33,5.31,2.85-.36-.09,6.32.73,4.26.09l-4.41-2.57c1.34,1.08,2.84,2.2,3.93,3.53l-2.57-4.41c1.41,4.07,2.13,7.85,6.11,10.37,1.82,1.15,4.43,2.25,6.49,2.94,1.44.48,4.33.76,4.81.93l-4.41-2.57.6.71-2.57-4.41c1.8,4.43,3.13,8.13,7.68,10.41,1.77.89,4.2,2,6.11,2.47-.31-.08,6.28.77,4.32.12l-5.98-4.6c-.59-3.05-.81-3.59-.67-1.63.07,1.23.21,2.44.43,3.65.32,1.35.85,2.6,1.59,3.77,2.66,4.19,6.86,4.28,10.03,6.13,1.85,1.08,3.8,1.82,5.68,2.83-1.32-.71,1.97,1.52,2.46,1.94,1.58,1.35,3.05,2.95,4.83,4.04,1.13.54,2.27,1.03,3.43,1.49,1.78.54,1.66.25-.38-.85l-2.57-4.41c1.05,2.84,1.7,5.57,3.89,7.85,1.91,1.98,5.16,2.84,6.66,3.61,11.43,5.87,21.56-11.38,10.09-17.27h0Z"/>
    <path d="M371.37,487.23c-.07.64-1.35,6.94-.77,7.24-.25-.13,3.09-6.87-.72-.66-.68,1.1-1.29,2.39-1.63,3.66-.68,2.54-1.06,5.67-.81,8.25.16,1.63.6,3.14,1.37,4.6.27.5,1.16,2.91.83,1.22v-5.32c.33-.89-1.44,1.98-1.38,1.87-.58,1.2-.86,2.39-1.24,3.64-.9,2.98-1.52,5.88-.69,8.99.5,1.85,1.47,2.68,2.1,4.29-.76-1.95-.47-1.87-.93-.3,0,.52-.07,1.04-.18,1.55-.43,2.15-.11,1.81.95-1.01.11.48-2.45,2.94-2.71,3.39-.98,1.68-1.63,3.57-1.64,5.53l-.19,1.42c1.22-2.23,1.26-2.53.13-.91-1.21,1.27-2.09,2.54-3.28,3.58-2.49,2.19-3.84,3.44-6.03,1.12l2.57,4.41c.12.91.18.68.17-.69-.13-1.25-.31-2.5-.55-3.74-.63-2.09-1.52-2.95-2.56-4.66-.66-1.09-1.57-2.38-2.13-3.51-.57-.8-.46-.58.32.64-.11-1-.23-2-.36-2.99-.35-3.42.95-6.24.23-10.32-.55-3.13-2.39-6.52-3.12-8.72v5.32c.48-3.35,1.86-6.42.96-9.89-.29-1.11-.72-2.29-1.27-3.28-.13-.23-1.46-2.78-1.02-1.17v5.32c.17-.75,1.37-3.03,1.71-4.53.45-1.97.51-3.98,1-5.96.91-3.65,2.05-7.35,1.81-11.15.03-1.36-.24-2.63-.82-3.83-.39,2.02-.3,2.05.29.1.52-1.12,1.06-3.3,1.4-4.31,1.68-4.99-.14-8.66-2.17-13.13l1.37,5.05c-.16-1.81-.01-3.73.17-5.54l-1.37,5.05c-.6,1.18.27-.16.72-.66.89-1,1.73-2.04,2.36-3.22,6.07-11.35-11.19-21.46-17.27-10.09.89-1.66-2.85,3.36-2.66,3.06-1.42,2.29-1.74,4.76-1.94,7.39-.34,4.6.97,8.03,2.86,12.12l-1.37-5.05c.73-2.07.53-1.7-.58,1.12-.29.96-.56,1.93-.81,2.9-.66,2.29-1.24,4.27-1.1,6.7-.05,1.15.14,2.23.58,3.24.29,1.08.49.77.6-.94.45,1.5-1.03,4.42-1.37,5.87-.54,2.33-.59,4.82-1.18,7.12.86-3.35-1.2,2-1.27,2.24-.75,2.42-.77,4.92-.01,7.34-.12-.39,2.62,5.51,2.05,3.56v-5.32c-.46,2.88-1.49,5.59-1.14,8.56.25,2.17,1.9,4.41,2.39,5.65.31.8.52,2.07.63,2.92-.17-1.36.05-1.88-.49-.34-.81,2.31-.31,5.19-.07,7.56.53,5.23,1.14,9.09,3.94,13.53.46.73.67,1.61,1.28,2.24,1.14,1.19,0-2.44-.15.11-.19,3.07,1.68,6.5,3.71,8.56,7.11,7.2,18.58,8.64,27.22,3.38,3.63-2.21,7.09-5.09,9.81-8.37,1.43-1.72,3.05-3.6,4.11-5.57,1.56-2.9,1.47-6.13,1.89-9.3l-1.37,5.05c.4-.7,2.62-3.16,3.29-4.9.98-2.52,1.23-5.47,1.51-8.16.24-2.32.46-4.71-.05-7.01-.29-1.32-.79-2.5-1.37-3.75-.27-.6-.66-2.18-.46-.88v5.32c.24-.98,1.34-3.93,1.3-3.85.67-1.47,1.73-2.8,2.14-4.44.5-1.99.38-4.21-.17-6.2-.14-.52-2.19-6.76-1.78-2.67.4,2.42.64,2.04.74-1.12-1.65,3.76-1.48,4.12.51,1.1.84-1.26,1.56-2.58,1.93-4.08.86-3.48.85-7.79,1.21-11.35.55-5.38-4.99-10-10-10-5.86,0-9.45,4.6-10,10h0Z"/>
  </g>
</svg>