<?xml version="1.0" encoding="UTF-8"?>
<svg id="_レイヤー_2" data-name="レイヤー 2" xmlns="http://www.w3.org/2000/svg" viewBox="0 0 1000 1000">
  <path d="M614.54,479.87c-2.48.28-5.77.2-7.7.41-4.77.52-7.64,2.09-11.25,5.3-2.43,2.16-4.9,4.61-6.38,7.52-1.36,2.68-1.86,5.94-2.83,8.79-2.02,5.97-3.67,12.35-1.68,18.51,1.37,4.22,4.09,7.8,8.49,9.14,1.43.44,3.28.93,4.74.62l1.17-.03c-3.48-2.06-4.32-2.3-2.53-.72,5.62,5.98,15.41,5.67,19.84-1.6,1.68-2.02.73-1.48-2.87,1.61.94.15,1.87.11,2.79-.1,2.07-.23,3.88-.81,5.68-1.91,2.97-1.81,6.83-3.97,9.31-6.37,1.49-1.44,2.45-3.23,3.16-5.15l.38-.96c.69-2.07.18-1.49-1.53,1.74,1.2.21,5.54-4.61,6.23-5.25,2.65-2.43,4.27-5.69,4.15-9.34-.09-2.64-1.04-4.72-2.53-6.78-.45-.6-.91-1.18-1.38-1.76-1.2-1.44-1.02-.95.54,1.47v5.32c.71-3.51,2.29-6.85.59-11.12-.76-1.92-1.92-3.54-3.45-4.94l-2.02-1.56c1.84,3.08,2.34,3.64,1.49,1.66-1.12-3.82-4.26-7.33-8.16-8.4-1.84-.51-4.33-.55-6.21-.03-1.13.46-2.25.94-3.36,1.44-1.17.68-1.36.82-.58.41h5.32c2.43,1.54,2.92,1.71,1.48.52-.92-.73-1.84-1.45-2.77-2.15-1.94-1.2-4.12-1.79-6.4-1.74-3.04.08-5.73,1.38-7.82,3.57-1.06,1.11-2.7,5.05-2.74,5.1-2.74,4.66-1.06,10.96,3.59,13.68,5.16,3.02,10.38.71,13.68-3.59,1.01-1.31,1.57-2.79,2.01-4.38l-2.57,4.41.73-.88-4.41,2.57c2.33-.7,8.26-1.44,12.06-2.44,2.29-.6,4.96-1.37,7-2.52.96-.54,1.99-1.25,2.77-2.02.3-.29,2.24-2,.7-1.14l-5.05,1.37c2.06.03,3.72.49,5.76.26,1.84-.21,3.6-.77,5.42-1.15,5.29-1.09,8.35-7.34,6.98-12.3-1.51-5.5-6.99-8.07-12.3-6.98-.92.16-1.83.38-2.72.64,1.86-.1,1.29-.25-1.69-.45-2.61-.13-5.02.37-7.25,1.77-1.28.8-2.48,1.85-3.33,3.11,2.12-1.07,2.25-1.24.38-.51-.86.36-1.75.63-2.67.82-2.67.72-6.22,1.37-7.68,1.59-3.11.48-5.71.95-8.11,3.24-.8.94-1.57,1.91-2.3,2.91-.73,2.58-1.06,3.24-1.01,1.99,5.76,3.36,11.51,6.73,17.27,10.09,1.03-1.75,1.55-3.57,2.18-5.47l-2.57,4.41.74-.64c-2.36.98-4.71,1.95-7.07,2.93h.64c-1.68-.45-3.36-.9-5.05-1.36-2.17-1.11,3.18,2.43,2.97,2.3,1.17.76,2.43,1.37,3.8,1.71,4.55,1.13,7.72-1.12,11.65-2.86l-5.05,1.37.89.03-7.07-2.93c-1.12-2.33-1.32-2.67-.62-1,.33,1.16.84,2.23,1.53,3.2.65,1.09,1.47,2.03,2.44,2.82,2.43,1.96,2.68,2.1.75.42l-1.37-5.05c.69-2.02.69-2.16,0-.43-.41.74-.65,1.53-.74,2.38-.46,2.05-.38,4.01.2,6.01s1.77,3.59,3.06,5.14c.37.45,1.68,2.68.77.97l-1.37-5.05.04.68,1.37-5.05c2.07-1.84,1.86-1.75-.62.26-.6.39-1.11.88-1.53,1.46,1.21-1.1-4.55,3.75-2.78,2.16-2.81,2.53-3.64,5.57-4.99,8.98l2.57-4.41c-.67.83-2.84,1.66-3.91,2.59-1.63,1.01-1.73,1.23-.32.66-1.39-.22-2.77-.14-4.14.24-4.57.91-7.21,4.61-9.46,6.76l4.41-2.57-.83.33h5.32c1.92,1.34,2.41,1.57,1.45.69-.39-.4-.81-.78-1.24-1.13-1.26-1.07-2.51-1.92-4.04-2.54-1.67-.66-2.89-.92-4.8-1.04l-1.11-.02c-1.93-.07-1.57.14,1.09.62l3.59,3.59c-.75-1.33.36-1.5-.25-.22-.82,1.71.41-.03.61-.76.58-2.11.84-4.26,1.55-6.35.19-.55,2.27-6.89.69-4.01,1.1-2.02,4-3.89,5.77-5.27l-4.41,2.57c2.1-.72,4.87-.22,6.8-.43,5.37-.6,10-4.17,10-10,0-4.94-4.6-10.6-10-10h0Z"/>
  <path d="M381.86,498.7c3.91,1.22-1.54-3.21.22-.46,1.41,2.2,3.18,3.83,5.55,4.91,1.66.76,3.24,1.1,5.1,1.09,1.06-.02,2.11-.14,3.15-.37,1.3-.27,1.47-.25.5.06l-5.05-1.37.7.32-3.59-3.59.32.69-1.37-5.05c.03,1.54-.53,4.83.31,7.58.62,2.04,1.82,3.74,3.38,5.18.53.48,2.96,2.52,2.61,2.1l-2.57-4.41c.99,2.59.59,4.16,1.03,6.88.26,1.65.65,3.06,1.54,4.57l1.56,2.02c1.1,1.45.96,1.09-.42-1.09l1.01-7.71c-.3.67-1.88,2.06-.39,1.21,1.58-.89-.77.07-1.15.08-2.29.06-5.16.92-7.17.76l5.05,1.37c-1.92-1.16-3.34-3-5.44-3.99-1.47-.7-3.42-.98-4.66-1.35,1.95.59-3.58-1.39-3.56-1.32.1.41,2.89,3.04,1.73.35-.86-2-2.46-4.52-3.71-6.23-.99-1.36-5.98-6.49-3.18-2.07.9,2.23,1.31,2.65,1.25,1.26.15-1.8-.23-.95-1.14,2.56.67-.11,2.03-2.38,2.33-2.85.62-1.01,1.11-2.12,1.51-3.24,1.1-3.04-.55.31-.41.46.7-.24,1.36-.55,1.99-.93.98-.43.88-.52-.32-.26-.67.32-1.2.18-1.59-.41-.89-.8-.81-.68.24.35l14.14-14.14c.93.9-1.72-1.97-2.11-2.32-1.41-1.3-2.98-2.17-4.84-2.66-3.02-.8-5.85,0-8.85.43h5.32c.49.31.38.26-.31-.15-.85-.59-.83-.42.06.53.78,1.18.87,1.17.25-.02l-.41-.89c-1.49-2.62-4.07-4.94-7.03-5.78-1.24-.35-2.81-.51-4.09-.57-3.34-.16.83,1.04-1.77-.35-3.15-1.68-6.28-1.14-9.59-1.14l5.05,1.37c-2.19-.95-4.04-2.32-6.31-3.21-5.03-1.96-10.98,2.16-12.3,6.98-1.56,5.66,1.93,10.33,6.98,12.3-1.21-.47,1.28,1.06,1.54,1.19,2.49,1.25,5.09,1.65,7.83,1.19,2.03-.18,1.77-.29-.77-.34,1,.46,2.02.88,3.05,1.26,1.04.46,2.15.66,3.32.61,1.96.39,1.93.2-.06-.58l-3.59-3.59c2.16,3.43,3.46,5.77,7.14,7.96,1.81,1.07,3.62,2.05,5.68,2.51,1.77.48,3.54.48,5.32,0,1.81-.18,1.36-.29-1.35-.33l-4.41-2.57c-.99-.88,1.72,1.94,2.11,2.32,9.25,8.97,23.16-4.92,14.14-14.14-4.88-4.99-12.81-7.22-19.4-4.45-2.81,1.18-6.1,2.76-8.4,4.79-1.36,1.2-2.63,2.56-3.51,4.16-.21.39-2.25,4.94-1.15,3.04s-1.71,1.82-1.96,2.19c-.85,1.29-1.55,2.64-1.92,4.16-.74,3.07-.79,7.45.1,10.46,1.02,3.45,3.34,5.3,5.92,7.53,2.07,1.8-.96-1.6.36,1.41.44,1.01,1.54,2.56,2.12,3.53,3.35,5.59,8.48,7.68,14.34,9.17,2.69.68-1.15-1.45,1.03.86,1.15,1.21,2.83,2.15,4.36,2.75,3.67,1.46,6.01.4,9.38,0,6.78-.8,12.47-1.11,17.35-6.58,3.05-3.42,5.17-7.55,4.11-12.24-.73-3.22-2.72-5.25-4.72-7.73l2.57,4.41c.51,1.26.03-1.86,0-2.24-.15-2.09-.65-4.17-1.3-6.16-1.29-3.95-4.18-6.01-6.24-7.95l2.57,4.41c-.19,3.34-.09,3.27.28-.2.14-.68.18-1.37.12-2.06-.06-2.79-1.26-5.77-3.25-7.77s-4.96-3.14-7.77-3.25c-1.22-.06-2.42.05-3.62.35-1.91.22-1.45.25,1.37.09l4.41,2.57c-.45-.48-2.45-3.26-3.87-4.26-2.24-1.59-4.88-2.44-7.51-3.26-12.32-3.84-17.58,15.46-5.32,19.29h0Z"/>
</svg>