<?xml version="1.0" encoding="UTF-8"?>
<svg id="_レイヤー_2" data-name="レイヤー 2" xmlns="http://www.w3.org/2000/svg" viewBox="0 0 1000 1000">
  <path d="M606.26,508.35c-13.82,4.99-26.54,17.73-26.62,33.32-.04,7.8,4.01,14.85,11.14,18.14,7.89,3.64,16.13,1.72,23.63-1.91,13.5-6.52,25.89-18.9,22.65-35.16-3.41-17.09-23.6-21.75-36.04-11.24-8.76,7.39,2.53,21.5,12.12,15.71,9.08-5.49,18.72-8.9,29.2-10.6,5.34-.87,8.3-7.5,6.98-12.3-1.56-5.67-6.95-7.85-12.3-6.98-12.03,1.95-23.54,6.31-33.97,12.62l12.12,15.71c2.18-1.84,2.63,2.52,2.11,4.28-1.54,5.17-8.37,8.72-12.95,10.71-3.96,1.72-5.66,2.66-3.97-1.96,1.84-5.03,6.24-9.23,11.24-11.03s8.5-6.8,6.98-12.3c-1.35-4.9-7.2-8.83-12.3-6.98h0Z"/>
  <path d="M377.03,528.2c5.03,1.82,9.35,5.99,11.24,11.03,1.73,4.64-.05,3.69-3.97,1.96-4.58-2.02-11.4-5.5-12.95-10.71-.53-1.78-.06-6.11,2.11-4.28,4.04-5.24,8.08-10.47,12.12-15.71-10.43-6.3-21.94-10.66-33.97-12.62-5.32-.86-10.76,1.38-12.3,6.98-1.31,4.77,1.62,11.43,6.98,12.3,10.47,1.7,20.11,5.11,29.2,10.6,9.48,5.73,20.96-8.24,12.12-15.71-12.45-10.51-32.63-5.87-36.04,11.24-3.24,16.21,9.14,28.7,22.65,35.16,7.52,3.6,15.74,5.55,23.63,1.91,7.17-3.31,11.11-10.32,11.14-18.14.05-15.55-12.91-28.36-26.62-33.32-5.08-1.83-10.95,2.07-12.3,6.98-1.53,5.56,1.89,10.46,6.98,12.3h0Z"/>
</svg>