<?xml version="1.0" encoding="UTF-8"?>
<svg id="_レイヤー_2" data-name="レイヤー 2" xmlns="http://www.w3.org/2000/svg" viewBox="0 0 1000 1000">
  <g>
    <path d="M596.12,512.39c29.58-22.77,60.26-44.07,91.92-63.85,10.89-6.8.87-24.11-10.09-17.27-31.66,19.77-62.34,41.08-91.92,63.85-4.27,3.29-6.56,8.6-3.59,13.68,2.46,4.21,9.37,6.9,13.68,3.59h0Z"/>
    <path d="M611.43,487.24c0,9.4.46,18.79,1.61,28.12,1.05,8.54,2.09,17.52,5,25.68s7.62,14.82,15.34,18.38c8.05,3.71,17.36,2.8,24.03-3.28,5.32-4.86,8.05-11.89,9.61-18.78,1.97-8.74,3.14-17.75,3.69-26.69,1.12-18.28-.95-36.78-5.68-54.45-3.32-12.42-22.62-7.15-19.29,5.32s5.31,26.29,5.27,39.8c-.02,6.57-.39,13.17-1.28,19.68-.77,5.64-1.49,12.19-3.86,17.43-1.12,2.48-1.82,3.96-4.3,2.78-4.34-2.08-5.36-8.73-6.26-12.86-2.94-13.5-3.87-27.32-3.87-41.12,0-12.87-20-12.89-20,0h0Z"/>
  </g>
  <g>
    <path d="M414.78,495.12c-29.58-22.77-60.26-44.07-91.92-63.85-10.95-6.84-21,10.46-10.09,17.27,31.66,19.77,62.34,41.08,91.92,63.85,4.28,3.3,11.2.66,13.68-3.59,3.02-5.16.71-10.38-3.59-13.68h0Z"/>
    <path d="M369.38,487.24c0,13.51-.89,27.04-3.69,40.29-.89,4.23-1.79,10.76-5.82,13.34-2.79,1.79-3.68.38-4.92-2.43-2.23-5.02-2.94-11.13-3.72-16.51-.94-6.5-1.35-13.1-1.41-19.67-.12-13.83,1.68-27.38,5.26-40.74,3.33-12.45-15.96-17.76-19.29-5.32-4.73,17.67-6.8,36.17-5.68,54.45.55,8.94,1.71,17.95,3.69,26.69,1.56,6.89,4.28,13.92,9.61,18.78,6.67,6.09,15.97,6.99,24.03,3.28s12.54-10.56,15.34-18.38,3.94-17.12,5-25.68c1.15-9.34,1.6-18.72,1.61-28.12,0-12.87-20-12.89-20,0h0Z"/>
  </g>
</svg>