<?xml version="1.0" encoding="UTF-8"?>
<svg id="_レイヤー_2" data-name="レイヤー 2" xmlns="http://www.w3.org/2000/svg" viewBox="0 0 1000 1000">
  <g>
    <path d="M600.58,508.15c43.98-5.81,88.27-8.98,132.63-9.47,12.86-.14,12.89-20.15,0-20-44.36.5-88.65,3.66-132.63,9.47-5.35.71-10,4.09-10,10,0,4.85,4.61,10.71,10,10h0Z"/>
    <path d="M635.6,518.93c.54,1.87.98,3.61,1.11,5.54.06,1.11.05,2.23,0,3.34.02,1.65,1.1.83,3.25-2.46h5.32c3.63.71,2.36,3.63,1.97-.64-.04-.79-.03-1.58.05-2.36.75-2.22.51-2.19-.72.09l-5.05,1.37c-.7-.32-1.31-.77-1.84-1.33-.62-.83-.8-.83-.56-.01.4-.23-.8,2.21.02,1.14l3.59-3.59-1,.54,5.05-1.37.46-.04,4.41,2.57c-1.11-.93-1.15-1.73-1.46-3.39-.24-.8-.32-1.63-.26-2.48.42-3.69-.85-2.62-3.82,3.2h-5.32c-.96-.84-1.91-1.67-2.87-2.51l.38,1.54c-.08.76.08,1.55,0,2.32-.1.88-.43,1.69-.63,2.54-.3,1.32-1,1.1-.07.6l5.05-1.37c4.64-.61,2.93,3.24,2.31.38-.22-1.03-.79-3.01-1.38-3.97-.18-.29-.18-1.39-.43-1.67-.37-.41-4.35-.62-4.18.65.09.62.96,1.44,1.25,2.17.47,1.19.16,2.83.61,3.88.17.39-.25.74-.43.5-.56-.75,2.99-.6,2.73-.17-.14.22-.14-2.65,0-3.21.25-1.12,1.28-2.44,1.35-3.5,1.55-2.57-.75-2.21-6.89,1.08.15.34.31.67.5.99,0-.07,1.45,4.74.87,4.4s1.21-1.33,1.88-1.47c1.56-.32,3.47,3.34,3.53,3.48-2-5.01-6.68-8.53-12.3-6.98-4.77,1.31-8.99,7.25-6.98,12.3,6.81,17.11,31.2,13,33.73-4.83,1.15-8.09-2.01-17.51-8.14-23.04-7.34-6.62-18.14-5.12-23.17,3.43-4.11,6.98-6.19,16.07-3.32,23.85,3.06,8.26,11.18,14.2,20.16,12.87,19.65-2.93,20.51-29.67,7.68-40.86-7.07-6.17-17.48-5.88-23.83,1.19-6.88,7.67-5.23,17.96-1.54,26.66,3.38,7.97,10.78,14.37,19.84,11.02,8.5-3.14,12.07-14.45,11.81-22.75-.26-8.47-4.89-19.16-14.86-19.16s-14.25,10.24-13.34,19.03c.88,8.51,4.49,19.12,14.19,20.62,10.88,1.68,15.57-9.22,14.68-18.24-1.05-10.64-10.03-20.16-21.31-16.15-10.33,3.67-11.79,17.7-9.44,26.86,2.48,9.7,13.17,18.38,22.53,10.44,7.91-6.71,6.72-19.36,4.13-28.35-3.55-12.35-22.86-7.1-19.29,5.32h0Z"/>
  </g>
  <g>
    <path d="M400.01,488.15c-43.98-5.81-88.27-8.98-132.63-9.47-12.87-.14-12.88,19.86,0,20,44.36.5,88.65,3.66,132.63,9.47,5.36.71,10-5.1,10-10,0-5.99-4.62-9.29-10-10h0Z"/>
    <path d="M345.7,513.62c-2.31,8.04-3.43,18.38,1.6,25.61,5.76,8.27,17.4,6.88,22.46-1.32,4.55-7.36,4.96-18.64.89-26.29-4.71-8.86-16.5-10.32-23.64-3.44-5.84,5.64-7.7,17.49-3.53,24.62,5.56,9.48,18.21,7.48,23.19-1.31,3.87-6.83,6-17.87,1.98-25.08-5.16-9.27-17.64-8.67-23.12.02-4.39,6.97-4.03,16.67-1.05,24.06,3.75,9.31,13.5,15.65,22.73,8.95,13.37-9.7,14.63-40.62-6.35-41.49-19.04-.78-27.4,27.38-15.27,39.83,5.89,6.05,15.2,7.61,22.48,3.08,7.89-4.9,10.75-14.25,9.19-23.06s-7.03-19.12-17.25-18.92-16.84,11.19-18.18,20.34c-1.37,9.38,2.8,19.13,12.35,22.11s17.81-1.53,21.31-10.31c2-5.02-2.19-10.98-6.98-12.3-5.69-1.56-10.3,1.95-12.3,6.98-.15.39,1.86-3.6,3.26-3.48.52.04,2.45,1.47,2.24,1.58-.65.33.47-4.01.44-3.85.31-.53.59-1.08.84-1.64l-7.18-1.62c-.04.09,1.32,2.91,1.43,3.25.1.31.3,4.16.21,4-.32-.53,3.24-.47,2.75.13-.1.12-.58.09-.34-.18-.05.05.11-2.82.26-3.37.24-.85,1.22-2.13,1.33-2.8.21-1.3-1.3-3.19-4.07-.89-.06.05-.15,1.09-.24,1.28-.56,1.2-1.06,2.92-1.41,4.19-.95,3.4-1.76-.66,2.21-.14l5.05,1.37c.87.46.1.87.18.16.09-.87-.78-2.45-.87-3.3-.08-.69.04-1.39,0-2.08-.22-3.17,2.91-.88-2.49.73h-5.32c-2.97-5.82-4.24-6.89-3.82-3.2.06.85-.03,1.67-.26,2.48-.31,1.67-.35,2.46-1.46,3.39l4.41-2.57.46.04,5.05,1.37-1-.54,3.59,3.59c-.14.15-.16.3-.06.43.29.56.31.04.08-1.57l.08-.59c-.7.81-1.53,1.45-2.48,1.93l-5.05-1.37c-1.23-2.28-1.47-2.31-.72-.09.08.79.09,1.57.05,2.36-.4,4.27-1.66,1.35,1.97.64h5.32c2.14,3.29,3.22,4.11,3.25,2.46-.06-1.11-.06-2.23,0-3.34.13-1.93.58-3.67,1.11-5.54,3.57-12.39-15.73-17.68-19.29-5.32h0Z"/>
  </g>
</svg>