<?xml version="1.0" encoding="UTF-8"?>
<svg id="_レイヤー_2" data-name="レイヤー 2" xmlns="http://www.w3.org/2000/svg" viewBox="0 0 1000 1000">
  <path d="M623.78,477.08c-1.92,1.57-3.5,2.29-5.57,3.59s-3.47,3.3-5.33,4.9l4.41-2.57c-2.48.73-5.65.42-8.4,2.49-1.31.98-2.36,2.04-3.23,3.49-.2.33-1.67,2.77-.5,1.54l4.41-2.57c-2.68,1.01-7.34,1.57-10.55,3.19-2.17,1.1-3.89,2.54-5.17,4.65-.46,1.07-.92,2.15-1.37,3.23-.6,1.71-.22,1.36,1.14-1.05l4.41-2.57c-2.44.84-6.61.95-9.29,3.53-2.45,2.36-3.16,5.4-4.28,8.43l2.57-4.41c.7-.86-2.26,1.37-2.65,1.73-1.55,1.4-2.68,2.97-3.3,4.98-1.12,3.63-.37,7.78,1.47,11.07,2,3.57,5.39,5.55,9.14,6.78,3.1,1.02,6.55,3.1,9.83,3.08,2.66.57,1.94-.2-2.16-2.29.58.85,1.21,1.65,1.9,2.4,1.29,1.31,2.66,2.25,4.34,2.93,2.09.85,4.13.98,6.32.8.86-.11,1.72-.23,2.57-.36-2.92-.28-3.37-.1-1.36.56,2.02,2.04,7.38,3.52,9.89,3.51,3.71-.02,5.02-.99,8.77-.73l-5.05-1.37c-3.12-1.75-2.25-2.03-1.03-.1,1.04,1.65,2.44,3.19,4.11,4.22s3.68,1.63,5.64,1.68c.75.02,4.59.07,4.98-.6-.43.73-6.75-.86.17,1.44,2.15.71,4.14.91,6.39.38,1.27-.3,2.45-.79,3.57-1.46.84-.58,1.65-1.2,2.44-1.85,1.45-1.2,1.08-1.12-1.12.24,12.52-2.98,7.22-22.27-5.32-19.29-1.45.34-2.75.98-3.99,1.78l-2.02,1.56c-1.45,1.21-1.08,1.12,1.12-.26h5.32c-.8-.28-3.69-1.99-5.56-2.27-1.4-.21-2.4-.16-3.8.02.04,0-3.16.32-2.19.32l5.05,1.37c2,2.24,2.5,2.55,1.51.95-.56-1.03-1.25-1.98-2.05-2.85-1.5-1.64-3.34-2.94-5.52-3.54-4.08-1.12-8.88.3-12.01.38l5.05,1.37c-3.08-1.42-5.99-3.15-9.21-4.28-1.68-.59-3.39-1.04-5.2-1l-2.66.36c-1.25.45-1.57.42-.97-.11l5.05,1.37c2.02,2.16,1.99,1.99-.08-.52-.75-.94-1.65-1.71-2.7-2.33-1.94-1.25-3.78-1.59-5.98-1.97-2.78-.49-6.62-1.5-8.76-3l3.59,3.59c-.42.55-.57.21-.43-1.02v5.32l.24-.95-2.57,4.41c-.95.75.37.21.75,0,1.38-.72,2.54-2.06,3.41-3.32,1.44-2.08,2.03-4.34,2.89-6.68l-2.57,4.41.61-.74-4.41,2.57c2.55-.89,6.52-.87,9.29-3.53,1.04-1,1.8-2.19,2.45-3.46.57-1.07.99-2.19,1.28-3.36-4.22,3.11-5.21,4.34-2.98,3.69,1.05-.22,2.04-.6,2.98-1.15-1.84.32-2.17.4-.99.24,1.9.12,3.89-.54,5.58-1.35,1.92-.92,3.38-2.06,4.65-3.76.18-.24,2.46-3.78,1.28-2.55l-4.41,2.57c.91-.27,3.44-.19,5-.7,2.69-.87,4.05-2.56,6.07-4.24,1.16-.97,2.33-1.3,3.73-2.19,2.04-1.3,3.66-3.11,5.52-4.63,4.19-3.41,3.55-10.6,0-14.14-4.14-4.14-9.94-3.42-14.14,0h0Z"/>
  <path d="M346.86,478.03c.85.53,1.71,1.06,2.57,1.57-1.08-1.22-1.15-1.14-.22.25,1.18,2.05,3.08,3.59,5.05,4.8,1.76,1.09,3.72,2.21,5.68,2.86,1.44.47,4.33.71,4.8.87l-4.41-2.57c.98.87,3.27,3.88,5.19,5.01,2.17,1.27,5.81,1.24,7.31,1.69l-4.41-2.57c1.84,1.62,3.06,3.65,5.23,4.96.36.21,5.26,2.56,3.08.95.75.55,1.32,1.48,2,2.12,2.09,1.93,4.61,4.13,7.19,5.31,1.47.67,3.13,1.1,4.76,1.12.48,0,3.39.16,1.62-.35l-4.41-2.57c-1.21-2.12-1.4-2.3-.57-.51.29.73.61,1.45.96,2.16.95,1.6,2.63,3.31,4.22,4.27.83.5,4.61,1.58,4.61,1.73l-1.97-1.77c.72,1.13,1.57,2.13,2.57,3,.67-5.24,1.35-10.47,2.02-15.71-2.19,1.08-3.92,1.6-5.78,3.28-1.18,1.07-2.49,3.03-3.24,3.69l4.41-2.57c-1.53.53-3.1.63-4.64,1.12-2.52.81-4.01,2.37-6.22,3.68-2.91,1.72-6.1,2.06-9.28,3.07-1.96.62-3.77,1.63-5.7,2.28-1.48.5-3.08.42-4.58.89-4.15,1.32-6.46,4.56-10.29,6.32l5.05-1.37c-1.34.13-5.93-.08-8.31.36-2.83.52-5.38,1.45-8.1,2.36-12.15,4.06-6.94,23.38,5.32,19.29,1.45-.49,2.86-1.14,4.34-1.56.14-.04,5.39-1.25,1.65-.88,1.63-.16,3.42.52,5.11.43,2.36-.12,4.35-1,6.46-2.01,1.27-.62,2.58-1.32,3.76-2.1l2.02-1.56c1.25-1.06,1.18-1.25-.19-.56-1.92.62-1.39.63,1.59.03.78-.1,1.51-.32,2.21-.66,1.61-.56,3.13-1.46,4.75-1.96,2.55-.78,5.25-1.15,7.79-2.01,3.72-1.26,6.44-3.89,9.85-5.5-2.02.96,1.37.07,1.65,0,2.07-.52,3.93-1.53,5.52-2.96,1.02-.92,2.47-2.01,2.82-3.33.88-1.18.38-.8-1.5,1.12,1.25-.47,2.47-1.02,3.65-1.63,5.78-2.85,6.39-11.46,2.02-15.71-1.84-1.78-3.02-3.58-5.35-4.87-.24-.14-4.08-1.51-4.08-1.5-.05.8,4.98,6.34,2.26,1.17-1.52-2.89-3.85-5.28-7.07-6.24-1.13-.34-2.39-.6-3.56-.62-1.02-.02-3.77-.38-.91.59,3.2,1.07-.1-.67-.68-1.22s-1.02-1.25-1.59-1.8c-.86-.82-1.9-1.67-2.9-2.29-.52-.32-5-2.53-3.41-1.31,1.01.78-.56-.85-.76-1.07-.93-1.01-2.05-2.09-3.25-2.79-2.17-1.27-5.81-1.24-7.31-1.69l4.41,2.57c-.69-.62-2.66-3.14-4.18-4.22-1.37-.98-2.85-1.75-4.51-2.15-.61-.15-4.78-1.03-3.28-.34,2.18,1-2.05-1.55-.24-.18,1.27.97-1.43-2.31-1.78-2.69-1.89-2.02-4.36-3.32-6.69-4.76-10.98-6.78-21.04,10.51-10.09,17.27h0Z"/>
</svg>