<?xml version="1.0" encoding="UTF-8"?>
<svg id="_レイヤー_2" data-name="レイヤー 2" xmlns="http://www.w3.org/2000/svg" viewBox="0 0 1000 1000">
  <path d="M392.56,742.39c2.07-1.22,5.31-2.72,7.74-4.75,1.37-1.14,2.59-2.1,3.66-3.51.26-.34,2.47-3.62,1.5-2.72l-4.41,2.57.8-.14h-5.32c3.51.63,6.39,2,10.09.93s6.04-3.79,9.08-5.31c2.13-1.07,4-2.22,6.14-3.12,1.97-.83,4.64-2.44,6.72-2.84-2.11.41,4.76-.34,3.82-.08-.22.06,4.36-1.57,4.46-2.21-3.61-.15-4.27-.02-1.98.38,1.07.24,2.16.37,3.25.37,3.25.37,6.4.58,9.67.36,1.4-.17,2.79-.35,4.18-.55-2.64-.8-3.33-.82-2.08-.06.85,1.31,5.23,2.17,6.62,2.16,3.87-.04,6.37-2.14,9.59-3.77l-5.05,1.37.8-.04-5.05-1.37.64.46-3.59-3.59c1.38,2.16,2.14,4.36,4.08,6.18,1.57,1.47,3.44,2.37,5.54,2.85l2.66.36c1.33-.07,1.61-.01.85.19l-4.41-2.57c-1.09-1.04.47,1.17.63,1.41.86,1.37,1.97,2.52,3.24,3.51,2.31,1.8,5,2.8,7.32,4.46,5.06,3.62,12.04,5.97,17.73,2.47.98-.6,2.43-1.6,3.1-2.56,1.36-1.27.25-.81-3.34,1.39l1.28.11c1.26.86,6.62.87,8.51.94,3.85.14,6.48-1.39,9.46-3.47s-1.21,1,1.58-.94c.49-.34,3.04-2.71,2.42-2.27l-5.05,1.37c-1.34-.35-1.36-.3-.06.14.59.27,1.2.46,1.84.57,2.86.65,5.85.28,8.43-1.12s6.22-4.43,7.82-6.29c1.71-.9,1.63-.94-.26-.15,1.31.23,2.62.15,3.93-.23,2.47-.54,4.55-1.65,6.31-3.51.81-.96,1.55-1.96,2.23-3.01-2.42,1.87-2.61,2.31-.59,1.32,2.39-.63,3.99-2.29,6.03-3.42l-5.05,1.37c.89,0,4.87,1.19,7.23.54,2.99-.82,5.24-2.91,7.62-4.76l-4.41,2.57c.11-.04,1.72-.29,1.45-.38l-4.41-2.57c2.9,2.47,5.2,5.01,9.24,5.56s6.87-1.28,10.38-2.79l-5.05,1.37.96-.07-5.05-1.37c-1.37-.68.73.92,1.08,1.24,1.87,1.74,4.07,2.87,6.59,3.23,1.83.26,3.47.14,5.28-.4.96-.39,1.91-.8,2.86-1.2,1.72-.84,1.3-.87-1.28-.12l-5.05-1.37.65.47-3.59-3.59c2.94,4.33,4.6,7.51,10.14,9,4.04,1.09,8.3,1.97,12.22,3.44l-4.41-2.57.56.59-2.57-4.41c1.06,2.58,1.41,5.1,3.11,7.44,1.92,2.64,4.7,3.83,7.49,5.33,11.34,6.09,21.45-11.17,10.09-17.27-.01,0-3.03-1.59-2.66-1.19l2.57,4.41c-2.12-5.28-3.26-9.9-9.42-11.83-4.34-1.36-8.79-2.45-13.18-3.64l4.41,2.57c1.42,1.11-.64-1.29-1.09-1.97-1.38-2.09-3.17-3.59-5.43-4.56s-4.9-1.13-7.33-.52c-1.12.43-2.23.88-3.33,1.37-1.72.81-1.29.87,1.27.18l5.05,1.37c1.35.77-.8-1.05-1.08-1.3-1.85-1.71-4.1-2.84-6.59-3.17-2.15-.29-4.09.02-6.14.75-.74.31-1.47.62-2.2.94-1.13.75-1.34.8-.61.16l7.71,1.01c.84.37-3.29-2.69-3.5-2.81-2.34-1.37-4.88-1.7-7.53-1.66-2.32.03-4.76.29-6.94,1.03-2.03.69-4.07,2.48-5.6,3.2l5.05-1.37c.99.07-.72-.5-.83-.54-1.12-.36-2.56-.39-3.74-.36-3.45.08-6.27,2.43-7.97,3.45.96-.58-2.1.84-2.14.86-1.33.56-2.32,1.03-3.49,1.86-1.1.77-1.77,1.47-2.62,2.48-.09.11-1.9,2.15-1.37,1.67l4.41-2.57c.66-.45.34-.57-.96-.39-1.26.1-2.51.29-3.74.59-1.89.58-3.77,1.7-5.45,2.76s-2.86,2.17-4.21,3.43c-.62.94-.86,1.19-.72.77-2.53,1.75-2.73,2.03-.62.85h5.32c-4.3-1-7.8-2.47-12.14-.06-.99.69-1.96,1.42-2.89,2.18-.94.82-1.08,1.04-.42.66-1.08.55-2.07,1.25-2.96,2.09-.86.91-1.09,1.01-.7.31l5.05-1.37c-3.89.18-7.88-1.05-11.9-1.04-2.43,0-4.58.44-6.69,1.7-.97.58-1.89,1.39-2.73,2.14-.36.33-2.02,1.54-.45.56l5.05-1.37c.94-.11-1.13-1.01-1.9-1.56-1.1-.79-2.12-1.76-3.42-2.24l-1.5-.64c1.02,1.41,1.27,1.65.78.71-.33-2.1-3.35-4.64-5.03-5.62-1.92-1.12-6.18-1.62-7.02-1.83l4.41,2.57c1.45,1.24-.58-1.55-.95-2.13-1.48-2.34-3.92-4.31-6.62-5.05-4.83-1.33-8.28,1.21-12.23,3.35l5.05-1.37c2.44.68,2.82.57,1.13-.34l-2.39-1.01c-1.76-.56-3.42-.72-5.26-.62-2.68.15-5.21.78-7.92.6-3.37-.23-5.39-1.1-9-.94s-6.1,2.19-9.21,3.68l5.05-1.37c-3.79.46-6.98.45-10.53,2.12-2.61,1.23-5.5,1.68-8.06,3.04-1.91,1.01-3.58,2.28-5.52,3.26-1.26.64-2.64,1.27-3.83,2.04l-2.02,1.56c-1.46,1.18-1.21,1.12.74-.2h5.32c-5.65-1.14-10.61-2.37-15.21,2.33-.77.79-1.7,1.94-2.11,3-1.07,2.79,2.08-1.06-.37.94-.7.58-3.41,2.63-1.1,1.24-1.4.84-3.12,1.18-4.56,2.02-11.09,6.52-1.04,23.81,10.09,17.27h0Z"/>
</svg>