<?xml version="1.0" encoding="UTF-8"?>
<svg id="_レイヤー_2" data-name="レイヤー 2" xmlns="http://www.w3.org/2000/svg" viewBox="0 0 1000 1000">
  <path d="M404.51,686.78c69.42-8.73,139.49-11.61,209.4-8.61l-9.64-12.66c-4.57,18.86-10.42,37.71-21.89,53.64-11,15.27-27.92,25.66-45.57,31.52-35.5,11.8-77.45,6.8-104.22-20.99-13.14-13.64-21.63-31.65-22.2-50.69-.38-12.84-20.38-12.9-20,0,1.3,43.7,33.57,80.65,74.74,92.83,42.82,12.67,96.43.9,126.8-32.89,17.12-19.04,25.68-43.61,31.62-68.1,1.58-6.51-3.04-12.38-9.64-12.66-69.9-3-139.97-.12-209.4,8.61-5.36.67-10,4.11-10,10,0,4.88,4.6,10.68,10,10h0Z"/>
</svg>