<?xml version="1.0" encoding="UTF-8"?>
<svg id="_レイヤー_2" data-name="レイヤー 2" xmlns="http://www.w3.org/2000/svg" viewBox="0 0 1000 1000">
  <path d="M488.38,718.08c.18.52.34,1.06.46,1.6.22,1.15.23,1.09.03-.19.23.49-.24,4.08.15,1.49l14.69-5.98c1.19,1,1.39,1.15.6.45-.71-.78-.57-.57.42.63-.22-.34-.42-.68-.6-1.05.58,1.47.7,1.7.36.69-.24-1.07-.23-.78.03.87-.03-.4-.04-.8-.03-1.21-.28,1.65-.32,1.94-.1.87.32-1.01.2-.78-.37.7-4.56,1.2-9.12,2.39-13.68,3.59.37.16.73.37,1.1.52.69.46.69.43-.02-.09-.6-.49-.71-.56-.32-.2.12,0,1.38,1.5.2.14-1.33-1.53.39.58.17.54-.09-.02-.95-2.13-.38-.67s-.34-.58-.06-.86c-.07.07-.12,2.53.09.48.17-1.67-.14.06-.26.43l14.69-5.98c-.9-.57-.75-.44.47.4.84,1.22.97,1.38.39.48.52,1.42.62,1.62.29.59.57,2.41-.06,4.67-1.89,6.79l-4.41,2.57.4-.07h-5.32l.4.13-4.41-2.57-1.03-1.41-1.37-5.05.02.35,1.37-5.05-.22.3c-3.09,4.24-.86,11.33,3.59,13.68,5.2,2.75,10.38.94,13.68-3.59s1.05-12.32-3.92-14.94-12.06-1.32-15.01,4.05c-4.12,7.49.05,16.45,6.87,20.61,5.82,3.56,12.63-.05,14.69-5.98,2.91-8.37-1.41-19.32-9.7-22.88-2.46-1.06-5-1.88-7.71-1.01-2.34.76-4.9,2.27-5.98,4.6-4.33,9.33-1.78,19.6,6.86,25.41,4.93,3.31,13.74.25,14.69-5.98.71-4.63.8-8.99-.64-13.52-1.58-4.98-7.02-8.69-12.3-6.98-4.99,1.62-8.68,6.96-6.98,12.3h0Z"/>
  <path d="M473.15,759.97c11.78,8.53,24.88,16.17,40,13.48,13.25-2.35,22.48-13.2,28.6-24.45,6.15-11.31-11.11-21.42-17.27-10.09-3.43,6.31-8.24,14.32-16.17,15.14-9.3.97-18.05-6.27-25.06-11.35-4.38-3.17-11.14-.75-13.68,3.59-2.95,5.05-.8,10.5,3.59,13.68h0Z"/>
</svg>