<?xml version="1.0" encoding="UTF-8"?>
<svg id="_レイヤー_2" data-name="レイヤー 2" xmlns="http://www.w3.org/2000/svg" viewBox="0 0 1000 1000">
  <path d="M394.22,740.38c10.28-8.09,23.92-11.96,36.08-16.23s24.86-4.85,35.65,2.12c5.98,3.86,11.36,8.05,18.55,9.42,7.86,1.5,15.99.51,23.49-2.16,13.49-4.8,24.91-15.44,39.06-18.23,15.83-3.11,31.88,6.77,44.98,14.31,11.17,6.44,21.26-10.84,10.09-17.27-14.43-8.31-29.65-16.36-46.59-17.42s-30.73,7.93-45.12,15.7c-5.98,3.23-13,6.41-19.98,5.79s-11.86-6.32-17.78-9.41c-13.93-7.26-30.57-7.5-45.4-2.9-16.49,5.11-33.52,11.39-47.17,22.12-4.25,3.34-3.5,10.64,0,14.14,4.2,4.2,9.88,3.35,14.14,0h0Z"/>
</svg>