<?xml version="1.0" encoding="UTF-8"?>
<svg id="_レイヤー_2" data-name="レイヤー 2" xmlns="http://www.w3.org/2000/svg" viewBox="0 0 1000 1000">
  <path d="M387.98,704.82c2.62-.74,6.82-2.7,8.66-3.22h-5.32c-2.28-1.45-2.71-1.59-1.28-.41l2.02,1.56c1.22.79,2.51,1.4,3.93,1.74,3.34.8,7.39.72,10.8.55,1.97-.1,3.69-.35,5.47-1.17.85-.4,6.52-4.28,2.59-2.19-3.6,1.92,1.55.14,2.81-.04,1.96-.28,3.84-.79,5.79-1.09h-5.32l.74.25-4.41-2.57c2.42,2.06,4.14,4.46,7.37,5.47s6.74.54,10.05.74c2.97.19,5.9-.06,8.87.07,1.86.08,3.6.1,5.44-.39,1.32-.35,3.23-1.49,4.01-1.66h-5.32c1.78.62,4.04,2.6,6.95,2.6,2.27,0,6.12-1.53,7.25-1.69h-5.32c1.93.49,3.68,1.27,5.67,1.49s3.82-.3,5.89-.47l-5.05-1.37c-.86-.37-.69-.83,0,.18.37.54.84,1,1.31,1.44,2.32,2.18,5.37,3.2,8.52,3.26,2.22.05,4.7.09,6.85-.46,1.16-.3,2.26-.81,3.34-1.35.54-.27,2.19-.79,1.01-.6h-5.32c3.94.82,7.54,1.21,11.54,1.47l-5.05-1.37c-1.82-2.09-2.18-2.42-1.06-.99.64.98,1.37,1.87,2.19,2.68,2.16,2.03,4.81,3.1,7.76,3.28,1.85.11,3.83.08,5.68-.02,1.32-.08,2.61-.3,3.87-.66-1.76-.07-2.04.06-.84.4.92.75,5.39,1.64,6.25,1.33-3.7-3.17-4.82-3.73-3.35-1.65.69.93,1.4,1.84,2.15,2.73,3.83,3.69,9.01,2.85,12.41,3.07l-5.05-1.37c.73.42,2.45,2.27,3.77,2.99,2.54,1.4,5.82,1.74,8.64,1,.62-.16,3.33-.97,3.43-1.38-.3,1.23-5.24-.53-1.73.72.86.31,1.97.61,2.87.78l1.42.44c-2.66-2.31-3.24-2.58-1.74-.83,3.03,4.85,7.69,4.59,12.51,5.54,1.65.32,3.46,1.17,5.06,1.79,2.24.87,4.28.99,6.62,1.45,5.29,1.05,10.8-1.51,12.3-6.98,1.35-4.92-1.66-11.25-6.98-12.3-3.45-.68-6.07-1.4-9.41-2.48-3.67-1.19-7.07-1.26-10.83-1.71l5.05,1.37c2.2,1.5,1.49.93-.01-.74-.91-1.01-1.87-1.94-3.06-2.66-2.07-1.23-4.7-2-7.03-2.61s-4.77-1.2-7.05-1.27c-1.39-.05-2.77.16-4.11.54-.58.2-1.15.42-1.71.69-1.85.71-1.58.71.81,0l5.05,1.37c-1.75-1.04-3.5-3.27-6.15-4-1.14-.31-2.59-.44-3.79-.43,1.01-.01-4.61.27-3.54.33l5.05,1.37c1.75,1.87,2.26,2.26,1.53,1.18-.53-.88-1.14-1.69-1.84-2.46-.78-.84-1.61-1.66-2.61-2.27-2.59-1.57-5.38-1.55-8.19-2.35-2.99-.86-5.49-1.77-8.68-1.36-2.55.33-3.65.57-6.77.44l5.05,1.37c1.71,1.96,2.17,2.42,1.36,1.38-.61-.82-1.23-1.63-1.86-2.43-.88-.94-1.88-1.74-3-2.38-2.94-1.68-5.58-1.22-8.71-1.63s-5.84-1.5-9.15-.52c-1.92.56-2.74,1.42-4.37,2.21,2.7-1.3.57-.62-1.34-.66l5.05,1.37c1.24.55.47.24-.31-.59-.65-.7-1.2-1.24-2-1.82-2.75-2-6.22-2.97-9.61-2.15-2.98.72.49.44-1.24.05-1.59-.36-3.15-1-4.83-1-2.28,0-6.08,1.51-7.25,1.69h5.32c-1.45-.52-4.31-2.6-6.95-2.6-2.14,0-4.28.69-6.18,1.61-2.22,1.08.77.67-.61.08-1.91-.82-5.34.11-7.4.04-1.23-.05-2.46-.2-3.69-.23-.42-.01-3.83-.35-2.52.1l4.41,2.57c-1.7-1.45-3.01-3.31-4.98-4.46-3.16-1.85-6.48-1.63-9.93-1.02-2.02.35-4.07.68-6.09,1.05-1.61.29-3.15.66-4.6,1.47-1.07.6-5.03,3.42-1.4,1.63,2.85-1.41-.05-.5-1.46-.53-.6-.01-2.5-.48-2.97-.22,3.21,1.82,4.16,2.18,2.85,1.07-.44-.42-.91-.8-1.41-1.14-1.29-1.01-2.59-1.85-4.18-2.33-5.59-1.69-10.06,1.72-14.74,3.04-12.37,3.47-7.12,22.78,5.32,19.29h0Z"/>
  <path d="M430.39,684.67c-2.35,1.36-6.13,2.91-8.23,6.36-1.55,2.54-2.74,5.33-4.25,7.91l3.59-3.59c1.19-.29,1.14-.28-.16,0-.66.09-1.3.27-1.91.53-1.86.64-3.63,1.68-5.05,3.07-2,1.96-2.32,4.3-3.47,6.7,1.4-2.92-1.72,2.09-1.85,2.29-2.44,3.59-3.84,7.86-4.24,12.16-.33,3.61-1.18,7.82-.22,11.41.77,2.89.43,5.86,1.49,9.06.39.83.74,1.68,1.06,2.53.04.18.07.19.09.03.05,1.32.28,2.6.69,3.84-.01-3.23-.17-3.13-.47.31-.31,9.83,8.87,11.99,15.78,14.88l-4.41-2.57c-3.4-3.86.39,1.8,1.11,2.76,1.14,1.5,2.49,2.56,4.13,3.52,3.6,2.12,7.8,3.75,12.01,2.63.75-.23,1.47-.51,2.18-.84,1.88-.71,1.58-.72-.92-.05.14-.17,3.89-.31,4.28-.31.92.09,1.84.18,2.77.27l-1.86-.61c1.44.98,2.93,1.74,4.64,2.19,7.24,1.87,13.49-.67,20.04-3.23,3.04-1.19,6.38-2.03,9.19-3.76,1.6-.98,3.15-2.49,4.13-4.12.48-1.07.94-2.15,1.39-3.24.62-1.74.26-1.42-1.08.96l-4.41,2.57c1.44-.34,5.37-.45,7.73-1.89.91-.62,1.79-1.28,2.64-1.99l-4.28.87c-.51.9,6.75.02,6.38.11,6.72-1.56,7.48-6.64,9.33-12.11l-2.57,4.41.42-.5-4.41,2.57c3.55-1.31,7.9-1.67,11.15-3.64.44-.27,5.64-5.09,4.98-5.4-3.41,2.05-3.48,2.29-.21.73.55-.16,1.06-.41,1.52-.75,2.92-1.47,6.64-3.53,9.12-7.13,1.17-1.7,2.44-3.83,2.99-5.83.26-1.25.39-2.51.39-3.78-.07-1.43-.09-1.63-.05-.58l-2.57,4.41c3.38-3.05,7.43-6.73,10.04-11.95,5.75-11.48-11.5-21.62-17.27-10.09-.64,1.2-1.2,2.45-1.68,3.72.66-1.03.41-.91-.75.36-1.25.95-1.93,1.49-3.68,3.09-3.81,3.47-3.92,7.43-4.08,12.16l1.37-5.05c-.7,1.63-1.81,3.21-2.87,4.63l3.59-3.59c-1.49.97-5.28,2.49-7.23,3.54s-3.26,2.33-4.51,3.98c-.54.62-1.01,1.3-1.39,2.03,2.93-1.87,3.32-2.51,1.17-1.92-3.32.49-8,2.51-10.19,4.85-2.52,2.7-2.45,5.66-3.59,8.84l2.57-4.41-.45.5,4.41-2.57c3.12-.02,2.98-.18-.43-.47-1.25-.21-2.5-.13-3.74.25-.35.08-7.05,2.74-6.51,3.62,2.81-.71,3.18-1.02,1.1-.92-1.28.08-2.54.29-3.78.63-1.96.61-3.55,1.63-4.94,3.12-.38.4-4.08,5.92-3.24,6.3,2.74-2.87,2.98-3.65.71-2.34-.59.13-1.17.3-1.74.51-2.14.8-4.3,2.17-6.45,2.83-.61.19-2.36-.06-2.91.23-1.39-.23-1.06-.03,1,.62-.58-.42-1.18-.8-1.82-1.14-2.43-1.29-4.65-1.36-7.33-1.6-3.57-.33-7.66-.35-11.11.66-8.57,2.5,4.78-1.69,3.32,3.33.42-1.44-2.78-5.32-3.62-6.11-2.62-2.49-8.14-3.65-10.27-5.14l4.6,5.98c-.13,3.48-.02,3.46.34-.06.2-1.24.12-2.47-.26-3.69-.19-1.18-.43-2.93-.9-4.6-.49-1.26-1.01-2.52-1.55-3.76.32,1.36.44,1.18.36-.53.3-2.01-.46-3.88-.77-5.79-.17-1.03-.25-5.62.72-8.05.63-1.59,2.2-2.75,3.08-4.17.58-1.12,1.09-2.26,1.53-3.44.63-1.77.4-1.63-.69.42l-4.41,2.57c4.51-1.58,8.15-2.22,10.84-6.82.94-1.61,2.05-3.38,2.78-5.09.37-.88,1.73-2.58-.21-.72-2.4,2.31,1.6-.17,2.33-.59,11.13-6.45,1.07-23.74-10.09-17.27h0Z"/>
  <path d="M478.12,689.74c-1.33,1.12-2.04,2.59-3.2,3.83,1.08-1.17,1-1.21-.26-.13-1.73,1.12-1.28,1.18,1.34.18-.91.68-3.33.3-4.43.62-1.78.5-3.33,1.4-4.9,2.33-2.67,1.59-5.85,2.46-8.12,4.65-1.5,1.44-2.46,3.21-3.17,5.14-.21.55-1.54,2.72-.61,1.5l3.59-3.59c-2.12,1.5-4.21,3.02-6.24,4.64-.95.76-2.74,1.75-.69.79-1.16.54-2.48.76-3.61,1.4-4.66,2.62-6.38,7.68-8.32,11.83-.45.97-.95,1.87-1.34,2.87-.78,1.99-1.66,2.5.34.95-1.99,1.55-3.57,3.21-4.62,5.58-.61,1.36-.82,2.51-1.11,3.95-.47,2.32.45-.12-.96,1.84-1.63,2.25-2.39,5.27-3.41,7.84-2,5.02,2.19,10.98,6.98,12.3,5.7,1.57,10.29-1.95,12.3-6.98.72-1.79,1.65-3.23,2.59-4.93,1.36-2.47,1.62-4.93,2.39-7.51l-2.57,4.41c.98-1.21,2.25-2.05,3.3-3.2,1.86-2.03,2.31-4.13,3.28-6.61.44-1.11,3.15-6.89,3.88-8.04l-3.59,3.59c.61-.4,3.18-1.21,4.44-2,1.87-1.17,3.44-2.86,5.23-4.17,4.51-3.3,6.13-6.09,8.07-11.15l-2.57,4.41-1.02.6,2.39-1.01c.74-.35,2.73-1.11,3.31-1.84.96-1.2-1.31-.17-.14-.26,1.5-.11,2.97-.3,4.41-.74,4.79-1.5,8.09-6.31,11.24-8.96,4.13-3.48,3.59-10.55,0-14.14-4.09-4.09-10-3.49-14.14,0h0Z"/>
</svg>