<?xml version="1.0" encoding="UTF-8"?>
<svg id="_素材配置" data-name="素材配置" xmlns="http://www.w3.org/2000/svg" viewBox="0 0 1000 1000">
  <path d="M436.62,746.52c2.25.99,4.51,1.42,6.74,2.3l-4.41-2.57c-1.44-1.48,2.31,3.74,2.03,3.46,1.17,1.2,2.54,2.06,3.99,2.86,2.76,1.52,5.2,3.67,8.68,5.07s6.74,1.53,10.21,2.21c1.9.37,3.47,1.08,5.49,1.17,1.27.1,2.53-.01,3.78-.32,1.29-.29,1.56-.34.82-.17l-5.05-1.37-1.28-1.35,1.56,2.02c.82.88,1.75,1.76,2.78,2.38,2.05,1.21,4.58,1.89,6.88,2.38,2.77.59,5.38.58,7.99-.51,1.24-.52,1.92-.97,2.98-1.78,2.13-1.61,2.45-.95-.3-.25h-5.32c4.34.64,8.6,2.18,12.99,2.09,2.25-.05,4.56-.26,6.69-.95.42-.14,3.35-1.06,3.4-1.71-.03.31-6.27-.06-.81.57,4.2.49,9.19-.43,13.26-1.61,2.63-.77,4.82-2.14,6.52-4.25.84-1.04,1.22-1.82,1.76-3.04.25-.56.48-1.13.71-1.7.51-1.21.21-.7-.9,1.53l-4.41,2.57c.9-.34,1.8-.69,2.71-1.02.07-.02,2.05-.74.98-.5,2.76-.64,4.78-.63,7.51-1.77,2.31-.96,4.44-1.8,6.23-3.61.82-.82,1.53-1.83,2.09-2.83.7-1.24,2.91-4.42.05-1.16l-4.41,2.57c2.43-.79,6-1.1,9.06-3.02s5.53-4.37,7.98-7.08c1.22-1.34,2.47-2.78,3.51-4.25.02-.03,2.55-3.67,1.14-2.05,1.12-.75,2.15-1.62,3.09-2.58l-1.81,1.17c-.06.28,5.82-3.47,5.99-3.62,9.59-8.63-4.59-22.73-14.14-14.14,2.28-1.27,2.5-1.48.66-.63-.72.28-1.42.59-2.11.94-1.39.82-1.91,1.62-2.98,2.49-2.72,2.22-4.18,4.39-6.24,7.13-1.33,1.77-3.38,3.09-4.53,4.98l-1.31.74c1.65-.12,1.91-.15.78-.1-2.03.17-3.76.39-5.6,1.24-1.49.69-2.71,1.54-3.82,2.76.2-.22-3.93,5.35-3,5.38l2.83-3.14c-2.87,1.11-3.2,1.31-.97.58-1.44.28-2.96.1-4.41.51-3,.85-6.73,2.14-9,4.28-1.05.99-1.93,2.11-2.63,3.38l-1.01,2.39c-.73,1.73-.5,1.38.68-1.07l4.41-2.57c-1.56.41-3.14.78-4.73,1.04-3.17.32-3.55.43-1.13.34l-1.18-.27c-2.53-.68-5.08-.42-7.5.41-1.27.33-2.4.91-3.4,1.73,1.74-.14,1.99-.18.74-.1-1.12-.32-2.74-.36-4.05-.62-1.76-.35-3.88-.77-5.7-.89-2.57-.18-4.82.11-7.13,1.38-.98.63-1.91,1.32-2.8,2.08-1.44,1.16-1,.96,1.32-.58h5.32c-.34-.07-2.79-.88-2.94-.76,2.39,2.46,2.86,2.81,1.41,1.05-.35-.51-.74-.98-1.16-1.43-2.18-2.22-5.11-3.71-8.27-3.79-1.26-.03-2.55.12-3.78.37-2.47.48,1.07.89-.27-.12-2.06-1.54-5.56-.73-7.88-1.04-.26-.03-1.31-.69-1.65-.84,1.16.5,1.41.95.34-.15s-2.34-1.81-3.63-2.5c-.34-.18-3.29-1.58-1.44-.25,1.58,1.14.09-.5-.34-1.21-.58-.96-1.39-1.9-2.2-2.68-1.83-1.77-5.6-2.51-6.38-2.85-4.94-2.17-10.74-1.44-13.68,3.59-2.48,4.25-1.38,11.49,3.59,13.68h0Z"/>
  <path d="M472.24,748.44c-.29.82,2.1-3.74,1.88-3.08.59-1.79.72-3.27.59-5.15-.16-2.36-.78-4.38-.51-6.78.3-2.68,2.07-4.85,2.56-7.51.54-2.95-1.54.9.57-.91,1.13-.97,2-2.65,2.88-3.85l-3.59,3.59c1.16-.59,2.55-1.47,3.78-1.78h-5.32l1.3.32-4.41-2.57c-.91-.85.71,1.42.82,1.59,1.05,1.62,2.62,3.31,4.3,4.29,1.79,1.04,3.98,1.55,6,1.69.55.04,3.14.63,1.73.11l-4.41-2.57c-.89-.95.14.84.33,1.23.59,1.18,1.57,2.32,2.48,3.27,1.86,1.93,4.42,4.34,6.85,5.32,3.03,1.22,6.74,1.28,9.63-.44s-3.95.85.09-.1c2.29-.54,3.92-1.04,5.74-2.75,3.08-2.88,4.52-5.76,7.92-8.21,1.41-1.02,3.41-2.11,4.9-3.62,1.75-1.78,2.67-4.97,3.63-6.52l-3.59,3.59c2.17-1.46,5.22-2.27,7.33-4.77.75-.89,1.2-1.63,1.72-2.64l1.01-2.39c.73-1.69.49-1.4-.72.86l-4.41,2.57.7-.26h-5.32c.26.04,4.27,4.08,5.29,5.13l-2.57-4.41c.09-1.01.1-.81.01.62.01,1.28.15,2.55.4,3.81.49,1.95,1.47,3.92,2.91,5.34,2.54,2.52,5.7,3.04,8.84,4.31l-4.41-2.57.61.54-2.57-4.41c.8,2.26,1.12,5.98,2.96,8.66l1.56,2.02c-.5-4.86-.87-5.29-1.12-1.31-.1,1.62.09,3.14.38,4.76.98,5.31,7.42,8.33,12.3,6.98,5.59-1.53,7.96-6.97,6.98-12.3.83,4.5.72-.46.73-1.76,0-1.14-.25-2.5-.56-3.61,0-.02-2.9-6.24-3.49-5.7l.42,2.09c-.05-.9-.15-1.79-.29-2.67-1.24-7.16-6-8.9-11.98-11.21l4.41,2.57-.63-.52,2.57,4.41c-.04.99-.04.77.02-.65-.03-1.28-.17-2.54-.41-3.8-.61-2.39-1.99-4.5-3.76-6.18-2.55-2.42-5.15-5.33-8.1-7.24-4.08-2.63-9.21-3.47-13.58-.91-3.49,2.04-5.1,7-6.38,8.77l3.59-3.59c-2.73,1.73-6.01,2.53-8.11,5.78-.75,1.17-1.82,2.65-1.85,4.02-.56,1.46-.11.89,1.34-1.72-.77.37-1.47.84-2.1,1.41-1.96,1.46-3.86,2.86-5.74,4.64-1.16,1.09-2.26,2.34-3.28,3.55-.41.48-3.43,3.81-1.69,2.42,2.36-.98,4.71-1.95,7.07-2.93-3.39.22-5.85,1.17-8.86,2.65l5.05-1.37-.73-.07,7.07,2.93c-.66-.59-3.68-3.63-3.24-2.96-1.02-1.53-1.46-3-2.87-4.42-1.58-1.59-3.51-2.74-5.69-3.29-1.25-.23-2.51-.37-3.78-.43-1.38.04-1.59.04-.62,0l4.41,2.57c.92.91-.75-1.53-.8-1.61-.89-1.37-1.99-2.53-3.31-3.49-3.31-2.41-7.46-2.97-11.37-1.77-5.51,1.69-10.15,5.73-13.23,9.46-1.86,2.25-2.22,4.66-2.98,7.3s-2.23,5.16-2.76,8.05-.82,5.59-.63,8.45c.06.93.16,1.86.31,2.78.17,2.23.37,1.77.62-1.38.06.08-1.9,3.81-2.13,4.45-1.82,5.09,2.05,10.95,6.98,12.3,5.54,1.52,10.48-1.88,12.3-6.98h0Z"/>
  <path d="M455.47,753.77c.84,6.51,1.63,11.23,5.36,16.84,1.53,2.31,2.5,4.82,4.54,6.79,1.42,1.38,2.95,2.18,4.76,2.85.54.2,2.67,1.49,1.26.51l-3.59-3.59c1.57,2.76,2.56,6.34,6.42,8.42,3.29,1.78,5.88,2.33,9.7,3.75l-4.41-2.57c-.73-.68-.28-.34.11.35.8,1.42,1.91,2.57,3.12,3.61,1.71,1.48,2.14,2.57,4.36,3.97,5.32,3.36,9.82,1.45,15.07-.78l-5.05,1.37c1.64-.17,4.34,1.27,7,1.84,3.57.76,7.4-.15,10.78-1.38,2.2-.8,19.08-10.24,17.87-11.73.11.13-4.07,2.07-.1.72,1.85-.63,3.77-1.73,5.18-3.13,3.03-3.03,4.08-6.72,6.16-10.25,1.59-2.71,3.67-4.99,5.04-7.88,1.95-4.1,1.25-7.62.51-11.92v5.32c-.03.21,1.88-3.28.95-2.07,1.44-1.88,3.12-3.17,4-5.52.59-1.58,1.85-6.75.36-8.3-.2-1.11-.31-.82-.33.87-.39,1.65-.34,1.96.16.92.88-.52,1.39-3.2,1.61-4.11,2.93-12.52-16.35-17.86-19.29-5.32-.35,1.52-1.93,3.84-2.21,5.92-.26,1.94.57,5.24.56,6.18l1.37-5.05c.85-1.67-2.81,3.27-2.66,3.04-.84,1.31-1.57,2.75-2.3,4.13-2.3,4.31-1.59,8.03-.85,12.61v-5.32c-.31,1.88-3,4.44-4.19,6.42-1.68,2.79-2.63,5.56-4.6,8.23l3.59-3.59c.98-.72-.47.09-1.04.3-1.29.47-2.57.93-3.73,1.67-1.51.96-2.81,2.27-3.78,3.78-1.01,1.15-1.07,1.32-.17.52,1.32-.97.73-.79-1.78.52-4.68,2.17-6.38,4.42-11.11,5.16h5.32c-2.31-.34-5.27-1.55-8.02-2.13-1.97-.42-3.67-.6-5.63-.24-1.33.06-2.57.46-3.72,1.19-1.69.64-1.35.64,1.04.01l5.05,1.37c-.85-.53-2.95-2.74-4.31-3.79l3.59,3.59c-2.04-3.02-3.53-5.59-7-7.27-1.95-.95-6.21-2.29-7.05-2.82l3.59,3.59c-.9-1.36-2.27-5.2-4.47-7.05-2.09-1.75-4.58-2.34-7.05-3.31l4.41,2.57c-2.11-1.7-3.97-6.58-4.38-9.77-.69-5.35-4.1-10-10-10-4.86,0-10.7,4.61-10,10h0Z"/>
</svg>