<?xml version="1.0" encoding="UTF-8"?>
<svg id="base" xmlns="http://www.w3.org/2000/svg" viewBox="0 0 1000 1000">
  <path d="M387.96,705.93c.95,1.74,1.4,4.61,3.34,6.55,1.82,1.82,4.92,2.5,6.55,3.46l-3.59-3.59c-.63-2.38-.78-2.58-.43-.6.09.81.21,1.62.38,2.42.49,1.76,1.74,3.94,3.04,5.23,1.37,1.37,3.4,2.47,5.23,3.03l1.03.22c3.35.57,3.54.5.58-.21l-3.59-3.59c-.83-1.16.35.76.56,1.31.72,1.94,1.63,3.66,3.13,5.16,1.08,1.08,2.6,2.1,3.93,2.83,1.01.62.9.5-.33-.35.34.78.8,1.48,1.37,2.11,4,5.45,10.4,5.31,15.3,7.02l-4.41-2.57.51.6-2.57-4.41c1.56,4.05,2.71,7.24,5.93,10.34,1.82,1.75,3.62,3.41,6.11,4.18,1.34.41,2.75.56,4.13.54,1.58-.02,5.27.41,1.12-.52l-4.41-2.57c.53.45,2.21,2.48,3.3,3.46,2.66,2.39,5.43,2.84,8.8,3.28,1.73.23-1.79-1.22-.04,0,.48.34,1.75.76,1.97.9,1.86,1.18,3.72,3.03,6.2,3.95,3.31,1.22,6.33,2.04,9.35,3.72,5.6,3.11,9.96,1.26,15.25-1.07l-5.05,1.37.95-.09-5.05-1.37c3.16,1.34,5.57,3.59,9.23,3.66,2.12.04,4.08-.57,5.97-1.47.56-.26,2.93-.79,1.47-.59h-5.32c1.74.59,4.23,2.38,6.99,2.38,2.42,0,5.77-1.42,7.22-1.69h-5.32l.91.31-4.41-2.57c4.4,3.5,7.62,6.02,13.58,5.11,5.19-.8,8.2-2.56,12.3-5.76l-4.41,2.57.89-.35h-5.32c-1.13-.21,3.99,2.06,4.05,2.08,1.98.58,4.28.7,6.27.15,1.8-.5,3.78-1.66,5.12-2.94.79-.87,1.52-1.79,2.2-2.76,1.08-1.48.73-1.28-1.04.6l-5.05,1.37c1.05-.01,2.11.2,3.19.23.45.01,2.38.03.91-.18,2.45.35,4.47,1.19,7.06.73,5.37-.95,7.29-4.68,10.01-8.81l-3.59,3.59.65-.49-5.05,1.37c-.99.03-3.23-1.21-1.22-.05.98.57,2.23,1.04,3.34,1.33,3.31.87,6.78.08,9.53-1.84,1.69-1.19,3-2.73,3.91-4.59.24-.49,1.36-2.38.05-.72-1.47,1.86.52-.17.53-.17h-5.32c3.79.7,7.24,1.64,11,.07,1.95-.81,3.43-2.09,4.68-3.76.56-.59.98-1.25,1.27-2,1.37-2.91,1.38-3.17.01-.78l-4.41,2.57c-2.42-.04-2.64.04-.65.23.82.14,1.65.23,2.48.26,1.89-.02,4.34-.67,5.98-1.63,2.31-1.35,4.15-4.03,5.51-5.73.81-1,1.62-2.68,2.65-3.47-2.6,1.98,1.88-.4,2.03-.5,3.05-1.97,4.05-5.01,6.11-7.71l-3.59,3.59.87-.41-5.05,1.37c4.75-.59,8.39-1.38,12.4-4.05,5.23-3.49,5.94-7.89,6.64-13.78l-1.37,5.05c.37-.76,3.26-2.89,3.93-3.93.82-1.27,1.63-3.73,1.99-4.36l-3.59,3.59c-2.42.56-2.96.78-1.63.66,1.09-.05,2.16-.18,3.23-.39,1.16-.27,2.33-.6,3.38-1.2,3.03-1.74,4.91-4.47,5.75-7.81.09-.62.18-1.24.25-1.86.45-2.33.07-1.82-1.13,1.51.25.16,2.72-3.08,2.88-3.3,1.87-2.72,2.18-6.02,3.01-8.16,1.95-5.04-2.15-10.97-6.98-12.3-5.65-1.55-10.34,1.93-12.3,6.98-.64,1.66-.62,3.28-1.22,4.76l2.57-4.41c-1.65,1.95-3.61,3.67-4.87,5.92-.57,1.03-.99,2.24-1.27,3.36-.33,1.33-1.6,5.36.32,1.19l3.59-3.59c2.44-.54,2.99-.76,1.65-.64-1.09.04-2.16.17-3.23.39-1.17.27-2.33.59-3.39,1.19-3.63,2.07-4.07,4.81-6.08,8.01-.81,1.29,2.12-1.82-.99.35-1.24.87-2.2,2.22-2.93,3.5-1.64,2.89-1.51,5.89-1.9,9.05l1.37-5.05c1.57-1.54,1.62-1.8.12-.79-.53.49-1.13.87-1.8,1.14l5.05-1.37c-3.1.41-6.1.3-8.93,1.91-1.73.98-2.93,2.18-4.02,3.79-.26.38-2.52,3.4-.27,1.34-.98.9-2.72,1.31-3.83,2.18-1.38,1.08-2.29,2.31-3.38,3.66-1.01,1.26-2.59,3.56-3.68,4.62l4.41-2.57c2.45.07,2.67,0,.68-.2-.82-.13-1.65-.23-2.49-.27-1.88.02-4.36.65-5.99,1.61s-3.25,2.68-4.25,4.29l-.49,1c-1.36,2.92-1.37,3.17-.04.75l4.41-2.57-.95.18h5.32c-5.43-.95-9.28-1.49-14.13,1.7-1.96,1.29-3.88,2.51-5.36,4.35-.63.79-1.02,1.45-1.48,2.32s-1.32,1.63-.19.73l7.07-2.93c2.58.84,2.99.87,1.24.09-1.09-.52-2.2-.97-3.35-1.34-2.43-.6-5.03-.47-7.33.53-3.91,1.7-5.27,4.89-7.47,8.16l3.59-3.59-.66.46,5.05-1.37c2.04-.12-4.4-.84-4.12-.82-1.83-.14-3.84-.23-5.71-.14-2.95.15-5.64,1.28-7.78,3.33-.78.89-1.51,1.81-2.2,2.77-1.08,1.5-.73,1.28,1.03-.65l7.71-1.01c1.18.18-3.91-2-4.05-2.04-2-.6-4.26-.74-6.28-.18-1.86.52-3.97,1.55-5.31,2.92-1.42,1.01-1.11.95.95-.17-1.98.13-2.06.31-.24.53l4.41,2.57c-2.57-1.99-4.77-4.3-8.04-5.17-3.68-.98-6.8.87-9.88,1.33h5.32c-2.25-.68-4.92-2.47-8.32-2.2-2.83.23-5.07,1.64-7.58,2.78l5.05-1.37c2.11.66,2.62.65,1.51-.02-.46-.38-.99-.65-1.58-.81-1.8-.89-3.47-1.35-5.52-1.32-3.23.04-5.81,1.67-8.67,2.88l5.05-1.37-.95.06,5.05,1.37c-2.53-1.11-4.54-2.64-7.22-3.6-1.19-.43-2.4-.83-3.6-1.22-.64-.21-4.4-1.93-1.82-.23-2.32-1.53-4.04-3.12-6.61-4.31-2.69-1.24-6.7-1.91-8.45-2.41l4.41,2.57c-2.24-1.82-3.51-4.23-6.52-5.52-1.56-.67-3.02-1.03-4.78-1.07l-1.12.11c-3.36.3-3.55.44-.55.44l4.41,2.57c-1.37-1.1-2.73-2.51-3.9-3.83l2.57,4.41c-1.15-2.89-1.5-5.69-3.74-8.11-1.9-2.07-6.3-4.67-9.35-3.96-1.19-.12-.88,0,.93.32l-2.39-1.01c-2.86-.54,1.83,3.06.58.43-1.57-3.3-5.34-5-8.16-6.99l3.59,3.59c.81,1.09-.33-.64-.57-1.3-.72-1.94-1.63-3.68-3.11-5.17-1.37-1.37-3.41-2.46-5.24-3.01l-1.04-.21c-3.35-.56-3.54-.5-.56.19l3.59,3.59c.61,2.4.75,2.6.41.62-.09-.81-.22-1.62-.37-2.43-.43-1.52-1.26-3.01-2.24-4.23-2.09-2.6-5.12-3.12-7.34-4.47l3.59,3.59c-.4-.7-1.04-3.18-1.78-4.52-6.17-11.3-23.45-1.22-17.27,10.09h0Z"/>
</svg>