<?xml version="1.0" encoding="UTF-8"?>
<svg id="_レイヤー_2" data-name="レイヤー 2" xmlns="http://www.w3.org/2000/svg" viewBox="0 0 1000 1000">
  <path d="M491.16,737.1c20.96,5.47,44.03,1.52,61.49-11.48,4.33-3.22,6.53-8.65,3.59-13.68-2.49-4.26-9.32-6.83-13.68-3.59-13.34,9.93-29.88,13.69-46.08,9.46-12.46-3.25-17.78,16.03-5.32,19.29h0Z"/>
  <path d="M564.25,701.08c3.7,3.58,6.65,8.45,7.26,13.32.68,5.36,4.11,10,10,10,4.88,0,10.68-4.6,10-10-1.33-10.57-5.38-19.96-13.12-27.46-9.25-8.96-23.41,5.17-14.14,14.14h0Z"/>
</svg>