<?xml version="1.0" encoding="UTF-8"?>
<svg id="_レイヤー_2" data-name="レイヤー 2" xmlns="http://www.w3.org/2000/svg" viewBox="0 0 1000 1000">
  <path d="M385.27,704.66c56.98-5.82,114.39,2.27,167.56,23.57,5.02,2.01,10.98-2.19,12.3-6.98,1.57-5.7-1.95-10.28-6.98-12.3-54.56-21.86-114.4-30.25-172.88-24.28-5.37.55-10,4.2-10,10,0,4.98,4.59,10.55,10,10h0Z"/>
  <path d="M427.86,685.68c-4.67,4.44-8.52,9.81-12.38,14.94-4.45,5.92-8.42,11.87-10.38,19.11-4.08,15.11-.08,31.75,12.83,41.13,25.5,18.53,58.82,1.71,81.46-13.44,12.35-8.27,22.26-18.63,30.24-31.16,6.93-10.89-10.37-20.93-17.27-10.09-6.48,10.18-14.64,18.56-24.78,25.11-11.37,7.35-24.61,15.51-38.22,17.39-5.91.82-12.23.13-17.54-2.66-5.69-2.98-8.23-7.85-8.25-14.27-.02-6.55,2.45-11.83,6.24-17.05,3.74-5.16,7.57-10.48,12.2-14.88,9.35-8.88-4.8-23.01-14.14-14.14h0Z"/>
  <path d="M481,689.91c-12.17,6.1-24.2,13.22-33.75,23.07-9.08,9.37-15.03,20.59-20.03,32.52-2.09,4.98,2.25,11,6.98,12.3,5.77,1.58,10.21-1.98,12.3-6.98,3.91-9.33,8.84-17.67,15.71-24.53,8.22-8.21,18.51-13.9,28.87-19.1,11.51-5.77,1.39-23.03-10.09-17.27h0Z"/>
</svg>