<?xml version="1.0" encoding="UTF-8"?>
<svg id="_レイヤー_2" data-name="レイヤー 2" xmlns="http://www.w3.org/2000/svg" viewBox="0 0 1000 1000">
  <path d="M487.58,763.65c-10.25.13-20.65-1.59-29.89-6.2-8.76-4.37-18.2-11.4-21.83-20.86-1.26-3.29-1.73-7.78.5-10.81s6.66-3.35,10.17-3.1c5.52.4,10.87,2.65,16.09,4.32,6.34,2.03,12.83,3.41,19.52,3.48,13.41.14,26.27-4.35,38.97-8.07,7.77-2.28,22.82-7.46,28.79,1.3,1.71,2.5,1.5,4.91,1.02,8.82-.19,1.53-.69,3.07-1.17,4.6-.41,1.31,1.13-2.29.15-.4-.35.66-.65,1.35-.99,2.01-.52.99-1.07,1.95-1.66,2.9-.31.49-2.18,3.17-1.43,2.17s-1.42,1.66-1.85,2.13c-1.08,1.17-2.23,2.28-3.43,3.33-.53.46-1.06.91-1.61,1.35,1.65-1.31-.42.28-.8.53-1.58,1.04-3.17,2.06-4.83,2.97-3.99,2.19-6.18,3.06-10.76,4.5-11.34,3.56-23.1,4.72-34.93,5.05-12.84.35-12.9,20.36,0,20,22.94-.63,47.49-4.2,65.79-19.17,13.39-10.95,22.96-31.29,15.18-48.15-6.58-14.26-23.07-18.65-37.47-16.7-15.68,2.13-30.3,10.12-46.2,10.79-14.83.62-27.84-8.92-42.79-7.69s-27.52,12.91-27.25,29.03c.29,16.83,13.24,30.88,26.66,39.5,13.59,8.72,30.03,12.6,46.07,12.4,12.86-.17,12.9-20.17,0-20Z"/>
</svg>