<?xml version="1.0" encoding="UTF-8"?>
<svg id="_レイヤー_2" data-name="レイヤー 2" xmlns="http://www.w3.org/2000/svg" viewBox="0 0 1000 1000">
  <path d="M404.33,703.31c1-.09,1.99-.11,2.99-.08-1.62-.9-1.63-.96-.03-.17,3.01,1.1,5.54,1.97,8.85,1.19s6.29-2.82,8.59-3.49h-5.32c-1.26-.24.48.44.94.69,1.22.67,2.45,1.16,3.79,1.47,3.14.71,6.66.8,9.84.34,2.18-.31,4.32-.5,6.33-1.46,2.65-1.26,3.87-3.01,5.93-4.86l-4.41,2.57.72-.29h-5.32c1.38.21,4.92,1.64,7.28,1.73,2.57.09,5.76-.22,8.21-.96,1.18-.36,2.28-1.24,3.46-1.54-3.24.81.08.57.86.56,2.73-.02,5.78.07,8.42-.65.4-.11,4.07-1.38,4.02-1.69.12.71-4.91.5.16,1.1,2.11.25,4.24.4,6.36.65,3.53.42,6.73.72,9.93-1.16,1.9-1.11,3.18-2.88,4.84-4.26l-4.41,2.57.73-.26h-5.32c-1.89-.38,3.96,1.89,3.69,1.82,1.64.46,3.37.46,5.05.55,2.09.11,4.02.2,6.08-.38.83-.23,5.49-2.05,5.72-3.31-.89,4.95-4.9-.42-1.18.78,1.83.59,2.72.55,4.03.97,2.19.7,3.72,1.57,6.17,1.57s4.76-.83,7.09-1.18h-5.32c3.61.57,6.87,1.81,10.55.69,3.22-.98,4.92-3.39,7.3-5.45l-4.41,2.57.74-.26h-5.32c1.42.37,3.75,1.91,5.85,2.12,2.92.29,5.58-.62,8.43-1.07h-5.32c3.97.61,7.22,1.3,11.28.78,2.28-.29,6.12-1.54,7.42-1.81h-5.32c3.43.49,6.81,1.62,10.27,1.86,2.19.15,4.08-.05,6.07-.96,1.13-.52,7.14-3.32,2.38-1.86h-5.32c1.54.34,2.92.93,4.47,1.26-.19-.04,7.21.69,6.81-.11-.26-.51-6.58-2.63-2.19.37,1.78,1.22,3.5,1.96,5.62,2.26,2.87.41,6.42.28,9.2-.55,3.2-.96,5-3.42,7.44-5.41l-4.41,2.57.75-.24h-5.32c3.58,1.13,6.72,4.24,11.5,4.24,2.46,0,4.84-.95,6.86-2.26l2.02-1.56c-1.98.81-2.29,1.08-.94.81,1.13.06,2.63-.57,3.75-.73h-5.32c2.28.57,5.37,2.64,8.25,3.43,4.71,1.3,7.25-1,11.34-1.73-4.1-4.1-8.2-8.2-12.3-12.3-.16,1.06-1.18,4.44-.64,5.35,3.03-3.79,3.5-4.79,1.41-3-.63.47-1.25.96-1.84,1.48-2.68,2.72-3.05,5.87-3.67,9.46-.41,2.38-.88,3.93-1.87,6.1-1.51,3.32-.94,7.6-1.16,9.8l1.37-5.05-.56.73,3.59-3.59c-3.45,2.24-6.88,4.11-8.07,8.45-.52,1.87-.5,4.22-.04,6.1.33,1.14.77,2.24,1.3,3.3.76,1.75.68,1.28-.23-1.41l2.93-7.07c2.38-1.25,2.69-1.55.94-.88-.96.36-1.9.77-2.83,1.22-1.84,1.04-3.47,2.52-4.56,4.36-1.52,2.57-3.72,7.18-3.31,10.19-.07,1.73.18,1.74.74.03-.34.94-.73,1.85-1.18,2.74-.51.94-3.2,3.34-.78,1.5-1.31.99-2.78,1.72-3.95,2.92-.91,1.01-1.68,2.1-2.32,3.29-1.03,1.61-.91,1.77.35.47,1.75-1.3,1.3-1.25-1.37.15-1.01.71-1.99,1.45-2.94,2.22-1.08.96-2.12,2.1-3.11,3.14-2.33,2.45-6.14,5.7-6.45,9.26-.5,1.31-.2.85.89-1.36-1.09.8-2.17,1.63-3.23,2.47-.3.26-3.29,2.79-1.75,1.78-1.96,1.28-4.02,1.58-5.8,3.22-1.15,1.06-2.4,3.11-3.09,3.74l4.41-2.57c-4.14,1.44-6.94,2.58-10.68,4.94l5.05-1.37c1.56-.18.47-.08-.56-.42-1.31-.44-2.7-.8-4.09-.83-3.74-.07-5.96,1.65-8.85,3.57-.15.1-5,3.07-4.71,3.42.18.22,4.73-2.19-1.24-.68-1.58.4-3.01,1.09-4.5,1.78-4.05,1.89-7.2,2.62-11.64,2.61-2.75,0-5.32.23-8.05.62-2.29.33-5.88,1.67-7.23,1.98h5.32c-1.89-.47-4.6-2.03-7.19-2.3-2.08-.21-4.13-.41-6.19-.69-2.91-.4-5.7-.14-8.62-.3-1.41-.08-2.73-.19-4.12-.11-.81.05-4.73,1.34-3.14.87.99.14.98.12,0-.08-.74-.17-1.47-.34-2.21-.52-.88-.22-2.25-.45-2.96-.75-1.12-.49-2.79-1.64-3.32-2.02-2.21-1.56-4.28-3.1-6.66-4.42-1.36-.75-2.7-1.22-4.18-1.54-.78-.16-4.15,0-3.69.08l4.41,2.57c1.3,2.54,1.28,2.33-.06-.63l-.5-.97c-1.3-2.09-3.17-3.81-5.45-4.75-3.79-1.56-7.11-.58-10.92.08h5.32l-.92-.19,4.41,2.57c.75.82,1.27,2.57.75.66-.45-1.63-1.43-3.18-2.57-4.41-1.94-2.09-4-2.84-6.59-3.95-3.13-1.34-6.53-2.55-8.65-3.9l3.59,3.59c-.79-1.13-2.12-4.63-3.75-6.27-1.86-1.86-4.38-2.55-6.15-3.84l3.59,3.59c-1.92-2.5-3.83-4.91-5.84-7.32-.61-.73-.86-1.59-1.43-2.31.18,1.56.24,1.79.17.69-.03-1.11-.16-2.21-.38-3.31-.62-2.6-2.2-5.05-3.72-7.23-1.23-1.75-2.42-3.11-4.25-4.25l-.98-.5c-2.95-1.34-3.18-1.36-.66-.07.98,2.36,1.95,4.71,2.93,7.07.09.66-1.61,3.99-.34,1.77.57-.99,1.11-2.2,1.43-3.28.78-2.64.8-5.44-.32-7.99-1.03-2.33-2.7-4.21-4.92-5.48-.97-.56-2.17-1.05-3.24-1.35-2.32-.65-.86-1.14.83.92l2.93,7.07c.1,1.43.21-.17.41-.93.31-1.16.5-2.45.49-3.65,0-1.87-.4-3.88-1.38-5.51l-.62-1.37c-.2,2.82-.11,3.5.29,2.04,1.63-2.29.35-7.41-.75-9.46s-2.65-3.49-4.11-5.18l2.57,4.41c-.46-1.1-.93-2.62-1.05-3.79.3,2.74.59-2.73.65-3.34.56-5.38-4.99-10-10-10-5.87,0-9.44,4.6-10,10-.4,3.88-.51,7.02.61,10.87.52,1.8,1.21,3.44,2.3,4.98.28.4,2.43,3.56,1.77,2.15l-1.37-5.05c.05-.91-.46.88-.48.92-.49,1.58-.45,3.52-.2,5.13.44,2.82,1.96,5.22,3.11,7.79l-1.37-5.05c-.06-2.16-.96,4.54-.95,4.13-.06,2.63.68,4.9,2.21,6.98,1.09,1.49,2.31,2.59,3.97,3.48,1.08.53,2.18.97,3.33,1.32,1.82.61,1.4.24-1.25-1.1l-2.93-7.07c-.06-.7,1.54-3.92.29-1.75-.63,1.09-1.2,2.47-1.53,3.68-.78,2.85-.53,6.19.98,8.77,1.39,2.38,3.81,4.35,6.38,5.27,3.31,1.19-1.74-2.27-.88-.61,1.09,2.11-.09-3.32.31.5.54,5.28,3.37,10.09,7.02,13.83,1.57,1.61,2.67,3.69,4.27,5.29s4.98,3.05,6.15,3.84l-3.59-3.59c.33.51,1.41,3.04,2.19,4.24,1.98,3.05,4.44,3.85,7.49,5.42.77.4,2.67,1.31,4.22,1.96,1.83.77-1.22-.53.99.38,1.09.45,3.89,2.66,2.08.55l-2.57-4.41c1.57,3.76,2.66,7.52,6.42,9.73s7.98,1.22,12.1.45h-5.32l.93.16-4.41-2.57c-1.11-2.12-1.27-2.29-.46-.52.28.75.61,1.46,1.01,2.15.82,1.35,1.97,2.52,3.25,3.43,1.44,1.03,2.8,1.61,4.53,1.99l2.66.36c1.48.07,1.69-.08.62-.45-1.71.06,1.17.69,1.91,1.19-.45-.3,3.52,2.69,2.77,2.21,1.6,1.02,3.3,2.05,4.99,2.89,5.58,2.79,12.21,3.81,18.25,2.96,3.39-.47,9.29-.03,13.66.46.45.05,4.23.73,2.31.14-1.74-.54,2.44,1.4,2.88,1.53,3.31.99,6.89.65,9.94-.98,1.34-.55,1.48-.66.43-.33-1.55.39-.89.34,1.98-.17.92-.08,1.65-.1,2.55-.12,2.74-.08,5.46.33,8.18-.02,2.92-.38,5.79-1.38,8.55-2.38,1.52-.55,3.06-1.04,4.51-1.79.65-.33,3.12-1.3,1.35-.78,2.66-.77,3.99-.26,6.52-1.64,1.1-.6,2.02-1.39,3.02-2.13,1.19-.88,3.74-2.77,4.58-3.26l-5.05,1.37c-1.48.13-.55.05.57.46,1.32.48,2.63.82,4.09.81,3.19-.03,5.58-1.37,8.13-3.05,1.7-1.12-.06-.34,2.14-.82,1.76-.38,3.42-1.27,4.85-2.3s2.54-2.11,3.43-3.59c1.57-2.57-.89.46-.89.46.26,1.01,7.64-5.06,7.99-5.37,2.17-1.92,4.66-3.33,6.28-5.81.7-1.07,1.2-2.12,1.68-3.33,1.36-3.37-1.08,1.05.46-.6.77-.82,1.96-1.73,2.55-2.69l1.04-1.03c-1.74.54-1.79.49-.15-.14,2.72-1.37,5.01-2.62,6.79-5.25.22-.33,2.19-3.78,1.01-2.1-1.26,1.79,3.26-2.27,2.63-1.69,3.62-3.39,6.53-8.78,7.79-13.56.4-1.5.43-2.99.37-4.52l-.67,1.28,1.01-2.39c-3.83,2.58-4.79,3.51-2.88,2.8.59-.18,1.16-.41,1.71-.68,1.51-.63,2.89-1.34,4.08-2.49,2.32-2.22,3.51-5.23,3.51-8.42,0-1.18-.3-2.44-.64-3.57-.38-.97-.79-1.93-1.24-2.88-.55-1.24-.4-.62.43,1.88-.98,2.36-1.95,4.71-2.93,7.07-.76.96,1.01-.61,1.45-.91,1.63-1.09,3.13-2.61,4.15-4.32,1.85-3.13.98-7.63,1.16-9.8l-1.37,5.05c1.07-2.36,2.41-4.61,3.11-7.12.33-1.17.55-2.41.76-3.61.3-1.67,2.13-6.41-.54-2.35-2.49,3.77.31.79,1.27-.15s1.8-1.98,2.44-3.16c1.35-2.49,1.2-5.16,1.59-7.78,1.16-7.84-4.27-13.72-12.3-12.3-1.97.35-3.65,1.55-5.48,1.88h5.32c-3.35-.95-6.93-3.95-11.46-3.95-2.24,0-4.98.61-7.16,1.19-1.32.35-2.57.87-3.74,1.58-.51.35-.99.71-1.47,1.1-1.56,1.11-1.33,1.07.68-.12h5.32c-2.92-.72-6.36-3.63-10.18-4.06-5.47-.62-8.35,2.7-12.17,5.83l4.41-2.57c1.3-.42-1.66-.21-.78.08l4.41,2.57c-1.95-1.5-3.64-3.21-5.88-4.25-2.98-1.39-6.9-.34-8.47-.69,1.11.25-1.53-.7-1.81-.77-1.98-.52-4.07-.68-6.06-.16-1.09.28-2.31.72-3.28,1.28-1.23.72-5.14,2.58-1.18,1.36h5.32c-6.01-.89-12.6-3.67-18.32-.2-.78.33-.74.33.11,0,1.52-.52.85-.49-1.99.1,2,.03-.59-.27-1.39-.43-3.82-.79-6.81.18-10.51.78h5.32c-3.32-.87-5.8-3.06-10.2-1.81-3.55,1.01-5.12,3.36-7.67,5.58l4.41-2.57-.74.27h5.32c-2.39-.38-4.7-1.31-7.15-1.31s-4.77.82-7.09,1.18h5.32c-2.78-.49-7.85-2.73-11.7-2.79-2.13-.03-5.09.34-7.11.83-1.18.29-5.72,1.93-6.16,3.44,3.53-1.05,4.03-1.54,1.49-1.46,2.01.91,2.28.93.79.04-1.88-1.3-4.59-2.05-6.88-2.05-4.72,0-7.35,3.15-10.61,5.89l4.41-2.57,1.58-.15c-1.13-.2-2.26-.34-3.41-.41-1.34-.15-2.24-.19-3.76-.4-2.43-.33-4.88-.9-7.36-.63-1.78.19-3.17.64-4.82,1.48-1.78.9-.59-.05.3.06-2.26-.3-5.17-.07-7.46.07-1.25.08-2.55.29-3.75.65.81-.25-5.11,1.63-2.76,1.32.94-.23.93-.29-.04-.17-1.2-.07-1.03.2.51.83-1.08.01-2.53-1.24-3.56-1.52-6.35-1.75-9.99,1.6-14.3,5.48l4.41-2.57c-.91.37-1.94.53-2.93.62-1.01.15-.98.17.09.05l-2.66-.36c1.75.36,2.05.71.21-.39-1.17-.7-2.47-1.16-3.79-1.46-3.52-.83-6.13.38-9.32,1.6-.59.23-4.1,1.75-4.58,1.89h5.32c-.76-.12-3.15-1.14-4.67-1.46-2.35-.49-4.76-.33-7.14-.2-12.8.72-12.88,20.73,0,20h0Z"/>
</svg>