<?xml version="1.0" encoding="UTF-8"?>
<svg id="_素材配置" data-name="素材配置" xmlns="http://www.w3.org/2000/svg" viewBox="0 0 1000 1000">
  <path d="M560.84,684.96c-.37,1.36-.57,2.73-.55,4.14.03,1.54-.38,5.26.56,1.19l2.57-4.41c1.15-1.25-.81.46-1.21.73-2.14,1.45-3.57,3.15-4.69,5.48-1.45,3.05-2.02,6.7-3.04,9.92l2.57-4.41c.87-1.08-1.05.68-1.48.97-2.1,1.43-3.65,3.23-4.65,5.53-.86,1.99-1,4.01-.71,6.12.03.83.21,1.63.54,2.4,1.14,3.03,1.32,3.19.52.48l1.37-5.05c-1.02,1.94-3.13,4.86-3.96,7.79-.91,3.24-2.11,6.6-2.35,9.97-.06.77-.2,5.22.46,1.73-.3,1.56-1.46,3-1.83,4.6-.92,4.01.95,6.73,1.71,9.92v-5.32c-.58,2.73-2.05,6.11-1.45,9.86.03.18.38,4.3.41,2.3-.04,2.77-.75,4.05-.08,6.85.77,3.19,1.73,4.34,2.33,7.32.65,3.25,2.73,5.56,3.94,7.84l-1.37-5.05c.29,2.87.12,5.7,1.18,8.45.69,1.8,2.75,4.02,3.32,4.93,6.77,10.91,24.08.88,17.27-10.09-.23-.37-2.69-4.07-3-3.88,1.15,2.46,1.59,2.91,1.31,1.36-.11-1.14-.25-2.28-.44-3.42-.44-1.62-1.36-3.09-2.33-4.42-.5-.68-1.03-1.34-1.61-1.96,1.12,2.57,1.45,2.83,1.01.76.08-1.3-.38-2.69-.77-3.91-.32-1.03-.76-2.01-1.31-2.92-.65-1.27-.6-.64.15,1.91,1.11.17-.55-10.12-.73-11.37v5.32c.24-1.32,1.81-4.89,1.81-7.2,0-2.5-1.73-5.6-2.06-7.26v5.32c.46-1.83,1.82-5.74,2.08-8.6.18-1.99,1.78-5.19,1.46-6.97-.29-1.57-1.32,1.21.03-.7s2.46-3.09,3.11-5.43c.53-1.94.46-4.36,0-6.27l-.37-1.07c-1.17-3.04-1.32-3.19-.47-.47l-1.37,5.05.56-.75-3.59,3.59c3.15-2.1,5.9-3.68,7.6-7.32,1.46-3.12,1.93-6.68,3.04-9.92l-2.57,4.41c-.94,1.11.71-.43,1.17-.75,1.64-1.1,3.21-2.54,4.21-4.27s1.54-4.04,1.58-5.98l-.13-1.14c-.29-3.35-.44-3.55-.45-.6,3.36-12.44-15.93-17.75-19.29-5.32h0Z"/>
  <path d="M399.29,714.64c.7-1.57,1.22-3.14,2.22-4.53l-3.59,3.59c1.96-1.32,5.39-1.74,7.95-2.78.8-.29,1.56-.65,2.27-1.1,3.03-1.91,2.66-2.17-1.13-.8.05-.11,5.08.62,5.49.81-3.05-1.46,2.4,2.93,3.15,3.61,2.48,2.27,3.9,4.32,5.83,6.94,1.2,1.63,2.55,2.87,4.31,3.91.96.62,1.99,1.09,3.09,1.43,1.85.68,2.05.82.59.41,3.26,2.54,5.81,4.56,10.23,4.4-.9.03,6.8-.85,2.57-.76,1.87-.04,3.86.94,5.82.88s4.21-.71,5.92-1.71c.99-.71,1.94-1.47,2.86-2.28.89-1.02,1.07-1.15.53-.4l-5.05,1.37.94.1-5.05-1.37c4.01,1.73,7.59,3.02,12.04,3.02,2.72,0,5.27-.31,7.69-1.68,1.52-.75,1.43-.82-.25-.21,1.01-.18,2.03-.22,3.05-.13l-5.05-1.37c2.31,1.06,5.55,4.12,9.76,4.04,1.31-.08,2.6-.3,3.85-.65-2.09.06-2.2.17-.32.33,1.65.21,1.77.24.38.06,1.45,1.22,1.54,1.14.27-.24,1.13,1.13,1.86,2.64,3.07,3.74,1.7,1.53,3.77,2.62,5.83,3.59,1.91.9,3.77,1.45,5.93,1.38.61-.02,10-1.76,4-1.4l-5.05-1.37c2.8,1.54,5.29,4.03,9.63,3.99,3.47-.03,7.2-1.01,10.61-1.56h-5.32c-1.62-.35.96.71,1.38.93,2.25,1.18,4.76,1.67,7.28,1.33,2.1-.28,3.88-1.11,5.54-2.39.68-.43,1.26-.96,1.75-1.6,2.03-2.44,2.11-2.68.23-.71l-5.05,1.37c-1.42.03,4.93.47,3.45.42,1.5.05,3.02-.28,4.48-.59,2.58-.55,5.36-.98,7.88-1.67.61-.17,5.17-1.75,3.26-1.54-1.59.18,2.23.14,2.58.12,4.18-.24,6.11-2.83,8.64-4.41l-5.05,1.37c-.77.06.29-.2.81-.09,1.72.36,3.37.41,5.09.09,2.76-.51,5.12-1.92,7.68-3.01,4.98-2.1,6.06-9.45,3.59-13.68-3.01-5.15-8.69-5.7-13.68-3.59-1.35.57-2.62,1.25-3.97,1.82l5.05-1.37c1.24-.1-2.03-.08-2.14-.09-1.78-.16-3.27-.23-5.09.27-2.37.65-4.78,3.3-5.99,4.05l5.05-1.37c-1.54.09-2.98-.1-4.52-.01-2.81.16-3.8,1.04-6.39,1.92-1.91.65-4.95.41-6.71,1.54-1.48.95,2.29.58-.26.14-2.15-.37-4.28-.57-6.43.02-1.87.51-3.84,1.73-5.22,3.04l-.74.84c-2.02,2.47-2.1,2.68-.23.65,2.57-.34,5.14-.67,7.71-1.01,1.31.2-.82-.58-1.38-.88-1.74-.92-3.96-1.56-5.95-1.56-2.89,0-5.78,1.11-8.69,1.24l5.05,1.37c-1.55-.68-4.67-3.45-7.57-3.85-1.69-.23-3.17-.21-4.89.23l-1.02.42c-3.1,1.14-3.19,1.32-.29.55l5.05,1.37c-.4-.19-3.91-1.73-2.13-.75,1.18.65-.5-.76-1.05-1.43-1.75-2.13-4.2-3.89-6.59-5.28s-4.65-1.82-7.29-2.2c-1.21-.18-2.5-.46-3.73-.46,1.55,0-4.89.51-3.48.55l5.05,1.37c-.14-.08-2.48-2.06-3.61-2.65-2.82-1.47-5.78-1.5-8.86-1.18-2.19.23-5.71.36-7.46,1.98-.68.63,1.27.27.03-.24-.87-.36-2.3-.08-3.24-.18l5.05,1.37c-3.4-1.46-6.44-3.16-10.3-2.67s-6.27,2.99-9.13,5.43l4.41-2.57c1.8-.12,1.71-.27-.26-.43-1.08-.36-2.17-.46-3.26-.29-1.23.02-4.04.56-4.26.56l5.05,1.37c-.58-.29-2.03-1.83-2.92-2.42-1.5-1-3.55-1.3-4.92-2.38,3.28,2.56.93-.14.26-1.1-1.12-1.61-2.46-2.99-3.84-4.37-4.9-4.93-9.83-10.45-17-11.45-3.32-.46-6.78-1.4-10.13-.89-1.96.3-3.66.94-5.37,2-.86.65-1.71,1.3-2.56,1.97,1.03-.75,1.01-.95-.04-.58-2.84.87-6.16,1.9-8.72,3.45-3.54,2.13-4.75,5.03-6.3,8.46-2.22,4.92-1.42,10.75,3.59,13.68,4.28,2.5,11.45,1.36,13.68-3.59h0Z"/>
  <path d="M630.8,709.15l-.57-.26,2.87,2.87c-1.14-1.6-1.51-3.32-2.91-4.82-1.66-1.78-3.89-2.57-6.13-3.36l3.53,2.06c.58,1.13.67,1,.26-.39-.12-1.09-.26-2.18-.42-3.26-.4-1.77-1.31-3.29-2.11-4.89l1.09,4.04c.1,1.48.76-1.17,1.3-1.87.68-.87.84-.85,1.64-1.48,1.62-1.27,3.84-3.14,5.63-4.09l-4.04,1.09c5.43-.64,8.81,2.6,9.98,8.04v-4.25c-.4,1.84-1.65,3.59-2.52,5.28-1.4,2.71-1.59,5.19-1.82,8.2l1.09-4.04c-.35.83-3.83,2.72-4.91,3.26l4.04-1.09c-2.19.27-4.64-.08-6.75-.68-9.92-2.81-14.16,12.62-4.25,15.43,5.48,1.55,12.06,2.25,16.99-.97,2.36-1.54,5.14-3.21,7.04-5.28,1.09-1.18,2.04-2.95,2.47-4.5-.24.88.85-4.59.27-2.84,2.04-6.14,5.47-9.12,2.67-16.07-2.25-5.61-5.3-9.4-10.11-13.03s-13.36-5.16-18.77-2.07c-2.05,1.17-3.69,2.85-5.67,4.07-3.01,1.86-4.97,3.93-6.81,6.96-1.44,2.37-3.03,5.16-3.41,7.93-.24,1.77,0,3.42.61,5.1.04.12,1,2.97.68,1.55.69,3.03.7,6.14,2.37,8.88,1.78,2.91,4.78,3.97,7.77,5.17l-3.53-2.06c-.93-.95.51,1.5.67,1.76.91,1.48,2.07,2.72,3.67,3.45,3.93,1.79,8.61,1.13,10.95-2.87,2.01-3.43,1.08-9.15-2.87-10.95h0Z"/>
  <path d="M603.86,735.84c-4.86,4.21-10.27,12.62-8.3,19.74.3,1.08.82,2.05,1.42,2.98l1.25,1.62c-.74-1.59-.97-1.94-.7-1.05-.09,1.6,1.68,4.08,2.74,5.14,3.72,3.72,8.76,2.65,12.26.68-.17.09,4.9-2.08,4.74-2.28.2.25-3.4.49-1.1.61,1.02.06,2.33-.15,3.31-.41,4.85-1.28,7.35-5.29,7.73-10.11.65-8.32-3-14.89-10.08-19.1-8.87-5.27-16.93,8.55-8.08,13.82.52.31,1.48.74,1.88,1.25-.09-.12-.51-2.04.14.58.24.98.39,1.91-.06,3.01l2.06-3.53-.4.41,3.53-2.06c-.79.27-.8.32-.02.15-.55.02-1.1.05-1.65.1-1.9.18-3.34.44-5.04,1.35-2.08,1.11-4.2,2.24-6.33,3.25l4.04-1.09-.74.03,4.04,1.09-.52-.31,2.87,2.87c.4.64.31.76.03-.07-.3-.88-.59-1.82-1.05-2.63-.23-.42-1.28-2.25-1.6-2.22,1.46-.14-.32,4.54.87,3.33.67-.69.92-1.95,1.44-2.71.91-1.34,1.87-2.43,2.66-3.12,3.27-2.83,2.9-8.41,0-11.31-3.24-3.24-8.04-2.84-11.31,0h0Z"/>
</svg>