<?xml version="1.0" encoding="UTF-8"?>
<svg id="_レイヤー_2" data-name="レイヤー 2" xmlns="http://www.w3.org/2000/svg" viewBox="0 0 1000 1000">
  <path d="M484.89,762.7c-1.38.31-4.2,1.42-4.43,1.46h5.32c-1.13-.25-5.34-1.93-7.75-1.82-2.91.14-5.35.65-8.3.38l5.05,1.37c1.93,2.06,1.87,1.85-.18-.62-.74-.98-1.65-1.78-2.73-2.39-1.77-1.13-3.7-1.85-5.84-1.85-3.77,0-6.35,2.02-9.58,3.48l5.05-1.37-.78.02,5.05,1.37c-2.78-1.4-6.28-3.82-7.87-5.19-3.38-2.9-6.36-3.33-10.18-4.92l4.41,2.57c4.07,4.52-1.3-3-1.79-3.54-1.44-1.59-2.91-2.59-4.99-3.29-.8-.27-5.75-1.9-2.3-.29-1.36-.63-2.86-1.45-4.06-2.35l3.59,3.59c-1.88-2.9-2.95-6.88-4.54-10.22-.81-1.69-1.3-3.32-1.84-5.12s-1.95-3.91-2.32-5.55v5.32c.28-1.72,1.16-3.14,1.57-4.86.33-1.37.16-4.17.49-5.28l-2.57,4.41c-2.03,1.04-2.23,1.2-.59.48l2.39-1.01c.93-.52,1.4-1,2.38-1.5,2.23-1.14,3.51-1.44,5.36-3.25,3-2.93-4.89,3.05,1.84-.96,1.49-.7,1.48-.82-.02-.35-1.65.25-1.5.43.45.53.07.05,1.33,1.03,1.92,1.33,3,1.5,7.12,2.53,10.47,2.47.53-.01,4.78-.42,4.87-1.17l-2.8-.05c2.83,1.31,3.17,1.38,1.01.21,2.56,2.49,4.72,4.07,8.3,4.8,2.81.58,5.97,1.4,8.84,1.63,2.16.18,4.08-.04,6.07-.9,1.16-.5,7.19-3.25,2.36-1.74h-5.32c-2.17-1.37-2.76-1.63-1.75-.78.76.69,1.56,1.33,2.41,1.91.97.61,2.04,1.21,3.15,1.52,3.22.9,6,0,9.12-.57s5.73-.25,8.5-1.86c1.16-.67,2.07-1.5,2.94-2.46l1.56-2.02c1.05-1.49.63-1.26-1.24.71l-5.05,1.37.77.04-5.05-1.37c3.03,1.32,5.38,3.17,8.95,3.19,4.56.02,6.24-2.56,9.17-4.3l-5.05,1.37c2.76-.06,6.45,1.2,10.14-1,3.14-1.88,4.04-4.5,5.92-7.28l-3.59,3.59.63-.44-5.05,1.37c.69-.06,5.57.24,3.86-.13,1.94.42,3.56,1.21,5.68,1.14,2.93-.09,5.66-1.31,7.77-3.32.79-.86,1.52-1.78,2.19-2.74,1.09-1.48.74-1.21-1.05.81l-5.05,1.37c2.01-.17,3.9-.18,5.87.09,2.8.38,5.32.16,8.11.29l-5.05-1.37c.71.37,2.42,2.37,3.76,3.11,1.51.83,4.03.79,5.38,1.67-1.21-.79.89,2.14,1.23,2.68.68,1.04,1.41,2.04,2.22,2.99-.38-4.59-.77-5.81-1.17-3.66-1.54,2.76-1.08,9.02-1.03,12.15.02,1.18-.08,1.93-.3,4.24-.13,1.69-.09,1.63.12-.17-.55.89-1.11,1.77-1.69,2.64l3.59-3.59c2.85-.53,3.31-.67,1.4-.4l-2.66.36c-1.44.34-2.77.91-4.01,1.7-1.81,1.15-2.99,2.54-3.97,4.4-.67,1.06-1.06,2.19-1.17,3.41-.52,3-.54,3.53-.07,1.58.51-1.38.39-1.44-.38-.18-.94,1.42-.74,1.44.59.07,1.61-1.02,1.57-1.29-.12-.8-.77.3-1.54.62-2.3.95-1.91.93-3.34,2.05-4.62,3.73-.24.31-2.66,3.43-1.44,2.32l4.41-2.57-.75.13h5.32c-3.99-.93-7.18-2.37-11.32-.63-2.23.94-4.06,2.54-5.34,4.61-.57,1.03-1.05,2.1-1.44,3.21-.7,1.71-.45,1.33.74-1.15l7.07-2.93c2.74.89,3.24.95,1.49.18-1.07-.52-2.17-.96-3.3-1.31-2.44-.6-5.01-.46-7.31.53-3.84,1.65-5.18,4.81-7.44,7.94l3.59-3.59-.66.43,5.05-1.37c-1.99.09-7.35-.89-10.59-.33-2.47.42-4.58,1.36-6.42,3.1-.82.82-1.55,1.71-2.19,2.68-1.11,1.44-.78,1.11,1-.99l7.71-1.01c2.07,1.36,2.6,1.61,1.57.77-.46-.41-.94-.8-1.44-1.15-1.31-1-2.63-1.86-4.24-2.34-3.55-1.06-6.33-.15-9.55,1.19-1.21.5-2.08,1.08-3.81,1.49-6.64,1.56-.59,1.08-.31.94-.56.27-3.75-1.73-4.67-1.96-12.48-3.16-17.81,16.12-5.32,19.29,1.04.26,2.94,1.53,4.51,1.88,2.59.59,4.53.11,7.1-.25,3.91-.56,8.55-2.56,11.25-3.46h-5.32c-2.18-1.42-2.54-1.54-1.09-.37.9.77,1.84,1.47,2.84,2.11,2.19,1.2,4.67,1.67,7.13,1.34s4.65-1.4,6.45-3.08c.85-.79,1.59-1.68,2.21-2.67,1.14-1.43.78-1.11-1.06.96l-5.05,1.37c4.04-.1,7.67,1.32,11.92.15,4.51-1.24,6.3-4.9,8.68-8.42l-3.59,3.59.62-.45-5.05,1.37c-2.65-.86-3.12-.91-1.41-.15,1.06.52,2.15.95,3.27,1.3,2.43.6,4.96.42,7.26-.55s4.1-2.53,5.39-4.59c.62-1.01,1.11-2.07,1.47-3.2.73-1.7.45-1.33-.82,1.12l-7.07,2.93c-1.23-.36-1.18-.31.17.16.63.29,1.29.49,1.98.61,1.98.45,4.11.45,6.06-.13s3.7-1.77,5.11-3.2c-.31.32,3.61-4.89,2.15-3.36l-4.41,2.57c4.67-1.86,8.35-2.15,11.41-6.79.81-1.22,1.62-2.54,2.33-3.81.36-.65,3.56-9.67.86-3.93l-3.59,3.59c-.64.43-3.67.56-1.28.41,1.19-.08,2.42-.26,3.56-.6,3.09-.91,5.24-3.13,7-5.71,2.55-3.73,3.52-8.09,3.95-11.45.55-4.26.27-8.63.85-12.87.37-2.71.73-4.92-.06-7.61-.65-2.22-2.47-4.41-3.3-5.79-2.5-4.16-5.01-7.83-9.41-10.3-1.4-.78-3.03-1.22-4.53-1.7-2.35-.77,1.55,1.24-.12-.07-2.35-1.84-4.17-3.22-7.2-3.74-2.2-.37-4.3-.03-6.44-.25-2.47-.25-4.83-.58-7.33-.44-3.06.17-5.84.75-8.31,2.63-1.05.8-1.61,1.44-2.43,2.48-1.56,1.99-2.23,1.67.28.27l5.05-1.37c1.16.02.26-.18-.36-.43-1.13-.44-2.48-.63-3.68-.68-2.2-.09-4.68-.14-6.83.27-5.33,1.01-7.18,4.59-9.96,8.68l3.59-3.59-.63.44,5.05-1.37c-1.41.04-5-.89-7.43-.22s-4.76,3.17-6.12,3.96l5.05-1.37-.77-.03,5.05,1.37c-3.6-1.53-6.48-3.62-10.66-3.04-2.44.34-4.62,1.43-6.4,3.15-.74.9-1.45,1.81-2.15,2.75-1.05,1.51-.63,1.26,1.24-.74l5.05-1.37c-3.91.49-7.64,1.04-11.5,1.76h5.32c2.33,1.53,2.79,1.7,1.36.51l-2.02-1.56c-1.65-1.07-3.29-1.7-5.23-1.93-2.17-.26-4.09.07-6.06.96-.78.23-1.47.61-2.08,1.13-2.62,1.88-2.71,2.07-.27.54h5.32c-1.49-.28-2.88-.79-4.36-1.1-1.15-.16-2.29-.31-3.44-.45-1.64-.31-1.12.11,1.56,1.25.16-1.84-5.71-4.14-6.97-4.69-3.4-1.47-6.57-2.7-10.35-1.75-.57.14-1.12.33-1.65.57-1.12.39-.72.44,1.21.17.47.24-3.04-1.05-2.71-.92-6.82-2.78-12.23-4.16-19.29-.89-.39.18-2.41,1.05-3.25,1.55-.6.36-4.43,3.83-1.65,1.84-2.42,1.73-4.74,2.41-6.77,3.3-3.46,1.51-6.28,4.01-7.44,7.72-.52,1.65-.82,3.5-.75,5.23.12,2.97,1.18-1.44-.16,1.26-3.19,6.38.15,12.46,2.32,18.35,1.88,5.09,3.91,10.47,6.56,15.22,1.73,3.09,4.36,4.8,7.39,6.37,2.62,1.36,6.26,2.2,8.03,2.95l-4.41-2.57c-3-3.73-.46.45.19,1.56.78,1.34,1.95,2.56,3.18,3.48,2.49,1.86,5.11,1.99,7.89,2.99l-4.41-2.57c3.89,3.13,7.39,6.34,11.84,8.79,6.22,3.43,10.23,1.32,15.97-1.4l-5.05,1.37.79-.06-5.05-1.37c-1.64-1.7-1.85-1.81-.62-.33.46.64.96,1.25,1.5,1.82,1.14,1.11,2.55,1.94,4.02,2.51,2.99,1.17,6.67,1.19,9.87.95l2.66-.36c-2.65-.92-3.3-1.09-1.96-.51,1.12.85,2.66,1.19,4.02,1.5,3.64.81,7.27-.9,9.75-1.46,12.55-2.83,7.24-22.12-5.32-19.29Z"/>
</svg>