<?xml version="1.0" encoding="UTF-8"?>
<svg id="_レイヤー_2" data-name="レイヤー 2" xmlns="http://www.w3.org/2000/svg" viewBox="0 0 1000 1000">
  <path d="M489.78,717.59c.23.7.95,2.23.77,2.96-.13-1.33-.18-1.58-.15-.77-.06.75-.05.66.05-.26.15-1.92-.22.73-.31,1.12-.15.68-.32,1.37-.45,2.06,5.57-1.47,11.14-2.94,16.71-4.41-.93-.77.55.74.64.9.24.41.72,1.97.28.67-.4-1.16-.84-2.29-1.32-3.42.25.6-1.05-2.76-.52-1.13s-.49-1.46.05.3c.48,1.56-.2-1.75-.17-1.57-.19-1.92-.26-1.77-.21.45-.25,1.99-.16,2.35.25,1.07l-14.69,5.98-3.27-4.29.22.56c.34,1.01.79,2.09,1.38,2.99,1.13,1.73,2.6,3.19,4.42,4.18,1.2.65,2.55,1.11,3.85,1.55.34.11.69.26,1.04.34.51.18.34.11-.51-.21-.84-.26-1.58-.71-2.22-1.34l-2.57-4.41c-.24-.92-.28-1.83-.11-2.75.17-1.01.15-1.11-.06-.28-.22,1.66.69-1.34.19-.37-.75,1.48-1.36,3.06-2,4.58l14.69-5.98c-.17-.1-.71-.56-.89-.55.34-.02,1.63,1.44.53.39-.33-.31-.65-.63-.99-.94-1.3-1.18.56,1.15.13.25-.28-.47-.25-.33.11.44.44.85.52,1.77.25,2.76-.05,4-.18,2.1.17,1.32.49-1.09-1.06,1.8-.38.83s-1.74,1.69-.7.87l-7.07,2.93.35-.05-5.05-1.37-3.92-7.01,1.37-5.05-.2.28c-3.05,4.27-.89,11.31,3.59,13.68,5.15,2.72,10.43.97,13.68-3.59,3.7-5.18.72-12.74-4.42-15.59-4.13-2.28-9.01-1.54-12.47,1.61-1.56,1.42-2.48,3.22-3.28,5.13-1.84,4.36-1.77,8.74.7,12.89,1.94,3.25,5.15,6.12,8.39,8.02,2.77,1.63,5.99,1.73,8.9.5,3.1-1.31,4.53-3.48,5.79-6.48-.11.25-1.03,2.33-.4,1.02.22-.46.43-.93.63-1.4.62-1.42,1.34-2.88,1.73-4.39,1.06-4.1.36-8.69-2.8-11.75-1.99-1.92-4.75-3.17-7.42-3.82-.76-.26-.35-.08,1.23.54l3.38,4.32c.13-.69-.9-2.33-1.18-2.9-1-2.02-2.78-3.69-4.74-4.76-6.16-3.38-12.28-.05-14.69,5.98-.48,1.2-.66,2.66-.72,3.95-.07,1.5.81,4.73.22,1.95.54,2.59.3,6.22,2.24,8.41.92,1.04-.9-2.54-.13-.29.21.61.44,1.2.67,1.8.91,2.32,1.89,4.73,3.87,6.37,2.82,2.34,6.04,3.59,9.73,2.57,3.17-.87,6.32-3.64,6.98-6.98.49-2.49,1.15-4.91,1.35-7.46.21-2.74-.41-5.67-1.25-8.28-1.6-4.97-7.01-8.7-12.3-6.98-4.97,1.61-8.71,6.97-6.98,12.3h0Z"/>
  <path d="M473.24,759.85c1.16.51,2.33,1.01,3.5,1.49.92.61,1.36.58,1.33-.08.85.6,1.7,1.2,2.56,1.8-.92-1.17-.9-1.1.07.21,2.26,3.12,5.22,5.25,8.39,7.32,3.52,2.29,6.76,3.71,11,4.09,2.27.21,4.77.27,6.97-.38-.02,0,5.05-2.62,3.83-2.23h-5.32c-.7-.57-.48-.5.65.22,1.13.49,2.26.96,3.4,1.42,2.03.52,4.24.46,6.28.02,4.19-.92,9.1-3.15,12.41-5.92,2.7-2.26,4.15-5.4,6.49-7.91,2.89-3.09,5.14-7.06,7.26-10.71,6.48-11.15-10.8-21.23-17.27-10.09-2.88,4.96-6.48,9.16-9.83,13.7,1.81-2.45-2.04.82-2.11.96-1.19.27-.9.42.87.46,1.88.45,2.06.36.53-.25-3.12-2.02-7.6-1.83-10.83-.38-.17.07-3.25,1.45-3.11,1.87-.73-2.19,4.68,1.08,1.01-.82-.39-.2-2.23-1.26-2.09-1.17-.62-.41-4.21-3.74-2.48-1.86,1.34,1.46-1.53-2.23-1.82-2.54-1.23-1.29-2.76-2.25-4.21-3.27-1.25-.88-2.32-1.62-3.68-2.28-.94-.45-3.45-.82-3.71-.94-4.95-2.15-10.73-1.46-13.68,3.59-2.47,4.23-1.39,11.52,3.59,13.68h0Z"/>
</svg>