<?xml version="1.0" encoding="UTF-8"?>
<svg id="_レイヤー_2" data-name="レイヤー 2" xmlns="http://www.w3.org/2000/svg" viewBox="0 0 1000 1000">
  <path d="M488.93,735.54c-1.47-.87.63,1.09.92,1.36,1.35,1.3,3.37,2.48,5.21,2.99,3.26.9,6.86.03,10.18-.06s6.53-.08,9.57-1.02c1.06-.28,2.02-.73,2.91-1.34.98-.54.64-.55-1-.02.71.1,1.42.12,2.14.06,1.46-.01.96-.16-1.49-.43-.33.36,6.28,1.75,6,1.74,2.16.09,4.01-.33,5.94-1.32,1.47-.76,2.58-1.95,3.95-2.82-2.92,1.85,1.48-.62,2.55-.85-2.46.53,2.71.2,3.46-.03,1.62-.5,3.01-1.36,4.29-2.44,2.3-1.93,4.35-4.2,6.63-6.19l-4.41,2.57-2.06.09c1.07.19,2.14.33,3.22.4,1.38.02,2.78-.17,4.1-.59,12.24-3.83,7.02-23.14-5.32-19.29,2.54.07,2.8,0,.77-.21-.82-.13-1.64-.22-2.47-.29-1.87,0-4.33.65-5.95,1.6-1.34.78-5.99,4.13-6.5,5.63-1,1.06-.33.83,2-.68l-2.66.36c-1.88.37-3.43,1.05-5.2,1.79-2.07.86-5.36,3.12-6.5,3.67l5.05-1.37c2.59.69,2.93.68,1.02-.04-.72-.31-1.43-.61-2.16-.9-1.1-.3-2.41-.38-3.56-.44-3.12-.17-6.32-.11-9.2,1.2-.5.23-4.29,1.89-.73.92-1.15.32-2.48.18-3.65.22-2.73.1-5.57.41-8.26.43l5.05,1.37c1.22.64-.12-.44-.57-.92-.91-.96-2.04-1.76-3.18-2.43-11.09-6.59-21.16,10.7-10.09,17.27h0Z"/>
  <path d="M565.66,703.32c.89.62,1.84,1.13,2.88,1.46,1.69.83,1.61.64-.22-.58-1.37-1.37-1.75-1.55-1.15-.55.19,1.8,2.55,4.77,3.88,5.77,1.48,1.1,1.6,2.21.47-1.59-1.48-4.97-1.12-.92-1.31,1.14-.12,1.26-.36,3.38-.49,5.63-.33,5.4,4.83,10,10,10,5.69,0,9.67-4.59,10-10-.02.71.06.43.24-.85.33-1.26.43-2.53.3-3.8-.21,2.63.48-4.86.39-3.12.2-3.92-1-7.37-3.84-10.2-.36-.36-2.2-2.33-1.6-1.44-.65-.97-1.01-2.13-1.67-3.12-1.11-1.67-2.57-3.14-4.29-4.2-1.04-.58-2.13-1.07-3.25-1.46.82.35.75.24-.23-.34-4.44-3.09-11.11-.81-13.68,3.59-2.91,4.98-.86,10.59,3.59,13.68h0Z"/>
</svg>