<?xml version="1.0" encoding="UTF-8"?>
<svg id="_レイヤー_2" data-name="レイヤー 2" xmlns="http://www.w3.org/2000/svg" viewBox="0 0 1000 1000">
  <defs>
    <style>
      .cls-1 {
        fill: #fff;
      }
    </style>
  </defs>
  <g>
    <path d="M408.68,46.73c-89.3,19.74-165.97,83.11-212.99,161.56-20.08,33.5-35.13,70.7-38.48,109.61s5.82,79.72,29.91,110.47c0,0,21.13-40.96,33.05-60.31,33.13-53.84,77.42-100.01,124.71-141.98l-27.98,101.46c64.81-30.54,123.33-72.69,181.44-114.59-15.13,34.92-28.56,70.59-40.23,106.82,132.39-21.27,186.28-136.21,186.28-136.21,0,0,26.36,108.06,53.61,157.18,27.25,49.12,67.08,93.03,118.55,115.54,0,0,62.96-90.78-15.39-240-14.68-27.96-37.35-51.1-61.04-71.98-19.47-17.17-41.61-32.64-67.05-37.83,0,0-118.56-91.96-264.38-59.74Z"/>
    <path d="M406.02,37.08c-64.21,14.38-122.16,50.58-167.22,98.03-47.98,50.53-88.12,117.48-91.99,188.47-2.17,39.96,8.65,80.06,33.23,111.85,3.88,5.02,13.02,3.19,15.71-2.02,10.35-20.05,20.78-40.2,32.53-59.47,20.76-34.05,46.28-64.93,73.99-93.53,15.91-16.42,32.58-32.08,49.67-47.27-5.57-3.24-11.14-6.49-16.71-9.73-8.16,29.58-16.31,59.15-24.47,88.73-1.17,4.24-2.34,8.49-3.51,12.73-2.47,8.97,7.09,14.89,14.69,11.29,64.91-30.71,123.39-72.73,181.44-114.59l-13.68-13.68c-15.45,35.74-29.27,72.15-41.23,109.21-2.56,7.93,5.29,13.45,12.3,12.3,45.8-7.5,88.35-27.51,124.03-57.06,23.48-19.45,43.94-43.02,59.95-68.98,2.95-4.78,5.87-9.67,8.27-14.77l-18.28-2.39c7.42,30.4,16.18,60.57,26.12,90.23,7.21,21.53,15.04,43.11,25.34,63.38,12.55,24.71,29.08,47.95,47.83,68.32,21.79,23.68,47.95,43.72,77.46,56.76,5.24,2.32,10.32,1.28,13.68-3.59,4.73-6.85,8.05-14.88,11.14-22.55,7.6-18.89,11.67-39.09,13.36-59.34,2.62-31.34-1.4-63.2-9.76-93.43-11.03-39.91-28.62-79.72-55.46-111.51-14.48-17.15-31.15-32.97-48.76-46.88-17.81-14.07-37.54-26-59.98-30.79l4.41,2.57c-15.74-12.19-33.34-22.15-51.15-30.93-40.42-19.92-84.02-33.12-128.96-37.28-31.43-2.91-63.16-.82-94,5.89-12.57,2.74-7.25,22.02,5.32,19.29,57.05-12.43,116.1-6.04,170.73,13.69,28.97,10.46,58.28,24.87,83.86,43.5.65.47,1.28,1,1.95,1.44.36.24,1.07.97-.89-.69-2.56-2.17.63.56,1.02.79,1.56.91,2.49.93,4.01,1.35,3.98,1.11,7.96,2.04,11.86,3.43,14.71,5.23,28.22,14.17,40.28,23.95,25.69,20.86,50.6,45.27,66.72,74.46,27.51,49.81,44.29,108.17,38.41,165.35-.14,1.37-.29,2.74-.46,4.1-.06.5-.12,1.01-.19,1.51-.22,1.7.2-1.36-.05.31-.35,2.39-.73,4.78-1.15,7.16-.79,4.4-1.72,8.78-2.8,13.11-1.77,7.11-3.95,14.13-6.56,20.98-.51,1.35-1.06,2.68-1.6,4.02-.83,2.07.72-1.55,0,0-.31.66-.58,1.33-.88,1.99-.96,2.14-1.97,4.25-3.04,6.33-1.26,2.45-2.76,4.76-4.06,7.18-.16.31-.38.6-.58.89l13.68-3.59c-50.61-22.37-89.24-64.87-115.44-112.83-10.13-18.55-17.19-37.94-24.09-58.06-7.03-20.49-13.28-41.24-19.1-62.1-3.12-11.2-6.17-22.44-8.93-33.74-1.93-7.91-14.57-10.28-18.28-2.39-1.81,3.86-3.96,7.57-6.14,11.24-2.52,4.26-5.18,8.43-7.96,12.52-1.68,2.47-3.39,4.92-5.15,7.34-.99,1.36-1.99,2.72-3.01,4.06-.49.64-.97,1.29-1.47,1.93,1.18-1.54-.31.39-.73.92-22.5,28.49-49.45,51.85-81.28,68.82-23.3,12.42-48.54,20.53-74.58,24.79,4.1,4.1,8.2,8.2,12.3,12.3,11.43-35.4,24.46-70.28,39.22-104.43,1.8-4.15,1.85-8.71-1.56-12.12-2.93-2.93-8.56-4.13-12.12-1.56-58.04,41.86-116.52,83.88-181.44,114.59l14.69,11.29c8.16-29.58,16.31-59.15,24.47-88.73,1.17-4.24,2.34-8.49,3.51-12.73,2.77-10.03-9.47-16.17-16.71-9.73-30.64,27.23-59.96,56.08-85.95,87.84-22.62,27.65-41.71,57.2-58.64,88.59-4.99,9.25-9.91,18.54-14.73,27.88l15.71-2.02c-42.41-54.87-30.29-131.04-.68-188.54,28.33-55.02,71.3-103.43,123.56-136.75,29-18.5,60.68-32.11,94.28-39.63,12.55-2.81,7.24-22.1-5.32-19.29Z"/>
  </g>
  <path d="M682.67,110.68c28.95-37.33,78.12-42.93,122.14-39.36,5.39.44,10-4.91,10-10,0-5.77-4.59-9.56-10-10-48.71-3.95-104.36,4.04-136.28,45.21-3.31,4.26-4.16,9.99,0,14.14,3.45,3.45,10.81,4.29,14.14,0h0Z"/>
  <path class="cls-1" d="M480.77,162.12c-25.12,9.93-48,23.87-68.2,41.84-9.64,8.57,4.55,22.68,14.14,14.14,17.45-15.52,37.64-28.1,59.37-36.69,5.02-1.98,8.53-6.69,6.98-12.3-1.31-4.78-7.25-8.98-12.3-6.98h0Z"/>
  <path class="cls-1" d="M430.26,151.16c-10.68,6.67-21.36,13.34-32.04,20.02s-.86,24.12,10.09,17.27,21.36-13.34,32.04-20.02.86-24.12-10.09-17.27h0Z"/>
  <path class="cls-1" d="M743.79,319.67c4.3,11.48,8.6,22.97,12.9,34.45,1.89,5.05,6.76,8.51,12.3,6.98,4.85-1.33,8.89-7.22,6.98-12.3-4.3-11.48-8.6-22.97-12.9-34.45-1.89-5.05-6.76-8.51-12.3-6.98-4.85,1.33-8.89,7.22-6.98,12.3h0Z"/>
  <path class="cls-1" d="M777,327.16c1.23,4.13,2.47,8.25,3.7,12.38,1.5,5.01,7.08,8.67,12.3,6.98s8.59-6.93,6.98-12.3c-1.23-4.13-2.47-8.25-3.7-12.38-1.5-5.01-7.08-8.67-12.3-6.98s-8.59,6.93-6.98,12.3h0Z"/>
</svg>