<?xml version="1.0" encoding="UTF-8"?>
<svg id="_素材配置" data-name="素材配置" xmlns="http://www.w3.org/2000/svg" viewBox="0 0 1000 1000">
  <path d="M625.93,865.32c1.46.42,2.37,1.4,3.81,1.82s3.45-1.05,4.89-.65,2.77,1.35,4.21,1.74,3.07.24,4.52.63,2.35,2.96,3.81,3.33,2.77,1.43,4.23,1.79,3.64-2.11,5.1-1.75,2.57,2.28,4.03,2.62,2.61,2.24,4.07,2.57,3.59-2.28,5.06-1.97,2.62,2.29,4.1,2.58,3.25-.88,4.73-.61,2.66,2.34,4.14,2.59,3.39-2.07,4.88-1.84,2.85,1.28,4.34,1.48,2.99.35,4.48.53,2.82,1.97,4.32,2.12,3.08-.44,4.58-.31,2.9,1.95,4.41,2.04,3.04.29,4.55.35,3.14-3.45,4.65-3.41,2.97,1.77,4.48,1.77,3.03,1.09,4.54,1.07,3.08,1.03,4.59.98,2.9-2.75,4.41-2.84,3.01-.05,4.52-.17,3.21,1.86,4.72,1.71,2.74-2.66,4.25-2.84,3.35,2.26,4.85,2.04,2.55-3.31,4.05-3.55,3.27,1.23,4.76.96,2.81-1.37,4.3-1.67,2.89-.84,4.38-1.17,3.36,1.12,4.84.77,2.8-1.29,4.27-1.67,2.41-2.65,3.88-3.05,3.19.24,4.65-.19c1.44-.42,2.66-1.59,4.11-2.04s3.25.31,4.69-.16,2.95-.72,4.38-1.21,2.69-1.46,4.11-1.98,2.99-.64,4.4-1.19,2.33-2.31,3.72-2.88,2.45-1.91,3.83-2.5,3.74,1,5.11.37,2.72-1.36,4.07-2.02,2.46-1.87,3.8-2.55,3.12-.59,4.44-1.31,1.91-2.8,3.21-3.55,2.1-2.33,3.39-3.11,3.43-.19,4.7-1,3.39-.41,4.63-1.27,2.49-1.81,3.7-2.7.79-3.98,1.97-4.91,3.73-.2,4.89-1.16.26-4.3,1.39-5.3,4.2.1,5.28-.94,1.33-2.96,2.38-4.04,2.26-2.02,3.27-3.14,3.27-1.22,4.23-2.38,1.76-2.54,2.67-3.74,1.65-2.61,2.51-3.84,2.14-2.29,2.94-3.56-.5-3.85.25-5.16.42-3.14,1.11-4.48,1.3-2.63,1.93-4c.62-1.37,1.76-2.45,2.31-3.84s.95-2.8,1.45-4.21,2.06-2.46,2.49-3.89,1.06-2.82,1.43-4.28-.16-3.11.15-4.58,3.02-2.49,3.28-3.97-2.12-3.38-1.92-4.87,1.38-2.84,1.53-4.34,1.07-2.94,1.17-4.44-2.14-3.1-2.09-4.6,2.91-2.95,2.91-4.45-.09-3.04-.13-4.54-.76-3-.85-4.5-.19-3.01-.32-4.51-2.36-2.78-2.52-4.27-.79-2.89-.99-4.37,2.19-3.34,1.95-4.82-2.99-2.53-3.26-4.01,2.68-3.56,2.39-5.03-1.89-2.69-2.21-4.15-.69-2.93-1.04-4.38-.86-2.88-1.24-4.33.76-3.33.36-4.78-1.26-2.78-1.69-4.22-3.26-2.15-3.7-3.58-1-2.82-1.46-4.24,2.03-3.82,1.55-5.25-2-2.5-2.48-3.93-.99-2.84-1.49-4.25-1.29-2.73-1.8-4.14-2.37-2.34-2.88-3.75-.7-2.94-1.22-4.35,1-3.57.48-4.97-1.37-2.69-1.89-4.1-3.6-1.87-4.11-3.28,2.33-4.05,1.82-5.46-1.6-2.61-2.11-4.02-3.31-2-3.82-3.41.15-3.24-.34-4.66-1.28-2.74-1.76-4.16-.36-3.05-.83-4.47-1.98-2.52-2.44-3.94.52-3.31.08-4.74-.4-3-.82-4.44c-.42-1.45-2.68-2.37-3.08-3.82s1.72-3.58,1.34-5.04-1.1-2.81-1.46-4.27-1.86-2.64-2.21-4.1-.8-2.91-1.13-4.38-1.75-2.71-2.06-4.18-.14-3.06-.43-4.53-.49-2.98-.77-4.46.03-3.07-.23-4.55-.97-2.89-1.22-4.38-1.69-2.79-1.92-4.28,1.05-3.21.83-4.7-.72-2.94-.93-4.44,1.01-3.17.82-4.66-2.05-2.78-2.23-4.28-.6-2.97-.76-4.47-1.39-2.89-1.54-4.39,2.93-3.32,2.78-4.82-2.4-2.8-2.53-4.3-1.07-2.94-1.19-4.44.31-3.05.19-4.56.36-3.05.25-4.55-1.52-2.92-1.62-4.43,1.49-3.12,1.4-4.62,1.27-3.09,1.18-4.59-.84-2.97-.92-4.47-.46-2.99-.53-4.5-2.24-2.92-2.3-4.42,1.19-3.07,1.13-4.57.04-3.02-.02-4.52-.83-2.99-.88-4.49.96-3.05.91-4.56-.56-3-.61-4.5-1.44-2.97-1.49-4.48,1.81-3.07,1.76-4.58-.64-3-.68-4.5-.94-2.99-.98-4.5,1.18-3.05,1.13-4.55-.03-3.01-.07-4.52.02-3.02-.02-4.52.45-3.03.41-4.54-2.13-2.95-2.18-4.46,2.21-3.09,2.16-4.59.35-3.03.3-4.54-.85-2.99-.9-4.49-.25-3.01-.31-4.51-2.59-2.91-2.65-4.41-.06-3.01-.13-4.51,2.36-3.13,2.29-4.64-1.77-2.93-1.85-4.43,2.07-3.14,1.98-4.64-2.81-2.85-2.91-4.35,2.56-3.2,2.45-4.7-1.8-2.9-1.91-4.4.93-3.1.81-4.6-.86-2.96-.99-4.46-1.21-2.92-1.35-4.42,1.73-3.21,1.58-4.71-.47-2.99-.63-4.49-2.73-2.72-2.91-4.22.1-3.04-.09-4.54-1.06-2.89-1.27-4.39-.81-2.92-1.03-4.41,1.23-3.23,1-4.72-2.3-2.67-2.55-4.16,2.01-3.4,1.75-4.88-3.12-2.49-3.4-3.97-.08-3.04-.37-4.52.06-3.08-.25-4.55-.06-3.07-.39-4.54.32-3.17-.03-4.64-2.79-2.42-3.15-3.88,2.05-3.65,1.66-5.1-3.04-2.3-3.44-3.76,1.57-3.59,1.14-5.04-4.2-1.88-4.65-3.32,1.98-3.79,1.51-5.22-3.48-2.01-3.97-3.44-1.53-2.63-2.04-4.05.97-3.55.43-4.96c-.52-1.39-2.56-2.2-3.11-3.58s-1.31-2.66-1.88-4.03-1.49-2.58-2.08-3.94-1.02-2.77-1.64-4.13.84-3.66.21-5-.07-3.29-.73-4.63-2.24-2.24-2.91-3.56-3.05-1.77-3.75-3.09-.93-2.87-1.64-4.18-1.02-2.84-1.75-4.13-2.11-2.21-2.87-3.49-.5-3.17-1.27-4.44-3.11-1.57-3.9-2.83.69-3.98-.12-5.23-1.37-2.69-2.2-3.93-2.63-1.83-3.48-3.05-2.67-1.76-3.53-2.97-.77-3.13-1.65-4.32-.78-3.16-1.68-4.35-3.78-.85-4.7-2.02-2.48-1.81-3.42-2.97-.86-3.13-1.81-4.28-1.24-2.85-2.21-3.98-1.22-2.91-2.21-4.03-4.08-.35-5.08-1.45-.77-3.33-1.79-4.42-1.93-2.29-2.96-3.36-3.22-1.02-4.27-2.08-1.85-2.35-2.91-3.39-1.86-2.35-2.94-3.38-1.4-2.86-2.49-3.88-1.76-2.51-2.86-3.51-4.39.44-5.51-.54-.56-3.89-1.69-4.86-1.97-2.3-3.12-3.26-3.93.08-5.08-.86-.38-4.29-1.55-5.22-3.51-.36-4.69-1.27-1.82-2.54-3.02-3.43-2.6-1.51-3.8-2.39-2.04-2.29-3.25-3.15-3.61-.04-4.84-.88-1.32-3.37-2.56-4.19-2.68-1.37-3.93-2.18-4.07.85-5.33.06-1.87-2.6-3.14-3.37-1.57-3.17-2.86-3.92-3.8.6-5.09-.14-2.08-2.35-3.38-3.08-1.64-3.23-2.95-3.94-2.97-.8-4.29-1.49-3.29-.12-4.62-.79-2.69-1.27-4.03-1.92-2.49-1.68-3.84-2.32-2.83-.97-4.18-1.59-2.07-2.69-3.43-3.29-2.95-.72-4.32-1.3-3.68,1.11-5.06.55-1.77-3.59-3.15-4.13-3.04-.43-4.43-.95-3.1-.2-4.5-.7-2.75-1.13-4.16-1.62-2.12-3.1-3.54-3.57-3.19.1-4.62-.36-3.38.78-4.81.34-2.17-3.17-3.61-3.6-3.5,1.33-4.94.92-3.01-.28-4.46-.67-2.95-.48-4.4-.86-2.42-2.62-3.87-2.97-3.32,1.03-4.77.69-2.36-3.1-3.82-3.42-2.78-1.39-4.24-1.69-3.29,1.12-4.76.83-3.17.67-4.64.4-2.85-.96-4.33-1.21-2.57-2.76-4.05-3-3.25,1.36-4.73,1.14-3.07.4-4.55.19-2.53-3.68-4.01-3.87-3.15.99-4.64.82-2.88-1.28-4.37-1.43-3.02.01-4.51-.13-2.97-.55-4.46-.67-3.09,1.12-4.59,1.02-3.02.41-4.52.32-2.99-.09-4.48-.16-2.97-.47-4.47-.52-2.98-.41-4.48-.45-2.98-1.36-4.48-1.37-3.01.15-4.5.15-2.96,3.1-4.46,3.12-3.01-1.6-4.51-1.56-3-.12-4.49-.06-3.04-.86-4.53-.78-3.04-.49-4.53-.39-2.86,2.13-4.35,2.24-2.93.76-4.42.89-2.86,1.37-4.35,1.52-3.07-.76-4.56-.59-3.1-.73-4.58-.54-2.77,1.83-4.25,2.04-3.05-.23-4.53,0-3.19-.95-4.66-.71-3.07-.1-4.54.17-2.5,2.91-3.97,3.19-3.42-1.81-4.89-1.5-2.82,1.18-4.28,1.51-2.33,3.2-3.78,3.55-3.22-.62-4.67-.25-3.29-.72-4.73-.34-2.39,2.61-3.83,3.01-2.89.74-4.33,1.17-3.56-1.37-4.99-.92-1.97,3.66-3.39,4.13-2.71,1.28-4.12,1.77-3.34-.48-4.74.03-2.88.86-4.27,1.39-2.3,2.33-3.69,2.89-3.66-1.06-5.04-.48-1.49,4.13-2.86,4.73-3.32-.16-4.69.45-2.71,1.25-4.06,1.89-3.32,0-4.67.65-3.06.56-4.36,1.22-1.08,4.32-2.36,5.01-3.53-.3-4.81.41-1.63,3.07-2.89,3.81-3.51-.12-4.75.65-1.67,2.89-2.9,3.68-3.52.02-4.73.83-1.09,3.65-2.28,4.48-4-.52-5.18.34-1.29,3.25-2.45,4.12-2.67,1.38-3.81,2.28-2.26,1.92-3.38,2.84-1.34,3.01-2.44,3.94-2.79,1.29-3.87,2.24-2.71,1.42-3.77,2.4c-1.11,1.03-2.96,1.22-4,2.21-1.1,1.05-2.54,1.72-3.55,2.73-1.08,1.08-1.56,2.7-2.54,3.72-1.07,1.11-2.74,1.6-3.69,2.63-1.06,1.15.59,4.6-.32,5.64-1.06,1.21-2.23,2.08-3.09,3.11-1.09,1.31-4.46.49-5.22,1.47-1.75,2.25,1.33,4.69-.51,5.89-1.49.26-4.01-1.44-5.46-1.13s-3.29-.74-4.74-.38-2.23,3.38-3.66,3.79-2.65,1.46-4.07,1.93-3.22-.21-4.62.3-2.94.73-4.31,1.3-2.4,1.98-3.75,2.6-3.57-.49-4.9.18-2.48,1.8-3.79,2.52-2.68,1.41-3.96,2.18-1.56,3.16-2.81,3.97-2.64,1.38-3.87,2.24-2.49,1.63-3.68,2.54-3.56.33-4.72,1.28-2.62,1.61-3.75,2.59-1.73,2.61-2.83,3.63-2.78,1.49-3.84,2.54-1.15,3.11-2.19,4.19-1.66,2.54-2.67,3.66-2.42,1.86-3.39,3-.17,3.72-1.11,4.88-4.47.29-5.38,1.48.41,4.04-.47,5.25-1.5,2.56-2.35,3.8-3.71,1.1-4.53,2.36-1.91,2.36-2.7,3.63-2.05,2.29-2.82,3.57-1.23,2.78-1.97,4.09.81,3.88.1,5.19-2.1,2.25-2.79,3.58-2.04,2.32-2.71,3.66.09,3.36-.55,4.72-3.26,1.78-3.89,3.14,1.08,3.75.48,5.13-2.69,2.09-3.27,3.47-1.2,2.74-1.76,4.13-.29,3.1-.83,4.49-2.15,2.39-2.67,3.79-.78,2.91-1.28,4.32-.13,3.12-.61,4.54-3.26,2.07-3.72,3.5,1.75,3.71,1.3,5.13-2.48,2.37-2.92,3.8,1.35,3.52.94,4.95-.68,2.9-1.08,4.34-1.54,2.67-1.92,4.11-3.79,2.11-4.16,3.56,1.46,3.46,1.1,4.91.18,3.12-.16,4.57-1.9,2.63-2.23,4.09-2.35,2.56-2.67,4.02,1.25,3.34.95,4.8.03,3.06-.26,4.53-2.8,2.52-3.08,3.98,2.8,3.57,2.53,5.04-.49,2.95-.75,4.41-1.32,2.81-1.56,4.28-.33,2.98-.56,4.45-3.14,2.56-3.36,4.03.85,3.17.65,4.64-.79,2.93-.98,4.4-1.74,2.81-1.93,4.29,2.52,3.35,2.34,4.82-.59,2.95-.76,4.42-2.33,2.77-2.48,4.24.24,3.06.1,4.53-1.04,2.94-1.18,4.4,2.41,3.25,2.29,4.71-2.92,2.79-3.03,4.25.06,3.05-.05,4.51,2.39,3.2,2.3,4.66c-.1,1.53-3.4,2.82-3.49,4.27-.09,1.54,2.03,3.17,1.95,4.61-.09,1.55-.72,3.01-.79,4.45-.08,1.57-1.05,3.02-1.11,4.44-.07,1.59,1.62,3.15,1.56,4.55s.8,2.98.74,4.5-3.79,2.79-3.85,4.31,3.18,3.09,3.11,4.61-3.13,2.81-3.2,4.32,2.64,3.09,2.56,4.6-1.77,2.86-1.85,4.37-.84,2.91-.92,4.42-.97,2.9-1.06,4.41,2.22,3.09,2.13,4.59-1.35,2.88-1.44,4.38-1.36,2.88-1.45,4.38,3.26,3.18,3.16,4.68-2.41,2.81-2.51,4.31-.95,2.91-1.05,4.4.24,2.99.14,4.48,2.36,3.15,2.25,4.64-1.63,2.86-1.75,4.35-.71,2.92-.83,4.41,1.22,3.08,1.11,4.56-3.15,2.73-3.27,4.22,2.99,3.23,2.87,4.71.19,3,.06,4.49-2.82,2.75-2.95,4.23,1.65,3.13,1.52,4.62-3.23,2.7-3.37,4.18.68,3.05.54,4.53,1.13,3.1.99,4.58-.92,2.9-1.06,4.39-2.1,2.79-2.25,4.27,2.67,3.26,2.52,4.74-2.23,2.77-2.39,4.25-.94,2.9-1.1,4.38-.39,2.96-.56,4.43,1.39,3.16,1.23,4.63-.11,2.99-.28,4.47.74,3.09.56,4.57-.84,2.91-1.02,4.39-1.55,2.82-1.73,4.29-.88,2.9-1.06,4.37.58,3.09.39,4.56-2.26,2.71-2.46,4.18-.75,2.9-.95,4.37,1.79,3.27,1.58,4.73.52,3.1.3,4.56-1.49,2.8-1.72,4.27.41,3.09.18,4.55-1.87,2.73-2.11,4.19,1.75,3.33,1.5,4.78-1.54,2.78-1.79,4.23.35,3.12.08,4.56-.6,2.95-.88,4.4-2.25,2.62-2.54,4.05,1.32,3.35,1.01,4.78-1.22,2.82-1.55,4.25-.28,3.04-.63,4.46-.63,2.91-.97,4.35-4.27,2.12-4.58,3.57,2.55,3.6,2.26,5.05-2.94,2.48-3.21,3.94-.77,2.93-1.02,4.38.28,3.1.05,4.56-.42,2.98-.63,4.44.23,3.06.04,4.53-2.32,2.76-2.48,4.23,2.09,3.24,1.96,4.71.98,3.07.87,4.54-3.74,2.76-3.83,4.24-.11,3.03-.16,4.51,1.15,3.05,1.12,4.53,0,3.01,0,4.49,2.08,2.95,2.13,4.42-1.41,3.04-1.33,4.52-1.88,3.15-1.76,4.63,1.65,2.89,1.81,4.36,2.64,2.69,2.83,4.16-3.1,3.48-2.87,4.94.21,3.06.49,4.51,2.94,2.48,3.26,3.92,1.49,2.7,1.85,4.13.74,2.86,1.16,4.28.62,2.91,1.08,4.32.35,3.02.86,4.42.12,3.17.68,4.54,2.74,2.08,3.35,3.43-.45,3.51.2,4.85,1.58,2.58,2.28,3.89.79,3.03,1.55,4.31,2.51,2,3.32,3.24.88,3.04,1.73,4.26,1.07,2.99,1.97,4.17,4.71.1,5.65,1.25.91,3.1,1.89,4.22,2.61,1.61,3.64,2.69,1.18,2.99,2.25,4.03,1.99,2.25,3.1,3.25,3.58.39,4.72,1.35.49,4.1,1.67,5.02,3.69.06,4.89.95,2.58,1.44,3.81,2.28.77,4.24,2.03,5.05,3.42.18,4.7.95,2.34,1.91,3.65,2.64,3.44-.12,4.76.57,2.82.93,4.16,1.59,2.42,1.75,3.78,2.38,2.21,2.32,3.58,2.91,2.5,1.77,3.88,2.33,2.56,1.7,3.96,2.23,3.03.44,4.44.93,2.43,2.18,3.85,2.65,2.84,1.03,4.27,1.47,3.12.05,4.56.47,2.76,1.3,4.2,1.69,3.15-.23,4.61.13,2.61,1.99,4.07,2.32,3.6-2.45,5.06-2.14,2.73,1.46,4.2,1.75,2.78,1.34,4.25,1.61,3.01.11,4.48.36,2.73,1.89,4.21,2.11,3.06-.22,4.54-.01,3.22-1.66,4.7-1.47,2.9.8,4.38.97,2.79,1.99,4.27,2.14,3.04-.38,4.53-.25,3.04-.52,4.52-.41,2.95.45,4.44.55,3.05-1.2,4.54-1.12,2.8,3.78,4.29,3.85,3.05-1.3,4.54-1.24,2.98.38,4.47.42,3-.17,4.49-.14,3.01-1.93,4.5-1.92,2.98,3.64,4.46,3.64,3-.93,4.49-.94,2.98-1.17,4.47-1.2,3,.09,4.48.05,2.99-.09,4.48-.14,2.95-1.08,4.44-1.14,2.96-.72,4.44-.79,3.1,2.05,4.58,1.97,2.86-2.4,4.34-2.49,2.99-.05,4.47-.15,3.02.35,4.5.23,2.97-.36,4.45-.49,3.21,2.34,4.68,2.21,2.75-2.86,4.22-3,2.99-.2,4.46-.35,3-.23,4.46-.39,3.21,1.61,4.67,1.44,2.76-2.32,4.21-2.5,3.06.23,4.51.04,2.99-.36,4.44-.55c1.52-.2,3.13.59,4.57.4,1.52-.21,2.9-1.15,4.33-1.36,1.53-.22,3.25,1.27,4.67,1.06,1.54-.22,2.4-2.26,3.8-2.47,1.02-1.95-.77-2.32-.29-4.47s3.79-1.41,4.27-3.57-2.74-2.87-2.26-5.03.66-2.11,1.14-4.27,3.17-1.55,3.65-3.71-1.41-2.58-.93-4.73.4-2.17.88-4.33,2.2-1.99,2.08-4.19c-1.21-.4-2.68-2.2-4.33-2.73-1.3-.42-3.14.35-4.7-.17-1.34-.44-2.85-.69-4.37-1.2-1.36-.46-2.69-1.24-4.18-1.76-1.37-.48-2.37-2.14-3.85-2.66-1.37-.49-3.63,1.31-5.09.78-1.38-.51-3.01-.49-4.45-1.04s-2.34-2.24-3.78-2.8-2.33-2.2-3.76-2.77-2.92-.73-4.33-1.32-2.71-1.26-4.11-1.86-2.42-1.92-3.82-2.54-3.39.25-4.78-.38-1.81-3.21-3.19-3.85-3.88,1.2-5.25.54-2.24-2.27-3.6-2.94-2.71-1.29-4.06-1.98-3.36-.05-4.71-.75-2.72-1.33-4.05-2.05-2.35-1.99-3.68-2.73-1.83-2.88-3.14-3.64-3.71.4-5.02-.37-2.49-1.73-3.78-2.52-1.7-2.99-2.98-3.79-2.96-.95-4.23-1.77-3.45-.25-4.71-1.09-.64-4.43-1.89-5.29-4.04.54-5.28-.34-.98-3.8-2.21-4.69-3.52-.31-4.72-1.22-2.39-1.85-3.58-2.78-2.69-1.48-3.87-2.43-.8-3.78-1.97-4.74-2.41-1.78-3.56-2.77-4.26.29-5.39-.71-1.67-2.68-2.78-3.7-1.02-3.33-2.11-4.37-3.92-.29-5-1.35-.19-4.07-1.25-5.15-3.93-.41-4.97-1.51-1.95-2.33-2.97-3.45.44-4.42-.55-5.56-4.83.18-5.81-.98-.13-3.82-1.08-4.99-2.03-2.23-2.95-3.42-1-3-1.91-4.21-1.72-2.44-2.6-3.67-3.46-1.26-4.31-2.51.02-3.62-.8-4.89-1.56-2.55-2.35-3.83-3.81-1.21-4.58-2.52-2.16-2.27-2.9-3.59.16-3.55-.55-4.88.04-3.4-.64-4.75-2.64-2.04-3.29-3.41.28-3.43-.34-4.81-2.6-2.13-3.19-3.52-2.88-2.09-3.44-3.5-.97-2.89-1.5-4.31-.92-2.9-1.42-4.34-.45-3.05-.91-4.49,1.25-3.53.82-4.99-1.74-2.61-2.14-4.08.59-3.28.16-4.77-4.13-1.92-4.57-3.4.76-3.35.31-4.83-1.02-2.83-1.47-4.3-2.55-2.36-3-3.82-.09-3.12-.54-4.58-.25-3.08-.7-4.54,1.02-3.47.57-4.93-4.46-1.77-4.91-3.23.82-3.41.37-4.87-.31-3.06-.75-4.52-3-2.25-3.44-3.7-.9-2.89-1.33-4.35,1.78-3.67,1.36-5.13-.95-2.87-1.37-4.33-2.1-2.54-2.51-4.01.29-3.21-.11-4.68-2.77-2.39-3.15-3.86,1.31-3.47.93-4.94-3.13-2.33-3.5-3.8,1.79-3.56,1.44-5.03-2.4-2.55-2.74-4.02.05-3.12-.27-4.6-.14-3.06-.45-4.55-2.79-2.54-3.08-4.02.3-3.16.04-4.64-.11-3.07-.36-4.56-1.2-2.89-1.42-4.39,2.06-3.36,1.85-4.85-2.35-2.76-2.53-4.25.15-3.08,0-4.58-1.83-2.9-1.95-4.41-.47-3.05-.55-4.55,2.17-3.15,2.12-4.66-.1-3.02-.11-4.53.07-3.03.1-4.53,1.39-2.96,1.46-4.46-3.52-3.28-3.4-4.78,1.65-2.93,1.82-4.42.66-3.03.89-4.51c.65-2.18.32-1.66,1.51-4.34.52-1.17.86-2.68,1.57-4.28.56-1.26,2.43-2.09,3.1-3.6.58-1.3,1.35-2.62,2-4.09.58-1.32-.91-3.64-.27-5.09.59-1.34,2.72-2.05,3.35-3.49.59-1.35,2.27-2.26,2.9-3.69s-.78-3.62-.16-5.04,2.91-2,3.53-3.41,1.16-2.78,1.78-4.19,1.88-2.46,2.49-3.87.67-3,1.28-4.4-.88-3.68-.27-5.08,2.91-2.02,3.52-3.42-.89-3.68-.28-5.08,1.62-2.59,2.22-3.99,3.06-1.97,3.67-3.36,2.42-2.25,3.02-3.65.54-3.07,1.15-4.46.66-3.02,1.26-4.41.02-3.3.62-4.69,3.59-1.75,4.2-3.15.77-2.98,1.37-4.37-.48-3.52.11-4.91.99-2.88,1.59-4.27,2.32-2.32,2.91-3.7.24-3.21.83-4.59,1.15-2.82,1.74-4.21.65-3.04,1.24-4.42,1.59-2.64,2.17-4.03,3.38-1.89,3.96-3.28.35-3.17.93-4.55-.71-3.61-.14-4.99,3.01-2.07,3.58-3.44,1.13-2.85,1.69-4.22c.59-1.44-1.33-3.86-.78-5.23.59-1.45,1.18-2.84,1.73-4.2.59-1.47,2.5-2.33,3.03-3.68.59-1.49.91-2.98,1.42-4.31s1.75-2.54,2.3-3.97.73-2.94,1.29-4.36-.09-3.27.47-4.68,1.36-2.71,1.92-4.12,1.56-2.62,2.12-4.04,1.36-2.71,1.92-4.12,3.17-1.99,3.73-3.4.7-2.97,1.26-4.37.37-3.11.93-4.51.35-3.12.91-4.52,2.17-2.39,2.73-3.79,2.33-2.32,2.9-3.72-1.06-3.69-.49-5.09.61-3.02,1.18-4.42,1.58-2.63,2.15-4.03-.21-3.37.36-4.76,1.76-2.57,2.33-3.95,4.21-1.57,4.77-2.95-1.42-3.87-.86-5.25.53-3.07,1.1-4.45,1.39-2.73,1.95-4.1,3.43-1.89,3.99-3.26,1.2-2.81,1.76-4.18c.59-1.44.2-3.23.77-4.59.6-1.44-.13-3.38.43-4.73.6-1.46,3.22-2.01,3.77-3.35.61-1.48.53-3.15,1.07-4.46.63-1.52.47-3.22,1-4.49.67-1.61,2.69-2.41,3.18-3.58,1.12-2.69-1.18-3.09,1.03-3.6,1.02,1.09,2.87.23,3.9,1.32s-.17,4.3.86,5.38,4.19.12,5.24,1.19.3,3.89,1.35,4.96,2.42,1.83,3.47,2.89,3.69.54,4.75,1.6,1.55,2.69,2.62,3.74.48,3.81,1.56,4.85,2.59,1.64,3.67,2.68,3.67.48,4.76,1.51,2.12,2.1,3.22,3.13.57,3.79,1.68,4.8,2.1,2.16,3.2,3.17,3.84.22,4.96,1.23,1.14,3.22,2.26,4.21,2.27,1.96,3.4,2.95,2.06,2.21,3.19,3.19,4.11-.18,5.25.79.39,4.15,1.54,5.12,1.86,2.45,3.01,3.41,4.34-.52,5.49.43.83,3.7,1.99,4.64,2.17,2.08,3.34,3.03,1.83,2.51,3,3.45,4.58-.93,5.75,0,.55,4.14,1.73,5.06,4-.27,5.19.65,2.48,1.68,3.67,2.59,1.97,2.35,3.16,3.26.93,3.75,2.13,4.64,2.5,1.66,3.71,2.56,3,.99,4.21,1.87,2.47,1.7,3.68,2.58,2.98.99,4.19,1.86,2.98.97,4.21,1.83.69,4.22,1.92,5.08,3.5.22,4.73,1.08,3.21.62,4.44,1.47.83,4.1,2.07,4.94,2.1,2.26,3.34,3.09,2.54,1.6,3.79,2.43,4.41-1.25,5.67-.43,1.99,2.42,3.25,3.23,1.77,2.78,3.03,3.59,2.08,2.31,3.35,3.12,2.68,1.38,3.95,2.18,3.84-.5,5.12.3,2.53,1.6,3.8,2.38,1.88,2.65,3.16,3.43,2.78,1.2,4.06,1.97,2.4,1.82,3.69,2.59,3.25.39,4.54,1.15,2.07,2.38,3.36,3.14,1.76,2.93,3.06,3.68,3.75-.51,5.05.23,1.94,2.65,3.24,3.39,1.94,2.66,3.25,3.4,3.35.15,4.66.88,2.44,1.79,3.75,2.51,3.23.32,4.55,1.04,1.78,3.01,3.1,3.72,3.81-.78,5.13-.08,1.93,2.75,3.26,3.45,3.04.65,4.37,1.34,2.23,2.2,3.57,2.89,2.63,1.44,3.96,2.12,2.04,2.61,3.38,3.28,3.42-.14,4.76.53,2.33,2.06,3.67,2.72,2.26,2.21,3.61,2.87,2.8,1.12,4.14,1.77,2.57,1.58,3.92,2.23,4.05-1.54,5.41-.9,2.62,1.47,3.97,2.1,1.84,3.16,3.2,3.79,3.42-.26,4.78.36,2.75,1.19,4.11,1.81,2.79,1.08,4.16,1.7,1.93,3.04,3.3,3.65,2.79,1.12,4.16,1.72,3.92-1.49,5.29-.9,1.78,3.43,3.16,4.02,3.19.17,4.57.75,2.51,1.76,3.89,2.34,2.28,2.32,3.66,2.9,2.95.72,4.34,1.29,2.45,1.93,3.84,2.49,2.99.62,4.38,1.18,3.82-1.5,5.21-.94,1.85,3.47,3.25,4.02,3.03.49,4.42,1.03,3.01.52,4.41,1.06,2.53,1.78,3.93,2.32,2.52,1.81,3.93,2.33,3.32-.32,4.73.2,3.17.05,4.58.57,2.97.59,4.38,1.1,1.78,3.91,3.19,4.41,3.72-1.51,5.13-1.01,2.18,2.83,3.59,3.33,2.77,1.18,4.18,1.67,3.11.17,4.53.66,3.17-.02,4.59.46,1.92,3.69,3.34,4.16,3.55-1.16,4.97-.7,2.25,2.76,3.67,3.23,3.35-.61,4.78-.15,2.87.86,4.3,1.31,2.59,1.77,4.01,2.22,3.3-.53,4.74-.09,2.23,2.94,3.66,3.38,2.77,1.2,4.21,1.63,2.92.72,4.35,1.14,3.19-.19,4.62.23,3.13-.03,4.57.39,3.32-.7,4.76-.29,1.89,4.28,3.33,4.69,3.24-.42,4.68-.02,2.75,1.32,4.19,1.72,3.15-.16,4.6.24,2.71,1.46,4.16,1.85,2.82,1.07,4.26,1.46,2.82,1.06,4.27,1.44,3.22-.45,4.67-.08,3.35-1.02,4.8-.65,2.62,1.82,4.08,2.19,2.61,1.93,4.06,2.29,2.59,2.03,4.05,2.38,3.58-2.06,5.04-1.71,2.58,2.09,4.04,2.43,3.25-.75,4.71-.41,2.93.61,4.39.94,3.94.88,5.4,1.21c1.31,1.82.03,2.61-.24,5.52-.12,1.25-2.7,2.5-2.88,4.23-.14,1.35,1.16,3,.97,4.62-.16,1.39-1.03,2.79-1.22,4.38-.17,1.41.45,3,.25,4.56-.18,1.42.46,3.03.25,4.57-.2,1.43-1.79,2.73-2.01,4.26-.21,1.44-1.96,2.69-2.19,4.21-.22,1.44,2.69,3.4,2.45,4.92s-4.06,2.35-4.3,3.86.93,3.15.67,4.66-.78,2.87-1.05,4.37.82,3.16.55,4.66-.38,2.95-.66,4.44-.8,2.88-1.09,4.36-1.03,2.83-1.33,4.31.98,3.24.67,4.72-2.54,2.51-2.85,3.99-1.01,2.82-1.34,4.3.16,3.09-.17,4.56-2.2,2.55-2.54,4.02-.51,2.93-.86,4.4,1.02,3.31.66,4.78-1.84,2.62-2.2,4.08-.58,2.93-.95,4.39.65,3.26.26,4.71-2.58,2.4-2.97,3.86,1.42,3.49,1.01,4.94-1.84,2.59-2.25,4.04-.05,3.1-.47,4.54-3.57,2.06-4,3.5,2.3,3.81,1.86,5.25-.36,3.03-.81,4.47-3.55,2.02-4.01,3.45,1.1,3.5.63,4.93-3.01,2.15-3.49,3.58.9,3.47.41,4.89-1.18,2.77-1.67,4.19-3.25,2.02-3.76,3.43.61,3.4.09,4.81-1.42,2.67-1.95,4.07.22,3.31-.32,4.69-1.46,2.66-2.01,4.04-.74,2.95-1.31,4.33-.98,2.86-1.57,4.23-3.6,1.71-4.2,3.07-.32,3.14-.94,4.49-.25,3.2-.89,4.54-3.38,1.7-4.03,3.04,1.41,4.05.74,5.38-1.81,2.47-2.49,3.79-3.54,1.52-4.25,2.84-1.98,2.32-2.7,3.62,1.15,4.08.42,5.37-1.32,2.72-2.07,4.01-.95,2.95-1.72,4.22-3.95,1.11-4.74,2.37.21,3.69-.59,4.94-2.08,2.24-2.9,3.48-1.38,2.7-2.21,3.93-2.04,2.25-2.89,3.47-1.79,2.42-2.66,3.63-3.2,1.37-4.09,2.56-1.63,2.51-2.53,3.69.5,4.2-.42,5.37-4.19.5-5.13,1.66-1.94,2.27-2.89,3.41.13,4.06-.84,5.18-2.75,1.62-3.73,2.73-1.94,2.32-2.94,3.41-1.4,2.83-2.42,3.91-3.45.87-4.48,1.94-1.63,2.62-2.68,3.66-3.34.88-4.41,1.91-2.16,2.06-3.24,3.07-.43,3.97-1.52,4.97-2.94,1.25-4.05,2.22-1.87,2.45-2.99,3.41-2.31,1.95-3.45,2.89-2.56,1.65-3.71,2.57-1.57,2.92-2.74,3.81-4.65-1.15-5.83-.27-.46,4.47-1.66,5.33-4.06-.51-5.26.32-2.64,1.45-3.86,2.26-1.12,3.82-2.34,4.6c-1.3.83-3.55.05-4.79.81-1.32.81-2.98.9-4.22,1.64-1.34.79-.83,4.7-2.08,5.4-1.37.77-3.22.56-4.47,1.23-1.41.75-3.57-.19-4.82.44-1.46.73-2.73,1.48-3.96,2.05-1.57.73-2.27,2.85-3.42,3.34-2.68,1.15-3.59-1.24-3.97.97s.01,2.19.31,4.5.7,2.26,1,4.57-1.06,2.49-.76,4.8-.24,2.38.06,4.69-.41,2.4-.11,4.71.74,2.25,1.04,4.56,1.14,2.2,1.44,4.51,1.24,2.19,1.54,4.5.09,2.34.34,4.66.16,2.29,1.05,4.45Z"/>
  <path d="M620.89,873.96c4.12,1.77,8.01,4.17,12.7,2.84,2.08-.41,1.69-.57-1.19-.47,1.25.56,2.51,1.07,3.8,1.55,1.38.25,2.77.46,4.16.61-2.42-1.7-3.14-2-2.14-.88-.14,2.31,8.14,5.25,9.83,5.75,4.78,1.43,8.33-.44,12.57-2.41l-5.05,1.37.95-.08-5.05-1.37c2.83,1.39,5.66,4.38,9.3,5.69,5.14,1.85,8.65-.37,13.18-2.41l-5.05,1.37.78-.06-5.05-1.37c1.55.72,4.13,2.94,6.49,3.59,2.23.61,6.4-.23,7.38-.25l-5.05-1.37c2.51,1.14,5.49,3.9,9.19,3.96,2.1.03,4.12-.57,5.99-1.48.54-.26,2.96-.91,1.55-.72h-5.32c2.5.75,4.36,1.5,7,1.84,1,.13,1.99.25,2.99.36l-1.39-.12c2.51,1.15,4.34,2.29,7.2,2.42,1.41.02,2.8-.11,4.18-.4-2.54-.61-3.17-.58-1.9.09,1.61,2.69,9.88,2.57,12.58,2.22,4.3-.55,6.53-3.37,9.63-5.92l-4.41,2.57.76-.24h-5.32c3.36.87,8.04,2.74,12.09,3.58,6.45,1.34,9.92-.99,14.77-4.86l-4.41,2.57c-.76-.06-.35-.08,1.24-.06-1.58-.79-1.58-.77.01.04,2.01.88,3.95,1.58,6.21,1.58,4.33,0,7.3-2.86,10.44-5.42l-4.41,2.57.88-.35h-5.32c-.8-.53-.63-.41.54.36,1.08.62,2.2,1.13,3.38,1.54,1.97.58,4.27.7,6.26.15,1.84-.51,3.74-1.6,5.12-2.89.58-.54,3.1-2.5,1.31-1.67l-5.05,1.37c2.27.17,5.51,1.24,8.86.12,1.33-.44,2.95-1.07,4.32-1.54,3.18-1.09-1.5-.81,1.27-.05,3.82,1.05,7.29-.21,10.77-1.65,1.54-.64,2.88-1.22,4.22-2.21.31-.23,3.49-2.61,2.05-1.85l-5.05,1.37c2.43-.21,4.91.12,7.31-.54s4.35-2.07,6.49-3.04l-5.05,1.37c3-.26,5.83-.2,8.8-.93s5.49-2.16,8.26-3.17,5.16-1.35,7.54-3.18c1.1-.84,3.1-2.99,4.11-3.13h-5.32c3.19.55,6.22,1.46,9.5.5,3.46-1.02,6.03-3.38,9.15-4.91,3.53-1.73,6.46-2.02,9.23-5.31.53-.66,1.03-1.33,1.52-2.02-1.43,1.36-1.46,1.47-.08.33,1.25-1,2.25-2.2,3.5-3.2l-4.41,2.57c3.09-1.05,8.65-1.42,12.34-3.72,2.44-1.52,5.12-3.44,6.67-5.85.64-1,1.19-2.01,1.57-3.15.11-.35,1.15-2.82.41-1.76l-3.59,3.59c-4.5,2.03.09.71,1.66.25,2.44-.72,4.44-2.04,6.03-3.99,1.12-1.37,1.85-2.76,2.32-4.52.23-1.03.38-2.07.46-3.12.22-1.87.01-1.42-.6,1.33l-3.59,3.59.88-.38-5.05,1.37c4.13-.29,8.33-.34,11.48-3.48,1.58-1.58,2.22-3.28,3.28-5.13.17-.3,1.97-2,.09-.66,2.27-1.62,4.41-1.68,6.51-3.77,1.29-1.29,2.29-3.02,3.35-4.52,2.22-3.14,5.27-6.4,6.84-9.85.88-1.92.91-3.76,1.08-5.84-.02-1.37-.13-1.54-.33-.52.32-.71.51-1.46.57-2.23.93-3.24,2.93-5.82,4.28-8.9.27-.6,2.37-6.09.65-2.93,1.05-1.92,2.43-3.12,3.29-5.17,1.79-4.27,2.16-8.15,2.45-12.7l-1.37,5.05c-.72,1.38,1.01-.79,1.31-1.1,1.69-1.82,2.86-4.11,3.16-6.58.26-2.12-.04-4.1-.8-6.11-.29-.75-.62-1.48-1.01-2.19-.76-1.16-.86-1.34-.29-.56v5.32c1.04-3.33,2.57-6.57,2.88-10.1.19-2.17-.06-4.08-.87-6.09-.14-.36-1.77-4.12-1.4-2.5v5.32l.32-.89-2.57,4.41c2.05-2.52,4.35-4.65,5.16-7.97.97-3.92.04-8.23-.54-12.11-.44-2.97-.27-6.02-1.55-8.83-.3-.65-3.13-6.27-2.19-3.13.82,2.77-.41-2.95-.51-3.44v5.32c-.24,1.46.56-1.01.81-1.5,1.16-2.29,1.67-4.75,1.32-7.3-.29-2.11-1.13-3.89-2.37-5.57-.26-.35-2.71-3.43-2.07-2.15l1.37,5.05.11-.78-1.37,5.05c2.39-4.41,4.64-7.77,2.87-13.02-.75-2.23-1.61-2.96-2.13-4.55-.38-1.17-.58-2.45-.9-3.64-.11-.39-1.28-3.18-.74-1.42-.18,1.15-.14.99.12-.49l.36-2.66c.02-1.22-.12-2.64-.42-3.81-.58-2.25-1.77-5.01-2.95-7-.6-1.01-1.41-1.95-2.24-2.76-3.55-3.41-1.54-1.67-.67.54-1.5-3.81-.31,2.48-1.21,2.26.28.07,1.59-3.59,1.64-3.78,1.36-4.77-.65-7.91-2.84-11.89-1.12-2.04-1.75-4.64-2.69-6.8-1.09-2.51-2.85-4.15-4.12-6.47.98,1.8.22.64.34-.37-.35,2.76.18-.12.3-1.25.33-2.99-.32-5.5-1.56-8.24-.97-2.14-1.9-4.38-3.6-6.07-1.53-1.53-3.53-2.34-5.24-3.58l3.59,3.59-.45-.63,1.37,5.05c.01,1.08-1.14,3.23.1,1.31.58-.9,1.08-2.27,1.37-3.32.86-3.15.1-6.35-1.35-9.18-2.18-4.27-4.82-6.76-8.64-9.58l3.59,3.59-.54-.76,1.37,5.05c-.32-2.43-.09-4.9-.7-7.32-.38-1.5-1.42-2.84-1.84-4.32-.71-2.52-.5-4.3-1.76-6.69-.73-1.39-1.74-2.54-2.44-3.94l1.37,5.05c-.36-3.5.06-6.82-.8-10.37-.39-1.64-.87-3.21-1.76-4.68.2.33-3.57-4.74-2.64-3.01l1.37,5.05c-.76,2.8-.57,2.67.56-.39.52-1.16.77-2.4.75-3.7.07-1.77-.31-3.37-.8-5.03-.93-3.22-2.74-6.15-3.58-8.4-.76-2.04-.85-4.55-2.18-6.37-1.66-2.27-.25,2.07-.54-1.1-.35-3.89-.77-7.99-1.35-11.85-.29-1.92-.77-3.86-1.4-5.71-.37-1.09-2.57-6.85-1.74-2.92s1.05-2.04,1.01-3.4c0-.11-1.03-6.99-.94-4.86,0,1.15.14,1.01.4-.43.23-1.26.37-2.53.43-3.81-.08-2.69-1.12-4.27-2.13-6.66-.84-2-1.93-6.29-2.76-9.13v5.32c-1.48,2.24-1.64,2.63-.48,1.17.68-.76,1.29-1.57,1.83-2.43.95-1.6,1.43-3.09,1.62-4.9.27-2.59-.22-4.96-1.49-7.26l-.61-.85c-1.86-2.65-2.06-2.71-.61-.18-1.16,0-.62-7.36-.6-7.86.18-3.87-1.04-7.27-1.76-10.13v5.32c.68-4.11,3.48-9.37,2.58-14.53-.36-2.07-.81-4.05-1.08-6.14-.19-1.48-.31-2.61-.75-3.94-.32-.97-1.81-2.98-1.92-3.31v5.32c.41-2.99,1.37-5.64,1.47-8.74.11-3.53-.69-6.74-1.23-10.17v5.32c.59-4,1.32-7.28.75-11.37-.33-2.33-1.61-6.05-1.92-7.48v5.32c.57-2.49,2.17-5.45,1.93-8.74s-1.24-6.77-1.83-10.16v5.32c.96-5.1,1.37-9.55,1.41-14.75.02-2.02.43-4.03.39-6.04-.06-2.78-1.94-5.23-2.53-7.12v5.32c-.23,1.01.01.2.4-.37.66-.97,1.23-2.2,1.55-3.31.59-2.06.73-4.45.8-6.6.08-2.51-.59-4.73-.95-7.16-.32-2.17-.09-4.29-.7-6.46-.32-1.14-.87-2.27-1.48-3.27-.43-.71-2.89-4.47-1.3-1s.72-1.11.24.8.32.02.68-.56c1.45-2.33,1.97-5.07,1.69-7.76-.21-2-1.7-4.6-2.03-5.76v5.32c-.32,1.59.56-.88.79-1.34,1.17-2.28,1.72-4.74,1.37-7.29-.54-3.92-2.94-6.3-5.33-9.21l2.57,4.41-.33-.89v5.32c-1.24,1.91-1.3,2.1-.18.57.4-.47.77-.96,1.09-1.49.71-1.19,1.23-2.44,1.54-3.78.08-.33-.34-10.62-1.96-9.91.14-.06.68,4.73,1.03-.23.12-1.72.02-3.22-.32-4.93-.56-2.78-1.49-5.4-2.2-8.13v5.32c.17-.97,1.25-3.14,1.58-4.71.57-2.66.06-4.91-.31-7.56-.6-4.23-2.79-6.85-5.45-10.01l2.57,4.41c-.29-.7-.23-4.47-.63-6.14-.3-1.23-.75-2.42-1.08-3.65-.21-.77-.17-3.99-.62-2.19-.48,1.91.65-1.61.68-1.79.28-1.69.37-3.47-.09-5.14-.63-2.3-2.93-5.13-3.56-6.55l1.37,5.05.11-.94-1.37,5.05c1.6-3.39,3.31-6.39,2.82-10.32-.26-2.11-1.13-3.9-2.4-5.57-.25-.33-2.84-3.37-2.19-2.12l1.37,5.05c-.49-4.74-.92-9.61-1.06-14.37-.09-3.11.21-6.03-1.36-8.92-.55-1.02-1.2-1.99-1.99-2.85-.22-.24-1.86-2.35-1.16-1.03l1.37,5.05.07-.95-1.37,5.05c1.54-3.47,3.33-6.54,2.78-10.53-.29-2.12-1.13-3.88-2.44-5.54-.42-.67-.95-1.25-1.58-1.73-2.48-2.04-2.68-2.1-.62-.2l1.37,5.05c-.88,2.79-.73,2.66.45-.4.46-1.18.69-2.42.7-3.7.08-2.27-.4-4.31-1.56-6.27-1.98-3.34-4.82-4.03-7.68-6.06l3.59,3.59-.38-.56,1.37,5.05c.01.87-1.33,3.47-.14,1.5.56-.94,1.02-2.2,1.31-3.28.78-2.92.28-6.25-1.24-8.82-.72-1.21-3.34-4.6-4.93-4.73-.83-.07,1.36,2.55.85.93-.35-1.13-1.22-2.31-1.72-3.37l1.37,5.05c-.08-1.32.63-4.21.26-6.29-.65-3.63-2.57-4.94-4.3-7.42-1.61-2.3-4.2-7.33-4.74-10.51v5.32c.76-5.55,1.32-10.25-.87-15.23-1.04-2.37-3.04-4.39-4.2-5.77-1.08-1.28-1.99-2.3-3.39-3.28-.45-.32-2.2-2.06-1.14-.82l2.57,4.41c-.94-2.24-1.78-4.52-2.71-6.76-.52-1.24-.99-2.74-1.69-3.94-.32-.54-3.31-4.54-2.37-2.69.59,1.16-.13-.86-.23-1.22-.39-1.32-.84-2.82-1.54-4.02-1.28-2.19-4.2-3.65-5.46-4.85l2.57,4.41c-.05,2.99.09,2.81.4-.55.14-.82.11-1.63-.1-2.44-.23-1.95-.92-3.51-1.81-5.27-1.89-3.75-4.01-5.78-7.15-8.4.28.23-2.57-2.35-2.54-2.33-1.32-1.05-1.31-.89.03.48,1.07,1.57,1.29,1.58.68.02-.44-2.54-2.31-6.63-3.98-8.76-1.29-1.66-2.88-2.77-4.75-3.63-.72-.34-1.46-.62-2.23-.84-1.65-.45-1.52-.32.4.4l-2.02-1.56c1.38,2.33,1.71,2.58,1.01.75-.41-1.68-1.53-3.18-2.34-4.67-1.21-2.22-2.26-4.6-3.64-6.72-1.14-1.76-2.56-3.07-4.4-4.06-1.09-.66-2.26-1.07-3.5-1.21-3.28-.59-3.54-.51-.77.23l3.59,3.59c-.29-.52-1.03-3.2-1.79-4.42-1.14-1.85-2.93-3.88-4.52-5.39-1.89-1.78-4.8-2.06-6.54-3.62,1.37,1.23.92.15.36-.75-.64-1.02-1.71-1.85-2.46-2.81-2.07-2.65-3.89-5.95-6.33-8.51-3.58-3.75-7.64-3.51-12.35-3.73l5.05,1.37-.72-.31,3.59,3.59c.99,1.57-1.33-4.34-1.19-4.07-1-1.83-2.62-3.56-4.12-5.01-1.86-1.81-3.78-3.29-6.33-3.99-1.24-.22-2.49-.37-3.75-.44-1.41.06-1.56.04-.47-.06l5.98,4.6c.57,2.79.73,3.25.48,1.38-.07-1.21-.26-2.4-.58-3.57-.56-1.82-1.67-3.71-3.01-5.05-1.11-1.11-3.89-2.78-5.47-3.03-3.36-.54,2.83,4.34-.65.13-2.1-2.55-5.04-4.23-7.53-6.33-1.76-1.48-3.31-2.85-5.53-3.58-1.46-.48-4.27-.69-4.84-.88l4.41,2.57c1.45,2.6,1.48,2.4.09-.58-.48-1.1-1.15-2.08-2.02-2.94-1.34-1.45-2.92-2.39-4.61-3.33s-3.37-1.88-5.27-2.32c-1.26-.39-2.53-.47-3.8-.23-3.34.26-3.55.43-.62.52l4.41,2.57c.39.35-2.61-2.69-3.14-3.37,1.22,1.58-2.43-3.56-2.19-3.3-1.65-1.74-3.65-2.88-5.98-3.43-1.24-.35-2.48-.44-3.73-.29-3.39.33-3.55.45-.46.38l4.41,2.57c-.79-.61-1.35-1.32-2.09-1.97-4.31-3.8-1.25-.38-.95-.58.78-.52-4.69-5.67-5.31-6.03-2.19-1.28-5.27-2.23-7.77-2.82-.48-.11-4.98-.9-3.18-.28,2.03.7-2.04-1.13-1.99-1.11-2.55-1.37-4.9-2.77-7.61-3.88-2.1-.86-.54-.74-.1-.11-.79-1.14-2.1-2.14-3.28-2.86-2.5-1.53-5.62-2.34-8.5-2.82-1.71-.28-3.2-.27-4.91.07-.64.13-3.17.12-1.48.31l7.07,2.93c.44.84.35.64-.28-.58-.61-1.06-1.33-2.05-2.15-2.97-1.39-1.44-3.23-2.55-5.14-3.16-3.51-1.1-7.45-1.69-11.01-2.47-1.61-.72-1.01-.21,1.81,1.54-.71-.97-1.46-1.92-2.24-2.84-1.91-1.83-3.98-2.73-6.52-3.26-3.44-.71-8.35-.05-10.76-.19l5.05,1.37c4.76,3.04-2.31-2.78-2.82-3.1-1.8-1.15-3.67-1.81-5.84-1.86-1.48-.04-3.2.07-4.6.62-1.66.48-1.38.61.85.39-.94-.12-1.88-.25-2.82-.38-1.11-.18-5.05-1.77-1.72.59-1.27-.9-2.09-2.15-3.5-3.02-3.86-2.39-7.48-1.12-10.64-1.08l5.05,1.37c1.53.85-3.23-3.12-3-2.98-1.68-1.05-4.14-2-6.02-2.65-5.19-1.79-8.43.76-13.03.36,1.25.06,1.02-.1-.67-.48,1.57,1.4,1.75,1.49.55.29-1.76-1.63-3.69-3.01-6.05-3.66-4.47-1.23-7.78.95-11.94.98l5.05,1.37c1.75,1.98,2.06,2.23.94.76-.56-.86-1.19-1.65-1.89-2.38-1.48-1.5-3.4-2.7-5.45-3.26-1.79-.49-4.76-.58-6.46.07-1.59.27-1.57.45.06.53,2.07.43,1.68.16-1.15-.81-3.33-1.09-6.88-.68-10.28-1.18s-6.77.38-8.91.7c-5.68.85-11.88-.07-17.13-1.66-3.12-.94-7.73-.85-10.94-.06-3.54.87-5.43,3.35-8.13,5.46l4.41-2.57-.75.24h5.32c-2.53-.54-5.93-1.91-9.41-1.95-3.28-.04-6.49-.95-9.81-1.12s-6.24,1.68-8.52,2.52c-1.37.51-3,.49-4.42.89-1.34.32-2.62.8-3.85,1.43,2.21-.27,2.36-.46.44-.57-3.26-.97-8.04-1.12-11.16-.1-.79.26-5.6,1.91-2.01,1.36-.29.05-3.82-.17-2.7-.04-3.26-.36-6.21-.81-9.53-.54-2.11.18-4.06.65-5.88,1.77.18-.11-4.63,3.54-3.13,2.79l5.05-1.37c6.06.49-3.34-1.41-3.96-1.44-2.07-.09-3.82.37-5.73,1.04-1.81.64-3.71,1.2-5.34,2.23-1.08.63-1.99,1.42-2.75,2.39-2.04,2.45-2.11,2.68-.21.69l5.05-1.37c-1.91.09-5.39-.56-8.26-.65-2.59-.08-5.02.61-7.2,2-1.09.7-2.07,1.53-2.93,2.49,1.32-.68,1.43-.84.34-.48-1.35.27-.95.38,1.19.32-.68-.29-1.38-.52-2.09-.69-2.49-.6-5.08-.45-7.44.54-3.78,1.58-5.26,4.72-7.52,7.79l3.59-3.59c1.21-.08.54.25-2.03,1,1.58.02,1.56-.02-.06-.15-1.97-.1-3.8.11-5.74.62-3.85,1-7.04,3.41-9.64,5.05l5.05-1.37c1.04.37.9.36-.41-.04-1.23-.25-2.46-.44-3.71-.56-2.02-.03-4.23.46-5.97,1.48-1.61.94-3.2,2.52-4.18,4.1-.59,1.03-1.08,2.1-1.46,3.23-.71,1.71-.46,1.37.76-1.03l4.41-2.57c1.18-.25-4.9.52-3.57.21-1.68.39-3.33,1.08-4.86,1.88l-1.35.63c1.57-.35,1.82-.48.75-.39-1.28-.66-3.69.57-5.09.9-3.21.74-6.24,1.68-8.6,4.12s-2.69,5.41-3.86,8.3l2.57-4.41-.53.56,4.41-2.57c.86-.2-4.77.39-3.7.14-1.67.38-3.11,1.06-4.5,2.06s-2.26,1.91-3.25,3.41c-.28.42-1.95,2.39-.65,1.18l4.41-2.57c-1.4.39-4.96.38-7.14,1.66-2.01,1.18-3.99,4.31-4.92,5.24l4.41-2.57c-2.2.71-6.52.88-9.15,3.41-2.38,2.28-3.14,5.25-4.28,8.19l2.57-4.41-.58.71,4.41-2.57c1.71-.54-1.15-.31-1.65-.3-1.93.04-4.23.66-5.92,1.65-1.34.78-3.68,2.9-4.32,4.48-1.08,2.68,1.84-.47-.71,1.13s-5.3,3.75-7.35,6.08c-.3.34-3.44,4.69-.97,2.3-1.06,1.03-3.21,1.83-4.5,2.65-5.16,3.28-11.24,5.93-14.3,11.6-.64,1.03-.49.9.46-.4-.71.39-1.37.85-1.98,1.38-1.5,1.12-2.61,2.18-3.57,3.87-1.05,1.87-1.54,3.78-1.54,5.92,0,.93-.4,3.79.38,1.74l2.57-4.41c-.29.29-2.15,1.77-2.14,2.11,0-.64,5.43-.92,2.36-.99-2.67-.06-5.47,1.02-7.51,2.67-2.39,1.93-3.79,4.65-4.28,7.66-.22,1.38-.17,2.41.02,3.78.01.1.35,3.84.37,1.6l2.93-7.07-.56.7c2.36-.98,4.71-1.95,7.07-2.93,1.37.07-.98-.51-1.25-.59-1.38-.41-2.8-.39-4.21-.54-1.2-.13-5.2-.63-7.4-.02-2.67.73-4.81,2.49-6.47,4.64-3.07,3.96.62-.62,1.43-.26-.78-.34-4.32,2.02-5.07,2.35l5.05-1.37c-4.84.55-9.52.62-13.98,2.97-1.19.67-2.29,1.45-3.31,2.36,2.61-.82,2.89-1.2.84-1.16-2.59-.25-5.36,1.12-7.47,2.38-3.74,2.25-8.3,4.35-10.71,8.13-.38.58-.7,1.18-.98,1.81,1.59-1.52,1.54-1.72-.17-.6-1.3.55-2.63,2.14-3.69,2.6-1.26.55-3.39.76-4.92,1.52-1.71.85-3.26,1.93-4.81,3.07-1.19.71-2.2,1.61-3.02,2.71-1.93,1.85-2.28,2.45-1.06,1.79-2.07,1.95-4.49,2.67-6.18,5.25-.6.92-3.34,5.86-1.55,3.35-1.37,1.92-2.32,3.02-4.04,4.44-3.93,3.24-4.15,7.49-4.75,12.15l1.37-5.05-.38.85,3.59-3.59c2.72-.59,3.14-.77,1.26-.54-1.22.08-2.42.27-3.6.57-2.66.81-5.21,2.62-6.63,5.04-1.18,2.01-1.89,4.74-1.67,7.06.08,1.8.2,1.61.39-.56-.68,1.38-.91,1.75-.7,1.12l4.41-2.57c-4.22,1.69-7.21,3.03-10.05,6.73s-5.4,6.79-7.23,10.91c-1.07,2.42-1.6,4.38-1.44,7.06.25,4.06.65,3.55,1.19-1.53-.86,1.05-1.67,2.14-2.44,3.25-1.51,1.99-2.95,3.61-3.71,6.05-.43,1.37-.51,4.56-.55,4.72l2.57-4.41c.99-1.19-.83.55-1.28.86-2.05,1.39-3.73,3.18-4.67,5.5-.8,1.98-1.01,3.97-.81,6.11.08.81.21,1.61.38,2.4.42,1.34.44,1.49.05.47l1.37-5.05c-.56.75-2.99,3-3.86,4.85-.77,1.63-1.65,3.43-2.18,5.15-.29.94-1.44,6.37-.15,3.05,1.17-3.01-1.7,1.73-1.78,1.86-.8,1.26-1.33,2.68-1.79,4.09-.38,1.17-.78,2.4-1.05,3.6-.29,1.27-2.08,5.77-.13,2.92l3.59-3.59c-2.91,2.25-5.79,3.94-7.29,7.51-.84,2.01-1,4-.68,6.13.02.84.21,1.64.56,2.4,1.13,3.04,1.31,3.2.56.47l1.37-5.05c-2.23,3.79-5.29,6.91-3.95,12.43.17.71.4,1.4.69,2.07.05-2.4-.09-2.56-.44-.47-.1.14-2.42,5-1.69,3.84l3.59-3.59c-3.89,3-7.69,4.77-8.52,10.2-.35,2.3.17,4.24.72,6.45.48,1.9-.03-1.92.14.55.08,1.23,0,2.59-.1,3.82l1.37-5.05c-.8,1.89-1.98,3.52-2.8,5.43.51-1.19,1.17-1.71-.03-.38-1.14,1.26-1.99,2.66-2.57,4.26-1.74,4.79.22,8.61-.17,13.18l1.37-5.05c.71-.66.58-.54-.4.35-.85.86-1.61,1.79-2.28,2.8-1.07,1.74-1.76,3.83-1.76,5.88,0,1.92.55,4.16,1.47,5.83.42.77,1.69,3.75,1.41,1.86v-5.32c-.94,5.39-2.51,10.33-3.23,15.81l1.37-5.05c.56-1.14-1.16.93-1.38,1.17-1.3,1.39-2.48,3.41-2.98,5.25-.46,1.68-.52,3.85-.06,5.53.02,1.57.16,1.77.4.59-.22.72-.4,1.45-.53,2.19-.58,1.73-2.44,4.9-2.44,7.68,0,1.98.62,4.28,1.55,5.98.21.39,1.47,3,1.15,1.49v-5.32c-.3,1.85-.5,3.77-1.2,5.52l2.57-4.41c-1.71,2.21-3.59,4.29-4.4,7.03-.67,2.27-.16,4.32-.46,6.55-.38,2.9-1.55,5.14-.84,8.23.31,1.34.77,2.61,1.5,3.8.24.39,1.08,2.24.79.91v-5.32l-.35.88,2.57-4.41c-3.34,3.83-5.44,6.68-5.65,11.96-.09,2.16-.08,4.5.56,6.58-.08-.26,2.52,5.54,2.09,3.73v-5.32l-.29.75,2.57-4.41c-2.32,2.6-4.83,4.28-5.77,7.94-.51,1.98-.37,4.27.17,6.25-.08-.29,2.18,5.66,1.77,3.68v-5.32c-.56,3.74-2.26,7.77-2.26,11.55,0,2.05.65,4.43,1.59,6.23.69,1.62.74,1.55.16-.21.14,3.21.37,3.54.69.99l2.57-4.41c-.72.72-.74.8-.08.25-.94.7-1.87,1.42-2.77,2.18-1.59,1.58-2.8,3.49-3.35,5.68-.73,2.84-.21,5.9,1.22,8.45.71.94,1.42,1.86,2.14,2.79,1.21,1.4,1.12.96-.26-1.31v-5.32l-.26.72,2.57-4.41c-2.18,2.63-4.63,4.46-5.52,8.01-.52,2.08-.35,4.18.25,6.21.32,1.23.87,2.33,1.66,3.31,1.83,2.59,2.06,2.72.66.39v-5.32c-.13.45-1.48,3.03-1.85,4.37-.6,2.16-.93,4.43-1.45,6.61-.64,2.68-1.16,5.24-.43,7.98.3,1.14.8,2.27,1.38,3.3.25.45.94,2.19.65.85v-5.32c-.98,3.63-3.25,7.55-3.25,11.42,0,1.89.65,4.16,1.57,5.8.71.94,1.43,1.88,2.15,2.8,1.22,1.41,1.15.99-.21-1.27v-5.32l.96-1.84-1.56,2.02c-.75,1.16-1.33,2.36-1.76,3.69-.76,2.32-1.45,5.08-1.55,7.5-.1,2.26-.01,4.95.49,7.14.31,1.33.79,2.58,1.5,3.76.25.41,1.04,2.2.75.88v-5.32c-.32,1.16-1.91,5.01-2.33,7.29-.33,1.76-.56,3.48-.46,5.26l.36,2.66c.49,1.9.72,1.52.69-1.16l2.57-4.41c-3.17,3.69-6.34,6.46-5.75,11.9.26,2.41,1.22,4.38,2.69,6.28.52.67,2.53,3.73.75.21-1.63-3.21-.64-.47-.67-.4l2.57-4.41c-2.07,2.43-4.29,4.59-5.18,7.78-1.02,3.7,1.05,7.24,1.52,9.93v-5.32l-.29.72,2.57-4.41c-2.25,2.52-4.67,4.42-5.65,7.87-1.14,4.03.7,8.18,1.03,12.13-.3-3.53-.12.22-.57,1.36-.2.5-1.87,2.76-2.25,4.27-.51,2.05-.4,4.23.22,6.24.34,1.23.89,2.35,1.65,3.35,1.85,2.56,2.06,2.72.64.47v-5.32s-1.66,2.31-1.97,3.17c-.46,1.29-.88,2.66-1.19,4-.72,3.06-1.27,6.57-1.09,9.7.05.85,1.15,3.98,1.08,3.49.16,1.17-.21,2.54-.22,3.73-.01.71.46,5.78.49,4.52.04-1.85-.86,3.22-.57,2.4-.68,1.97-2,4.8-2.55,7.33-.41,1.89-.71,3.7-.62,5.63.11,3.25.37,3.54.8.87.87-2.5.5-2.43-1.12.24-1.63,2.79-2.71,7.3-2.76,10.48s1.56,5.96,2.84,8.87l-1.37-5.05c.12.81.16,1.62.13,2.43.29,3.27.43,3.55.41.84-1.13,2.52-2.17,5.15-1.86,7.99.36,3.32,1.29-1.06-.17,1.12-1.32,1.99-1.79,4.74-1.68,7.04-.06,1.3.2,2.51.77,3.64,1.29,3.81,1.54,3.14.74-2.01-1.23.83-1.83,5.38-1.89,6.46-.08,1.56-.15,3.31-.15,4.85,1.27-1.25,1.34-1.23.22.06-.8.73-1.4,1.57-1.8,2.54-1.22,2.16-1.66,4.28-1.53,6.73,0,1.36.26,2.66.79,3.9.77-3.29.58-3.32-.57-.1-.64,1.9-.73,3.56-1.07,5.56-.05.6-.18,1.18-.37,1.76-.79,2.6-.08,2.09,2.12-1.51-.07-.18-4.29,2.85-4.42,2.99-1.29,1.32-2.42,3.23-2.91,4.99-1.29,4.69,1.18,8.1,3.18,11.98l-1.37-5.05.09.78,1.37-5.05c.59-1.17-.44.26-.86.7-.81.85-1.57,1.8-2.15,2.82-1.4,2.45-2.06,5.73-2.42,8.52-.27,2.1-.05,4.13-.2,6.2-.14,1.93-.05,5.74-.61,7.08l2.57-4.41c-3.16,4.07-5.94,7.88-4.53,13.34.46,1.78,1.3,3.22,2.21,4.77-.67-2.54-.71-2.21-.14.99.39.97.62,1.98.68,3.03l1.01-7.71c1.84-1.55,2.24-1.92,1.21-1.11-.83.63-1.65,1.27-2.47,1.91-1.22,1.13-2.06,2.44-2.77,3.92-1.3,2.72-1.47,6.09-1.33,9.08.12,2.59.93,4.99,1.12,7.53.14,1.81.15,3.51.7,5.26.29.95,1.7,3,1.8,3.3v-5.32c-.87,4.95-4.45,8.97-3.1,14.46,1.12,4.56,3.67,8.28,6.86,12.08l-2.57-4.41.35.85v-5.32c1.42-2.18,1.55-2.53.39-1.07-.78.9-1.48,1.85-2.1,2.85-1.3,2.38-1.47,4.68-1.34,7.33.25,5.1,1.48,8.98,5.3,12.42-1.19-2.21-1.13-1.88.19.96.49.45.72,1.05.67,1.78.6,1.87,1.02,3.82,1.47,5.73.94,4.03.9,9.11,2.94,12.77.72,1.01,1.46,1.99,2.24,2.96,1.63,1.58,1.57.87-.17-2.14-.8-.22,1.26,7,1.48,7.45,1.79,3.6,3.25,8.25,6.12,11.09.61.51,1.22,1.02,1.84,1.52-1.26-1.33-1.17-.76.27,1.72.85,1.83,1.53,3.84,2.62,5.54,1.54,2.41,3.9,4.2,6.64,5.02,1.21.22,2.43.4,3.65.53,1.91.18,1.56-.06-1.05-.72l-3.59-3.59c.5.9,1.91,4.66,3.46,6.24.3.31,4.39,3.84,2.71,1.61.56.74.8,1.83,1.29,2.64,1.45,2.38,3.78,4.83,6,6.51,1.27.96,2.66,1.76,4.21,2.22,1.71.51,5.87,2.09,1.53-.09l-3.59-3.59c-1.21-1.77-.02,1.26.21,2.01.82,2.68,2.64,5.14,5.05,6.6,2.19,1.33,4.47,1.51,6.93,1.84,1.74.05,1.48.02-.79-.1,1.36.81,1.71.99,1.03.53l-2.57-4.41c1.09,3.22,1.57,6.29,4.11,8.85,2.08,2.1,5.25,3.19,8.15,3.31l1.26.11c-2.99-1.17-3.08-.87-.28.9,3.19,2.15,7.23,2,9.76,2.99,3.18,1.25,4.18,2.87,6.82,4.68s5.79,3.7,8.79,5.17c1.79.88,3.41,1.37,5.36,1.6-1.33-1.15-1.37-1.19-.1-.12.9.87,1.91,1.57,3.03,2.11,3.69,1.94,7.36,2,11.21,2.94,1.45.36,2.74,1.33,4.2,1.69,2.43.59,4.82.31,7.26.49l-5.05-1.37c3.31,1.48,5.47,3.7,9.51,3.65,3.72-.04,5.87-1.91,8.94-3.4l-5.05,1.37c-1.88-.39-1.97-.29-.29.3.85.38,1.72.72,2.61,1.02,1.17.46,2.32,1.02,3.54,1.37,1.57.45,3.23.64,4.86.75,3.49.24-1.25-1.16,1.08.55,2.51,1.85,6.22,1.81,9.15,1.7,3.14-.11,6.52-1.42,8.87-1.79h-5.32c2.9.59,4.01,1.16,6.37,2.23,3.1,1.41,6.16,1.22,9.46.98,2.75-.19,4.79-.24,7.48-.02,3.11.26,5.7-.91,8.68-1.31l-7.71-1.01c-1.53-1.83-1.9-2.23-1.09-1.2.64.83,1.27,1.65,1.91,2.48,1.46,1.52,3.1,2.62,5.12,3.28,3.59,1.17,5.57-.27,8.89-.54,1.48-.12,4.37.38,6.5.26,1.78-.1,3.55-.14,5.28-.68.98-.31,2.91-1.51,3.37-1.63h-5.32l.75.27-4.41-2.57c2.66,2.41,4.37,4.98,8.13,5.93,4.09,1.03,8.09-.84,12.04-1.54,2.73-.48,5.71-.09,8.53-.33,3.91-.33,7.66-1.71,11.54-2.3h-5.32c1.18.3,2.96,1.6,4.58,1.97,2.98.67,5.93.18,8.59-1.29,1-.68,1.96-1.4,2.89-2.17-3.53,1.06-4.03,1.47-1.5,1.23,1.57.26,3.62.14,5.24.15s5.53.61,2.02-1.07c1.79.85,3.15,1.99,5.2,2.45,5.6,1.28,9.19-1.81,13.09-5.22l-4.41,2.57s3.25-.15,4.16-.48c1.89.15,1.98-.15.26-.9,1.18.55,2.37,1.07,3.57,1.55,5.68,1.68,9.79-1.11,14.02-4.45l-4.41,2.57c.66-.27,3.31-.11,4.42-.22,2.33-.23,3.65-.16,6.02-.02,2.62.15,4.64-.98,7.06-1.26-3.81.44,1.98.95,2.88.97,4.46.08,9.01-2.93,11.43-5.35,2.02-2.02,3.25-5.22,3.25-8.08,0,.93-.48-5.96-.61-3.46l-1.37,5.05.45-.86-3.59,3.59c-1.02.19-.94.09.22-.29,1.17-.29,2.23-.81,3.15-1.55,2.44-1.59,4.27-4.01,5.05-6.84s.34-6.1-1.04-8.68c-.52-1.04-1.19-1.99-2.01-2.83-.81-.89-.87-.97-.19-.25l1.37,5.05c.04.99.15-.54.31-.88.96-2.06-4.29,3.49-1.56,2.01s4.84-4.48,5.65-7.42.45-5.9-.76-8.49c-1.76-3.77-.8,4.43.27,1.59.39-1.03.44-2.17.85-3.22l-2.57,4.41c2.75-3.52,4.05-5.55,4.6-10.21.39-3.31-2.16-7.11-4.95-8.63-3.25-1.78-5.42-3.81-9.38-4.1-2.54-.19-4.29-.28-6.75-1.18l-2.39-1.01c1.39.94,1.44.9.15-.1-1.27-1.14-2.67-2.03-4.25-2.64-2.03-.79-3.96-.99-6.1-.74-.38.04-5.16.89-2.55.73s-2.4-.79.46.43c-1.34-.57-2.71-2.06-3.94-2.98-1.51-1.13-4.86-3.3-7.56-4.24s-4.68-1.83-7.15-3.45c-2.89-1.9-6.27-1.72-8.47-2.19l4.41,2.57c1.19.95-.56-.76-.9-1.24-1.43-2.07-3.17-3.69-5.51-4.68-3.79-1.6-7.04-.59-10.82.18h5.32c1.75,1.2,2.17,1.39,1.25.56-.44-.45-.92-.85-1.44-1.2-1.07-.85-2.11-1.46-3.31-2.09-2.8-1.46-5.66-2.86-8.87-2.99-2.82-.12,1.7,1.36-1.25-.43-.58-.35-1.19-.62-1.75-.98-2.06-1.81-2.6-2.18-1.64-1.11.64.78.53.59-.33-.59-.97-1.4-2.04-2.6-3.44-3.59-1.95-1.38-6.06-3.35-8.57-2.32-.86.04-.74.1.36.21,1.36.36,1.25.12-.34-.72l.83.87c-.41-.75-.89-1.45-1.45-2.1-2.08-2.66-4.56-3.84-7.64-5.1-2.1-.86-6.18-1.73-7.34-2.16l4.41,2.57-.49-.62,2.57,4.41c-1.03-3.4-1.29-6.39-3.98-9.08-1.43-1.43-3.38-2.34-5.32-2.85.28.07-6.26-.67-4.37-.06l4.41,2.57-.58-.74,2.57,4.41c-1.8-5.03-3.46-9.47-9.15-11.16-1.17-.35-2.59-.68-3.84-.66-1.37.03,2.08,1.28,1.08-.08-1.39-1.91-4.55-3.16-6.49-4.46l3.59,3.59c.55.77.08.22-.1-.54-.27-1.14-.75-2.43-1.33-3.43-1.37-2.36-3.37-3.79-5.48-5.43-3.89-3.02-7.29-3.05-11.92-3.45l5.05,1.37c1.64,1.79,1.92,1.93.84.42-1.78-2.51-2.04-2.73-.8-.66-.76-1.49-1.12-3.14-2.06-4.58-1.17-1.8-2.57-3.02-4.42-4.02-1.08-.67-2.24-1.07-3.47-1.19-3.31-.6-3.54-.51-.69.28l3.59,3.59c2.69,5.11-.51-3.73-.82-4.3-.97-1.84-2.2-3.33-4.02-4.44-1.33-.81-2.79-1.34-4.29-1.69-3.67-.65-3.55-.45.35.61-1.14-1.12-1.39-1.46-.73-1.01l1.37,5.05c-.22-4.33.26-8.49-3.16-11.91-1.61-1.61-3.64-2.57-5.83-3.06-1.2-.27-2.42-.4-3.64-.37-1.95-.05-1.4.24,1.64.88l3.59,3.59-.39-.85,1.37,5.05c-.37-3.05-.29-5.97-1.86-8.76-.72-1.28-1.7-2.52-2.74-3.6-2.49-2.58.1,1.64-.76-1.08s-2.54-4.87-4.15-7.06c-1.31-1.77-2.38-3.03-4.29-4.2-1.43-.87-5-3.42-1.58-.33l2.57,4.41c-.21-.63-.32-3.41-.8-4.89-.66-2-1.82-3.82-2.97-5.58-1.29-1.97-2.64-3.62-4.68-4.86-1.14-.48-2.28-.96-3.41-1.44,2.71,2.62,2.92,2.59.64-.1.5,2.5.73,3.04.68,1.61.05-1.11-.07-2.22-.35-3.31-.19-1.43-.13-2.53-.63-4.76s-1.43-3.9-2.86-5.54c-.43-.68-.98-1.25-1.66-1.69.84,3.43,1.23,3.99,1.18,1.69.11-4.54-2.61-7.17-4.78-9.71-.54-.64-3.56-5.37-4.89-5.01,1.14-.31,2.79,5.08.96-.41-.63-1.88-1.03-3.98-1.77-5.81-.21-2.15-.32-2.03-.34.35l.37-1.06c2.15-5-.93-9.44-2.91-13.75l1.37,5.05c-.17-2.47.55-7.02-1.56-10.38-1.93-3.07-4.74-3.83-7.43-5.85l3.59,3.59-.37-.58,1.37,5.05c-.02-.29.39-3.36.31-4.83-.13-2.42-.97-4.71-1.83-6.96-.38-1.2-.91-2.33-1.6-3.38-.7-1.08-1.52-2.06-2.47-2.93,1.28,2.96,1.53,2.76.77-.58-.09-.57-.18-1.14-.28-1.71-.91-6.44-.91.45-.06-2.78.75-2.88.41-6.29-1.05-8.89-1.1-1.96-2.75-3.48-4.68-4.6-1.08-.5-2.17-.97-3.28-1.41.79.36.74.28-.15-.25l3.59,3.59-.39-.56,1.37,5.05c-.14-2.49.28-7.06-.44-10.54-.53-2.57-1.53-4.78-3.35-6.71-.88-.82-1.82-1.58-2.81-2.27,1.79,2.73,2.38,3.26,1.77,1.61-.42-1.75-.67-.94-.73,2.41.52-1.13.99-2.28,1.41-3.45.59-2.38.41-4.65-.21-6.99-1.01-3.82-3.14-6.88-4.66-10l1.37,5.05c-.27-3.39.26-6.57-1.48-9.73-.56-1.01-1.23-1.99-2.01-2.84-.22-.25-1.85-2.34-1.15-1.01l1.37,5.05c.07-2.52,1.4-5.44.07-8.79-.62-1.56-1.35-2.77-2.54-4.03l-.82-.73c-2.47-2.03-2.68-2.1-.64-.23l1.37,5.05c-.2,4.34.65,0,1.04-1.42.43-1.57.47-3.35.23-4.94-.48-3.18-2.82-5.52-3.93-7.74l1.37,5.05c-.34-3.47-.21-7.04-.9-10.47-.42-2.11-1.11-3.85-2.38-5.58-.29-.4-2.52-3.49-1.89-2.17l1.37,5.05c-.1-2.58.04-5.1-.18-7.69-.16-1.87-1.54-6.12-1.44-6.84l-1.37,5.05c1.44-2.92,3.1-5.56,3.1-8.96,0-4.1-2.64-7.2-5.02-10.24l2.57,4.41c-.51-1.25-.02-4.02-.44-5.66-.3-1.17-2.72-6.21-1.77-3.27l-.36-2.66-.66,2.81c.28-.01,1.05-1.62,1.19-1.88,1.38-2.62,1.58-5.32,1.51-8.23-.02-1.01-.04-2.01-.04-3.02,0-.35-.21-3.44-.26-1.61-.03,1.45.43-.95.69-1.65.49-1.29.81-2.25.94-3.64.52-5.62-2.78-8.41-5.93-12.41l2.57,4.41-.21-.77v5.32c.61-2.18,1.99-5.99,2.71-8.94.58-2.36.92-4.66,2.47-7.06-1.77,2.74,1.69-1.26,2.01-1.75,1.06-1.59,1.89-3.36,2.69-5.11,1.84-4.05,1.16-7.6.58-11.84v5.32c-1.16,1.96-1.08,2.27.23.93.78-.98,1.54-1.97,2.27-2.99-.98,1.23,3.52-4.67,2.26-2.7,2.37-3.72,1.42-7.82,1.84-11.07l-1.37,5.05c-2.76,3.8.49.31,1.42-.62.77-.77,1.55-1.84,2.11-2.79,1.39-2.37,2.49-4.99,3.88-7.4,3.14-5.46,3.13-10.93,2.27-16.92v5.32c-2.76,3.13-3.17,3.88-1.24,2.25.62-.46,1.22-.94,1.8-1.43,1.32-1.33,2.59-3.38,3.11-5.17.95-3.24.04-6.28-.43-9.47v5.32c.06-.38,1.31-2.46,1.92-3.28l-3.59,3.59c3.82-2.94,7.43-5.8,9.72-9.85,2.62-4.63,3.05-10.86,4.04-15.95l-2.57,4.41c-.79.94,1.23-.64,1.56-.85,1.62-1.05,3.21-2.63,4.2-4.32,1.51-2.58,2.49-6.26,2.75-9.25.13-1.54-.12-2.32.02-3.13.23-1.36,1.57-2.85.2-1.01.98-1.32,2.2-2.42,3.02-3.87,1.35-2.4,1.08-3.97,1.72-6.55.55-2.25,1.72-4.65,2.48-6.86.29-.84.84-1.68,1.09-2.49-1.75,1.06-1.89,1.16-.41.31l.89-.61c3.92-2.69,5.19-6.37,5.91-10.87.39-2.45.22-6.44.41-8.03l-1.37,5.05c-2.6,3.69.55.26,1.48-.67.76-.76,1.54-1.83,2.1-2.77,1.54-2.63,3.06-6.72,3.11-9.75.02-1.43-.19-2.86-.58-4.24-1.1-3.91.79,2.59.28.03.45-1.09.39-.93-.19.46l.88-.86c1.45-1.24,2.54-3.63,3.19-5.35,1.8-4.78,4.33-9.03,5.25-14.16,1.28-7.14-1.05.8.51-3.51.43-1.19,1.1-2.29,1.68-3.4,1.18-2.24,2.05-4.85,3.53-6.89l-3.59,3.59c4.47-3.38,7.05-6,8.59-11.54.68-2.45,1.29-4.95,1.75-7.44l.36-2.66-1.01,2.14c-.1-.69,2.25-2.93,2.64-3.42,2.89-3.76,5.3-7.69,4.21-13.38-.56-2.94.34-.6-.07.23.28-.57.12-1.36.42-1.93,1.46-2.71,3.23-5.62,3.04-8.86-.13-2.3.18-.16-.49.09l.87-1.28c-3.11,1.69-3.89,2.22-2.35,1.58,2.21-.29,4.88-2.31,6.28-3.84,2.4-2.6,3.22-5.91,2.83-9.36-.15-1.33-.48-2.32-.89-3.59.48,1.49-.03,2.37.47.28.09-.39.53-3.11,0-1.37-.9.52-.98.57-.22.15.49-.26.96-.55,1.41-.88,2.62-1.78,4.03-4,5.26-6.91s1.92-5.14,2.37-8.16c.08-.53.23-1.04.31-1.56.27-1.08.39-2.18.35-3.28.05-1.29-.15-.85-.6,1.32l-3.59,3.59c2.48-1.87,5.15-3.38,6.78-6.15,1.55-2.62,1.97-6.25,2.61-9.18.38-1.74-1.4,1.13.46-.5,1.34-1.18,2.65-3.59,3.18-5.24.93-2.9.56-5.46.03-8.35l-1.01,7.71.23-.31-5.98,4.6.76-.26c-2.57-.34-5.14-.67-7.71-1.01,1.03.64,2.12,1.15,3.28,1.52,1.16.35,1.37.28.62-.21l-3.59-3.59.35.7-1.37-5.05c.42,3.88.08,7.41,2.66,10.74,1.49,1.92,3.53,3.28,5.87,3.97,1.18.22,2.37.4,3.57.52,1.86.18,1.4-.07-1.4-.72l-3.59-3.59c-.79-2.86-.89-2.64-.28.67.13,1.23.53,2.39,1.19,3.46,1.05,1.98,2.47,3.24,4.15,4.62,1.34,1.09,2.62,2.33,4.15,3.16-.36-.19,5.72,2.16,3.95,1.13l-3.59-3.59c.6.79,1.06,1.79,1.7,2.54,1.62,1.9,1.18-.15.4-.85.51.46.73,4.01,1.09,4.9.49,1.2.94,2,1.76,3.01,2.53,3.12,7.63,6.89,11.79,7.1-1.19-.06-2.09-1.54-.44.2-.65-.68-.95-2.41-.57-.41.44,2.34,1.76,4.49,3.32,6.25s3.54,3.74,5.65,4.94c1.03.59,2.21,1.01,3.34,1.3,1.43.36,5.16,1.69,1.2-.28l-3.59-3.59c.46.65,1.85,3.78,3.04,5.23,1.55,1.87,3.52,3.3,5.26,5.01,2,1.97,3.77,3.8,6.53,4.71,1.34.45,2.67.62,4.1.75.67.06,2.32.53,1.15.04l-5.98-4.6c-.4-.61-.57-3.85-.48-1.47.07,1.84.4,3.14,1.08,4.75.99,2.32,2.76,4.35,4.47,6.18s3.73,3.27,6.17,3.97c1.31.37,2.8.36,4.14.33,1.09-.03,2.07.39.62-.2l-5.98-4.6c-.77-1.08.08.45.28.99.47,1.3.97,2.51,1.71,3.65,1.42,2.19,3.53,3.53,5.3,5.37,2.34,2.44,3.85,4.82,7.39,5.83,1.34.38,2.66.49,4.03.44l2.66-.36c1.93-.29,1.49-.36-1.32-.21l-5.98-4.6c-.92-1.28-.27-.28-.07.65.29,1.29.69,2.62,1.34,3.78,1.55,2.76,4.25,4.78,7.31,5.56,1.36.35,2.97.46,4.37.35.9-.03.8-.06-.32-.1-1.36-.25-1.26,0,.32.78.46.6,2.32,2.27.98.72-1.06-1.24.05.47.36,1.34,2.14,6.02,7.63,8.28,12.81,11.02.84.44,2.99,2.13,4.63,3.04,1.12.62,2.35,1.02,3.52,1.52,1.29.56,4.73,3.54,2.66.88l-2.57-4.41c1.29,4.04,1.97,8.06,6.03,10.44,2.47,1.45,4.74,1.29,7.41,1.91-2.45-.64-2.2-.43.75.65,1.79.57,1.62.24-.52-.97l-2.57-4.41c.74,2.04.96,4.21,2.08,6.13,1.47,2.51,4.14,4.76,6.42,6.5s4.82,3.57,7.57,4.32c1.39.38,2.65.41,4.02.33l2.66-.36c1.9-.37,1.44-.54-1.4-.5l-4.41-2.57c6.11,5.24,12.39,16.41,22.62,15.27,2.11-.23.19-.02-.65-.49,3.56,2.03-.41-1.09.89.2,2.1,2.08,3.42,4.07,6.14,5.51,2.24,1.19,4.21,2.64,6.41,3.87s4.61,1.31,6.93,2.16l-4.41-2.57c2.69,2.13,3.61,4.07,6,6.42,1.64,1.62,3.49,2.67,5.73,3.2-.45-.11,6.41.58,4.15-.01l-4.41-2.57c3.88,3.29,6.18,8.04,11.45,9.52,1.38.39,3.13.14,4.44.63-2.27-.85-.73.49.4,1.17,2.15,1.29,6.42,2.06,7.57,2.45l-4.41-2.57c1.82,1.67,3.34,4.52,6.32,5.78,1.56.66,3.01,1.02,4.77,1.06s6.29.37,1.56-.63l-4.41-2.57c1.44,1.21,3.92,4.28,6.48,5.52,1.33.64,2.83.77,4.13,1.35-3.34-1.48,1.59,1.68,1.67,1.74,1.87,1.27,3.41,1.96,4.95,3.31,2.71,2.38,5.66,4.46,9.49,4.37,3.08-.07-2.34-2.41,0-.02-.18-.18,3.12,2.37,2.04,1.5,2.72,2.17,4.87,3.22,7.97,4.76,2.41,1.2,4.4,2.74,7.09,3.35,3.47.78,5.95-.42,9.17-1.13h-5.32c-1.53-.22,2.9.86.56-.22-1.03-.47-.34-.38.39.63,2,2.77,4.14,4.81,7.56,5.71.74.2,3.2.9,3.85.45,1.08.05.86-.15-.66-.6l1.37.6c1.93.82,5.27,2.11,6.27,2.86l-3.59-3.59c2.98,3.93,5.27,6.34,9.92,8.27,2.09.87,4.05,1.63,6.38,1.58,1.29-.05,2.55-.27,3.77-.67,1.38-.45,1.57-.55.57-.31l-7.07-2.93c-.43-.86-.33-.7.28.5.63,1.04,1.35,2.02,2.15,2.93,1.83,1.9,4.09,2.95,6.63,3.49,3.34.7,1.65-.34,4.58,1.75.45.32,2.37,2.2,3.66,2.9,1.81.98,3.85,1.18,5.64,2.06,2.19,1.09,3.92,2.41,6.37,3.16,2.05.62,4.4,1.22,6.54,1.16-.25,0,6.2-.88,4.27-1.01l-7.07-2.93c-.39-.88-.28-.71.34.5.65,1.03,1.37,2.01,2.17,2.94,1.4,1.44,3.24,2.53,5.15,3.15,3.38,1.09,6.63,1.22,9.71,3.04,3.79,2.24,6.87,3.98,11.39,4.2.93.04,6.65.18,7.51.83l-3.59-3.59c1.88,2.9,2.9,5.7,6.15,7.53,1.79,1.01,3.93,1.43,5.99,1.41-.32,0,6.25-.97,4.19-1.05l-5.05-1.37c-1.75-1.1,3.17,3.07,2.81,2.84,1.62,1.03,3.48,1.62,5.26,2.33,2.13.85,3.94,1.17,6.24,1.47,1.3.17,6.4,2.1,3.22-.09l-3.59-3.59c1.98,2.74,3.13,5.55,6.29,7.31,1.78.99,3.94,1.44,5.97,1.43-.37,0,6.25-.61,4.04-.76l-5.05-1.37c-1.45-.86.69,1.04.86,1.2.82.78,1.83,1.48,2.82,2.03,1.79,1.01,4.12,1.49,6.19,1.47l2.66-.36c1.49-.26,1.65-.26.49,0-1.62-.78.87.59,1.09.72,1.25.78,2.45,1.53,3.85,2.04,3.22,1.17,5.44.47,8.59.78l-5.05-1.37c-1.66-1.82-1.87-1.97-.64-.45.45.63.94,1.23,1.48,1.79,1.63,1.59,3.14,2.21,5.21,3.05,2.57,1.05,5.11,1.98,7.84,2.58,5.56,1.22,12.82.61,17.33.89l-5.05-1.37.56.37-3.59-3.59c2.36,3.32,3.4,6.66,7.55,8.41,1.67.7,3.56,1.05,5.39.95.62-.03,2.37,0,.88-.28,1.31.25,2.49,1.2,3.8,1.54,1.61.42,3.34.24,4.96.48,1.83.27-1.38-.96,1.2.54.99.58,2.23.91,3.31,1.3,2.1.77,4.25,1.57,6.39,2.21,4.59,1.38,9.87.08,13.55.09l-5.05-1.37c3.52,1.51,6.87,3.74,10.16,5.68,6.07,3.58,10.18,2.31,16.21-.44l-5.05,1.37.94-.08-5.05-1.37c4.5,2.07,7.46,4.56,12.89,3.48,1.71-.29,1.61-.33-.29-.12.98.2,1.95.4,2.93.62,1.8.39,3.6.81,5.4,1.21l-5.98-4.6.5,1-1.37-5.05.19-.81c-.58,1.37-.47,1.53.33.48.79-.82.87-.91.25-.27-.28.26-.54.54-.75.86-1.95,2.46-3.64,5.23-3.64,8.5,0,.81.04,3.77.67,4.29.19.82.28.76.26-.18.17-1.25.02-1.01-.44.7-.85,2.68-.63,5.24-.48,7.97.06,1.22,0,2.37.22,3.58.53,3.12,1.47-2.47-.22-.13-1.27,1.76-1.87,3.71-2.66,5.42-1.23,2.65-1.63,5.5-.79,8.37.32,1.09.88,2.23,1.48,3.21s1.06,2.39.85.95l1.01-7.71c.35-.7,3.12-2.5,1.01-1.43-.99.51-2.04,1.34-2.83,2.09-1.59,1.51-2.9,3.44-3.49,5.58-.72,2.62-.06,5.04.34,7.62-.24-1.53.15-1.8-.38-.07-.47,1.49-.69,3.16-.68,4.7,0,.9-.06,3.1.5,3.81.14.84.19.79.15-.16.06-1.2,0-1.01-.16.58-.36,1.78-.7,3.52-1.17,5.28-.56,2.13-1.39,4.18-1.68,6.38-.25,1.88.48,5.3.49,6.05l1.37-5.05c.67-1.45-.52.68-.9,1.12-1.63,1.91-2.33,3.61-3.17,5.97-1.3,3.67-1.35,6.98-1.66,10.8l1.37-5.05c-1.03,2.19-3.32,5.26-3.97,8.61-.35,1.8-.79,3.6-.79,5.44,0,1.23.66,3.99.66,4.2l1.37-5.05c-1.27,3-2.96,5.33-3.68,8.66-.68,3.13-.46,7.6-.57,9.57l1.37-5.05c-1.33,2.34-3.63,4.17-4.16,7.57-.27,1.71-.26,3.17.17,4.91.12.49.64,3.25.66,1.35l1.37-5.05c-.63,1.42-1.56,2.65-2.25,4.04-.74,1.5-1.57,3.5-1.4,5.21-.48,2.03-.09,1.83,1.17-.59,1.66-1.82,1.97-2.37.91-1.66-1.45-.08-4.34,3.71-4.95,4.75-1.52,2.57-2.02,5.9-1.2,8.82.28.99.79,2.49,1.38,3.28,1.83,2.45-.64-2.07.16-2.66l-.36,2.66,2.45-3.92c-.21-.19-2.75,1.95-2.89,2.08-2.11,1.93-3.41,4.12-3.89,6.96-.35,2.05.49,5.03.45,6.26l1.37-5.05c2.41-3.79-.27-.43-1.42.77-1.79,1.88-2.81,4-3.25,6.53-.29,1.65-.65,4.35.25,5.79.26,1.45.33.84.22-1.83-.44,2.49-.8,3.21-1.08,2.16l3.59-3.59c-2.51,1.89-5.18,3.44-6.81,6.26-1.05,1.81-1.53,4.13-1.49,6.19l.36,2.66c.47,1.23.42,1.57-.14,1.01l1.37-5.05c-.95,2.12-2.33,4.22-2.96,6.46-.3,1.08-.66,2.71-.55,3.79.25,2.52,1.14-.92.24.54-2.39,3.9-3.26,8.72-4.9,12.96l2.57-4.41c.95-1.13-1.16.54-1.56.79-2.12,1.35-3.68,3.21-4.7,5.49-1.41,3.16-1.49,6.91-2.34,10.23l2.57-4.41c.85-.47.68-.39-.49.22-1.05.6-2.03,1.31-2.93,2.12-1.45,1.38-2.66,3.17-3.18,5.11-.95,3.55.23,6.53.87,9.93v-5.32c.19-1.13-.81,1-.82.89,0-.83,2.3-1.4.14-.66-2.34.8-3.9,3.1-5.32,4.95-1.52,1.97-3,3.75-3.66,6.2-.35,1.31-.99,6.62.3,7.63-.89-.69,1.9-5.59-.15-2.34-.54.85-.91,1.8-1.32,2.71-2.56,5.71,2.15-1.21,2.51-.57-.12-.21-3.2,1.21-3.36,1.29-2.49,1.31-4.32,3.1-5.5,5.67-.86,1.88-.78,5.02-1.09,6.13l2.57-4.41c-2.17,2.78-4.06,5.46-5.98,8.38-1.02,1.54-2.46,3.04-3.59,4.53l-.88,1.22c-1.11,1.57-1.19,1.61-.23.11-3.19,1.87-5.36,4.14-7.31,7.34-.87,1.43-1.76,2.84-2.17,4.51.05-.2-.72,6.23-.11,4.46l4.6-5.98c.28-.2,1.09-.46,1.46-.39-.99-.19-2.56.3-3.56.59-2.71.8-4.72,2.63-6.5,4.73-3.66,4.32-4.51,7.62-4.85,13.09l1.37-5.05c1.59-1.37,1.87-1.72.85-1.04-.91.53-1.75,1.16-2.53,1.87-.86.76-1.58,1.58-2.33,2.45-2.09,2.43-3.66,5.01-5.45,7.62l3.59-3.59c-1.52.95-4.72,1.73-6.51,3.5-.57.74-1.14,1.47-1.71,2.21-1.37,1.5-.95,1.45,1.24-.15-.55.79-3.23,1.15-4.1,1.66-2.41,1.41-4.82,3.74-6.54,5.94-.99,1.27-1.8,2.66-2.27,4.22l-.22,1.09c-.56,3.32-.5,3.54.18.67l3.59-3.59c-1.66,1.12-3.48,1.74-5.06,3-1.92,1.54-3.27,3.57-5.16,5.17-1.27,1.08-2.63,1.94-3.98,2.92-1.94,1.41-3.82,4.32-4.76,5.38l4.41-2.57c3.2.24,3.83.16,1.9-.24-1.19-.27-2.39-.46-3.61-.56-2.26-.09-4.54.38-6.51,1.53-2.43,1.42-4.23,3.97-5.06,6.63-.34,1.17-.54,2.37-.6,3.6-.27,1.9-.13,1.46.42-1.31l5.98-4.6c1.88-.61-4.67.12-4.37.05-2.09.5-4.07,1.64-5.88,2.79-4.37,2.76-5.8,5.99-7.61,10.63l2.57-4.41-.59.7,4.41-2.57c-.49.16-3.41.38-4.79.81-2.44.76-5.66,1.92-7.62,3.42-3.58,2.75-3.79,6.3-5.22,10.12l2.57-4.41-.44.48,4.41-2.57c-4.04,1.39-7.57.74-11.68,2.68-3.84,1.81-6.19,4.43-9.4,6.96l4.41-2.57c2.63.21,3.28.21,1.95,0-1.33-.42-2.66-.48-3.99-.18-2.32.31-4.43,1.29-6.1,2.97-2.6,2.6-3.39,6.54-3.27,10.07.06,1.85.51,4.44,1.01,6.28.43,1.57-.1,2.99.53-.09-.57,2.77-.95,5.38-.9,8.26.06,3.1-.26,6.15.31,9.23s1.73,5.81,2.56,8.76c.23.82.39,2.49,1.25,4.06,1.13,2.06.31-1.96.04.43-.34,2.97.49,6.71,1.56,9.44,1.96,5.03,6.71,8.52,12.3,6.98,4.8-1.32,8.95-7.24,6.98-12.3-1.35-3.47-1.15-8.24-2.72-12.85-.84-2.48-2.04-5.54-2.39-8.56-.21-1.77.17-3.86.14-5.67,0-.73-.11-1.63-.03-2.34-.18,1.55.24-.22.3-.55.52-3.14.43-5.62-.26-8.73-.2-.92-.43-1.83-.63-2.74-.41-1.88.28-1.06-.07.06l-4.6,5.98.36-.22c-2.57.34-5.14.67-7.71,1.01,4.8.88,9.22.93,13.1-2.56.29-.27,1.37-1.76,1.39-1.78.86-.42,1.71-.86,2.56-1.32-1.73.44-1.73.61,0,.49,3.73.2,10.06-1.91,12.71-4.45,2.93-2.81,2.84-5.91,4.18-9.3l-2.57,4.41.47-.51-4.41,2.57c.73-.31,7.77-2.47,3.93-1.66,2.17-.46,4.2-.33,6.27-1.29,4.56-2.12,5.8-6,7.52-10.35l-2.57,4.41c-.58.32-.19.11,1.16-.64-2.15.24-2.33.41-.54.51,2.2.39,5.18-.51,7.09-1.62,2.42-1.42,4.23-3.95,5.05-6.6.33-1.17.53-2.37.59-3.59.26-1.88.13-1.45-.4,1.28l-5.98,4.6c-3.22-.21-3.86-.12-1.92.28,1.19.26,2.39.44,3.61.55,2.26.08,4.55-.41,6.52-1.56,2.39-1.4,3.23-3.49,4.95-5.48-1.42,1.08-1.33,1.08.27-.02,1.11-.79,2.19-1.61,3.25-2.45,2.28-1.82,4.27-4.33,6.44-5.83s4.11-2.34,5.61-4.71c.55-.87,2.97-5.76,2.06-6.93-1.6,3.17-1.58,3.82.06,1.95-1.53.71-1.5.79.09.23,2.62-.81,4.57-2.31,6.33-4.35,2.01-2.08,2.2-2.56.57-1.45-1.4.71-1.32.78.26.21,2.9-.83,5.28-2.77,6.97-5.21,2.45-3.55,3.74-4.63,6.66-7.27,1.81-1.63,3.14-3.64,3.8-6.02.23-1.25.37-2.51.43-3.78-.07-1.42-.06-1.61.05-.55l-2.57,4.41c.48-.57.96-1.13,1.45-1.7.96-.91.53-.93-1.29-.08-4.36.12.44.36,1.91-.02,2.98-.77,5.92-2.58,7.51-5.29,1-1.71,2.66-5.89,1.57-7.72-.09-1.21-.19-.83-.3,1.14l.82-1.25-.69,1.08c.82-.28,1.54-.73,2.17-1.33,3.64-2.57,7.42-8.16,9.77-11.94,1.31-2.1,3.09-3.98,4.35-6.13s1.16-5.76,1.6-7.33l-2.57,4.41c-1.64,1.51-2.7,1.73.12.61,1.62-.65,2.71-1.14,4.05-2.44,2.02-1.95,2.69-4.03,3.8-6.55.97-2.19,2.42-4.31,3.12-6.63.08-.28,1.02-7.99-.21-7.99l-.94,4.66,1.56-2.02c-2.16,2.2-.56.94.4.45,2.5-1.26,3.98-3.58,5.5-5.8,1.77-2.57,3.19-5.09,3.19-8.33,0-2.28-.94-4.31-1.36-6.49v5.32l.13-.78-2.57,4.41c-1.04,1.2.99-.5,1.4-.77,2.11-1.38,3.67-3.19,4.7-5.49,1.39-3.12,1.5-6.95,2.34-10.23l-2.57,4.41c-.8.49-.59.42.62-.22,1.08-.59,2.07-1.3,2.98-2.13,1.49-1.48,2.41-3.2,3.18-5.13,1.16-2.93,2.08-5.95,3.24-8.85.66-1.64,1.48-3.14,1.85-4.87.32-1.28.43-2.57.32-3.88-.82,1.77-.78,1.76.12-.01,1.88-3.87,1.57-8.34,1.89-11.23l-1.37,5.05.54-.76-3.59,3.59c3.52-2.65,6.14-4.65,7.88-8.84.96-2.33,1.83-4.09,1.97-6.65.08-1.53-.44-4.34-.41-4.89l-1.37,5.05c-2.31,3.6.39.28,1.43-.78,1.1-1.12,1.99-2.55,2.56-4,1.26-3.16.17-6.33.23-8.78l-1.37,5.05c-.52.81-2.63,2.25-.71,1.35.89-.42,2.01-1.4,2.74-2.12,2.19-2.17,2.98-4.94,3.48-7.87.37-2.16.84-4.23.48-6.43-.22-1.36-.48-2.15-1.05-3.42-.95-2.11-.71-3.27-.62.28l-1.37,5.05c-1.87,2.96-1.49,1.85.3.53,1.31-.96,2.41-1.98,3.29-3.37.74-1.18,1.24-2.44,1.53-3.8.13-.59.92-5.25-.18-2.44.92-2.36,2.52-4.04,2.97-6.72.27-1.62.23-3.31-.17-4.92-.12-.49-.66-3.27-.67-1.35l-1.37,5.05c.54-.94,2.22-2.44,2.97-3.86,1.54-2.91,1.55-5.71,1.08-8.85-.26-1.71-.26-1.62,0,.29.66-.84.68-1.37.06-1.59,1.09-1.74,2.21-3.4,2.76-5.42.78-2.83-.12-4.95-.33-7.71-.12,1.95-.04,1.95.23,0-1.26,1.26-1.33,1.25-.22-.04,1.81-2.76,3.13-4.63,3.42-8.1.06-.77.69-3.41.49-4.06.52-1.22.24-1-.85.64.51-.48.98-.99,1.42-1.54,1.95-2.28,3.19-4.84,3.31-7.9.03-1.28-.1-2.56-.37-3.82-.36-1.72-.44-1.62-.24.3.47-1.93,1.22-3.82,1.66-5.77s.72-3.9,1-5.89c.39-2.83-.32-4.93-.27-7.66-.08,4.44,1.12-3.87,1.12-4.03.05-1.38-.67-4.71-.67-4.66l-1.37,5.05c-2.24,1.95-2.57,2.41-1,1.38,1-.61,1.94-1.31,2.83-2.08,1.62-1.5,2.89-3.39,3.48-5.55.76-2.77.24-6-1.12-8.5-.42-.76-1.66-3.75-1.33-1.74v5.32c.19-.52,2.14-3.71,2.51-4.51,1.84-3.94,1.96-6.56,1.68-10.83-.13-1.89.09-3.44.39-5.23s.7-3.42.61-5.28l-.36-2.66c-.44-1.89-.61-1.58-.52.93l-2.57,4.41c2.43-3.1,4.33-5.26,5.35-9.18,1.18-4.55,1.22-8.83-1.81-12.72-2.8-3.6-7.16-4.05-11.33-4.96-2.06-.45-4.2-1.05-6.32-1.14-1.41-.06-4.6.41-4.71.41l5.05,1.37c-3.16-1.45-5.28-3.71-9.08-3.8-3.48-.08-6.14,1.63-9.14,3l5.05-1.37-.94.07,5.05,1.37c-3.49-1.58-6.75-3.95-10.14-5.77-2.45-1.31-4.79-2.46-7.66-2.46-3.04,0-4.1.92-6.56.69-4.34-.41-8.17-3.3-12.37-4.36-1.61-.41-3.33-.29-4.96-.47-.91.01-1.05.03-.41.05,1.23.1.56-.23-2.01-.99-2.96-1.02-5.7-.7-8.74-.88l5.05,1.37-.56-.37,3.59,3.59c-2.36-3.32-3.39-6.66-7.55-8.41-3.39-1.43-5.55-.36-8.89-.36.97,0-1.18-.4-1.22-.41-1.25-.13-2.56-.2-3.82-.28-1.81-.11-3.07-.23-4.84-.75-.67-.2-3.94-1.01-3.52-1.31.26-.18,4.45,3.81.84-.07-3.96-4.25-8.16-3.59-13.3-4.1l5.05,1.37c-3.08-1.53-5.9-3.18-9.27-4.1-1.7-.47-3.45-.95-5.24-.91l-2.66.36c-1.25.44-1.57.41-.97-.1l5.05,1.37c1.45.86-.69-1.03-.86-1.19-1.36-1.29-3.38-2.54-5.2-3.04-1.97-.54-4.28-.48-6.24-.06-.58.12-3.19.27-1.38.4l5.05,1.37-.64-.44,3.59,3.59c-1.96-2.7-3.25-5.53-6.29-7.31-3.52-2.07-7.72-1.13-11.51-2.12-.94-.35-1.87-.72-2.78-1.12l1.55.79c-1.02-1.54-2.54-2.77-4.15-3.65-1.83-1-3.91-1.46-5.99-1.4.34,0-6.26.96-4.19,1.05l5.05,1.37-.63-.47,3.59,3.59c-2.38-3.66-4.01-7.06-8.53-8.54-3.27-1.07-6.72-1.42-10.09-1.84-1.29-.35-2.58-.44-3.89-.28,1.78.83,1.81.72.09-.34-1.2-.83-2.66-1.63-3.93-2.32-3.96-2.16-8.25-2.67-12.55-3.82l4.41,2.57c.39.89.27.72-.34-.5-.65-1.03-1.37-2.01-2.17-2.94-2.11-2.17-4.8-3.37-7.81-3.51-2.15-.1-3.85.48-5.84,1.05,3.03-.87,1.04-.27-.63-1.16-1.87-1-3.57-2.31-5.74-2.72-1.85-.6-1.96-.5-.32.3-.88-.9-1.84-1.7-2.89-2.4-3.89-2.65-7.26-3.72-11.81-4.71l4.41,2.57c.43.87.33.7-.29-.49-.63-1.04-1.35-2.02-2.15-2.94-1.81-1.88-3.95-2.9-6.47-3.34-2.08-.37-4.01-.18-6.05.41-1.79.59-1.55.62.7.09-1.47-.2-1.85-.43-1.12-.69l3.59,3.59c-3.2-4.22-5.65-6.47-10.62-8.54-1.67-.7-3.3-1.51-5-2.16-1.3-.5-2.25-.76-3.65-.91.16.02-3.26-.15-2.32.05l4.41,2.57c.66.53.15.42-.31-.34-.6-.98-1.36-2.08-2.16-2.87-1.69-1.68-3.94-2.85-6.05-3.9-4.71-2.34-8.21-1.38-13-.34h5.32c-2.35-.34-6.72-3.53-9.12-5.33-1.5-1.12-2.99-2.45-4.61-3.35-2.12-1.19-5.99-1.25-7.15-1.54l4.41,2.57c-1.26-.98-2.18-2.24-3.38-3.28-1.87-1.63-3.97-2.35-5.99-3.68-.24-.16-2.36-2.22-3.57-2.89-2.13-1.17-4.5-1.55-6.75-2.35l4.41,2.57c-1.42-1.18-3.86-4.4-6.48-5.52-1.56-.66-3.01-1.02-4.77-1.05s-6.28-.38-1.56.63l4.41,2.57c-.68-.62-1.99-2.69-3.1-3.72-1.27-1.18-2.77-2.03-4.41-2.57-1.37-.45-3.17-.17-4.34-.8s1.23,1.08.3-.48c-.46-.78-2.34-1.44-3.07-1.76-1.29-.57-2.24-.8-3.62-1.02-.12-.02-2.97-.59-2.23-.36l4.41,2.57c-2.24-1.88-3.96-4.38-6.06-6.41-1.65-1.6-3.51-2.65-5.75-3.18.45.11-6.41-.6-4.15,0l4.41,2.57c-1.41-1.31-3.64-4.31-5.54-6.11-2.65-2.51-6.05-3.05-8.69-4.26-1.81-.83-3.23-2.29-5.17-3.03.92,1.5.9,1.58-.06.23l-1.56-2.02c-2.74-2.9-7.34-5.64-11.3-6.15-.8-.18-1.6-.23-2.42-.14-1.74.08-1.54.26.61.55-1.41-.81-2.23-1.3-3.39-2.5-1.41-1.45-3.61-4.25-5.61-6.14-3.35-3.17-6.75-4.74-11.39-4-.83.06-1.63.21-2.42.46,3.93.97,4.71.84,2.34-.4-.69-1.09-2.22-1.91-3.08-2.94l2.57,4.41c-1.55-4.26-2.33-8.11-6.69-10.55-3.42-1.91-8.09-2.2-11.04-3.32l4.41,2.57-.48-.61,2.57,4.41c-.98-3.04-1.17-5.74-3.52-8.26-2.2-2.36-5.16-3.42-8.07-4.69-5.31-2.32-10.19-5.2-14.44-8.19l3.59,3.59c.75.98-.12-.28-.38-1-.41-1.13-.85-2.26-1.47-3.27-1.42-2.33-3.89-4.74-6.02-6.43s-4.47-3.56-7.07-4.38c-1.15-.37-2.31-.62-3.54-.69-.58-.03-3-.48-1.65.04l5.98,4.6c1.21,1.67-.01-1.22-.27-2.04-.73-2.33-2.11-4.34-4.04-5.83s-4.33-2.34-6.81-2.4c-1.23.04-2.45.18-3.66.41-1.93.29-1.49.36,1.32.21l4.41,2.57c-1.05-1.11-2.98-4.34-4.67-4.96s.54,2.36-.22.03c-.43-1.31-.89-2.6-1.6-3.78-1.55-2.57-4.04-4.51-6.97-5.27-1.12-.29-2.44-.39-3.61-.38-1.27.01-2.6-.35-1.15.25l4.41,2.57c-.73-.71-1.39-1.48-1.98-2.31.99,3.79,1.33,4.59,1.01,2.4-.08-2.37-.74-4.6-2.01-6.59-1.58-2.49-3.99-4.22-6.85-4.96-1.26-.25-2.52-.38-3.8-.41-1.44.08-1.64.07-.58-.02l4.41,2.57c-1.31-1.27-2.69-3.32-4.32-4.17-1.22-1.43-1.49-1.32-.83.34-.46-1.2-.95-2.38-1.47-3.56-1.19-2.16-2.93-3.81-5.09-4.94-1.07-.69-2.22-1.07-3.46-1.17-3.65-.73-3.56-.43.29.88-1.32-1.57-1.42-1.42-.3.45-.09-.74-.23-1.46-.44-2.17-.59-1.95-1.72-3.7-3.06-5.21-2.78-3.14-6.24-6.11-10.57-6.53,2.07,1.48,1.86,1.28-.64-.6,1.61,4.81,2.03,5.22,1.26,1.23-.48-2.16-1.44-3.68-2.63-5.45-2.15-3.22-5.06-7.77-9.5-7.84-1.61-.39-1.49-.15.35.7-2.83-2.64-2.87-1.94-.14,2.11.65-1.64-1.19-5.67-1.99-6.95-1.52-2.43-3.91-4.17-6.65-4.98-1.18-.22-2.37-.39-3.57-.52-1.86-.17-1.4.07,1.4.72l3.59,3.59-.35-.7,1.37,5.05c-.58-5.21-.3-10.15-5.46-13.32-3.94-2.42-9.8-3.96-14.76-1.06-2.23,1.31-4.14,3.77-4.83,6.28-.06.21-.8,5.05.04,5.53-.98-.55,2.62-5.31.5-4.83s-3.65,5.61-4.11,7.32c-.41,1.5-.6,5.04-1.25,5.89l3.59-3.59c-4.13,3-7.59,5.59-8.21,11.03-.43,3.74-.83,6.93-2.56,11.06l2.57-4.41c.76-.97-.35.24-.93.63-.98.68-1.95,1.39-2.77,2.25-1.98,2.06-3.27,5.06-4.31,7.7s-1.86,5.57-1.96,8.31c-.04,1.2.01,2.41.28,3.6.1.46.45,3.07.57,1.65l2.93-7.07c2.39-1.19,2.73-1.43,1.01-.71-1.14.38-2.22.87-3.24,1.48-1.7,1.07-2.99,2.54-4.1,4.2-1.37,2.04-5.64,8.46-3.89,10.75-.05,1.07.13.84.52-.69-.55.86-1.04,1.75-1.46,2.68-.83,1.74-1.32,3.48-1.75,5.35-.38,1.65-.93,3.34-.9,5.05.12,1.25.3,2.49.56,3.72.41,1.32.43,1.47.04.44l1.37-5.05c-1.82,2.9-5.34,5.68-6.64,9.9-1.05,3.39-.89,9.35-2.65,11.77l3.59-3.59c-3.02,2.29-5.62,4.19-7.39,7.61-1.62,3.13-3.26,6.3-4.72,9.51-1.73,3.81-1.39,7.68-2.93,11.37-.44,1.06-1.22,1.97-1.75,3.01-.58,1.22-1.08,2.48-1.47,3.77-.58,1.62-.63,1.92-.16.88.52-.9.32-.8-.61.31-.82.95-1.56,1.96-2.21,3.03-.79,1.46-1.56,3.55-2.15,5.16-.93,2.58-1.27,4.96-.66,7.68l.28,1.09c.55,1.76.56,1.52.02-.72-2.6,3.66,3.83-3.73-.79.43-1.75,1.58-3.28,3.52-3.92,5.84s-.38,4.08-.14,6.48c.32,1.76.29,1.76-.09-.01.14,1.13-.05,2.15-.57,3.07l2.57-4.41c.53-.67.24-.07-.45.35-1,.59-2.12,1.37-2.92,2.18-1.51,1.52-2.64,3.55-3.62,5.44-2.01,3.86-3.78,8.9-4.86,13.13-.18.68-.3,1.37-.35,2.08-.36,1.68-.25,1.77.32.27,1.92-2.02-.79.41-1.12.83-1.54,1.98-2.34,4.18-3.21,6.51-1.62,4.35-.9,7.33-2.28,11.41l2.57-4.41c.75-.89-.67.3-1.09.56-1.17.75-2.19,1.57-3.11,2.58-2.62,2.87-2.51,5.62-3.19,9.1-.42,2.13-1.88,4.47-1.83,6.64.03,1.57,1.28-1.1-.38.5-1.09,1.05-1.87,2.52-2.76,3.73l3.59-3.59c-3.41,2.63-6.18,4.95-8.22,8.85-2.42,4.64-2.04,8.22-1.29,13.2v-5.32c2.75-3.13,3.17-3.88,1.24-2.24-.61.46-1.21.93-1.8,1.43-1.32,1.33-2.58,3.37-3.11,5.16-.95,3.24-.06,6.29.41,9.48v-5.32c-.34,2.14-1.01,3.73-2.14,5.51-.76,1.2-1.47,2.54-1.88,3.9-1.45,4.78.49-2.2.71.03.04.41-2.34,1.74-2.81,2.2-1.17,1.17-1.97,2.48-2.6,3.96-1.3,3.03-.43,6.64-.71,8.89l1.37-5.05c-1.42,2.21-4.29,4.08-5.91,6.72-2.47,4.02-1.62,7.97-.95,12.35v-5.32c-.4,2.68-3.96,5.36-5.24,8.59-1.12,2.82-2.34,5.67-3.08,8.62-.29,1.14-.66,3.86-.81,4.33-.82,2.61-2.26,4.37-2.26,7.27,0,4.92,3.32,7.59,6.09,11.07l-2.57-4.41.23.78v-5.32c-.68,2.98-1.92,7.53-1.92,11.65,0,1,.03,2.01.06,3.01.92-1.97.93-2.21.02-.73-1.35,1.95-2.03,4.56-2.09,6.91-.06,2.12.41,5.12.91,7.21.32,1.21.77,2.38,1.34,3.5.76,1.53.85,1.45.27-.23.3,2.36-.04,4.44.77,6.8.88,2.56,2.56,4.41,4.2,6.49l-2.57-4.41.46,1.09v-5.32c.17-1.19-.45.98-.72,1.53-.87,1.77-1.39,3.5-1.43,5.52-.06,2.82,1.16,5.23,1.56,7.9.44,2.92-.31,5.93.48,8.82.53,1.93,1.66,3.78,2.97,5.26.33.37,1.78,2.53,1.12,1.15l-1.37-5.05c.36,3.04.43,6.1.72,9.14.37,3.87,2.72,6.35,4.1,9.07l-1.37-5.05c.23-4.37-.66.04-1.04,1.43-.5,1.81-.54,4.45-.04,6.26s1.73,3.84,3.04,5.23l.81.73c2.46,2.03,2.68,2.1.65.23l-1.37-5.05c-.09,2.56-1.37,5.42-.07,8.79.62,1.59,1.3,2.73,2.51,4.04.31.33,1.94,2.46,1.15,1.01l-1.37-5.05c.26,3.38-.18,6.55,1.48,9.73.58,1.11,1.3,2,2.04,3.02,1.07,1.33,1.04,1.35-.09.05l.47,1.44c-.05-2.63.66-4.86-.69-.22-.38,1.32-.6,2.75-.57,4.14.05,2.83,1.3,6.92,2.69,9.4.55.99,1.26,2.02,2.05,2.83.56.54,1.16,1.04,1.8,1.49,2.01,1.72,1.57.84-1.31-2.64-.26.42.26,4.42.46,1.27-.1,1.51-.59,2.97-.58,4.5.04,3.69,1.59,6.68,4.36,9,.84.71,1.65,1.16,2.6,1.65l2.39,1.01c-.79-.36-.74-.28.15.24l-3.59-3.59.39.55-1.37-5.05c.03.78-.64,3.35-.57,4.93.11,2.4.76,4.82,1.06,7.2.33,2.58.29,4.6,1.55,6.97.59,1.1,1.31,2.11,2.16,3.04.96,1.13,1.16,1.25.61.38-.51-.99-.44-.69.22.89.4-1.88.43-1.95.1-.22-.35,3.16-.56,5.91,1.07,8.85,1.92,3.47,4.91,4.3,7.8,6.43l-3.59-3.59.36.56-1.37-5.05c-.05-.57.21.52.12.98-.34,1.73-.42,3.38-.1,5.12.53,2.92,2.07,5.17,3.33,7.8l-1.37-5.05c-.04-1.06,0-.4-.25.37-.38,1.14-.59,2.5-.62,3.68-.06,2.34.6,5.03,1.14,7.34.96,4.05,2.4,9.03,4.62,12.54.64,1.02,1.46,1.89,2.33,2.69l2.02,1.56-1.43-1.53c.43-.01,1.88,2.69,2.22,2.97,2.6,2.12-.93-1.66-.24-2.08-1.37.83,1.34,7.01,1.89,7.9,1.23,2,3.11,3.18,4.51,4.97l-2.57-4.41c.94,3.68.1,8.85,3.11,13.25,1.62,2.37,3.78,5.07,6.27,6.59,1.01.61,5.52,2.63,2.24.51-2.84-1.84.29,1.73-.57-.98,1.12,3.54.37,6.49,3.34,9.51.78.79,1.77,1.63,2.71,2.19.69.41,5.29,2.74,2.11.49-2.95-2.08-.02.52.52,1.48-.36-.64.85,2.06.84,2.03,1.04,2.38,3.6,4.67,4.4,6.47l-1.37-5.05c.54,4.61.73,8.85,4.63,11.99,1.45,1.17,2.96,1.88,4.8,2.29,1.2.27,2.41.39,3.64.37,1.94.06,1.4-.24-1.62-.9l-3.59-3.59.32.73-1.37-5.05c.23,4.99.26,8.35,3.66,12.48,1.46,1.77,2.9,3.5,4.91,4.68,1.02.6,2.19,1.06,3.34,1.36.62.14,1.24.23,1.87.29,1.99.33,1.78.21-.64-.38l-3.59-3.59c-1.99-3.91-.55.62-.2,1.93.47,1.74,1.73,3.97,3.01,5.25,1.37,1.37,3.42,2.48,5.24,3.02,1.61.48,5.89,2.04,1.78-.11l-3.59-3.59c1.95,3,3.27,6.78,6.08,9.67,3.5,3.59,7.55,3.39,12.12,3.74l-5.05-1.37c.36.16,2.13,2.68,1.21.1-1.07-3.01-.35.3-.11,1,1.12,3.33,3.43,5.78,6.4,7.58,1.96,1.19,3.67,2.63,5.59,3.9,2.27,1.5,6.2,2.07,7.71,2.68l-4.41-2.57.58.75-2.57-4.41c1.23,3.47,2.16,6.73,5.21,9.14,1.67,1.32,3.56,1.97,5.63,2.26.37.05,4.76.4,3.04-.13l-5.98-4.6c-.31-1.18-.33-1.09-.06.27.07.69.22,1.36.46,2.01.57,1.84,1.7,3.65,3.06,5.03,1.86,1.9,4.32,2.7,6.83,3.16.86.13,1.73.23,2.59.32-2.13-.42-1.77-.14,1.08.82-1.79-1.98-2.11-2.14-.97-.49l1.56,2.02c1.49,1.6,3.49,2.95,5.37,4.07,1.45.87,2.88,1.68,4.56,2.09-.48-.12,6.38.73,4.12.1l-4.41-2.57c2.1,1.91,4.69,5.06,7.6,7.07,2.67,1.84,8.7,5.74,12.08,4.62,1.07.1.84,0-.72-.29.9.43,1.81.87,2.71,1.31.28.18,2.09,1.99,3.13,2.62,1.93,1.16,4.18,1.82,6.46,1.82,1.27-.11,2.53-.3,3.77-.58,1.36-.44,1.54-.48.54-.1-2.36-.98-4.71-1.95-7.07-2.93-.95-.76.19.27.61.82.72.94,1.37,1.92,2.22,2.74,1.99,1.92,5.62,3.76,8.57,3.46s-2.17-2.16.1-.26c1.16.97,2.33,1.54,3.68,2.19,2.08.99,5.01,2.89,7.3,2.92,1.92.02-1.12-.95.08-.13s2.31,1.71,3.44,2.54c.94.69,3.25,2.57,4.97,3.3,2.49,1.05,5.62,1.8,8.31,1.9,1.22.05,2.41-.02,3.62-.28.47-.1,3.13-.39,1.47-.5l-5.05-1.37c2.59,1.44,6.23,3.89,9.74,5.16,4.14,1.5,8.09,1.65,12.4,2l-5.05-1.37c1.56.77,2.81,1.9,4.33,2.73l-4.95-8.63-.13,1.08,1.37-5.05c.77-.92.77-.91.02.04-1.24,1.25-2.1,2.72-2.57,4.41-.43,1.21-.7,2.39-.94,3.66-.34,1.81-.82,3.64-.76,5.5-.02,1.23.2,2.4.66,3.52,1.23,3.15,1.34,3.19.32.1l1.37-5.05c.68-1.46,2.74-2.58-.02-.54-1.04.77-1.66,1.34-2.44,2.36-1.52,2-2.28,4.42-2.89,6.84-.66,2.61-1.14,5.32-.41,7.99.3,1.08.87,2.24,1.45,3.2-.84-1.39,2.95,4.45,1.75,2.27l-1.37-5.05.03.97,1.37-5.05-.45.86,3.59-3.59c1.02-.19.94-.09-.22.29-1.17.29-2.23.81-3.15,1.55-1.75,1.14-3.06,2.6-4.04,4.45-2.08,3.94-.99,7.12-.4,11.17v-5.32l-.32,1.01,4.6-5.98c-1.14.43-2.14,1.1-2.99,2.01-.75.98-1.02,1.14-.81.47l5.05-1.37c-1.25-.12-5.29-1.27-8.04-.5-.67.19-3.25,1.06-1.34.82-1.65.21-3.87-.4-5.65-.23-2.53.23-4.98.17-7.5.32-4.16.25-7.03,2.52-10.19,4.99l4.41-2.57-1.09.44h5.32c-.96-.15-4.04-1.44-6-1.62-2.42-.23-4.83.14-7.26.33-2.21.18-4.4.26-6.5.94-2.87.93-4.71,2.98-6.9,4.87l4.41-2.57-.88.35h5.32c1.43.3-1.05-.83-1.37-1-1.04-.56-2.17-.93-3.31-1.2-3.07-.74-6.23.18-9.34.01-2.66-.14-5.42-.2-8.05.21-1.6.25-3.15.67-4.59,1.47s-5.38,2.57-1.07,1.2h5.32c-.68-.17-2.37-1.36-3.44-1.68-2.21-.66-4.18-.65-6.46-.29-2.58.41-5.17,1.28-7.71,1.63-3.37.46-6.76-.3-10.13.4-3.01.62-5.9,1.64-8.96,2.14h5.32l-.74-.27,4.41,2.57c-2.44-2.21-4.03-4.59-7.39-5.67-2.4-.77-8.23-1.03-10.14,1.37-.97.51-.73.5.74-.04l-1.5.08c-1.47-.11-3-.18-4.48-.27-3.26-.19-5.65,1.01-8.69,1.48h5.32l-.73-.3,4.41,2.57c-1.4-1.39-4.43-5.14-7.97-6.12-2.55-.7-4.58.14-7.02.36-.7.09-.76.23-.18.4-.99-.07-1.98-.2-2.96-.38-1.98-.17-3.68.08-5.64.27-.8.08-5.53-.39-1.98.52-3.5-.89-6.41-2.9-10.23-3.23-2.86-.24-4.92.32-7.53,1.37-1.39.69-1.59.76-.61.22,1.07-.49.76-.57-.93-.24,1.77.52,1.91.38.41-.39-1.13-.52-2.29-.99-3.46-1.41-1.84-.46-3.84-.16-5.65-.56,2.58.57-2.43-1.14-3.08-1.41-2.3-.95-4.27-2.12-6.86-2.11-3.68.02-6.21,1.94-9.33,3.44l5.05-1.37-.78.06,5.05,1.37c-3.55-1.54-5.6-3.59-9.88-3.74-.78-.09-1.56-.07-2.33.05,1.58.26,1.03-.05-1.65-.92-1.87-.65-3.59-.73-5.57-1.1-1.09-.2-2.11-.48-3.25-.88,1.21.91,1.41,1.04.6.38-.8-.69-1.63-1.34-2.49-1.95-2.8-1.78-5.94-1.76-8.73-3.36-5.37-3.08-9.39-7.13-15.68-9.53-1.26-.48-2.58-1.01-3.9-1.32-6.55-1.55-1.87.8-1.65.5,1.25-1.69-11.21-4.69-10.34-4.38l4.41,2.57-.5-.59,2.57,4.41c-1.57-4.49-2.37-8.04-6.76-10.81-4.09-2.58-7.57-3.35-12.28-3.84l5.05,1.37-.84-.37,3.59,3.59c1.05,1.45.08-.99-.22-1.99-.79-2.63-2.67-5.22-5.03-6.62-.83-.49-5.92-2.89-6.88-1.97l3.13,1.12-1.01-1.11c.03.09-.66-1.32-.85-1.61-1.28-1.98-2.51-3.98-4.63-5.22-1.2-1.14-1.34-1.05-.42.28.62,1.26.75,1.43.4.49-.09-1.08-.94-2.53-1.47-3.45-1.33-2.29-3.29-4.02-5.74-5-1.28-.51-2.15-.68-3.52-.84-.63-.13-1.27-.2-1.91-.2-1.35-.1-.8.14,1.66.71l3.59,3.59c-1.33-2.47-2.04-5.29-3.39-7.74s-3.44-3.86-5.19-5.97l2.57,4.41c-1.02-2.44-1.67-4.99-2.94-7.34-.37-.68-.99-2.73-.91-1.26.11,1.98.2-1.89.19-1.96-.24-2.62-1.42-6.1-3.65-7.8-2.49-1.91.27,1.51-.12,1.51.09,0-.7-4.14-.73-4.3-.74-4.27-1.62-8.72-3-12.87-.71-2.15-1.78-4.53-2.86-6.52-.64-1.18-1.45-2.26-2.38-3.22-.35-.36-1.45-1.84-.88-.7l1.37,5.05c-.16-1-.26-2-.32-3.01-2.07,3.3-2.38,4.04-.94,2.24,1.61-1.76,2.74-3.71,3.28-6.03,1.29-5.55-1.82-9.06-5.07-13.02l2.57,4.41c-.6-1.54-1.93-4.47-2.14-5.23v5.32c1.05-5.01,4.62-9.6,2.75-15.56-.16-.5-2.27-4.52-1.58-2.82s.2-1.76.16-2.33c-.15-2.14-.94-3.67-1.21-5.67-.07-.54.7-2.63.19-1.43l-2.57,4.41c-.68.68.14-.29.47-.51.98-.64,1.92-1.42,2.73-2.27,2.35-2.46,3.35-5.81,3.07-9.13-.18-2.07-.62-4.34-1.13-6.33-.3-1.16-.83-2.24-1.35-3.32-.26-.54-.73-2.17-.53-.93v5.32l.43-1.07-2.57,4.41c3.52-4.54,4.73-7.56,4.9-13.25.09-2.97,1.33-6.32.59-9.31.71-1.92.47-1.96-.7-.1.58-.46,1.13-.96,1.63-1.51,1.34-1.45,2.47-3.35,2.99-5.25,1.29-4.7-1.22-8.08-3.19-11.97l1.37,5.05-.08-.78-1.37,5.05c-1.49,2.57-2.22,2.46,0,1.11,1.32-.81,2.51-1.89,3.46-3.09,1.92-2.4,2.53-5.38,3.1-8.34.52-2.68.86-4.73,1.7-7.26,1.12-3.4-.03-6.49-.18-8.88l-1.37,5.05c.61-1.32,2.85-4.21,3.55-6.44.81-2.57,1.34-5.87,1.28-8.55-.02-.66.08-2.23-.21-.82.4-1.92,1.45-3.2,1.71-5.15.21-1.6.14-3.32-.26-4.9-.48-1.85-1.44-6.14-1.39-.81.04,4.4.9,1.55,1.69-.86.4-1.22.7-2.43.75-3.73,0,.01-.07-3.7-.25-2.69-.29,1.61,1.29-2.9,1.43-3.48,1.33-5.55-.61-11.12-2.78-16.08l1.37,5.05s.52-2.71.93-3.7l-2.57,4.41c2.42-3.12,4.79-6.06,4.95-10.19.02-.62-.26-5.58-.42-3.76-.13,1.4.64-2.22.74-2.51.46-1.36,1.92-4.84,2.45-7.21.76-3.42.17-6.06.15-9.44-.01-3.13-.28-5.63-.75-8.7.16,1.03.05-2.28.12-2.62.17-.75.43-1.76.76-2.47.82-1.78,2.9-4.62,2.9-7.64,0-1.95-.65-4.27-1.58-5.97l-.65-.96c-1.84-2.56-2.06-2.72-.65-.47v5.32c.94-2.59,3.14-6.26,3.49-9.99.21-2.21-.28-4.11-.67-6.28-.26.85-.34.47-.25-1.13-.23-3.18-.39-3.55-.5-1.09l-2.57,4.41c2.19-2.46,4.51-4.05,5.51-7.51,1.21-4.16-.82-7.17-1.37-10.29v5.32l.34-.87-2.57,4.41c3.47-4.07,5.58-7.09,5.5-12.68-.03-2.36-.13-4.66-1.07-6.86-.53-1.23-1-1.94-1.82-3-1.61-2.08-1.01-2.51-.36.24v5.32l.28-.73-2.57,4.41c1.4-1.63,3.17-2.89,4.29-4.79.92-1.57,3.19-8.84.94-10.14-.28-1.08-.45-.76-.52.98l.35-1.47c1.28-5.19-.39.66.39-1.8,1.16-3.67,2.54-6.22,1.39-10.25-.28-.98-1.01-3.2-1.93-3.8-.65-.98-.58-.57.23,1.23l-.11-1.5c.2-.63.49-1.72.53-2.5.35-1.38.08-1.02-.81,1.1l1.56-2.02c1.91-2.96,2.76-6.32,1.8-9.81-.36-1.3-.98-2.44-1.7-3.56l-1.56-2.02c-1.22-1.42-1.15-.99.21,1.29v5.32c.91-3.35,2.71-6.6,3.08-10.09.23-2.17-.07-4.1-.88-6.09-.15-.38-1.79-4.16-1.43-2.49v5.32c.78-3.93,1.68-7.72,3.02-10.91,1.09-2.6,1.45-5.29.69-8.06-.32-1.16-.84-2.3-1.45-3.31-.34-.51-.71-1-1.1-1.48-1.11-1.55-1.07-1.33.12.65v5.32l.26-.74-2.57,4.41c2.44-3,5.14-5.19,5.69-9.32.33-2.48-.17-4.95-1.4-7.14-.7-.95-1.41-1.88-2.14-2.8-1.21-1.41-1.13-.96.25,1.35v5.32l.23-.64-2.57,4.41c.42-.48.82-.73.08-.28.94-.57,1.97-1.39,2.77-2.17,1.91-1.88,3.19-4.32,3.53-6.97.58-4.56-1.78-9.32-2.48-13.04v5.32c.71-3.4,1.84-6.72,2.08-10.22.15-2.18-.06-4.05-.86-6.07-.18-.45-1.54-4.05-1.26-2.53v5.32l.28-.71-2.57,4.41c2.92-3.19,6.13-5.82,6.13-10.63,0-2.23-.75-5.13-2.16-6.88-.97-1.48-1-1.24-.1.74-.08-1.6-.08-2.01,0-1.23l-2.57,4.41c2.46-2.8,4.87-5.23,5.44-9.13.31-2.14-.07-4.13-.88-6.09-.16-.39-1.88-4.05-1.58-2.61v5.32c.44-1.94,1.11-3.75,1.36-5.73.14-1.13-.13-3.55.15-4.27l-2.57,4.41c2.85-3.67,4.5-6.7,5.26-11.27.4-2.41.65-4.59-.07-6.98-.36-1.21-.9-2.34-1.62-3.37-.77-1.18-.95-1.36-.53-.53v5.32c.29-.9,1.97-4.49,2.42-6.48.79-3.52.47-6.01.21-9.51l-1.37,5.05c-.57,1.17,1.15-.91,1.38-1.16,1.3-1.39,2.48-3.41,2.99-5.26.74-2.69,1.12-5.31,1.89-8.01.92-3.19,1.71-7.21.98-10.45-.32-1.42-.82-2.77-1.61-4.02-.47-.74-1.17-2.79-.92-1.02l-1.01,7.71c-.72.67-.59.55.38-.34.85-.86,1.61-1.8,2.29-2.8,1.12-1.83,1.58-3.77,1.77-5.89.28-3.13-.59-7.24-.69-9.32l-1.37,5.05c1.7-3.51,4.75-6.28,5.91-10.5.61-2.2.56-4.95.52-7.23-.03-1.38-.09-2.77-.53-4.09-.16-.47-.58-2.49-.57-.82l-1.37,5.05c-.8,1.31-2.49,2.28-.22.98,1.24-.71,2.29-1.78,3.18-2.86,1.59-1.93,2.73-4.65,3.62-6.99.97-2.51,1.88-5.49,1.94-8.19.03-1.18-.06-2.44-.34-3.59-.1-.41-.55-3.1-.6-1.37l-1.37,5.05c1.24-2.14,3.6-4.22,4.1-7.52.26-1.71.25-3.18-.19-4.93l-.39-1.07c-1.13-3.04-1.31-3.2-.54-.46l-1.37,5.05c-1.58,1.7-1.71,1.98-.39.86,1.5-.89,2.7-2.08,3.59-3.59,1.59-2.45,1.65-4.54,2.16-7.31.09-.51,1.59-5.41.03-2.19,1.14-2.35,3.07-3.65,3.91-6.3.5-1.6.27-3.34,1-4.86.83-1.75,1.71-1.72,3.18-3.92,2.87-4.3,1.97-8.16,1.08-12.84v5.32l.13-.92-2.57,4.41c-.9.43-.77.33.4-.28,1.02-.65,1.98-1.36,2.9-2.15,1.78-1.72,2.89-3.86,3.43-6.25.26-1.08.38-2.18.36-3.28.07-1.42-.2-.86-.8,1.68-.06-.05,4.08-5.26,4.33-5.63,1.51-2.21,2.4-4.46,2.45-7.19l-.13-1.1c-.24-3.72-.53-3.55-.85.52-.09-.01,5.57-8.17,5.97-8.52l-4.41,2.57c4.61-1.88,7.76-3.3,10.59-7.61,1.18-1.79,2.35-3.72,2.87-5.82-.06.24.83-6.21.17-4.35l-4.6,5.98c-2.57.52-3.17.71-1.82.57,1.07-.08,2.14-.22,3.2-.4,1.42-.34,2.75-.87,4-1.64,2.67-1.65,6.39-6.57,5.4-10.01.25-1.6-.14-.76-1.18,2.52l1.2-.95c1.45-1.08,2.52-2.8,3.58-4.24,1.36-1.85,3.16-5.49,3.95-6.64l-3.59,3.59c1.59-1.16,3.35-2.03,4.86-3.32.63-.54,4.08-4.76,3.04-3.75,2.15-2.07,4.36-1.4,7.25-2.97s6.06-3.61,8.56-5.56c1.51-1.17,2.93-2.56,3.74-4.33,1.01-2.22-2.6,1.1.7-.32,1.44-.62,2.46-1.76,3.83-2.45-3.03,1.53,1.68.43,2.65.23,2.35-.51,3.85-1.6,5.82-2.81,1.11-.68.99-1,3.4-1.29,3.13-.38,5.72-.86,8.68-2.23,1.92-.89,3.54-1.49,5.08-2.97.77-.86,1.49-1.77,2.16-2.71,1.06-1.46.67-1.17-1.19.88l-5.05,1.37c-.78.03,2.09.2,2.25.22-.07,0,3.67.54,1.95.14,2.95.68,5.57,1.64,8.66.79s5.73-3.52,7.04-6.49c.66-1.5.92-3.07.87-4.72-.02-.53-.58-4.24-.57-3.2l-1.37,5.05.52-1.13-3.59,3.59c-.75.47-3.91.65-1.5.65,1.74,0,3.26-.43,4.81-1.11,2.33-1.02,4.18-2.73,5.94-4.56,4.11-4.27,3.87-7.65,4-13.08l-1.37,5.05c-.4.9-2.47,2.08-.47.94.98-.55,2.11-1.48,2.92-2.3,1.12-1.13,1.82-2.65,2.8-3.86,1.22-1.51-1.51.82,1.1-.85,2.97-1.9,6.1-3.76,9.17-5.57,2-1.18,3.77-2.13,5.34-3.9s1.68-2.84,2.87-4c1.47-1.44,3.47-2.09,5.06-3.4,1.02-.84,1.74-1.58,2.49-2.68,0,0,1.37-2.72.96-2.22l-4.41,2.57c-1.76.57,1.09.31,1.62.3,2.49-.05,5-.9,6.95-2.43,3.03-2.38,3.91-5.57,5.27-8.97l-2.57,4.41.6-.7-4.41,2.57c1.16-.39,5.07-.64,7.12-1.84s3.94-4.28,4.92-5.24l-4.41,2.57c-.97.28,4.88-.62,3.65-.34,1.67-.39,3.14-1.1,4.51-2.1s2.25-1.92,3.23-3.42c.29-.44,1.94-2.32.67-1.18l-4.41,2.57c-.32.08,2.93.02,3.68-.15,2.28-.52,4.13-1.43,5.8-3.11,2.54-2.56,2.84-5.49,4.13-8.58l-2.57,4.41.54-.56-4.41,2.57c2.81-.93,4.09-1.08,6.59-1.42,1.76-.24,3.21-.74,4.83-1.46.68-.32,1.35-.64,2.03-.95,1.12-.5.89-.44-.67.19,3.38.21,6.93-.8,9.42-3.15,1.05-.99,1.92-2.12,2.61-3.39l1.01-2.39c.71-1.72.46-1.37-.75,1.05-2.36.98-4.71,1.95-7.07,2.93-1.05-.39-.91-.38.41.03,1.23.26,2.46.44,3.71.56,2.02-.01,4.21-.52,5.97-1.47,1.06-.63,2.06-1.35,2.99-2.17,1.09-.91,1.19-1.09.3-.52-1.53.69,1.66-.22,1.99-.25,4.17-.36,7.74-1.02,11.54-3.14,3.13-1.74,4.33-4.61,6.33-7.29l-3.59,3.59.65-.43-5.05,1.37c-2.26.09,4.48.96,4.05.95,1.72.05,3.38-.38,5.03-.78,1.81-.44,3.61-.89,5.28-1.77,1.41-.75,2.92-2.49,3.83-3.01l-5.05,1.37c2.2-.11,5.18.55,8.26.64,2.35.07,4.56-.47,6.59-1.66.61-.35,4.97-3.5,4.72-4.66-2.84,1.96-3.14,2.39-.89,1.3l-3.31-.45c.42,1.31,6.1,1.88,6.98,1.86,2.06-.04,4.14-.7,5.88-1.78-.15.09,4.64-3.51,3.13-2.78l-5.05,1.37c5.66-.4,14.08,2.76,19.86-1.21,1.46-.72,1.39-.87-.22-.44-2.14.23-1.68.42,1.4.57,1.17.15,3.61.51,4.57.57,3.92.26,7-1.45,10.73-2.2,1.58-.32,3.03-.65,4.51-1.33.84-.26,1.6-.68,2.27-1.25-3.39.09-3.34.28.16.55,2.7.36,6.26,1.55,9.04.92-1.48-.68-1.72-.78-.73-.31.96.48,1.95.9,2.95,1.28,2.06.63,4.34.76,6.44.24,3.55-.88,5.42-3.37,8.13-5.46l-4.41,2.57c-1.1.34.86-.1,1.09,0-.19-.08,1.38.47,1.64.52,2.42.5,4.84.88,7.32,1.13,4.54.47,8.9.91,13.45.54,2.16-.18,4.36-.77,6.45-.93-.86.07.44.05.7.06,1.39.06,2.76.41,4.15.49.58.03,3.39.07,1.62-.25,1.3.24,2.53,1.11,3.85,1.42,2.34.55,6.29-.4,7.29-.46l-5.05-1.37c-1.75-1.99-2.06-2.24-.94-.77.66.98,1.4,1.89,2.22,2.73,1.83,1.72,3.99,2.7,6.45,3.1,1.92.31,3.96.16,5.88-.02,1.42-.13,4.61-1.13,4.73-1.14l-5.05-1.37c-.63-.76-.5-.65.39.34.88.83,1.82,1.58,2.82,2.27,1.44.88,3.1,1.26,4.68,1.76,4.25,1.34,8.31,1.23,12.66.57.88-.05,1.73-.23,2.55-.55-3.31-.57-3.35-.31-.12.77-3.48-2.14.4,1.2,1.03,1.69,2.03,1.58,4.25,2.5,6.88,2.6,1.48.06,4.44-.69,4.77-.69l-5.05-1.37c-.84-.42-.29-.28.28.31.91.94,2.06,1.81,3.18,2.46,2.21,1.27,4.73,1.63,7.2,2.07,2.28.41,4.79.94,7.12,1.03,1.38.05,2.76-.11,4.1-.48.54-.15,2.44-.39.84-.44l-5.05-1.37c-4.77-2.99,2.29,2.76,2.82,3.09,1.82,1.16,3.65,1.78,5.83,1.87,3.84.16,5.61-.49,9.43.01l-5.05-1.37c-4.83-3.14,2.24,2.72,2.76,3.06,1.62,1.04,3.46,1.63,5.24,2.32,3.54,1.38,7.34,1.53,11.01,2.47l-4.41-2.57c-.71-.57-.06-.06.28.57.64,1.19,1.55,2.34,2.51,3.27,2.14,2.07,4.92,3.23,7.9,3.28,1.4.02,2.81-.19,4.18-.53,2.2-.54-.17-.43-.81.03,1.26-.9,1.66,1.59.2-.1.96,1.11,2,2.09,3.28,2.87,1.8,1.11,3.93,1.59,5.79,2.53s3.5,2.12,5.38,2.99c4.75,2.21,8.21,2.21,12.64,3.94l-4.41-2.57c-1.44-1.29,2.49,3.56,2.27,3.32,1.2,1.27,2.26,2.22,3.17,3.01,1.9,1.62,3.73,2.91,6.2,3.49,1.24.35,2.48.44,3.74.28,3.4-.33,3.55-.45.45-.37l-4.41-2.57c-1.51-1.41,2.49,3.6,2.19,3.29.13.13,1.65,1.5,1.4,1.23,3.44,3.7,6.17,6.12,11.54,5.79,3.7-.26,3.54-.52-.48-.77l1.34.68c-2.12-3.45-2.39-3.53-.81-.25.47,1.11,1.15,2.09,2.02,2.95,2.99,3.24,6.94,3.11,9.87,4.13l-4.41-2.57c1.78,1.6,3.28,3.33,5.28,4.72.83.56,1.68,1.08,2.55,1.57-.94-1.22-1.1-1.41-.48-.59,1.78,1.79,2.5,3.48,4.74,4.84,1.33.81,4.38,1.13,4.69,1.27l-3.59-3.59c-.56-2.8-.72-3.27-.47-1.39.07,1.21.26,2.41.58,3.57.56,1.82,1.66,3.72,3.01,5.06,3.12,3.12,7.21,3.13,11.3,3.42l-5.05-1.37c-.4-.55-.1-.22.89,1-.76-1.91-.96-2.02-.58-.35.21,2.17,1.8,4.75,3.32,6.27,3.41,3.41,7.55,2.94,11.86,3.15l-5.05-1.37c-1.57-1.52-1.38-1.14.57,1.13,1.21.98,1.43,1.33.67,1.05,1.16,1.8,2.42,3.42,3.81,5.07,2.34,2.79,4.57,6.09,7.83,7.86,1.16.55,2.35,1.02,3.56,1.42-1.62-.78-1.73-.54-.31.72l-.68-1.09c.28,1.26.73,2.46,1.34,3.6,1.16,2.21,2.76,3.87,4.96,5.06,1.09.67,2.26,1.07,3.51,1.21,3.28.59,3.54.51.76-.22l-3.59-3.59c2.7,4.07,3.76,7.98,5.96,11.79,1.5,2.6,3.95,4.45,6.26,6.27,1.31,1.03,2.56,1.79,4.16,2.34.54.18,2.8,1.38,1.56.47l-3.59-3.59c.98,1.91,1.52,5.13,2.83,7.65,1.79,3.45,4.92,5.58,7.39,7.61.64.51,1.3,1.01,1.97,1.48-1.35-1.2-1.48-1-.4.57-.13-4.09-.35-4.27-.65-.55-.14.82-.11,1.64.09,2.45.29,2.54,1.22,4.75,2.99,6.65,1.06,1.14,3.29,2.24,3.9,2.83l-2.57-4.41c1.12,2.8,1.43,5.44,3.2,8.02,1.56,2.27,2.61,3.75,3.71,6.44,1.42,3.48,2.63,6.25,5.82,8.46.51.35,3.17,1.64.98.42-1.35-1.3-1.09-.86.8,1.33,1.05,1.32,1.14,1.1.26-.64-.91-3.95-.29,1.66-.13,2.38.72,3.11.79-3-.07-.12-1,3.37.29,6.6,1.51,9.67,1.15,2.9,2.65,5.56,3.98,8.37,1.13,2.39,3.37,4.75,4.37,6.26l-1.37-5.05c.05.73-.52,3.39-.43,4.96.14,2.69,1.22,4.74,2.39,7.07.86,1.71,1.64,3.3,3.01,4.7.91.71,1.82,1.42,2.74,2.12,1.49,1.01,1.24.56-.76-1.35l-1.37-5.05c.87-2.71.92-3.21.15-1.5-.51,1.06-.95,2.16-1.32,3.28-.7,2.84-.42,5.92,1.02,8.49,1.96,3.51,4.94,4.24,7.87,6.34l-3.59-3.59.37.56-1.37-5.05c.77-2.38.79-2.65.07-.8-.34.72-.63,1.47-.85,2.24-.48,1.85-.51,4.41,0,6.26s1.74,3.83,3.05,5.22l.8.72c2.48,2.03,2.68,2.1.6.2l-1.37-5.05-.06.95,1.37-5.05c-1.53,3.48-3.33,6.53-2.79,10.53.29,2.12,1.14,3.87,2.4,5.55.24.32,2.68,3.48,1.94,2.05l-1.37-5.05c.28,4.81.39,9.65.76,14.48.23,3,.18,6.1,1.66,8.81.55,1.02,1.2,2.02,2,2.86.2.21,2.01,2.31,1.4,1.11l-1.37-5.05-.1.93,1.37-5.05c-1.38,2.93-3,5.63-3.01,9-.02,3.73,2.84,6.73,3.91,9.21l-1.37-5.05c-.1,1.24-1.11,4.87-.64,7.37s1.45,4.87,1.93,7.32c.41,2.11.01,4.31.64,6.44.91,3.08,2.99,4.98,4.96,7.33l-2.57-4.41c.28.5.44,1.04.45,1.62.11,1.55.36,1.01.75-1.61.05.04-1.54,3.4-1.59,3.58-1.03,3.66-.02,6.69.95,10.15.3,1.06.83,2.66.9,3.71-.14-2.29-.76,1.68-.79,2.67-.09,3.24,1.51,5.55,2.18,7.82v-5.32c1.47-2.27,1.27-2.13-.59.44l-.62.95c-1.22,2.24-1.77,4.78-1.41,7.3.55,3.92,2.95,6.3,5.33,9.21l-2.57-4.41.33.89v-5.32c.28-1.41-.57.91-.79,1.34-.76,1.48-1.22,2.98-1.37,4.63-.3,3.32,1.37,6.04,2.03,8.42v-5.32c.34-1.46-.93,1.09-1.06,1.33-.8,1.45-1.21,3-1.4,4.63-.36,3-.29,6.5.6,9.39.47,1.53,1.31,3.12,2.44,4.28.99,1.49,1.07,1.34.22-.45-.6-1.96-.75-1.95-.44.04-.21,2.38.61,5.27.93,7.51-.3,1.79-.26,2.01.11.66.47-1.17.34-1.15-.38.07-.83,1.07-1.31,2.49-1.66,3.77-.51,1.88-.59,3.87-.11,5.77.11.43,1.66,4.8,2.1,4.62.5-.22-.3-5.15-.64.96-.07,1.25-.05,2.51-.04,3.77.02,2.65.02,4.65-.55,7.17-.74,3.3-.03,6.05.62,9.24.25.92.38,1.86.4,2.83l.62-2.42c-.27-.14-1.79,4.27-1.89,4.68-.93,3.99.71,6.35,1.75,9.94-1.28-4.45.08,3.58.12.55-.02,1.38-.77,2.93-.87,4.37-.21,3.04,1.02,5.86.7,8.84-.14,1.33-1.11,4.28-1.11,6.08s.53,3.43,1.24,4.97c.45.97,2.25,3.3,1.22.95,1.18,2.66,1.15,7.21,1.65,10.13v-5.32c-.49,3.43-1.43,4.85-2.39,8.07-.68,2.29-.67,4.73-.05,7.02.23,1.03.61,2.02,1.15,2.95.73,1.54.7,1.46-.07-.22-.34,3.95-.62,7.85.29,11.74.3,1.27.73,2.6,1.16,3.84.2.6,4.18,9.01,2.23,3.42v-5.32c1.47-2.24,1.63-2.63.47-1.17l-1.56,2.02c-.79,1.24-1.36,2.55-1.69,3.97-.99,4.26,1.09,7.23,1.77,11.2.24,1.39.48,2.73.93,4.07.27,1.07.72,2.04,1.36,2.91.87,1.46.88.55.05-2.71-.73.42-.77,4.2-.76,4.99.03,2.01.77,3.68.99,5.61-.47-4.04-.83,2.33-.84,2.37-.07,1.7.14,3.28.66,4.9.91,2.86,2.11,3.61,2.53,6.42s.7,6.04,1.06,9.01c.46,3.8,1.15,6.66,2.65,10.17.55,1.29,1.5,5.46,2.61,7.52.26.48,1.08,1.93,1.22,2.09l.54,1.41c.93-4,.78-4.28-.46-.83-1.18,3.55-.97,7.27,1.04,10.5.84,1.35,2.11,2.26,3.06,3.48-1.32-1.69-.54-1.57-.84.07-.61,3.3-.08,6.77,1.68,9.66.17.27,1.97,2.89,1.24,1.39-.85-1.74.6,3.73.79,4.31.41,1.04.84,2.06,1.29,3.09.04-1.03.04-1.02,0,.05.31,2.1.17,4.16,1.04,6.18,1.52,3.56,4.4,5.25,7.36,7.43l-3.59-3.59c1.04,1.46,1.86,3.17,2.65,4.78l-1.37-5.05c.76-2.61.72-3.04-.1-1.31-.49,1.1-.94,2.2-1.37,3.32-.62,2.43-.47,5.01.51,7.31,1.59,3.74,4.69,5.21,7.76,7.43l-3.59-3.59c1,1.41,1.65,3.16,2.34,4.74l-1.37-5.05c-.01-.19-.56,4.17-.55,3.8-.03,1.81.44,3.54.86,5.27.86,3.51,2.12,5.92,4.38,8.75.66.79.62.55-.13-.71l1.01,2.39c.43,1.05.81,2.12,1.21,3.2,1.06,2.92,2.62,5.07,3.98,7.73l-1.37-5.05c.86-2.7.89-3.2.12-1.48-.51,1.07-.95,2.16-1.32,3.28-.66,2.65-.25,4.95.5,7.52.59,2.05,1.35,4.21,2.5,6,.6,1.11,1.41,2.01,2.42,2.71,2.63,2.35,2.73,2.05.3-.88,1.01,3.23,1.33,3.19.98-.12-.27,1.29-.46,2.58-.59,3.89-.08,2.34.64,4.48,1.25,6.7.53,1.92.83,3.94,1.44,5.83.48,1.15.96,2.3,1.45,3.45.93,1.69,1.03,1.3.32-1.18l1.37-5.05c-1.68,3.15-3.71,5.41-3.66,9.3.03,2.03.75,4.14,1.78,5.89.67,1.04,1.45,1.97,2.34,2.8,1.01.91,1.18,1.03.5.36l-1.01-7.71c.17-1.19-.51.94-.8,1.5-.92,1.81-1.51,3.92-1.51,5.98,0,2.82.97,6.55,2.16,9.1.33.7,1.82,3.98,2.68,4.06-.98-3.32-1.37-4.08-1.16-2.26.06.75.1,1.5.15,2.25.2,2.05,1.43,6.09,1.03,7.28l2.57-4.41c-2.35,2.92-4.83,5.36-5.36,9.3-.29,2.16.08,4.11.89,6.09.17.41,1.71,4.13,1.38,2.5v-5.32c-.72,3.41-2.48,6.67-2.88,10.1-.48,4.1,1.23,6.85,2.98,10.31l-1.37-5.05.12.93,1.37-5.05c.55-1.13-.54.36-.89.72-.94.99-1.75,2.04-2.39,3.24-1.5,2.82-.84,5.63-1.6,8.4-.52,1.89-1.46,2.45-2.48,4.34-1.32,2.46-1.99,4.98-3.39,7.4-2.53,4.4-5.24,10.43-4.99,15.65.16,3.23,1.4-.28.91-1,.15.22-2.75,3.56-2.94,3.85-1.57,2.33-3.07,4.69-4.77,6.95l3.59-3.59c-2.54,1.93-5.39,3.13-7.88,5.52s-3.61,4.96-5.59,7.63l3.59-3.59-.86.4,5.05-1.37c-4.14.32-8.32.29-11.49,3.47-1.32,1.32-2.45,3.31-2.98,5.09-.26,1.18-.44,2.38-.55,3.59-.21,1.88-.01,1.43.58-1.35l3.59-3.59c4.28-2.06-.24-.61-1.64-.23-1.74.47-3.99,1.68-5.27,2.96-1.39,1.39-2.52,3.35-3.12,5.19-.16.5-1.29,2.92-.42,1.74l3.59-3.59c-2.2,1.63-2.41,1.84-4.86,2.53-1.43.4-3.57.72-5.78,1.43-5.17,1.66-7.69,6.39-11.01,9.24l4.41-2.57c-2.84.99-5.51,1.51-8.11,3.14-1.59,1-3.89,2.7-5.13,2.89h5.32c-4.11-.68-8-1.6-11.89.49-1.64.88-3.26,2.06-4.8,3.12-1.05.7-2.02,1.5-2.91,2.4,1.37-.7,1.49-.88.35-.54-3.27-.14-6.21,2.97-9.39,3.46-1.94.3-3.96-.08-5.98.47-2.3.63-4.34,2.09-6.49,3.04l5.05-1.37c-4.99.48-9.56.23-13.31,4.26-1.31,1.41-.2.16.67-.14-4.49,1.53,0,1.01.06.77.26-1.21-8.37-.23-8.46-.21-2.08.49-4.37,1.02-6.29,1.99-1.61.55-1.59.67.04.35,1.43,0,1.64-.12.63-.36-.64-.62-2.98-.59-3.85-.6-2.73-.04-5.19.84-7.36,2.44-.8.59-1.35,1.13-2,1.83s-1.68,1.22-.32.6c2.57-.34,5.14-.67,7.71-1.01,1.41.22-1.04-.62-1.53-.87-2.27-1.16-4.77-1.72-7.31-1.35-3.86.56-6.24,2.92-9.12,5.26l4.41-2.57-.87.34h5.32c-1.11-.21-3.11-1.36-4.72-1.71-2.13-.46-4.27-.35-6.42-.22-4.91.3-7.66,2.58-11.34,5.49l4.41-2.57-.89.31h5.32c-2.3-.35-4.6-.97-6.86-1.5s-3.45-1.43-6.19-2.17c-6.35-1.72-9.77,2.02-14.18,5.61l4.41-2.57c.84-.4.46-.52-1.14-.36,1.48.43,1.74.4.79-.1-1.85-.81-3.37-1.61-5.38-1.88-.94-.2-1.89-.24-2.85-.12-3.49.27-3.54.46-.17.57-.18.14-3.83-1.9-4.55-2.08-1.85-.45-3.8-.29-5.64-.7,2.45.54-2.51-1.16-3.18-1.31-4.58-1.05-7.73.82-11.65,2.73l5.05-1.37-.94.12,5.05,1.37c-1.57-.7-4.16-2.95-6.53-3.6-2.23-.61-6.37.24-7.38.25l5.05,1.37c-2.66-1.22-5.49-3.95-9.53-3.91-3.64.04-5.87,1.89-8.93,3.25l5.05-1.37-.79.05,5.05,1.37c-2.46-1.15-5.13-3.65-8.1-5.19-5.22-2.69-9.42-.53-14.24,1.68l5.05-1.37,1.29.2c-2.6-1.2-3.16-1.4-1.67-.61,1.46,1.4-.11-.6-.35-.87-2.27-2.56-5.23-3.28-8.42-3.84-2.12-.37-3.83-1.43-5.91-1.95-2.45-.61-6.01.32-7.55.29l5.05,1.37c-1.31-.56-2.51-1.25-3.81-1.82-4.96-2.13-10.72-1.47-13.68,3.59-2.47,4.22-1.4,11.53,3.59,13.68Z"/>
</svg>