<?xml version="1.0" encoding="UTF-8"?>
<svg id="base" xmlns="http://www.w3.org/2000/svg" viewBox="0 0 1000 1000">
  <path d="M613.77,218.36c-.73,3.85-1.55,7.65-1.75,11.58-.08,1.02-.06,2.04.05,3.05.15-1.54-.18-.98-.98,1.69-.64,1.83-.86,3.66-1.03,5.6-.19,2.15-.42,4.77.24,6.85,1.1,3.47,2.15-4.01.2-.95-1.69,2.65-3.07,5.53-4.01,9.02-1,3.71-1.53,7.62.01,11.26.04-2.13-.05-2.51-.26-1.14-.14.75-.32,1.49-.53,2.22-.61,1.91-1.64,3.72-2.29,5.63-1.16,3.37,1.28-.86-.79,1.21-1.53,1.53-2.64,3.77-3.6,5.69-1.05,2.11-1.89,3.98-2.04,6.4-.24,1.28-.17,2.55.23,3.82.52,1.23.48,1.59-.11,1.09l1.37-5.05c-1.76,3.62-4.62,6.1-5.83,10.18-.21,1.19-.38,2.39-.51,3.59.16,1.24.33,2.48.5,3.72.44-2.69.35-2.95-.29-.78-.22,1-.53,1.98-.93,2.93l2.57-4.41c2.29-1.16,2.82-1.5,1.59-1.02-.98.35-1.94.74-2.88,1.19-1.26.69-2.4,1.53-3.4,2.57-2.58,2.69-2.71,6.9-3.36,9.11l2.57-4.41c.6-.7.34-.18-.36.23-1.14.66-2.27,1.55-3.19,2.48-1.64,1.67-3.18,4.11-4.28,6.19-2.22,4.2-1.59,7.64-3.13,11.67l2.57-4.41c2.2-1.15,2.39-1.32.59-.51-.74.28-1.45.6-2.13.98-.96.58-1.92,1.4-2.7,2.21-2.07,2.13-3.9,5.32-4.98,8.07-.81,2.06-.85,3.02-2.23,5-1.87,2.68-2.73,2.15-5.23,4.4-1.91,1.72-3.91,4.1-5.27,6.3-.76,1.23-1.22,2.69-1.65,4.05-.31.99-.1.86.64-.4l-1.05,1.09c-1.73.94-4.5,2.69-5.92,4.55-.98,1.28-1.76,2.65-2.2,4.25-.38,1.37-1.77,5.84.24,1.78l3.59-3.59c-.69.5-3.84,1.91-5.21,3.08-2.18,1.87-3.48,4.3-5.19,6.57l3.59-3.59c.85-.55.3-.16-.44,0-1.13.25-2.38.73-3.38,1.3-2.13,1.2-3.77,3.01-5.35,4.83-3.48,4.02-3.43,7.64-3.94,12.59l1.37-5.05-.37.71,3.59-3.59-.86.41,5.05-1.37c-2.54.25-4.92.21-7.34,1.09-2.86,1.03-4.63,3.1-6.72,5.17-1.85,1.83-4.01,3.41-5.43,5.62-.64,1-1.15,2.01-1.56,3.15-.21.6-1.32,2.5-.54,1.45l3.59-3.59c-.25.11-4.44.99-4.65,1.05-3.3.96-6.05,2.06-8.12,4.98-.72,1.02-2.23,3.03-2.22,4.34,3.96-2.89,4.87-4.03,2.74-3.44-.63.1-1.23.32-1.79.64-2.79,1.06-5.78,3.12-7.95,5.16-.97.91-1.82,1.98-2.46,3.14-.28.5-1.19,2.02-.29.92-.54.65-1.49,1.26-2.18,1.73-4.25,2.91.68-.43,1.14.68-.97-2.32-9.25.75-10.4,1.49-2.36,1.52-4.48,3.12-6.96,4.5-11.25,6.26-1.18,23.54,10.09,17.27,1.76-.98,3.52-1.94,5.17-3.1l2.02-1.56c-4.94.65-5.4,1.09-1.38,1.31,4.18.26,7.61-1.43,11.06-3.71,2.78-1.84,5.99-4.27,7.79-7.15.36-.59.68-1.21.95-1.85-1.62,1.45-1.62,1.55,0,.29,1.19-.32,1.16-.48,2.28-.88,3.91-1.39,7.16-3.84,8.56-7.92,1.26-2.62.34-1.8-2.76,2.44,1.3-.13,2.51-.53,3.64-1.22,2.82-.85-.76.55,2.33-.35,4.86-1.42,7.24-4.75,8.96-9.22.87-2.26-1.99,1.43.83-.48,1.01-.69,2.45-2.78,3.13-3.09l-5.05,1.37c4.65-.44,9.07-.57,12.2-4.57,2.68-3.42,2.26-7.03,2.65-11.02l-1.37,5.05c.13-.25,2.39-1.26-.77-.22,1.67-.55,2.72-.58,4.44-1.52,3.28-1.8,4.86-4.98,6.99-7.85l-3.59,3.59c1.89-1.32,5.98-2.95,7.79-5.88s1.71-6,2.14-9.21l-1.37,5.05.41-.85-3.59,3.59c3.27-2.45,6.47-4.04,9.23-7.32,1.1-1.31,2.82-3.67,3.09-5.45.56-1.55.36-1.64-.58-.27.63-.78,1.25-1.56,1.87-2.36.43-.38,2.99-1.55,4.06-2.61s1.98-2.35,2.91-3.5c2.62-3.27,4.03-7.15,5.61-10.41-.49.42-.26.02.71-1.17,1.49-2.01.92-1.84-1.72.5,1.33.53,5.33-2.97,6.02-3.71,2.56-2.73,3.25-6.61,4.12-10.11.21-1.29.37-2.59.47-3.9-.37,1.84-.13,1.9.73.17.08.15-2.56,1.99.44-.06,4.51-3.07,4.94-7.67,5.98-11.38l-2.57,4.41c-.57.61-3.28,1.48-1.08.85,1.07-.31,2.25-.86,3.22-1.44,2.73-1.64,4.38-4.33,5.39-7.27,1.62-4.71,1.48-8.24.81-13.13v5.32c-1.32,1.9-1.42,2.14-.28.72l1.56-2.02c.89-1.36,1.62-2.88,2.34-4.34,1.92-3.88,1.23-7.59,1.58-10.65l-1.37,5.05c1.59-3.2,3.3-4.67,4.98-7.81,1.55-2.9,2.67-6.35,3.84-9.44,1.26-3.33,2.26-7.22,1.81-10.77-.05-.8-.2-1.59-.46-2.35-.49-1.67-.59-1.38-.31.84.33-1.33.24-1.41.74-2.6,1.32-3.15,2.81-4.47,3.85-7.54,1.26-3.74.04-7.14-.05-10.06s-.38,1.17,1.11-3.2c.64-1.86.87-3.64.94-5.61.12-3.28.37-6.08.98-9.31,1-5.3-1.48-10.79-6.98-12.3-4.88-1.34-11.29,1.65-12.3,6.98h0Z"/>
  <path d="M451.67,278.27c-.19,1.27-.36,2.53-.52,3.8-.1,1.68.16,1.67.78-.03-.25,2.19-2.13,4.41-2.62,6.64-.77,3.56-1.25,3.58-3.81,7.46-1.33,2.02-1.53,4.21-2.5,6.29,1.42-3.02-1.23,1.52-1.78,1.7,1.82-1.5,1.98-1.81.48-.91-1.03.61-2,1.31-2.9,2.11-1.76,1.66-2.61,3.6-3.48,5.8-.64,1.63-1.18,3.33-1.86,4.98s-1.57,2.67-2.45,4.3c-.96,1.79-1.68,4.14-1.7,6.18-.15,2.1.08,1.81.68-.87-2.35,2.69-2.05,2.73.91.14-1.5-.68-7.78,4.63-8.95,5.7-3.73,3.39-3.89,7.31-4.34,11.94l1.37-5.05c1.61-1.58,1.61-1.9,0-.97l-2.02,1.56c-1.34,1.19-2.33,2.51-3.27,4.03-1.57,2.55-2.8,5.07-5.07,7.11-1.45,1.31-4.5,3.12-5.96,5.65-1.78,3.11-1.34,6.04-1.77,9.34l1.37-5.05c.27-.77-.1-.55-1.11.65,3.69-1.09,4.43-1.56,2.22-1.41-1.83-.32-4.44.63-5.98,1.49-3.67,2.04-4.57,5.66-6.31,8.36l3.59-3.59c-2.05,1.15-5.09,1.83-7.25,4.19-.58.64-5.15,6.26-4.82,6.87-.2-.37,5.19-4.01-1.33-.7-1.58.8-2.87,1.88-4.24,3.01-2.03,1.69-3.75,4.49-4.97,5.87l4.41-2.57c.89-.34.5,0-.44-.02-1.37-.02-2.87.19-4.18.56-2.87.83-4.95,2.79-7.1,4.74-3.03,2.75-4.12,5.76-7.1,8.35l4.41-2.57-.78.18h5.32c-2.84-.46-5.17-1.48-8.15-1.17-3.26.34-5.59,2.1-8.15,3.99-2.3,1.7-4.67,3.31-6.9,5.11-2.01,1.62-4.04,4.34-5.53,5.64l4.41-2.57c-3.76,1.08-6.8,1.82-10.23,3.9-1.08.66-3.72,3.39-4.55,3.3l2.13-1.03c-3.27.21-3.54.4-.83.59-3.7-.78-7.29-1.54-10.82.53-1.63.95-3.2,2.47-4.2,4.08-.46.74-2.37,3.21-.89,2.05l7.07-2.93c.91-.1.6.2-.38-.06-1.32-.35-2.81-.55-4.16-.53-2.27.03-5.49.44-7.64,1.06s-3.5,1.86-5.31,2.92c-.65.38-3.53,1.38-2.05,1.03,1.01-.24-2.7-.01-2.74-.01-5.38.42-10,4.3-10,10,0,5.09,4.59,10.42,10,10,4.29-.33,7.47-.53,11.47-2.24,1.67-.71,2.95-1.16,4.36-2.2,1.29-.86,1.27-.93-.04-.22,2.97-.2,3.55-.35,1.73-.44-2.8-.47,4.11.8,3.84.79,2.03.04,4.21-.43,5.97-1.46,1.63-.95,3.2-2.46,4.21-4.07.43-.69,2.38-3.26.89-2.06l-7.07,2.93c-.95.1-.43-.12.46.13,1.15.32,2.54.59,3.72.59,2.06,0,4.65-.53,6.66-.98,2.77-.63,4.62-1.93,6.87-3.54.8-.57,2.63-1.89,3.05-2.06,1.42-.58,4.97-.99,7.21-2.55,1.11-.77,1.82-1.53,2.67-2.56-.03.03,2.32-2.89,1.11-1.66-1.31,1.33,1.72-1.3,1.79-1.35.78-.61,1.6-1.24,2.41-1.83.68-.49,1.35-.94,2.03-1.43.57-.37,1.11-.77,1.63-1.21,1.42-.99,1.35-1.05-.21-.17h-5.32c5.88.99,10.74,2.32,15.53-2.51,3.32-3.34,5.03-6.71,8.48-9.61l-4.41,2.57c-.92.34-.44.02.46.04,1.37.02,2.87-.2,4.17-.57,2.67-.78,4.77-2.41,6.39-4.61,1.09-1.48,1.5-3.15,3.43-4-1.46.64-.69.83.39.72,1.43-.15,3.35-1.42,4.46-2.28,1.66-1.29,2.83-3.43,3.7-4.78.07-.11,2.31-3.14,2.16-2.87,1.46-2.85-1.22,1.39-1.74.87.87.87,5.99-2.8,6.65-3.46,1.78-1.78,2.65-4.93,3.59-6.43l-3.59,3.59.7-.36-5.05,1.37c2.04-.27,4.13-.05,6.15-.56,3.01-.76,5-2.5,7.3-4.5,4.45-3.86,4.57-7.81,5.23-13.21l-1.37,5.05c-1.76,1.68-1.89,1.98-.39.91l2.02-1.56c1.04-.9,2-1.91,2.93-2.93,2.22-2.46,4.34-5.24,5.98-8.13,1.47-2.59-1.44.2,1.11-.85,1.61-.66,3.67-2.95,4.49-4.31s1.26-2.99,1.55-4.57c.12-.79.22-1.58.28-2.38-.03-1.36,0-1.49.1-.38l-2.57,4.41c.12-.11,2.98-2.7,3.77-2.82l-1.81,1.07c1.14-.41,2.24-.9,3.3-1.48,3.15-1.96,6.06-5.73,7.57-9.01.93-2.02.47-4.43,1.22-6.32-1.07,2.68,1.07-.4,1.49-1.18,1.81-3.4,2.65-7.44,4.1-11l-2.57,4.41c-1.26,1.39,3.58-2.52,3.33-2.29,1.23-1.17,2.1-2.36,2.91-3.34,1.68-2.03,3.11-4.17,3.72-6.79.56-1.9.49-2.01-.23-.35.62-.56,1.16-1.18,1.63-1.87,2.99-3.77,3.84-8.15,5.07-12.63-.37,1.08-.22.83.44-.77.53-1.26,1.06-2.52,1.6-3.78.42-1.41.17-4.76.17-4.77.78-5.34-1.32-10.75-6.98-12.3-4.7-1.29-11.52,1.61-12.3,6.98h0Z"/>
  <path d="M312.72,296.53c-.65,1.38-1.16,4.15-1.46,4.77l3.59-3.59c1.01-.75-.12.09-.83.41-1.26.56-2.47,1-3.63,1.74-2.26,1.45-3.7,3.67-5.37,5.7-1.58,1.92-3.37,3.75-4.68,5.87-.27.53-.54,1.07-.81,1.6-.42.76-.35.72.22-.14,1.65-.85-1.94.96-2.56,1.48-3.75,3.11-7.74,5.97-10.74,9.85-1.39,1.8-2.32,3.51-3.42,5.43-.05.09-2.15,1.93-.73.79,1.63-1.31-3.96,1.46-3.1,1.02-4.03,2.05-8.26,4.88-11.28,8.27-.78.75-1.4,1.61-1.85,2.58-.59.92-.26.84.99-.24,3.51-1.51-1.58.27-2.23.63-2.29,1.25-4.12,3.08-5.4,5.36-2.6,4.63-1.06,1.64.74.45-2.34,1.55.78.65-.59.93-3.5.74-5.94,1.09-8.87,3.37-2.09,1.63-4.27,3.1-5.65,5.45-1.13,1.93-1.34,4.12-2.09,6.18l2.57-4.41c2.16-2.61,1.1-1.24-.7-.61-2.03.71-3.84,1.83-5.63,3.01-1.62,1.06-2.94,2.12-4.12,3.63-.21.27-2.67,3.51-1.44,2.32l4.41-2.57c-2.57,1.05-5.4,1.42-8.06,2.18-3.82,1.1-5.96,3.84-8.94,6.14l4.41-2.57c-2.68.81-6.55.68-9.49,3.65-2.56,2.59-2.86,5.54-4.13,8.67l2.57-4.41-.55.58,4.41-2.57-.79.13h5.32c-3.57-.78-6.41-2.19-10.22-1.08-1.93.57-3.71,1.77-5.11,3.2.17-.17-3.59,4.59-2.31,3.46-9.65,8.55,4.53,22.65,14.14,14.14,1.01-.9,1.82-1.95,2.54-3.1.24-.39,1.44-1.87.47-.99l-4.41,2.57.8-.13h-5.32c4.34.96,8.32,2.57,12.61.06s4.82-6.51,6.43-10.52l-2.57,4.41.54-.59-4.41,2.57c1.47-.43,5.03-.52,7.19-1.79s3.58-3.23,5.47-4.72l-4.41,2.57c2.58-.99,5.4-1.41,8.06-2.16,2.34-.66,4.49-1.88,6.16-3.66-.26.28,4.03-4.93,2.03-3.21-1.69,1.45,1.65-.49,1.97-.63,1.95-.83,3.96-1.14,5.7-2.47,3.3-2.52,3.87-5.97,5.17-9.59l-2.57,4.41c.14-.17,3.04-2.62,4.08-3.43l-4.41,2.57c1.28-.46,4.22-.6,6.13-1.49,2.37-1.1,5.07-2.86,6.95-4.73.78-.78,1.62-1.8,2.17-2.74.85-1.45,3.24-5.05-.3-1.67-3.06,2.92-1.03,1.45.58.73,1.52-.68,3.01-1.46,4.21-2.65,1.39-1.37,2.4-3.57,3.21-4.48,1.16-1.29,3.35-2.54,4.87-3.21,1.22-.54,3.92-1.31,5.54-2.54,2.13-1.62,4.32-3.85,5.8-6.07.71-1.06,1.18-2.22,1.83-3.28,1.4-2.31,2.12-2.13,4.72-4.22,1.21-.97,3.61-3.27,4.19-3.7,2.28-1.71,4.27-2.9,5.85-5.36.87-1.36,1.49-2.58,2.48-3.84.86-1.09,2.13-2.09,2.74-3.34,1.17-1.23,1.04-1.36-.41-.37-1.38.64-1.61.81-.67.49,1.72.45,5.43-2.44,6.64-3.65.89-.89,1.5-1.99,2.08-3.09.1-.2.96-3.72.95-3.71,2.29-4.89,1.37-10.78-3.59-13.68-4.34-2.54-11.38-1.32-13.68,3.59h0Z"/>
  <path d="M652.55,273.75c.78,1.31,1.68,2.48,2.45,3.79l-1.37-5.05c.94-2.69,1.05-3.16.34-1.4-.56,1.05-.98,2.15-1.26,3.3-.46,1.92-.45,4.19.07,6.09s1.79,3.77,3.14,5.14c.92.78,1.89,1.5,2.9,2.16,1.18.62,1.32.72.41.3l-2.57-4.41c-.51-.59-.66-.25-.44,1,.15,1.27.33,2.53.54,3.79.14.47,3.58,6.8,4.07,6.19.15-.18-2.42-6.15-.86.9.52,2.33,2.01,3.95,2.78,6.06-1.26-3.41-.3,2.52.04,3.64.67,2.21,2.02,3.86,3.36,5.68,1.42,1.93,2.18,3.3,4.29,4.61,1.04.56,2.11,1.04,3.22,1.44,1.72.68,1.36.4-1.06-.86l-2.57-4.41.11.77v-5.32c-.7,3.16-1.81,5.73-1.11,9.12.63,3.09,1.65,5.98,3.07,8.81,2.7,5.39,6.43,8.31,9.3,13.79.77,1.48,1.22,3.11,2.06,4.57.38.64.79,1.26,1.21,1.87-.13-1.68-.15-1.97-.05-.86,1.12,4.44,1.56,6.38,4.4,10.12,1.89,2.49,3.41,5.35,5.96,7.25.62.46,5.7,4.02,3.4,1.71-2.02-2.04,1.93,2.21,2.31,2.61l-2.57-4.41c.05-2.61-.07-3.24-.35-1.88-.29,1.05-.46,2.12-.5,3.22-.06,1.22-.08,2.44.24,3.65,1.02,3.93,3.43,5.27,6.14,7.83,1.24,1.17-1.5-2.92.19.8.74,1.63,2,2.96,3.35,4.09,1.24,1.04,2.61,1.83,4.16,2.31.45.14,3.03,1.18,1.67.27l-3.59-3.59c-.64-1.05,1.02,2.05.96,1.91.58,1.25,1.04,2.05,1.88,3.15,1.32,1.73,2.49,3.03,3.6,4.76,3.01,4.66,7.19,7.29,11.66,10.41l-3.59-3.59c-.96-1.45.21.85.38,1.35.63,1.85,1.68,3.76,3.09,5.16,2.04,2.04,6.14,5.24,9.09,5.7s-1.8-3.19-.47-.76c.89,1.63,2.81,3.43,4.36,4.4,2.51,1.58,5.2,2.85,7.74,4.44s4.57,3.63,7.13,5.31,5.32,2.64,7.89,4.06c2.99,1.65,5.51,3.39,8.99,3.86,1.57.27,1.77.26.61-.01.65.35,1.32.67,2,.95,1.58.76,3.06,1.66,4.63,2.41,4.87,2.33,10.8,1.34,13.68-3.59,2.55-4.37,1.3-11.34-3.59-13.68-2.24-1.07-4.36-2.33-6.63-3.36-1.71-.78-3.35-1.58-5.18-1.99-.6-.13-3.52-1.15-1.88-.3-2.18-1.14-4.31-2.41-6.51-3.54-2.51-1.29-3.96-2.69-6.22-4.38-2.11-1.58-4.49-2.76-6.68-4.23-1.04-.7-2.03-1.37-3.16-1.94l-2.39-1.01c1.8,1.8,2.31,2.14,1.53,1.01-.3-2.54-4.84-5.14-6.88-5.92-2.57-.98-3.32-1.15-5.94-3.15l3.59,3.59c1.17,1.7-1.54-3.98-1.4-3.73-1-1.82-2.41-3.18-4.09-4.35-1.29-.9-3.02-1.59-4.07-2.81-.38-.44-.97-1.73-1.45-2.51-1.05-1.73-2.49-3.21-3.92-4.63.68,1.66.71,1.74.09.23-.29-1.03-.73-1.98-1.3-2.87-1.14-1.94-2.68-3.49-4.66-4.58.19.11-5.53-2.31-4.04-1.29l3.59,3.59c-1.24-2.05-2.06-4.2-3.74-5.99-.98-1.05-3.38-2.49-3.71-2.8l2.57,4.41c-.05,2.81.11,3.26.48,1.34l.36-2.66c.07-1.5-.02-2.95-.44-4.42-.97-3.38-3.93-5.93-6.46-8.18-.74-.66-4.41-3.55-5.33-3.03.8-.45,4.17,4.1,1.26.05-.41-.63-.85-1.23-1.32-1.81-1.49-2.51-1.92-2.78-1.28-.81.32,1.62.38,1.61.17-.02.01-1.11-.16-2.18-.53-3.2-.76-2.68-2.49-4.64-3.68-7.07-1.51-3.08-3.09-5.8-4.87-8.73-2.89-4.75-6.2-6.94-7.04-12.66v5.32c1.29-5.91,2.52-11.34-3.1-15.66-1.2-.92-2.74-1.87-4.24-2.22-3.42-.79,4.01,3.33,1.05.6-2.39-2.21.06,2.92.3-.02.15-1.87-.77-4.55-1.58-6.17-.19-.38-2.2-3.92-1.33-1.85.76,1.82-.02-2.65-.13-3.17-.09-.39-3.75-8.13-4.31-7.3-.02.02,2.66,6.12,1.15-1.02-.36-1.7-.97-3.09-1.97-4.53s-1.85-2.26-3.38-3.3c-.49-.33-2.22-2.07-1.29-.89l2.93,7.07c-.89,2.52-1.07,3.15-.55,1.89.41-.96.82-1.92,1.22-2.88.4-1.28.59-2.62.58-3.96-.04-3.75-2.06-6.2-3.85-9.22-6.57-11.06-23.86-1.01-17.27,10.09h0Z"/>
  <path d="M779.47,663.04c-1.07,3.23-3.08,5.84-1.88,10.18.93,3.39,3.36,5.26,5.43,7.87l-2.57-4.41.25.76v-5.32c-.21,1.02-1.51,3.98-1.65,5.93-.26,3.43.85,5.45,2,8.56-.55-1.5-.38-1.45-.34.16.03,1.32.21,2.89.53,4.16.6,2.38,2.13,4.3,3.07,6.51l-1.37-5.05c.21,2.42-.05,4.9.6,7.29.62,2.25,2.01,4.37,3.05,6.45l-1.37-5.05c-.1-.85.28-1.24-.08.06-.31,1.13-.58,2.05-.68,3.24-.27,3.07.33,5.53,2.02,8.09,1.12,1.69,2.74,3.2,4.23,4.56,1,.91,2,1.78,3.18,2.45s4.37,2.89,1.25.13l-2.57-4.41c1.67,4.29,2.43,8.21,5.4,12.01s6.29,5.74,9.96,8.34l-3.59-3.59c-.55-.83-.05-.03.1.59.28,1.13.77,2.43,1.34,3.42,1.24,2.12,3.04,3.75,5.19,4.88,1,.53,2.43,1.25,3.61,1.32-.63-.04-2.03-1.77-.41-.17,2.01,1.98,4.15,3.49,6.87,4.42,3.69,1.25,5.54,3.09,8.74,4.93,2.36,1.36,5,1.87,7.68,1.49,1.37-.19,2.17-.46,3.43-1,2.23-.95,3.08-.53-.19-.5,12.86-.12,12.89-20.13,0-20-1.51.01-2.95.25-4.38.71l-2.39,1.01c-1.73.8-1.26.78,1.4-.06l5.05,1.37c-1.85-.99-3.84-2.54-5.93-3.81-2.85-1.73-5.77-2.48-8.82-3.7l4.41,2.57c-1.58-1.23-2.81-2.8-4.45-3.96s-4.53-1.88-5.58-2.41l3.59,3.59c.19.97.14.79-.14-.54-.32-1.19-.77-2.34-1.33-3.44-1.03-1.79-2.42-3.22-4.12-4.38-2.05-1.4-3.75-2-5.12-4.85-1.14-2.36-1.46-5.94-4.34-8.59-1.67-1.53-3.38-2.05-5.41-3.02,1.88,1.43,2.19,1.49.94.16-1.33-1.36-1.38-1.01-.18,1.07v5.32c.45-2.4,1.38-4.35,1.34-6.89-.06-3.57-2.05-6.37-3.45-9.5l1.37,5.05c-.31-2.42.06-4.9-.6-7.29.07.26-2.68-5.87-1.98-3.7.14,1.24.16.98.06-.77-.07-1.4-.23-2.79-.47-4.17-.33-1.21-.78-2.37-1.35-3.49-.69-1.08-.8-1.38-.34-.87v5.32c.38-2.41,2.36-6.36,1.48-9.91-.5-2.01-1.5-3.61-2.83-5.18-1.2-1.41-1.41-3.07-.4.57v5.32c.24-.85,1.51-3.01,1.99-4.48,4.04-12.25-15.26-17.5-19.29-5.32h0Z"/>
  <path d="M724.91,720.43c.37-1.48-2.26,3.98-2.22,3.84-.61,2-.75,4.21-.19,6.24.5,1.81,1.63,3.77,2.92,5.12.87.8,1.79,1.54,2.76,2.22,1.49,1.1,1.3.78-.58-.97l-1.37-5.05c-.01,2.45-.45,4.73.18,7.23.58,2.31,2.04,4.34,2.99,6.49l-1.37-5.05c.2,4.62-1.8,10.1.91,14.65,1.16,1.95,2.88,3.57,4.81,4.72l.92.45c1.19.64,1.23.6.12-.13-1.11-2.72.11,1.46-.05.48v-5.32c-.48,3.21-1.3,6.28-.38,9.53,1.03,3.66,4.26,5.41,6.25,7.51l-2.57-4.41c-1.25-5.69-.46,3.9-.32,4.48.47,2,1.31,3.87,2.81,5.33,1.37,1.34,3.22,2.51,5.04,3.06.75.22,3.95,1.42,2.38.29l-3.59-3.59c.83,1.6,1.65,3.3,2.36,4.97l-1.37-5.05c.5,5.04.83,9.86,5.6,12.83,3.38,2.1,6.65,1.36,10.29,1.8l-5.05-1.37.6.32-3.59-3.59.41.86-1.37-5.05c.57,5.47,1,10.11,6.14,13.34,3.12,1.96,5.77,3.69,8.53,6.15,9.6,8.52,23.79-5.58,14.14-14.14-4.19-3.72-8.55-6.39-13.04-9.6l3.59,3.59-.44-.84,1.37,5.05c-.55-4.7-.62-9.04-4.64-12.25-1.97-1.57-4.12-2.29-6.66-2.47-.6-.12-1.21-.14-1.83-.08-1.95,0-1.41.33,1.63,1l3.59,3.59-.4-.85,1.37,5.05c-.51-4.59-1.26-8.62-3.63-12.69-2.74-4.7-6.4-5.24-11.09-6.56l4.41,2.57-.62-.48,2.57,4.41c.04,2.46.15,2.68.33.69.12-.83.22-1.66.32-2.49,0-1.61-.43-3.33-1.07-4.79-1.28-2.9-4.18-4.56-5.75-6.32l2.57,4.41-.19-.91v5.32c.73-5.35,1.15-9-1.77-13.84-2.39-3.96-4.92-5.59-8.6-8.04l3.59,3.59-.46-.63,1.37,5.05c-.07-.93.32-4.51.33-6.47,0-2.12.38-3.6-.23-5.79l-1.01-2.39c-.49-1.72-.73-1.86-.71-.42-.15,1.41-.12,1.29.08-.36.18-.94.25-1.89.19-2.85-.07-1.92-.59-3.73-1.55-5.4-.68-1.18-1.52-2.13-2.51-3.03l-2.02-1.56c-1.51-1.1-1.3-.78.63.96l1.01,7.71c-.28,1.32.56-.48.86-.96.72-1.15,1.23-2.48,1.55-3.8,3.09-12.49-16.19-17.82-19.29-5.32h0Z"/>
  <path d="M650.56,800.32c.33,1.56,1.48,3.67,1.68,4.62v-5.32c-.72,2.79-2.65,6.06-1.76,9.94.08,1.59.18,1.77.32.54-.38,1.36-.62,2.75-.72,4.17-.14,1.92.05,3.75.4,5.66.25,1.37.48,3.13.89,4.45.36,1.98.55,1.92.57-.17.41-2.43.13-2.18-.84.77-1.41,4.2-.64,8.08,1.88,11.71,1.5,2.15,2.92,4.79,5.39,6.51l-.12.14c.88,1.81,1.12,1.57.74-.73.62,1.34.16,3.31.6,4.79,1.05,3.52,3.65,6.12,6.4,8.4,1.58,1.31,3.25,2.38,5.26,2.89-.33-.08,6.13.67,4.36.13l-4.41-2.57c2.61,2.27,4.56,4.53,6.84,6.35,1.78,1.42,3.6,2.26,5.85,2.72,2.7.83,3.41.8,2.11-.08.86.58,1.78,1.04,2.76,1.39,4.97,2.11,10.71,1.49,13.68-3.59,2.45-4.2,1.41-11.56-3.59-13.68-2.74-1.16-5.08-2.69-8.05-3.28l-2.66-.36c2.18,1.41,2.77,1.62,1.77.64-.44-1.11-2.48-1.88-3.33-2.69-.55-.52-2.73-2.83-4.46-3.63-1.5-.69-3.13-1.1-4.79-1.15-.63-.02-3.28-.44-1.62.19l4.41,2.57c-.32-.28-1.99-2.13-2.32-2.09.49-.05,1.77,5.43.88.66-.5-2.66-1.68-4.74-3.16-6.99-2.21-3.35-5.21-5.93-6.55-8.71l1.37,5.05c-.75,2.86-.57,2.75.56-.33.39-.73.59-1.52.59-2.35.35-1.96.17-3.7-.26-5.67-.38-1.72-.86-3.39-1.11-5.14-.36-2.58-.65.56.16-2.19.01-.04.75-6.96-.12-6.82-.79,2.8-.77,3.25.06,1.36l1.01-2.39c1.41-4.5-.64-7.43-1.39-11.05-1.11-5.29-7.33-8.35-12.3-6.98-5.48,1.51-8.09,7-6.98,12.3h0Z"/>
  <path d="M335.35,822.41c.42,1.44.95,3,1.85,4.21l.66.9c-.49-1.94-.63-2.22-.42-.87.15-.12-.15,1.51-.7,2.67-2.11,4.41.47-1.36-1.3,2.23-1.13,2.29-2.66,5.14-3.34,7.61-.53,1.92-.49,4.36-.03,6.28.13.56.45,3.24.59,1.58l1.37-5.05c.36-.5-1.15.55-1.15.55-1.28.92-2.21,2.74-2.81,4.15-.82,1.93-.59,5.04-.89,6.22l2.57-4.41c-1,1.26-2.26,2.21-3.33,3.41-1.85,2.09-1.91,4.6-3.37,6.71,2.01-2.91-3.23,2.76-3.39,3.01-.94,1.44-1.39,2.98-2.32,4.3l3.59-3.59c-2.5,1.61-5.63,2.47-8.71,4.12-11.34,6.11-1.25,23.38,10.09,17.27,2.14-1.15,6.1-2.42,8.71-4.12,1.75-1.14,3.2-2.75,4.27-4.55.52-1.18,1.02-2.36,1.51-3.55-.62,1.56-.29,1.62.99.19,1.81-1.02,3.83-4.54,4.22-6.56.53-2.76-1.93,1.19.25-.78,1.87-1.69,3.43-3.69,4.2-6.14.5-1.57.23-4.27.38-5.02l-2.57,4.41c2.13-2.67,5.05-4.36,6.02-7.92.54-1.95.53-4.33.08-6.27-.1-.45-.58-3.32-.64-1.6l-1.37,5.05c2.1-4.79,5.25-9.36,6.6-14.45.83-3.12.54-6.28.1-9.45-.23-1.64-.59-3.16-1.4-4.63-.19-.34-1.51-2.89-1.04-1.25-3.58-12.34-22.89-7.09-19.29,5.32h0Z"/>
  <path d="M274.02,773.28c.61-1.27-.9.67-1.22,1.01-1.11,1.17-1.93,2.54-2.52,4.03-1.17,2.97-.35,6.65-.19,8.66.03.34.21,3.85.36,1.81.12-1.77-.77,1.4-1.17,2.07-1.23,2.07-2.52,4.7-4.06,6.52-1.94,2.29-5.97,6.38-7.85,7.47-3.18,1.85-5.45,2.82-7.61,6.12-.79,1.2-2.32,3.68-3.24,4.52l4.41-2.57c-.95.35-5.13.85-7.07,1.95-1.16.65-2.07,1.85-3.25,2.42,1.82-.88-2.37.43-2.32.42-12.32,3.63-7.07,22.94,5.32,19.29,2.77-.82,5.49-1.45,7.95-3.05,2.49-1.53,2.77-1.94.87-1.22-1.57.38-1.54.46.09.23,1.72-.05,3.38-.51,4.93-1.25,5.41-2.61,6.94-7.12,10.27-11.55l-3.59,3.59c6.06-3.88,14.32-9.66,18.76-16.97,2.35-3.87,5.61-7.85,6.83-12.28,1.11-4.02-.26-9.16-.3-12.31l-1.37,5.05c-.66,1.19.48-.22.9-.62.94-.92,1.76-2.04,2.34-3.22,2.36-4.86,1.33-10.81-3.59-13.68-4.39-2.57-11.32-1.29-13.68,3.59h0Z"/>
  <path d="M201.77,677.98c.64,1.41,2.3,3.39,2.59,4.08l-1.01-7.71c-.56,4.04-2.71,8.59.28,13.52,1.48,2.44,2.1,3.34.88.56,1.48,3.38-.34-1.45.84-1.09-1.08-.33-2.28,7.09-2.32,7.39-.25,1.82-.68,3.4-1.05,5.17-.36,1.66-.46,3.17-.35,4.85.03.49.47,4.1.59,1.73-.15,2.86-1.33,5.17-.65,8.17.5,2.24,1.63,4.1,2.59,6.16l-1.37-5.05c.31-.78.2-.41-.31,1.11,1.39-1.63,1.47-1.86.23-.69-1.72,1.48-3.13,3.77-3.73,5.97-1.32,4.78,1.27,8.13,3.38,12.01l-1.37-5.05.08.77,1.37-5.05c1.77-1.65,1.9-1.86.4-.63-.49.35-.97.73-1.42,1.13-.95.93-1.8,1.98-2.45,3.16-1.36,2.49-2.61,6.37-2.69,9.22-.04,1.26.07,2.58.35,3.81.36,1.53.45,1.71.27.55-.01-.98-.13-.97-.37,0-1.01,1.06-1.87,3.41-2.5,4.19-1.91,2.36-3.21,4.37-4.36,7.21-.48,1.18-.99,2.39-1.39,3.61-.48,1.46-1.47,2.79-.14,1.12-1.7,2.14-3.33,4.04-4.72,6.43-.97,1.66-2.17,4.88-2.63,5.73l3.59-3.59c1.21-.83-1.4.13-1.84.26-2.36.7-4.53,2.13-6.02,4.09-2.45,3.22-2.39,6.69-2.87,10.49l1.37-5.05c-.44.83-2.44,2.23-2.69,2.29h5.32c-2.49-.34-4.7-1.5-7.31-1.17-5.36.67-10,4.12-10,10,0,4.88,4.6,10.68,10,10-1.58.2-.07.06,1.08.33,1.63.38,3.26.49,4.91.31,3.12-.35,6.08-2.02,8.64-3.79s5.29-4.38,6.89-7.04c1.77-2.94,1.76-6.14,2.12-9.42l-1.37,5.05.42-.89-3.59,3.59c-1.26.77,4.35-1.28,4.26-1.23,1.74-1.01,3.31-2.44,4.38-4.13,1.63-2.58,1.62-5.09,3.34-7.29,1.02-1.31,2.37-2.26,3.32-3.68,1.36-2.04,1.83-4.09,2.59-6.35.39-1.15.78-3.44,1.64-4.35-.61,1.48-.37,1.6.69.37.66-.81,1.3-1.64,1.91-2.5,1.92-3.06,3.42-6.56,4.53-10,.85-2.62,1.19-5.17.54-7.9s-1.26,1.64.2-1.17c-2.67,2.9-2.65,3.19.06.85l.8-.7c1.97-2.08,3.41-4.95,3.39-7.86-.03-3.8-2-6.24-3.72-9.35l1.37,5.05-.1-.77-1.37,5.05c-.87,1.69,2.91-3.31,2.74-3.03,1.1-1.78,1.74-4.02,2.21-6.06.6-2.57.95-5.05.23-7.66-.44-1.13-.93-2.24-1.45-3.34-.72-1.13-.76-1.27-.13-.43v5.32c.37-1.87.92-3.71,1.09-5.62.22-.93.24-1.86.05-2.8-.04-2.8-.2-3.53-.47-2.2,0,1,.9-4.73.95-5.07.27-1.85,1.38-4.31.15-1.53,1.76-4,2.43-6.95,1.72-11.39-.2-1.27-.44-2.57-.82-3.8-.19-.62-4.18-9.06-2.21-3.37v5.32c.27-1.7,1.93-5.68,1.51-8.52-.47-3.12-2.82-5.66-3.78-7.8-2.22-4.92-9.37-6.11-13.68-3.59-5.07,2.96-5.81,8.74-3.59,13.68h0Z"/>
</svg>