<?xml version="1.0" encoding="UTF-8"?>
<svg id="base" xmlns="http://www.w3.org/2000/svg" viewBox="0 0 1000 1000">
  <path d="M614.46,221.13c-7,64.42-40.6,124.87-89.64,166.83-13.74,11.76-28.82,21.84-44.79,30.32-11.37,6.04-1.28,23.31,10.09,17.27,61.88-32.87,109.23-90.31,131.74-156.46,6.4-18.8,10.45-38.23,12.59-57.96.58-5.38-5.01-10-10-10-5.89,0-9.41,4.61-10,10h0Z"/>
  <path d="M451.97,278.38c-19.81,53.86-60.93,98.87-111.69,125.26-14.33,7.45-29.37,13.21-44.97,17.41-12.41,3.34-7.15,22.64,5.32,19.29,60.42-16.27,113.42-56.09,147.05-108.72,9.61-15.05,17.41-31.16,23.57-47.91,1.86-5.07-2.09-10.96-6.98-12.3-5.58-1.53-10.43,1.9-12.3,6.98h0Z"/>
  <path d="M315.34,295.41c-30.32,35.35-67,64.41-108.37,85.78-11.44,5.91-1.34,23.17,10.09,17.27,42.72-22.06,81.12-52.41,112.42-88.9,3.51-4.1,4.02-10.12,0-14.14-3.6-3.6-10.61-4.12-14.14,0h0Z"/>
  <path d="M650.53,271.78c14.59,34.74,29.21,70.19,52.17,100.41,20.52,27.02,46.68,49.49,79.13,60.62,5.11,1.75,10.93-2.01,12.3-6.98,1.51-5.49-1.86-10.54-6.98-12.3-63.73-21.87-93.27-89.81-117.33-147.07-2.09-4.98-6.61-8.55-12.3-6.98-4.69,1.29-9.09,7.29-6.98,12.3h0Z"/>
  <path d="M778.92,665.67c-3.81,39.15,21.43,75.41,58.66,86.98,12.32,3.83,17.59-15.47,5.32-19.29-29.33-9.11-46.92-37.45-43.97-67.69.52-5.38-4.97-10-10-10-5.84,0-9.47,4.6-10,10h0Z"/>
  <path d="M723.45,723.16c2.41,32.6,19.05,62.01,45.62,81,4.4,3.14,11.13.77,13.68-3.59,2.94-5.03.82-10.53-3.59-13.68-20.42-14.6-33.86-38.72-35.71-63.73-.4-5.39-4.31-10-10-10-5.1,0-10.4,4.58-10,10h0Z"/>
  <path d="M650.45,797.68c-.72,13.06-1.48,26.87,3.44,39.28,6.51,16.44,20.76,25.79,37.32,30.51,12.4,3.53,17.69-15.76,5.32-19.29-6.23-1.78-12.8-4.39-17.25-8.48-3.52-3.23-5.9-7.08-7.14-10.93-1.85-5.73-2.01-8.24-2.17-14.17s.19-11.29.49-16.93c.7-12.86-19.3-12.82-20,0h0Z"/>
  <path d="M336.72,819.67c.62,18.12-7.4,36.38-22.22,47.21-4.35,3.18-6.51,8.68-3.59,13.68,2.51,4.3,9.3,6.79,13.68,3.59,20.51-14.99,32.99-38.87,32.12-64.48-.44-12.84-20.44-12.89-20,0h0Z"/>
  <path d="M272.43,775.57c-3.52,18.66-15.94,35.65-33.82,42.93-5,2.04-8.54,6.65-6.98,12.3,1.3,4.74,7.27,9.03,12.3,6.98,24.21-9.86,42.88-30.89,47.79-56.9,1-5.3-1.48-10.79-6.98-12.3-4.88-1.34-11.29,1.65-12.3,6.98h0Z"/>
  <path d="M202.39,675.36c3.08,22.31.34,45.39-7.34,66.51-5.36,14.72-13.95,32.27-29.08,38.89-4.95,2.17-6.09,9.41-3.59,13.68,2.99,5.11,8.71,5.76,13.68,3.59,19.48-8.52,30.73-30.75,37.81-49.6,9.4-25.03,11.44-52.04,7.8-78.39-.74-5.36-7.58-8.28-12.3-6.98-5.77,1.59-7.73,6.93-6.98,12.3h0Z"/>
</svg>