<?xml version="1.0" encoding="UTF-8"?>
<svg id="_レイヤー_2" data-name="レイヤー 2" xmlns="http://www.w3.org/2000/svg" viewBox="0 0 1000 1000">
  <defs>
    <style>
      .cls-1 {
        fill: #fff;
      }
    </style>
  </defs>
  <g>
    <path d="M324.09,120.6c-40.72,25.55-79.87,55.46-105.55,96.1-42.77,67.68-60.25,150.4-50.04,229.8l183,3c29.37-81.39,121.99-227.34,121.99-227.34-29.16,53.61-50.78,111.32-64.02,170.9-4.15,18.68-7.49,37.63-7.81,56.76-.04,2.72.07,5.71,1.89,7.74,2.06,2.29,5.51,2.52,8.58,2.58,42.18.84,84.37,1.68,126.55,2.53,2.21.04,4.61.03,6.35-1.33,1.69-1.32,2.31-3.56,2.82-5.64,17.55-71.48,22.68-148.15,13.63-221.19,0,0,75.79,155.01,91,236l156.32,18.02c39.73-80.45,28.45-179.26-12.1-259.3-20.68-40.82-49.12-78.56-86.85-104.43s-85.46-38.94-130.25-29.58c0,0-123.12-57.71-255.53,25.39Z"/>
    <path d="M319.05,111.97c-42.43,26.7-83.13,58.09-110.05,101.14-27.64,44.2-44.47,94.54-50.74,146.19-3.52,28.96-3.4,58.27.25,87.21.69,5.44,4.03,9.9,10,10,20.52.34,41.04.67,61.55,1.01,32.92.54,65.85,1.08,98.77,1.62,7.56.12,15.12.25,22.68.37,4.67.08,8.14-3.21,9.64-7.34,6.5-17.91,14.07-34.35,22.68-51.94,9.69-19.79,20.02-39.27,30.67-58.56,17.85-32.33,36.58-64.17,55.92-95.63,3.87-6.3,7.75-12.59,11.71-18.83l-17.27-10.09c-19.89,36.7-36.44,75.26-49.21,115-6.36,19.78-11.79,39.86-16.23,60.16-2.37,10.85-4.38,21.77-5.82,32.79-1.28,9.82-3.62,21.73-1.33,31.55,2.74,11.75,13.59,13.4,23.82,13.61,11.21.22,22.41.45,33.62.67,22.41.45,44.82.89,67.23,1.34,5.6.11,11.21.22,16.81.34,5.09.1,10.58.59,15.23-1.93,9.1-4.95,9.95-17.84,11.94-26.89,4.65-21.16,8.15-42.56,10.68-64.07,5.67-48.18,5.79-97.01-.09-145.17-6.21,1.68-12.42,3.36-18.63,5.05,9.14,18.69,17.79,37.64,26.27,56.64,16.86,37.79,32.81,75.89,46.33,115.19,6.96,20.21,13.4,40.76,17.39,61.79.88,4.65,5.48,6.86,9.64,7.34,45.68,5.27,91.37,10.53,137.05,15.8,6.42.74,12.85,1.48,19.27,2.22,3.2.37,7.25-2.12,8.63-4.95,32.82-67.09,32.51-145.49,9.96-215.74-21.81-67.97-64.35-136.02-128.2-171.36-37.1-20.54-80.41-29.37-122.26-20.89l7.71,1.01c-16.39-7.66-34.47-12.32-52.17-15.63-41.62-7.78-84.64-6.84-125.77,3.38-31,7.71-60.61,20.76-87.69,37.64-10.9,6.79-.87,24.1,10.09,17.27,48.99-30.54,105.34-46.19,163.11-43.13,18.81,1,35.89,3.62,54.54,8.53,6.14,1.62,12.24,3.45,18.23,5.55,2.06.72,4.12,1.47,6.15,2.26.74.29,1.47.58,2.2.88,2.32.92-.69-.32-.38-.17,7.04,3.47,14.79.41,22.29-.3,14.59-1.38,29.37-.61,43.73,2.32,28.62,5.84,55.52,19.01,78.13,37.45,45.39,37.01,76.36,91.37,92.99,146.97,16.9,56.52,19.13,118.23-1.44,174.12-2.48,6.75-5.34,13.31-8.5,19.77l8.63-4.95c-45.68-5.27-91.37-10.53-137.05-15.8-6.42-.74-12.85-1.48-19.27-2.22,3.21,2.45,6.43,4.89,9.64,7.34-7.55-39.7-22.56-78.17-37.59-115.54-13.9-34.57-28.91-68.69-44.71-102.44-3.19-6.83-6.41-13.64-9.71-20.42-4.19-8.57-19.84-4.81-18.63,5.05,4.81,39.38,5.61,79.19,2.64,118.75-1.45,19.26-3.79,38.43-7.08,57.46-1.66,9.59-3.54,19.13-5.64,28.63-.54,2.44-1.1,4.88-1.67,7.32-.41,1.77-1.83,4.66-1.53,6.37.71,4.04-.78.9-.24,1.3.09.06,2.05-1.66,2.05-1.66-.02-.14-6.42-.11-7.27-.13-20.76-.41-41.53-.83-62.29-1.24-10.22-.2-20.43-.41-30.65-.61-5.27-.11-10.55-.21-15.82-.32-4.16-.08-9.24-.95-13.23-.2-.83.16-4.11-1.82.64,1.25.57.37-.1,2.07.28.47.47-1.96.03-4.83.11-6.85.21-5.09.63-10.17,1.21-15.24,1.09-9.57,2.89-19.06,4.88-28.47,4-18.89,8.88-37.59,14.56-56.04,12.59-40.93,29.26-80.44,49.67-118.08,6.15-11.35-10.37-20.97-17.27-10.09-11.44,18.03-22.47,36.32-33.35,54.68-21.86,36.87-43.04,74.23-62.13,112.62-10.12,20.35-19.76,41.05-27.52,62.43l9.64-7.34c-20.52-.34-41.04-.67-61.55-1.01-32.92-.54-65.85-1.08-98.77-1.62-7.56-.12-15.12-.25-22.68-.37,3.33,3.33,6.67,6.67,10,10-11.97-95,14.67-202.4,86.27-269.25,19.63-18.33,41.67-33.74,64.37-48.02,10.87-6.84.84-24.15-10.09-17.27Z"/>
  </g>
  <g>
    <path d="M749.9,703.39c39.14-4.34,78.01,15.4,105.28,43.82,27.27,28.42,44.39,84.75,56.32,122.29,16.31,51.3,59.39,89.07,59.39,89.07-28.32-13.6-60.22-19.65-91.55-17.37-21.58,1.57-42.83,7-64.47,7.12-40.91.23-81.43-19.86-106.02-52.55-24.59-32.69-32.65-77.2-21.09-116.44"/>
    <path d="M749.9,713.39c27.46-2.81,53.71,6.27,76.11,21.84,10.36,7.2,20.25,15.93,28.06,25.89,7.5,9.56,13.4,20.49,18.64,31.41,10.95,22.77,18.76,46.93,26.39,70.96,7.83,24.63,18.58,47.16,34.15,67.88,9.14,12.17,19.1,24.19,30.56,34.28l12.12-15.71c-25.78-12.22-53.81-19.01-82.39-19.2-28.52-.2-56.35,8.73-84.89,7.47-46.9-2.08-91.07-32.98-107.7-77.09-9.57-25.37-11.07-53.03-3.56-79.12,3.57-12.39-15.73-17.68-19.29-5.32-14.66,50.94.76,108.84,40.43,144.42,18.96,17,42.47,29.18,67.46,34.28,13.28,2.71,26.78,3.51,40.28,2.45,15.24-1.2,30.25-4.26,45.44-5.91,32.18-3.5,64.78,1.4,94.11,15.31,4.5,2.13,9.76,1.63,12.9-2.58,2.81-3.76,3.02-9.79-.78-13.13-9.38-8.25-17.81-17.89-25.5-27.7-15.4-19.66-26.33-41.24-33.88-65-8.08-25.43-16.51-50.86-27.96-75.01-5.43-11.45-11.6-22.62-19.26-32.74-8.53-11.25-18.74-20.74-29.98-29.26-25.88-19.62-58.76-31.76-91.5-28.41-5.37.55-10,4.2-10,10,0,4.98,4.59,10.55,10,10h0Z"/>
  </g>
  <path class="cls-1" d="M741.95,330.74c5.72,14.13,9.91,28.75,12.53,43.76.93,5.32,7.45,8.32,12.3,6.98,5.62-1.54,7.92-6.96,6.98-12.3-2.63-15.02-6.81-29.64-12.53-43.76-2.03-5-6.66-8.53-12.3-6.98-4.74,1.3-9.02,7.27-6.98,12.3h0Z"/>
  <path class="cls-1" d="M708.52,352.65c2.23,6.44,4.47,12.87,6.7,19.31,1.77,5.1,6.85,8.48,12.3,6.98,4.95-1.36,8.76-7.18,6.98-12.3l-6.7-19.31c-1.77-5.1-6.85-8.48-12.3-6.98-4.95,1.36-8.76,7.18-6.98,12.3h0Z"/>
  <path class="cls-1" d="M317.78,310.04c-9.1,17.13-17.12,34.78-24.19,52.84-1.97,5.03,2.16,10.98,6.98,12.3,5.67,1.56,10.32-1.94,12.3-6.98,6.44-16.45,13.89-32.46,22.17-48.06,6.03-11.36-11.22-21.48-17.27-10.09h0Z"/>
  <path class="cls-1" d="M281.59,308.75c-6.04,12.06-12.08,24.12-18.11,36.18s11.5,21.62,17.27,10.09c6.04-12.06,12.08-24.12,18.11-36.18,5.75-11.48-11.5-21.62-17.27-10.09h0Z"/>
</svg>