<?xml version="1.0" encoding="UTF-8"?>
<svg id="_レイヤー_2" data-name="レイヤー 2" xmlns="http://www.w3.org/2000/svg" viewBox="0 0 1000 1000">
  <path d="M252.01,369.43c.53,1.44,3.5,1.96,4.05,3.4s.27,3.18.84,4.6,1.28,2.78,1.88,4.2,1.2,2.82,1.81,4.22,1.25,2.79,1.88,4.19.44,3.17,1.1,4.57,2.63,2.14,3.3,3.52,1.57,2.63,2.26,4-1.78,4.39-1.07,5.75,4.43,1.11,5.17,2.46,1.22,2.82,1.97,4.16.61,3.19,1.38,4.51-.33,3.79.46,5.11,2.53,2.08,3.35,3.38,3.49,1.42,4.33,2.71-.55,4.04.3,5.32,2.72,1.89,3.59,3.15c.75,1.09,2.47,1.42,3.51,2.39s1.29,3.47,2.51,3.9c1.35.48,2.35-1.61,3.64-2.42,1.49-.93,4.19-1.01,4.86-2.63.57-1.39,1.46-2.65,2.03-4.04s0-3.26.57-4.65,2.32-2.3,2.9-3.69.84-2.91,1.42-4.3,1.4-2.68,1.97-4.07.46-3.07,1.03-4.46-1.03-3.68-.45-5.07,2.41-2.26,2.99-3.65,2.16-2.37,2.73-3.76,1.86-2.49,2.43-3.88-.8-3.58-.22-4.97,1.17-2.77,1.74-4.17.66-2.98,1.23-4.37,3.08-1.99,3.65-3.38-.83-3.6-.25-4.99.79-2.93,1.37-4.32,1.37-2.69,1.94-4.08.27-3.14.84-4.53,1.34-2.7,1.92-4.09,2.66-2.16,3.23-3.55.96-2.86,1.53-4.25.28-3.14.85-4.53,2.34-2.29,2.91-3.68,1.04-2.83,1.61-4.22.72-2.96,1.29-4.35,2.03-2.42,2.6-3.81.47-3.06,1.04-4.45.3-3.13.88-4.52,2.82-2.09,3.39-3.48.07-3.22.65-4.62,1.21-2.76,1.78-4.15.74-2.95,1.32-4.34,2.04-2.42,2.62-3.81c2.07-.86,1.36.82,4.09,1.84,1.17.44,2.02,2.43,3.64,3.04,1.27.47,3.17-.34,4.7.23,1.31.49,3.46-1.01,4.95-.46,1.33.49,2.22,2.39,3.69,2.93,1.34.5,2.54,1.57,3.99,2.11,1.35.5,3.16-.08,4.61.46,1.36.5,1.94,3.23,3.38,3.76s3.58-1.18,5.02-.65,3.06.23,4.49.76,1.84,3.54,3.27,4.06,2.58,1.57,4,2.09,2.9.7,4.32,1.23,3.29-.35,4.71.17,3.33-.47,4.75.06,1.79,3.73,3.21,4.25,3.23-.19,4.65.33,2.23,2.54,3.65,3.06,3.74-1.57,5.15-1.05,2.24,2.53,3.65,3.04,3.43-.73,4.85-.21,2.81.97,4.22,1.49,1.62,4.25,3.03,4.77,3.24-.21,4.66.3,3.29-.34,4.7.17,2.05,3.09,3.46,3.6,2.76,1.14,4.17,1.65,2.81,1,4.22,1.51,3.17,0,4.58.51,2.7,1.3,4.11,1.81,2.39,2.17,3.8,2.68,4.02-2.37,5.43-1.86,2.81.99,4.22,1.5,2.17,2.78,3.57,3.29,2.78,1.07,4.19,1.57,2.54,1.76,3.94,2.26,2.59,1.62,4,2.12,3.63-1.3,5.04-.8,2.44,2.05,3.85,2.55,2.57,1.68,3.98,2.18,3.55-1.08,4.96-.58,3.02.4,4.43.9,2.33,2.34,3.74,2.84,2.9.77,4.3,1.26,2.85.9,4.26,1.4,3.09.23,4.5.73,2.74,1.21,4.15,1.71,2.84.95,4.25,1.44,2.44,2.08,3.85,2.58,3.08.25,4.49.74,1.8,3.91,3.21,4.4,3.59-1.2,5-.71,3.33-.45,4.74.04,1.73,4.14,3.14,4.63,3.03.39,4.44.88,3.61-1.27,5.02-.78,2.22,2.75,3.63,3.24,3.53-1.05,4.94-.57,1.79,4.02,3.2,4.5,3.75-1.71,5.16-1.23,2.59,1.7,4,2.18,2.26,2.67,3.67,3.15,3.86-2.08,5.27-1.61,2.2,2.85,3.61,3.32,2.61,1.64,4.02,2.11,2.93.68,4.34,1.15,3.45-.88,4.86-.41,2.51,1.94,3.92,2.41,2.53,1.9,3.94,2.37,2.51,1.97,3.92,2.43,2.87.89,4.28,1.34,3.58-1.31,4.99-.86,2.93.66,4.34,1.12,3.1.13,4.52.58,2.01,3.6,3.42,4.04,3.75-1.93,5.16-1.49,2.67,1.5,4.08,1.94,2.41,2.34,3.82,2.78,2.81.34,4.22.77c.96-1.26.35-2.57.63-4.05s.8-2.65.6-4.2.22-3.07-.24-4.54-2.51-2.29-3.08-3.65c-.59-1.41-.98-2.88-1.6-4.28s-1.64-2.59-2.27-3.98.81-3.74.15-5.12-.71-3.07-1.39-4.44-3.1-1.87-3.8-3.23-.79-3.03-1.51-4.38-.47-3.23-1.21-4.57-1.34-2.77-2.1-4.1-3.54-1.48-4.32-2.79-.3-3.39-1.1-4.69-1.18-2.88-2-4.17-3.45-1.41-4.29-2.69-.36-3.43-1.22-4.7-1.8-2.48-2.68-3.73-.91-3.12-1.81-4.36-4.19-.7-5.11-1.93.56-4.27-.38-5.48-4.02-.73-4.98-1.92-1.69-2.54-2.66-3.72-.73-3.37-1.72-4.54-2.65-1.75-3.66-2.9-1.66-2.61-2.69-3.75-2.27-2.07-3.31-3.19-2.16-2.16-3.22-3.26-1.47-1.9-2.54-2.98c1.63-1.54,1.46-.58,3.92.97,1.06.67,2.47,1.24,3.93,2.17,1.15.73,1.94,2.28,3.31,3.15,1.18.75,2.32,1.75,3.66,2.6,1.2.76,1.66,2.84,2.98,3.68,1.22.77,3.26.33,4.58,1.16,1.23.77,2.09,2.2,3.4,3.03,1.23.78,3.65-.25,4.94.57s.74,4.37,2.04,5.19,2.44,1.68,3.73,2.49,3.12.61,4.41,1.42,3.47.06,4.75.86,2.91.95,4.19,1.76.74,4.41,2.02,5.22,3.96-.72,5.24.08,1.32,3.51,2.6,4.31,2.19,2.12,3.47,2.92,4.18-1.06,5.46-.26,1.18,3.74,2.46,4.53,2.77,1.2,4.04,2,3.88-.59,5.16.21,2.3,1.95,3.58,2.74,2.61,1.46,3.88,2.26.63,4.64,1.91,5.43,3.25.42,4.53,1.21,2.18,2.16,3.45,2.95,3.18.54,4.46,1.33,2.74,1.26,4.01,2.05,2.77,1.21,4.05,1.99,1.18,3.8,2.45,4.58,4.52-1.63,5.8-.84,2.26,2.04,3.53,2.82,2.84,1.1,4.11,1.89,2.3,1.99,3.57,2.77,2.58,1.53,3.85,2.31,2.48,1.7,3.75,2.47.89,4.31,2.16,5.08,3.99-.77,5.26,0,1.32,3.61,2.6,4.38,2.71,1.33,3.98,2.1,3.5.01,4.77.78,2.25,2.09,3.52,2.86,2.65,1.43,3.92,2.19,2.18,2.23,3.45,2.99,2.4,1.86,3.67,2.61,2.37,1.91,3.64,2.66,2.93.98,4.19,1.73,2.47,1.75,3.74,2.49,3.52,1.97,4.78,2.71c2.19-.4,1.84-1.74,3.81-3.8.86-.91,1.5-2.37,2.68-3.6.94-.98,2.48-1.58,3.58-2.74.97-1.01,1.79-2.29,2.87-3.42.98-1.03-.28-4.29.79-5.41.99-1.04,2.02-2.12,3.08-3.23,1-1.05,2.19-1.97,3.24-3.07s2.62-1.57,3.67-2.66,2.32-1.87,3.36-2.96,1.14-3.01,2.19-4.09,3.58-.66,4.62-1.74,1.34-2.83,2.38-3.9,3.49-.75,4.52-1.82.54-3.62,1.58-4.69,3.05-1.19,4.09-2.26.43-3.75,1.47-4.81,4.24-.03,5.27-1.09,1.03-3.18,2.06-4.23,2.02-2.22,3.05-3.26,1.6-2.64,2.63-3.68,3.69-.57,4.72-1.6c1.08-1.08.72-3.56,1.74-4.58,1.09-1.09,1.84-2.46,2.86-3.46,1.11-1.09,4.4.16,5.41-.82,1.01-.98-.74-4.66.21-5.73s1.78-1.79,2.47-3,2.05-1.81,2.26-3.24c.26-1.76,1.28-3.56.8-5.28s-.52-3.74-1.25-5.33c-.64-1.41-3.41-1.81-4.1-3.2s-.16-3.39-.89-4.76-.57-3.26-1.34-4.6-2.58-2.09-3.4-3.41-1.89-2.47-2.75-3.76-3.03-1.64-3.93-2.9-2.09-2.23-3.03-3.46-.49-3.51-1.47-4.71c-.92-1.13-.72-3.01-1.44-4.28s-2.29-2.17-2.16-3.68c.11-1.22,2.27-1.26,2.95-2.28s-.2-3.1.64-3.96c1.05-1.08,1.58-2.71,2.67-3.75s3.6-.55,4.72-1.55,1.79-2.5,2.95-3.46,2.6-1.54,3.79-2.47.79-3.97,2.01-4.86,3.29-.63,4.53-1.48,2.93-1.04,4.2-1.84,2.03-2.47,3.32-3.24,3.06-.73,4.38-1.45,3.11-.5,4.46-1.18c1.35-.68,1.76-3.26,3.13-4.01s2.09-2.2,3.31-3.1,2.65-1.23,3.59-2.41.97-2.34,1.38-3.88c.4-1.49.16-2.33-.04-3.8s2.67-3.79,2.06-5.19-2.4-2.29-3.21-3.56-2.76-1.74-3.65-2.91c-.88-1.16-.4-3.37-1.29-4.51s-4-.52-4.92-1.66-.23-3.55-1.16-4.67-1.88-2.22-2.83-3.33-3.38-.89-4.35-1.98-2.05-2.03-3.03-3.1-1.25-2.77-2.25-3.83-.18-3.84-1.2-4.89-4.49.33-5.51-.7.22-4.35-.82-5.36-3.24-.84-4.29-1.84-.99-3.22-2.06-4.2-2.91-1.14-3.99-2.11c-1.17-1.04-2.1-2.36-3.26-3.45s-1.9-2.47-2.93-3.65-2.36-2.05-3.15-3.4-1.86-2.57-2.26-4.12c-.36-1.39.66-2.78.66-4.15s-2.09-3.04-1.77-4.4.12-3.14.67-4.45,3.87-1.22,4.58-2.45,1.86-1.97,2.66-3.12,0-3.43.86-4.52,3.05-1.13,3.93-2.17c.98-1.16.13-3.86,1.11-5.01s3.7-.85,4.67-2.01.6-3.46,1.57-4.62,3.55-.98,4.52-2.14,1.79-2.45,2.77-3.61,1.91-2.36,2.88-3.52-.07-4.03.9-5.19,3.44-1.07,4.42-2.23,1.98-2.29,2.96-3.45,1.27-2.9,2.25-4.06,2.57-1.8,3.54-2.96,1.05-3.08,2.02-4.24,2.52-1.84,3.5-3,2.87-1.54,3.85-2.7,1.38-2.8,2.36-3.96,1.46-2.74,2.43-3.9,2.26-2.06,3.24-3.22,3.29-1.2,4.26-2.35,1.9-2.36,2.88-3.52,1.83-2.43,2.8-3.59.97-3.15,1.95-4.31,1.42-2.77,2.4-3.93,2.84-1.57,3.82-2.73,1-3.12,1.98-4.28,2.96-2.35,3.94-3.51c-1.44-.39-3.52-1.1-4.97-1.42s-2.84-1.14-4.3-1.41-3.27,1.58-4.74,1.37-2.78-1.61-4.26-1.77-2.93-.78-4.41-.9-3.03.64-4.51.56-2.95-.56-4.44-.61-2.98.25-4.47.23-2.97,1.57-4.46,1.57-2.96-.71-4.45-.7-3.01-2.59-4.5-2.56-2.94,2.23-4.42,2.26c-1.49.03-2.98.7-4.47.72s-2.98.43-4.48.46-2.98.52-4.48.55-3.01-.9-4.5-.87-3-.34-4.49-.32-3-.65-4.5-.62-3.01-1.11-4.51-1.08-2.94,2.74-4.44,2.77-3.02-1.9-4.52-1.87-3.01-1.18-4.51-1.15-2.99.27-4.48.3-2.98.49-4.48.51-2.96,1.76-4.45,1.79-3.02-1.45-4.51-1.43-3-.61-4.5-.58-2.97.88-4.47.91-2.97,1.27-4.46,1.3-2.96,1.44-4.46,1.47-3.01-.88-4.5-.85-2.99-.09-4.49-.06-3-.32-4.49-.29-3.03-1.78-4.52-1.75-2.93,3.18-4.42,3.21-3.05-2.72-4.54-2.69-2.99.14-4.48.17-2.99-.17-4.49-.14-3-.31-4.49-.28-2.98.39-4.48.42-2.96,1.31-4.46,1.34-3.01-.8-4.5-.77-3.01-.66-4.5-.62-2.96,1.3-4.46,1.34-2.99.02-4.48.06-2.99-.12-4.49-.08-3.01-.6-4.5-.56-2.98.33-4.48.37-2.98.63-4.47.66-2.97,1-4.46,1.04-2.96,1.26-4.45,1.29-3.05-2.24-4.54-2.2-2.93,2.57-4.42,2.61-2.99.06-4.48.1-3.07-3.08-4.57-3.04-2.91,3.13-4.4,3.17-3.05-2.31-4.55-2.27-3.02-.93-4.51-.89-2.99,0-4.49.05-2.89,3.61-4.38,3.65-3.09-3.3-4.58-3.25-2.89,3.55-4.38,3.59-3.09-3.38-4.59-3.33-2.96.95-4.46,1-2.98.5-4.47.54-2.99-.11-4.49-.06-3-.17-4.49-.12-2.91,2.6-4.4,2.65c-1.5.05-3.02-.48-4.52-.43s-2.99.48-4.49.53-3.04-1.02-4.54-.97-2.99.34-4.5.39-2.97,1-4.47,1.06-3.07-1.73-4.57-1.67-3.02-.44-4.53-.38-2.93,2.02-4.43,2.08-3.03-.7-4.54-.64-3,.1-4.5.16-2.96,1.04-4.46,1.1-3.1-2.05-4.6-1.98-2.96,1.02-4.47,1.08-2.99.44-4.49.51-3,.08-4.51.15-3.04-.68-4.54-.6-2.99.35-4.49.43-2.96.94-4.46,1.02-3.07-1.15-4.57-1.07-2.89,2.24-4.39,2.32-3,.12-4.5.21-2.93,1.3-4.43,1.39-3.15-2.3-4.65-2.2-3.09-1.14-4.59-1.04-2.88,2.03-4.38,2.12-3.08-.96-4.58-.86-3.02-.12-4.52-.02-2.94,1.11-4.44,1.22-2.89,1.64-4.39,1.76-3.05-.44-4.54-.32-3.04-.34-4.54-.22-2.81,2.53-4.31,2.65-3.04-.38-4.54-.25-3.18-1.89-4.67-1.77-2.89,1.48-4.39,1.61-3.05-.33-4.55-.2-2.96.59-4.46.73-3.12-1.03-4.62-.88-2.87,1.53-4.37,1.68-3.17-1.46-4.67-1.31-2.68,3.3-4.17,3.46-3.27-2.29-4.76-2.13-2.66,3.3-4.15,3.47-3.04-.19-4.54-.02-3.31-2.43-4.8-2.26-2.61,3.45-4.11,3.63-3.19-1.31-4.68-1.12-3.04-.05-4.53.14-3.15-.88-4.64-.68-2.58,3.43-4.07,3.63-3.33-2.18-4.82-1.97-2.76,2-4.25,2.21-3.23-1.31-4.72-1.09-2.69,2.4-4.17,2.63-3.09-.33-4.58-.1-2.81,1.51-4.29,1.75-3.08-.21-4.56.03-3.17-.73-4.65-.49-2.63,2.48-4.11,2.74-2.88.96-4.36,1.22-3.47-2.36-4.95-2.1-2.75,1.74-4.22,2.01-2.74,1.7-4.22,1.97-3.37-1.63-4.85-1.34-2.72,1.79-4.19,2.08-2.8,1.35-4.27,1.65-3.33-1.29-4.8-.98-2.4,3.23-3.87,3.54-3.2-.61-4.67-.3-2.82,1.15-4.29,1.48-3.04.16-4.51.49-2.53,2.39-4,2.72-3.01.3-4.47.65-3.38-1.22-4.84-.87-3.2-.4-4.66-.04-2.33,3.09-3.79,3.45-3.5-1.55-4.96-1.17-2.77,1.31-4.23,1.69-2.12,3.7-3.57,4.09-3.74-2.31-5.19-1.91-2.6,1.88-4.05,2.29-2.29,2.94-3.73,3.35-3.97-2.89-5.41-2.47-1.97,3.94-3.41,4.37-3.61-1.54-5.05-1.11-2.84,1.02-4.27,1.47-2.99.52-4.43.98-1.94,3.77-3.37,4.24-3.17-.04-4.6.43-2.84.96-4.27,1.45-2.65,1.52-4.07,2.01-3.66-1.36-5.08-.86-2.43,2.14-3.85,2.65-3.03.47-4.44.98-3.03.5-4.44,1.02-2.97.68-4.37,1.22-2.16,2.77-3.56,3.31-3.04.48-4.44,1.04-2.67,1.42-4.06,1.99-2.62,1.52-4.01,2.1-3.2.14-4.59.72-2.38,2.11-3.76,2.7-2.55,1.68-3.92,2.28-3.75-1.04-5.12-.43-2.48,1.85-3.85,2.47c-1.51.68-2.44,2.69-3.91,3.48s-2.11,2.64-3.42,3.66-4.29.39-5.27,1.77c-.9,1.27-.02,3.52-.56,4.97s-3.47,2.32-3.77,3.85-.23,3.21-.44,4.73c-.2,1.48,1.84,3.25,1.65,4.73s-2.41,2.7-2.6,4.18,2.7,3.33,2.52,4.81-2.82,2.67-2.99,4.15,1.72,3.19,1.56,4.67-2.16,2.77-2.31,4.25-.63,2.94-.77,4.42.48,3.04.34,4.53-2,2.82-2.13,4.31,1.99,3.17,1.86,4.65.6,3.04.48,4.52-.31,2.96-.42,4.45-.67,2.94-.77,4.43-1.01,2.92-1.1,4.41,1.16,3.05,1.08,4.54-.02,2.98-.1,4.47-.22,2.97-.29,4.46-2.72,2.87-2.78,4.36,1.04,3.03.98,4.52-1.7,2.93-1.74,4.43.42,3,.38,4.49,3,3.05,2.97,4.54-1.08,2.96-1.1,4.45-1.82,2.96-1.83,4.45.09,2.99.08,4.48,1.4,2.99,1.4,4.48.62,2.98.63,4.47-1.47,2.99-1.45,4.49.76,2.97.78,4.46.88,2.96.91,4.45-.26,2.99-.22,4.48-.07,2.98-.02,4.47.97,2.95,1.03,4.44-.61,3-.55,4.49.24,2.97.31,4.46-.12,2.99-.04,4.48-1.12,3.05-1.03,4.54.43,2.96.52,4.45,2.33,2.83,2.44,4.32-3.48,3.24-3.37,4.73,2.37,2.82,2.48,4.3-1.67,3.13-1.54,4.62,1.25,2.89,1.39,4.38.29,2.97.43,4.46-.2,3.02-.05,4.51.2,2.98.36,4.47.29,2.98.45,4.46,1.13,2.88,1.3,4.36.78,2.91.96,4.39.21,2.98.4,4.46-.26,3.04-.07,4.52,2.56,2.66,2.76,4.14.67,2.91.88,4.39-2.56,3.39-2.34,4.86,3.14,2.54,3.37,4.02-1.19,3.84-.95,5.31c2.09.84,1.35-2.16,3.86-3.53,1.12-.61,2.23-1.74,3.74-2.56,1.21-.66,3.46.31,4.88-.46,1.25-.68,1.46-3.47,2.85-4.22,1.28-.69,3.55.35,4.92-.38,1.29-.69,1.99-2.57,3.35-3.3s3-.72,4.35-1.44,3.17-.4,4.52-1.11,3.08-.58,4.42-1.28,1.44-3.74,2.77-4.44,2.15-2.41,3.48-3.1,4.32,1.79,5.65,1.11,1.2-4.32,2.53-4.99,3.04-.74,4.36-1.4,3.34-.14,4.65-.79c1.4-.69,3.06-.71,4.36-1.34,1.43-.68,3.01-.82,4.3-1.42,1.47-.68,1.66-3.95,2.93-4.5,1.59-.69,3.83.8,5.02.36,2.54-.94,2.99-1.89,3.17-1.38Z"/>
  <path d="M243.38,374.48c2.03,2.73,4.31,4.34,7.06,6.22l-3.59-3.59c-.35-1.63-.39-1.58-.11.14.09.96.26,1.91.53,2.84.53,1.73,1.52,3.52,2.26,5.19,1.12,2.52,2.5,5.12,3.37,7.73s1.15,5.18,2.75,7.6c1.31,1.99,3.75,3.37,3.97,4.99v-5.32c-1.05,4.34-2.7,8.33-.17,12.65,2.42,4.13,6.54,4.84,10.55,6.5l-4.41-2.57c.06.05.99,3.44,1.16,4.27.24,1.2-.09-.97.04,1,.11,1.58.17,3.11.64,4.64.92,3.02,3.02,4.83,5.16,6.9,1.28,1.24,1.76,2.05,3.46,3.12l.95.49c2.95,1.37,3.17,1.37.67,0l-2.57-4.41c-.54-1.85.1,4.7.02,4.4.58,2.41,1.85,4.5,3.65,6.19,2.61,2.44,5.24,4.05,8.32,6.25l-3.59-3.59c1.86,2.5,2.6,5.19,5.47,7.02,3.42,2.17,8.08,2.52,11.68.41,1.42-.83,2.54-2.1,3.78-3.13-2.93,2.45,1.47-.1,2.19-.49,3.14-1.73,4.99-4.51,6.54-7.63.85-1.71,1.55-3.38,1.94-5.26l.36-2.66c-1.54,2.33-1.66,2.73-.35,1.22,2.41-2.47,3.02-5.59,4.23-8.65s2.59-5.59,3.18-8.82c.36-1.97.67-3.68.49-5.65-.09-.8-.21-1.6-.37-2.39-.41-1.32-.42-1.46-.02-.43l-1.37,5.05c2.19-3.36,5.81-6.8,8.15-11.29.97-1.85,1.5-4.11,1.49-6.22-.11-1.11-.27-2.22-.48-3.32-.24-1.15-.12-.89.35.78.71-.67,1.1-2.61,1.38-3.5,1.53-4.85-.58.56-1.3.34.88.27,4.14-3.8,4.41-4.22,1.19-1.86,1.78-3.52,1.91-5.8.09-1.51-.47-3.04-.36-4.49-.23-1.13-.15-.89.23.73l.4-1.46c1.98-2.91,2.24-6.4,3.13-9.65-.47,1.72.39-.91.74-1.41.5-.72,1.21-1.22,2.09-2.28,1.99-2.39,3.13-5.62,3.99-8.6l.35-1.48c.65-2.98.61-3.51-.13-1.57-.76,1.38-.64,1.46.36.22.7-.78,1.32-1.62,1.87-2.51,1.37-2.3,2.84-5.84,3.39-8.53.61-2.98-1.35.73.29-1.32,1.08-1.36,1.96-2.6,2.64-4.2.37-.88,2.07-9.73,2.26-9.79l-.71,2.29c1.07-.73,1.93-1.67,2.57-2.83.86-1.28,1.46-2.56,1.85-4.08.23-.9.62-4.89.08-2.86.45-1.7,1.62-3.52,2.2-5.15.09-.27,1.34-5.11.05-1.83.56-1.42,2.09-2.57,2.87-3.93l-5.98,4.6.96-.24h-5.32l.59.22-4.41-2.57c1.28,1.28,3.64,2.75,4.39,3.37,1.4,1.15,3.72,3.42,6.22,4.1,4.22,1.15,8.44-.17,12.3.12l-5.05-1.37c.78.49,3.86,3.03,5.64,3.98,1.44.76,2.85,1.61,4.42,2.08,1.21.36,5.73,2,2.95-.02l-3.59-3.59c2.77,3.77,5.02,7.14,9.95,8,1.96.34,4.03.34,5.93-.34,1.69-.45,1.43-.51-.79-.18,3.1.59,3.53.55,1.27-.11l-3.59-3.59c1.54,2.13,2.48,4.23,4.58,5.98,2.25,1.87,5.3,3.37,8.04,4.33,2.55.9,5.39,1.59,8.1,1.75,1.18.21,1.54.14,1.08-.22-.82-.7.02-.63,2.51.22,2.09.14,3.09,1.18.32-.85l-3.59-3.59c1.75,2.59,2.75,5.13,5.54,6.93,3.32,2.14,6.67,1.67,10.33,2.16l-5.05-1.37c2,1.29,4.03,3.69,7.37,4.24,1.71.28,3.17.3,4.92-.14.48-.12,3.32-.65,1.56-.73l-5.05-1.37c2.44,1.57,4.71,4.18,8.7,4.41,1.65.09,3.55-.76,5.07-.47-2.84-.56.48,1.52-.52.77l-3.59-3.59c.44.69.36.85.14.05.28,1.04.84,2.28,1.38,3.24,1.06,1.86,2.69,3.6,4.56,4.67,2.59,1.47,5.37,1.23,8.17,1.48.62.05,2.69.75,3.26.32,1.41.02.9-.43-1.51-1.35-2.29-1.75-2.73-1.85-1.34-.29,2.29,3.97,7.47,5.35,11.49,6.83,2,.73,4.17,1.7,6.34,1.68,2.99-.03-.26-.55,1.42-.02.83.26,4.55,2.57,1.93.68,4.29,3.1,7.91,5.31,13.35,3.54.57-.19,3.09-.9,3.38-1.57.16-.37-6.05,1.45-2.17,1.07-.84.08-2.15-1.72-.89-.01.67.91,1.77,1.72,2.71,2.31,3.34,2.07,7.4,3.52,10.91,5.38,2.4,1.27,4.71,2.43,7.51,2.46,1.21.01,2.47-.18,3.65-.46.59-.14,2.42-.27.93-.37l-5.05-1.37c3.65,1.98,8.57,6.24,14.04,6.14,1.13-.04,2.23-.22,3.31-.53,1.11-.24.87-.28-.72-.11.21-.26,2.79.53.43-.59,1.37.65,2.51,2.22,3.9,2.99s3.01,1.19,4.54,1.64c4.82,1.42,9.7,2.4,14.36,4.18,1.16.44,2.34.86,3.53,1.23l-1.07-.8c.64.52,1.28,1.03,1.94,1.53,1.36.98,2.77,1.83,4.4,2.33l1.48.3c3.11.58,3.53.55,1.26-.11l-3.59-3.59c2.9,4.42,5.16,8.69,11.22,8.89,2.03.07,3.76-.64,5.69-.88-1.62.21.48.24,1.06.26,1.04.04,1.91-.18,2.98-.04l-5.05-1.37.63.48-3.59-3.59c2.44,4.03,4.13,7.65,9.23,8.92,2.13.53,4.65,1.08,6.83,1.1,1.21.01,2.46-.19,3.64-.46.59-.14,2.42-.26.91-.35l-5.05-1.37c-1.47-.89.67,1.05.82,1.2,1.15,1.09,2.53,1.97,4,2.54,3.14,1.23,6.37.2,8.79.29l-5.05-1.37.63.47-3.59-3.59c1.88,2.94,2.86,5.76,6.16,7.62,1.83,1.03,3.92,1.41,5.99,1.38,1.3,0,2.55-.24,3.73-.73,3.04-1.15,3.19-1.32.48-.51l-5.05-1.37c3.41,1.7,5.26,4.35,8.86,5.83,2.33.96,4.84,1.13,7.3.52,1.12-.38,2.22-.83,3.29-1.33,1.72-.79,1.23-.77-1.46.07l-5.05-1.37c-.94-.58-.27.05.11.52.73.91,1.74,1.7,2.71,2.32,1.85,1.19,3.96,2.28,5.99,3.09,2.19.88,4.53,1.48,6.86,1.83,1.93.28,5.27-.29,6.19-.24l-5.05-1.37c5.1,2.56,9.44,6.57,14.89,8.44,3.36,1.16,7.35,2.32,10.85.88,1.69-.51,1.41-.58-.85-.23l1.46.33c.96.31,1.93.52,2.93.64,3.09.67,3.51.58,1.29-.25l-3.59-3.59c2.04,2.66,3.23,5.47,6.35,7.2,1.88,1.04,3.89,1.39,6,1.34.56-.01,9.87-1.64,4.2-1.46l-5.05-1.37c2.54,1.11,3.91,1.89,5.91,3.38,2.7,2.02,5.42,2.45,8.61,3.11,5.79,1.2,10.13-1.7,12.3-6.98,1.56-3.8,1.86-9.88,1.57-13.95-.23-3.19-.97-6.01-2.96-8.56.04.06-2.56-2.84-1.46-1.28.97,1.38-.75-2.04-.83-2.26-.48-1.21-.95-2.66-1.73-3.74-2.27-3.1.59,1.48-.34,1.95,1.49-.75,0-6.83-.3-8.05-.72-2.9-1.67-5.87-3.71-8.12-.91-1-1.96-1.75-3.03-2.6-.43-.34-1.58-1.61-.77-.63l2.57,4.41c-1.51-4-2.24-8.16-4.09-12.02-.99-2.07-2.01-4.14-3.65-5.78-.81-.81-1.81-1.63-2.84-2.15-.31-.16-2.14-1.28-1.15-.3l2.57,4.41c-.75-2.13-1.84-6.86-3.4-9.89-.78-1.52-1.71-2.86-2.95-4.04-.87-.87-1.86-1.55-2.97-2.05-2.96-1.37-3.17-1.37-.64.01l2.57,4.41c-.91-2.36-.95-4.78-2.23-7.09-1.04-1.88-2.31-3.25-2.95-4.67-1.19-2.68-2.26-4.98-4.75-6.71-1.33-.93-2.71-1.66-4.29-2.08-.84-.22-2.66-1.25-1.2-.14l4.6,5.98c.76,2.02.3-1.19.27-2.08-.08-1.97-.66-4.08-1.65-5.79s-2.68-3.16-4.37-4.14c-1.11-.59-2.27-1.03-3.48-1.31-1.36-.31-1.59-.33-.71-.06l3.59,3.59c-2.18-2.99-2.17-4.12-3.83-7.23-.78-1.46-1.75-2.72-2.96-3.84.52.49-4.77-4.16-2.17-1.33-2.31-2.52-4.17-5.3-6.65-7.73-2.04-2-3.87-4.12-5.77-6.25v14.14l.8-.64-4.41,2.57.58-.13-7.71-1.01c-2.2-1.1,2.08,1.45,2.54,1.74.76.48,1.97.86,2.61,1.31,1.95,1.38,3.66,3.46,5.82,4.82,2.32,1.47-.07-.45.69.53.89,1.16,1.67,2.37,2.76,3.37,2.82,2.58,5.72,2.47,8.99,3.73l-4.41-2.57c2.17,1.81,3.98,3.91,6.62,5.09,1.91.85,4.86.71,6.14,1.07l-4.41-2.57.49.6-2.57-4.41c.88,2.67,1.1,4.96,2.82,7.38s4.5,4.25,7.05,5.68,4.53,1.71,6.8,2.42c1.67.53,3.32.48,5.02.78l-1.3-.3c2.7,1.38,3.13,1.43,1.31.17l-2.57-4.41c1.1,3.35,1.36,6.38,4.1,9.03,1.5,1.45,3.33,2.31,5.32,2.81,1.25.36,2.51.45,3.77.26,3.36-.31,3.55-.45.57-.41l-4.41-2.57c-1.44-2.52-1.46-2.31-.07.65.47,1.12,1.14,2.12,2.03,2.98,1.24,1.31,2.71,2.46,4.11,3.6,2.34,1.9,4.76,3.07,7.82,3.13,1.2-.11,2.4-.26,3.6-.45,1.88-.34,1.36-.46-1.55-.37l-4.41-2.57.62.7-2.57-4.41c1.11,2.64,1.78,5.4,3.79,7.55,2.12,2.26,5.04,3.61,7.89,4.77,1.66.68,2.82,1.05,4.75,1.11,1.58.05,6.5.04,1.65-.77s-.31,1.16,1.14,2.1c.34.22,3.15,2.19,2.29,1.2l-2.57-4.41c1.16,3.31.92,5.96,3.6,8.83s5.99,2.98,9.38,4.29l-4.41-2.57c3.38,2.7,5.97,4.81,10.09,6.18,1.75.58,5.63,1.86,6.5,2.84l-2.57-4.41c1.93,4.65,3.42,9.24,8.82,10.86,3.97,1.19,6.76-.46,10.46-1h-5.32c-4.05-.98,2.26,2.19,3.15,2.64,2.14,1.08,2.44,1.06,4.11,2.32,2.35,1.78,7.04,4.03,8.31,5.49l-2.57-4.41c1.2,3.26,1.52,6.31,4.21,8.9,1.52,1.46,3.32,2.3,5.33,2.8,1.25.38,2.51.46,3.78.25,3.36-.28,3.55-.44.56-.47l-4.41-2.57-1.07-1.68,1.01,2.39c.56,1.07,1.17,2.1,2.02,3,1.54,1.62,3.36,2.64,5.33,3.63,2.4,1.21,4.72,2.35,7.47,2.42,3.18.09-1.15-.42-1.08-.54-.03.05,2.8,2.2,3.21,2.47,3.38,2.21,6.48,4.56,9.81,6.96,3.54,2.55,7.39,4.12,10.94,6.49,3.82,2.55,8.26,5.69,13.02,5.13s7.64-3.87,10.33-7.56c2.28-3.13,5.39-5.14,7.85-8.17,3.29-4.05,3.35-7.46,3.86-12.35l-1.37,5.05s2.15-2.19,2.93-2.94c1.68-1.61,3.47-2.75,5.26-4.24,1.67-1.39,3.37-2.75,4.74-4.44,1.12-1.39,2.6-4.55,2.97-5.1l-3.59,3.59c-1.4.88,1.1-.13,1.45-.24,1.54-.49,2.94-1.26,4.18-2.28,2.3-1.91,3.26-4.37,4.96-6.71l-3.59,3.59c-1.36.88.95-.18,1.37-.32,1.86-.62,3.78-1.67,5.18-3.07s2.5-3.4,3.03-5.21c.13-.43,1.01-3.07.11-1.51l-3.59,3.59c2.46-1.73,4.88-2.3,6.89-4.83,1.04-1.31,1.74-2.55,2.24-4.21l.22-1.04c.57-3.35.5-3.54-.21-.57l-3.59,3.59c-.85.48-3.58.62-1.37.79,1.57.12,3.32-.44,4.77-1,2.64-1.03,4.69-2.96,6.08-5.43.61-1.09.77-2.5,1.42-3.55-.94,1.5-.44.96.49.12,2.11-1.93,3.48-4.53,5.21-6.77l-3.59,3.59c-1.73,1.04,4.31-1.34,3.94-1.14,1.81-.98,3.28-2.28,4.37-4.05.77-1.24,1.5-2.72,1.79-4.17.43-1.58.22-1.42-.61.47,1.95-2.28,2.14-2.65.55-1.11l-5.05,1.37c4.76-.54,9.23-.06,12.55-4.39,1.55-2.02,2.43-4.45,2.45-7.03,0-.9-.15-1.79-.27-2.68-.53-3.94-.15,1.21-.08-1.47l-1.37,5.05c-.54,1.25,1.61-2.03,2-2.53.78-.99,1.8-2.02,2.47-3.12,1.79-2.92,2.8-7.52,2.75-10.88-.05-3.02-.85-7.06-2.16-9.83-.91-1.92-2.07-3.41-3.69-4.74-.37-.3-3.33-2.66-2.48-1.67l2.57,4.41c-.7-2.45-1.17-7.38-2.73-10.55-1.1-2.24-2.56-3.59-4.23-5.33-1.48-1.54-2.51-3.5-3.99-5.06-1.09-1.14-3.13-2.19-3.93-2.9-.56-.49-1.7-1.65-2.03-2.3.7,1.42.74.65.61-.4-.29-2.28-1.28-3.19-1.75-4.83-.34-1.17-.92-2.35-1.54-3.37-.36-.5-.73-.99-1.12-1.47-1.16-1.55-1.06-1.34.3.65l-1.01,7.71.41-.73-3.59,3.59c5.53-3.17,7.64-6.92,7.78-13.3l-1.37,5.05c.51-1.2,2.42-2.58.07-1.38-2.78,1.42.09.51.89.28,3.85-1.13,5.06-3.73,7.8-6.17-1.02.91.59-.2.89-.38,1.57-.93,2.89-2.04,4.06-3.41,1.06-1.25,1.82-2.62,2.34-4.18.17-.52,1.33-2.87.45-1.69l-3.59,3.59c.98-.45,5.43-1.71,7.36-2.67,2.81-1.4,4.39-3.57,6.73-5.45l-4.41,2.57c3.59-1.4,7.89-1.68,11.23-3.63s4.84-5.46,6.85-7.08c3.2-2.58,6.26-4.43,7.95-8.43,1.81-4.28,1.81-8.46,1.15-12.99v5.32c-.62,1.02-.56.95.18-.23.69-1.02,1.21-2.13,1.58-3.32.46-1.42.7-2.8.67-4.31-.09-4.48-3.11-7.73-6.14-10.63-.56-.53-3.88-2.65-3.82-3.06,1.85,2.87,2.48,3.23,1.91,1.08-.47-1.15-.95-2.29-1.46-3.41-1.04-1.71-2.61-3.13-4.36-4.09.22.12-5.7-2.14-4.15-1.15l4.6,5.98c.21.5-.32-.45-.36-.97-.13-1.81-.54-3.43-1.37-5.05-.99-1.94-2.4-3.67-3.89-5.29-1.77-1.92-3.61-3.31-6.08-4.2-.62-.22-1.35-.34-1.95-.61,1.96.88,1.43,1.19.59-.47-.35-.69-.7-1.48-1.17-2.11-1.12-1.51.34,3.59.16.08-.13-2.41-1.04-4.72-2.54-6.6-3.39-4.26-7.81-3.95-12.67-4.3l5.05,1.37-.69-.34,3.59,3.59-.34-.68,1.37,5.05c-.33-3.32.14-6.25-1.67-9.39-2.13-3.7-5.51-4.28-8.06-5.76l3.59,3.59c-1.6-2.44-2.54-5.9-6.11-8.09-.46-.34-.97-.6-1.53-.76-2.84-1.11-3.2-1.31-1.08-.6-.87-.86-1.75-1.81-2.56-2.73-1.24-1.42-2.39-2.95-3.63-4.37s-2.18-1.82-1.32.55c-.6-1.67.75-4.61.25-6.69s-1.61-3.87-2.64-5.72l1.37,5.05c-.14-1.06-.08-1.84.17-2.86l-2.57,4.41c-2.56,1.33-2.97,1.67-1.22,1.02,1.09-.43,2.16-.9,3.22-1.39,1.92-1.17,2.86-2.45,4.24-4.13,1.47-1.78,2.81-3.18,3.57-5.49.47-1.18.71-2.41.71-3.69-.05-1.38,0-1.65.15-.83l-4.6,5.98c1.2-.92,5.87-3.07,7.52-5.76,1.75-2.87,1.68-6.02,2.08-9.21l-1.37,5.05.4-.86-3.59,3.59c-1.12.79,1.04-.3,1.52-.46,1.56-.54,2.91-1.27,4.17-2.33,2.63-2.24,3.03-5.17,4.15-7.43l-3.59,3.59c-1.01.75.2-.09.89-.39,1.1-.47,2.23-.85,3.26-1.47,2.49-1.51,3.9-3.82,5.65-6.04,1.51-1.9,3.23-3.67,4.34-5.83,1.41-2.73,1.3-5.53,1.52-8.49l-1.37,5.05.38-.87-3.59,3.59c-1.04.14-.93.05.33-.27,1.12-.45,2.24-.91,3.34-1.39,1.92-1.08,3.35-2.77,4.74-4.43,1.55-1.86,2.56-4.09,3.99-5.92-1.02.9-.47.5,1.64-1.22,1.08-.85,1.98-1.87,2.7-3.05.69-1.05,1.22-2.17,1.6-3.38.76-1.8.5-1.54-.79.76-.24-.46,3.73-2.73,4.1-2.99,4.18-3.03,5.27-7.18,8.41-10.93.47-.47.96-.93,1.47-1.37-1.62.46-1.63.4-.03-.18,2.58-1.32,4.31-2.25,6.32-4.44,3.12-3.41,5.93-7.19,7.87-11.35.51-1.1.83-2.31,1.92-3.57-2.06,2.39,2.36-1.2,3.1-1.98,1.91-2.01,2.04-4.47,3.56-6.55-2.35,3.22,1.82-.71,2.36-1.23,5.44-5.34,2.73-14.64-4.41-16.71-2.86-.83-5.69-1.83-8.55-2.62-4.16-1.15-7.5.71-10.78,1.17h5.32c-2.73-.87-7.38-2.9-11.33-3.03-1.55-.05-3.16.54-4.66.52-1.95-.03-3.81-.54-5.78-.52-2.19.03-4.67.14-6.75.78-1.2.46-2.36.97-3.5,1.55,3.39-.63,3.34-1-.15-1.1l2.89,1.09c-.94-.77-1.92-1.51-2.92-2.2-2.63-1.45-5.67-1.97-8.6-1.27-1.2.35-2.37.81-3.5,1.37-1.55.78-1.47,1.03.24.73-.53.24-3.55.53-4.47.65-2.19.3-4.94.82-7.14.84,1.34.31,1.12.23-.67-.25-1.38-.21-2.77-.4-4.16-.58-3.21-.35-6.18-.81-9.33-1.39-2.71-.5-5.02-.84-7.71.02-.53.17-8.86,4.24-3.54,2.47h5.32c-1.16-.29-3.57-1.5-5.27-2.02-2.92-.89-5.57-1.42-8.65-1.21-2.25.15-4.47.37-6.72.66-2.37.31-5.62,1.76-7.11,2.14h5.32c-4.19-.8-9.72-2.98-15.07-1.89-4.14.84-9.44,2.88-12.64,3.56h5.32c-3.17-.45-6.16-1.19-9.4-1.24-1.24-.02-2.5-.11-3.74-.1-3.42.03,1.22,1.02-1.34-.34-2.93-1.56-6.4-2.03-9.57-1.03s-4.89,3.31-7.35,5.29l4.41-2.57-.74.25h5.32c4.66,1.4-1.34-1.41-2.44-1.91-2.04-.93-4.03-1.07-6.25-1.08-3-.02-5.97.07-8.97-.09-3.59-.19-7.36-.19-10.87.75-1.1.22-2.15.61-3.13,1.19,2.61-.61,2.3-.93-.93-.96-1.49-.21-3.01-.56-4.5-.66-1.92-.13-3.78-.02-5.64.56-2.54,1.22-3.14,1.43-1.81.65h-1.5c-3.02-.44-7.44-.61-10.48-.61-7.08-.02-13.75,2.16-20.52,3.72h5.32c1.91.46-3.98-2.08-3.64-1.98-2.02-.58-4.16-.72-6.22-.22-1.92.47-3.71,1.38-5.17,2.71-1.9,1.33-1.27,1.19,1.92-.43-2.65-.16-2.05.34,1.8,1.48.15-.23-2.79-2.44-3.55-2.87-2.56-1.44-5.6-1.94-8.46-1.22-3.53.88-5.43,3.38-8.07,5.5l4.41-2.57-.74.25h5.32c1.4.35-.41-.52-.8-.76-1.17-.73-2.45-1.14-3.75-1.52-2.76-.81-5.8-1.17-8.66-1.23-2.61-.05-5.18.04-7.58,1.17-2.79,1.32-3.99,3.18-6.12,5.15l4.41-2.57-.74.28h5.32l-.75-.23,4.41,2.57c-3.42-2.71-6.07-5.95-10.9-5.95s-7.47,3.29-10.71,6.24l4.41-2.57-.74.28h5.32l-.75-.23,4.41,2.57c-1.75-1.41-3.12-3.27-5.1-4.43-3.16-1.85-6.5-1.62-9.95-.97-5.08.95-10.04.18-15.09.9-1.71.25-3.02.59-4.61,1.48-1.42.79-5.41,2.95-.86,1.62s-.7-1.05-2.13-1.05c-.63,0-5.56.37-3.75.58,1.2.14-2.66-.66-2.62-.66-1.7-.3-3.2-.31-4.91-.16-3.26.28-6.2,1-9.38,1.61h5.32c-1.64-.36-5.01-1.72-7.41-2-3.56-.41-7.28-.71-10.51,1.29-2.69,1.67,3.4,1.03.03.06-1.39-.4-2.91-.29-4.34-.28-3.55.03-6.7.88-10.13,1.56h5.32c-3.47-.89-5.63-2.81-9.91-1.98-2.64.51-5.08,1.15-7.8,1.29-3.06.16-5.99-.53-9.05-.38-3.47.17-6.74,1.04-10.12,1.68h5.32c-2.43-.42-4.7-1.43-7.23-1.43-1.14,0-6.18.79-6.7,2.14-.95.54-.68.63.81.25-1,.04-2,.08-3,.14-2.62.24-4.63,1.11-7.09,1.74h5.32c1.76.39-3.99-2.08-3.73-2-1.8-.55-3.17-.87-4.36-1.11-2.63-.54-4.99-.62-7.56.22-1.26.37-2.42.94-3.47,1.71,3.34-.5,3.27-.82-.2-.96-4.53-.46-8.8-.08-13.14,1.36-1.22.28-2.38.72-3.5,1.31-1.87.84-1.41.89,1.39.18.04-.2-5.76-.49-6.44-.53-2.01-.1-3.85-.08-5.81.56-1.34.43-10,4.36-2.28,1.95-1.92-.34-2.02-.25-.32.27-1.14-.67-2.33-1.22-3.57-1.65-2.49-.76-5.1-.73-7.57.05-1.18.46-2.34.97-3.48,1.52,1.85-.54,1.79-.79-.18-.74-2.37-.6-4.82.92-7.14.84,1.54-.75.9-1.02-1.92-.82-1.4-.31-2.79-.26-4.19.16-1.39.32-3.99,1.57-4.37,1.68h5.32c-3.72-.53-6.24-2.36-10.35-1.16-3.54,1.03-5.02,3.31-7.5,5.58l4.41-2.57-.72.3h5.32c.83.49.67.36-.48-.39-1.05-.65-2.17-1.17-3.35-1.56-1.98-.59-4.25-.75-6.24-.17-3.47,1-5.35,3.43-7.84,5.74l4.41-2.57c.93-.03.57-.07-1.09-.11,1.94.91,2.16.88.64-.09-1.87-1.38-4.64-2.13-6.95-2.13-2.82,0-5.76,1.31-7.79,3.25-.61.58-3.11,2.53-1.36,1.75l5.05-1.37c-.18-.02-3.73-1.05-5.43-1.08-2.4-.05-4.5-.3-6.88-.45-2.58-.16-5.01.24-7.3,1.56-1.15.66-2.15,1.67-3.02,2.64-.61.68-1.7,1.29-.33.67,2.57-.34,5.14-.67,7.71-1.01,1.18.19-.48-.31-1.01-.56-1.26-.6-2.46-1.11-3.81-1.41-1.06-.23-9.62-.34-9.83,2.11.07-.84,5.23.37,2.02-.88-1.4-.55-3.62-.48-5.14-.29-3.29.43-5.57,2.79-7.89,3.81l5.05-1.37c-2.75.04-5.25-.25-7.96.51-.86.24-4.57,1.58-2.42,1.2-.88.16-2.45,0-3.28-.06-2.91-.19-5.02-.71-7.94.26-2.73.9-4.63,2.85-6.82,4.59l4.41-2.57c-1.66.69-3.48,1.13-5.22,1.58h5.32c1.21.19-.56-.37-1.11-.67-1.07-.57-2.2-1.06-3.37-1.36-3.28-.84-6.31-.16-9.25,1.32-.3.15-5.28,2.49-5.26,2.6-.05-.26,8.75,1.08,2.67-.93-1.34-.44-2.66-.75-4.11-.76-2.93-.03-5.06,1.13-7.61,2.37.81-.4-1.13.52-1.14.52l-2.39,1.01c2.65.01,3.26-.17,1.85-.55-1.86-1.84-7.8-.2-9.49.73-1,.55-2.03,1.22-2.85,2.02-.56.58-1.06,1.19-1.53,1.84-1.2,1.47-1.03,1.36.51-.32l5.05-1.37c-2.61-.02-4.7-.56-7.33.06-1.71.4-3,1.09-4.65,1.41-2.62.5-4.12.32-6.54,1.57-1.15.49-2.17,1.18-3.06,2.08-1.61,1.29-1.24,1.19,1.12-.32-3.13.42-3.54.48-1.25.17-1.25-.48-2.56-.73-3.91-.75-1.4-.09-2.92-.19-4.29-.15-2.68.07-5.08.44-7.39,1.9-1.06.63-1.98,1.42-2.75,2.37-2.03,2.48-2.1,2.68-.22.62l5.05-1.37c2.85.86,2.73.71-.34-.46-1.17-.47-2.4-.7-3.68-.7-2.8-.1-4.89.82-7.4,1.87-2.15.9-3.79,1.49-5.5,3.14-.72.91-1.44,1.83-2.14,2.76-1.03,1.5-.61,1.29,1.26-.64l5.05-1.37-.79-.03,5.05,1.37c-5.06-2.16-8.94-4.64-14.5-1.88-1.37.68-2.76,1.48-4.05,2.29-1.13.71-2.27,1.41-3.19,2.41-.27.3-1.8,1.67-.54.94l5.05-1.37-.68-.03,5.05,1.37c-3.82-1.75-6.42-4.34-11.11-3.63-5.34.81-7.28,4.73-10.06,8.7l3.59-3.59-.65.44,5.05-1.37c1.59-.01-.47-.44-.93-.59-1.32-.44-2.73-.56-4.12-.51-2.93.1-5.58,1.52-8.4,2.18-2.57.61-4.91,1.13-7.01,2.86-2.2,1.82-3.07,3.95-4.65,6.16l3.59-3.59c2.45-1.68-.3-.64-2.1-.24-1.24.27-2.39.64-3.6,1.07-2.74.97-5.25,2.29-7.88,3.5l5.05-1.37c1.62-.09-1.05-.46-1.48-.56-1.64-.38-3.27-.4-4.92-.12s-3.26.81-4.72,1.74c-.85.62-1.68,1.27-2.49,1.95-.81.67-.62.51.56-.5-5.22.97-11.97,1.82-16.14,5.31-.41.35-3.48,2.65-.67,1.24-1.17.59-2.9.65-4.17,1.15-2.73,1.07-5.2,2.89-7.92,3.92,2.05-.77-1.92,0-2.8.23-1.46.38-2.84.94-4.11,1.75-1.93,1.24-3.56,3.28-5.25,3.51h5.32c-3.19-.58-6.25-1.43-9.51-.56-2.61.7-5.1,2.66-7.28,4.2-2.37,1.67-4.74,3.89-6.67,6.07l-1.56,2.02c2.6-1.62,3.12-2.26,1.58-1.92-.79-.59-4.11,1.47-4.5,1.71-3.32,2.03-5.87,6.04-5.75,10.05s5.63-5.79.3-.96c-1.04.94-1.92,1.96-2.64,3.2-3.54,6.14-1.83,13.14.86,19.06l-1.37-5.05c2.02-4.27,1.97-4.81-.18-1.63l-.62.82c-1.29,2.3-1.75,4.64-1.51,7.24.17,1.8.62,3.29,1.56,4.89.5.88,1.1,1.69,1.8,2.43,1.11,1.48.89,1.08-.66-1.18v-5.32l-.36.86,2.57-4.41c-2.09,2.38-4.31,4.53-5.2,7.71-1.06,3.76,1.06,7.16,1.56,9.99v-5.32c-.32.86-2.14,3.73-2.55,5.73-.37,1.79-.82,3.8-.89,5.61l.05,1.5c.22,3.08.37,3.55.47,1.39.34-1.62.15-1.68-.58-.2l-1.01,2.39c-.56,1.74-.7,3.27-.55,5.08.14,1.67.6,3.13,1.34,4.63.22.49.48.96.77,1.41.58,1,.47.6-.33-1.22-.06,2.2.4,4.04.09,6.29-.34,2.51-1.16,4.89-1.64,7.36-1.04,5.34,1.97,9.81.38,14.35l2.57-4.41c-1.89,2.4-4.02,4.39-4.89,7.45-1.03,3.61.26,6.77.83,10.28v-5.32c-.15.58-1.41,2.97-1.74,4.43-.56,2.47-.23,4.52.06,6.98s.35,3.83,1.54,5.97c.68.95,1.38,1.87,2.12,2.78,1.19,1.4,1.07.94-.36-1.38v-5.32c-.74,3.77-2.6,6.32-3.11,10.23-.25,1.9-.25,3.9-.1,5.81.23,2.86,1.35,4.61,2.06,7.29-.56-1.76-.66-1.76-.32.01.11,2.17.41,1.79.93-1.16-.53,1.16-1.03,2.33-1.51,3.51-.27,1.25-.46,2.51-.58,3.78,0,3.47,1.51,7.07,1.64,10.41.15,3.96-.59,7.65.44,11.6.49,1.76.6,1.97.33.64-.23,1.38-.39,2.76-.48,4.15-.02,1.49.27,2.98.31,4.46.1,3.61-1.17,6.87-.92,10.5.14,2.03.4,4.59,1.01,6.5.32,1.2.85,2.28,1.6,3.25,1.88,2.65,2.06,2.71.56.2v-5.32l-.22.76,2.57-4.41c-2.22,2.79-4.82,4.68-5.72,8.38-.52,2.14-.34,4.13.29,6.19.31,1.21.85,2.29,1.61,3.24,1.87,2.65,2.06,2.71.59.18v-5.32c-.3,1.63-1.9,4.8-1.9,7.28,0,2.6,1.31,4.86,1.67,7.35.67,4.62.3,9.49.83,14.17s2.61,9.16,2.74,13.96c.08,2.8-.24,5.32.63,8.04s2.88,4.65,4.64,6.84l-2.57-4.41c.66,1.64.9,3.5,1.23,5.24v-5.32c.29-1.97-.8.9-1.22,1.7-.93,1.75-1.48,3.84-1.48,5.82s.75,4.16,1.78,5.89c.66,1.05,1.45,1.99,2.37,2.81,1.02.92,1.22,1.05.59.37l-1.37-5.05c.05-1.44-.3.61-.43,1.13-.33,1.36-.48,2.79-.52,4.19-.13,3.93,3.17,9.02,7.34,9.64,3.8.57,7,.42,10.09-2.03,1.24-.98,2.22-2.11,2.98-3.51.58-1.06.59-1.17.03-.32-.75.93-.48.81.81-.35-2.68.26.32.27,1.36.14,1.68-.21,3.43-.62,4.91-1.49,1.6-.93,3.27-2.64,4.23-4.21.21-.35,1.74-2.6.64-1.57l-4.41,2.57c-1.38.31,2.81.03,2.42.07,1.73-.2,3.34-.55,4.89-1.46,2.17-1.27,3.46-3.35,5.38-4.86l-4.41,2.57c4.69-1.74,9.99-2.17,14.48-4.33,2.68-1.29,4.56-3.09,5.95-5.75,2.44-4.7-.3.26-1.06.13.92-.54,1.73-1.21,2.43-2,.93-.88.44-.73-1.47.48h-5.32c3.98.99,7.22,2.4,11.37.72,2.23-.9,4.09-2.6,5.35-4.66.49-1.08.96-2.18,1.41-3.28.64-1.75.3-1.46-1.01.88l-4.41,2.57c4.57-1.65,8.96-2.11,14.11-3.79,2.99-.98,5.96-1.71,8.3-3.99.94-.91,1.73-1.97,2.38-3.11l.41-.95c1.41-3.13,1.35-3.18-.18-.18l-4.41,2.57c-2.34.42-2.33.34.21.61,1.72.18,3.01.25,4.81-.24,1.93-.53,3.6-1.73,5.4-2.53-4.04-.52-8.08-1.04-12.12-1.56l.16.14c9.55,8.58,23.74-5.52,14.14-14.14l-.16-.14c-3.63-3.26-7.83-3.49-12.12-1.56-1.03.46-1.97,1.07-3.01,1.52l5.05-1.37c1.2.31,1.11.3-.25-.05-1.25-.17-2.5-.34-3.75-.5-1.98.03-4.37.56-6.06,1.55-1.61.94-3.16,2.49-4.14,4.06-.6,1-1.08,2.06-1.45,3.17.15-.43.36-.82.64-1.17l4.41-2.57c-5.37,1.88-8.96,2.44-14.02,3.79-3.01.8-6.08,1.73-8.34,3.99-.97.97-1.62,2.01-2.23,3.18l-1.01,2.39c-.63,1.74-.3,1.45.99-.86l4.41-2.57-.79.11h5.32c-4.91-1.24-8.84-2.59-13.49.47-2.07,1.36-3,2.51-4.59,3.99-.99.93-1.81,2.01-2.49,3.19-.29.55-.54,1.11-.75,1.69-.8,1.75-.65,1.6.47-.44l4.41-2.57c-3.66,1.24-7.46,1.91-11.13,3.12-4.42,1.46-6.52,3.85-9.92,6.58l4.41-2.57c-2.36.55-5.5.12-8.32,2.17-1.35.98-2.38,2-3.29,3.47-.23.37-1.84,2.77-.57,1.54l4.41-2.57c-.85.22-3.36,0-4.88.46-1.89.58-3.41,1.69-5,2.81-3.1,2.2-5.3,4.31-7.2,7.63l3.59-3.59-.53.36,7.71-1.01-.84-.13,7.34,9.64c-.05,1.64.54-1.58.56-1.68.42-2.02.59-4.28.03-6.29-.51-1.87-1.68-3.86-2.99-5.26-.31-.33-2.04-2.49-1.39-1.15l1.01,7.71c-.13.91-.64.94.16-.04.42-.51.75-1.08,1.06-1.66,1.56-2.92,1.59-5.99.99-9.21-.88-4.68-2.79-7.69-5.73-11.35l2.57,4.41c-.56-1.4-.2-7.19-.67-9.84-.55-3.09-1.69-6.04-2.21-9.07-.6-3.47-.33-6.98-.46-10.46-.15-4.03-1.16-7.66-2.17-11.49v5.32c.4-2.2,2.13-5.46,1.72-8.61-.22-1.68-.62-3.05-1.48-4.59s-2.62-5.4-1.18-1.04v5.32l.22-.76-2.57,4.41c1.75-2.2,3.81-3.75,5-6.42,1.51-3.39,1.3-7.3-.57-10.54-.42-.65-.88-1.27-1.37-1.87-1.34-1.92-1.2-1.26.43,1.99l-.36-2.66c-.21,1.09-.16,1.12.15.08.55-3.16,1-6.17.92-9.41-.07-2.61-.05-4.87.11-7.46.19-3.07-.81-5.91-.87-8.91s.37-5.72-.14-8.63-1.28-5.92-1.69-8.92v5.32c.24-1.22,1.76-4.85,1.81-7.14s-.55-5.93-1.21-8.25c-.33-1.15-1.33-2.32-1.49-3.51.65,4.71.59-2.26.37.48-.14,1.76,1.21-2.25,1.4-2.84.35-1.09.57-2.24.84-3.34.69-2.8,1.16-5.45.34-8.29-.52-1.79-1.26-2.8-2.34-4.16-3.21-4.01.45.82-.15,1.53l-.36-2.66c-.72,2.61-.76,3.26-.14,1.94.85-.68,1.34-3.04,1.59-4.05.82-3.42-.45-6.52-.98-9.84v5.32l.31-.88-2.57,4.41c3.37-4.3,5.18-7.22,5.54-12.78.14-2.2.36-4.5.25-6.7-.06-1.13-.09-2.78-.5-3.79-.96-2.34-1.03,1.33-.39-.3,1.56-3.96,2.07-9.55,2.1-13.74.02-2.22-.33-5-.84-7.18-.31-1.34-.83-2.52-1.41-3.77-.26-.56-.68-2.18-.46-.88v5.32c.52-1.53,2.39-4.33,2.49-6.96.02-.62-.42-5.6-.44-3.76-.01,1.16.52-2.55.52-2.54.28-.77,2.21-3.61,2.49-5.58.47-3.39-1.31-6.14-1.73-8.66v5.32l.36-.86-2.57,4.41c2.68-3.06,5.56-5.98,5.56-10.37,0-1.94-.59-4.12-1.5-5.82-.56-1.03-1.24-1.97-2.04-2.83-1.12-1.48-.89-1.08.66,1.18v5.32c-1.63,4.36.57.24,1.26-.93.97-1.64,1.66-4.01,1.69-5.91.05-3.33-1.59-5.97-2.9-8.86l1.37,5.05c-.23-1.85.09-3.8.32-5.65l-1.37,5.05-1.28,1.28c.84-.63,1.66-1.27,2.48-1.93.95-.92,1.91-2.03,2.58-3.19,1.21-2.1,1.13-6.14,1.56-7.36l-4.6,5.98c-.95.73,4.16-1.24,4.31-1.32,2.57-1.32,3.48-2.98,5.42-4.92.85-.85,4.37-4.13,5.25-4.25h-5.32c3.08.56,5.86,1.43,9.04.63,2.7-.68,5.43-2.39,7.75-3.94l2.02-1.56c1.25-.96,1.2-1.02-.15-.18-3.33.47,2.09.24,3.11-.08,3.01-.94,5.51-3,8.43-4.1,2.35-.88,4.67-.98,6.95-2.36,1.31-.79,2.31-1.8,3.33-2.89-1.44.52-1.59.62-.45.31.74-.16,1.47-.36,2.19-.61,2.45-.62,4.98-.99,7.41-1.64,2.95-.79,5.83-2.99,7.7-4.02l-5.05,1.37c-1.6.09,1.03.45,1.48.56,1.93.45,4.32.48,6.25-.05,2.69-.74,4.89-2.59,7.63-3.22,2.88-.66,5.64-.43,8.35-2.12s3.87-4.44,5.66-6.94l-3.59,3.59c.05-.04,3.78-.32,4.82-1.15,1.25-1-2.35-1-.12.04,1.27.59,2.81.69,4.17.69,6.33,0,8.71-4.4,11.86-8.89l-3.59,3.59.65-.44-5.05,1.37.68.03-5.05-1.37c4.68,2.13,8.09,5.16,13.63,2.95,4.68-1.87,4.84-4.28,8.97-6.15l-5.05,1.37.79.03-5.05-1.37c3.18,1.35,5.8,3.26,9.45,3.24,2.54,0,4.8-.99,6.73-2.56.7-.57,4.12-4.11,3.69-4.44-3.6,2.31-3.73,2.65-.38,1.02l-4.28-.35c-.44.45,6.88,1.73,7,1.73,2.1-.06,4.09-.71,5.86-1.83,1.06-.63,1.98-1.42,2.75-2.37,2.03-2.48,2.1-2.68.22-.62l-5.05,1.37c4.38-.2,7.48,1.19,12.16.56,1.45-.2,3.07-.24,4.47-.65,1.18-.43,2.32-.94,3.42-1.53,1.05-.74,2.04-1.54,2.99-2.41-2.6,1.22-2.79,1.58-.56,1.08,1.42-.03,2.78-.31,4.1-.81l1.41-.57c-1.62-.34-.98-.27,1.91.19,2.66.13,5.13-.39,7.41-1.81,1.08-.64,2-1.43,2.77-2.4,2.01-2.45,2.1-2.68.27-.68l-5.05,1.37c2.36.14,5.46,1.31,8.9.13,1.24-.42,2.65-1.05,3.9-1.56,1.23-.37,2.37-.92,3.42-1.64-5.37-.75-6.66-.63-3.87.38,6.75,3.47,12.15-1.34,16.87-3.04h-5.32c-1.29-.19,3.91,1.92,4.01,1.95,2.64.77,5.12.4,7.72-.23,4.24-1.03,7.23-3.14,10.57-5.8l-4.41,2.57-1.35.06,2.66.36c1.26.09,2.55.06,3.82.06s2.37,0,3.61-.19c1.88-.29,3.32-1.34,5.16-1.69-1.43.27.3.22.86.24,1.33.06,2.9-.03,4.18-.38,2.39-.66,4.94-2.92,6.56-3.64l-5.05,1.37c-.9-.08.84.6.9.62,1.53.52,3.57.5,5.14.29,2.02-.27,4.63-2.03,5.57-2.39h-5.32c-.8-.57-.63-.47.52.3,1.08.61,2.2,1.11,3.37,1.53,1.97.58,4.26.69,6.25.15,1.82-.5,3.76-1.61,5.13-2.9.6-.56,3.1-2.54,1.33-1.74l-5.05,1.37c2.31.2,4.53.68,6.9.61,2.77-.09,2.29.74,5.79.93,2.44.13,4.76-.32,6.92-1.56,1.15-.66,2.15-1.68,3.03-2.64.63-.7,1.7-1.26.36-.67-2.57.34-5.14.67-7.71,1.01-.99-.19,0,.14.51.48.99.67,2.22,1.27,3.37,1.59,2.3.65,5,.66,7.37.58,5.17-.18,7.74-2.87,11.26-6.11l-4.41,2.57.72-.3h-5.32c-.83-.49-.67-.36.48.39,1.05.65,2.17,1.17,3.35,1.56,1.98.59,4.24.75,6.24.18,3.47-1,5.35-3.44,7.86-5.73l-4.41,2.57.72-.3h-5.32c3.54.49,6.16,2.19,9.98,1.31,1.38-.32,2.86-.79,4.03-1.58,1.32-.63.69-.43-1.89.58,1.14.16,2.28.31,3.42.46,2.68.08,5.61-.36,8.26-.45,3.07-.11,6.56-1.43,8.56-1.95h-5.32c1.13.24,3.07,1.41,4.67,1.77s3.94.52,5.69.57c2.64.08,5.1-.33,7.44-1.64l.85-.64c2.99-2.03,2.67-2.14-.96-.31.32,1.14,10.37.16,11.34-.15,3.03-.97,4.6-2.5,8.08-2.28,4.07.25,8.36,1.78,12.24-.88,1.6-.83,1.43-.98-.53-.47-1.99.04-2.14.25-.46.62,3.34.53,3.54.49.6-.11.59.47,1.22.88,1.88,1.24,1.71.93,4,1.57,5.96,1.57,1.41-.08,2.79-.33,4.14-.74,2.58-1.13,3.17-1.37,1.79-.72,1.88-.31,3.75-.03,5.66-.49,1.57-.38,3.67-2.07,4.39-2.32h-5.32c4,.68,7.24,1.6,11.38.79,2.31-.46,4.12-.73,6.51-.52,6.56.56,12.56-.52,18.96-1.78h-5.32c1.19.3,2.97,1.61,4.6,1.98,2.75.63,4.92-.06,7.55-.55,3.78-.71,7.53.87,11.27-.07.43-.11,4.77-1.64,4.6-2.05-3.36.16-3.3.37.19.62-1.64-.64-1.67-.59-.11.15,4.42,2.23,7.59.95,12.15.44,1.75-.2,2.36-.16,4.12.22,2.85.62,4.76.07,7.57-.03,4.03-.15,7.01.85,10.79-1.26.98-.72,1.95-1.46,2.9-2.21-3.48.97-3.96,1.41-1.44,1.32,1.35.28,3.09.1,4.49.08,4.48-.07,8.72-1.1,13.08-1.89h-5.32l.75.23-4.41-2.57c3.41,2.76,6.04,6.03,10.9,6.03s7.47-3.29,10.71-6.25c-1.47.86-2.94,1.71-4.41,2.57l.74-.28h-5.32l.75.23c-1.47-.86-2.94-1.71-4.41-2.57,3.42,2.71,6.07,5.95,10.9,5.95s7.48-3.31,10.71-6.3l-4.41,2.57c-1.08.41.59-.1,1.24-.03.7.08,1.71.24,2.43.48,1.54.51-.74-.32,1.09.58,1.24.61,2.37,1.32,3.75,1.69,6.11,1.65,9.56-1.96,13.84-5.39l-4.41,2.57.74-.25h-5.32c-2.31-1.41-2.76-1.51-1.36-.31.91.73,1.84,1.44,2.79,2.13,2.35,1.32,4.67,1.5,7.29,1.55,2.19.04,4.44-.04,6.54-.7.57-.18,8.95-4.05,3.53-2.33h-5.32c-1.92-.46,3.99,2.09,3.64,1.98,2.63.81,5.09.53,7.71-.13,3.62-.91,6.98-2.01,10.73-2.4,3.99-.41,7.95.36,11.97.38,2.36.01,4.82.09,7.14-.41,1.36-.24,2.65-.69,3.88-1.36-2.61.5-2.31.78.92.85,1.96.28,4,.96,6,.92,1.41-.1,2.79-.34,4.15-.71,2.58-1.11,3.18-1.36,1.8-.74,3.88-.8,8.04.11,11.97.11,1-.03,1.99-.07,2.99-.12-3.5-1.79-3.78-1.68-.83.33,2.04,1.36,4.35,2.31,6.86,2.31,4.76,0,7.4-3.19,10.75-5.89l-4.41,2.57.74-.25h-5.32c.8.19,3.01,1.4,4.52,1.75,1.81.41,3.81.49,5.65.58,1.49.07,3,0,4.49.12,1.86.14,4.04.86,6,.86,3.15,0,6.29-1.52,8.6-2.17,1.88-.53,3.96-1.52,5.95-1.63-3.03.16,4.82,1.44.54.04,4.37,1.42,7.6,2.84,12.27.93.81-.29,1.57-.66,2.3-1.11-2.21.5-1.76.49,1.33-.03,1.03-.11,2.3-.27,3.31-.23,3.02.1,4.74,1.87,7.86,2.58,2.18.49,4.12.35,6.21-.3.53-.16,8.87-4.24,3.54-2.47h-5.32c3.9.71,7.67,1.7,11.66,2.06,3.23.29,6.52,1.18,9.74,1.11s6.54-.74,9.7-1.13c1.77-.22,3.88-.46,5.64-.89,1.57-.38,3.62-2,4.42-2.26h-5.32l-1.71-.91,2.02,1.56c1.04.67,2.09,1.27,3.29,1.65,2.1.66,5.02,1.13,7.26,1.23,2.53.11,5.26-.47,7.46-1.79,1.06-.64-1.56-.17-.03.19.7.17,1.79-.08,2.53-.04,2.94.17,5.37.11,8.3.05-2.28.05,2.39.51,1.85.33,3.08,1.03,5.09,2.33,8.5,2.09,2.66-.19,4.91-1.37,7.31-2.43l-5.05,1.37c1.58-.18,5.93,1.81,7.76,2.34-1.47-5.57-2.94-11.14-4.41-16.71-1.58,1.55-3.36,2.76-4.72,4.52-.84,1.09-1.31,1.95-1.87,3.2-.19.43-1.88,4.36-.06,1.1,1.66-2.97-1.37.16-2.22.94-.92.84-1.72,1.73-2.44,2.78-1.31,1.92-2.55,3.99-3.48,6.12.03-.08-1.48,3.48-.57,1.81.86-1.57-1.29,1.56-1.53,1.86-.62.77-1.39,1.51-1.91,2.35.18-.29,2.08-.82.13.26-5.17,2.88-8.6,6.08-11.74,11.14-.53.86-1.2,1.66-1.68,2.55-.71,1.33-1.06,1.46.13.44-1.67,1.42-3.61,2.67-5.31,4.1-2.38,2-4.37,4.14-5.3,7.22-.86,2.85.67-.91.75-.79-.03-.04-2.81,2.23-3.16,2.59-1.08,1.13-3.5,4.12-3.72,5.78-.77.67-.65.79.37.34,1.04-.29,1.15-.32.35-.07-1.07.75-2.71.88-3.86,1.56-5.22,3.09-5.81,8-6.22,13.51l1.37-5.05c-.3.7-1.82,2.53-2.63,3.56-2.35,2.46-2.07,2.72.84.77-.7.17-1.38.39-2.04.66-2.75,1.01-5.14,2.6-6.73,5.15-.83,1.33-1.27,4-1.57,4.62l3.59-3.59c1.28-.91-1.01.28-1.52.46-2.36.81-4.44,2.12-5.96,4.13-2.37,3.12-2.4,6.52-2.86,10.22l1.37-5.05-.4.86,3.59-3.59c-.82.59-5.23,2.74-6.73,4.75-1.79,2.39-2.16,6.47-2.65,7.92l2.57-4.41c-.87,1.03-1.83,1.96-2.63,3.05-2.46,3.38,4.32-1.73,1.07-.98-2.89.67-5.76,2.98-7.24,5.52s-1.86,5.89-1.94,8.77c-.08,3.04,1.39,5.6,2.03,7.79v-5.32c-.72,3.93-1.45,7.03-.07,10.92,1.29,3.63,3.74,6.55,6.29,9.36,2.11,2.32,3.94,4.9,6.19,7.1s5.13,3.47,7.12,4.78l-3.59-3.59c.71,1.06,1.99,4.6,3.62,6.23s5.37,2.83,6.32,3.4l-3.59-3.59.35.68-1.37-5.05c.44,4.27.04,8.39,3.4,11.76s7.56,2.95,11.9,3.28l-5.05-1.37.69.34-3.59-3.59c-2.02-3.91-.68-.37-.3,1.15.33,1.31.89,2.53,1.49,3.74,1.27,2.53,2.87,4.83,4.82,6.9,1.77,1.88,3.63,3.56,5.98,4.65.99.46,2.2.62,3.15,1.11-1.9-.97-1.63-.74-1.04.63l-1.37-5.05c.42,3.82.76,7.81,3.65,10.7,1.35,1.35,3.38,2.54,5.19,3.07.45.13,3.15,1.06,1.75.15l-3.59-3.59c-.32-.72,1.03,3.83.84,3.48.76,1.48,1.61,2.68,2.84,3.82,1.66,1.54,3.6,2.39,4.46,3.68l-1.37-5.05c-.18-3,.82-2.94-.34-1.09-.71,1.12-1.07,2.36-1.36,3.62-.16.71-.25,7.02.02,4.56.08-1,.03-1.01-.14-.05-.42,1.41-.06,1.02,1.08-1.18-.14-.28-5.42,4.38-6.02,4.97-1.04,1.03-2.04,1.89-2.88,3.13-.29.43-2.02,2.35-.84,1.35l4.41-2.57c-2.95.9-5.93,1.54-8.84,2.63-2.01.75-3.76,1.79-5.3,3.29-.53.59-1.05,1.19-1.56,1.78,1.08-.87.91-.92-.49-.16-2.49.68-5.65,1.57-8.1,3.44-1.67,1.27-2.78,2.89-3.64,4.76-.21.45-1.74,4.03-.94,2.91l3.59-3.59c-2.39,1.6-4.89,2.98-6.84,5.14-2.02,2.2-2.17,2.61-.45,1.25,1.49-.79,1.5-1,.03-.61-1.29-.03-2.76.88-3.8,1.48-2.67,1.56-4.66,4.33-6.2,6.96-.7,1.19-1.45,2.49-1.83,3.84-.12.45-.74,4.72-.28,3.12l2.57-4.41c.82-.69-.11-.23-.52,0-1.58.84-2.9,2.42-3.79,3.95-1.6,2.75-1.95,6.03-1.04,9.09.34,1.16.94,2.26,1.58,3.27l1.56,2.02c-.72-1.81-.93-2.15-.64-1.02-.15,1.45,1.46,4.37,1.67,5,1.53,4.71,4.16,8.79,8.21,11.83.62.47,3.22,2.24,1.4.54.73.69,1.24,1.7,1.84,2.5,1.51,2.03,3.4,3.51,4.96,5.43l-2.57-4.41c1.38,3.47,1.09,5.27,2.07,8.79.61,2.19,1.71,4.13,3.36,5.71.92.81,1.9,1.53,2.95,2.15,1.19.61,1.37.71.52.31l-2.57-4.41c.35,1.03.38,2.39.84,3.32.71,1.41.5-1.48.09-.02-.48,1.71,1.49-1.5-.18.82-.63.88-1.35,1.68-2.02,2.51-2.02,2.51-3.5,4.76-3.64,8.17-.03.62.06,1.18.1,1.79.36,2.78.47,3.55.31,2.31-.06-.62-.08-.47-.08.46l1.37-5.05-.28.57,3.59-3.59-.67.32,5.05-1.37c-4.65.4-8.78.19-12.29,3.97-1.41,1.52-3.13,3.52-4.18,5.31-.59,1-1.05,2.15-1.38,3.26-.14.47-.9,2.17-.13.94l3.59-3.59c.96-.56.18-.26-.5-.14-1.15.2-2.4.69-3.41,1.26-2.59,1.45-3.91,3.64-5.7,5.89-1.11,1.4-2.47,2.66-3.6,4.1s-2.35,4.48-2.84,5.24l3.59-3.59c2.79-.69,3.25-.95,1.38-.8l-2.66.36c-1.9.42-3.49,1.12-5,2.31-1.66,1.31-2.75,2.86-3.53,4.8-.39.7-.63,1.44-.72,2.23-.57,3.35-.5,3.54.2.58l3.59-3.59c-2.47,1.73-4.87,2.31-6.89,4.83-1.04,1.29-1.77,2.55-2.25,4.2-.13.43-1.01,3.07-.1,1.51l3.59-3.59c1.35-.88-.96.18-1.37.32-1.54.51-2.92,1.25-4.17,2.29-2.3,1.91-3.26,4.37-4.96,6.71l3.59-3.59c1.75-1.11-4.21,1.46-3.85,1.26-2.11,1.15-3.84,2.91-5,5.02-.42.98-.83,1.96-1.24,2.94-.39,1-.34.73.15-.81-1,.3-4,3.08-4.75,3.69-2.65,2.16-5.26,4.6-7.49,7.21-3.13,3.67-3.02,7.34-3.39,11.8l1.37-5.05c-.77,1.62-3.96,3.57-5.73,5.46-1.15,1.22-2,2.69-3.01,4.02.14-.19-3.66,3.86-1.91,2.4l4.41-2.57-1.05.35c2.57.34,5.14.67,7.71,1.01-2.24-1.28-4.49-2.51-6.64-3.94s-4.39-1.97-6.45-3.21c-4.81-2.91-8.9-6.85-13.65-9.86-2.48-1.57-4.12-3.57-7.11-4.4-1.47-.41-3.06-.21-4.49-.58,1.55.42,1.77.39.67-.08-1.52-.89-1.15-.15,1.11,2.2.98-1.89-4.35-6.85-5.7-7.63-1.66-.97-4.05-1.55-5.96-1.59l-1.12.11c-3.36.28-3.55.44-.57.47l4.41,2.57-.51-.59,2.57,4.41c-1.54-4.22-2.33-7.65-6.24-10.47-3.24-2.33-6.69-4.38-9.95-6.66-1.7-1.19-3.57-1.7-5.32-2.78-2.23-1.38-3.28-3.04-5.92-3.83-3.97-1.19-6.76.47-10.46,1h5.32l-.66-.16,4.41,2.57-.62-.7,2.57,4.41c-2.22-5.34-3.82-8.52-9.14-11.16-4.03-2-8.08-3.4-12.19-5.07l4.41,2.57c-2.21-1.77-4.08-3.76-6.67-5.02-1.87-.91-3.82-.98-5.72-1.71l4.41,2.57-.44-.51,2.57,4.41c-1.38-3.9-1.51-7.23-5.05-10.12-1.61-1.32-3.54-2.15-5.24-3.33-2.61-1.82-4.55-3.48-7.85-3.89-1.34-.17-2.41-.21-3.76.06-1.86.15-1.77.26.28.33,1.82.34,2.12.29.92-.16-1.66-1.19,1.48,4.25.74,1.15-.39-1.61-1.45-3.22-2.57-4.41-1.61-1.72-3.5-2.88-5.79-3.47-1.89-.49-3.14-.35-4.93-.09-2.61.38-2.99-.3.23.55l4.41,2.57c-.83-.59-1.59-1.25-2.3-1.99-1.58-1.46-1.61-1.2-.11.8-.41-.24-2.79-5.14-3.35-5.7-1.61-1.63-3.42-2.63-5.64-3.15-1.25-.36-2.51-.45-3.78-.27-3.36.3-3.55.45-.55.42l4.41,2.57-.51-.61,2.57,4.41c-.89-2.68-1.08-4.97-2.81-7.4-1.92-2.71-4.52-3.72-7.49-4.94-1.65-.67-3.06-1.27-4.83-1.55-1.65-.27-3.62-.65-.98.23-2.45-.82-4.57-1.3-5.58-2.5l2.57,4.41c-1.09-3.19-1.27-6.04-3.85-8.69-3.23-3.32-6.43-2.58-9.6-3.44l4.41,2.57c-2.2-1.81-3.99-3.82-6.62-5.09-1.9-.92-3.84-.94-5.77-1.66l4.41,2.57c-1.77-1.69-3.87-4.27-6.29-6.12-2.21-1.7-3.97-3.8-6.41-5.28-2.29-1.39-4.47-3.03-6.95-4.01-4.84-1.91-8.52-.2-12.3,2.84-4.37,3.52-3.28,10.47,0,14.14,2.23,2.49,4.37,5.08,6.86,7.32,2.62,2.35,4.69,7.53,8.28,8.53,1.27.93.79.29-1.42-1.92.26,1.27.7,2.48,1.32,3.62.77,1.47,1.78,2.8,2.75,4.15,1.37,1.91,2.73,3.59,4.83,4.75,1.11.59,2.27,1.03,3.49,1.31,1.36.3,1.59.32.69.07l-4.6-5.98c-.77-1.98-.29,1.13-.26,2.07.07,2.48.92,4.85,2.43,6.81,2.61,3.38,5.94,3.81,9.68,5.02l-4.41-2.57c-1-1.98-1.28-2.38-.85-1.18.31,1.02.71,2.01,1.19,2.96.54,1.04,1.26,1.91,1.88,2.89,1.11,1.77,1.28,4.38,2.55,6.57.95,1.63,2.69,3.25,4.28,4.23,1.29.8,5.33,3.22,1.82.17-4.15-3.61.28,3.29-.62-.26.42,1.67.36,3.35.9,5.01.93,2.88,3.29,6.02,6.23,7.15,1.25.65,1.39.62.43-.08-.93-.93-.91-.64.06.85.07.42.39,1.97.52,2.45.67,2.5,1.6,5.63,2.91,7.86,1.05,1.8,2.51,3.13,4.19,4.31.48.34,2.12,2.1,1.18.94l-2.57-4.41c.15.42,1.68,4.04,1.39,4.44-.1-3.09-.28-2.94-.54.46l-.13,1.07c.07,3.86,2.11,6.4,3.6,9.72.75,1.67,1.17,3.42,2.13,5,.59.86,1.22,1.69,1.89,2.49,1.13,1.21,1.23,1.13.31-.24-.67-1.58-.86-1.44-.57.42.18.26.15.54-.08.85-.1,1.45-.37,3.72-.79,4.75,4.1-2.33,8.2-4.66,12.3-6.98-1.34-.31-2.69-.53-4.06-.65,2.58,1.46,3.06,1.54,1.44.24-1.54-1.55-3.77-2.55-5.73-3.46-2.44-1.13-4.62-2.05-7.37-1.94-.57.02-9.82,1.59-4.22,1.46l5.05,1.37-.64-.42,3.59,3.59c-2.01-2.64-3.35-5.46-6.36-7.21s-7.82-2.06-11.25-2.71c-2.4-.46-4.92-.63-7.27.24l-1.07.39c2.4,0,2.57-.23.5-.66-1.52-1.4-4.05-2.64-5.88-3.74-3.1-1.86-6.25-4.13-9.99-4.28-1.74-.07-3.39.56-5.08.57,3.35-.01-.92-1.04-1.73-1.39-3.85-1.65.9.78-1.47-1.17-1.93-1.59-3.37-3.12-5.89-3.81-1.88-.52-4.24-.48-6.1-.01-1.12.39-2.21.83-3.29,1.33-1.72.79-1.23.77,1.45-.07l5.05,1.37c-2.06-1.33-4.83-3.95-7.66-5.32-1.95-.95-3.83-1.41-5.99-1.38-1.3,0-2.55.24-3.73.73-3.03,1.15-3.19,1.32-.48.51l5.05,1.37-.63-.47,3.59,3.59c-1.8-2.83-2.69-5.48-5.84-7.39-3.94-2.38-6.93-.89-10.3-1.03l5.05,1.37c1.81,1.1-3.24-3.01-2.85-2.76-1.8-1.14-3.68-1.78-5.83-1.84-1.53-.05-3.15.09-4.63.56-1.69.48-1.42.56.8.24-1.55-.43-1.96-.43-1.22-.02l3.59,3.59c-2.83-4.68-4.97-8.71-11.15-9.11-1.56-.1-3.18-.08-4.74-.04-1.38.04-2.72.13-4.1.41-.62.13-2.39.18-.9.29l5.05,1.37-.63-.46,3.59,3.59c-1.21-1.84-1.92-3.9-3.52-5.5-1.34-1.34-3.25-2.48-5.04-3.04l-1.48-.3c-2.96-.73-3.49-.65-1.59.24,1.37.85,1.42.8.14-.15l-2.02-1.56c-1.27-.78-2.71-1.28-4.09-1.79-2.52-.92-5.13-2.14-7.69-2.91-2.42-.72-4.9-.87-7.34-1.65-1.1-.36-2.42-1.09-3.57-1.1-1.59-.01,1.24,1.31-.5-.32-2.59-2.43-5.69-3.31-9.09-3.89-2.89-.5-6.21.14-8.35.05l5.05,1.37c-3.29-1.65-4.47-2.97-7.83-4.73-1.83-.96-3.9-1.44-5.98-1.43.34,0-6.26.72-4.11.86l5.05,1.37c-2.72-1.33-5.24-3.03-7.94-4.38-1.61-.8-3.63-1.14-5.18-2.06,3.65,2.16-.13-1-.8-1.53-2.57-2.05-6.48-3.47-9.73-3.95-1.83-.27-3.43-.17-5.25.36-.96.38-1.91.78-2.85,1.19-1.73.83-1.28.87,1.34.13l5.05,1.37c-2.54-1.44-6.57-4.42-10.29-5.49-1.47-.42-3.17-.2-4.58-.51-1.93-.42-3.71-1.56-5.62-2.05-2.29-1.06-1.9-.65,1.16,1.23-.72-.96-1.46-1.91-2.22-2.84-1.4-1.35-3.32-2.54-5.17-3.09-1.26-.2-2.53-.37-3.79-.53-1.26-.2-1.57-.08-.91.36-2.38-.13-4.95-.36-7.31-.66l5.05,1.37-.54-.4,3.59,3.59c-.44-.68-.37-.85-.15-.05-.29-1.04-.84-2.28-1.38-3.24-1.33-2.35-3.33-4.05-5.74-5.17-2.11-.98-4.46-1.78-6.75-2.17-1.88-.32-5.41.11-6.17.04l5.05,1.37c-2.08-1.33-4.01-3.67-7.37-4.23-1.71-.29-3.18-.3-4.93.14-.48.12-3.35.66-1.55.73l5.05,1.37c-1-.64-3-2.83-4.84-3.56-2.77-1.1-5.62-.82-8.5-1.19l5.05,1.37-.63-.46,3.59,3.59c-1.52-2.23-2.36-4.31-4.53-6.14-2.71-2.28-5.67-2.59-9.07-2.64-1.94-.03.04.08-2.17-.02.25.01-3.72,0-2.24.18-2.28-.29-4.72-1.47-6.57-2.76l3.59,3.59c-2.69-3.66-4.48-7.21-9.35-8.37-2.05-.49-4.76-.97-6.87-1-1.22-.02-2.45.2-3.65.43-.65.13-2.41.14-.89.27l5.05,1.37-.77-.55,3.59,3.59c-2.44-3.26-4.39-6.55-8.58-7.81-.72-.21-6.04-.97-3.6-.13-.18-.06-2.56-1.41-2.48-1.36-4.15-2.84-7.18-5.54-12.74-4.11l-1.32.3c2.6.13,2.29.03-.95-.31-2.9.32,2.58,2.56.77.45-1.55-1.81-5.91-4.49-8.09-5.11-5-1.43-9.6.72-12.54,4.72-1.36,1.84-3.32,5.3-4.28,8.36-.28.9-3.42,10.54-3.09,10.48,1.29-2.18,1.41-2.78.38-1.82-.87.63-1.56,1.44-2.07,2.43-1,1.5-1.67,3.04-2.05,4.81-.09.42-1.17,4.56-1.04,5.27-.32,1.15-.07,1.06.75-.28-.78.97-1.55,1.95-2.3,2.94-1.68,2.72-2.49,6.09-3.41,9.13-.72,1.8-.7,1.88.05.24-.61.57-1.15,1.2-1.62,1.89-1.39,1.78-2.27,3.62-2.75,5.85-.34,1.59-.54,2.91-1.03,4.46-.96,3.06,1.11-.62-1,1.03-2.69,2.11-4.84,7.88-5.5,10.93l-.36,2.66c.43-1.09.29-.85-.45.72-.84,1.67-1.52,3.42-2.12,5.18s-1.13,3.65-1.24,5.55c-.09,1.57.32,4.31.25,4.99l1.37-5.05c1.59-2.2.97-1.55-.72-.04-.9.81-1.71,1.61-2.39,2.66-1.37,2.14-1.8,4.4-2.56,6.79-.67,2.13-1.74,4.01-2.14,6.22-.36,1.98.16,5.23.04,6.3l1.37-5.05c-1.83,3.18-3.86,5.81-5.96,8.3s-3.55,5.1-3.62,8.5c-.02,1.22.18,2.44.4,3.65.47,2.7-.37.4.08-.24-.65.92-1.08,3.52-1.6,4.67s-1.54,3.15-1.72,4.54c-.26,2.04.99-1.25,0,.02-1.93,2.46-3.24,4.24-3.88,7.33-.56,2.72.25,2.74-1.94,5.6l3.59-3.59s-2.77,1.04-3.73,1.59c-1.1.62-2.9,2.37-3.19,2.59l5.05-1.37-.96.06,5.05,1.37-.63-.47,3.59,3.59c-1.73-2.9-2.8-5.36-5.91-7.33-.44-.34-.91-.62-1.42-.83.51.46.5.43-.03-.1-1.02-.73-2.83-2.34-3.19-2.73l2.57,4.41c.57,1.86-.1-4.69-.03-4.4-.57-2.38-1.74-4.34-3.53-5.99-.87-.88-1.86-1.56-2.98-2.05-2.96-1.36-3.17-1.37-.66,0-.11.06-3.09-3.07-3.35-3.38l2.57,4.41c.49,1.6.18-1.15.16-1.53-.05-1.21-.33-2.41-.63-3.57-.67-2.63-1.61-5.11-2.74-7.59-1.2-2.65-2.39-5.07-4.8-6.83s-4.82-2.06-7.4-3.14l4.41,2.57-.58-.56,2.57,4.41-.12-.8v5.32c1.27-5.34,2.25-8.78-.57-13.99-1.22-2.25-2.6-4.08-4.26-6.03-.99-1.16-.04,2.01-.1-.04-.04-1.54-.99-3.39-1.55-4.67-.82-1.87-1.68-3.73-2.49-5.6-.63-1.46-2.18-4.76-2.35-5.34-.49-1.77-.61-4.67-2.16-7.05-1.65-2.53-4.1-3.81-6.48-5.45l3.59,3.59-.57-.77c-3.22-4.33-8.66-6.53-13.68-3.59-4.27,2.5-6.83,9.32-3.59,13.68Z"/>
</svg>