<?xml version="1.0" encoding="UTF-8"?>
<svg id="_レイヤー_2" data-name="レイヤー 2" xmlns="http://www.w3.org/2000/svg" viewBox="0 0 1000 1000">
  <defs>
    <style>
      .cls-1 {
        fill: #fff;
      }
    </style>
  </defs>
  <g>
    <path d="M944.06,354.87c-4.63-27.47-15.67-53.58-29.75-77.61-18.21-31.09-42.32-59.66-73.74-77.28-13.33-7.47-28.1-12.75-43.21-15.25-.33-17.08-18.63-54.43-28.85-68.23-116.13-156.69-424.85-65.95-514-2C165.35,178.45,11.5,318.5,96.33,478.06c21.37,40.2,70.18,62.83,115.68,61.26,39.91-1.37,76.99-22.33,106.48-49.26s52.76-59.82,77.66-91.04c14.86-18.63,30.97-37.22,52.25-47.93,17.57-8.84,37.58-11.7,57.24-12.03,38.1-.64,75.84,7.72,113.95,8.35,20.96.35,42.79-2.14,62.48-9.11,4.27,69.64,38.01,137.68,94.27,178.85,18.64,13.64,40.35,24.61,63.45,24.96,28.17.43,54.94-15.45,72.4-37.56s26.52-49.81,31.11-77.6c3.93-23.82,4.79-48.28.78-72.08Z"/>
    <path d="M953.7,352.22c-5.65-32.53-19.69-63.41-37.54-91.02-16.66-25.77-37.57-49.21-63.64-65.73-15.95-10.11-33.9-17.16-52.52-20.39l7.34,9.64c-.49-13.83-6.28-27.3-11.8-39.77-5.2-11.74-11.08-23.61-18.75-33.96-14.8-19.98-33.13-36.92-54.11-50.26-42.18-26.8-92.64-37.84-142.01-40.48-51.88-2.77-104.27,3.64-154.81,15.15-45.14,10.28-89.66,24.86-131.49,44.79-37.54,17.88-70.38,43.12-101.51,70.49-43.01,37.82-82.89,82.26-107.58,134.42-12.65,26.72-21.1,55.18-23.18,84.76-2.21,31.48,3.57,63.2,15.72,92.25,6.58,15.73,14.3,30.68,25.85,43.39,10.71,11.79,24.07,21.46,38.36,28.45,30.68,15,65.96,19.48,99.21,11.22,76.53-19,120.37-88.55,167.22-145.58,11.35-13.82,23.67-27.47,39.18-36.69,16.44-9.77,35.54-13.13,54.43-13.76,41.81-1.4,82.97,8.92,124.74,8.26,19.59-.31,39.37-3.04,57.92-9.47-4.22-3.21-8.44-6.43-12.66-9.64,4.34,67.19,34.16,133.68,86.25,177.34,28.15,23.6,63.34,42.46,101.1,34.43,34.86-7.41,62.42-34.8,77.17-66.27,18.81-40.15,24.23-88.02,17.12-131.59-.87-5.33-7.49-8.31-12.3-6.98-5.67,1.56-7.86,6.95-6.98,12.3,5.65,34.67,1.4,72.36-10.62,105.31-10.44,28.62-30.91,55.55-60.73,65.49-31.31,10.44-61.96-4-86.42-23.42s-43.03-42.74-57.22-69.51c-15.87-29.93-25.17-63.32-27.35-97.11-.39-6.05-6.13-11.9-12.66-9.64-37.93,13.15-77.76,8.4-116.8,4.1-38.91-4.28-81.17-8.59-117.66,8.91-33.16,15.9-54.92,48.95-76.85,77.07-22.32,28.61-45.51,57.91-75.1,79.39-27.46,19.94-59.59,33.2-93.99,30.99-29.31-1.88-58.82-14.33-79.25-35.66-10.43-10.89-17.45-24.26-23.25-38.08s-10.35-29.48-12.83-44.84c-4.39-27.21-1.73-55.1,5.97-81.42,15.57-53.23,50.46-99.1,89.15-137.86,18.28-18.31,37.83-35.35,58.2-51.29,13.02-10.19,28.36-21.52,43.74-30.22,7.75-4.39,15.68-8.45,23.72-12.27,4.26-2.03,8.56-3.99,12.88-5.9,2.32-1.02,4.64-2.03,6.97-3.01-1.67.7,1.77-.73,2.08-.86,1.21-.5,2.42-.99,3.63-1.48,20.94-8.48,42.37-15.75,64.08-21.98,47.83-13.73,95.96-22.45,145.31-24.26,48.37-1.78,95.85,2.86,141,21.27,8.72,3.56,20.25,9.42,29.45,15.06,9.95,6.1,17.68,11.8,26.04,19.27,18.45,16.5,30.95,34.4,41.26,56.97,2.6,5.69,4.93,11.5,6.88,17.44.96,2.95,1.84,5.93,2.51,8.96.3,1.32.58,2.66.76,4.01-.25-1.91.03,1.24.05,1.77.14,4.05,2.98,8.89,7.34,9.64,59.42,10.29,100.29,61.06,124.17,113.18,7.29,15.91,12.56,32.74,15.55,49.99.92,5.32,7.46,8.32,12.3,6.98,5.63-1.55,7.91-6.96,6.98-12.3Z"/>
  </g>
  <path class="cls-1" d="M420.54,262.75c-28.1,15.29-53.68,35.14-75.45,58.58-8.75,9.42,5.36,23.6,14.14,14.14,20.71-22.29,44.68-40.91,71.41-55.45,11.31-6.15,1.23-23.43-10.09-17.27h0Z"/>
  <path class="cls-1" d="M360.77,240.61c-15.18,10.89-29.3,23.05-42.1,36.66-8.81,9.37,5.3,23.54,14.14,14.14,11.62-12.35,24.28-23.65,38.06-33.54,4.38-3.14,6.5-8.71,3.59-13.68-2.53-4.33-9.27-6.75-13.68-3.59h0Z"/>
  <path class="cls-1" d="M317.04,230.64c-4.63,3.54-9.26,7.09-13.9,10.63-4.14,3.17-6.76,8.75-3.59,13.68,2.64,4.09,9.24,6.99,13.68,3.59s9.26-7.09,13.9-10.63c4.14-3.17,6.76-8.75,3.59-13.68-2.64-4.09-9.24-6.99-13.68-3.59h0Z"/>
  <path class="cls-1" d="M868.48,305.64c11.45,22.18,17.74,46.64,18.52,71.58.4,12.84,20.4,12.9,20,0-.89-28.55-8.15-56.3-21.25-81.67-5.91-11.44-23.17-1.34-17.27,10.09h0Z"/>
  <path class="cls-1" d="M845.95,344.03c1.19,7.49,2.39,14.98,3.58,22.48.85,5.34,7.51,8.3,12.3,6.98,5.68-1.56,7.84-6.95,6.98-12.3l-3.58-22.48c-.85-5.34-7.51-8.3-12.3-6.98-5.68,1.56-7.84,6.95-6.98,12.3h0Z"/>
</svg>