<?xml version="1.0" encoding="UTF-8"?>
<svg id="_レイヤー_2" data-name="レイヤー 2" xmlns="http://www.w3.org/2000/svg" viewBox="0 0 1000 1000">
  <defs>
    <style>
      .cls-1 {
        fill: #fff;
      }
    </style>
  </defs>
  <g>
    <path class="cls-1" d="M913.76,330.17c-4.66-64.81-48.6-123.92-107.86-150.56,0,0,19.89-163.64-160.4-153.11-13.46.79-52.39,11.83-64.93,16.8-25.94,10.26-54.61-1.85-81.37-9.72-55.67-16.37-116.73-13.83-170.85,7.12-27.34,10.58-53.4,26.15-71.97,48.84-18.57,22.68-21.58,52.63-23.14,81.91-1.74,32.84-38.74,1.05-87.74,47.05-53.27,50.01-17.27,95.81-32.97,115.22-23.2,28.7-24.77,72.25-5.51,103.73s58.27,56.28,94.09,47.41c21.93-5.43,65.39-29.36,65.39-62.36,7,14.52,101,53,159,12,75.67-53.49,86.04-116.2,91-136-1,25-3.83,52.43,19.89,64.12,11.83,5.83,25.69,6.04,38.74,4.17,60.59-8.68,98.49-112.71,98.49-112.71-13.97,51.68-14.33,109.24,11.1,156.35s80.66,80.02,132.98,68.7c0,0,106.81.37,96.07-148.96Z"/>
    <path d="M923.76,330.17c-4.09-53.37-32.08-102.91-74.2-135.65-11.97-9.31-24.79-17.26-38.61-23.54,1.65,2.88,3.3,5.76,4.95,8.63,1.44-11.95.73-24.4-.72-36.29-3.23-26.41-11.52-52.61-27.81-73.99-22.42-29.44-55.98-45.79-92.21-50.93-23.31-3.3-47.13-3.7-70.16,1.55-11.57,2.64-23.05,5.81-34.38,9.35-11.64,3.64-22.22,8.34-34.72,7.88-16.49-.61-32.44-6.61-48.05-11.43-16.35-5.05-32.93-8.62-49.9-10.75-33.49-4.21-67.87-2.01-100.63,6.08-31.03,7.67-61.34,20.61-86.55,40.49-11.82,9.32-22.89,20.53-30.44,33.66-7.72,13.42-11.89,28.57-14.11,43.81-1.16,8-1.97,16.04-2.51,24.11-.23,3.38-.26,6.8-.64,10.17.19-1.72.02-.09-.18.66-.25.95-.5,1.88-.85,2.79,1.31-3.41-.23.32-.32.18,0,.01,1.19-1.33-.14.03-1.15,1.17,1.68-.86.19-.12-.71.35-1.4.78-2.11,1.14,2.58-1.31-1.57.33-2.64.57-1.73.39-3.49.65-5.25.9,2.11-.3-.33.03-1.11.12-1.04.13-2.09.25-3.13.38-2.81.34-5.62.7-8.42,1.12-5.14.76-10.25,1.79-15.24,3.27-14.16,4.19-26.84,11.54-38.28,20.79-23.15,18.71-38.99,44.51-40.57,74.57-.51,9.74.59,19.4,1.39,29.09.32,3.93.61,7.89.38,11.84-.02.42-.33,3.19-.11,1.66s-.17.78-.26,1.15c-.2.78-.43,1.55-.66,2.33-.08.27-.56,1.34,0,.06.65-1.47-.27.31-.38.61s-.38.57-.53.86c-.68,1.3,1.57-2.01.12-.08-1.1,1.47-2.26,2.89-3.35,4.37-2.17,2.96-4.14,6.06-5.88,9.29-3.42,6.31-6.19,13.09-8.15,20-3.98,14.06-4.74,28.82-2.73,43.26,4.04,29.14,20.89,54.14,44.06,71.75,21.96,16.69,51.03,25.86,78.17,17.68,21.58-6.5,43.12-19.68,56.96-37.63,7.5-9.72,12.23-21.06,12.43-33.44-6.21,1.68-12.42,3.36-18.63,5.05,3.11,6.04,9.93,10.22,15.63,13.46,9.02,5.12,18.85,9.02,28.7,12.22,24.71,8.03,51.77,11.79,77.63,8.41,14.27-1.86,28.03-5.67,40.8-12.42,14.79-7.82,28.26-19.39,40.37-30.82,19.87-18.75,36.75-41.1,48.28-65.92,7.7-16.58,12.46-33.66,16.85-51.31-6.55-.89-13.1-1.77-19.64-2.66-.94,22.9-3.37,51.04,16.48,67.23s53.06,14.92,75.98,3.82c17.85-8.65,32.12-23.51,44.05-39.03,10.87-14.14,20-29.54,27.89-45.52,4.54-9.2,8.85-18.62,12.37-28.26l-19.29-5.32c-14.24,53.31-14.93,112.72,11.31,162.56,22.48,42.7,67.57,74.97,116.4,77.27,5.3.25,10.63.1,15.9-.48,3.27-.36,6.68-.65,9.88-1.42,4.43-1.06-.64-.13.37-.22,1.11-.11,2.24-.09,3.35-.18,6.48-.53,12.96-1.64,19.23-3.35,20.92-5.7,40.31-17.76,53.98-34.66,27.25-33.68,32.26-78.88,29.36-120.77-.37-5.39-4.33-10-10-10-5.12,0-10.38,4.58-10,10,1.43,20.65,1.12,41.53-3.28,61.35-3.37,15.18-7.58,26.55-15.96,39.31-.92,1.4-1.89,2.76-2.86,4.13-.2.28-1.88,2.47-.4.58-.33.42-.66.84-1,1.26-1.98,2.39-4.01,4.73-6.19,6.94-1.89,1.92-3.86,3.75-5.9,5.5-1.07.92-2.17,1.81-3.28,2.68,2.11-1.65-1.14.8-1.83,1.28-4.01,2.81-8.24,5.29-12.63,7.45-.89.44-1.78.86-2.69,1.27-.53.24-1.07.46-1.59.71-1.91.9,2.25-.83.29-.13s-3.87,1.5-5.84,2.16c-3.38,1.13-6.82,2.08-10.29,2.85-1.43.31-2.86.6-4.31.85-.7.12-1.4.22-2.1.34-2.61.45,2.47-.23.44-.06-4.38.37-8.54.79-12.89,1.57-42.32,7.51-86.15-17.65-109.93-51.62-32.74-46.78-32.45-108.63-18.24-161.83,3.37-12.61-14.93-17.25-19.29-5.32-.67,1.83-1.39,3.63-2.13,5.43-.3.75-.62,1.49-.93,2.24-.75,1.87,1.01-2.29.15-.36-.24.55-.47,1.1-.71,1.65-1.21,2.78-2.45,5.53-3.73,8.27-6.52,13.93-13.95,27.48-22.56,40.23-8.89,13.16-20.7,27.35-33.2,36.23-3.39,2.41-6.93,4.6-10.64,6.49s-5.32,2.56-9.86,3.86c-10.56,3.01-22.75,3.57-33.35.57-25.6-7.25-21.4-36.07-20.52-57.52.46-11.27-16.92-13.59-19.64-2.66-3.29,13.22-6.49,26.3-11.56,38.99-1.44,3.61-3.33,7.81-5.66,12.48-2.55,5.1-5.32,10.09-8.3,14.95-6.64,10.83-14.31,20.91-22.9,30.26-18.88,20.54-41.67,40.68-69.42,47.28-23.33,5.55-48.02,3.24-70.88-2.76-5.87-1.54-11.68-3.35-17.38-5.45-5.34-1.97-7.45-2.83-12.8-5.53-3.61-1.82-6.96-3.92-10.34-6.11-1.88-1.22,1.2,1.23-.29-.23-.48-.47-1-.91-1.5-1.36-.42-.38-1.66-2.01-.52-.44s.05-.03-.18-.48c-4.69-9.1-18.48-4.46-18.63,5.05s-4.72,17.84-11.34,25.04c-7.27,7.9-15.99,14.02-25.41,19.11-8.37,4.52-16.26,8.14-26.27,9.57-11.41,1.64-23.41-.73-33.91-5.28-23.16-10.05-43.61-30.69-51.51-54.87-7.82-23.93-5.08-50.99,9.17-71.99,2.82-4.15,5.87-7.58,7.61-12.36,1.29-3.53,1.77-7.35,1.98-11.09.47-8.17-.89-16.4-1.48-24.53-1.65-22.98,2.9-43.64,18.71-61.73,9.96-11.39,22.03-21.28,35.94-27.42,4.78-2.11,9.85-3.64,14.94-4.81,2.14-.49,4.3-.92,6.46-1.28,1.18-.2,2.37-.38,3.56-.55s0,0-.21.02c.63-.09,1.26-.16,1.89-.24,7.94-.98,16.47-1.29,23.7-5.07,8.04-4.2,11.69-12.15,12.66-20.82,1.52-13.51,1.57-26.97,4.38-40.35,2.86-13.61,7.7-26.99,16.6-37.88,18.11-22.13,43.88-37.07,70.4-46.91,29.8-11.06,61.4-16.51,93.18-16.14,15.87.18,31.67,1.76,47.23,4.91,15.69,3.17,30.73,8.37,46.07,12.84s32.39,8.06,48.93,5.69c10.53-1.51,20.54-6.1,30.71-9.16,11-3.31,22.11-6.33,33.34-8.74,2.29-.49,4.58-.95,6.89-1.35.93-.16,1.86-.32,2.79-.45-2.03.29.56-.05,1.32-.11,5.9-.48,11.86-.55,17.78-.53,20.98.07,40.58,2.48,60.48,9.78,4.63,1.7,5.59,2.1,10.05,4.28,3.67,1.79,7.26,3.77,10.73,5.92,1.61,1,3.19,2.03,4.75,3.11.82.57,1.64,1.15,2.44,1.74.51.38,2.5,1.91,1.01.73,2.91,2.29,5.71,4.72,8.38,7.28s5.02,5.07,7.35,7.78c1.01,1.18,1.99,2.38,2.95,3.59-1.48-1.86.2.27.53.72.52.72,1.05,1.43,1.56,2.16,3.82,5.43,7.17,11.18,10.06,17.15.67,1.39,1.29,2.81,1.94,4.21.85,1.83-.11-.32.1.21.35.86.71,1.73,1.05,2.6,1.13,2.88,2.16,5.8,3.1,8.74,1.75,5.48,3.18,11.07,4.32,16.71.54,2.68,1.02,5.38,1.43,8.08.09.58.17,1.16.26,1.74.35,2.28-.05-.42,0-.09.14,1.3.32,2.59.46,3.89.47,4.43.78,8.87.92,13.32.19,5.85.14,11.73-.33,17.57-.06.79-.13,1.57-.22,2.36-.38,3.12,2.11,7.34,4.95,8.63,55.81,25.37,98.17,79.99,102.91,141.92.41,5.39,4.3,10,10,10,5.09,0,10.41-4.59,10-10Z"/>
  </g>
  <path d="M403.11,282.95c-6.54,10.11-13.08,20.22-19.62,30.33-7.01,10.84,10.29,20.87,17.27,10.09,6.54-10.11,13.08-20.22,19.62-30.33,7.01-10.84-10.29-20.87-17.27-10.09h0Z"/>
  <path d="M367.14,273.73c-4.76,5.95-9.52,11.89-14.27,17.84-3.37,4.21-4.12,10.03,0,14.14,3.49,3.49,10.75,4.24,14.14,0,4.76-5.95,9.52-11.89,14.27-17.84,3.37-4.21,4.12-10.03,0-14.14-3.49-3.49-10.75-4.24-14.14,0h0Z"/>
  <path d="M342.24,252.39c-4.76,4.16-9.51,8.32-14.27,12.49-3.95,3.46-3.8,10.65,0,14.14,4.21,3.87,9.93,3.69,14.14,0,4.76-4.16,9.51-8.32,14.27-12.49,3.95-3.46,3.8-10.65,0-14.14-4.21-3.87-9.93-3.69-14.14,0h0Z"/>
  <path d="M828.44,271.04c3.04,17.38,3.99,35.02,3.21,52.64-.57,12.87,19.43,12.84,20,0,.86-19.44-.57-38.79-3.93-57.96-.93-5.32-7.45-8.32-12.3-6.98-5.62,1.54-7.92,6.96-6.98,12.3h0Z"/>
  <path d="M796.33,292.44c1.19,5.35,2.38,10.7,3.57,16.05s7.34,8.59,12.3,6.98c5.37-1.74,8.2-6.82,6.98-12.3s-2.38-10.7-3.57-16.05-7.34-8.59-12.3-6.98c-5.37,1.74-8.2,6.82-6.98,12.3h0Z"/>
  <path d="M763.86,302.27v8.92c0,5.23,4.6,10.24,10,10s10-4.39,10-10v-8.92c0-5.23-4.6-10.24-10-10s-10,4.39-10,10h0Z"/>
</svg>