<?xml version="1.0" encoding="UTF-8"?>
<svg id="_レイヤー_2" data-name="レイヤー 2" xmlns="http://www.w3.org/2000/svg" viewBox="0 0 1000 1000">
  <defs>
    <style>
      .cls-1 {
        fill: #ccc;
      }
    </style>
  </defs>
  <g>
    <path class="cls-1" d="M171.5,481.6c.26,37.27,4.74,74.51,13.56,110.74,15.97,65.64,46.5,128.87,94.64,176.26,34.28,33.75,80.97,54.9,131.8,65.55l-28.17,108.33c-90.92,1.58-284.48-12.87-284.48-12.87,24.02-22.71,34.64-56.04,41.26-88.43,19.17-93.83,12.4-190.72,8.42-286.41s-3.07-193.12,25.58-284.51c50.4-160.78,204.29-198.48,204.29-198.48,34.35-18.84,74.54-24.25,113.72-24.37,119.35-.36,243.59,51.93,306.49,153.36,43.73,70.51,54.29,156.88,51.49,239.81-2.8,82.92-17.83,165.06-20.83,247.98-1.56,43.17.21,86.86,11.3,128.61,11.09,41.75,32.05,81.66,64.35,110.35,0,0-67.42,32.96-248.04,20.65-2.82-.19-5.86-.29-8.06-2.06-2.3-1.86-3.09-4.96-3.73-7.85-8.39-37.8-18.58-119.77-18.58-119.77,28.07-14.24,56.2-39.77,77.99-62.52,65.24-68.12,92.35-164.18,104.88-257.67,0,0-119.87-8.81-244.25-116.36-68.2-58.98-180.49-201.66-180.49-201.66-70.13,159.21-213.12,301.31-213.12,301.31Z"/>
    <path d="M161.5,481.6c.58,65.7,13.63,131.53,40.79,191.49,24.25,53.54,61.32,104.19,112.28,134.88,28.93,17.42,61.32,28.84,94.26,35.83l-6.98-12.3c-8.22,31.63-16.45,63.26-24.67,94.88-1.17,4.48-2.33,8.97-3.5,13.45,3.21-2.45,6.43-4.89,9.64-7.34-45.26.75-90.6-1.41-135.8-3.67-41.33-2.06-82.63-4.59-123.91-7.44-8.26-.57-16.52-1.14-24.78-1.76,2.36,5.69,4.71,11.38,7.07,17.07,28.13-27.04,39-66.03,45.85-103.25,8.11-44.11,10.99-89,11.23-133.8.46-88.18-8.96-176.15-5.26-264.35,1.81-43.08,6.58-86.06,16.58-128.05,8.14-34.18,19.54-67.13,37.83-97.27,26.44-43.55,63.93-77.93,107.62-102.54,8.07-4.54,16.33-8.75,24.75-12.59,1.68-.77,3.37-1.52,5.06-2.25.81-.35,1.62-.7,2.43-1.05-2.76,1.18.44-.18,1.13-.46,3.07-1.26,6.16-2.47,9.28-3.62,6.14-2.27,12.43-3.94,18.62-6.02,3.54-1.19,6.83-3.39,10.19-5.01,4.47-2.15,9.03-4.04,13.7-5.72,9.59-3.46,19.46-6.13,29.46-8.14,19.47-3.92,39.39-5.17,59.22-5.15,34.3.03,68.47,4.42,101.65,13.14,65.27,17.14,126.83,51.19,171.03,102.82,49.99,58.39,69.59,135.35,73.44,210.68,4.49,87.92-11.27,175.08-18.01,262.46-6.39,82.81-5.99,173,40.29,245.49,10.01,15.68,21.98,30.17,35.85,42.59l2.02-15.71c-.33.16-.81.26-1.08.49-1.52,1.26,2.68-1.04.94-.4-.7.26-1.39.56-2.08.82-4.42,1.7-8.95,3.15-13.49,4.48-7.75,2.26-15.62,4.15-23.52,5.78-5.15,1.07-10.33,2.03-15.52,2.9-2.84.48-5.69.93-8.54,1.35-1.42.21-2.85.42-4.27.62-.12.02-3.32.46-1.26.18-1.01.13-2.01.26-3.02.39-34.35,4.38-69.07,5.7-103.68,5.37-11.19-.11-22.38-.4-33.56-.85-6.16-.25-12.33-.55-18.49-.89-5.59-.31-11.43-1.22-17.03-1.04-3.97.13.8.64.33.75-.16.04-.84-3.07-.88-3.24-.3-1.26-.55-2.53-.82-3.79-.81-3.87-1.56-7.75-2.29-11.64-1.42-7.66-2.72-15.34-3.96-23.02-2.92-18.11-5.53-36.26-8-54.44-.62-4.57-1.42-10.57-2.23-16.88-.32-2.45-.63-4.9-.94-7.35l-4.95,8.63c24.36-12.53,45.84-30.56,65.47-49.48,18.32-17.65,34.98-36.75,49.1-57.94,27.34-41.02,45.23-87.92,57.24-135.53,6.91-27.39,11.88-55.23,15.65-83.22.91-6.73-2.52-12.13-9.64-12.66-1.19-.09-2.38-.23-3.56-.36-.68-.08-1.36-.18-2.05-.25-1.71-.19,1.91.29,1.18.16-.47-.08-.95-.13-1.42-.2-2.03-.3-4.06-.61-6.08-.95-13.03-2.2-25.91-5.26-38.61-8.88-44.13-12.58-86.04-32.24-124.72-56.85-41.08-26.14-76.93-58.06-110.3-93.32-29.52-31.2-57.61-63.75-85.12-96.72-10.42-12.49-20.75-25.06-30.97-37.71-5.12-6.33-9.94-13.04-15.33-19.14-.25-.28-.46-.59-.69-.88-3.73-4.74-13.28-3.47-15.71,2.02-26.82,60.67-62.57,117.17-101.99,170.37-28.34,38.24-58.87,74.93-91.28,109.8-6,6.46-12.04,12.9-18.3,19.12-9.14,9.09,5,23.23,14.14,14.14,18.48-18.37,35.81-38.01,52.75-57.79,38.94-45.47,75.3-93.4,107.23-144.07,20.51-32.53,39.15-66.29,54.7-101.48-5.24.67-10.47,1.35-15.71,2.02,12.72,16.17,25.75,32.1,38.87,47.95,27.2,32.87,54.97,65.32,83.99,96.61,32.86,35.44,67.6,68.21,107.53,95.69,40.97,28.2,86.07,50.83,133.51,65.87,14.37,4.55,28.98,8.41,43.78,11.26,7.54,1.45,15.47,3.2,23.16,3.48.33.01.65.06.98.09-3.21-4.22-6.43-8.44-9.64-12.66-6.49,48.07-16.5,95.95-33.82,141.37-17.01,44.61-41.86,85.24-75.57,119.14-20.52,20.63-42.85,40.31-68.88,53.7-2.8,1.44-5.36,5.4-4.95,8.63,3.01,24.19,6.35,48.34,10.06,72.43,2.48,16.09,5.01,32.22,8.47,48.14,1.13,5.19,2.65,10.43,6.71,14.13,5.25,4.78,12.36,4.82,19.04,5.25,12.37.81,24.76,1.43,37.15,1.86,39.11,1.35,78.41.79,117.35-3.3,23.08-2.43,46.21-5.87,68.66-11.88,8.78-2.35,17.81-4.96,26.02-8.95,5.63-2.74,6.58-11.62,2.02-15.71-62.21-55.76-74.92-143.05-73.01-222.36,2.19-90.75,20.06-180.37,21.46-271.17,1.22-79.48-10.64-162.54-53.19-231.19-37.19-60-95.55-103.34-160.55-129.29-32.64-13.04-66.89-21.36-101.73-25.77-37.72-4.76-76.77-4.98-114.18,2.26-10.01,1.94-19.91,4.51-29.53,7.89-4.93,1.73-9.77,3.69-14.56,5.78-2.13.93-4.25,1.9-6.34,2.92-1.29.63-2.7,1.2-3.91,1.96-.21.13-2.86,1.48-.71.65-1.64.64-3.49.95-5.17,1.46-12.02,3.64-23.73,8.35-35.16,13.52-41.74,18.86-80.03,46.63-110.11,81.23-20.26,23.31-36.97,49.57-49.14,77.97-16.17,37.7-25.37,78.33-31.15,118.83-12.58,88.13-7.1,176.7-3.64,265.25,1.76,44.98,2.71,90.08-.18,135.03-1.42,22.12-3.76,44.19-7.51,66.04-3.33,19.43-7.42,38.91-14.33,57.43-6.08,16.3-14.96,31.52-27.56,43.63-6.65,6.39-1.18,16.46,7.07,17.07,23.62,1.76,47.25,3.31,70.88,4.79,47.35,2.96,94.73,5.57,142.14,7.12,23.8.78,47.64,1.35,71.46.95,4.35-.07,8.53-3.05,9.64-7.34,8.22-31.63,16.45-63.26,24.67-94.88,1.17-4.48,2.33-8.97,3.5-13.45,1.3-4.99-1.63-11.16-6.98-12.3-27.96-5.93-55.31-14.93-80.46-28.64-24.37-13.29-45.1-30.77-63.22-51.74-37.2-43.04-61.22-96.4-74.98-151.25-9.13-36.42-13.66-73.75-13.99-111.28-.11-12.86-20.11-12.89-20,0Z"/>
  </g>
  <path d="M708.84,258.21c11.42,16.72,21.53,34.26,30.28,52.52,2.33,4.87,9.29,6.15,13.68,3.59,4.98-2.91,5.93-8.79,3.59-13.68-8.75-18.26-18.86-35.79-30.28-52.52-3.04-4.46-8.79-6.45-13.68-3.59-4.42,2.58-6.65,9.2-3.59,13.68h0Z"/>
  <path d="M690.07,293.28c3.55,7.21,8.23,13.78,13.67,19.68,3.66,3.97,10.43,3.71,14.14,0,3.96-3.96,3.67-10.16,0-14.14-4.32-4.69-7.6-9.65-10.55-15.63-2.39-4.84-9.26-6.18-13.68-3.59-4.94,2.89-5.98,8.82-3.59,13.68h0Z"/>
  <path d="M661.75,314.88c1.82,3.15,3.64,6.3,5.46,9.45,2.62,4.53,9.16,6.5,13.68,3.59,4.57-2.95,6.39-8.83,3.59-13.68-1.82-3.15-3.64-6.3-5.46-9.45-2.62-4.53-9.16-6.5-13.68-3.59-4.57,2.95-6.39,8.83-3.59,13.68h0Z"/>
  <path d="M275.33,243.07c-12.31,17.86-23.6,36.38-33.84,55.5-6.08,11.34,11.18,21.46,17.27,10.09,10.24-19.12,21.53-37.64,33.84-55.5,3.07-4.45.83-11.1-3.59-13.68-4.96-2.9-10.61-.87-13.68,3.59h0Z"/>
  <path d="M244.2,233.6c-8.25,11.63-17.23,22.66-26.87,33.16-8.69,9.47,5.42,23.65,14.14,14.14,10.78-11.75,20.77-24.2,30-37.21,3.13-4.41.78-11.12-3.59-13.68-5.01-2.93-10.55-.83-13.68,3.59h0Z"/>
</svg>