<?xml version="1.0" encoding="UTF-8"?>
<svg id="_レイヤー_2" data-name="レイヤー 2" xmlns="http://www.w3.org/2000/svg" viewBox="0 0 1000 1000">
  <defs>
    <style>
      .cls-1 {
        fill: #fff;
      }
    </style>
  </defs>
  <g>
    <path d="M945.63,354.61c-.24-1.45-1.77-2.68-2.05-4.12s-.06-3-.37-4.43-1.61-2.65-1.95-4.07-.04-3.02-.42-4.44-.48-2.93-.89-4.33-.55-2.92-.99-4.32-2.08-2.42-2.55-3.81-2.67-2.15-3.16-3.53.05-3.12-.47-4.49.1-3.19-.45-4.55.12-3.25-.45-4.6-3.77-1.56-4.37-2.9.09-3.26-.53-4.59-2.59-2.01-3.23-3.32-1.35-2.58-2.02-3.89-1.7-2.4-2.38-3.69-1.24-2.64-1.94-3.92.72-3.76,0-5.03-2.73-1.81-3.47-3.08c-.76-1.29-.93-2.94-1.71-4.22s-2.26-2.13-3.05-3.4-2.32-2.06-3.13-3.32-.47-3.27-1.31-4.52-.41-3.37-1.27-4.6-4.31-.62-5.19-1.83,1.15-4.59.25-5.79-2.96-1.54-3.89-2.72-1.65-2.55-2.59-3.71-2.96-1.45-3.93-2.6-2.06-2.17-3.06-3.29-1.81-2.4-2.83-3.5-1.7-2.52-2.75-3.6-3.22-1.01-4.29-2.07-.77-3.51-1.86-4.54-1.94-2.35-3.05-3.36-2.8-1.38-3.94-2.36-1.3-3.16-2.46-4.11-2.48-1.77-3.67-2.68-3.46-.41-4.68-1.29-1.78-2.7-3.02-3.54-2.6-1.56-3.86-2.37-3.3-.37-4.59-1.15-1.65-3.15-2.96-3.88c-1.34-.75-3.77.53-5.13-.17s-2.24-2.34-3.63-2.99-3.1-.55-4.51-1.16-1.76-3.84-3.19-4.4-4.03,1.99-5.48,1.47-3.02-.46-4.49-.92-2.13-3.56-3.61-3.97-3.49,1.26-4.98.9-2.51-2.82-4.02-3.13-3.94,1.04-5.46.79c-.03-1.34-.24-3.4-.47-4.97-.2-1.36,1.86-3.28,1.52-4.79-.31-1.37-2.37-2.39-2.78-3.86-.39-1.37-.43-2.89-.89-4.32s-2.22-2.29-2.73-3.7-.63-2.84-1.17-4.23-1.46-2.54-2.02-3.9-1.31-2.59-1.9-3.94,1.21-3.75.6-5.08-2.14-2.26-2.77-3.57-2.28-2.16-2.93-3.46.72-3.7.05-4.98-4.07-1.18-4.76-2.44-1-2.82-1.71-4.05c-.76-1.32.58-3.83-.15-5.03-.81-1.32-1.08-2.96-1.84-4.11-.88-1.33-4.18-.85-4.97-1.91-.9-1.21-1.96-2.26-2.89-3.45s-2.38-1.91-3.33-3.07.23-4.11-.75-5.25-3.58-.86-4.59-1.97-1.63-2.57-2.66-3.66-2.32-1.92-3.38-2.98-1.84-2.4-2.92-3.44-2.13-2.11-3.25-3.12-1.06-3.35-2.19-4.34-2.44-1.82-3.6-2.78-4.18.41-5.37-.53-.55-4.2-1.76-5.1-2.4-1.86-3.62-2.74-4.01.49-5.25-.36-1.91-2.51-3.18-3.33-2.58-1.53-3.86-2.32-3-.8-4.3-1.56-1.64-3.15-2.96-3.89-2.95-.87-4.28-1.58-1.88-2.94-3.22-3.62-2.71-1.37-4.07-2.02-3.83,1.08-5.2.45-2.31-2.18-3.69-2.78-3-.61-4.39-1.18-2.77-1.13-4.18-1.68-2.68-1.39-4.09-1.91-3.25.22-4.67-.28-1.65-4.51-3.08-4.99-3.88,2.24-5.32,1.79-2.08-3.53-3.52-3.95-2.83-1.12-4.29-1.52-3.57,1.7-5.03,1.32-2.47-2.54-3.93-2.89-2.77-1.45-4.24-1.78-3.71,2.92-5.19,2.61-2.71-1.64-4.19-1.93-2.62-2.35-4.1-2.62-2.99-.41-4.48-.66-3.23,1.14-4.72.91-2.92-.77-4.41-.98-2.94-.7-4.43-.89-3.03.03-4.53-.14-2.84-1.7-4.34-1.85-2.95-.84-4.45-.97-2.96-.97-4.46-1.09-3.05.21-4.56.11-3.07.65-4.57.57-3.06.78-4.56.71-2.99-.39-4.5-.44-2.96-1.92-4.47-1.96-3.08,3.72-4.59,3.7-2.98-2.15-4.49-2.16-3.01-.22-4.52-.21-3.01.13-4.52.16-3.05-1.48-4.55-1.45-2.91,3.5-4.42,3.55-3.04-.94-4.54-.88-3.04-.67-4.55-.6-3.02-.08-4.52.01-2.95,1.09-4.45,1.19-2.91,1.38-4.41,1.5-3.24-2.74-4.74-2.61-2.99.46-4.49.6-2.72,3.11-4.22,3.26-3.35-3.05-4.84-2.88-3.02.21-4.52.38-2.92,1.02-4.41,1.21-3.07-.16-4.56.04-2.82,1.65-4.31,1.85-2.67,2.58-4.16,2.79-3.32-1.84-4.8-1.61-2.61,2.74-4.1,2.98-3.37-1.92-4.85-1.67-2.51,3.12-4,3.38-3.21-.89-4.69-.62-2.87,1.03-4.34,1.31-2.94.62-4.42.91-3.16-.43-4.63-.13-2.95.63-4.42.94-3.16-.35-4.63-.03-2.73,1.61-4.2,1.94-3.37-1.17-4.83-.83-2.51,2.51-3.97,2.86-2.79,1.28-4.25,1.64-2.98.49-4.44.86-2.86.98-4.31,1.36-3.15-.13-4.61.26-2.69,1.59-4.14,1.99-3.03.37-4.47.78-2.56,2-4.01,2.41-2.94.67-4.38,1.09-3.55-1.34-4.99-.91-2.1,3.45-3.53,3.9-2.98.53-4.41.99-3.78-1.9-5.21-1.44-2.5,2.09-3.92,2.57-2.79,1.16-4.21,1.65-2.36,2.4-3.78,2.89-3.88-1.92-5.29-1.42-2.58,1.78-3.99,2.29-3.13.28-4.53.8-2.63,1.61-4.03,2.14-2.9.91-4.29,1.46-2.96.76-4.35,1.32-1.61,4.09-3,4.66-3.09.41-4.47.99-2.27,2.37-3.65,2.95-3.72-1.01-5.09-.41-2.12,2.67-3.48,3.28-2.87.97-4.23,1.59-2.54,1.68-3.89,2.31-2.54,1.66-3.89,2.31-3.18.35-4.52,1.02-2.92.93-4.25,1.61-3.02.76-4.34,1.45-2.58,1.62-3.89,2.32-2.59,1.58-3.89,2.31-2.73,1.33-4.02,2.08-2.31,2.05-3.58,2.81-1.86,2.76-3.11,3.54-3.11.74-4.34,1.54-2.1,2.29-3.32,3.12-2.62,1.51-3.81,2.36c-1.2.86-1.89,2.45-3.12,3.34s-4.19-.69-5.41.21-1.66,2.77-2.87,3.68-3.62.14-4.83,1.05-2.02,2.29-3.22,3.2-1.78,2.58-2.98,3.51-2.05,2.22-3.24,3.16-2.02,2.25-3.2,3.19-3.85-.03-5.03.91-1.08,3.42-2.25,4.37-3,1.06-4.16,2.02-2.56,1.61-3.71,2.58-1.69,2.64-2.83,3.62-2.56,1.61-3.7,2.59-2.37,1.84-3.5,2.83-1.67,2.63-2.8,3.63-1.04,3.31-2.16,4.32-3.03,1.1-4.14,2.11-3.81.28-4.91,1.3-1.08,3.24-2.18,4.26-1.57,2.69-2.66,3.73-2.59,1.62-3.67,2.66-1.04,3.21-2.11,4.26-2.13,2.09-3.19,3.15-1.99,2.22-3.05,3.29-4.45-.16-5.49.92-1.23,2.98-2.26,4.07-3.21,1.1-4.24,2.2.27,4.34-.74,5.44-3.58.79-4.58,1.91-.27,3.77-1.27,4.89-3.98.5-4.96,1.63-.31,3.68-1.28,4.83-1.42,2.71-2.38,3.86-2.22,2.03-3.17,3.19-3.34,1.15-4.27,2.32-.74,3.23-1.66,4.41-3.07,1.41-3.98,2.6.39,4.04-.51,5.24-2.46,1.88-3.35,3.09-3.49,1.18-4.35,2.4-2.46,1.95-3.32,3.19.16,3.75-.68,4.99-1.54,2.57-2.36,3.82-.77,3.06-1.57,4.32-4.06.98-4.85,2.26-1.73,2.48-2.5,3.76.88,4,.12,5.3-3.67,1.36-4.4,2.66.29,3.59-.43,4.9-.36,3.18-1.05,4.51-2.69,1.97-3.37,3.3.06,3.35-.59,4.7-1.61,2.52-2.24,3.88-4.09,1.43-4.7,2.8,1.87,4.07,1.28,5.45-3.72,1.7-4.27,3.09-.48,3.04-1.01,4.44-.92,2.86-1.43,4.27-1.62,2.62-2.1,4.03.61,3.35.16,4.78-.4,2.99-.83,4.42-.93,2.82-1.33,4.27-2.84,2.35-3.21,3.8,2.02,3.56,1.68,5.02-2.73,2.45-3.03,3.92,1.23,3.28.95,4.75-4.16,2.32-4.4,3.8,1.13,3.23.92,4.71-.7,2.94-.88,4.43-.69,2.96-.83,4.45-.32,3-.42,4.5-.88,2.98-.95,4.48,3.48,3.12,3.44,4.62-2.87,2.95-2.87,4.45.06,3.02.1,4.52.27,3.01.34,4.51,1.87,2.88,1.98,4.38.12,2.97.27,4.47.41,2.94.59,4.44-.87,3.13-.65,4.61,1.54,2.78,1.79,4.26.84,2.87,1.12,4.34-1.81,3.43-1.49,4.9,1.73,2.69,2.08,4.15,1.23,2.77,1.62,4.22.38,3,.8,4.44,1.1,2.79,1.55,4.23,2.62,2.26,3.11,3.69-.16,3.2.35,4.61-.8,3.5-.26,4.9,2.7,2.15,3.27,3.54-.77,3.58-.17,4.97,3.48,1.72,4.11,3.09,2.17,2.25,2.83,3.61-.4,3.52.28,4.86,2.72,1.94,3.42,3.27,1.58,2.42,2.33,3.7-1.24,4.26-.43,5.49,3.88.93,4.75,2.13,2.17,1.99,3.09,3.15,1.27,2.71,2.23,3.83,1.97,2.15,2.98,3.23.31,3.84,1.36,4.87,2.83,1.36,3.93,2.35,2.17,2.03,3.3,2.99,2.14,2.09,3.3,3,3.17.7,4.37,1.57,2.5,1.53,3.73,2.36,1.85,2.58,3.11,3.36,1.7,3,2.99,3.73,3.26.3,4.57.99,3.08.47,4.41,1.12,3.26-.08,4.61.52,2.09,2.55,3.46,3.11,2.99.41,4.38.92,2.65,1.29,4.06,1.75,2.32,2.5,3.73,2.92,3.21-.44,4.64-.06,3.11-.38,4.55-.05,2.4,2.85,3.85,3.14,3.15-.76,4.61-.52,2.6,2.76,4.06,2.96,3.33-3.01,4.8-2.86,2.79,1.77,4.27,1.87,2.92,1.14,4.39,1.19,2.99-2.62,4.46-2.62,2.95,1.66,4.43,1.61c1.48-.05,3.05,1.32,4.52,1.21s2.69-3.05,4.16-3.21,3.11,1.23,4.57,1.02,3.09.52,4.55.26,3.1.22,4.55-.09,2.16-3.83,3.59-4.19,3.25.82,4.67.43,3.39.92,4.8.47,1.71-4.25,3.11-4.73,2.71-1.06,4.09-1.59,2.89-.62,4.26-1.19,3.62.96,4.97.36,2.56-1.55,3.9-2.19,2.02-2.6,3.33-3.27,3.15-.35,4.45-1.05,3.35-.11,4.63-.85,1.97-2.55,3.23-3.31,2.55-1.53,3.8-2.32,2.15-2.14,3.38-2.95,1.61-2.87,2.82-3.71,2.98-.87,4.18-1.73,1.84-2.46,3.02-3.35,2.81-1.17,3.97-2.08,2.38-1.75,3.52-2.68,3.32-.65,4.44-1.61.93-3.45,2.04-4.42,2.61-1.5,3.7-2.5,3.75-.33,4.83-1.34-.23-4.53.83-5.56,4.36.2,5.4-.84-.36-4.51.68-5.57,3.28-.94,4.29-2.01,2.32-1.89,3.32-2.97,1.77-2.4,2.76-3.49,3-1.29,3.99-2.39.1-3.85,1.07-4.97,1.95-2.21,2.92-3.33,4.04-.46,4.99-1.59-.04-3.9.9-5.04,2.33-1.91,3.27-3.05,1.09-2.92,2.02-4.07,2.17-2.04,3.09-3.2,2.13-2.08,3.06-3.24,3.26-1.19,4.18-2.35.67-3.24,1.58-4.4,3.43-1.07,4.34-2.24-.39-4.06.52-5.23,2.51-1.8,3.42-2.96.3-3.51,1.21-4.68,4.19-.49,5.1-1.65.86-3.08,1.77-4.25,1.18-2.83,2.1-4,3.26-1.2,4.18-2.36,2.22-2.01,3.15-3.16c.93-1.16,1.9-2.28,2.84-3.44s.4-3.51,1.34-4.66,2.96-1.4,3.92-2.54.34-3.63,1.32-4.75,4.2-.26,5.2-1.36.9-3.19,1.91-4.28.39-3.77,1.43-4.83,3.52-.73,4.58-1.77,2.65-1.52,3.75-2.52,1.32-2.99,2.44-3.96,2.32-1.9,3.48-2.83,3.05-.92,4.24-1.81.93-3.85,2.15-4.7,3.71.17,4.97-.62,3.14-.46,4.44-1.19,1.55-3.35,2.89-4.02c1.35-.68,3.61.61,4.99,0s1.83-3.44,3.24-3.99,2.53-2.07,3.97-2.55,3.67,1.51,5.12,1.08,2.74-1.39,4.21-1.75,3.07-.07,4.55-.38,2.63-2.4,4.12-2.66,2.98-.78,4.48-.99,3.39,2.69,4.89,2.52,2.77-2.55,4.28-2.68,3.09.7,4.6.61,3-.54,4.51-.6,3.02-.26,4.53-.29c1.52-.03,3.05.8,4.57.8s3.07-1.9,4.6-1.87,2.96,3.1,4.49,3.15,3.19-3.48,4.72-3.41,3.07.06,4.59.15,2.97,1.44,4.5,1.54,2.91,1.92,4.43,2.04,3.19-1.58,4.71-1.44,2.95,1.21,4.47,1.36,3.25-1.8,4.76-1.64,2.65,3.98,4.17,4.14,3.42-3.31,4.94-3.15,2.83,2.15,4.35,2.31,3.06.07,4.57.24,3.02.39,4.54.56,3.12-.56,4.64-.4,2.74,3.14,4.26,3.29,3.14-.67,4.65-.52,2.93,1.55,4.44,1.69,3.32-2.99,4.83-2.87,3.02.33,4.54.44,2.84,3.44,4.36,3.53,3.07.08,4.6.15,3.09-.38,4.61-.33,3.09-1.23,4.61-1.21c1.51.02,3.02-1.19,4.53-1.2s3,.11,4.51.07,3.11,2.54,4.63,2.47,2.89-2.53,4.4-2.63,3.16,1.65,4.67,1.52,2.86-1.79,4.37-1.96,3.14.69,4.63.49,2.93-.93,4.42-1.17,2.92-.86,4.4-1.15,3.05-.19,4.52-.51,2.99-.52,4.46-.88,3.25.34,4.7-.07,2.74-1.51,4.18-1.96,1.61-.12,3.03-.62c.09,1.51,2.09,1.4,2.21,2.9s-1.44,3.16-1.29,4.67-.28,3.09-.1,4.59,1.27,2.91,1.47,4.4.09,3.06.32,4.55-.39,3.15-.14,4.64,3.3,2.48,3.58,3.97,1.37,2.78,1.68,4.26-1.47,3.4-1.14,4.88,1.01,2.87,1.37,4.34,2.26,2.53,2.64,3.99-.28,3.19.14,4.65,0,3.15.45,4.59.85,2.91,1.31,4.35-.25,3.29.25,4.72,2.49,2.34,3.01,3.76.07,3.22.61,4.63.8,2.96,1.37,4.36,2.03,2.45,2.63,3.84.88,2.93,1.5,4.31,3.09,1.9,3.73,3.27-.88,3.78-.21,5.14,3.23,1.76,3.92,3.1.75,3.01,1.47,4.34,1.88,2.41,2.62,3.72,1.75,2.47,2.52,3.77-.84,4.05-.05,5.34,2.62,1.95,3.44,3.22,1.49,2.66,2.33,3.91,3.43,1.31,4.3,2.55,1.52,2.6,2.41,3.83,1.5,2.64,2.41,3.84.25,3.64,1.19,4.83,3.86.78,4.82,1.94,2.1,2.15,3.09,3.3,2.32,1.95,3.33,3.07,1.84,2.37,2.87,3.47.57,3.62,1.62,4.7,1.65,2.64,2.73,3.71,3.59.65,4.68,1.69,1.59,2.71,2.71,3.73,1.26,3.16,2.39,4.15,2.92,1.27,4.08,2.24,3.75.17,4.93,1.12,1.94,2.37,3.14,3.29,1.35,3.23,2.57,4.13c1.24.91,1.99,2.56,3.25,3.44s4.43-1.06,5.72-.21.95,4.22,2.26,5.03,3.41.33,4.74,1.1,2.57,1.71,3.92,2.43,1.86,3.18,3.24,3.86,3.7-.56,5.1.07,3.32-.02,4.74.55,2.63,1.6,4.08,2.11,2.88.95,4.35,1.4,2.26,3.48,3.75,3.85,3.37-.76,4.88-.47,3.25-1.03,4.78-.83,2.9,1.28,4.44,1.39,3.04.07,4.58.09c1.49.02,2.87-1.22,4.35-1.29s3.18,3.02,4.66,2.87,3.06-.13,4.52-.37,2.26-3.89,3.71-4.21,3.16.69,4.59.29,2.77-.98,4.17-1.45,3.06-.23,4.43-.78,1.91-2.97,3.26-3.58,2.64-1.13,3.96-1.81,3.03-.51,4.31-1.24,2.64-1.29,3.9-2.08,2.53-1.51,3.74-2.36,3.38-.42,4.56-1.32,1.73-2.63,2.86-3.58,2.35-1.83,3.45-2.82,2.68-1.52,3.73-2.56.72-3.44,1.73-4.52,2.41-1.79,3.37-2.91,3.08-1.33,3.99-2.49.89-3.08,1.76-4.28.58-3.19,1.41-4.41,3.28-1.39,4.06-2.64.68-3.05,1.43-4.34,2.88-1.8,3.59-3.1-1.03-3.86-.36-5.19,1.11-2.7,1.73-4.05,3.39-1.72,3.97-3.08,1.88-2.46,2.42-3.84-1.36-3.69-.85-5.08.81-2.82,1.28-4.23,2.78-2.2,3.22-3.62,1.9-2.55,2.31-3.98-2.21-3.69-1.84-5.12,2.49-2.42,2.84-3.86-1.28-3.32-.96-4.77,4.14-2.16,4.43-3.61-.25-3.09.02-4.55.33-2.97.57-4.43c.25-1.49-.28-3.11-.06-4.6s-1.45-3.23-1.26-4.73,2.55-2.72,2.72-4.21-.33-3.07-.19-4.57-1.33-3.12-1.22-4.63,3.33-2.8,3.42-4.3-2.02-3.12-1.96-4.63,2.9-2.95,2.92-4.46-2.25-3.05-2.26-4.56.1-3.01.07-4.52-1.73-2.93-1.8-4.44.99-3.05.88-4.55.34-3.04.2-4.55.07-3.04-.11-4.54-1.78-2.8-2-4.29,2.39-3.43,2.14-4.92Z"/>
    <path d="M955.28,351.95c-.57-1.56-1.27-2.98-2.02-4.45l.17,1.52c.02-.75-.03-1.49-.13-2.23-.36-3.76-1.94-6.46-3.41-9.85l1.37,5.05c-.58-4.81-1-9.62-2.29-14.32-.27-1-5.95-12.2-7.06-11.42.24-.17,1.36,4.64.75-.37-.07-.62-.04-1.33-.09-1.88-.37-3.54-.29-3.44-.64-6.31s-1.43-5.37-3.47-7.43c-.91-.92-2.12-1.64-3.26-2.23-.83-.42-1.65-1.3-.63-.08l2.57,4.41c.35,1.53-.14-2.53-.09-2.17-.18-1.36-.39-2.36-.94-3.61-1.1-2.48-3.12-3.64-4.61-5.65-.76-1.02-1.85-3.77-2.75-5.2-.52-.82-.9-1.74-1.43-2.55l-.63-1.32c.21,3.77.42,4.43.63,2,.57-2.73.12-5.91-1.3-8.33-.58-.99-1.47-2.05-2.31-2.87l-2.02-1.56c-1.28-.97-1.31-.94-.1.1,1.06,1.19,1.19,1.05.38-.4-.26-.63-.53-1.26-.81-1.88-.74-1.42-1.77-2.69-2.83-3.88-1.69-1.9-3.55-3.65-5.23-5.56l2.57,4.41c-1.35-3.31-1.49-7.09-3.09-10.32-1.32-2.66-3.22-4.53-5.91-5.76-.92-.42-1.68-.64-2.63-.86s-1.95-.89-.74.01l4.6,5.98c.3,1.02-.3,3.53.39,1.29.33-1.06.45-2.53.45-3.66,0-2.8-1.23-5.84-3.16-7.83-.79-.81-5.27-3.99-3.2-1.93-1.92-1.91-2.86-4.35-5.17-6.02-2.78-2.01-4.95-4.1-7.44-7.3-1.35-1.74-2.53-3.54-4.24-4.95-1.48-1.22-4.41-2.29-5.3-2.85l3.59,3.59c.94,1.47-.18-.91-.34-1.38-.8-2.36-2.01-3.85-3.6-5.73-2.52-2.99-5.26-4.65-8.5-6.73l3.59,3.59c-2.55-3.34-3.73-6.01-7.26-8.61-3.04-2.24-6.17-2.68-9.53-4.07l4.41,2.57c-1.7-1.69-4.14-4.57-6.97-6.3-3.05-1.87-5.73-2.18-8.91-3.33l4.41,2.57c.99.92-.07-.28-.43-.82-.64-.97-1.35-1.94-2.18-2.75-2.4-2.36-5.54-3.47-8.87-3.45-1.59.01-5.71-.18-.81.92s1.08-.85-.5-1.86c-2.45-1.58-5.12-2.03-7.86-2.82l4.41,2.57c1.49,1.19-.54-1.21-.99-1.9-1.07-1.62-2.54-3.06-4.22-4.07-2.19-1.31-4.72-1.56-7.18-1.24-.91.12-5.82,1.59-5.65,1.96,3.99-.32,4.64-.61,1.97-.85l2.69,2.26c.68-.57-4.28-4.87-4.72-5.15-4.03-2.53-7.17-1.01-10.71-.87l5.05,1.37c1.23.63-.89-.94-1.14-1.16-1.47-1.31-3.34-2.45-5.26-2.98-2.04-.56-4.28-.39-6.32-.01-.36.07-3.4.47-1.8.45l10,10c-.05-1.02-.12-2.04-.23-3.06-.07-.67-.15-1.33-.25-1.99-.37-1.48-.33-1.74.12-.8l-1.37,5.05c1.69-3.75,3.58-7.38,2.41-11.61-.71-2.59-2.24-3.63-3.5-5.85-.71-.8-.57-.6.42.58-.13-.99-.32-1.96-.59-2.91-.63-2-1.72-3.82-3.11-5.37-1.07-1.26-1.07-1.16-.01.28-.19-.96-.45-1.91-.77-2.84-1.24-3.55-3.31-6.85-4.93-10.24l1.37,5.05c.19,1.69.23-.88.36-1.51.52-2.54.37-5.01-.62-7.42-1.18-2.86-3.17-4.8-4.69-6.7-.46-.68-.99-1.29-1.61-1.83.81,5.86,1.34,6.63,1.59,2.3.08-1.54.02-3.08-.44-4.58-1.05-3.51-4.58-7.28-8.37-7.93-1.66-.65-1.41-.25.75,1.22,2.12,2.29,2.36,2,.74-.87.18,3.72.38,4.37.59,1.95.13-.79.22-1.58.25-2.38-.03-3.28-1.72-7.29-3.43-10.02-1.87-2.99-5.05-5.01-8.49-5.65-1.7-.37-1.36-.19,1.02.54-.5-.56-.99-1.12-1.46-1.7-1.19-1.32-2.53-2.41-3.81-3.65l2.57,4.41c.59,1.48,0-1.13-.03-1.72-.15-2.54-.95-4.9-2.51-6.93-1.29-1.67-2.88-2.76-4.76-3.62-.4-.18-4.01-1.87-2.63-.93l3.59,3.59c-2.45-3.23-4.83-5.8-7.61-8.66-1.05-1.08-1.9-2.34-2.92-3.44-.72-.7-1.44-1.39-2.15-2.09.47,1.4.53,1.6.17.6-1.33-2.21-1.6-4.02-3.46-5.97-1.03-1.07-2.44-1.89-3.6-2.78-1.66-1.27-3.25-2.39-5.3-2.91-1.26-.29-2.53-.41-3.82-.35-1.45.06-1.67.12-.66.16l5.98,4.6c1.03,1.44,0-1.14-.28-2.09-.97-3.14-3.11-5.11-5.66-7.06-1.85-1.42-3.56-2.78-5.86-3.43-1.15-.33-2.46-.52-3.67-.49-.48.01-2.57-.17-1.13.27l4.41,2.57c-2.2-1.99-3.91-4.04-6.48-5.69-2.94-1.88-6.09-2.82-9.27-4.1l4.41,2.57c.99.91-.07-.27-.43-.82-.74-1.12-1.55-2.15-2.53-3.06-2.42-2.27-5.7-2.96-8.69-4.15l4.41,2.57c-.68-.59-2.06-2.58-3.22-3.62-1.63-1.46-3.46-2.33-5.41-3.25-4.47-2.11-7.97-1.64-12.65-.76h5.32c.87.12,2.44,1.81.75.26-1.36-1.25-2.57-1.96-4.19-2.67-2.26-.98-4.68-1.34-6.97-2.25-1.53-.61-2.98-1.35-4.49-2.01-3.28-1.46-6.31-1.25-9.72-1.65l5.05,1.37-.54-.41,3.59,3.59c1.29,2.11-1.79-3.9-1.55-3.47-1.06-1.94-2.64-3.6-4.58-4.7-2.55-1.44-5.67-1.72-8.5-1.01-1.11.43-2.21.88-3.29,1.36-1.71.82-1.23.84,1.42.07l5.05,1.37c1.9,1.98,2.33,2.23,1.3.75-.69-.93-1.4-1.84-2.14-2.73-1.9-1.83-4.08-2.57-6.51-3.47-2.15-.8-4.1-1.45-6.46-1.36-1.3-.02-2.53.22-3.7.74-3.06,1.12-3.2,1.31-.4.56l5.05,1.37c-3.13-1.72-6.48-4.69-10.56-5.68-2.82-.69-5.95-.29-8.5,1.11-.77.42-3.79,1.74-2.01,1.5h5.32c-.73-.76-1.65-1.22-2.78-1.37,1.28.96,1.26.92-.05-.13-2.15-1.77-4.22-2.75-6.96-3.29-.48-.1-5.16-.76-5.65-.78-1.16-.03-7.24.9-3.53.96-3.86-.06-7.56-2.29-11.53-2-1.97-.12-2.02,0-.14.37-1.1-.65-2.25-1.18-3.46-1.6-1.56-.51-3.21-.81-4.81-1.17-4.2-.94-8.07-1.79-12.42-1.48-3.54.25-7.18.8-10.63,1.14-1.94-.28-2-.25-.19.07-1.09-.71-2.26-1.27-3.5-1.67-2.12-.68-4.25-.86-6.44-.31-3.96.98-5.49,3.76-8.35,6.07l4.41-2.57-.65.2h5.32c-.12-.04-3.34-1.81-3.36-1.82-1.74-.54-3.48-.63-5.29-.75-1.26-.09-2.51-.15-3.77-.13-.75.01-1.51.04-2.26.09,1.46.75,1.7.89.69.43-1.37-.21-2.68-1.17-4.1-1.47-2.16-.47-4-.36-6.06.27-3.28,1.01-4.96,3.44-7.34,5.57l4.41-2.57-.75.28h5.32c-4.69-.68-9.22-1.84-14.01-1.83s-9.1,1.74-13.78,3.06h5.32c.74.16,2.96,2.19,1.24.6-.83-.77-1.83-1.49-2.82-2.05-2.72-1.53-5.63-1.56-8.64-1.16-2.47.33-4.92.55-7.15,1.79-1.04.58-1.97,1.35-2.87,2.15-.39.35-1.88,1.36-.91.93l7.71-1.01c2.22,1.43,2.61,1.57,1.16.4-.9-.77-1.84-1.47-2.84-2.1-1.73-.95-3.86-1.5-5.82-1.53-3.52-.06-6.88,1.14-10.28,1.62-4.09.58-6.57.59-10.42,2.3-1.98.88-5.12,3.02-7.48,4.93l4.41-2.57.87-.11,5.05,1.37c-3.38-1.49-6.39-3.17-10.25-2.69-2.11.27-3.89,1.14-5.59,2.34-.45.32-3.51,2.4-2.23,1.83l5.05-1.37-.93-.11,5.05,1.37c-3.38-1.54-6.4-3.24-10.29-2.75-2.11.27-3.9,1.13-5.57,2.39-.34.26-3.38,2.81-2.14,2.17l5.05-1.37c-1.3-.03-5.58-.71-8.08-.06-2.3.6-4.51,1.55-6.9,1.69-1.13.07-19.07,1.07-18.61,2.69.05.18,4.79.1-.07-.61-1.69-.25-3.49-.31-5.15.15-1.91.52-4.01,1.78-5.45,3.11-1.93,1.79,1.61.05-1.15.75-2.48.63-5.03,1.24-7.51,1.93-2.84.79-5.81.7-8.67,1.69-1.36.47-2.61,1.48-3.94,1.89,1.87-.58-3.07.26-3.48.38-1.88.56-4.05,1.85-5.47,2.79-1.79.27-1.96.4-.52.4,1.31.17,1.27.06-.11-.33-1.28-.53-2.8-.63-4.15-.63-3.51.02-6.45,1.53-8.78,4.05-.58.63-3.62,4.96-.72,1.72,1.89-1.2,1.85-1.48-.11-.87l3.07.37c-.16-1-5.2-1.76-6.13-1.79-2.14-.05-4.08.35-6,1.35-1.29.67-2.31,1.66-3.52,2.47-.82.63-.62.51.57-.38l-1.39.58c-3.03.89-5.53,3.21-7.57,4.43l5.05-1.37c2.69.88,3.17.95,1.44.2-1.06-.53-2.16-.96-3.29-1.3-2.93-.72-5.8-.3-8.49,1.04.06-.03-3.92,2.13-1.99,1.4-2.6.98-5.23,1.18-7.89,2.36-2.93,1.3-5.9,2.14-8.92,3.24-2.75.99-5.02,2.61-6.59,5.1-.63,1.01-1.12,2.08-1.49,3.22-.74,1.71-.52,1.34.67-1.09l4.41-2.57c-2.37.61-4.65.79-6.86,2-1.06.64-2.05,1.37-2.99,2.19-1.38,1.22-1.12,1.18.8-.12h5.32c-3.18-.56-6.23-1.41-9.47-.54-1.67.45-4.35,1.9-5.35,3.25-1.5,2.02,1.29.14-.26.82-2.94,1.29-5.63,2.47-8.39,4.12.15-.09-3.81,2.36-1.89,1.55-1.42.6-3.92.76-5.53,1.33-5.76,2.07-10.75,4.3-16.05,7.37-2.97,1.72-5.86,3.14-8.56,5.3-1.88,1.5-4.28,4.36-5.46,5.45l4.41-2.57c-2.21.9-4.65,1.33-6.73,2.55-1.75,1.03-2.86,2.62-4.42,3.81-2.83,2.15-5.27,4.17-7.86,6.57l4.41-2.57c2.79.19,3.49.2,2.1.02-1.06-.15-2.12-.29-3.18-.43-1.47-.03-2.94.19-4.34.62-3.6,1.1-5.44,4.31-7.28,6.25l4.41-2.57c-.99.37-4.21.68-6.02,1.56-2.71,1.32-4.78,3.49-6.83,5.67-3.04,3.22-5.45,6.07-9.02,9.45l4.41-2.57c1.52-.64-.82.13-1.51.18-2.57.21-4.89.95-6.92,2.52-2.97,2.29-3.9,5.53-5.26,8.83l2.57-4.41c2.14-.96,2.36-1.1.66-.41-1.03.3-1.99.73-2.88,1.3-1.23.73-2.42,1.6-3.59,2.43-1.92,1.35-3.75,2.79-4.96,4.86-1.38,2.36,2.11-1.05-.97.9-2.73,1.73-5.6,4.02-7.71,6.44-2.28,2.62-4.05,6.6-5.55,8.81l3.59-3.59c.07-.04-3.19,2.14-4.14,2.11,2.9-.83,2.69-.93-.64-.32-1.23.12-2.38.52-3.45,1.19-1.85,1.01-3.23,2.22-4.42,4.02-.59.9-3.23,5.92-1.54,3.43-2.02,1.7-2.32,2.33-.89,1.89-1.17.69-2.28,1.49-3.31,2.38-1.33,1.14-2.52,2.33-3.39,3.91-.54,1.16-1.02,2.35-1.43,3.56.78-1.59.58-1.66-.61-.18-.72.69-1.41,1.41-2.09,2.14-1.21.99-1.44,1.32-.7,1l5.05-1.37c-3.34.38-6.35-.08-9.49,1.74-3.49,2.02-4.15,4.84-6.2,7.84l3.59-3.59c-2.26,1.53-6.05,2.73-7.99,6.14-1.83,3.21-1.32,6.05-1.6,9.42l1.37-5.05-.34.71,3.59-3.59c1.27-.85-1,.23-1.43.38-1.87.63-3.76,1.68-5.18,3.09s-2.45,3.42-2.99,5.24c-.48,1.63-1.98,5.96.16,1.67l3.59-3.59,1.97-.48-2.66.36c-1.35.32-2.67.79-3.87,1.5-2.6,1.54-4.6,4.12-5.41,7.05-.18.65-.17,3.54-.54,3.69l.68-2.08c-.46.6-.86,1.24-1.19,1.92.1-.14-1.26,1.75-1.21,1.5-.77.55-.74.67.07.35,1.03-.3.84-.19-.58.31-2.72,1.34-5.24,2.55-6.91,5.29-.46.75-1.91,3.12-1.69,4-.35,1.05-.11.84.73-.64,1.16-1.22,1.27-1.54.33-.95-2.32-.37-5.52,5.44-6.03,7-.43,1.34-.65,2.68-.67,4.11,0,.56-.31,2.48.16,1.13l2.57-4.41c-.53.52-2.56,3-3.35,3.09,2.49-1.56,2.27-1.62-.68-.18l-.95.42c-2.36,1.44-5.23,4.12-6.82,6.36-1.25,1.75-1.95,3.51-2.29,5.6-.15.79-.22,1.59-.23,2.39,0,1.43.05,1.5.15.2.28-1.38.06-1.25-.66.36-.47.6-.83,1.26-1.09,1.97-.97,1.95-1.46,4.02-2.28,6.01l2.57-4.41-.58.52,4.41-2.57c-4.45,1.8-7.7,2.77-10.66,6.96-1.32,1.87-2.6,3.75-3.2,5.98-.32,1.18-.42,2.47-.39,3.68.03,1.51-.29,5.35.62,1.15l2.57-4.41c2.44-1.4,2.2-1.41-.73-.03-1.13.46-2.14,1.14-3.01,2.04-1.52,1.42-2.64,3.05-3.24,5.07-1.07,3.59-.46,5.88-1.48,9.41l2.57-4.41c-2.38,2.92-4.98,4.2-6.08,8.27-.29,1.05-.46,2.12-.5,3.21-.12,1.7,0,1.65.33-.15l-.79,1.27c3.31-1.86,3.95-2.36,1.91-1.51-3.79,1.18-7.25,4.09-8.33,8.02-.52,1.91-.54,4.17-.08,6.1.29,1.15.72,2.26,1.28,3.32.73,1.76.63,1.32-.27-1.31l2.93-7.07c.91-1.16.27-.3-.57.2-1.11.66-2.31,1.36-3.23,2.28-2.29,2.29-2.95,5-3.68,8.01-1.25,5.2-4.65,9.36-4.2,14.9.08.65.17,1.3.27,1.95.17,1.11.12.83-.14-.84-.33.87-.28,2.04-.51,2.96-.06.24-1.67,4.09-.43,2.12s-.73.32-1.1.72c-5.05,5.42-3.08,11.12-.4,17.01l-1.37-5.05.08.94,1.37-5.05c.65-1.3-.79.75-1.07,1.06-1.09,1.22-1.9,2.52-2.47,4.05-1.2,3.26-.06,6.39.09,8.6l1.37-5.05c.4-.76,3.02-2.44.93-1.44-1,.48-2.05,1.33-2.84,2.07-1.6,1.5-2.91,3.4-3.5,5.56-.66,2.41-.36,5.35.45,7.67-.37-1.07.32-2.13-.15,0-.27,1.22-.46,2.47-.68,3.7-.75,4.04-1.6,8.44-1.96,12.54-.49,5.58,2.69,8.36,5.94,12.26l-2.57-4.41.25.76v-5.32l-.31.89,2.57-4.41c-2.7,3.35-5.22,6.14-5.49,10.63-.22,3.6-.03,8.16.79,11.68.25,1.08,2.53,6.6,1.71,3.21.33,1.38.19,3.05.36,4.46.18,1.38.37,2.76.57,4.13-.37-1.18-.55-.98-.52.58-.72,2.24-.17,4.82.57,6.95.41,1.19,1.09,3.03,1.62,4.28.54,2.51.8,1.89.77-1.85-.49,1.13-.96,2.26-1.42,3.39-1.04,4.1.78,7.7,2.02,10.4,1.51,3.29,1.8,6.68,2.9,10.08.56,1.71,1.24,3.65,2.07,5.2.75,1.38,2.64,2.97,3.11,3.69l-1.37-5.05c.24,1.9.35,3.85.5,5.76-.26-3.47-.47,2.43-.46,3.18.04,2.27.59,4.17,1.75,6.1.69,1.14,2.67,2.69,2.94,3.07l-1.37-5.05c.37,3.39-.78,7.12,1.98,11.03,1.09,1.55,2.54,3.13,4.33,3.86,3.48,1.42-4.04-3.71,1.18,1.19,1.98,1.86-.31-3.72-.67-.69-.21,1.76.69,4.62,1.61,6.19,1.16,1.99,2.64,3.04,4.31,4.47,1.35.98,1.3,1-.14.06.67,1.39.92,1.66.75.81v-5.32c-.37,2.71-1.28,5.19-.98,7.97.39,3.64,2.52,6.78,5.69,8.63,1.44.84,3.14.98,4.6,1.65-1.98-.89-1.21-.92-.42.57.73,1.37,3.45,6.91,5.11,6.91-.43,0-2.6-6.96-.75.2.34,1.3.84,2.57,1.56,3.72,1.72,2.74,4.17,3.63,6.59,5.34,1.97,1.4,3.64,3.46,5.51,5.03,2.18,1.82,5.36,2.76,7.01,3.54,1.03.49,2.91,1.68,1.07.06.7.62,2.36,2.76,3.13,3.69,1.2,1.44,2.83,4.02,5.01,5.29s3.63,1.19,6.12,1.73c1.44.31.48.22,1.56.49,1.23.31,7.82,2.5,8.65,1.53-.56.66-5.25-2.75-1.21.57,1.3,1.07,2.71,1.92,4.33,2.43,1.04.32,2.41.21,3.35.49s4.99,3.04,2.54,1.09c2.89,2.3,5.04,4.14,8.94,4.37,3.05.18,6.13-.21,9.19-.11l-5.05-1.37c-1.19-.63.17.36.63.8.97.93,2.04,1.7,3.22,2.33,3.29,1.77,6.16,1.06,9.65.85l-5.05-1.37c-.63-.76-.5-.64.4.34.89.81,1.84,1.56,2.82,2.26,1.72,1.04,3.88,1.72,5.89,1.72s4.14-.6,5.81-1.52c.99-.63,1.94-1.33,2.83-2.1,1.45-1.17,1.06-1.03-1.18.4h-5.32c1.83.58,5.83,2.48,8.66,3.06,2.16.44,4.11.37,6.21-.25.55-.16,8.93-4.03,3.57-2.36h-5.32c2.01.47,6.08,2.24,8.95,2.82s5.9.19,8.56-1.37c.02,0,4.54-3.41,3.3-2.85l-5.05,1.37c-1.47-.16,2.35.79,2.11.75.9.15,1.77.14,2.65.23,2.69.26,5.43.41,8.15.27,6.61-.34,8.72-4.08,12.31-8.78l-3.59,3.59.66-.41-5.05,1.37c-.15,0,3.89.3,4.55.37,2.02.24,5.07.86,7.58.17,2.65-.73,5.07-2.69,6.52-4.97.56-.87.9-1.77,1.34-2.71,1.66-3.59-.78,1.02.69-1.25l-3.59,3.59c-.91.66,1.12-.54,1.56-.7,1.13-.41,2.44-.54,3.53-1.01-.85.36-3.32-.52-.36-.03,2.06.34,3.72.57,5.83.08,5.41-1.25,8.46-4.94,12.55-8.17l-4.41,2.57c3.38-.97,4.57-.74,8-1.56,3.09-.74,4.92-2.54,7.12-4.56,1.9-1.75,4.45-3.13,6.57-4.92.89-.76,1.8-1.6,2.62-2.42.49-.5,4.02-4.73,1.72-2.65-2.55,2.3,2.03-.31,2.87-.83,2.13-1.33,2.73-3.31,4.64-4.64-1.65,1.16,2.3-.76,2.35-.79,1.19-.74,2.24-1.74,3.37-2.56,2.52-1.8-1.57.25,1.2-.2,1.59-.26,4.31-1.99,5.42-3.09,1.47-1.47,2.42-3.23,3.11-5.15.2-.56,1.47-2.67.49-1.3l-3.59,3.59c.8-.57,1.75-1.02,2.5-1.63,2.35-1.87-.7-.57-.87-.23.19-.4,3.02-.36,3.7-.55,1.51-.42,3-1.25,4.21-2.22,4.26-3.41,3.95-7.84,4.42-12.71l-1.37,5.05.36-.7-3.59,3.59.7-.35-5.05,1.37c4.28-.44,8.42-.06,11.78-3.42s2.98-7.59,3.27-11.93l-1.37,5.05.34-.71-3.59,3.59c1.34-.85,4.95-2.48,6.86-4.08.94-.79,1.93-1.57,2.78-2.47.35-.37,3.89-4.23,1.64-2.61,2.41-1.74,5-2.46,6.67-5.3s1.68-5.99,2.05-9.18l-1.37,5.05c-.64.28-.38-.07.78-1.03-3.9,1.04-4.01,1.24-.35.59,2-.44,3.71-1.23,5.29-2.51,3.9-3.17,4.11-7.38,4.48-12.04l-1.37,5.05c.56-1.32,3.72-3.88,4.72-6.06.33-.75.64-1.51.94-2.27l-.55,1.29c.99-.88,2.33-2.11,3.08-3.21l1.06-1.04c-1.51.42-1.76.44-.74.06,1.16-.81,2.68-1.13,3.89-1.94,1.88-1.26,3.06-2.65,4.09-4.6l1.01-2.39c.57-1.77.31-1.61-.78.46l-4.41,2.57c3.3-1.35,6.51-2.32,8.82-5.25,1.32-1.67,1.97-3.55,2.28-5.61.07-.46.61-4.65.02-3.02l-2.57,4.41c2.19-2.07,4.09-3.35,5.49-6.18.62-1.26.86-2.22,1.13-3.58.09-.66.18-1.31.26-1.97-.06-.73.05-.84.33-.32l-4.6,5.98c-1.71,1.21,1.28.04,2.08-.2,2.34-.71,4.32-2.13,5.83-4.03,2.47-3.13,2.77-5.99,4.65-9.25l-3.59,3.59c1.56-1.19,5.08-2.99,7.22-5,2.47-2.32,5.12-5.13,6.76-8.07.43-.96.85-1.94,1.24-2.92.48-1.69.22-1.72-.79-.09-2.92,2.54,1.95-.69,2.57-1.29,1.36-1.31,2.25-2.66,2.92-4.4.39-.69.62-1.43.69-2.21.6-3.37.5-3.54-.29-.52l-3.59,3.59c-.69.44-3.77.6-1.42.6,1.12,0,2.47-.24,3.57-.55,2.91-.82,5.42-2.93,6.93-5.49.77-1.31,1.56-3.54,1.85-4.19.48-1.1,1.03-2.16,1.33-3.32.13-.61.22-1.23.28-1.85.33-2.03.2-1.78-.4.75l-3.59,3.59c-1.54.98,2.25-.63,2.6-.78,1.41-.61,2.57-1.4,3.84-2.26,2.12-1.43,3.99-2.66,5.47-4.84.18-.27,1.43-2.67.88-1.94.75-.99,3.82-2.16,1.17-1.18,1.53-.56,3.13-1.02,4.52-1.9,3.85-2.42,4.77-5.97,6.17-9.95l-2.57,4.41.58-.73-4.41,2.57c-2.08.75,4.38-.41,4.09-.34,1.42-.37,2.84-.72,4.26-1.09,2.35-.62,4.48-1.82,6.15-3.59-.21.22,3.66-4.66,2.22-3.39l-4.41,2.57c-4.28.74,3.67.2,3.82.16,1.72-.35,3.11-.93,4.57-1.95,2.33-1.63,3.53-3.94,5.07-6.23l-3.59,3.59c1.45-1.1,3.09-2.28,4.71-3.12l-5.05,1.37c-1.46.05.33.36.98.56,1.15.35,2.47.53,3.67.53,1.69,0,3.03-.39,4.55-.92l2.39-1.01c-1-.01-.99-.02.03-.03,2.97-.5,5.65-.36,8.39-2.05.92-.57,1.99-2.09,3.02-2.4-3.17.97,2.06.28,2.13.27h-5.32c-1.94-.31.95.94,1.72,1.37,1.65.92,3.91,1.51,5.83,1.51,2.48,0,4.76-1,6.77-2.34,5.94-3.97-7.35.03,1.34.2,3.33.07,6.69-.88,10-.7,2.48.14,4.44.92,7.04.33,1.59-.36,3.51-1.6,4.6-1.87h-5.32l.76.24-4.41-2.57c3.4,2.63,6.05,5.84,10.8,5.84s7.56-3.34,11.01-6.11l-4.41,2.57c-.83.34-.44.42,1.18.21-1.64-.7-1.69-.71-.15-.03,1.97.86,2.95,1.3,4.44,1.96,2.99,1.32,5.51,2.06,8.82,1.36,1.54-.32,3.92-1.32,4.71-1.44h-5.32c2.95.75,5.28,1.81,8.46,1.54,2.13-.18,4.53-1.54,6.09-1.82l-7.71-1.01c-1.91-2.28-2.32-2.64-1.22-1.1.69.95,1.4,1.89,2.14,2.81,1.51,1.6,3.5,2.85,5.64,3.44,2.8.77,5.98.2,8.49-1.2.98-.68,1.93-1.4,2.85-2.16,1.45-1.2,1.08-1.14-1.09.21h-5.32c.64.24,2.8,1.93,4.35,2.31,1.85.46,3.83.37,5.71.5,1.53.1,3.02.34,4.55.47,1.01.2,2.03.24,3.05.11,3.16-.28,3.55-.41,1.18-.4l-4.41-2.57c2.38,2.03,4,4.3,7.2,5.29,1.66.51,3.2.64,4.94.54,3.04-.08,3.53-.3,1.47-.65-1.55-.47-1.58-.39-.09.25,3.66,2.06,8.31,2.16,12,.13,1.14-.63,2.5-1.44,3.25-2.46,1.33-1.1.42-.67-2.73,1.27,1.64.03,2.01.11,1.11.23l-4.41-2.57c3.69,3.32,6.17,5.85,11.45,6.2,4.76.32,9.42-.16,13.99-1.38,1.62-.43,3.4-.62,4.93-1.25.31.06.62.08.93.05,1.75.15,1.07-.28-2.03-1.28.02.48,2.37,1.85,2.95,2.18,2.51,1.42,5.83,1.97,8.62,1.24,1.29-.34,2.59-.93,3.72-1.62,1.19-.72,4.61-2.36.68-1.02h-5.32c.83.15,3.18,1.19,4.67,1.52,2.1.46,7.73.54,9.35-1.66.92-.45.69-.49-.67-.1-1.65.17-1.62.3.12.39,1.43.3,2.76.24,4.19.07,2.44-.29,4.85-1.08,7.22-1.69,3.43-.88,7.21-1.68,10.79-1.93,3-.21,5.55-.16,8.42-1.43.2-.09,3.89-2.1,1.71-1.05-2.05.98,2.26-.27,2.9-.44l-12.3-6.98c.63,1.51,1.13,2.99,2.16,4.28.25.32,1.76,2.63,1.06,1.01l-1.01-7.71c-.37,2.52-1.42,4.7-1.65,7.33-.25,2.89-.22,5.94.67,8.73.83,2.61,1.03,2.27,1.02,5.59s-.39,6.14,1.39,9.27c.97,1.7,2.35,3.18,3.98,4.28-1.21-2.04-1.41-2.18-.58-.42.57,1.6.67,1.59.3-.02-.06-1.64-.29-1.63-.68.04l-.36,2.66c-.29,5.74,3.18,10.38,5.3,14.55l-1.37-5.05c.38,5.07.9,9.8,1.81,14.8.51,2.8.2,5.83,1.7,8.55.58,1.04,1.33,2.19,2.17,3.02,2.25,2.23-.2-3.42-.02.15.12,2.4,1.01,4.96,1.83,7.2.43,1.16.92,2.33,1.57,3.38.29.48,2.53,3.91,1.93,2.42-.65-1.62.25,1.35.35,1.64.5,1.37,1.05,2.64,1.84,3.84.97,1.48,2.16,2.56,3.59,3.59.53.38,1.93,1.96,1.15.97l-2.57-4.41.16.93v-5.32c-.52,3.74-1.4,7.06.13,10.72.81,1.94,2.09,3.4,3.68,4.71.35.29,3.31,2.77,2.31,1.61l-2.57-4.41c1.2,3.24,2.11,6.13,4.1,9.01.55.79,1.25,1.97,1.82,2.72,2.32,3.04,1.13-4.24.36-.6-1.38,6.52,3.12,9.7,6.26,14.28,1.76,2.56,3.19,4.5,6.01,5.96,2.76,1.39,3.14,1.42,1.14.08-1.5-1.36-1.66-1.24-.48.37.33.81,1.39,2.77,2.03,3.19,1.34.87.07-1.8.58.61.38,1.79.48,3.26,1.31,4.94,1.73,3.51,4.57,5.6,8.31,6.65,2.39.67-.56-1.44.12.17.4.95,1.84,1.96,2.63,2.7.94.88,1.88,1.63,2.73,2.6,1.61,1.83.82,2.26.53.3.79,5.29,5.3,11.46,10.22,13.55.58.25,2.52,1.26,3.27.97-2.65-2.41-3.48-2.9-2.51-1.49.54.9,1.17,1.74,1.87,2.52.53.89,1.74,3.63,3.14,5.02,4.03,4.03,9.88,5.22,15.22,5.9l-5.05-1.37c.96.44,1.51,2.09,1.96,2.74,1.38,2.01,2.88,3.93,4.59,5.69,1.83,1.88,3.81,3.4,6.44,4.05,1.2.29,2.43.32,3.64.27,1.08-.07,2.15-.23,3.2-.48,1.35-.25.71-.33-1.9-.24l-4.41-2.57.52.61-2.57-4.41c1.53,3.97,2.28,8.02,6.33,10.39,2.37,1.39,4.3,1.04,6.78,1.85,1.08.11.84.13-.73.06,1.61,1.27,1.73,1.11.36-.49,3.53,4.03,5.72,7.37,11.73,7.55,1.42.04,1.05-.25,2.4-.23,1.28.27,2.58.4,3.89.38-1.74-.67-1.73-.56.03.35.53.33,6.16,3.14,6.67,2.6-.08.08-5.4-4.65-.51.66,3.88,4.22,8.24,4,13.47,3.43.12-.01,2.73-.04,3.62-.3,1.69-.36,1.62-.48-.22-.36.94.47,1.92.79,2.95.97,5.02,1.11,9.5,0,14.25-1.2h-5.32c-.92-.24-2.82-2.01-1.29-.4,1.11,1.17,2.54,1.98,4,2.59,2.46,1.04,5,1.06,7.63.82s4.98-.57,7.22-1.9c1.41-.84,2.45-2.03,3.41-3.33,1.28-1.72,2.52-2.26-.39-.51l-5.05,1.37c2.5.04,4.73.54,7.25-.06,2-.48,3.8-1.33,5.83-1.71,5.61-1.06,7.99-3.74,11.29-8.14l-3.59,3.59c2.6-1.99,6.08-2.24,9-3.61,2.67-1.25,5.22-3.07,7.55-4.07,2.48-1.07,4.59-1.3,6.68-3.25,1.2-1.11,1.89-2.66,3.01-3.8,1.65-1.68,5.81-3.69,7.81-6.18.72-.89,2.48-5.6,2.67-5.65-2.12,2.34-1.93,2.41.57.24.77-1.21,1.13-1.49,1.07-.85,3.4-2.37,5.56-4.21,7.29-8.63.26-.66,1.19-2.26,1.51-3.74.78-3.58-4.5,2.8-.68.82,4.55-2.35,5.49-6.83,7.11-11.19l-2.57,4.41c1.78-1.93,5.12-4.03,6.16-7.51s.06-6.35-.51-9.58v5.32c-.16.99.43-2.56.75-2.26.42.39-3.6,2.98-.52,1.19,2.47-1.44,3.82-3.56,5.38-5.88,1.7-2.53,3.02-4.84,3.06-8.06.01-1.21-.16-2.48-.46-3.65-.42-1.65-.03-2.46-.33.28.24-2.23.68-.73-.53.11.55-.39,1.08-.87,1.55-1.36,1.36-1.43,2.54-3.55,3.53-5.28,1.32-2.31,2.2-4.63,2.15-7.33-.03-1.7-.53-3.2-1.22-4.72-.93-2.07-.76-3.32-.6.38l-1.37,5.05c.94-1.7,3.15-3.71,3.85-6.25s-.53-6.19-.6-7.43l-1.37,5.05c-1.45,2.54-2.31,2.45-.11,1.07,1.32-.82,2.48-1.88,3.44-3.09,2.32-2.94,2.37-6.12,2.43-9.69.04-2.47.66-4.96.67-7.46,0-1.38-.12-2.86-.24-4.24l-.36-2.66c-.53-1.88-.79-1.59-.79.88l-2.57,4.41c2.76-3.51,5.32-6.42,5.31-11.18-.01-3.91-1.23-7.35-1.76-11.1v5.32l.29-.74-2.57,4.41c2.21-2.49,4.56-4.12,5.57-7.61,1.34-4.65-.85-6.52-1.82-10.31v5.32l.32-.9-2.57,4.41c4.06-4.99,7.52-10.09,3.94-16.59-.36-.65-.8-1.23-1.23-1.83.45,1.99.65,2.31.6.97.02-.5.03-1,.02-1.51-.09-3.09-1.56-5.65-2.16-7.85v5.32c.61-4.22,1.43-8.21,1.41-12.51-.01-2.13.06-4.35-.44-6.44-.35-1.44-1.84-3.83-2-4.29v5.32c-.22,1.24.42-.56.7-1.09.66-1.2,1.22-2.47,1.43-3.83.83-5.33-1.36-10.76-6.98-12.3-4.74-1.3-11.46,1.62-12.3,6.98.21-1.35-1.95,3.91-1.97,3.97-.74,2.48-.59,4.93.21,7.35.39,1.23.93,2.38,1.64,3.44-.31-1.9-.41-1.86-.32.13-.19,1.99.18,4.07-.15,6.06-.4,2.45-1.14,4.54-.52,7.21.28,1.22.72,2.39,1.31,3.51.77,1.54.82,1.47.13-.22.11,2.26-.16,4.34.53,6.58-.1-.33,2.48,5.52,2.02,3.65v-5.32l-.31.9,2.57-4.41c-2.03,2.52-4.31,4.72-5.19,7.97-1.09,4.07,1.17,6.69,1.96,9.94v-5.32l-.28.74,2.57-4.41c-2.59,2.95-5.3,5.1-5.9,9.31-.47,3.31,1.9,7.04,1.25,8.74l2.57-4.41c-4.18,5.38-5.86,8.64-4.33,15.44-.16-.72.2.93.24,1.23.15,1.32.11,2.5,0,3.81-.26,2.79-.35,5.46-.49,8.25l1.37-5.05c1.69-3.07,2.1-2.31.12-1.07-1.79,1.12-3.32,2.57-4.39,4.39-2.38,4.07-.7,6.98-.57,10.11l1.37-5.05c-1.35,2.55-4.11,5.02-4.2,8.91-.04,1.49.29,2.91.76,4.31l1.01,2.39c.84,1.69.87,1.16.07-1.58l1.37-5.05c-.46,1-2.13,3.71-2.12,3.71-.63.77-3.02,3.02-3.91,5.09-1.06,2.45-2.06,5.42-2.14,8.08-.04,1.2.03,2.41.3,3.59.12.53.42,3.05.55,1.49l1.37-5.05c-.45.8-1.35,1.72-1.66,2.55.44-1.2,1.81-1.45-.1-.2-2.41,1.57-3.95,3.36-5.21,5.93-.92,1.87-1.85,4-2.31,6.01-.69,3.01.19,5.75.68,8.67v-5.32l-.17.91,2.57-4.41c-.66.75-3.3,2.61-4.37,4.11-1.7,2.39-2.16,5.07-3.22,7.74l2.57-4.41c1.28-1.27-.99.22-1.37.45-1.63.99-3.25,2.56-4.25,4.21-.86,1.42-1.14,3.09-1.7,4.61.55-.44.48-.17-.23.82-.5.95-.89,1.94-1.18,2.96-.53,1.54-.01.86,1.55-2.02-.8.29-1.51.72-2.12,1.31-1.14.79-2.12,1.74-3.16,2.62-1.58,1.33-2.89,2.44-3.96,4.3-.65,1.13-1.18,3.54-1.45,4.01l3.59-3.59c-2.67,2.03-5.49,3.82-8.05,6.02-1.36,1.17-2.48,2.22-3.48,3.79l-.66.98c2.69-1.74,3.23-2.42,1.65-2.05-1.38-.88-6.42,3.1-7.81,3.9-2.66,1.53-5.41,2.09-8.21,3.33-2.95,1.3-5.35,2.45-7.5,4.94-3.51,4.08,2.31-.1,2.35-.43.01-.09-4.72.73-5.51,1.15-2.65,1.37,1.6.53-3.2.32-2.31-.1-4.51.22-6.56,1.34-1.29.71-2.33,1.67-3.3,2.74l-1.56,2.02c-1.05,1.54-.66,1.35,1.16-.56l5.05-1.37c-1,.14-2.01.22-3.02.26,3.22,1.99,4.17,2.41,2.85,1.28-.96-1.35-2.89-2.31-4.4-2.97-2.36-1.03-4.72-1.26-7.27-.7l-1.45.37c-2.52,1.28-3.11,1.47-1.77.55-3.01-.05-5.55-1.56-8.67-1.39-2.92.16-6.1,1.3-8.48,1.22l5.05,1.37c1.71,1.91,2.18,2.33,1.42,1.27-.57-.85-1.18-1.67-1.85-2.44-.79-.84-1.64-1.66-2.63-2.26-2.2-1.34-4.78-1.78-7.09-2.84-3.12-1.44-5.37-2.34-8.84-2.69-.77-.08-.31,0-1.52-.13-.81-.09-3.99.1-3.91.11l4.41,2.57c.38.91.26.79-.35-.36-.68-1-1.4-1.96-2.17-2.89-1.17-1.22-2.68-2.05-4.07-2.96-3.07-1.99-7.41-2.91-9.73-3.76l4.41,2.57-.53-.6,2.57,4.41c-1.43-3.61-2.01-7.07-5.31-9.63-1.96-1.52-4.35-2.31-6.84-2.36-1.22.1-2.44.25-3.65.45-1.91.33-1.45.44,1.37.34l4.41,2.57c-3.49-3.14-4.86-6.86-8.43-10.32-1.58-1.52-6.63-5.21-8.99-3.92-1.07.59,2.82,1.4.53.08-1.03-.59-2.11-.96-3.11-1.62l3.59,3.59c-2.68-3.56-3.54-6.81-6.67-9.91-.7-.7-6.1-4.58-7.3-3.51,1.23-1.1,3.18,3.73.83-.68.86,1.6.96,1.58.61-.18-.97-4.75-5.5-8.55-8.82-11.75-1.87-1.8-3.43-3.98-5.65-5.39-1-.63-2.04-1.17-3.17-1.54-.44-.14-2.74-1.17-1.65-.4l4.6,5.98c-.79-1.91-1.48-5.81-3.03-8.48-1.63-2.81-3.31-6.07-5.55-8.43-1.05-1.1-2.33-1.94-3.67-2.64l-2.39-1.01c2.61,2.42,3.2,2.58,1.77.5-.97-2.89-3.92-4.41-5.79-6.55l2.57,4.41c.03,2.49.13,2.73.32.72.12-.82.22-1.64.31-2.47,0-1.15-.25-2.48-.57-3.59-.91-3.18-3.42-5.7-5.16-8.42s.16,1.76-.93-1.98c-.5-1.74-1.28-3.37-2.32-4.83-.95-1.33-2.06-2.37-3.42-3.28-.44-.3-2.28-2.02-1.29-.83l2.57,4.41c.78,4.15.73.42.73-1.55,0-1.85-.59-4.37-1.53-5.98-1.62-2.76-4.28-4.29-6.76-6.12l3.59,3.59c-.62-.81-1.45-4-2.35-5.54-.63-1.07-1.59-1.92-2.22-2.98-.74-1.24.56,2.8,0-.89-.29-1.93-.53-4.19-1.08-6.07-.71-2.47-3.06-4.59-4.01-6.15l1.37,5.05c-.29-2.47-.07-4.91-.6-7.38-.41-1.91-1.07-3.63-1.3-5.53-.28-2.26-.02-4.49-.42-6.73-.62-3.48-2.64-4.79-4.08-7.73,1.15,2.33.43-.53.31-.47-.01,0-.24,2.58.62.17s.39-5.55-.42-7.93-1.81-4.94-3.31-6.94c-.6-.8-1.11-1.34-1.84-1.98-.68-.6-1.28-1.67-.62-.27l1.37,5.05c-.05-2.83.11-5.59-.12-8.43-.13-1.67-.32-3.3-.85-4.89-1.11-2.46-1.4-3.16-.85-2.09.33.77.42.35.28-1.25,1.8-5.25,1.51-11.34-3.48-15.29l2.57,4.41-.37-.88c-2.11-5.05-6.51-8.48-12.3-6.98,1.63,0,.99.12-1.92.37-1.23.21-2.4.63-3.5,1.26-2.51,1.54.66.42-2.29.58-3.54.19-7.03,1.02-10.53,1.48-1.98.26-3.69.67-5.58,1.16-.53.14-5.68,1.24-3.67,1.12-2.45.14-4.28-.71-6.85-.1-1.47.35-3.76,1.78-4.37,1.96h5.32c-2.2-.37-5.53-2.11-8.66-1.69-1.67.22-3.08.64-4.61,1.49-1.4.78-5.38,2.71-1.12,1.32h5.32c1.95,1.25,2.16,1.32.62.19-.62-.51-1.26-.98-1.94-1.41-1.44-.82-3.02-1.22-4.63-1.44-3.31-.45-6.76-.33-10.01.42-3.8.88-9.44,3.06-12.27,1.98l4.41,2.57c-1.36-1.21-2.37-2.67-3.88-3.74-2.67-1.89-5.12-2.24-8.32-2.57-2.21-.23-4.28-.38-6.46.23-1.59.45-2.92,1.34-4.21,2.33-.5.35-.97.73-1.43,1.14-1.01.83-.48.57,1.58-.78h5.32c-.56-.15-3-1.36-4.44-1.69-1.39-.37-2.79-.45-4.2-.25-3.15.22-3.55.39-1.19.49l4.41,2.57c-2.56-2.18-4.51-4.61-7.93-5.58-2.6-.74-4.49.04-7.08.06-1.57.01-3.19-.43-4.76-.57-1.02-.09-2.03-.13-3.05-.14l1.35.11c-2.54-1.05-4.29-2.52-7.22-2.52-1.93,0-4.17.63-5.83,1.55-.98.68-1.93,1.4-2.85,2.15-1.45,1.2-1.08,1.13,1.09-.2l7.71,1.01c1.91,2.27,2.32,2.64,1.22,1.09-.69-.95-1.4-1.89-2.14-2.81-.94-1-2.05-1.79-3.25-2.42-2.49-1.32-4.96-1.59-7.71-1.01-1.61.34-3.63,1.43-4.76,1.64h5.32c-2.95-.76-5.28-1.79-8.46-1.54-2.02.16-4.8,1.42-6.04,1.62h5.32c-4.05-1.29-7.75-3.73-13.11-4.01-2.65-.14-5.24-.1-7.69,1-2.7,1.21-4.18,3.22-6.39,5.01l4.41-2.57-.77.24h5.32l-.76-.25,4.41,2.57c-2.58-2.02-4.38-4.41-7.77-5.36-4.51-1.26-6.68.82-10.29,1.75h5.32c-2.67-.38-5.28-1.12-7.99-1.12s-5.42.78-8.11.81c-2.51.03-4.85-.9-7.43-.21-1.08.29-2.32.77-3.27,1.32-1.1.64-5.28,2.97-1.01,1.36h5.32c1.98.36-1.03-1-1.72-1.39-2.65-1.48-5.54-1.65-8.48-1.13-2.34.41-4.73.92-6.87,2-1.41.72-3.22,2.23-4.12,2.66l5.05-1.37c-1.5.15-11.02.41-11.02,2.27,0-.59,5.3.72,1.27-.73-1.77-.64-3.64-.61-5.46-.31-2.97.48-5.29,2.04-7.69,3.74-1.72,1.22-3.12,2.38-4.33,4.15-.29.43-2.05,2.31-.93,1.4l4.41-2.57-1.17.16h5.32c-3.89-.55-7.93-1.26-11.53.84-1.67.98-3.25,2.59-4.28,4.19-.24.37-1.87,2.56-.64,1.39l4.41-2.57c-4.5,1.63-4.07.25-8.98,1.66-2.58.74-4.7,2.28-6.21,4.47-.87,1.27-1.4,2.48-1.97,3.92-.22.55-1.11,2.03-.38,1.06l3.59-3.59c-1.93,1.01-5.51,2.74-8.02,4.78-2.66,2.16-3.75,4.78-5.73,7.42l3.59-3.59c-1.02.73-2.06,1.47-3.15,2.08-2.15,1.21,1.21-.45-.51.31-3.03,1.35-5.24,1.66-7.48,4.48-.81,1.02-1.25,1.8-1.74,3.01-.26.65-.78,4.71-1.07,4.89.27-.17,1.36-3.29,0-1.09.54-.87-1.68,3.91-1.33,3.3l3.59-3.59c1.74-1.07,3.41-.89.08-.43-1.76.24-2.97.43-4.62,1.38-2.41,1.39-4.16,3.43-5.17,6.01-.23.6-1.68,4.8-1.05,4.87-1.09-.11,4.97-5.43,1.2-3.89-2.46,1-5.68,5.03-5.95,7.75-.11,1.12.16,1.8.76.35-.36.87-1.72,2.11-2.4,2.83-.37.39-2.56,3.3-.31,1.23-.85.78-2.58.91-3.57,1.49-4.85,2.84-6.38,8.82-8.37,12.52l3.59-3.59c1.6-1.13-.37-.23-1.19-.04-1.87.42-3.47,1.26-4.92,2.48-3.47,2.89-3.64,7.13-4.79,9.88l2.57-4.41c-2.52,2.38-4.89,3.85-5.99,7.38-.36,1.15-.63,2.32-.67,3.54-.02.49-.36,3.12.16,1.69l2.57-4.41-.71.57,4.41-2.57c-2.74,1.12-5.47,1.82-7.69,3.96-2.02,1.95-2.75,5.2-3.5,6.71l3.59-3.59c-1.58,1.21-5.08,2.94-7.2,5.01-2.4,2.35-5.31,4.96-7.01,7.84-.56.89-1,1.85-1.3,2.87-.51,1.3-.57,1.44-.18.41.53-1.06.23-.97-.9.3-.71.6-1.32,1.29-1.84,2.05-2.33,3.21-2.37,6.48-2.68,10.25l1.37-5.05-.37.85,3.59-3.59c2.84-.64,2.6-.69-.7-.14-1.23.19-2.4.6-3.49,1.24-1.95,1.06-3.35,2.61-4.76,4.27-3.36,3.96-3.99,7.3-4.58,12.32l1.37-5.05-.4.83,3.59-3.59c-2.37,1.82-4.9,2.77-6.95,5.11-.82.94-1.48,1.97-2.37,2.85-.53.52-1.1,1.01-1.69,1.46,1.39-.6,1.58-.72.59-.36-3.33,1.64-5.97,2.62-7.87,6.11-1.65,3.04-1.13,5.99-1.36,9.21l1.37-5.05-.34.7,3.59-3.59-.69.35,5.05-1.37c-4.28.45-8.42.05-11.78,3.42s-2.97,7.6-3.4,11.94l1.37-5.05-.36.69,3.59-3.59c2.96-.78,2.77-.88-.58-.28-1.22.14-2.36.54-3.43,1.19-1.36.72-2.64,1.63-3.91,2.49-1.91,1.29-3.58,2.72-4.72,4.76-.51,1.09-.96,2.21-1.35,3.35-.31,1.27-.36,1.38-.16.33l3.59-3.59c-.34.18-3.2.84-4.44,1.61-1.69,1.05-3.07,2.42-4.81,3.43-2.12,1.22-4.04,2.08-5.75,3.97-1.98,2.41-2.11,2.68-.39.81-1.04.4-2.06.85-3.07,1.32-3.7,2.06-4.82,5.46-7.75,7.61-1.62,1.19-3.41,1.85-4.96,3.25-1.16,1.05-2.03,2.31-3.23,3.31l4.41-2.57c-2,.63-7.3,1.04-10.27,2.4s-4.92,4.78-6.94,5.09h5.32c-2.26-.37-4.42-.95-6.73-.85-3.03.13-6.15,1.26-8.95,2.35-3.08,1.2-5.62,2.11-7.78,4.75-.69.84-1.13,1.61-1.61,2.55l-1.01,2.39c.39-.86.33-.84-.19.04l3.59-3.59-.54.38,5.05-1.37c-2.64.13-5.98-1.05-9.47-.9-2.89.13-5.67,1.28-7.74,3.34-.72.93-1.44,1.85-2.15,2.79-1.03,1.53-.62,1.34,1.24-.58l5.05-1.37c-1.58.11-3.38.27-4.93.21-3.12-.12-3.77-.67-6.28-1.11-5.63-1-9.04,1.92-12.83,5.48l4.41-2.57-.86.36h5.32c-3.54-.48-5.02-1.79-8.4-2.69-2.32-.62-4.48-.58-6.76.15-1.24.3-2.33.86-3.28,1.67-2.62,1.83-2.72,2.05-.29.67h5.32c-3.78-.8-5.98-2.74-9.99-3.24-2.49-.31-4.93.14-7.14,1.36-.99.64-1.93,1.34-2.83,2.11-1.45,1.18-1.06,1.04,1.18-.43l7.71,1.01c1.12.48-.21-.19-.8-.66-1.07-.86-2.06-1.66-3.27-2.3-3.33-1.76-6.12-.99-9.65-.85l5.05,1.37c1.46.72-.63-.79-1.01-1.15-1.9-1.75-4.03-2.74-6.56-3.18-3.44-.6-7.05.13-10.52-.07l5.05,1.37c-1.85-1.07-4.46-3.25-7.11-4.38-2-.86-4.06-1.12-6.01-1.85,2.91,1.09-.69-1.23-1.59-1.81-1.4-.91-2.77-1.53-4.41-1.91,2.37.55-5.54-.6-3.51-.27-2.48-.4-7.91-1.74-8.98-2.11l4.41,2.57c-1.15-1.08-3.34-4.07-4.49-5.31-2.37-2.57-5.24-4.61-8.39-6.18.61.3-6.06-2.69-2.44-.49-1.17-.71-2.26-2.07-3.3-3.01-2.6-2.35-5.37-3.89-8.14-5.93l3.59,3.59c.63,2.51.78,2.75.44.73-.09-.8-.21-1.6-.36-2.39-.3-1.07-.86-2.25-1.44-3.21-1.38-2.31-3.4-4.13-4.83-6.43-3.29-5.29-7.79-7.99-13.48-9.92l4.41,2.57-.72-.58,2.57,4.41c-.07,2.92.09,3.43.47,1.54.17-1.2.33-2.41.49-3.61,0-2.34-.78-4.44-1.93-6.43-1.85-3.19-5.24-6.31-6.93-8.38l2.57,4.41c-.06-.29.15-3.42-.28-4.86-.72-2.38-2.08-3.89-3.6-5.79-.43-.53-1.37-1.95-2.41-2.95-.91-.82-1.9-1.53-2.96-2.13-1.2-.62-1.38-.7-.54-.24l2.93,7.07c-.19-1.46.46-5.27-.19-7.62-.68-2.49-3.4-4.66-4.28-5.93l1.37,5.05c-.2-1.93.05-6.63-.1-9.52-.11-2.28-.77-4.15-1.99-6.03-.68-1.11-1.51-2.07-2.5-2.89.71,1.62.7,1.54-.03-.24-.87-3.31-1.52-6.47-2.81-9.66-.32-.78-2.13-4.91-2.16-4.88l-.03,5.06c.48-1.13.96-2.26,1.43-3.39.98-3.82-.12-7.68-1.31-11.31-.37-1.06-.8-2.09-1.27-3.11.23,2.67.43,2.38.62-.87.13-1.97-.22-3.71-.42-5.67-.37-3.62.05-7.7-2.01-10.92-1.53-2.38-.43,2.15-.52-1.23-.03-.94-.25-4.25-.25-4.25l-2.57,4.41c2.93-3.69,5.99-6.85,5.33-11.96-.55-4.31-3.41-6.51-5.96-9.6l2.57,4.41-.23-.76v5.32c.72-4.22,1.27-8.48,2.07-12.69.41-2.15.96-4.32,1.19-6.5.15-1.41.14-2.4-.09-3.81.03.16-.71-3.18-.65-2.23l-1.37,5.05c-1.52,2.98-2.15,2.24-.14.93,1.81-1.18,3.29-2.55,4.38-4.43,2.34-4.04.73-7.03.57-10.1l-1.37,5.05c-.69,1.44.7-.67,1.06-1.07,1.69-1.88,2.83-4.05,3.17-6.57.53-4.01-1.23-6.96-2.8-10.45l1.37,5.05-.07-.94-1.37,5.05c-.48.9-.07.22.45-.23.87-.76,1.71-1.78,2.31-2.76,1.23-2.03,1.93-4.48,2.56-6.75.59-2.1.92-4.31,1.23-6.46.2-1.44.22-2.37.1-3.81-.04-.45-.02-2.85-.08-2.3l-1.37,5.05c1.25-2.64,2.62-5.06,3.59-7.84.33-.93.68-1.9.95-2.85.05-.18.98-3.33.47-2.67l-3.59,3.59c3.23-2.12,6.27-3.4,7.9-7.26.97-2.31,1.15-4.85.57-7.3-.3-1.15-.73-2.26-1.28-3.32-.73-1.76-.64-1.33.29,1.32l-2.93,7.07c-2.43,1.23-2.79,1.49-1.08.8,1.12-.39,2.2-.88,3.23-1.45,2.02-1.26,3.21-2.86,4.47-4.83,1.12-1.74,2.27-3.64,2.89-5.62.42-1.35.56-4.6.59-4.7l-2.57,4.41c2.36-2.95,5.02-4.36,6.15-8.45.69-2.47.86-7.01,1.27-8.68l-2.57,4.41c-2.46,1.39-2.22,1.4.71.02,1.14-.46,2.14-1.14,3.01-2.04,1.52-1.41,2.67-3.04,3.25-5.06.44-1.56.5-3.13.42-4.71-.28-3.72-.52-3.54-.73.54.9-1.33,1.13-1.66.7-1l-4.41,2.57c1.99-.82,4.19-1.12,6.08-2.23,3.16-1.85,4.36-4.71,5.76-7.9.79-1.8,2-3.65,2.85-5.54.69-1.54,1.07-3.03,1.17-4.73.04-.61.62-3.13,0-1.46l-2.57,4.41c.65-.73,1.42-1.29,2.1-1.97.34-.34,2.12-2.36.35-.62-2.08,2.06,1.55-.27,2.48-.84,1.2-.73,2.2-1.79,3.26-2.7,2.3-1.96,4.45-3.97,5.39-6.97.36-1.15.62-2.34.67-3.55.02-.48.35-3.11-.16-1.69l-2.57,4.41c.77-.65,3.56-2.07,4.77-3.61s2.03-4.61,2.44-5.43l-3.59,3.59c.54-.4,3.03-1.5,4.27-2.32,2.23-1.47,4.34-3.68,5.97-5.77,1.27-1.62,2.42-3.46,3.36-5.29.54-1.05,1.01-2.18,1.3-3.32.4-1.54,1.78-5.06-.23-1.09l-3.59,3.59c-2.43.51-2.64.6-.65.29.82-.07,1.62-.21,2.42-.42,1.78-.52,3.9-1.75,5.21-3.06s2.45-3.43,2.99-5.25c.49-1.65,2.01-5.93-.16-1.67l-3.59,3.59c-1.62,1.1,4.07-1.53,3.81-1.39,1.75-.96,3.35-2.37,4.36-4.1,1.84-3.17,1.47-6.34,1.77-9.78l-1.37,5.05.34-.71-3.59,3.59c1.18-.81,4.61-2.11,6.26-3.76,1.78-1.78,2.44-4.09,3.83-6.09l-3.59,3.59.7-.37-5.05,1.37c3.46-.4,6.66.05,9.84-1.91s6.66-6.01,9.04-9.01c1.29-1.62,1.6-4.1,2.84-5.54-3.71,4.28,1.86-.17,2.62-.97,2.5-2.65,4.39-7.16,5.93-9.41l-3.59,3.59c-3.83,1.99-.37.61,1.17.22,1.32-.34,2.52-.94,3.75-1.52,1.03-.48,4.61-2.12,6.17-3.67,1.18-1.18,2.03-2.69,2.72-4.18.26-.57,2.04-3.66.42-1.3,1.29-1.87,2.68-3.29,4.51-4.62,2.52-1.83,5.2-3.34,6.84-6.13.74-1.26.69-.87-.3-.08.22-.17,2.34-1.69,2.34-1.69,1.86-1.05,4.73-1.98,6.62-3.94,2.14-2.22,2.84-4.95,3.97-7.69l-2.57,4.41-.59.47-5.05,1.37c2.34-.2,4.56-.15,6.82-.9,3.22-1.07,5.29-3.47,7.62-5.76,3.62-3.57,6.02-6.67,9.43-9.87l-4.41,2.57c1.41-.55,5.1-.82,7.22-2.06,1.97-1.15,4.04-4.34,4.89-5.24l-4.41,2.57c-.65.24-3.99-.48-1.57.03,1.87.4,3.14.45,4.92.19,2.83-.41,5.29-1.72,7.31-3.78,2.86-2.92,6.26-5.33,9.42-8.04l-4.41,2.57c3.02-1.26,6.27-1.8,8.76-4.11,1.23-1.14,2.01-2.55,3.1-3.79-1.6,1.82-.17.21,1.39-.82,3.8-2.51,8.34-5.04,12.48-6.8,5.11-2.16,10.36-2.91,15.15-5.73,2.12-1.25,4.07-2.48,6.35-3.36,1.44-.55,2.74-1.12,4.02-1.97l2.02-1.56c1.33-1.3,1.02-1.35-.93-.15h-5.32c2.89.51,5.59,1.33,8.55.67,1.57-.35,2.91-.89,4.28-1.76.53-.34,3.88-2.54,2.33-2.06-1.86.57,2.48-.26,2.45-.25,1.78-.56,3.38-1.52,4.72-2.82.94-.91,1.72-1.96,2.34-3.11l1.01-2.39c.73-1.71.52-1.34-.65,1.09l-4.41,2.57c4.08-1.33,8.67-2.22,12.38-4.46,1.56-.81,1.78-1,.67-.58,1.4-.12,2.79-.34,4.15-.68,2.35-.74,4.23-2.18,6.38-3.3l-5.05,1.37c-1.97.09-3.36-.98-.26.3,1.28.52,2.05.79,3.43.97,3.41.46,6.46-.51,9.16-2.59-.05.04,2.96-2.36,1.35-1.34s1.85-.65,2.25-.81c2.02-.83,5.25-3.03,6.31-3.58l-5.05,1.37c-2.69-.66-2.53-.45.5.64,1.17.55,2.42.81,3.75.78,2.15.08,4.48-.41,6.56-.97,2.49-.68,4.64-1.51,6.54-3.34.74-.89,1.45-1.79,2.14-2.72,1.03-1.47.6-1.21-1.29.8l-5.05,1.37c-1.57.05.34.29.88.43,1.35.37,2.72.53,4.11.47,2.97-.11,6.78-1.09,9.43-2.46.72-.37,1.36-.7,2-1.21,1.81-1.45-1.34-.37,1.28-.51,3.46-.18,6.27-2.15,9.35-3.47l-5.05,1.37c5.05-.52,9.6-1.46,14.54-2.54,2-.44,3.84-1.17,5.73-1.94,2.31-.95,4.64-2.96,6.36-3.87l-5.05,1.37c.46.01,3.37.86,4.83.83s2.72-.46,4.07-.94c.21-.07,3.66-1.47,1.65-1.07,2.17-.43,4.96-.29,7.23-.58,2.1-.26,4.12-.05,6.25-.31s4.38-.71,6.47-1.29c.34-.09,3.32-1.23,1.4-.76-1.6.4,1.08.33,1.77.42,2.79.37,5.46.05,7.95-1.38,1.02-.58,2-1.35,2.83-2.18.32-.32,1.84-1.54.74-.99l-5.05,1.37.93.1-5.05-1.37c3.39,1.54,6.4,3.24,10.3,2.76,2.11-.26,3.89-1.14,5.58-2.35.64-.46,1.24-.95,1.81-1.49.89-.99,1.03-1.1.42-.33l-5.05,1.37.93.1-5.05-1.37c3.37,1.48,6.41,3.22,10.25,2.69s6.2-2.9,9.04-5.19l-4.41,2.57c1.38-.56,4.02-.87,4.88-2,.97-.48.69-.45-.84.1.76.07,1.53.08,2.29.04,2-.07,4.51-.29,6.35-1.24,3.46-1.79.9,2.96-1.32-1.87,1.27,2.77,6.77,4.37,9.49,4.37,2.03,0,4.18-.69,5.92-1.75.1-.06,4.47-3.37,3.35-2.88l-5.05,1.37c1.39-.17,2.77-.35,4.16-.55-4.44-2.23-5.63-2.57-3.56-1.02,1.66,1.6,3.75,2.71,5.97,3.23,4.88,1.14,8.45-1.81,13.03-2.36,4.15-.49,8.02,1.49,12.1,1.49,4.88,0,7.47-3.3,10.75-6.21l-4.41,2.57.75-.27h-5.32c2.08.39,5.64,1.77,8.72,1.75,1.51,0,3.01-.06,4.52-.06,3.23.01-1.03-.97,1.33.61,3.38,2.27,8.42,2.16,11.87.15,2.18-1.27,3.41-3.34,5.32-4.87l-4.41,2.57.65-.19h-5.32c.86.24,2.93,1.6,4.47,1.96,1.72.4,3.85.58,5.66.67,3.61.16,7.04-.82,10.63-1.14,7.48-.67,12.84,3.35,20.07,3.88,3.31.24,6.47,1.44,9.77,1.77,2.25.23,4.15-.36,6.35-.64-2.35-.36-1.95-.31,1.19.13-2.14-1.4-2.65-1.66-1.53-.78,1.92,2.73,8.34,5.13,11.49,5.59,4.52.65,7.17-1.65,10.77-3.69l-5.05,1.37c-2.26-.48-1.94-.22.95.78-1.34-.88-1.37-.78-.08.3,1.35,1.32,3.61,2.63,5.43,3.13,2.19.6,4.64.4,6.78-.22.99-.36,1.96-.76,2.91-1.2-3.67.08-4.27.46-1.8,1.13-2.73-2.62-3.48-3.05-2.25-1.28l1.56,2.02c1.53,1.69,3.39,3.08,5.64,3.7,1.88.52,4.25.46,6.11,0,1.11-.43,2.21-.89,3.3-1.37,1.71-.82,1.24-.84-1.43-.05l-5.05-1.37.55.4-3.59-3.59c-1.05-1.69.32.58.54,1.08,1.08,2.43,1.9,4.18,4.02,5.91,3.48,2.84,7.13,2.31,11.28,2.84l-5.05-1.37c2.63,1.16,5.21,2.38,7.88,3.47,1.16.47,2.31.98,3.5,1.34.72.22,3.77,1.3,1.1-.22,2.4,1.37,3.87,3.32,6.72,4.04,3.25.82,5.99-.08,9.12-.66h-5.32c-.82-.13,3.75.83.64-.63,1.05.49,1.89,2.64,2.73,3.46,2.57,2.51,5.93,3.21,9.13,4.53l-4.41-2.57c-1.24-1.11.43.81.71,1.24,1.08,1.63,2.56,3.22,4.27,4.21,2.14,1.25,5.17,1.45,6.99,3.07,2.58,2.3,3.92,4.53,7.64,5.44,1.21.3,3.15.66,4.38.25,1.2-.1.8-.19-1.21-.28.8.61,1.6,1.23,2.41,1.84l-3.59-3.59c-1.2-1.61.03,1.22.29,2.07.57,1.83,1.67,3.7,3.03,5.05s3.41,2.38,5.31,2.89c1.26.3,2.54.41,3.82.35,1.45-.08,1.67-.13.64-.14l-4.41-2.57c1.07.83,2.14,1.66,3.22,2.49l-1.09-1.96c1.02.93,1.24,3.27,2.1,4.57,1.88,2.86,4.92,5.48,7.24,8.02,1.94,2.13,3.86,4.04,5.76,6.19,1.41,1.6,2.85,2.74,4.77,3.6.46.21,3.95,1.89,2.62.94l-4.6-5.98c-.49-1.18-.04.45.02,1.14.12,1.43.29,2.77.73,4.11,1.12,3.41,3.58,5.05,5.9,7.49,1.72,1.81,3,3.9,5.2,5.22s4.18,1.36,6.45,2.18l-4.41-2.57-.78-1.17,1.01,2.39c-.14-3.72-.33-4.37-.54-1.95-.12.62-.19,1.24-.21,1.87-.03,2.51.72,4.53,1.66,6.8s1.85,4.49,3.72,6.3c1.18,1.15,2.55,1.84,4.06,2.44,2.33.93,2.37,1.72.16-.53l-2.57-4.41c-.03-3.18-.2-3.06-.49.36-.21,1.24-.13,2.48.25,3.71.35,1.54.97,2.88,1.84,4.19,1.56,2.37,3.97,4.44,5.06,6.13l-1.37-5.05c.36-1.05.33-.9-.11.44-.3,1.22-.5,2.47-.59,3.73-.04,2.12.6,4.06,1.47,5.96,1.16,2.54,2.65,4.96,3.51,7.58.63,1.89,1.06,3.75,2.15,5.47l1.56,2.02c1.11,1.26,1.08,1.18-.07-.24.36,1.85.65,3.56,1.55,5.26.69,1.3,2.55,3.41,2.78,3.86l-1.37-5.05c.05-1.07,1.01-2.85-.04-1.14-.97,1.58-1.39,3.68-1.42,5.49-.04,1.97.33,3.46.41,5.41.25,5.34,4.38,10.09,10,10,1.43-.02,2.82-.23,4.23-.49.38-.07,2.55-.28,1.22-.3l-5.05-1.37c-1.19-.57.8.82,1.15,1.13,1.22,1.09,2.53,1.93,4.07,2.5,3.35,1.25,6.17,0,8.84-.04l-5.05-1.37c-.77-.46-2.25-2.7-1.24-.76.48.92,1.4,1.99,2.15,2.74,2.03,2.03,4.61,2.88,7.34,3.44,2.35.48,4.63,1.02,7.03.69,1.38-.19,2.18-.46,3.46-.99.58-.22,1.14-.47,1.69-.74,1.23-.55.63-.42-1.82.41l-5.05-1.37.63.48-3.59-3.59c1.2,1.82,1.92,3.84,3.49,5.45,2.43,2.5,5.03,2.8,8.08,3.78-1.12-.36-1.36-.92-.26.21,1.16,1.19,2.66,2.09,4.17,2.74s3.14,1.03,4.78,1.08l1.08-.07c3.39-.35,3.55-.46.46-.33l-4.41-2.57c-1.46-1.3,2.51,3.49,2.28,3.25,1.66,1.76,3.82,3.01,6.17,3.59,1.85.46,2.1.48,3.7,1.31-1.03-1.35-1.06-1.36-.11-.04.67,1.05,1.46,1.99,2.37,2.83,2.1,1.94,4.28,2.29,6.76,3.2-.61-.22,2.13,1.01,2.4,1.42-1.31-1.02-1.51-.85-.62.51.75.99,1.51,1.97,2.27,2.94,1.32,1.32,3.41,2.54,4.98,3.44,1.24,1.68,1.32,1.54.25-.4.13.69.31,1.36.54,2.02.93,2.79,2.58,5.16,5.09,6.76.39.25,4.54,2.01,4.54,2.03-2.57-1.79-2.72-1.49-.46.89.36.55.77,1.05,1.25,1.5,2.98,3.76,5.82,6.43,9.56,9.34-1.02-1.49-1-1.42.09.2.77,1.12,1.58,2.2,2.44,3.25,1.03,1.09,3.41,2.3,3.89,2.72l-2.57-4.41c.09-2.79-.04-3.23-.38-1.3-.2,1.22-.35,2.44-.46,3.67.05,2.49.86,4.87,2.37,6.83s3.51,3.35,5.83,4.06c.64.23,1.3.38,1.97.44,1.34.26,1.41.23.2-.09l-4.6-5.98c2.35,5.64,2.19,10.38,6.73,15.19.87.92,1.71,1.86,2.53,2.83,2.75,3.19-1.2-2.7,1.62,3.06,1.36,2.77,4.29,4.96,5.64,6.49l-2.57-4.41c0-3.13-.15-2.99-.45.41-.2,1.25-.12,2.49.25,3.72.48,2.07,1.53,4.02,2.5,5.9,1.54,2.97,3.25,6.09,5.06,8.89.75.97,1.5,1.94,2.25,2.91,1.6,1.59,1.56.81-.12-2.34.22.06.39,4.23.61,4.96.84,2.72,2.68,5.06,5.09,6.56.73.46,3.15,2.33,1.86.75l-2.57-4.41c.56,2.63.37,8.32,1.15,12.16.69,3.43,2.19,5.09,4.39,7.65-.42-.49.5.68.54.73l1.56,2.02c.91,1.09,1.01,1.22.28.38-.33-1.68-.1,1.24-.02,1.63.27,1.21.56,2.39.75,3.61.37,2.36.37,4.76,1.23,7.07.02.05,1.55,3.27,1.18,2.12-.39-1.21.24,2.06.28,2.52.24,2.3,2.07,5.84,2.41,6.78,1.85,5.07,6.79,8.5,12.3,6.98,4.89-1.34,8.85-7.2,6.98-12.3Z"/>
  </g>
  <path class="cls-1" d="M420.62,262.89c-1.99,1.5-3.31,2.79-4.61,3.89l-2.02,1.56c4.8-.31,6.18-.69,4.14-1.13-.94-.53-3.01-.59-4.09-.6-7.22-.03-9.9,5.69-12.18,11.43l2.57-4.41-.61.71,4.41-2.57c-.43.13-3.36.27-4.79.74-2.15.7-4.35,2.01-6.22,3.29-3.06,2.1-6.33,6.33-8.26,8.18l4.41-2.57c2.94.15,2.74.05-.61-.3l-1.14-.05c-2.5.08-4.98.88-6.95,2.43-3,2.36-3.92,5.53-5.24,8.93l2.57-4.41-.57.72,4.41-2.57c-.89.37-5.1,1.07-7.09,2.22-2.49,1.45-3.95,4.73-5.06,6.09-1.47,1.8-4.02,2.37-5.78,3.83-2.53,2.1-3.1,4.4-4.92,6.87l3.59-3.59c3.01-.74,2.83-.82-.53-.24l-1.02.21c-2.23.68-3.42,1.6-5.22,3.01-2.36,1.85-4.62,3.77-6.59,6.05-3.58,4.15-5.95,10.14-8.25,14.11-6.47,11.15,10.81,21.24,17.27,10.09,2.62-4.51,4.02-9.44,8.22-13.29.4-.41.84-.77,1.33-1.09,1.93-1.34,1.26-1.2-2,.42.92.71,5.07-1.04,6.07-1.57,3.74-2,4.43-5,6.75-8.08l-3.59,3.59c2.71-1.68,5.22-3.12,7.68-5.22.89-.76,1.64-1.45,2.41-2.33l1.56-2.02c.9-1.54.64-1.55-.77-.01l-5.05,1.37c3.86-.49,7.76-.83,10.71-3.69,2.35-2.28,3.08-5.25,4.22-8.15l-2.57,4.41.58-.72-4.41,2.57c-2.95-.17-2.75-.07.6.29,1.28.13,2.54.03,3.8-.3,2.01-.49,3.8-1.43,5.31-2.85,2.18-2.05,3.65-3.61,5.3-5.72.47-.31.96-.6,1.47-.85-1.81.23-1.84.29-.08.19,2.1-.14,4.32-.63,6.15-1.7,3.78-2.21,4.85-6.1,6.37-9.89l-2.57,4.41.62-.7-4.41,2.57c-2.95-.07-3.49.07-1.61.44,1.19.17,2.39.33,3.59.47,1.95-.03,4.12-.6,5.8-1.54,2.36-1.33,5.72-4.71,6.99-5.66,4.31-3.24,6.54-8.64,3.59-13.68-2.48-4.25-9.34-6.85-13.68-3.59h0Z"/>
  <path class="cls-1" d="M358.39,241.69c-.92.82-1.7,1.76-2.37,2.81-.82,1.13-.91,1.27-.27.42,2.19-1.04-2.81,1.1-2.12.79-.9.41-3.09.98-4.41,1.81-1.6,1.01-2.67,2.58-4.14,3.69-2.44,1.86-4.95,3.06-7.06,5.48-1.09,1.25-2.27,2.43-3.07,3.91-.66,1.09-1.07,2.25-1.21,3.5-.59,3.29-.51,3.54.23.75l3.59-3.59-.84.4,5.05-1.37c-6.31.79-9.85,1.83-13.88,7.02-.61.79-1.26,1.55-1.86,2.35-1.47,1.94.52-.01-1.48,1.54-2.28,1.77-4.6,3.37-6.85,5.18-4.21,3.39-3.53,10.61,0,14.14,4.16,4.16,9.92,3.4,14.14,0,2.32-1.87,5.13-3.24,7.31-5.33,1.06-1.02,1.86-2.41,2.75-3.55.76-.98,4.47-3.82,1.59-2.39l-5.05,1.37c5.05-.65,9.78-.89,12.8-5.68.45-.71,3.01-6.03,2.03-6.97-1.57,3.17-1.62,3.73-.15,1.68.44-.5,1.01-.82,1.71-.94,1.88-1.43,3.59-3.01,5.42-4.48-1.57.78-1.58.89-.03.34,1.17-.42,2.3-.93,3.39-1.53,3.74-1.84,6.73-5.07,8.92-7.22,9.22-9.02-4.93-23.15-14.14-14.14h0Z"/>
  <path class="cls-1" d="M315.4,232.71c-.85.68-2.01,1.4-2.69,2.24,1.54-1.9,6.9-2.11,3.39-1.81-3.99.35-6.35,1.49-9.45,3.96-1.84,1.47-3.71,2.81-4.8,4.99-.55,1.11-1.04,2.28-1.26,3.5-.52,2.82-.94,1.57,1.64-1.31-3.5,3.89-4.12,10.36,0,14.14,3.82,3.5,10.41,4.16,14.14,0,1.83-2.03,2.99-4.22,3.42-6.91.05-.4.11-.8.19-1.19-2.31,2.95-2.83,3.9-1.57,2.84.76-.48,1.79-1.25,2.38-1.93-2.03,2.35-6.79,2.11-3.38,1.81,2.29-.2,4.21-.48,6.25-1.6,2.15-1.18,3.97-3.09,5.89-4.61,4.11-3.27,3.67-10.77,0-14.14-4.36-4.01-9.75-3.49-14.14,0h0Z"/>
  <path class="cls-1" d="M868.36,305.7c.75,1.72,1.28,3.45,2.32,5.04.25.38,1.8,2.89,2.44,2.84-.89.07-1.73-5.71-1.27-.35.24,2.76,1.27,5.22,3.23,7.23.83.85,1.8,1.53,2.77,2.21.5.35,1.67,1.52.93.58l-2.57-4.41c-.2-1.2.21,4.57,0,3.58.31,1.48.78,2.83,1.53,4.18.38.69,1.37,3.02.83,1.23.56,1.86.28,3.74.99,5.56,1.06,2.7.56-.82.6.44.06,1.45-.45,2.9-.38,4.38.19,3.84,2.81,6.48,4.03,8.94l-1.37-5.05c.21,2.51-.02,5.01.01,7.51s.75,4.8,1.09,7.25c.4,2.89.18,5.66,1.69,8.33.64,1.13,1.44,2.16,2.39,3.04l2.02,1.56c-.37-.25-.69-.56-.95-.92l-1.37-5.05c.03.47-.14,5.08.67,1.7-.37,1.57-1.54,3.02-1.92,4.67-.91,3.88,1.13,7.04,1.84,9.68,3.31,12.42,22.61,7.15,19.29-5.32-.38-1.42-1.69-3.83-1.84-4.36v5.32c.23-.99,1.45-2.99,1.8-4.56.51-2.3.38-4.78.17-7.12-.27-2.98-1.2-5.57-3.24-7.78-.44-.5-.93-.94-1.49-1.31-2.61-2.09-2.7-2.09-.26,0l1.37,5.05c-.34-4.48-1.1-8.76-1.11-13.2,0-2.3.1-4.92-.52-7.15s-2.98-4.95-3.67-6.28l1.37,5.05c-.42.69-.44.41-.07-.85l.36-2.66c.04-1.77-.42-3.5-.84-5.2-.85-3.49-.88-7.19-2.66-10.41-.32-.69-.73-1.33-1.22-1.93.43,1.6.64,1.85.63.76.81-.89-.53-4.44-1-5.59-.8-1.93-2.08-3.42-3.65-4.72-.39-.33-3.32-2.75-2.41-1.65l2.57,4.41c.15.91-.07-4.21.05-3.66-.37-1.65-.93-3.01-1.86-4.43-.46-.71-4.09-4.13-1.96-1.52-1.04-1.27-1.43-3.62-2.1-5.14-2.15-4.95-9.42-6.08-13.68-3.59-5.12,2.99-5.75,8.71-3.59,13.68h0Z"/>
  <path class="cls-1" d="M846.98,341.15c-.04,3.79-1.3,5.46-1.18,9.41.06,2,.73,4.16,1.75,5.91.7.99,1.46,1.94,2.27,2.83.99.89,1.11,1.04.35.44l-1.37-5.05c-.06,2.41-1.15,6.06-1.24,9.42-.35,12.87,19.65,12.87,20,0,.06-2.19,1.21-5.79,1.23-8.84,0-2.29-.53-4.52-1.73-6.49-.7-.99-1.46-1.94-2.27-2.83-.99-.89-1.11-1.04-.35-.44l1.37,5.05c.12-1.88,1.15-6.57,1.18-9.41.15-12.87-19.85-12.88-20,0h0Z"/>
</svg>