<?xml version="1.0" encoding="UTF-8"?>
<svg id="_レイヤー_2" data-name="レイヤー 2" xmlns="http://www.w3.org/2000/svg" viewBox="0 0 1000 1000">
  <path d="M252.78,369.15c9.01,24.54,21.13,47.94,35.98,69.45,2.41,3.49,6.65,7.35,10.25,5.11,1.49-.93,2.25-2.66,2.92-4.28,18.92-45.9,37.84-91.8,56.76-137.7,0,0,222.99,83.8,333.82,117.42,3.68-4.86,1.64-11.79-.71-17.41-14.76-35.28-36.42-67.66-63.4-94.77,0,0,124.86,79.3,187.08,115.53,0,0,51.57-54.47,74.62-76.74,3.08-2.97,6.33-6.27,6.96-10.5.52-3.49-.86-6.95-2.33-10.16-5.15-11.26-11.74-21.86-19.57-31.46-1.87-2.3-3.94-4.89-3.68-7.84.21-2.42,1.95-4.39,3.65-6.13,10.53-10.79,22.86-19.81,36.34-26.56,5.52-2.77,11.86-5.87,13.47-11.83,1.56-5.78-2.09-11.56-5.71-16.33-11.42-15.06-24.31-29.01-38.43-41.58-4.72-4.21-9.84-8.65-11.44-14.77-2.48-9.45,4.24-18.62,10.54-26.1,24.42-28.99,48.84-57.97,73.26-86.96-17.21-4.7-35.34-4.41-53.17-4.09-83.7,1.5-167.41,3-251.08,5.71-157.73,5.1-319.51,15.47-463.33,80.45-4.57,2.07-9.33,4.35-12.24,8.44-2.69,3.78-3.43,8.56-4.05,13.16-11.18,82.78-10.22,167.19,2.86,249.69,0,0,79.2-43.58,80.61-39.76Z"/>
  <path d="M243.14,371.81c5.77,15.57,12.57,30.77,20.59,45.32,4.02,7.29,8.32,14.41,12.91,21.35,4.48,6.77,9.64,14.96,18.58,15.72,10.57.9,14.47-7.52,17.87-15.78,3.53-8.57,7.06-17.14,10.6-25.7,6.94-16.83,13.88-33.66,20.81-50.49,7.95-19.28,15.89-38.56,23.84-57.83-4.1,2.33-8.2,4.66-12.3,6.98,27.37,10.28,54.8,20.39,82.26,30.43,54.96,20.1,110.03,39.9,165.4,58.84,28.59,9.77,57.25,19.37,86.16,28.15,4.36,1.32,8.94-.92,11.29-4.6,7.32-11.44.82-24.43-4.13-35.36-4.95-10.92-10.56-21.53-16.79-31.78-12.59-20.71-27.71-39.94-44.76-57.17l-12.12,15.71c46.01,29.22,92.22,58.16,138.74,86.56,16.03,9.79,32.11,19.51,48.34,28.97,3.75,2.18,9.08,1.65,12.12-1.56,11.63-12.28,23.33-24.5,35.08-36.67,9.23-9.56,18.5-19.1,27.87-28.52,9.91-9.95,24.62-20.16,20.97-36.11-2.08-9.11-7.84-18.26-12.83-26.07-2.38-3.73-4.95-7.33-7.64-10.84-1.21-1.58-2.58-3.79-4.05-5.17l-.4-.64c-.82-1.59-1-.73-.55,2.59.1.02,1.49-1.7,1.81-2.02,6.32-6.44,13.3-12.15,20.88-17.04,7.13-4.61,15.31-7.69,22.04-12.84,7.7-5.89,11.44-15.12,8.49-24.65-2.88-9.29-10.36-17.14-16.47-24.45-6.26-7.49-12.88-14.66-19.86-21.48-3.46-3.39-7.02-6.66-10.62-9.89-2.74-2.45-6.37-5.11-7.84-8.6-3.11-7.39,6.52-16.39,10.75-21.4,7.71-9.15,15.42-18.31,23.14-27.46,15.64-18.56,31.28-37.12,46.91-55.68,4.68-5.56,3.35-14.67-4.41-16.71-17.03-4.47-34.64-4.79-52.14-4.51-18.5.3-37.01.66-55.51,1-37.2.69-74.4,1.43-111.6,2.32-70.02,1.68-140.12,3.39-210.01,8.28-67.61,4.74-135.26,12.69-201.38,27.89-32.67,7.51-64.94,16.82-96.41,28.37-16.03,5.88-31.86,12.33-47.42,19.35-7.06,3.19-14.12,7.23-17.83,14.37-3.81,7.35-4.23,15.87-5.24,23.94-9.06,71.96-8.95,145.06.28,216.99,1.18,9.24,2.49,18.46,3.94,27.66,1.04,6.63,9.59,8.78,14.69,5.98,21.96-12.08,44.03-24.21,66.74-34.84,1.58-.74,3.17-1.46,4.77-2.17,1.23-.55,1.84-.72.08-.05.57-.22,1.12-.47,1.69-.68.89-.33,1.83-.58,2.7-.93.08-.03.98-.21.98-.24,0,.03-2.48.29-2.12.29,3.51-.01-5.73-.88-7.91-4.72,6.35,11.19,23.64,1.13,17.27-10.09-3.93-6.92-11.66-5.45-17.67-3.01-7.12,2.89-14.03,6.27-20.9,9.7-15.13,7.57-30.05,15.54-44.93,23.6-3.6,1.95-7.21,3.91-10.8,5.88l14.69,5.98c-10.88-69.15-13.04-139.69-6.74-209.4.82-9.03,1.77-18.04,2.87-27.04.66-5.43.25-14.82,4.43-18.94,4.62-4.54,13.17-6.85,19-9.36,7.2-3.1,14.48-6.03,21.79-8.85,30.44-11.74,61.69-21.33,93.36-29.15,63.24-15.61,127.97-24.12,192.83-29.23,67.63-5.33,135.51-7.21,203.31-8.97,35.87-.93,71.74-1.7,107.61-2.39,18.27-.35,36.54-.69,54.8-1.02,17.21-.31,34.54-1.2,51.73-.28,8.05.43,15.89,1.52,23.69,3.57-1.47-5.57-2.94-11.14-4.41-16.71-13.71,16.27-27.42,32.55-41.13,48.82-6.86,8.14-13.71,16.27-20.57,24.41s-13.71,15.25-19.21,23.74c-5.17,7.97-8.21,17.99-4.99,27.31,3.26,9.44,11.24,15.44,18.27,21.99s13.95,13.65,20.39,20.98c3.02,3.43,5.96,6.94,8.81,10.51,2.39,3,6.79,7.25,7.46,11.11.73,4.24-9.4,7.42-12.56,9.14-8.4,4.56-16.25,10.05-23.63,16.12-6.71,5.52-16.26,12.6-17.28,21.87-1.11,10.02,7.63,17.24,12.77,24.87,2.47,3.67,4.78,7.44,6.91,11.32,1.8,3.29,5.73,8.55,5.75,12.46s-7.12,8.54-9.71,11.1c-8.92,8.83-17.69,17.82-26.44,26.82-14.27,14.7-28.45,29.5-42.53,44.38,4.04-.52,8.08-1.04,12.12-1.56-57.78-33.67-114.32-69.55-170.85-105.26-5.41-3.42-10.83-6.84-16.23-10.27-9.7-6.16-20.02,7.72-12.12,15.71,14.69,14.85,27.76,31.1,38.92,48.75,5.49,8.68,10.53,17.65,15.09,26.86,2.34,4.72,4.61,9.5,6.65,14.36,1.21,2.88,3.71,7.23,1.88,10.09l11.29-4.6c-54.33-16.5-107.95-35.43-161.44-54.45-47.93-17.04-95.72-34.47-143.41-52.17-9.66-3.59-19.33-7.18-28.97-10.8-5.49-2.06-10.4,2.37-12.3,6.98-9.71,23.56-19.43,47.12-29.14,70.69-4.79,11.63-9.59,23.26-14.38,34.88l-7.19,17.44c-1.26,3.06-2.52,6.12-3.78,9.18-.5,1.22-.97,2.47-1.51,3.67-.16.44-.35.86-.59,1.26-.51.98-.42.78.29-.59l5.05-1.37c1.06-.11,1.01,1.29-.11-.4-.72-1.08-1.57-2.15-2.29-3.23-1.99-2.96-3.93-5.95-5.82-8.97-3.62-5.8-7.05-11.71-10.27-17.73-6.48-12.08-12.11-24.56-16.87-37.41-1.88-5.06-6.77-8.5-12.3-6.98-4.87,1.34-8.87,7.21-6.98,12.3Z"/>
</svg>