<?xml version="1.0" encoding="UTF-8"?>
<svg id="_レイヤー_2" data-name="レイヤー 2" xmlns="http://www.w3.org/2000/svg" viewBox="0 0 1000 1000">
  <defs>
    <style>
      .cls-1 {
        fill: #fff;
      }
    </style>
  </defs>
  <g>
    <path d="M408.69,46.77c-1.47.32-2.92.69-4.38,1.04s-2.81,1.12-4.27,1.49-2.74,1.35-4.18,1.74-3.62-1.77-5.06-1.36-1.96,3.93-3.4,4.37-3.63-1.56-5.06-1.1-2.58,1.79-4,2.27-3.39-.57-4.81-.06-1.86,3.66-3.26,4.19-3.85-1.63-5.25-1.08-1.51,4.29-2.9,4.86-2.77,1.1-4.15,1.69-3.71-1.01-5.08-.4-3.24.18-4.6.81-2.21,2.39-3.56,3.04-2.87.99-4.22,1.66-2.74,1.28-4.07,1.97-2.82,1.12-4.14,1.83-1.94,2.73-3.25,3.46-2.42,1.82-3.72,2.57-3.36.21-4.65.97-1.39,3.52-2.67,4.3-2.62,1.44-3.89,2.24-2.71,1.31-3.97,2.12-2.42,1.76-3.67,2.6-2.98.94-4.22,1.79-2.31,1.93-3.53,2.8-3.62.12-4.83,1-1.54,3-2.74,3.9-3.41.49-4.6,1.41-.1,4.75-1.28,5.68-3.64.24-4.8,1.19-3.2.85-4.36,1.81-1.37,3.06-2.51,4.03-1.43,2.92-2.56,3.91-3.99.03-5.11,1.03-1.07,3.3-2.17,4.32-1.23,3.07-2.32,4.1-2.42,1.79-3.5,2.83-2.16,2.06-3.23,3.11-3.04,1.2-4.1,2.27-2.69,1.58-3.73,2.66-1.07,3.12-2.1,4.22-2.56,1.72-3.57,2.83-2.96,1.38-3.96,2.5-1.85,2.39-2.84,3.52-1.3,2.86-2.27,4-2.78,1.6-3.74,2.76-2.03,2.24-2.98,3.41-1.74,2.47-2.68,3.65-.06,3.77-.98,4.96-4.01.72-4.92,1.92.98,4.48.09,5.69-3.61,1.08-4.49,2.3-2.13,2.18-2.99,3.41-2.31,2.07-3.16,3.31,1.42,4.58.59,5.83-2.34,2.03-3.16,3.29-3.33,1.43-4.13,2.7-1.44,2.65-2.23,3.93-2.26,2.16-3.03,3.44c-.77,1.29-.21,3.38-.97,4.68s-.76,3.02-1.5,4.33-2.67,1.95-3.39,3.27.33,3.58-.38,4.91-2.6,2.02-3.28,3.36-1.19,2.76-1.86,4.11-.28,3.19-.93,4.55-.86,2.89-1.49,4.25-1.23,2.71-1.83,4.08-1.35,2.66-1.94,4.04-1.9,2.44-2.46,3.84-2.72,2.16-3.26,3.56-.82,2.91-1.34,4.32.65,3.41.16,4.83-.91,2.84-1.37,4.27-2.83,2.25-3.27,3.69-.54,2.98-.95,4.43-1.23,2.79-1.61,4.24.87,3.32.51,4.78-.55,2.94-.87,4.4-2.65,2.51-2.95,3.99,1.57,3.35,1.31,4.83-.22,2.98-.45,4.47-2.75,2.63-2.94,4.12.53,3.1.37,4.59-.56,2.97-.69,4.46.6,3.05.51,4.55.86,3.02.8,4.52-3.07,2.93-3.08,4.43,2.9,3,2.92,4.5-.51,2.99-.45,4.49-2.4,3.14-2.3,4.64,1.61,2.91,1.75,4.4-.67,3.11-.5,4.6-.34,3.11-.13,4.6.58,3,.83,4.48,4,2.31,4.29,3.79-2.41,3.58-2.08,5.04,2.58,2.47,2.95,3.93-.86,3.35-.45,4.8,3.67,2.01,4.12,3.44.45,2.96.95,4.38.08,3.14.62,4.54,1.48,2.62,2.06,4.01.56,3.02,1.18,4.38,1.31,2.69,1.98,4.04-.5,3.67.21,5,2.47,2.11,3.23,3.41,3.57,1.34,4.36,2.61-.76,4.07.08,5.32,1.12,2.95,2,4.16,3.62,2.69,4.55,3.87c2.25-.42-1.08-3.75.26-6.32.6-1.15,4.41-.9,5.22-2.44.65-1.25-1.76-4.25-1-5.7.68-1.28,3.35-1.61,4.1-3.02.69-1.3,1.04-2.85,1.78-4.24.7-1.32,2.94-1.85,3.68-3.23s1.39-2.69,2.13-4.05.92-2.96,1.65-4.32-.62-3.82.11-5.17,2.99-1.86,3.73-3.19,1.38-2.76,2.12-4.08,1.65-2.61,2.39-3.92,1.71-2.59,2.46-3.87c.79-1.37-.06-3.65.69-4.91.82-1.38,1.63-2.71,2.38-3.93.79-1.28,2.85-1.78,3.65-3.05s.6-3.19,1.41-4.46,2.85-1.74,3.68-3,2.87-1.7,3.7-2.95.25-3.46,1.1-4.7.47-3.34,1.34-4.57,1.57-2.59,2.45-3.82,1.84-2.4,2.72-3.62,2.21-2.13,3.1-3.34,1.18-2.89,2.09-4.09,2.48-1.91,3.39-3.1,3.45-1.13,4.38-2.32.65-3.31,1.59-4.49,2.68-1.71,3.63-2.88,1.06-3.02,2.02-4.18,1.53-2.65,2.49-3.81,1.81-2.42,2.79-3.57,2.01-2.25,3-3.39,1.89-2.35,2.89-3.48,3.07-1.31,4.07-2.44,2-2.24,3.01-3.36.37-3.73,1.38-4.85,4.69.21,5.71-.89.48-3.65,1.51-4.75,3.07-1.24,4.1-2.34.32-3.86,1.36-4.95,2.96-1.33,4.01-2.41,1.94-2.32,2.99-3.39,1.11-3.15,2.17-4.21,2.06-2.22,3.12-3.28,4.55.32,5.62-.74.48-3.81,1.56-4.86,3.45-.77,4.53-1.81.63-3.7,1.72-4.74,2.4-1.85,3.49-2.89,2.71-1.51,3.81-2.54,1.76-2.53,2.87-3.55,1.92-2.37,3.02-3.39,2.94-1.25,4.05-2.27,2.33-1.91,3.45-2.92,1.35-3.01,2.47-4.01,3.29-.91,4.41-1.91c-.06,2.29.96,2.65.36,4.86s-1.64,1.92-2.25,4.12-.66,2.19-1.27,4.39-.38,2.27-.99,4.47-2.34,1.73-2.95,3.93-.8,2.15-1.41,4.36,1.22,2.71.61,4.91-3.19,1.49-3.8,3.7,2.58,3.08,1.97,5.29-2.17,1.78-2.78,3.98-.63,2.2-1.24,4.4,1.18,2.7.58,4.9-1.69,1.91-2.29,4.11-2.72,1.62-3.32,3.83,1.97,2.92,1.36,5.12-2.65,1.64-3.26,3.85,1.97,2.92,1.36,5.12-1.45,1.97-2.06,4.18.11,2.4-.5,4.61-1.35,2-1.96,4.21-2.78,1.61-3.39,3.82.87,2.62.27,4.83-1.76,2.19-1.68,4.48c1.35-.64,4.13.42,5.48-.22s1.64-3.48,2.98-4.13,3.64.62,4.98-.04,2.46-1.78,3.79-2.46,1.74-3.16,3.07-3.84,2.53-1.59,3.85-2.28,3.42.08,4.73-.62,2.94-.85,4.25-1.57,2.52-1.63,3.82-2.35,1.95-2.65,3.25-3.37,2.12-2.31,3.42-3.05,4.24,1.4,5.53.66,1.68-3.07,2.97-3.82,3.11-.6,4.4-1.36,2.07-2.36,3.36-3.13,2.59-1.48,3.87-2.25,3.47-.05,4.74-.82.47-4.93,1.74-5.72,3.82.51,5.09-.28,2.04-2.36,3.3-3.16,2.35-1.87,3.61-2.67,3.59.07,4.84-.74,2.87-1.06,4.13-1.87,2.57-1.54,3.82-2.36.89-4.09,2.14-4.91,2.69-1.34,3.93-2.17,3.74.22,4.98-.61,2.56-1.55,3.8-2.39.48-4.61,1.72-5.45,2.72-1.3,3.95-2.14,3.55-.1,4.78-.94,3.22-.6,4.44-1.45,2.36-1.84,3.59-2.69,2.26-1.98,3.49-2.83,1.53-3.03,2.75-3.89,3.47-.25,4.69-1.11,1.29-3.36,2.51-4.22,2.35-1.84,3.57-2.7,2.24-2,3.46-2.87,3.34-.46,4.55-1.33.9-3.87,2.12-4.74,2.51-1.63,3.72-2.5,3.72.07,4.93-.8,2.67-1.4,3.88-2.27,1.93-2.43,3.14-3.31,1.7-2.74,2.91-3.61,3.94.36,5.15-.51.75-1.85,1.96-2.72c-.61,1.4,1.22,2.46.62,3.86s-1.74,2.56-2.34,3.96-1.06,2.85-1.65,4.26-3.47,1.85-4.05,3.26-1.04,2.87-1.62,4.28.29,3.41-.28,4.82-.74,2.98-1.31,4.4-.29,3.16-.85,4.57-3.65,1.83-4.2,3.25,1.59,3.89,1.04,5.31-2.49,2.3-3.03,3.72-.75,2.97-1.29,4.39-.18,3.18-.71,4.61-1.4,2.72-1.92,4.15-2.83,2.2-3.35,3.63-1.94,2.54-2.46,3.97.58,3.45.07,4.88-2.42,2.37-2.92,3.81-1.61,2.67-2.11,4.11,1.1,3.61.61,5.05-3.21,2.12-3.7,3.57,1.07,3.58.59,5.02-.65,2.99-1.13,4.44-1.97,2.56-2.45,4-.67,3.25-1.14,4.7c1.49-.24,2.89-2.43,4.36-2.7s3.62,2.91,5.09,2.62,3-.54,4.47-.85,2.99-.63,4.44-.97,2.37-3.07,3.82-3.43,2.93-.69,4.37-1.08,3.06-.27,4.49-.69,2.45-2.28,3.88-2.73,3.33.54,4.75.06,2.98-.64,4.39-1.14,2.87-.96,4.27-1.49,2.35-2.29,3.74-2.84,2.47-1.87,3.85-2.45,2.62-1.46,3.99-2.07,2.79-1.06,4.15-1.69,3.52.42,4.87-.23,2.18-2.37,3.51-3.05,3.92.99,5.24.28,1.1-4.3,2.41-5.02,4.19,1.28,5.49.53.98-4.26,2.27-5.03,4.03.8,5.3,0,2.75-1.34,4-2.16,2.59-1.61,3.82-2.45,1.61-3,2.83-3.86,1.63-2.88,2.84-3.76,2.12-2.15,3.32-3.06,2.54-1.6,3.72-2.52,4.03.21,5.19-.74.86-3.69,2-4.65,1.83-2.47,2.95-3.45,4.26.26,5.37-.74,1.93-2.38,3.02-3.4.98-3.35,2.05-4.39,1.77-2.48,2.82-3.53,2.6-1.65,3.64-2.72,2.48-1.8,3.5-2.88,1.38-2.82,2.39-3.92,2.85-1.49,3.83-2.61,1.27-2.89,2.23-4.02,3.86-.72,4.8-1.86-.52-4.32.41-5.48,3.56-1.05,4.46-2.22.78-3.22,1.66-4.4,2.99-1.57,3.85-2.76c.91-1.25,1.99-2.34,2.83-3.54.89-1.27-.15-3.8.66-5.01.87-1.29,1.55-2.61,2.33-3.82.86-1.32,2.78-1.86,3.54-3.07.85-1.36,1.95-2.44,2.67-3.65.84-1.41.59-3.28,1.26-4.46.86-1.51,3.28-1.89,3.87-3,1.38-2.57-.96-2.73,1.27-2.48s-.68.04.03,2.85c.31,1.22,3.59,1.94,4.02,3.61.34,1.32-2.33,3.57-1.91,5.14.36,1.36,2.25,2.42,2.65,3.95.37,1.38.26,2.96.67,4.47.38,1.39,1.14,2.74,1.55,4.24.38,1.4,1.24,2.72,1.65,4.21s.97,2.8,1.38,4.28.54,2.93.96,4.4-.04,3.1.38,4.57,3.08,2.21,3.51,3.67-.14,3.14.29,4.59.66,2.91,1.09,4.36.59,2.94,1.03,4.38,1.37,2.7,1.81,4.14,1.56,2.64,2.01,4.08-.82,3.39-.37,4.82-.41,3.27.05,4.7,3.05,2.16,3.52,3.59,1.28,2.73,1.75,4.16.14,3.11.62,4.53,1.43,2.68,1.91,4.1.28,3.08.77,4.49,1.95,2.5,2.45,3.91,1.88,2.51,2.39,3.92-1.42,3.72-.9,5.12.67,2.97,1.2,4.37.24,3.15.78,4.54,1.39,2.71,1.95,4.09,3.06,2.02,3.62,3.4,2.1,2.38,2.68,3.75-.04,3.29.56,4.65-.01,3.32.6,4.67,4.05,1.45,4.68,2.78,1.37,2.66,2.03,3.98-.35,3.55.33,4.85.49,3.19,1.2,4.47,2.27,2.21,3.02,3.53,2.97,1.77,3.74,3.08-1.25,4.29-.46,5.58,4.65.7,5.45,1.98-.86,4.14-.04,5.41,1.06,2.96,1.9,4.22,2.64,1.9,3.5,3.15,3.57,1.2,4.45,2.44,1.17,2.87,2.07,4.1.78,3.19,1.7,4.41,3.51,1.13,4.44,2.33,1.2,2.89,2.15,4.07.67,3.36,1.64,4.53,1.72,2.54,2.7,3.69,3.76.75,4.77,1.89.33,3.77,1.35,4.9,2.43,1.9,3.47,3.01,1.79,2.5,2.85,3.59,3.56.74,4.64,1.81,1.87,2.4,2.97,3.45.68,3.71,1.8,4.74,3.67.48,4.8,1.49.77,3.75,1.92,4.74,2.22,2.13,3.39,3.09,3.38.68,4.57,1.62,2.17,2.16,3.38,3.08,3.87-.14,5.1.76,2.24,2.02,3.48,2.89,1.01,3.89,2.27,4.73,4.01-.6,5.29.22,1.63,3.08,2.93,3.87,1.87,2.83,3.18,3.59,2.88,1.13,4.21,1.86,3.89-.85,5.24-.15,1.13,4.49,2.49,5.16,3.77-.82,5.15-.17,2.13.37,3.52.97c2.15-.64-.11-.73,1.33-3.26.62-1.08,3.21-1.35,4.01-2.89.62-1.2-.77-3.54-.07-5.01.6-1.26,4.36-1.18,5-2.64.57-1.3-1.23-3.69-.65-5.14.54-1.33,1.97-2.36,2.51-3.82.5-1.35.39-2.97.89-4.43.47-1.37,3.34-2.01,3.8-3.48.44-1.39-.19-3.17.23-4.64s-1.46-3.46-1.07-4.93,2.25-2.46,2.61-3.94,2.55-2.47,2.87-3.96.32-2.99.61-4.49-2.25-3.42-2-4.92,3.45-2.46,3.67-3.96-3.1-3.42-2.91-4.92,1.41-2.8,1.57-4.3-.86-3.04-.73-4.54.19-2.92.28-4.43,1.38-2.87,1.45-4.38-1.14-2.99-1.11-4.5,2.8-2.91,2.81-4.42-1.2-2.97-1.22-4.48,1.05-2.99,1-4.5.62-3.02.54-4.52-.81-2.95-.91-4.45-2.79-2.76-2.92-4.26,2.76-3.24,2.6-4.74-.32-2.97-.5-4.47-.93-2.89-1.14-4.38-2.46-2.64-2.69-4.13-.98-2.83-1.23-4.31.39-3.07.11-4.55-.18-2.98-.48-4.46.79-3.21.47-4.68-.94-2.85-1.29-4.31-2.84-2.36-3.2-3.82.8-3.27.41-4.73-1.76-2.59-2.17-4.04.54-3.25.11-4.7-.72-2.9-1.17-4.33.37-3.26-.1-4.69-3.1-2.1-3.59-3.53-1.82-2.5-2.32-3.92,1.87-3.85,1.34-5.26-1.29-2.72-1.83-4.12-.94-2.85-1.5-4.25-3.29-1.88-3.87-3.27,0-3.23-.6-4.62-.92-2.86-1.53-4.23-1.61-2.55-2.24-3.92-1.42-2.63-2.07-3.99-.19-3.22-.85-4.58-2.91-1.9-3.58-3.24.12-3.41-.56-4.75-1.5-2.6-2.2-3.93-3.06-1.77-3.8-3.08-.92-2.93-1.7-4.23-2.3-2.11-3.1-3.38-1.51-2.58-2.35-3.84-1.78-2.4-2.65-3.64.37-3.98-.53-5.19-3.51-1.15-4.43-2.34-2.84-1.57-3.78-2.75-1.39-2.71-2.36-3.87-2.21-2.04-3.2-3.18-1.43-2.73-2.43-3.85-1.17-3-2.19-4.11-2.95-1.35-3.99-2.44-1.09-3.13-2.15-4.21-2.2-2.07-3.27-3.13-2.12-2.15-3.2-3.2-1.28-3.03-2.37-4.07-2.99-1.24-4.09-2.26-2.1-2.18-3.21-3.19-2.33-1.92-3.45-2.92-3.9-.14-5.03-1.13c-1.14-1.01-1.31-3.12-2.47-4.12s-2.55-1.69-3.73-2.67-.65-4.06-1.84-5.01-4.71,1.06-5.92.13-1.84-2.59-3.07-3.49-1.24-3.52-2.5-4.39-2.47-1.86-3.74-2.7-3.97.53-5.26-.27-1.65-3.17-2.97-3.94-2.55-1.75-3.89-2.47-3.22-.45-4.59-1.12-2.77-1.26-4.16-1.89-2.77-1.26-4.19-1.83-3.06-.46-4.5-.97-2.31-2.76-3.77-3.2-3.65,1.8-5.13,1.43-2.88-1.7-4.38-2.01c-2.04-.94-1.12-1.41-3.51-3.1-1.02-.73-2.27-1.55-3.71-2.53-1.12-.76-1.28-3.25-2.64-4.15-1.17-.77-3.31-.24-4.66-1.09-1.2-.76-1.46-3.2-2.8-4.03-1.23-.76-2.54-1.53-3.88-2.33-1.24-.74-2.96-.82-4.3-1.6-1.26-.73-3.34-.12-4.68-.88s-2.24-2.06-3.58-2.8-2.3-1.98-3.65-2.7-3.55.39-4.91-.31-2.24-2.13-3.6-2.81-2.26-2.13-3.63-2.8-3.76.96-5.13.31-2.46-1.72-3.84-2.35-1.64-3.59-3.03-4.21-2.86-.94-4.25-1.54-2.35-2.14-3.75-2.72-3.39.37-4.8-.2-2.92-.73-4.33-1.28-2.36-2.2-3.77-2.73-2.59-1.65-4.01-2.17-3.03-.46-4.45-.96-2.84-.96-4.28-1.44-2.68-1.48-4.11-1.95-3.24.29-4.68-.16-3.13.02-4.57-.41-2.74-1.28-4.19-1.69-2.57-1.94-4.03-2.33-2.94-.62-4.4-1-3.18.37-4.64.02-3.13.31-4.6-.02-2.24-3.77-3.71-4.08-3.18.54-4.66.24-3.21.86-4.69.58-2.98-.26-4.46-.52-2.64-2.35-4.13-2.59-2.84-1.33-4.33-1.54-3.45,3.12-4.94,2.93-2.56-3.69-4.06-3.86-3.14,1.08-4.64.93-3.16,1.74-4.66,1.61-2.93-.66-4.43-.77-2.82-2.73-4.32-2.81-3.08,1.51-4.58,1.44-2.93-1.95-4.44-1.99-3.01-.12-4.52-.14-3.01.21-4.52.21-2.96,2.9-4.46,2.92-3.04-2.41-4.55-2.36-2.92,1.73-4.43,1.8-2.94.65-4.44.75-3.03-.66-4.53-.55-3,0-4.5.14-3.17-1.54-4.67-1.38-2.93.9-4.42,1.09-2.83,1.46-4.32,1.67-3.02.07-4.5.3-2.78,1.51-4.27,1.77-3.17-.75-4.65-.47-2.63,2.11-4.11,2.41-3.18-.59-4.65-.27Z"/>
    <path d="M406.03,37.13c-2.72.62-5.32,1.33-7.93,2.29-.91.34-3.99.94-4.51,1.77,4.57.76,5.58.68,3.05-.24-.73-.33-1.48-.63-2.24-.9-3.14-.84-6.59-.3-9.3,1.43-2.86,1.82-3.86,4.45-5.68,7.07l3.59-3.59-.65.45,5.05-1.37c1.49-.02-.31-.39-.94-.6-1.3-.41-2.76-.54-4.12-.5-3.49.09-6.09,2.1-9.05,3.64l5.05-1.37c-3.69.4-6.57-.63-10.17,1.53-3.04,1.82-4.03,4.42-5.9,7.09l3.59-3.59-.63.46,5.05-1.37c1.9-.08-4.56-1.14-4.3-1.13-2.07-.06-4.19.36-5.99,1.41-1.61.94-3.21,2.52-4.19,4.1-.59,1.04-1.08,2.12-1.47,3.25-.71,1.73-.46,1.42.74-.93l4.41-2.57c-1.64.66-3.31,1.57-5.07,1.82h5.32c-3.48-.61-6.38-.93-9.92-.42-2.63.38-4.69.65-7.01,2.05-.71.43-4.81,4.17-2.1,2.28-2.56,1.79-6.77,2.95-9.67,4.26-2.13.96-3.98,1.6-5.78,3.21-1.01.74-1.82,1.66-2.45,2.76-.86,1.16-.99,1.32-.4.47.69-.88.4-.75-.86.4,1.88-.1,1.96-.07.23.07-2.38.42-3.99.48-6.14,1.73s-3.63,3.13-4.72,5.21l-1.01,2.39c2.36-2.61,2.51-3.21.45-1.82-3.28,1.08-5.97,3.86-8.93,5.48-1.32.72-2.9,1.02-4.22,1.79-2,1.16-3.73,2.94-5.56,4.37l4.41-2.57c-1.88.68-5.8.94-8.24,2.79-1.23.94-2.63,2.26-3.35,3.66-1.33,2.59,3.39-1.06.46-.63s-6.04,3.18-7.41,5.63c-1.04,1.86-1.4,3.75-1.55,5.86-.17,2.53-1.25,2.08.65-.73l5.98-4.6c-3.22,1.32-7.91,1.76-11.55,4-2.23,1.37-3.51,3.44-4.85,5.6.44-.7-1.21,1.92-1.19,1.89-.45.46-.8.97-1.06,1.55-.64,1.05-.25.81,1.17-.7l5.05-1.37c-5.16.51-9.75.83-12.89,5.59-.84,1.27-1.83,3.68-2.17,4.32-.28.53-2.84,4.26-1.09,2.37-5.38,5.77-14.68,7.93-17.42,15.95-.76,1.84-.53,1.55.69-.87-1.1.8-2.16,1.64-3.17,2.55.17-.66-.18-.58-1.04.23-.98.75-1.96,1.51-2.92,2.27-1.02,1.04-1.94,2.38-2.84,3.52-.09.11-4.67,6.7-2.12,3.81-1.32,1.5-3.45,2.54-4.87,4.08-1.61,1.73-3.05,3.6-4.46,5.5-2.73,3.68-3.29,7.13-3.75,11.59l1.37-5.05-.36.86,3.59-3.59c.91-.27.69-.25-.67.06-1.21.29-2.37.73-3.48,1.31-1.74.97-3.35,2.41-4.36,4.13s-1.56,3.89-1.61,5.8c.06,1.22.2,2.44.42,3.64.3,1.92.39,1.46.27-1.37l2.57-4.41-.72.59,4.41-2.57c-2.64,1.05-5.29,1.74-7.46,3.69-1.91,1.71-3.52,3.79-5.29,5.66-2.25,2.36-4.12,4.72-4.51,8.05-.19,1.61-.12,3.23.26,4.82.56,2.37-.33,2.64.69-.97l2.57-4.41c-.88.99-2.11,2.49-3.16,3.29,1.43-1.08-1.4.47-1.44.49-2.93,1.79-3.92,4.44-5.8,7.09s-4.22,4.65-5.08,8-.76,4.48-2.1,7.91l2.57-4.41c-1.63,1.93-3.62,3.01-4.96,5.29s-1.09,5.96-1.39,7.3l2.57-4.41c-2.88,3.61-5.41,6.17-7.21,10.68-1.44,3.61-1.8,7.4-3.44,11.01-3.75,8.23-11.42,13.92-10.6,23.97.08.66.17,1.31.28,1.96.16.88.13.84-.09-.11,1.03-2.14-1.97,2.35-.19-.06,1.23-1.66-.44,0-.76.29-.84.76-1.6,1.81-2.17,2.78-1.21,2.07-1.44,4.22-2.02,6.48-.67,2.61-2.04,4.86-2.13,7.64-.04,1.26.03,2.58.33,3.81.6,2.52-.03-.18.23-.23-.3.05-.61,2.59.92.14-.34.54-1.04,1.04-1.47,1.53-4.64,5.35-3.28,10.74-.78,16.62l-1.37-5.05c.21,1.86-.12,3.77-.32,5.64l1.37-5.05c.48-1.1-.31.37-.67.84-1.25,1.59-2.28,2.9-2.92,4.82-.46,1.4-.73,2.78-.69,4.28.01.49.48,4.77.48,2.66,0,2.9-.9,5.52-.55,8.47s1,5.92,1.4,8.89v-5.32l-.25.74,2.57-4.41c-2.4,3.08-5.07,5.29-5.59,9.43-.64,5.13,2.37,8.31,5.35,12l-2.57-4.41c0-2.32-.13-1.91-.4,1.23.76-1.98.67-2.24-.25-.76-1.46,1.54-2.15,4.84-2.15,6.9,0,1.94.71,4.47,1.66,6.16.85,1.87.85,1.42.03-1.34-.26,1.38-.4,2.78-.44,4.18-.28,3.82-.09,8.03,1.06,11.74.68,2.19,1.8,4,3.48,5.55.88.77,1.82,1.47,2.82,2.07,1.57,1.02,1.24.54-1-1.45l-1.37-5.05-.08.78,1.37-5.05c-1.51,3.15-3.45,5.55-3.37,9.31.04,2.02.74,4.13,1.76,5.88-.17-.28,3.41,4.77,2.56,3.1l-1.37-5.05c.07,2.73-.98,6.6,1.13,10.17,1.78,3.02,4.45,4.1,7.07,6.05l-3.59-3.59c-.53-.79.3,2.68.35,3.04.46,3.02,1.21,5.06,2.3,7.89.48,1.24.67,1.97,1.13,3.21.73,1.96,2.45,4.48,2.77,6.52-.48-3.1-.52,2.67-.13,3.95.6,1.98,1.87,3.82,3.27,5.32,1,1.07,2.13,2.14,3.2,3.15.46.43,7.9,5.85,3.7,1.96l-2.57-4.41c0-2.93-.15-2.73-.44.61-.19,1.27-.1,2.54.26,3.79.41,1.72,1.29,3.33,2.04,4.92,1.84,3.92,4.42,5.53,7.34,8.44,3.36,3.35,8.05,3.5,12.12,1.56,3.15-1.5,5.14-4.72,5.58-8.11.22-1.71.15-2.88-.26-4.69l-.25-.85c-.43-1.7-.5-1.24-.21,1.35l-2.57,4.41.44-.42-4.41,2.57c3.76-1.57,7.39-2,9.98-5.61,3.39-4.72,1.68-8.6.65-13.58v5.32l.15-.84-2.57,4.41c-1.14,1.25,1.04-.47,1.43-.72,1.66-1.08,3.19-2.61,4.24-4.32.56-1.24,1.1-2.5,1.61-3.76l-1.59,1.51c.84-1.52,3.48-2.6,4.66-4.21,2.11-2.89,3.47-6.28,4.74-9.61.57-1.49,1.05-2.82,1.23-4.42.2-.8.23-1.61.1-2.42-.32-3.38-.45-3.55-.39-.5l-2.57,4.41c2.09-2.33,4.62-3.92,6.35-7.26,1.54-2.96,3.44-5.66,5.11-8.55.89-1.54,1.73-3.07,2.14-4.83.25-1.1.37-2.21.37-3.32.05-1.09-.02-.89-.21.61,1.15-1.56,1.09-1.73-.2-.51l1.03-.69c1.66-1.17,3.34-2.63,4.39-4.42.49-1.15.97-2.3,1.45-3.45.55-1.58.29-1.59-.77-.05-1.39,1.33-1.38,1.48,0,.45.9-.55,1.71-1.21,2.43-1.97,2.37-1.86,5.48-4.09,6.68-7.77.96-2.95.85-4.49,1.76-6.99.49-1.33,2.54-4.49,4.1-6.29,1-1.16,2.14-2.13,3.05-3.37.62-.7,1.13-1.48,1.52-2.34.96-2.61,1.25-3.22.86-1.81l1.23-.96c1.64-1.5,1.43-1.45-.62.17.47-.96,4.37-2.05,5.37-2.97,1.18-1.09,2.04-2.21,2.79-3.64,3.04-5.79-.88-2.29-.7-1.31-.08-.43,3.13-2.24,3.84-3,1.81-1.94,2.12-3.71,3.36-5.95.62-1.12,2.6-3.99,3.93-5.6,1.4-1.69,3.4-4.89,4.77-6.01.81-.66,2.26-1.13,3.16-1.74,1.6-1.08,2.79-2.37,4.03-3.81,1.09-1.27,2.21-2.48,3-3.97.65-1.07,1.05-2.21,1.2-3.43.59-3.34.5-3.54-.26-.59l-3.59,3.59.7-.38-5.05,1.37c3.58-.37,6.77.15,10.05-1.88,1.77-1.1,3.04-2.6,4.04-4.4-.19.34,2.08-5.75,1.06-3.94l-3.59,3.59c2.43-1.77,4.92-2.37,6.91-4.91,1.02-1.3,1.74-2.59,2.23-4.23s2.1-5.82-.09-1.73l-3.59,3.59c3.06-2.28,5.97-3.77,8.52-6.81,1.71-2.03,2.65-3.52,3.71-5.93.59-1.55.6-1.53,0,.07,1.21-1.03,1.46-1.36.77-.97l-5.05,1.37c3.56-.29,6.67.26,9.96-1.75,1.76-1.08,3.07-2.62,4.06-4.4-.15.27,2.07-5.71,1.09-4.05l-3.59,3.59c.75-.43,3.24-1.01,4.53-1.81,2.63-1.63,4.4-4.34,5.22-7.28.3-1.09.95-1.73,0-.81-1.64,1.59.89-.19,1.04-.27,2.14-1.11,4.18-2.73,5.77-4.52,1.3-1.46,2.37-3.42,3.87-4.69.71-.6,2.1-1.18,3.06-1.81,4.4-2.88,6.46-6.59,9.5-10.52l-3.59,3.59c.64-.37,3.1-1.15,4.41-1.91l-15.05-8.63c.17,2.09.58,4.1.91,6.15v-5.32c-.27,1.93-2.26,4.88-3.08,7.69-.35,1.2-1.1,2.72-1.05,3.97l-.25,1.38c3.15-2.92,3.29-3.21.42-.86-2.54,2.38-3.83,5.87-4.72,9.17-.44,1.66-.9,3.37-.86,5.11.05,1.22.25,2.4.6,3.56,1.3,3.12,1.34,3.19.13.21l1.37-5.05c2.05-1.74,2.35-2.18.91-1.34-.93.67-1.82,1.38-2.69,2.13-1.77,1.84-2.8,4.15-3.2,6.63s-.07,5.01,1.16,7.38c.43,1.09,1.09,2.06,1.96,2.88.82.89.84,1.02.06.4l-1.37-5.05-.02,1,1.37-5.05c.72-.48.67-.4-.15.24-.79.84-1.51,1.74-2.16,2.69-1.04,1.7-1.56,3.74-2.09,5.64s-1.14,3.97-1.09,6c.06,1.21.25,2.4.59,3.56,1.41,3.57,1.38,3.17-.07-1.2l2.57-4.41c-.82,1.05-4.5,4.87-3.81,6-.25-.41,3.94-4.6-.02-.99-1.02.93-1.87,1.95-2.56,3.17-1.37,2.41-1.88,5.16-1.52,7.88.18,1.34.42,2.11.97,3.35,1.28,2.89.13,1.66.28-.55l1.37-5.05,1.56-1.41c-.84.58-1.63,1.2-2.38,1.88-1.01.99-1.78,2.13-2.44,3.38-1.46,2.77-1.79,6.1-.93,9.11.15.52,1.03,3.45,1.61,3.55-1.43-.24,1.46-7.23-.88-4.63-2.02,2.25-1.49,5.98-2.11,8.63.46-1.99-3.48,4.93-.37,1.3,2.61-3.04-1.18.32-1.77.92-.87.88-1.52,1.98-2.09,3.06-.68,1.28-2.92,8.76-.88,10.12-1.03-.68,1.32-4.24-.4-2.17-1.33,1.6-1.3,4.43-1.51,6.4-.73,6.87,6.94,10.87,12.66,9.64-1.62.35,1.84.34,1.86.34,1.94-.06,4.31-.59,6-1.58s3.26-2.6,4.29-4.2c.25-.39,1.9-2.55.72-1.5l-4.41,2.57c-.79.13,1.09.5,1.17.51,1.1.09,2.71-.24,3.81-.55,2.6-.73,5.05-2.64,7.19-4.25,1.66-1.25,3.2-2.82,4.11-4.72.7-1.46-1.97,1.7-.13.53,1.67-1.07-2.75-.02.5-.11,4.41-.11,9.34-2.47,12.95-4.81,2.06-1.33,3.63-2.77,5.31-4.5s-2.1,1.9,1.14-1.11c1.69-1.58,2.86-1.33-.11-.73h-5.32c3.36.58,6.11,1.84,9.69.89,4.35-1.15,5.27-4.02,7.77-6.47l-4.41,2.57c3.54-1.28,6.8-1.96,9.69-4.63.38-.35,1.49-1.38,1.74-1.61,1.56-.68,1.76-.9.6-.64-1.12.14-.92.15.58.03,4.16-.36,7.99-2.1,10.16-5.82.66-1.12,1.03-2.45,1.33-3.7.15-1.05.29-2.1.43-3.16-.19.89-.14.82.14-.21l-2.57,4.41.43-.52-4.41,2.57c-2.19.62,4.63-.13,4.19-.03,2.4-.57,4.41-1.85,6.18-3.54.35-.33,3.26-3.77,3.65-3.31-2.71.67-3.03.91-.95.74,1.11,0,2.18-.18,3.21-.53,3.78-1.06,7.67-3.17,10.89-5.41,3.87-2.69,4.68-6.19,6.23-10.29l-2.57,4.41c-.88,1.03,2.86-1.17.21-.31-1.83.6.02.2.73.18,3.2-.06,5.69-1.2,8.35-2.88,2.33-1.46,4.56-2.94,5.96-5.42.57-1.02.98-2.22,1.26-3.35.15-1.07.3-2.15.43-3.22.18-1.35.04-.76-.44,1.76l-3.59,3.59c.19-.11,4.68-2.57,1.29-1.25,1.33-.52,3.09-.23,4.5-.64,2.45-.71,4.84-1.23,7.38-2.65,2.36-1.32,4.7-3.47,6.79-5.17s3.77-4.38,5.06-5.8l-4.41,2.57c2.62-1,6.89-1.28,9.72-4.37.45-.49,3.42-4.42,3.02-5.33-2.66,2.96-2.63,3.27.07.91.47-.32.92-.67,1.36-1.03.74-.56,1.46-1.13,2.18-1.72,1.44-1.32,1.5-1.33.15-.02,1.55-.52,3.23-.8,4.66-1.67,1.69-1.03,3.18-2.61,4.16-4.33.54-1.11.99-2.26,1.36-3.44.29-1.35.35-1.54.19-.56l-3.59,3.59,1.23-.84c1.6-.75,1.7-1,.3-.76-1.14.05-1.27.07-.4.06.36.02.72,0,1.08-.03,3.26-.27,5.57-1.23,8.37-2.87,4.23-2.48,7.23-6.78,10.02-9.62l-4.41,2.57c-1.35.47.31.16,1.06.15,1.39-.01,2.77-.25,4.09-.66,3.1-.96,5.33-4.08,6.38-5.29-5.69-2.36-11.38-4.71-17.07-7.07-.08,1.13.5,5.56.62,3.86l1.37-5.05c-1.94,3.51-3.52,6.86-5,10.61l2.57-4.41c.7-.88-.53.32-.98.65-1.13.81-2.16,1.6-3.07,2.61-2.02,2.23-3.4,5.74-4.19,8.69-.53,1.98-.35,4.42-.51,5.55-.18,1.24-.79,2.44-1.07,3.67l-.35,1.5c-.55,3.09-.54,3.53.04,1.32l3.59-3.59c-2.76,1.93-5.55,3.06-7.32,6.2-1.01,1.79-1.43,3.95-1.42,6.01,0-.2,1,6.13,1.1,4.35l1.37-5.05c-.45.71-2.29,2.36-3.03,3.72-.91,1.69-1.35,3.5-1.85,5.33-.31,1.16-.98,5.48-.95,5.35.28-1.14-2.25,3.57-.83,1.94-2.03,2.32-3.96,4.43-5.59,7.12-2.29,3.79-1.38,7-1.82,10.95l1.37-5.05c-1.31,2.18-3.7,5.07-5.03,7.92-.89,1.9-1.45,3.86-1.45,5.99,0-.27.52,6.16.69,4.11l1.37-5.05c2.31-3.43-.22-.51-1.19.42s-1.86,1.97-2.51,3.15c-2.05,3.7-.93,6.44-.71,10.22-.12-1.99.15-.84-.43.16-.18.3-.74,1.12-.97,1.57-1.43,2.9-2.2,5.47-3.01,8.6-2.36,9.14,6.99,14.68,14.69,11.29,1.55-.68,3.22-2.17,4.36-2.7l-7.71,1.01c-2.15-1.5-2.47-1.69-.97-.56.87.82,1.83,1.5,2.88,2.06,2.71,1.46,5.49,1.61,8.49,1.12,3.69-.6,7.99-1.06,11.3-2.83,1.83-.98,2.93-2.3,4.3-3.73l-1.4.94c.97-.23,1.94-.47,2.91-.72,2.58-.5,4.51-.45,6.88-1.7,1.33-.69,3.27-2.39,3.88-2.73l-5.05,1.37c4.06-.4,7.73-.2,11.8-1.43s8.13-3.6,11.05-5.72c1.64-1.19,3.38-2.19,5.2-3.1.61-.3,1.07-.59,1.68-.87.67-.31,4.11-1.12,2.47-.94-1.97.22,2.01.26,2,.26,1.36-.13,2.41-.37,3.66-.91s2.09-1.1,3.14-1.95c.54-.34,1.01-.74,1.43-1.21.9-.84.47-.69-1.31.44h-5.32c4.65.72,8.93,1.74,13.02-1.34,3.36-2.53,3.95-6,5.45-9.64l-2.57,4.41.54-.58-4.41,2.57.78-.16h-5.32c4.3.64,8.27,2.11,12.42-.32s4.8-6.43,6.34-10.42l-2.57,4.41.52-.59-4.41,2.57c-4.01.97-.46.5,1.16.53,1.39.02,2.8-.12,4.13-.53,2.69-.83,5.3-2.51,7.67-3.99,5.02-3.13,6.94-6.79,10.4-10.96.11-.13,3.31-2.29,3.64-3.02-.08.17-3.31.25-.63.16,1.41-.04,2.86-.19,4.21-.58,3.53-1.03,5.97-3.47,7.47-6.72.5-1.09.71-2.2,1.1-3.31l-.68,1.52c1.92-2.29,2.13-2.66.62-1.11l-5.05,1.37c5.03-.43,9-.46,12.77-4.44,2.1-2.22,4.25-4.73,5.19-7.68.42-1.3.56-1.32-.17-.15.56-.89,1.32-1.79,2.07-2.49,3.33-3.1,8.46-5.29,9.95-10,.25-.8-1.06.44-.23.55.92.13,2.63-1.76,3.41-2.57,1.72-1.8,2.48-4.02,3.79-6.05l-3.59,3.59c-1.41.95,4.24-1.45,4.04-1.34,1.75-.97,3.34-2.38,4.35-4.11s1.61-3.85,1.67-5.78c.03-.94.54-4.11-.25-2.08l-2.57,4.41.75-.58-4.41,2.57c2.64-1.04,5.24-1.66,7.41-3.65,1.11-1.02,4.63-4.9,3.98-6.6.36-1.04.11-.84-.76.61-1.3,1.37-1.25,1.57.15.59,1-.49,2.05-1.52,2.86-2.32,2.09-2.09,4.5-5.11,5.4-7.95.37-1.16.61-2.32.69-3.55.06-.54.07-1.09.03-1.63,0-.87-.05-.75-.13.35-1.76,2.71,2.43-2.88-.37.4.77-.9,2.14-1.42,3-2.25,3.98-3.83,5.45-8.38,7.25-13.33l-2.57,4.41c-.81.95.91-.59,1.3-.85,2.14-1.42,3.53-3.08,4.64-5.38,1.42-2.94,1.59-5.91.76-9.03-2.33,4.1-4.66,8.2-6.98,12.3-1.87.24-2.19.41-.97.49l-5.05-1.37.19.09c-.67-5.24-1.35-10.47-2.02-15.71-2.51,3.02-3.98,5.67-3.76,9.74.16,2.89,1.24,5.58,3.3,7.65.9.71,1.81,1.41,2.73,2.1,1.46.98,1.24.62-.65-1.08l-1.37-5.05-.05.73,1.37-5.05c-2.25,4.93-4.78,9.05-1.86,14.51.57,1.07,1.24,2.1,2.07,3,2.15,2.32-.34-3.41-.21.18.09,2.48,1.14,4.81,2,7.09,1.42,3.76,3.13,7.56,3.73,11.56.43,2.82.21,5.64,1.65,8.28.64,1.18,1.49,2.23,2.45,3.16.45.4.92.78,1.42,1.13,1.49,1.23,1.37,1.02-.36-.62l-1.37-5.05c.52,4.73,1.15,9.13,2.25,13.79s3.44,8.58,5.35,12.81l-1.37-5.05c.14,2.46-.81,7.41-.14,10.86.53,2.72,1.64,4.91,3.65,6.87.75.73,3.37,3.62,1.51.68-2.06-3.27.1.87.28,1.54.65,2.44.56,4.54,1.63,6.92.39.87,1.03,1.82,1.31,2.72-.62-2.01.02,1.82.06,2,.95,4.4,4.02,7.83,6.16,11.69l-1.37-5.05c-.12-2.04-.96,4.51-.96,4.18-.04,1.74.44,3.38.84,5.04.92,3.86,1.5,7.59,3.19,11.22.91,1.97,1.89,3.91,3.42,5.5s4.43,2.89,1.52.61c.59,1.09,1.3,2.09,2.14,3.01,1.24,1.55,1.06,1.17-.55-1.16.14,1.4.35,2.78.63,4.16-.08-.51-.09-.41-.04.3.59,4.72,1.79,8.63,6.17,11.16,1.99,1.15,6.43,3.85.83-.27.86,1.74.91,1.76.16.03-.14.88-.1,1.75.1,2.62.42,3.92,1.59,8.15,4.09,11.24,1.95,2.41,4.78,4.5,6.87,6.7l-2.57-4.41.18.78v-5.32c-.66,4.89-2.26,9.12,1.15,13.52,2.78,3.6,6.29,3.73,10.13,5.12l-4.41-2.57.51.45-2.57-4.41c-.08-2.88-.24-2.65-.5.67-.23,1.28-.15,2.55.23,3.82.46,1.98,1.54,4.34,2.46,6.17,1.82,3.63,5.34,6.81,8.48,8.73,1.12.49,2.24.97,3.37,1.44-2.47-2.5-3.1-2.64-1.88-.43.08.9,1.38,3.68,1.91,4.71,2.24,4.31,5.99,5.62,10.21,7.36l-4.41-2.57s1.2,2.73,1.12,2.52c.94,2.41,1.62,4.38,3.18,6.5s3.01,4.3,5.33,5.69c1.02.61,2.16,1.07,3.3,1.43.47.15,2.2.94,1.08.2l-3.59-3.59c-.79-2.91-.89-2.7-.29.63.14,1.22.54,2.37,1.2,3.44,1.12,2.11,2.65,3.29,4.34,4.84,3.34,3.06,5.08,6.35,9.68,7.83.51.17,1.03.29,1.56.37-1.91-1.08-2.13-.9-.67.54-.79-1.85-.98-1.97-.56-.36.29,1.19.72,2.33,1.3,3.41,1.15,2.1,2.81,3.7,4.92,4.83-.32-.17,5.75,1.99,3.98,1.04l-3.59-3.59c-.8-1.2.26,1.21.38,1.57.67,2.03,1.67,3.6,3.1,5.19,2.08,2.3,4.78,4.55,7.65,5.69.88.35,3.62,1.4,1.45.04,1.57.99,2.6,2.66,4.27,3.63,1.76,1.03,3.92,1.58,5.92,1.71.6.04,3.14.65,1.56.05l-4.41-2.57c1.39,1.13,2.96,2.24,4.07,3.64l-2.57-4.41c1.26,3.48,2.19,6.77,5.26,9.18,1.68,1.32,3.55,1.97,5.64,2.24.81.19,1.63.23,2.46.12,3.35-.34,3.55-.45.59-.34l-4.41-2.57c2.62,2.7,4.26,6.68,8.13,9.03,1.85,1.12,4.5,2.24,6.6,2.87,1.33.4,2.77.52,4.14.49,1.46-.03,5.47.22,1.1-.64l-4.41-2.57c-1.37-2.69-1.78-3.13-1.21-1.34.31,1.14.74,2.23,1.28,3.29.64,1.2,1.42,2.28,2.42,3.22,2.18,2.05,5.02,3.05,8,3.11,1.25-.15,2.49-.32,3.74-.49-2.35-.4-2.87-.4-1.56-.02,3.5,2.33,9.29,1.04,12.38-1.3,1.82-1.39,3.2-3.21,3.82-5.47.48-1.77.48-3.54,0-5.32-.19-1.35-.07-.47.35,2.63l-2.57,4.41c-1.45,1.43,1.11-.4,1.32-.54,1.63-1.06,3.26-2.68,4.25-4.37s1.5-3.98,1.53-5.89c.03-1.75.37-6.18-.59-1.51l-2.57,4.41c-2.77,1.41-3.26,1.8-1.46,1.19,1.11-.38,2.2-.82,3.27-1.32,1.65-.89,2.88-2.03,3.97-3.52,1.51-2.06,2.29-4.36,2.24-6.95-.08-1.26-.29-2.5-.6-3.72-.44-1.32-.48-1.5-.14-.53l-1.37,5.05c-.37.64,2.11-3.08,2.51-3.82s1.29-4.99,1.42-5.17l-3.59,3.59c4.26-3.14,7.73-5.65,8.22-11.36.16-1.82.29-3.72.24-5.55.01.47-1.08-6.28-1.08-4.02l-1.37,5.05c1.66-3.23,5.61-6.49,6.6-11.03.62-2.81,1.12-6.28.5-9.07-.26-1.16-.58-2.22-1.13-3.31-.25-.5-1.02-2.7-.86-1.61l-1.01,7.71c-2.05,1.8-2.35,2.13-.91,1,.99-.63,1.89-1.37,2.69-2.22,1.69-1.8,2.75-4.02,3.08-6.45s-.14-4.95-1.34-7.14c-.64-1-1.34-1.95-2.11-2.85-1.17-1.46-1.05-1.1.36,1.08v5.32c.75-2.36,1.9-4.4,1.93-6.96.03-2.35-.84-4.42-.58-6.75s-.93,2.36.34-1.28c.49-1.4.91-2.51,1.07-4,.32-3.04-.74-5.57-1.28-8.48v5.32l.31-.88-2.57,4.41c1.91-2.41,4.06-4.42,4.93-7.5,1.05-3.7-.31-6.72-1.07-10.24v5.32c.88-5.04,2.45-9.91,1.42-15.08-.95-4.77-2.83-7.82-5.94-11.5l2.57,4.41-.34-.88v5.32c-1.44,2.14-1.75,2.69-.93,1.65.38-.46.75-.94,1.11-1.42.96-1.3,1.81-2.62,2.28-4.2.78-2.64.33-5.24,0-7.9-.74-5.95-2.74-10.06-6.41-14.72l2.57,4.41c-1.02-2.51-1.02-4.43-1.11-7.06-.1-3.08-.46-4.1-.17-6.66.37-3.25-.39-6.38-1.49-9.45-.7-1.94-1.57-3.69-3-5.22-.31-.33-1.99-2.44-1.21-.99l1.37,5.05c.02.82.05-.69.11-.92.41-1.68.43-3.44.13-5.14-.52-2.93-2.09-5.14-3.35-7.76l1.37,5.05c-.2-2.52.28-4.79-.24-7.35s-.73-3.25-.84-5.8c-.15-3.44-1.46-6.37-3.92-8.74-1.93-1.86-2.87-2.83-1.11-.4-.86-1.2-1.62-2.62-2.32-3.92l1.37,5.05c-.85,2.54-1.01,3.19-.47,1.94.26-.55.5-1.11.72-1.67.62-1.54,1.1-3.06,1.14-4.75.07-3.24-1.5-5.7-2.64-8.57-.8-2-1.25-4.14-2.38-6-1.66-2.72-4.11-4.01-6.61-5.75l3.59,3.59c.55,1.64.66,1.59.31-.13-.1-.95-.26-1.9-.47-2.84-.25-.94-.65-1.91-.99-2.83-1.1-2.98-2.64-5.59-4.12-8.38-1.27-2.4-.52-3.2-2.08-6.71-1.32-2.96-4.07-4.6-5.64-6.46l2.57,4.41c-.19-.78-.33-4.14-1.07-5.95-.99-2.43-2.47-5.21-4.27-7.15-.9-.97-1.91-1.83-3.04-2.56-2.87-1.85.91.88.73,1.04,1.05-.95-4.31-6.97-4.73-7.49-1.17-1.45-1.93-3.34-3.21-4.72s-.89-1.19-.72.62c-.11-1.21.1-2.38-.09-3.62-1-6.59-5.67-8.66-11.18-10.96l4.41,2.57c-1.16-.93-2.32-2.22-3.6-2.92-2.38-1.3.74,1.97-.87-1.01-1.35-2.48-3.61-4.18-5.24-6.37-1.41-1.89-2.15-4.08-3.41-6.03-1.95-3.03-4.89-4.02-7.58-6.03l3.59,3.59c-.25-.38-1.35-2.99-2.15-4.21-1.32-2.02-3.13-3.49-4.83-5.15-2.81-2.74-4.15-6.58-7.6-8.83-.99-.65-2.28-1.14-3.14-1.76-1.57-1.11-2.94-2.84-4.44-4.08-4.02-3.33-7.35-4.01-12.4-4.64l5.05,1.37-.85-.4,3.59,3.59c-1.4-1.85-2-3.93-3.67-5.68-1.76-1.84-4.05-3.18-6.11-4.69l3.59,3.59c.82,1.25-1.37-4.33-1.31-4.22-1.25-2.26-3-3.84-5.32-4.89-1.73-.78-3.4-1.16-5.34-1.09-1.22.12-2.42.3-3.62.53-1.94.36-1.33.43,1.85.19l4.41,2.57c.23.23-4.31-4.68-2.5-2.65,1.96,2.19-.34-1.62-.88-2.51-.84-1.38-1.97-2.5-3.2-3.51-2.1-1.73-4.52-3.7-7.14-4.49-1.13-.34-2.39-.61-3.57-.63-.22,0-3.33-.1-1.69.36l4.41,2.57c1.38,1.31-2.56-3.61-2.28-3.31-1.16-1.22-2.63-2.09-4.01-3.01-2.88-1.92-5.34-2.51-8.56-3.42s-6.12-3.11-9.36-4.07c-.98-.32-1.98-.52-3.01-.62,1.59,1.31,1.82,1.37.69.19-.95-1.15-2.27-2.04-3.57-2.74-1.9-1.02-3.87-1.4-6-1.35-.86.02-10.29,1.79-3.71,1.76,2.71.37,3.15.17,1.31-.6-3.48-1.76-3.27-1.21.65,1.65-.46-1.28-2.19-2.68-3.24-3.58-.16-.14-5.12-4.41-3.76-2.6,1.44,1.92-1.95-3.44-1.9-3.38-2.82-2.95-7.12-3.38-9.76-4.37l4.41,2.57c1.13,1.15-.07-.52-.28-.9-.67-1.18-1.53-2.22-2.52-3.13-2.27-2.11-5.43-3.78-8.29-4.9-2.59-1.01-5.21-2.14-8.03-2.29-3.19-.18,2.62,2.12.11-.3-.77-.74-1.77-1.3-2.63-1.95-2.71-2.06-5.8-4.33-9.46-4.03-3.19.26,1.13.68.93.93.09-.12-3.03-2.26-3.16-2.36-1.7-1.35-3.96-3.29-6.59-3.97-3.18-.82-5.96.06-9.06.54h5.32c.6.36.24.11-1.07-.75,1.17,1.64,1.34,1.71.53.2-.95-2.05-2.91-4.02-4.86-5.16-.1-.06-7.45-3.3-4.08-1.34-2.31-1.35-3.61-3.13-6.3-3.93-1.43-.43-4.67-.18-4.8-.2-.67-.1-4.91-1.62-1.79-.08-1.8-.89-3.42-2.59-5.27-3.61-2.14-1.18-4.13-2.22-6.52-2.86-1.97-.52-3.91-.81-5.84-1.55-1.83-.71-3.63-1.9-5.54-2.42-2.08-.57-3.76-.3-5.8-.38-.26,0-5.83-.92-3.84-.35-3.84-1.11-6.66-3.69-10.76-4.53-4.52-.92-8.83-.47-13.38-.7l5.05,1.37c.87.51,2.18,2.57,1.17.63-.72-1.38-1.98-2.58-3.18-3.54-2.38-1.9-5.24-2.66-8.27-2.55-4.81.18-7.85.87-12.29.32l5.05,1.37c-3-1.36-6.85-4.22-10.85-5.14-2.88-.66-5.89-.26-8.48,1.16-1,.64-1.95,1.34-2.85,2.11-1.46,1.18-1.1,1.06,1.08-.35l7.71,1.01c.74.35,2.21,2.73.92.76-.63-.96-1.4-1.92-2.23-2.73-2.21-2.13-5.33-3.26-8.36-3.21-4.2.06-7.56,2.13-11.38,2.85h5.32c-1.75-.28-3.64-.48-5.31-1.09l4.41,2.57c-2.48-1.99-4.67-4.2-7.86-5.06-3.61-.97-7.34.97-9.9,1.44h5.32c-1.13-.34-3.78-1.88-5.77-2.17-2.41-.34-4.92-.36-7.35-.27-2.2.08-4.46.18-6.57.83-2.88.89-4.83,3.04-7.08,4.88l4.41-2.57-.9.31h5.32c2.01,1.31,2.23,1.39.67.25-.6-.51-1.24-.97-1.93-1.37-1.42-.8-3.02-1.24-4.63-1.42-3.29-.36-6.13,1.37-8.41,1.98-.49.13-4.19.21-2.15.31-1.65-.09-3.25-.42-4.92-.44-1.24-.01-3.37.43-1.03.78-1.57-.23-3.13-1.35-4.73-1.69-3.23-.69-6.63.11-9.74,1.09-.36.11-4.98,1.84-3.16,1.43-1.82.41-3.81.09-5.67.54-.76.18-5.81,1.89-2.94,1.43s-2.49-.53-3.32-.49c-3.88.16-5.91,2.35-9.16,3.78l5.05-1.37c-1.54,0-3.08-.28-4.65-.27-12.87.07-12.89,20.07,0,20,3.09-.02,5.41.51,8.5-.59,1.99-.71,3.4-2.1,5.3-2.91l-5.05,1.37c2.68.09,4.61.76,7.31.11,1.3-.44,2.58-.95,3.83-1.53-1.22-.01-.96-.04.79-.06,4.55-.46,8.45-2.29,12.9-3.23h-5.32c1.12.16,4.01,1.37,6,1.56,2.51.24,5.01.01,7.52.28,2.96.31,5.52-.06,8.45-.6,1.94-.36,4.93-1.75,5.91-2.01h-5.32c-2.36-1.55-2.25-1.38.35.52l.91.59c2.25,1.23,4.75,1.76,7.28,1.43,3.98-.53,6.36-2.98,9.31-5.37l-4.41,2.57c.27-.09,3.15-.02,4.26-.12,1.95.17,2.01.08.18-.27.71.51,1.47.9,2.3,1.18,4.63,2,8.61.02,12.2-.6h-5.32l.88.32-4.41-2.57c4.08,3.24,7.12,5.02,12.28,5.84,3.06.48,6.07.25,8.86-1.23,2.96-1.57-2.69.23.93-.31-.18.03,3.25-.74,2.16-.65l-5.05-1.37c-1.73-1.99-2.03-2.25-.91-.78.66.99,1.4,1.9,2.23,2.73,1.8,1.69,4.02,2.76,6.45,3.09s4.96-.14,7.16-1.35c1-.64,1.95-1.35,2.86-2.12,1.47-1.18,1.1-1.06-1.09.37h-5.32c.98.3,1.92.69,2.89,1.09-2.26-.92.28.19,1.12.78,2.68,1.86,5.38,2.44,8.61,2.81,4.8.56,7.98-.52,12.33-.49l-5.05-1.37c-1.83-1.93-2.21-2.15-1.16-.64.7.94,1.42,1.86,2.17,2.76,2.14,2.06,4.79,3.14,7.75,3.32s6.59-.68,9.53.29c2.39.8,5.5,2.86,8.27,3.84,4.29,1.51,8.86,1.04,13.31,1.46l-5.05-1.37c4.08,1.77,7.99,3.46,12.25,4.75,3.68,1.11,4.6,2.27,7.89,4.2.67.39,12.39,4.17,12.28,3.03-3.01-1.85-3.65-2.08-1.9-.7.92.83,1.92,1.55,2.99,2.16,2.07,1.11,4.45,1.71,6.64,2.55l-4.41-2.57c-.48-.8-.41-.59.21.61.57,1.09,1.27,2.08,2.11,2.98,1.44,1.51,3.46,2.76,5.28,3.78,4.58,2.57,8.24,2.09,13.21,1.29h-5.32l-1.67-1.01c.59.56,1.21,1.08,1.88,1.56.7.54,1.43,1.05,2.13,1.59,2.31,1.78,4.08,3.22,6.96,3.88,1.1.33,2.2.43,3.32.31,1.04.03.89-.14-.44-.51-1.44-.72-1.47-.61-.09.32.72.58,1.46,1.13,2.23,1.64,2.17,1.66,3.79,3.21,6.53,3.99,2.5.7,3.9.56,5.56,1.29.52.23,1.34.63,1.81.78l1.3.77c-1.11-1.49-1.4-1.75-.89-.79.23,2.04,3.33,4.64,4.94,5.58,1.01.59,2.37,1.13,3.52,1.43-.67-.18,4.49,1.02,3.53.67l-4.41-2.57c-1.09-1.11.31,1.16.5,1.49,1.06,1.79,2.52,3.03,4.16,4.23.86.63,1.93,1.18,2.77,1.85-2.49-1.99,1.98,2.07,2.51,2.48,2.26,1.76,5.39,3.29,8.15,4.1,1.88.56,3.59.67,5.5.35.85,0,1.65-.21,2.39-.6,3.05-1.11,3.2-1.31.45-.6l-5.05-1.37c-1.5-.84,1.68,1.73,1.95,1.94,1.51,1.18,3.06,1.97,4.95,2.45,3.05.77,5.45,1.56,8.34,2.85,2.26,1.01,4.99,2.3,7.28,2.56,1.64,1.28,1.72,1.14.23-.42l.5.94c.87,1.74,2.25,3.18,3.8,4.32,1.74,1.27,3.53,1.96,5.65,2.22.81.19,1.63.23,2.45.12,1.77-.12,1.58-.26-.57-.41l1.24.92c-2.21-3.18-2.51-3.17-.9.02.7,1.37,1.63,2.51,2.61,3.71,1.36,1.66,4.36,5.08,7.49,6.06,1.35.42,2.74.62,4.15.57,1.22-.12,2.43-.3,3.63-.53,1.95-.37,1.33-.42-1.86-.17l-5.98-4.6c-.69-1.02.04.82.16,1.26.37,1.35.93,2.58,1.68,3.75,1.1,1.72,2.55,2.86,4.2,4.04.4.31.82.6,1.25.88,1.01.64.84.58-.49-.2,2.14,6.28,8.49,7.03,14.05,7.74l-5.05-1.37c1.41.68,3.45,3.05,4.95,4.43,2.08,1.92,4.39,2.81,6.65,4.36l-3.59-3.59c2.98,4.05,5.3,8.07,9.33,11.37-.58-.47-.79-1.89.03-.12s1.2,2.9,2.42,4.37c2.03,2.45,4.41,3.19,6.8,5.02l-3.59-3.59c1.42,2.13,2.39,4.54,3.78,6.71,1.52,2.37,3.64,4.14,5.23,6.37,2.09,2.93,3.69,4.81,6.66,6.9-1.39-.98,5.61,3.72,2.61,1.97,1.12.66,5.2,3.13,1.67.19l-2.57-4.41c-.35-.98-.08-.29-.13.52-.08,1.38.13,2.9.51,4.22.65,2.31,2.05,3.95,3.37,5.86,1.49,2.14,2.64,4.47,4.34,6.47.63.74,1.59,1.43,2.13,2.21-1.18-1.7.39,1.92.8,2.67,1.26,2.29,2.8,3.75,4.92,5.27,1.26.91,2.34.43-.09-.17.96.24.71,2.35.39-.06.35,2.61.25,5.05,1.64,7.42,1.19,2.04,4.12,4.05,5.14,5.27l-2.57-4.41c.81,3.26,1.32,5.92,2.9,8.96,1.1,2.12,2.49,4.11,3.26,6.35.94,2.74.58,5.8,2.12,8.4,1.67,2.81,4.32,4.32,6.9,6.12l-3.59-3.59c1.28,1.68,2.77,6.47,3.89,9.1l-1.37-5.05c.92-2.7,1-3.19.27-1.46-.54,1.06-.96,2.15-1.29,3.28-.71,2.91-.31,5.82,1.05,8.48.82,1.61,1.84,3.2,2.84,4.7.35.53,6.24,7.58,3.08,2.75l-1.37-5.05c.21,1.57,0,3.11.1,4.69s1.19,4.23,1.28,5.48c.16,2.25-.52,3.83.14,6.21s2.16,4.27,3.18,6.43l-1.37-5.05c.16,3.74-.81,8.59,2.96,12.62.49.53,1.02,1.01,1.59,1.45-1.12-1.9-1.3-1.9-.51.01.27-1.93.24-2.04-.07-.34-.29,1.25-.41,2.52-.35,3.8.06,4.2.1,9.06,1.11,13.11s3.15,7.2,5.78,10.55l-2.57-4.41c.47,1.18.56,3.86,1.37,4.82.07,1.94.7,1.11,1.88-2.47l-.66.81c-1.09,1.2-1.94,2.52-2.56,4.01-2.56,6.19.68,10.53,4.5,15.07l-2.57-4.41c.42,1.11.93,2.63,1,3.84-.16-2.69-.61,2.08-.79,2.94-.99,4.72-.23,7.5.71,12.04v-5.32l-.29.9,2.57-4.41c-1.89,2.43-4.06,4.41-4.94,7.5-1.05,3.67.32,6.72.95,10.25v-5.32c-.77,2.94-1.64,5.39-1.89,8.53-.1,1.24-.18,2.47-.11,3.7.09,1.43-.24,5.41.9,1.61-.99,3.33-2.36,5.85-1.38,9.53.35,1.32.91,2.49,1.64,3.62l1.56,2.02c1.18,1.47,1.06,1.1-.38-1.11l1.01-7.71c2.06-1.77,2.37-2.09.93-.97-.98.64-1.88,1.38-2.69,2.21-1.31,1.39-2.41,3.27-2.91,5.1s-.38,4.33.14,6.26c.42,1.18.93,2.32,1.54,3.4.8,1.18.9,1.37.32.57v-5.32c-.14.94-.27,1.89-.4,2.84-.38,1.67-.26,1.77.37.28.84-1.37.73-1.4-.34-.1l-1.56,2.02c-.84,1.36-2.14,3.04-3.15,4.95-1.46,2.75-1.79,6.18-.84,9.16.2.63.83,2.38.55.82.24,1.35-.09,3.29-.23,4.64l1.37-5.05-.53.79,3.59-3.59c-2.26,1.73-4.72,3.05-6.33,5.53-1.39,2.14-1.25,4.22-1.97,6.2-.54,1.49-2.68,4-3.15,6.51-.32,1.69-.27,3.27.08,4.96.13.63.2,3.29.39,1.52l2.93-7.07c2.73-1.29,3.2-1.64,1.43-1.04-1.12.34-2.21.78-3.27,1.3-1.18.63-2.24,1.4-3.17,2.38-1.49,1.58-2.28,3.32-2.77,5.38-.18.77-.99,10.52.27,4.04l2.57-4.41c.8-.95-.99.5-1.41.76-2.17,1.36-3.55,3.09-4.67,5.35-1.58,3.2-1.33,5.82-.86,9.2l2.57-9.73-.23.28,4.41-2.57-.74.29h5.32c-1.46-.45-2.96-.83-4.46-1.14-.68-.14-10.35-.84-4.22.34l4.41,2.57c1.36,2.71,1.76,3.16,1.2,1.36-.31-1.14-.74-2.24-1.28-3.29-1.03-1.95-2.5-3.67-4.43-4.8-1.65-.97-4.08-1.52-5.98-1.55-1.26.16-2.51.33-3.77.5,3.9.94,4.15.79.73-.45,1.76,1.96,2.04,2.15.84.57-.65-1.08-1.46-2.02-2.42-2.81.62.8-3.49-4.53-2.11-3.04-1.7-1.85-3.69-3.08-6.15-3.67-1.25-.34-2.52-.44-3.79-.29-3.35.35-3.55.45-.58.32l4.41,2.57-.6-.73,2.57,4.41c-1.56-4.24-2.97-7.43-6.55-10.35-2.01-1.64-3.88-3.21-6.47-3.86-1.24-.24-2.49-.38-3.75-.41-1.39.06-1.54.06-.46-.01l4.41,2.57c-2.1-1.82-3.97-3.86-6.45-5.16-.95-.56-1.95-.94-3.01-1.15-.99-.32-.86-.12.37.6l-1.12-1.05c.58,1.78.74,2.13.48,1.03.06-2.71-2.6-6.05-4.54-7.57-1.24-.97-2.7-1.8-4.23-2.23-.4-.11-3.14-.91-1.58-.04l3.59,3.59c1.03,1.59-1.45-4.23-1.3-3.94-.99-1.82-2.59-3.63-4.03-5.14-1.84-1.93-3.63-3.37-6.21-4.2-.68-.22-1.36-.4-2.06-.51,2.46,1.86,2.97,1.98,1.53.38-.29-.55-3.5-4.52-4.1-4.16,1.15,3.93,1.39,4.05.71.38-.14-1.22-.54-2.37-1.2-3.44-1.12-2.12-2.68-3.78-4.8-4.95.19.11-5.44-2.36-3.98-1.37l3.59,3.59c-2.6-3.41-3.31-6.26-5.42-10.26-2.54-4.81-5.95-6.35-10.76-8.37l4.41,2.57c.8.66,1.23,2.59.67.45-.31-1.18-.99-2.33-1.52-3.42-1.01-2.09-1.97-4.44-3.63-6.12-.46-.46-6.11-3.62-6.11-3.61.04.35,2.73,2.13.87.32l-2.02-1.56c-1.23-.99-1.29-.97-.15.05,1,1.16,1.1,1.02.31-.42-.6-1.69-.69-1.59-.27.31.89,3.26.63-.57.66-1.73.05-2.76-.64-5.36-2.31-7.57-2.73-3.63-6.33-3.72-10.14-5.12l4.41,2.57-.51-.45,2.57,4.41c-.04,2.87.13,3.36.51,1.47.16-1.21.33-2.41.49-3.62,0-2.93-1.15-5.71-3.11-7.85-.75-.83-5.5-4.74-2.87-1.98-.68-1.05-1.48-2.01-2.39-2.87.71,1.73.82,1.62.34-.35.19-3.12-1.15-7.82-3.16-11.35-1.28-2.25-2.53-4.11-4.78-5.51-1.03-.57-2.11-1.05-3.22-1.44-1.71-.69-1.35-.43,1.09.8l2.57,4.41c-.36-1.5-.39-6.68-1.16-9.32-.95-3.25-3.72-6.76-5.79-8.91-.94-.74-1.89-1.47-2.84-2.2l1.32,1.58c-1.39-.24-1.3-4.22-1.4-4.74-.28-1.49-.72-2.94-1.09-4.41-.38,2.22-.31,2.48.23.76.27-.78.43-1.58.48-2.4.54-4.4-1.43-7.67-3.63-11.23-.34-.54-2.41-4.58-1.55-1.87-.72-2.27-.64-4.24-1.67-6.53-.14-.31-1.36-4.13-.9-2.1-.68-2.99-.97-5.07-2.19-7.93-.52-1.21-.99-2.43-1.69-3.55-.61-1.08-1.4-1.98-2.37-2.71-2.46-2.07-2.68-2.11-.65-.1l1.37,5.05c-.46-3.77.51-5.71.32-9.53-.21-4.16-2.91-7.1-4.18-10.88-.99-2.95-1.5-6.18-1.89-9.18-.35-2.69-.52-4.99-2.02-7.35-.62-1.07-1.41-1.98-2.38-2.73-2.47-2.06-2.68-2.11-.64-.13l1.37,5.05c-.91-7.01-1.99-13.1-4.61-19.73-1.06-2.68-1.52-4.87-2.09-7.65-.63-3.11-2.9-5.85-3.91-7.78l1.37,5.05c-.77,2.62-.73,3.12.11,1.47.5-1.06.96-2.14,1.39-3.23.67-2.45.46-4.92-.45-7.24-1.52-3.85-4.62-5.48-7.74-7.82l3.59,3.59-.38-.58,1.37,5.05c-2.6,4.41-3.3,5.87-2.1,4.4,3.8-4.58,4.23-12.62-2.02-15.71-3.17-1.57-6.18-1.82-9.58-1.23-5.37.92-8.26,7.49-6.98,12.3.31,1.2.22.27-.26-2.8l2.57-4.41c.72-.78.54-.42-.28.05-1.16.66-2.32,1.61-3.25,2.56-1.85,1.9-3,4.36-3.48,6.95-.21,1.13-.5,1.35.12.27l-1.56,2.02c1.13-.91,1.28-1.07.45-.46-2.3,2-3.98,3.42-5.66,6.05-1.16,1.81-2.31,3.74-2.88,5.83.14-.53-.76,3.76-.37,4.28,0,1.03.11.76.36-.83.58-1.55.53-1.81-.14-.78-.67.08-3.35,2.36-4.32,3.36-1.18,1.22-1.95,2.68-2.57,4.23-.3.56-.52,1.16-.66,1.78-.37,1.18-.09.83.85-1.05l4.41-2.57c-3.7,1.44-7.57,2.58-9.72,6.25-.97,1.67-1.6,3.86-1.65,5.77-.05.67-.02,1.34.1,2,.1,1.38.14,1.41.13.09l4.6-5.98c.84-.57.13-.13-.57.02-1.16.26-2.41.73-3.45,1.31-2.31,1.27-4.04,3.28-5.23,5.59-.46.9-1.43,1.72-.21.93,1.89-1.24-1.39.6-1.53.7-1.99,1.45-3.54,3.29-4.65,5.49-.5.99-.82,1.12.03.27-.91.92-2.14,1.76-3.18,2.55-1.63,1.26-3.23,2.3-4.6,3.86-1.73,2-3.48,4.17-4.55,6.58-.04.09-1.61,3.28-.64,1.86,1.1-1.63-1.43.98-.43.5l5.05-1.37c-4.64.41-8.71.13-12.24,3.89-1.43,1.53-3.2,3.5-4.28,5.3-.62,1.02-1.03,2.16-1.44,3.28-.21.56-1.05,2.03-.3.99l5.98-4.6c1.24-.5-.41-.04-1.08.01-1.43.12-2.76.29-4.1.73-2.87.94-5.84,3.14-8.13,5.09-3.81,3.25-5.88,6.65-8.81,10.24-1.18,1.44,2.93-1.54-.7.52-.84.48-1.82.99-2.59,1.56-1.89.75-1.82.91.2.49,2.01-.11,2.09-.23.24-.37-1.66-.39-3.46-.32-5.12.06-6.38,1.49-7.56,6.39-9.64,11.66l2.57-4.41-.53.58,4.41-2.57-.76.17h5.32c-3.92-.57-7.3-1.87-11.23-.2-2.2.93-4.1,2.58-5.32,4.67-.47,1.09-.93,2.18-1.38,3.28-.6,1.75-.25,1.46,1.07-.86l4.41-2.57-.92.17h5.32c-4.44-.68-8.38-1.62-12.48.88-.85.61-1.67,1.24-2.48,1.9-1.64,1.5-.96,1.36,2.05-.42.19-.94-7.08,1.3-7.49,1.47-3.25,1.33-6.42,2.72-9.44,4.52-1.18.7-2.38,1.51-3.52,2.28-1.05.71-2.02,1.51-2.91,2.39,1.59-.82,1.49-.88-.31-.16-1.39.31-3.05,1.21-4.33,1.32-.95.08-2.43-.17-3.58-.11-3.03.16-5.87,1.39-8.08,3.48l-.93.82c3-1.3,2.82-1.56-.53-.79-3.89.67-8.16,1.54-11.09,4.38-.53.53-1.01,1.11-1.44,1.72,1.88-1.07,1.85-1.29-.11-.66-1.88.02-4.09.82-5.95,1.17h5.32c2.16,1.52,2.49,1.71.98.58l-2.02-1.56c-1.68-1.06-3.41-1.64-5.37-1.81-4.89-.43-7.13,2.3-10.74,3.88l14.69,11.29c.43-1.66.65-2.91,1.35-4.31.87-1.73,1.86-3.19,2.43-5.13s1.19-4.26,1.29-6.36c.08-1.64-.63-4.05-.59-5.02l-1.37,5.05c-2.39,3.57.68.17,1.61-.76,1.28-1.28,2.62-3.45,3.1-5.2.55-1.99.48-4.27.08-6.26-.12-.6-.18-3.17-.33-1.45l-1.37,5.05c1.52-3.22,2.98-4.44,4.73-7.42,2.24-3.8,1.15-6.55,1.6-10.43l-1.37,5.05c1.57-3.03,2.14-3.14,3.75-4.79,3.03-3.12,4.7-8.07,5.48-12.19.29-1.53.38-3.28,1.07-4.7-1.4,2.9,1.78-1.65,2.17-2.3,1.2-2.01,1.79-4.14,1.73-6.5,0,.22-1-6.15-1.09-4.35l-1.37,5.05.47-.63-3.59,3.59c1.75-1.22,3.75-2,5.3-3.54,2.74-2.74,3.04-5.85,3.81-9.41,1.12-5.16,1.55-9.25,3.28-13.7l-2.57,4.41c-.54.68-.13.02.52-.35,1.17-.67,2.31-1.58,3.24-2.54,2.17-2.25,2.55-5,3.96-7.63.97-1.82,2.33-3.31,2.9-5.38.43-1.57.48-3.39.25-4.98-.02-.15-.37-3.51-.51-1.54.63-8.44-11.52-13.48-17.07-7.07-.39.45-2.53,3.37-1.96,2.72l4.41-2.57c1.96-.68-4.56.28-4.26.21-2.4.59-4.43,1.88-6.09,3.69s-1.86,2.54-3.2,3.85c-.12.12-3.81,3.63-1.71,2.1,1.3-.09,1.24-.12-.18-.1-1.24.07-2.48.21-3.71.43-2.12.54-3.97,1.77-5.74,3-2.1,1.46-4.1,2.88-5.39,5.17-.54,1.11-.99,2.26-1.36,3.44-.29,1.35-.35,1.54-.19.56l3.59-3.59c-.19.08-3.28.55-4.55,1.33-1.68,1.02-3.12,2.53-4.65,3.76-1.66,1.33-3.57,2.49-5.01,4.06-.88.85-1.55,1.83-2.01,2.95-1.4,2.98-1.37,3.17.11.58l4.41-2.57c.54-.21-.51.31-.96.34-1.32.09-2.5.36-3.74.77-3.52,1.16-4.86,3.38-7.05,5.99-1.48,1.76-4.34,3.68-6.18,4.4-1.64.64-3.41.94-.77.58-1.3.18-2.67.11-3.95.44-2.12.55-4.24,1.7-6.13,2.79-2.6,1.5-4.63,3.39-5.86,6.16-.56,1.26-.72,2.13-.93,3.49-.09.63-.17,1.26-.25,1.89-.18,1.35-.04.76.43-1.76l3.59-3.59c-.48.31-3.66,2.83-1.61,1.47,1.09-.72.54-.19-.71-.16-3.22.1-5.64,1.24-8.42,2.77-5.09,2.81-6.27,6.31-8.19,11.38l2.57-4.41c-.11.13-2.83,1.42-3.88,2.09-2.83,1.79,1.12-.06-.57.19-1.51.22-2.95.25-4.43.71-4.57,1.43-7.77,5.49-11.32,8.4l4.41-2.57c2.2-.63-4.62.13-4.19.03-2.16.52-3.97,1.5-5.52,3.09s-2.48,3.39-3.04,5.49c-.17,1.22-.34,2.43-.5,3.65.19-.89.14-.82-.14.2l2.57-4.41-.43.52,4.41-2.57c-2.17.69-6.11,1.24-9.07,2.96s-4.79,3.82-7.32,5.81l4.41-2.57c-2.72,1-5.38,1.38-7.8,3.15-1.65,1.21-2.96,3.61-3.98,4.6l4.41-2.57-.77.16h5.32c-3.21-.55-5.93-1.81-9.31-.97-2.83.7-5.23,3.01-6.58,4.21-4.1,3.64-6.45,5.79-11.23,6.44-3.18.43-6.05,1.96-8.68,3.76-1.87,1.28-3.01,2.31-4.29,4.19-.38.56-2.28,3.7-.05.45-1.47.93-1.67,1.13-.59.61,1.07-.33.84-.48-.69-.45-1.81-.19-4.73.69-6.2,1.56-1.36.8-2.53,1.97-3.5,3.2-.26.33-2.65,3.52-1.5,2.5l4.41-2.57c1.42-.31-.77-.31-1.28-.32-1.4-.04-2.84.25-4.2.54,4.22,3.21,8.44,6.43,12.66,9.64l.14-1.36-1.37,5.05c1.09-2.26,2.28-4.33,2.73-6.84.32-1.84-.15-5.47-.09-6.16l-1.37,5.05c-2.14,1.97-1.96,1.92.55-.13l.75-.63c1.62-1.69,2.13-3.43,3.1-5.45-.1.59.05.41.47-.54l1.01-2.39c.66-1.88.51-3.92,1.08-5.76.48-1.54-.37,1.31.18-.24.68-1.91,1.6-3.4,1.95-5.4.32-1.86.28-3.53-.25-5.39-.32-.96-.71-1.89-1.15-2.8-.84-1.51-.77-.93.22,1.74l-1.37,5.05c-2.23,1.94-2.08,1.89.46-.15l.72-.64c1.8-1.89,2.82-4.24,3.26-6.78.32-1.86.28-3.53-.25-5.39-.32-.96-.7-1.89-1.15-2.8-.84-1.51-.76-.92.22,1.74l-1.37,5.05c-2.19,1.96-2.02,1.91.5-.14.62-.44,1.12-.99,1.52-1.64,1.33-1.71,2-3.7,2.84-5.7l-2.57,4.41c2.59-3.33,4.91-6.65,4.81-11.07-.03-1.35-.6-4.85-1.6-5.95.35,3.83.74,4.71,1.17,2.65.45-1.12.34-1.19-.32-.2-.98,2.4,2.32-2.68,2.24-2.54,1.11-1.82,1.74-3.98,1.83-6.1s-.35-4.15-1.34-6.05c-.43-1.09-1.09-2.06-1.96-2.88-.82-.89-.84-1.02-.06-.4l1.37,5.05.02-1-1.37,5.05c-.79,1.55-2.55,2.49.11.56,1.35-.98,2.34-1.86,3.25-3.37,1.52-2.54,2.08-5.5,1.75-8.41-.13-1.17-.56-3.95-1.43-4.62.05.04,1.19,5.44,1.23,2.66l.31-.88c-2.79,2.63-3.24,3.19-1.37,1.66,1.32-1.07,2.3-1.9,3.22-3.46,2.02-3.42,1.86-7.42,3.38-10.99.6-1.41,1.99-3.14,2.62-5.43s.13-5.99,0-7.52c-.6-7.41-8.07-12.65-15.05-8.63-.63.36-3.17,1.14-4.41,1.91-2.57,1.6-3.35,4.02-5.09,6.14s-5.7,3.38-7.93,5.73c-1.61,1.69-2.87,3.87-4.55,5.46.96-.9-.55.25-.87.47-1.13.75-2.2,1.61-3.25,2.45-1.97,1.57-4,3.1-5.3,5.31-.59,1-1.09,2.17-1.39,3.3-.12.44-.85,2.29-.08,1.05l3.59-3.59c-2.22,1.26-5.21,1.74-7.34,4.39-1.03,1.29-1.79,2.57-2.26,4.21-.11.4-.95,3.16-.08,1.66l3.59-3.59-.71.35,5.05-1.37c-3.51.28-6.72-.13-9.95,1.76-3.63,2.12-6.79,6.45-8.36,10.21-.61,1.54-.6,1.53.03-.04l-.97,1.15c-.53.27-2.18,1.42-2.99,1.97-1.72,1.17-3.04,2.55-4.03,4.41-.66,1.07-1.06,2.23-1.2,3.46-.6,3.32-.51,3.54.28.66l3.59-3.59c-2.44,1.76-4.9,2.39-6.91,4.91-1.02,1.29-1.78,2.58-2.24,4.21-.12.4-.93,3.13-.05,1.55l3.59-3.59-.71.37,5.05-1.37c-3.27.34-6.28-.14-9.34,1.51-2.82,1.51-4.82,4.12-5.74,7.18-1.94,6.47,1.34,1.36.62.73.54.48-2.01,1.89-2.02,1.9-2.49,1.8-4.43,3.28-6.46,5.69-3.75,4.46-7.69,8.78-10.61,13.86-.22.39-1.3,3.95-1.73,3.99.5-.04,3.61-4.75-1.23-.22-1.21,1.13-2.14,2.38-2.91,3.84l-1.01,2.39c-.57,1.77-.31,1.65.77-.37l4.41-2.57c-3.98,1.68-7.28,3.24-10.39,6.34-2.17,2.16-2.72,4.48-4.4,6.81.79-1.11-2.27,2.22-2.65,2.7-2.37,2.99-4.75,6.07-6.4,9.51-1.49,3.08-2.17,8.41-2.99,10.6l2.57-4.41c-1.62,1.61-4.59,3.22-6.58,5.12-2.91,2.77-3.31,6.19-4.78,9.7l2.57-4.41c-2,2.09-4.97,4.48-6.78,7.65-1.4,2.44-2.33,4.67-2.49,7.52-.15,2.52,1.47-1.05-.66,1.31-1.26,1.39-2.28,3.6-3.2,5.24-.31.55-2.2,4.56-.39,2.08-1.15,1.59-3.43,2.44-4.67,4.18-1.5,2.11-2.3,4.37-2.37,6.98.07,1.26.21,2.51.43,3.75l.04-2.16c.36.33-1.79,4.08-2.07,4.64,1.2-.74,1.37-.83.5-.25-.89.59-1.74,1.24-2.55,1.93-.42.4-4.83,6.07-3.98,6.71-.1-.07,3.46-3.06-.04-.81-2.42,1.56-4.38,3.85-5.21,6.65-.6,2.02-.6,4.11-.15,6.16.1.72.3,1.42.6,2.09.47,1.38.53,1.42.18.12l2.93-7.07c2.59-1.26,3-1.62,1.25-1.09-.56.11-1.1.29-1.62.54-2.65.96-4.96,2.53-6.41,5.01-1.22,2.09-1.75,4.67-1.65,7.06.1,1.24.29,2.46.57,3.66.5,2,.64,1.23.42-2.3l4.6-5.98-.6.29,12.12,1.56c-1.16-1.15-2.62-1.95-3.77-3.09,2.01,1.99-2.13-2.08-.52-1.56.16,3.53.34,4.12.54,1.76.13-.82.22-1.64.28-2.47-.01-1.95-.63-4.31-1.6-5.97s-2.67-3.23-4.28-4.22l-.98-.46c-2.64-1.26-3.15-1.42-1.53-.48,1.8,2.97-2.43-4.39-.17.27,1.68,3.45.53-2.14.27-3.15-.66-2.55-2.01-5.05-2.84-7.56-.6-1.8-1.26-3.47-2.11-5.18-1.7-3.44.31,2.78-.74-3.32-.52-3.03-.99-6.29-2.66-8.92s-4.41-3.86-6.86-5.72l3.59,3.59-.42-.66,1.37,5.05c-.08-1.78.66-5.83-.42-8.65-.62-1.63-1.28-2.66-2.49-4.04-.36-.41-1.67-2.52-.97-1.08l1.37,5.05.06-.78-1.37,5.05c1.46-3.12,3.37-5.66,3.39-9.31.02-4.07-2.95-8.58-6.69-10.28-1.91-1.22-1.32-.44,1.76,2.34l-.3-1.5c.42-1.22.15-2.6.27-3.85.23-2.41.68-4.39.11-6.84-.33-1.43-1.61-3.89-1.75-4.4v5.32c-.4,1.76,2.16-3.98,2.08-3.72.59-1.91.78-4.55.92-6.56.35-5.3-2.33-8.29-5.43-12.17l2.57,4.41-.3-.9v5.32c-.44,1.42-1.92,2.94-.02,1.1,1.03-1,1.76-2.31,2.35-3.59,1.42-3.05.91-5.78.43-8.94-.25-1.62-.57-3.4-.52-5.05.04-1.38.54-2.76.58-4.15,0-.96-.08-1.91-.25-2.85-.2-1.79-.24-1.77-.12.06l-2.57,4.41c2.92-3.4,4.98-5.66,5.51-10.34.16-1.42.44-3.04.45-4.47,0-1.01-1.7-8.72-1.31-4.83l-1.37,5.05c-.76.65-.67.53.29-.35.81-.88,1.57-1.81,2.25-2.8,1.18-1.91,1.58-4.01,1.97-6.16.49-2.68,1.06-5.23.33-7.94-.35-2.06-.5-1.64-.44,1.26.57-1.24,1.08-2.51,1.52-3.81.24-.98.44-1.97.6-2.96-1.34,1.62-1.4,1.88-.18.76,1.89-1.4,3.01-3.79,3.8-5.91s1.59-4.57,1.73-6.93c.21-1.28.13-2.55-.25-3.81-.32-1.75-.26-1.69.19.2.58-1.85.55-1.94-.07-.26,1.03-.77,1.87-1.72,2.53-2.85,1.09-1.55,2.19-3.14,3.13-4.78,2.11-3.69,3.84-7.95,5.3-11.92.86-2.34,1.08-4.6,1.7-6.99-.37,1.43.79-1.37,1.12-1.78,1.62-2.05,3.38-3.38,4.22-6.09.46-1.47.27-4.46.38-4.91l-2.57,4.41c2.43-2.93,4.86-4.4,6.24-8.39.82-2.38,1.75-7,2.19-8.29l-2.57,4.41c2.16-2.67,4.42-5.03,6.06-8.1-.64,1.2-1.92,1.57.18.47,1.48-.77,2.48-1.92,3.64-3.02,2.33-2.2,4.62-4.57,5.42-7.79.5-1.99.38-4.17-.09-6.15-.56-2.42.35-2.55-.69.98l-2.57,4.41c2.11-2.39,4.41-5.29,6.87-7.32l-4.41,2.57c3.71-1.49,7.58-2.6,9.75-6.3.97-1.66,1.56-3.9,1.6-5.8-.06-1.22-.21-2.44-.43-3.65-.31-1.92-.39-1.46-.26,1.38l-4.6,5.98c-1.23.87,1.28-.22,1.75-.37,2.34-.75,4.5-2.15,5.97-4.12,2.33-3.12,2.37-6.48,2.75-10.16l-1.37,5.05c2.45-5.61,7.66-6.65,10.56-11.96,1.31-2.39,2.11-3.24,3.78-4.44,2.95-2.14,6.5-4.44,8.37-7.6.59-.88,1.03-1.83,1.32-2.87.6-1.5.57-1.53-.08-.08-.87,1.41-.63,1.46.7.14.44-.4.93-.7,1.49-.9,2.78-1.65,4.9-3.32,7.32-5.53s4.71-3.88,6.51-6.87c1.22-2.01,2.68-5.62,3.58-6.93l-3.59,3.59.85-.4-5.05,1.37c4.69-.48,8.7-.69,12.04-4.45,1.55-1.74,1.71-2.64,2.56-3.93.92-.91,1.62-1.95,2.1-3.14-2.84,1.52-3.49,2.02-1.96,1.5,1.03-.29,2.02-.68,2.98-1.18-2.08.26-2.19.29-.32.08,2.99-.37,5.93-1.15,8.15-3.37,1.59-1.59,2.63-3.63,3.13-5.79.22-1.2.36-2.41.42-3.62.13-1.94-.11-1.38-.71,1.7l-3.59,3.59c.82-.37,4.02-.99,5.61-2.19s2.97-3.81,3.75-4.68l-4.41,2.57c.37-.14,3.05-.45,4.28-.8,2.32-.67,3.62-1.96,5.56-3.23,2.42-1.59,5.11-2.65,7.57-4.31s5.25-2.87,7.8-4.46c1.42-.89,2.81-1.75,3.97-2.99.88-.87,1.56-1.86,2.04-2.98,1.37-2.96,1.37-3.17-.02-.64l-4.41,2.57c2.27-.77,6.49-1.58,9.5-3.73,1.82-1.3,3.5-2.45,4.94-4.15.52-.66,1.03-1.33,1.53-2-2.35,2.03-2.07,2.25.81.66,3.12-1.39,6.7-2.62,9.66-4.26.97-.54,3.25-3.24,3.8-3.09-3.06,1.09-2.91,1.28.47.59.8-.22,1.6-.38,2.42-.48h-5.32c4.85.84,8.31,1.02,12.93-.87,2.57-1.05,4.76-2.17,6.49-4.38.83-1.06,1.21-1.85,1.74-3.08.26-.56.49-1.13.7-1.72.49-1.22.18-.74-.92,1.47l-7.07,2.93c-1.92.1,4.55,1.13,4.29,1.12,2.07.06,4.2-.34,6-1.4,3.02-1.79,4.29-4.61,6.21-7.33l-3.59,3.59.63-.45-5.05,1.37c2.08-.25,4.01.29,6.14-.12,2.96-.57,5.09-2.13,7.72-3.46l-5.05,1.37c-2.18.05,4.51,1.12,4.12,1.11,2.09.07,4.16-.31,5.99-1.38,3.12-1.83,4.37-4.72,6.33-7.52l-3.59,3.59.65-.44-5.05,1.37c-2.78-.74-2.65-.55.41.57,1.16.53,2.4.78,3.71.75,2.32.09,4.11-.55,6.2-1.38,3.37-1.34,6.68-2.4,10.23-3.22,12.54-2.87,7.23-22.16-5.32-19.29Z"/>
  </g>
  <path d="M682.08,110.22c1.86-2,3.95-3.78,5.83-5.76s3.28-5.4,4.18-6.75l-3.59,3.59c.97-.54,4.01-1.19,5.58-2.42,1.44-1.14,3.14-4.02,3.62-4.57l-4.41,2.57c-1.12-.05-.97-.05.43.02,1.26,0,2.51-.14,3.75-.39,2.49-.63,4.47-1.94,6.06-3.91,1.17-1.44,1.94-2.92,2.38-4.76.2-1.2.35-2.41.45-3.63.16-1.96-.04-1.38-.61,1.73l-5.98,4.6-2.06.11c1.07.17,2.15.31,3.23.42,1.37.03,2.82-.13,4.15-.51,3.22-.93,5.25-3.57,7.76-5.58l-4.41,2.57c2.7-1.07,5.35-1.72,7.88-3.25,1.85-1.12,3.46-2.18,5.49-2.96s4.71-2.48,6.84-2.74c-1.17.14,1,.37,1.4.37,1.56.03,3.14-.45,4.61-.89,2.89-.86,5.72-1.88,7.98-3.92.51-.46.93-1.03,1.44-1.48-2.69,2.33-1.03.71.15.71,2.61,0,5.35-.65,7.95-1.03,2.2-.33,5.31-1.77,6.44-2.11h-5.32c-.85-.58-.7-.5.43.25,1.07.6,2.18,1.11,3.34,1.51,2.05.61,4.39.58,6.51.49,5.2-.23,7.98-2.31,11.94-5.37l-4.41,2.57c-.8.13-.4.18,1.18.14.95.09,1.88.04,2.81-.15,2.02-.24,3.79-.98,5.76-1.4h-5.32l.74.24-4.41-2.57c2.57,2.13,4.26,4.55,7.75,5.53,4.62,1.31,6.67-.95,10.14-1.88h-5.32c.99.32,3.69,2.1,5.69,2.38s4.03.09,6,.33c2.63.31,4.9.81,7.53.06,1.6-.46,2.91-1.34,4.19-2.37,1.9-1.52,2.74-1.26-.26-.5,12.47-3.16,7.19-22.45-5.32-19.29-1.43.36-2.7.98-3.93,1.77l-2.02,1.56c-1.42,1.2-1,1.11,1.27-.27h5.32c-2.34-.41-4.63-1.1-7.02-1.23-.98-.02-1.97,0-2.95.1,1.75.54,1.85.38.31-.46-2.46-1.65-6.02-2-8.8-1.36-1.55.36-3.59,1.76-4.45,2.01h5.32l-.74-.25,4.41,2.57c-1.7-1.42-3.03-3.26-4.99-4.4-3.6-2.1-6.86-1.31-10.66-.65-2.33.41-4.72-.02-7.11.66-3.03.86-4.99,2.95-7.37,4.81l4.41-2.57c.81-.01.42-.02-1.15-.03,2.02,1,2.27,1.04.75.14-1.33-.77-2.75-1.32-4.25-1.65-4.41-.97-7.81,1.38-11.02,2.01-6.73,1.32-13.34.83-18.36,6.35,2.62-2.88.69-.26.26-.29-1.94-.13-3.64-.29-5.6.2-2.94.74-5.91,2.22-8.77,3.35-1.94.76-3.91,1.54-5.78,2.46-1.21.59-2.25,1.75-3.37,2.3-1.71.83-3.52.92-5.24,1.93-2.04,1.19-3.59,3.06-5.37,4.57l4.41-2.57c2.92-.07,2.71-.24-.62-.5-1.27-.22-2.54-.14-3.8.24-2.55.6-4.46,1.82-6.1,3.83-1.17,1.43-1.96,2.89-2.4,4.73-.2,1.2-.35,2.41-.45,3.62-.17,1.94.05,1.38.64-1.7l5.98-4.6c1.64-.61-.94-.04-1.53,0-1.99.12-4.15.69-5.9,1.71-1.56.91-3.44,2.78-4.32,4.43-1.2,1.81-.6,1.53,1.81-.86-.86.12-1.68.38-2.45.79-4.54,1.82-5.37,4.73-7.64,8.55-.38.99-.29.76.27-.68-.57.48-1.1,1-1.6,1.55-1.24,1.23-2.51,2.42-3.7,3.7-8.74,9.43,5.37,23.6,14.14,14.14h0Z"/>
  <path class="cls-1" d="M475.78,163.23c-1.09.92-1.93,2.13-2.61,3.37l-1.01,2.39c-.71,1.72-.45,1.39.77-.99l7.07-2.93c2.77.96,3.16,1.05,1.19.26-.72-.31-1.45-.61-2.17-.92-1.41-.42-2.88-.57-4.34-.53-2.01.07-3.79.65-5.5,1.7-.68.41-3.95,3.5-2.62,2.62,1.67-1.11-1.68.55-2.16.73-2.06.79-3.13,1.5-4.84,2.72-2.43,1.73-4.3,3.76-6.57,5.57l4.41-2.57-.77.13h5.32c-4.3-.88-8.26-2.41-12.47.06s-4.75,6.3-6.38,10.24l2.57-4.41c.7-.42.41-.18-.88.73-.81.55-1.61,1.13-2.38,1.74-1.1.78-2.15,1.63-3.13,2.55,1.32-.89,1.48-1.17.48-.86-1.11-.63-5.3,2.5-6.02,3.15-.99.91-2.91,3.29-3.01,3.38l4.41-2.57c1.93-.6-4.69.08-4.39.01-1.96.48-3.86,1.42-5.3,2.86-1.34,1.34-2.46,3.25-3.02,5.04-.33,1.16-.52,2.35-.59,3.57-.26,1.87-.1,1.41.47-1.38l3.59-3.59c-1.41.72-5.4,2.14-7.64,3.45-3.8,2.22-4.53,5.58-6.33,8.27-7.17,10.73,10.14,20.75,17.27,10.09.83-1.25,1.77-3.8,2.11-4.29l-3.59,3.59c3.25-2,6.12-2.14,9.29-4.62,1.92-1.5,3.3-3.5,4.02-5.84.32-1.17.51-2.36.58-3.58.25-1.88.1-1.42-.46,1.4l-5.98,4.6c-1.95.64,4.67-.09,4.38-.02,2.01-.49,3.8-1.43,5.31-2.85.76-.71,2.93-2.67,3.06-3.72-2.84,1.97-3.22,2.62-1.12,1.97.97-.41,1.94-.82,2.91-1.23,2.58-1.43,5.14-3.78,7.54-5.57,1.58-1.18,3.09-2.42,4.11-4.16.46-1.08.92-2.16,1.36-3.25.6-1.74.22-1.4-1.14,1.01l-4.41,2.57.76-.15h-5.32c2.81.56,4.97,1.56,7.99,1.28,3.48-.33,5.7-2.22,8.16-4.49,1.23-1.14,2.17-1.76,3.76-2.48s3.19-1.21,4.69-2.2c.71-.47,2.63-2.64,2.5-2.55l-5.05,1.37c-.5-.03-.97-.15-1.41-.37,1.05.56,2.15.98,3.3,1.26,2.45.58,4.97.4,7.28-.57s4.09-2.54,5.37-4.6c.58-1.04,1.06-2.12,1.46-3.24.7-1.73.45-1.4-.76,1.01,4.13-3.48,3.59-10.55,0-14.14-4.09-4.09-10-3.49-14.14,0h0Z"/>
  <path class="cls-1" d="M430.84,152.09c-.77.57-1.52,1.14-2.27,1.73-1.79,1.16-1.27,1.21,1.56.16-.29-.53-5.44.41-4.93.29-3.59.87-4.77,3.14-7.42,5.11-1.72,1.27-4.2,2.24-6.15,3.55-2.79,1.89-4.3,4.24-6.45,6.37l4.41-2.57c-2.51.93-6.52,1.09-9.75,2.22-5.1,1.78-8.48,6.85-6.98,12.3,1.36,4.95,7.18,8.77,12.3,6.98s12.56-1.22,16.59-7.66c1.31-2.09-1.52.14,1.29-1.24,1.38-.68,2.83-1.49,4.17-2.24,2.88-1.62,4.4-3.73,6.8-5.8l-4.41,2.57c-1.02.32-.17.02.54.13,1.37.21,2.94-.16,4.23-.52,2.7-.76,4.41-2.47,6.58-4.11,4.31-3.24,6.54-8.64,3.59-13.68-2.48-4.25-9.34-6.85-13.68-3.59h0Z"/>
  <path class="cls-1" d="M742.1,320.3c1.62,4.23,3.72,8.05,5.61,12.12s4.49,6.37,8.12,9.09l-3.59-3.59.55.77-1.37-5.05c-.17-2.19-.66,1.05-.87,1.89-.46,1.93-.46,4.21.06,6.11,1.15,4.19,4.73,6.32,8.1,8.59l-3.59-3.59c.28-.64.48-.22.61,1.26.4-1.96.39-2.37-.02-1.22-1.16.78-.95,4.18-.9,5.32.55,12.82,20.55,12.89,20,0,.08,1.78,1.14-4.57,1.13-4.35.07-2.32-.64-4.38-1.44-6.51-1.85-4.9-4.39-7.17-8.62-10.03l3.59,3.59-.58-.77,1.37,5.05c.17,2.19.66-1.05.87-1.89.46-1.93.46-4.21-.06-6.11-1.14-4.14-4.66-6.26-7.87-8.68l3.59,3.59c-2.21-3.09-4.03-7.36-5.4-10.93-1.94-5.04-6.73-8.52-12.3-6.98-4.82,1.32-8.93,7.23-6.98,12.3h0Z"/>
  <path class="cls-1" d="M777.53,324.24c.03-.81.23-1.57.6-2.28.37-.82.38-.84,0-.05-.51,1.15-1.1,2.31-1.45,3.52-.86,2.92-.45,6.35,1.08,8.96.18.3,2.82,4.29,3.37,4.01-.99.49-1.07-6.67-1.65-3.07-.23,1.4.32,3.01.6,4.38,1.05,5.13,7.4,8.57,12.3,6.98,5.44-1.76,8.11-6.8,6.98-12.3.63,3.08-.54-4.33-.35-3.49-.3-1.29-.7-2.59-1.41-3.73-.63-1.03-1.49-2.06-2.33-2.92l-.93-.85c.83,1.32,1.02,1.53.57.64l1.37,5.05c.09.86-.45,2.17-.88,2.91.42-.72.71-1.59,1.03-2.35.71-1.69,1.29-3.55,1.09-5.42-.56-5.18-4.2-10.26-10-10-4.94.22-10.6,4.43-10,10h0Z"/>
</svg>