<?xml version="1.0" encoding="UTF-8"?>
<svg id="_レイヤー_2" data-name="レイヤー 2" xmlns="http://www.w3.org/2000/svg" viewBox="0 0 1000 1000">
  <defs>
    <style>
      .cls-1 {
        fill: #fff;
      }
    </style>
  </defs>
  <g>
    <path class="cls-1" d="M914.26,330.13c-.11-1.5-1.9-2.85-2.05-4.35s1.55-3.2,1.36-4.69-1.07-2.9-1.3-4.39.87-3.22.6-4.7-3.7-2.33-4.01-3.8,2.31-3.61,1.96-5.07-1.33-2.79-1.73-4.24-1.73-2.64-2.16-4.08.16-3.21-.31-4.64-.53-3.03-1.04-4.44-2.66-2.23-3.2-3.64-2.2-2.33-2.78-3.72-1.27-2.68-1.89-4.06,1.25-3.88.61-5.24-2.72-2.02-3.41-3.36-1.36-2.67-2.07-3.99-1.84-2.4-2.59-3.7.8-3.97.02-5.26-1.92-2.39-2.73-3.66-4.21-.83-5.05-2.08.78-4.18-.09-5.41-2.34-2.04-3.24-3.25-2.2-2.11-3.13-3.29-.97-3.09-1.93-4.26-2.14-2.17-3.12-3.31-2.1-2.19-3.11-3.3-3.67-.69-4.71-1.78.49-4.67-.58-5.74-3.93-.32-5.02-1.36-3.13-1.01-4.24-2.03-.96-3.41-2.09-4.4-2.44-1.78-3.59-2.74-1.16-3.37-2.34-4.31-2.31-2-3.51-2.91-3.8.07-5.03-.8-2.57-1.55-3.81-2.4-2.89-1.03-4.16-1.84-2.01-2.4-3.3-3.19-1.4-3.56-2.7-4.32-3.15-.6-4.47-1.31-2.68-1.4-4.02-2.09-2.62-1.53-3.98-2.19-3.04-.58-4.41-1.2c-1.06-2.01,1.82-1.5,2-4.4.08-1.27-1.95-2.91-1.89-4.65.04-1.38,1.76-2.88,1.76-4.52,0-1.42.4-2.98.36-4.58-.03-1.44-1.23-2.94-1.31-4.52-.07-1.46-.38-2.97-.5-4.53-.11-1.47-1.65-2.84-1.8-4.39s-.77-2.89-.96-4.43.03-2.99-.19-4.52-1.12-2.82-1.39-4.33,1.06-3.23.76-4.73,1.14-3.34.79-4.84-3.13-2.34-3.52-3.82,1.66-3.6,1.23-5.06-1.35-2.78-1.83-4.23-3.62-1.93-4.14-3.37-.34-3.05-.9-4.47,1.23-3.8.62-5.19-1.54-2.67-2.2-4.04-1.67-2.58-2.38-3.93-3.17-1.7-3.92-3.02.91-4.07.1-5.36-3.09-1.63-3.94-2.89-2.81-1.68-3.71-2.9-1.38-2.69-2.33-3.88.15-4.08-.85-5.23-2.45-1.93-3.5-3.04-3.69-.61-4.78-1.68-1.07-3.26-2.2-4.28-2.04-2.3-3.22-3.27-1.84-2.62-3.06-3.55-3.34-.62-4.59-1.5-1.94-2.58-3.23-3.4-2.85-1.21-4.16-1.98-3.73.49-5.07-.23-2.57-1.49-3.94-2.17-1.57-3.76-2.96-4.38-3.63.8-5.05.22-2.23-2.58-3.67-3.11-3.54,1.02-4.99.53-1.95-3.84-3.42-4.28-3.86,2.58-5.34,2.18-2.16-3.73-3.65-4.08-3.38,1.29-4.88.98-2.59-2.48-4.1-2.75-2.91-1.06-4.42-1.3-3.22,1.13-4.74.93-2.94-.86-4.46-1.03-2.94-1.17-4.46-1.3-3.2,2.39-4.73,2.29-2.96-.63-4.49-.7-3.01.54-4.54.5-2.98-1.25-4.51-1.26-3,1.4-4.53,1.42-3.06-2.8-4.59-2.76-3.01.71-4.54.77-2.93,1.83-4.45,1.92c-1.27.07-2.88-1.09-4.56-.85-1.36.2-2.43,2.72-4.01,3.01-1.39.26-2.84.41-4.37.73-1.41.3-3.02-.18-4.52.16-1.42.32-3.41-1.57-4.89-1.21s-2.71,1.44-4.17,1.81-3.11-.09-4.56.3-2.61,1.84-4.05,2.23-2.76,1.29-4.18,1.69-3.48-1.19-4.9-.78-2.24,3.11-3.64,3.53c-1.47.44-2.46,2.31-3.84,2.74-1.49.47-2.97.68-4.32,1.13-1.53.5-3.74-1.38-5.04-.93-1.6.56-2.65,2.08-3.83,2.55-1.38.54-3.32-.71-4.71-.29s-2.24,2.93-3.67,3.24-2.8,1.54-4.25,1.74-3.15-1.41-4.62-1.31-2.91,1.67-4.38,1.68-2.85-3.04-4.32-3.12-3.09,2.26-4.56,2.11-2.99-.04-4.45-.26-2.92-.54-4.37-.81-2.5-2.4-3.94-2.71-2.74-1.04-4.17-1.4-2.73-1.04-4.15-1.43-3.22.69-4.64.28-2.53-1.77-3.94-2.2-2.52-1.77-3.92-2.2-2.93-.44-4.33-.88-2.68-1.3-4.08-1.73-2.86-.74-4.25-1.17-3.02-.23-4.42-.64c-1.43-.42-3.3.71-4.74.32s-3.14.31-4.58-.06-2.81-.94-4.25-1.29-2.77-1.16-4.22-1.48-2.59-2.14-4.04-2.44-3.37,1.77-4.83,1.5-2.38-3.63-3.84-3.88-3.16.86-4.63.64-3-.02-4.48-.21-2.75-2.08-4.23-2.25-2.96-.53-4.44-.68-3.26,3.01-4.74,2.89-2.83-1.93-4.31-2.03-3.06,1.57-4.54,1.5-2.9-1.41-4.39-1.45-2.94-1.49-4.43-1.52-2.99,2.58-4.48,2.58-2.94.27-4.43.29-3-1.59-4.48-1.54-2.89,1.74-4.37,1.82-3.03-1.16-4.51-1.06-2.88,1.2-4.36,1.33-3.2-2.37-4.68-2.23-2.93.71-4.41.88-3.03-.11-4.5.09-2.9.83-4.37,1.05-3.02.06-4.49.3-2.99.3-4.45.57-2.41,3.22-3.86,3.52-3.46-1.98-4.91-1.66-2.33,3.17-3.78,3.51-3.01.15-4.45.52-2.87.73-4.31,1.12-3.59-1.72-5.01-1.31-2.63,1.67-4.05,2.11-2.35,2.43-3.76,2.9-3.59-1.29-4.99-.8-2.85.96-4.24,1.47-2.2,2.64-3.59,3.17c-1.37.53-2.58,1.43-3.94,1.98s-2.31,2.04-3.65,2.62-2.76.94-4.1,1.54-3.2.05-4.52.68-2.66,1.25-3.97,1.9-2.41,1.73-3.7,2.41-1.75,2.87-3.03,3.58-4.2-1.45-5.47-.71-1.82,2.69-3.07,3.46-2.21,1.98-3.43,2.79-1.74,2.61-2.95,3.45-3.97-.54-5.15.33-1.68,2.67-2.83,3.57-1.27,3.06-2.4,3.99-4.04-.24-5.15.72-2.72,1.44-3.79,2.44-1.14,3.09-2.18,4.12-2.11,2.05-3.11,3.12-.99,3.05-1.96,4.15-3.2,1.12-4.13,2.26-2.5,2.01-3.39,3.23.54,4.07-.27,5.34-2.6,1.94-3.34,3.26-1.19,2.79-1.87,4.15-3.14,1.92-3.75,3.32-.21,3.25-.75,4.67-.44,3.08-.92,4.52.47,3.29.05,4.75-3.82,2.12-4.18,3.6-.28,3.1-.6,4.59,1.77,3.44,1.49,4.94-3.71,2.46-3.94,3.97,1.72,3.33,1.52,4.84.15,3.07-.02,4.58-2.87,2.77-3.01,4.28,2.1,3.24,1.98,4.76-1.08,2.97-1.18,4.48-.57,3.01-.66,4.53-.69,3.01-.77,4.53c-.09,1.68.84,3.27.57,4.63-.33,1.67-.43,3.31-1.03,4.56-.71,1.49-2.62,1.88-3.69,2.89s-.97,4.27-2.42,4.93c-1.31.6-3.81-1.69-5.4-1.31-1.4.34-2.45,3.07-4.05,3.31-1.44.22-3.29-1.97-4.89-1.77-1.46.18-3.11-.68-4.69-.49-1.47.18-2.98.68-4.55.91-1.47.21-2.74,2.13-4.29,2.41-1.47.26-3.38-1.34-4.92-1-1.46.32-2.62,2.22-4.14,2.62s-2.99.62-4.49,1.1-2.56,1.86-4.02,2.42-2.19,2.47-3.63,3.1-3.03.48-4.43,1.19-4.06-1.16-5.42-.39-1.01,4.25-2.34,5.08-2.29,1.91-3.58,2.8-2.96.98-4.21,1.92-2.65,1.49-3.86,2.48-3.25.87-4.43,1.9-2.22,2.11-3.36,3.19-.85,3.45-1.88,4.48-4.09.27-5.08,1.34-.93,3.25-1.88,4.36-1.22,2.88-2.12,4.03-3.11,1.44-3.96,2.63.09,3.69-.7,4.92-1.55,2.5-2.29,3.77-3.7,1.41-4.36,2.72-1.24,2.81-1.83,4.15,1.27,3.75.75,5.13-2.61,2.24-3.05,3.64.49,3.23.14,4.65-1.62,2.67-1.9,4.12-2.1,2.73-2.3,4.18,2.36,3.28,2.24,4.74-3.61,2.8-3.67,4.27,0,3.08,0,4.55,2.46,2.98,2.51,4.45-.26,3.01-.16,4.48.77,2.95.89,4.41-1.81,3.18-1.68,4.64,2.42,2.81,2.54,4.26c.13,1.53-.08,3.05.01,4.5.1,1.54,1.38,3.03,1.4,4.47.02,1.55-2.78,2.98-2.88,4.41-.11,1.54,2.03,3.35,1.74,4.75-.32,1.5-3.31,2.07-3.89,3.4s1.15,4.17.2,5.34c-.93,1.15-1.43,2.5-2.29,3.69s-2.69,1.65-3.48,2.89-1.96,2.23-2.69,3.51-2.01,2.28-2.67,3.59.58,3.49,0,4.84-1.22,2.6-1.74,3.98-.49,2.86-.93,4.26-3.18,2.1-3.56,3.53.47,3.13.16,4.57-1.53,2.7-1.77,4.15.75,3.06.58,4.52.72,2.96.62,4.42-4.06,2.76-4.09,4.23,1.27,3,1.3,4.47,1.22,2.89,1.32,4.36-1.28,3.08-1.12,4.55-.35,3.08-.11,4.54,4.07,2.24,4.37,3.68-.93,3.19-.56,4.61-1.04,3.39-.6,4.79,2.8,2.2,3.3,3.58,2.02,2.32,2.59,3.68-1.43,3.87-.79,5.19.99,2.89,1.69,4.19,3.79,1.24,4.55,2.5,2.44,1.91,3.28,3.15-.07,3.66.82,4.87,3.19,1.28,4.13,2.45,1.21,2.82,2.2,3.95,1.13,3,2.16,4.09,3.63.58,4.7,1.63,1.69,2.48,2.8,3.49,2.08,2.11,3.22,3.07,2.26,1.9,3.45,2.81,2.31,1.85,3.53,2.71,1.55,3.06,2.81,3.86,3.53-.05,4.82.7,2,2.52,3.32,3.21,3.07.5,4.42,1.13,2.47,1.76,3.85,2.32,2.75,1.16,4.16,1.65,2.63,1.64,4.06,2.05,3.11-.04,4.56.29,2.73,1.67,4.2,1.92,2.94,1.03,4.43,1.19,3.17-2.43,4.66-2.37,2.93,1.6,4.43,1.56,2.87-1.35,4.36-1.49,2.81-.79,4.29-1.04,3.67,2.89,5.13,2.53,2.53-2.22,4.07-2.71c1.39-.44,3.17-.1,4.66-.66,1.38-.51,2.27-2.5,3.71-3.11,1.37-.58,2.25-2.28,3.67-2.94s2.78-1.09,4.16-1.8,4.18,1.36,5.53.61.77-4.72,2.09-5.52,3.83.41,5.12-.43,1.72-2.87,2.96-3.76,2.08-2.23,3.28-3.18,3.16-.91,4.31-1.91,3.03-1.24,4.13-2.29,2.76-1.68,3.8-2.79.85-3.4,1.82-4.57,1.98-2.35,2.86-3.59.24-3.43,1.02-4.73,1.83-2.35,2.49-3.72,2.22-2.31,2.74-3.74.78-2.93,1.14-4.41,2.87-2.67,3.06-4.19-.3-1.89-.3-3.44c.5,1.04-.65,1.62.7,2.86.96.89,2.29,1.84,3.64,2.8,1.12.8,3.9-.78,5.27.05,1.2.73.83,4.36,2.21,5.1,1.25.67,3.21.2,4.6.88,1.29.63,3.29-.18,4.69.44,1.32.59,1.85,3.1,3.27,3.68s2.54,1.64,3.97,2.18,3.59-1.24,5.02-.74,2.47,1.86,3.91,2.32,2.3,2.62,3.74,3.05,3.81-2.59,5.26-2.2,2.35,2.64,3.81,3,2.67,1.62,4.13,1.95,3.16-.59,4.63-.29,2.99.09,4.46.35,2.83,1,4.31,1.22,2.97.14,4.45.33,2.78,1.83,4.27,1.99,2.96.54,4.45.66,3.02-.22,4.51-.14,3.02-1.08,4.51-1.04,2.96-.35,4.45-.36,3.05,2.67,4.54,2.62,2.81-3.46,4.29-3.56,3.02.82,4.51.67,2.93-.42,4.41-.62,3.3,1.76,4.77,1.51,2.93-.81,4.39-1.12,2.24-3.53,3.68-3.89,3.41,1.28,4.84.86,2.07-3.2,3.48-3.69,3.51,1.04,4.9.49,3.27,0,4.63-.61,1.37-4.03,2.71-4.7,3.68.63,4.98-.11,2.73-1.3,3.99-2.1,1.62-2.92,2.84-3.79,2.77-1.33,3.98-2.22,2.08-2.28,3.28-3.18,2.19-2.11,3.37-3.03,3.02-1.07,4.19-2.01,2.63-1.6,3.77-2.56,2.58-1.68,3.71-2.66,2.99-1.25,4.1-2.26.57-3.88,1.66-4.9,1.37-2.93,2.44-3.98,2.35-1.9,3.4-2.97,1.97-2.28,3-3.36,2.64-1.67,3.64-2.78,2.14-2.14,3.12-3.27,3.71-.84,4.67-1.99.62-3.43,1.56-4.6,2.42-1.97,3.33-3.16,2.98-1.6,3.87-2.8,1.3-2.85,2.15-4.08,2.19-2.23,3.02-3.47-.51-3.97.29-5.23,1.13-2.85,1.9-4.13,3.87-1.26,4.61-2.55-1.23-4.16-.52-5.47,1.54-2.59,2.22-3.92,3.19-1.8,3.84-3.14.9-2.95,1.51-4.3,1.45-2.69,2.03-4.06.7-3.01,1.25-4.39,2.14-2.45,2.65-3.84.34-3.14.82-4.53c.51-1.47,1.62-2.7,2.07-4.1.48-1.48-.87-3.48-.45-4.88.45-1.5,3.27-2.26,3.66-3.67.42-1.52-1.18-3.52-.82-4.92.4-1.54,1.92-2.72,2.25-4.1.38-1.58,1.08-2.97,1.4-4.33.39-1.64.24-3.42.56-4.71-.06,1.48.15,3.17.08,4.66s-.84,2.95-.9,4.45-.98,2.97-1.02,4.46,2.36,3.04,2.34,4.53-2.6,3.01-2.58,4.49,1.15,2.99,1.23,4.47-.99,3.13-.84,4.6,3.57,2.54,3.81,4,.34,2.86.69,4.3-.9,3.32-.41,4.72,2.27,2.23,2.91,3.57-.1,3.43.72,4.68,2.58,1.75,3.57,2.89,1.04,3.16,2.2,4.15,2.4,1.87,3.69,2.71c1.21.79,3.51-.32,4.9.36,1.32.65,2.7.76,4.07,1.27s1.99,3.16,3.4,3.55,2.88.72,4.32.99,3.17-1.64,4.62-1.47,2.69,2.53,4.16,2.6,2.95-1.47,4.41-1.48,3.03,2.53,4.49,2.44,2.72-2.89,4.17-3.04,3.18,1.78,4.62,1.57c1.47-.21,2.42-3.14,3.87-3.46s3.77,2.67,5.19,2.25,1.7-4.25,3.09-4.78,2.9-.51,4.25-1.12,3.04-.44,4.35-1.13,2.59-1.41,3.86-2.18,2.62-1.38,3.86-2.21,2.85-1.12,4.05-2.01,1.11-3.38,2.27-4.32,2.29-1.79,3.42-2.77,2.2-1.92,3.28-2.94,4.18.04,5.23-1.01.75-3.42,1.77-4.51,1.35-2.75,2.34-3.87,2.02-2.14,2.98-3.27,3.55-.94,4.47-2.09.69-3.24,1.59-4.42,2.61-1.76,3.48-2.96.16-3.53,1-4.75,3.27-1.36,4.09-2.59,2.71-1.81,3.51-3.05-1.73-4.62-.96-5.88,3.89-1.11,4.65-2.37.71-3.05,1.44-4.32,1.74-2.44,2.46-3.72,1.43-2.63,2.12-3.91,1.29-2.71,1.96-4,.01-3.35.67-4.65c.69-1.36,1.66-2.51,2.29-3.81.67-1.38,4.03-1.42,4.64-2.71.66-1.4,1-2.9,1.59-4.19.65-1.43.61-3.09,1.17-4.37.65-1.47-.56-3.61-.04-4.85.66-1.57,2.17-2.55,2.64-3.71,1.06-2.64.11-2.21,2.18-3-.39,1.43-2.55,1.46-2.91,2.9s-.71,2.91-1.05,4.35,1.76,3.46,1.44,4.91-.95,2.82-1.24,4.28-2.05,2.63-2.32,4.09-.88,2.88-1.14,4.34-1.29,2.83-1.52,4.29,1.76,3.27,1.56,4.75-2.71,2.66-2.89,4.14,3.33,3.37,3.17,4.84-1.56,2.82-1.68,4.3-1.87,2.85-1.97,4.33-.89,2.95-.96,4.44.02,3.01-.02,4.5,3.42,3.05,3.4,4.53-2.77,2.96-2.76,4.45,2.43,2.93,2.47,4.41-.42,2.97-.35,4.45-1.32,3.05-1.22,4.53.27,2.97.4,4.45.39,2.96.55,4.44,2.74,2.64,2.94,4.11.43,2.9.66,4.36-.37,3.04-.1,4.5-.9,3.19-.6,4.65.53,2.94.86,4.39,2.93,2.33,3.3,3.77-.03,3.05.37,4.48,1.26,2.69,1.7,4.11-.36,3.22.12,4.63-.67,3.41-.15,4.81,2.45,2.26,3,3.64,2.61,2.11,3.2,3.47-.77,3.59-.14,4.94,2.23,2.22,2.9,3.55,2.44,2.04,3.15,3.35.38,3.14,1.12,4.42-.07,3.52.72,4.78,3.97.94,4.8,2.17.97,2.89,1.84,4.1-.13,3.82.78,4.99,2.83,1.57,3.77,2.72,2.79,1.51,3.77,2.62,2.57,1.62,3.59,2.7,1.31,2.81,2.36,3.86,2.57,1.57,3.65,2.58.58,3.76,1.69,4.74,3.27.76,4.41,1.7,2.52,1.57,3.69,2.48,1.06,3.53,2.26,4.4,2.12,2.23,3.34,3.06,3.57.02,4.82.82,1.85,2.7,3.12,3.45,2.87,1.02,4.16,1.73,2.47,1.74,3.79,2.4,2.63,1.45,3.98,2.07,3.89-1.48,5.25-.91,1.9,3.17,3.28,3.69,2.78,1.09,4.18,1.56,2.89.76,4.3,1.18,2.8,1.08,4.23,1.45,2.9.73,4.34,1.05,2.72,1.76,4.18,2.02,3,.46,4.47.66,3.31-2.76,4.78-2.62,2.81,1.87,4.29,1.95,2.98-.99,4.46-.98,2.97,1.23,4.45,1.18,2.91-.88,4.39-.99,2.81-1.23,4.28-1.41,2.84-.58,4.3-.83,3.2,1.24,4.65.92c2.26-.22,1.76,1.06,4.63.78,1.27-.12,2.45-2.97,4.17-3.23,1.37-.21,2.69-.95,4.3-1.27,1.4-.28,3.05.44,4.6.05,1.41-.35,3-.17,4.51-.62,1.4-.42,3.18.14,4.66-.38,1.39-.48,2.97-.71,4.41-1.28s2.09-2.75,3.5-3.39,3.66.64,5.03-.06,2.53-1.75,3.87-2.52,1.64-3.11,2.94-3.94,2.47-1.65,3.72-2.54,1.8-2.51,3.01-3.46,3.37-.57,4.53-1.58,3.64-.53,4.75-1.59,1.86-2.51,2.92-3.62,1.7-2.59,2.71-3.76.23-3.7,1.18-4.91,1.84-2.31,2.73-3.56,3.64-1.16,4.47-2.45,1.01-2.95,1.79-4.27,2.84-1.91,3.56-3.26.78-3.05,1.45-4.43,1.38-2.73,2-4.14-.61-3.52-.04-4.95.22-3.08.73-4.53,1.35-2.67,1.81-4.13.87-2.84,1.28-4.32.45-2.95.82-4.44,3.48-2.27,3.81-3.77.46-3.01.74-4.52.21-3.04.46-4.56,1.38-2.87,1.59-4.39-1.29-3.21-1.12-4.74-.24-3.04-.1-4.57,2.44-2.84,2.54-4.37-2.19-3.15-2.12-4.68-.1-3-.06-4.53.77-2.98.78-4.52,1.92-3.02,1.91-4.56-.26-3.04-.3-4.57-3.19-2.9-3.26-4.44,3.37-3.19,3.28-4.72-1.57-2.94-1.68-4.47Z"/>
    <path d="M923.91,327.47c-.45-1.43-1.85-3.75-2.05-4.35v5.32c.24-1.55,1.76-4.93,1.72-7.35-.02-1.32-.21-3.75-1-4.85-.88-1.24-.65,2.07-.08-.43.7-3.11.43-6.41-1.18-9.2-.67-1.16-1.5-2.11-2.47-2.99l-2.02-1.56c-1.49-1.07-1.26-.71.67,1.1l1.37,5.05.06-.79-1.37,5.05c1.61-3.58,3.66-6.47,3.09-10.66s-3.22-8.21-5.08-12.05l1.37,5.05c-.61-5.52-.42-11.54-4.13-16.11-2.69-3.3-4.58-5.44-6.44-9.43l1.37,5.05c.11.93-.11.31.14-.54.33-1.16.59-2.57.59-3.76,0-2.99-1.09-5.79-3.06-8.01-.78-.88-2.05-2.01-2.52-2.67-.57-.8-.88-1.81-1.39-2.66l-.82-1.26c-.99-1.73-1.25-1.59-.77.42.07,2.06.18,2.16.33.29.1-.63.18-1.26.23-1.89.02-1.21-.1-2.5-.41-3.67-.67-2.49-2.16-4.3-3.7-6.31-2.99-3.89-6.18-4.84-10.56-6.37l4.41,2.57-.61-.5,2.57,4.41c-.17,2.94-.12,3.47.13,1.58.25-1.19.38-2.38.38-3.59-.09-2.97-1.22-5.59-3.18-7.81-1.01-1.15-2.17-2.16-3.24-3.25-.64-.78-1.35-1.51-2.11-2.18.72,1.54.79,1.55.19.03-1.36-4.01-4.46-6.82-7.28-9.82-1.48-1.58-2.96-3.2-4.89-4.26.33.18-5.58-2.31-3.93-1.27l3.59,3.59-.33-.73,1.37,5.05c-.24-5.3.07-10.46-5.2-13.64-.75-.46-6.84-1.79-6.96-2.01l1.94.64c-.66-.49-1.38-.87-2.16-1.12-.12-.05-2.52-1.18-2.08-.91l3.59,3.59c-1.68-2.58-2.71-5.75-5.84-8.14-.73-.58-1.47-1.13-2.23-1.67,2.07,2.89,2.59,3.29,1.56,1.2-.54-1.72-1.55-3.18-2.77-4.5-2.31-2.49-5.75-5.33-9.08-6.18-1.6-.41-3.29-.13-4.87-.41,3.07.54.81-.62-.72-1.43-.4-.21-5.17-2.69-3-1.01-.86-.67-1.58-1.73-2.43-2.46,1.15,2.13,1.32,2.3.51.52-.28-.74-.61-1.46-.99-2.15-.96-1.6-2.6-3.29-4.25-4.25-2.65-1.55-5.77-1.94-8.49-3.4-3.62-1.94-6.86-3.21-10.78-4.39,2.33,2.33,4.66,4.66,6.98,6.98l-.23-.72v5.32l.13-.52-2.57,4.41c2.21-2.41,3.93-4.25,4.67-7.57.45-2.03.39-4.11-.17-6.12-.39-1.14-.88-2.23-1.48-3.27-.72-1.04-.8-1.23-.24-.57v5.32c.35-1.26,1.86-4.83,2.12-7.18.37-3.35.25-6.19-.64-9.45-.66-2.41-.65-4.96-1.32-7.37-.85-3.07-1.9-3.86-2.3-6.77-.34-2.43.21-5.15-.89-7.46l-.56-1.42c-.16,1.69-.11,1.98.14.89.89-1.1.34-3.06.55-4.43.34-2.2,1.14-5.61-.07-8.69-.62-1.56-1.33-2.77-2.53-4.03l-.81-.73c-2.45-2.02-2.68-2.1-.68-.25l1.37,5.05-.49,1.98,1.01-2.39c.38-1.19.69-2.44.71-3.71.06-2.87-.92-5.04-2.05-7.62-1.92-4.39-4.72-6.21-8.41-8.91l3.59,3.59c.43,1.85.5,1.88.2.08-.15-1.93-.28-1.77-.4.49.15-.75.43-1.47.58-2.22.8-3.93-.33-7.23-2.21-10.67-1.3-2.39-2.65-4.78-4.28-6.96-.99-1.31-2.03-2.35-3.41-3.27-.39-.26-2.38-1.96-1.29-.76l2.57,4.41c1.23,5.78.47-3.83.33-4.43-.57-2.47-1.77-4.44-3.63-6.15-1.33-1.22-2.71-2-3.92-2.89-.95-.83-1.97-1.57-3.05-2.22,1.18,1.29,1.25,1.14.21-.47.09,2.17.14,2.36.15.55-.06-1.27-.21-2.53-.44-3.78-.71-2.57-2.18-4.53-4.07-6.33-1.51-1.45-3.38-3.06-5.2-4.05.33.18-5.63-2.15-3.99-1.19l3.59,3.59c-1.1-1.67-2.86-5.26-4.84-7.38-1.73-1.87-2.56-2.98-4.38-4.93-1.13-1.21-2.44-2.12-3.9-2.87-.94-.57-1.94-.95-3-1.14-1.1-.34-.89-.03.64.92-2.19-2.29-3.95-4-6.95-5.39-2.68-1.25-5.55-2.75-8.62-2.34s3.34,1.16-.67-.13c.82.27,1.9,2.81.58.22-3.56-6.98-9.95-6.88-16.7-5.95h5.32l1.66.87c-.54-.66-1.17-1.22-1.88-1.69-1.34-1.07-2.67-1.95-4.38-2.42-2.51-.69-5.82.25-7.65.18l5.05,1.37-.64-.45,3.59,3.59c-2.46-3.47-4.23-7.18-8.75-8.43-4.77-1.31-8.21,1.24-12.23,3.14l5.05-1.37-.81.05,5.05,1.37c1.73,1.8,2.23,2.17,1.5,1.08-.52-.89-1.14-1.71-1.84-2.47-.98-1.06-2.04-1.98-3.31-2.69-3.71-2.09-7.01-.56-9.92-.39l5.05,1.37c-2.34-1.16-4.9-3.17-7.95-4.16-1.82-.59-3.67-1.2-5.61-1.25-1.28.06-2.55.2-3.81.43-1.45.28-1.61.43-.48.46,2.03.11-2.47-.68-2.99-.82-1.71-.47-3.26-1.11-5.05-1.29-2.17-.21-4.1.06-6.1.88-.37.15-4.04,1.91-2.62,1.58h5.32c-2.36-.33-4.77-1.03-7.15-1.05-1.4.07-2.78.23-4.16.47,1.04.15,1.05.07.04-.25-2.65-.58-4.79-1.23-7.58-.62-1.44.31-4.04,1.32-4.53,1.42h5.32c2.83.89,1.26.14-.82-1.13-1.02-.62-2.15-1.16-3.31-1.49-3-.83-5.84-.17-8.79.42-1.37.27-2.52.49-3.83,1.04-.78.33-4.37,1.6-.63.88s-1.1-.9-2.18-.94c-1.28-.05-2.66-.02-3.9.32-2.6.71-4.42,2.28-6.34,4.04-.79.83-.49.57.92-.8l-1.46.22c-.45-.13-1.39-.12-1.84-.05-3.76.54,2.3,1.5-.61.14-1.59-.74-3.05-1.17-4.86-1.21-2.76-.06-5.57,1.54-7,1.92.92-.24-1.57.06-1.92.09-2.12.17-3.85.5-5.8,1.45-1.36.66-3.06,1.41-4.27,2.25-1.61.54-1.59.67.04.39,1.44.02,1.64-.08.6-.31-1-.84-3.11-.61-4.45-.56-3.18.12-6.03,1.57-8.23,3.83-.68.69-3.19,2.71-1.19,1.75,2.13-1.02-1.67.9-2.32,1.44-1.18.98-.71.97.12.01-1.76.26-1.94.4-.51.41,1.11.17,1.24.13.39-.13-1.71-1.37-5.84-1.01-7.75-.48-1.15.32-2.46.95-3.5,1.58-.51.31-3.44,2.4-2.72,1.98l5.05-1.37c.8-.09-4-.35-3.58-.35-1.21-.02-2.64.1-3.79.41-1.79.49-3.87,1.76-5.2,3.04-.36.35-2.2,2.77-.63,1.18,1.14-.62.99-.6-.45.07-2.39.82-1.53,1.01,2.59.58-.51-.98-3.9-1.3-4.85-1.38-3.28-.27-6.22,1.37-8.37,1.86h5.32l-.73-.22,4.41,2.57c-3.33-2.62-5.98-5.82-10.67-5.82-2.36,0-4.9.85-6.86,2.12-2.13,1.38.44-.3.83-.1-.08-.04-2.34-.27-2.5-.2-.89-.31-.97-.2-.24.33.65.62.66.63.02.05-1.06-.62-1.92-1.63-3.01-2.25-1.95-1.11-4.25-1.72-6.37-2.44s-4.05-1.5-6.18-1.83c-1.41-.22-2.37-.2-3.78-.06-.23.02-3.05.1-2.18.16l5.05,1.37c-2.25-1.11-4.33-2.53-6.53-3.73-2.69-1.47-5.38-1.75-8.21-2.65-5.42-1.73-10.52-3.95-16.39-3.88-4.47.06-7.77.93-12.58-1.63-2.18-1.16-3.99-2.69-6.79-3.07-1.69-.23-3.19-.19-4.91.25-1.57.4-6.07,1.49-1.25,1.07l5.05,1.37c1.8,1.98,2.16,2.24,1.07.76-.66-.96-1.4-1.87-2.19-2.73-1.35-1.28-3.28-2.42-5.11-2.93-2.79-.77-4.9.14-7.63.31,1.38-.09-4.45-.83-1.92-.08,1.52.45-2.71-1.76-3.78-2.05-1.78-.48-3.93-.74-5.77-.86-2.57-.17-4.84.09-7.14,1.36-.98.64-1.92,1.34-2.82,2.1-1.44,1.17-1.03,1.04,1.23-.4h5.32c-1.7-.56-4.22-2.39-6.97-2.39-2.34,0-5.89,1.6-7.2,1.86h5.32c-6.11-1.66-13.07-5.98-19.33-.28-1.9,1.32-1.27,1.19,1.89-.39-1.67-.11-1.94.05-.81.47,1.04.52.88.45-.46-.2-.92-.58-1.9-.95-2.95-1.12-4.42-1.15-7.07.82-10.25,1.71h5.32c-2.41-.43-4.66-1.42-7.17-1.42s-4.65,1.07-7.02,1.68h5.32c1.71.37-3.98-2.1-3.77-2.04-2.1-.59-4.09-.55-6.23-.19-3.46.58-6.89.63-10.37,1.28s-6.94.73-10.37,1.4c-1.67.33-3.21.73-4.69,1.66-1.07.64-2,1.43-2.77,2.39-2.01,2.45-2.1,2.68-.27.68l5.05-1.37-.93-.09,5.05,1.37c-4.7-2.14-9-4.29-14.07-1.57-1.49.8-4.65,3.02-5.13,4.86,4.4-2.31,4.65-3,.76-2.06-.75.06-1.48.2-2.19.41-.72.18-1.44.37-2.15.55,4.01.87,4.29.69.84-.53-2.32-.77-4.88-1.06-7.29-.39-3.92,1.08-7.4,4.34-10.2,6.01l5.05-1.37c1.44-.07-.15-.18-.89-.37-1.34-.34-2.72-.47-4.1-.43-2.69.09-5.67,1.21-8.1,2.34-1.77.82-3.96,3.11-4.78,3.68-2.28,1.58-4.83,2.15-6.92,4.11-1.19,1.12-.73.44.35,0-.9.36-1.99.8-2.94,1.02-2.88.66-5.31,1.04-8.04,2.32-2.24,1.05-4.33,2.25-6.35,3.69-1.85,1.31-4.07,4.24-5.06,5.14l4.41-2.57-.76.14h5.32c-5.74-1.07-10.62-2.32-15.27,2.46-.87.89-1.45,2.06-2.27,3,2.19-2.49-1.11.63-1.69,1.1-1.62,1.33-3.89,4.1-4.66,4.85l4.41-2.57c2.08-.64-4.65.14-4.28.04-2.21.54-4.08,1.65-5.68,3.26-.81.81-2.38,3.08-2.44,3.17-.82,1.07-2.33,3.9-2.4,3.99l4.41-2.57c1.34-.53-1.01-.03-1.64,0-1.7.1-3.17.49-4.7,1.22-3.18,1.51-6.59,3.53-8.57,6.53-.8,1.21-1.12,2.67-1.88,3.87-.39.99-.32.75.22-.75l-1.05,1.04c-2.32,1.79-3.66,5.74-4.55,7.23l3.59-3.59c-2.2,1.56-6.38,3.78-9.02,6.49-1.65,1.69-2.83,3.57-3.39,5.88-.32,1.26-.43,2.52-.31,3.8.34,3.34.45,3.55.33.63l2.57-4.41c-2.01,2.28-4.14,3.79-5.57,6.65-1.65,3.01-1.33,3.19.95.56l-.92.59c-1.9,1.06-3.57,2.74-4.69,4.59-3.33,5.47-2.73,13.29-3.27,19.36l1.37-5.05-.43.67,3.59-3.59c-3.74,2.87-7.35,4.6-8.47,9.66-.46,2.1-.82,4.81-.8,6.96.01,1.21.25,2.49.59,3.63.39,1.33,1.25,5.24.87.84l1.37-5.05c1.95-1.76,2.18-2.09.71-.99-.98.66-1.89,1.4-2.73,2.22-1.98,2.09-3.22,4.89-3.28,7.78,0,.31,1.69,7.19,1.86,6.96-.28-2.63-.41-2.83-.39-.6.14,1.61.15,2.04.03,1.28l2.57-4.41c-2.43,2.82-4.83,5.26-5.39,9.14-.31,2.15.08,4.13.85,6.11.18.46,1.58,4.07,1.31,2.63v-5.32c-.85,3.77-1.59,7.46-2.22,11.28-.37,2.22-.74,4.31-.57,6.57.26,3.45.87,1.47-.27,4.89l2.57-4.41c-.81,1.05-4.04,2.97-5.25,4.91-.6.97-1.07,1.99-1.47,3.07-.92,2.51-1.24,1.43.61-.17,2.36-.98,4.71-1.95,7.07-2.93,2.76.98,3.25,1.1,1.46.36l-2.39-1.01c-1.93-.61-3.82-.78-5.8-.48-3.27.5-6.65,3.99-7.77,4.5l5.05-1.37-.91-.12,5.05,1.37c-5.16-2.47-10.56-4.12-16.38-3.15-2.53.42-5.83.86-8.01,2.34-2.79,1.89,3.37,1.02,1.41.23-1.31-.53-3.1-.64-4.51-.62-1.76.04-3.49.56-5.05,1.37-1.42.74-2.64,2.25-4.07,2.84,1.68-.7.29-.68-.66-.54-1.46.22-3.12.96-4.41,1.67-1.86,1.02-3.82,2.24-5.48,3.57-.85.68-2.96,2.2-.72,1.11-1.06.51-2.78.74-3.93.91h5.32c-4.67-.86-9.08-1.86-13.2,1.26-3.34,2.54-3.93,6.04-5.38,9.66l2.57-4.41c-2,2.26-7.44,4.85-11.19,6.54-3,1.35-5.35,2.9-7.67,5.28s-3.29,5.37-4.57,7.59l3.59-3.59c3.62-1.93.11-.57-1.33-.2-1.31.33-2.59.82-3.75,1.54-3.29,2.05-4.09,4.88-5.57,8.16.56-1.23-1.3,2.56-1.2,2.29-1.12,2.8,2.28-1.3-.35-.17-2.93,1.26-5.06,4.91-5.81,7.84-.33,1.3-.08,2.73-.37,4,.45-1.51.41-1.74-.12-.7-.97,1.43-.27,1.05,2.1-1.14-1.55-.91-6.03,3.68-6.8,4.72-1.82,2.46-3.24,5.9-3.8,8.88-.32,1.67-.29,3.26.07,4.92.12.53.39,3.31.5,1.53l1.37-5.05c-1.08,1.64-3.32,3.37-4.05,6.03-.31,1.12-.48,2.61-.48,3.79.1.84.21,1.68.33,2.53.4,1.39.38,1.71-.08.99l1.37-5.05c-.92,2.16-1.86,4.41-2.9,6.51-.15.3-1.71,2.31-2.1,3.65-.66,2.24-.71,4.51-.04,6.77-.06-.2,2.44,5.46,2.07,3.82l1.01-7.71c.56-1.31-.43.11-1.16.82-1.48,1.45-2.6,3.13-3.24,5.12-.92,2.84-.87,6.32-.45,9.26.23,1.6.63,3.19,1.44,4.62.43.66.89,1.3,1.39,1.91,1.35,1.91,1.17,1.27-.54-1.9-1.27.39.88,8.69,1.13,10.04v-5.32c-.2,1.01-1.34,3.12-1.68,4.64-.72,3.18-.05,6.26,1.62,9.02.42.7,3.09,4.47,1.24.94-1.35-2.58-.72-.71-.67.73.11,2.87,1.12,5.19,1.76,7.86v-5.32l-.28.92,2.57-4.41c-2.29,2.95-4.79,5.33-5.35,9.24s1.27,6.83,2.85,10.25l-1.37-5.05.08.89,1.37-5.05c2.11-1.88,2.41-2.32.89-1.33-.94.67-1.86,1.37-2.75,2.09-2.09,2.09-3.27,4.73-3.4,7.68-.04.89-.3,4.16.44,4.79.79-3.64.66-4.32-.4-2.04,1.38-1.14,1.41-1.23.09-.27-3.09,2.07-5.1,5.33-7.31,8.24-3.76,4.94-4.08,8.62-3.24,14.66v-5.32c-.07.49-3.26,7.46-2.5,7.96,2.71-2.97,2.7-3.27-.02-.92l-.81.67c-1.78,1.86-2.79,4.02-3.22,6.52-.13.73-.57,7.42.1,4.54s-1.6,3.43-1.71,4.18c-.28,2.01.05,3.64.33,5.67.21.52.27,1.07.18,1.66.19,3.24.39,3.54.61.91l2.57-4.41c.73-.75.47-.23-.22.23-.95.62-2.01,1.38-2.81,2.16-1.93,1.88-3.22,4.3-3.56,6.97-.56,4.37,1.73,8.69,2.8,12.82v-5.32c-.61,4.41-2.22,8.47-1.41,13.07.45,2.57,1.48,4.75,3.36,6.59.77.75,1.79,1.56,2.74,2.07,1.88,1.01,1.02,1.51-.54-1.27l-1.37-5.05c-.04,3.51-2.24,8.46-.31,13.26.9,2.24,2.38,3.74,4.11,5.35-.77-.71-.2-.12.23.4-.65-.79,2.53,3.51,2.05,2.71l-1.37-5.05c-.12-1.49-.44,1.15-.54,1.62-.27,1.2-.3,2.37-.25,3.58.14,3.38,1.87,7.56,3.84,10.24,1.3,1.76,4.57,4.88,6.98,4.69,1.49-.12-2.91-2.39-.92-.32.8.83,1.77,1.43,2.56,2.3l-2.57-4.41c.67,2.1.61,5.72,2.61,8.27s4.61,3.23,6.94,5.02l-3.59-3.59c2.19,3.69,3.23,7.79,6.93,10.85.66.55,5.31,3.66,6.28,2.71-.43.42-4.07-3.35-.77.51.81.94,1.68,1.81,2.58,2.67,1.44,1.37,2.94,2.63,4.49,3.87.97.77,1.94,1.53,2.92,2.29,1.12.87,2.23,2.63,1.02.81,1.39,2.1,2.76,4.19,5,5.5s5.78,1.31,7.21,1.71l-4.41-2.57c1.59,1.3,2.71,2.92,4.45,4.09,2.12,1.42,4.24,1.58,6.44,2.5,3.68,1.53,7.3,3.68,10.96,5.35,2.74,1.26,5.42.74,8.1,1.53-1.9-.56,1.38,1.06,1.63,1.16.96.36,1.91.63,2.89.92,2.88.85,5.72,1.5,8.73.71,1.13-.3,2.33-.76,3.32-1.4.32-.21,2.23-1.22.89-.88h-5.32c2.46.61,6.16,2.35,9.75,1.56,2.91-.64,5.72-1.82,8.65-2.54h-5.32c-1.87-.3,1.24,1.06,1.95,1.44,1.77.95,3.82,1.48,5.83,1.44s4.26-.79,6.05-1.86c1.02-.76,2.02-1.55,3-2.36-2.37,1.12-2.55,1.46-.55,1,6.62.38,10.69-7.67,15.22-8.49h-5.32c4.8.81,9.12,2.3,13.47-1.04,3.62-2.78,3.77-6.34,5.21-10.19l-2.57,4.41.46-.52-4.41,2.57c-2.09.61,4.64-.24,4.22-.14,1.99-.49,3.81-1.48,5.31-2.87,1.15-1.06,2.35-3.06,2.96-3.76.51-.58,3.48-3.18,1.04-1.54,2.54-1.72,5.98-2.61,8.66-4.27,4.46-2.78,7.18-5.57,9.16-10.41.35-.96.17-.86-.54.31.87-1.05,1.71-2.12,2.53-3.21,1.32-1.91,2.11-3.76,2.53-6.02.13-.86.23-1.73.3-2.59-.33,1.82-.06,1.89.82.22.74-.6,1.43-2.01,2.16-3.01,1.19-1.63,2.68-3.77,2.79-5.85.69-1.9.45-1.98-.7-.22.43-.37.82-.78,1.18-1.22,1.45-1.73,2.7-3.47,3.28-5.71.29-1.28.41-2.57.36-3.87-.37-2.81-.47-3.55-.3-2.22h-20c.64,5.73,2.03,8.86,6.72,12.41,1.83,1.39,3.51,2.58,5.81,3.13,1.25.37,2.5.46,3.76.25,3.32-.29,3.55-.44.67-.43l-4.41-2.57.49.58-2.57-4.41c1.62,4.63,2.57,8.73,7.52,11,1.82.83,4.57,1.1,5.95,1.34.57.1,4.52.48,4.54.48l-4.41-2.57c-.42-.96-.31-.87.32.28.72.96,1.45,1.91,2.19,2.85,1.44,1.44,3.58,2.67,5.38,3.61,2.34,1.21,4.62,2.18,7.32,2.12-.32,0,6.18-.66,4.11-.81l-5.05-1.37c3.53,1.92,5.94,5.25,10.04,6.38,4.76,1.31,8.18-1.23,12.17-3.15l-5.05,1.37.8-.05-5.05-1.37c-1.58-.84,1.67,1.58,1.98,1.8,1.23.91,2.5,1.53,3.89,2.18,4.44,2.09,7.11,1.98,11.76,2.03,3.05.03,5.72,1.26,8.77,1.57,1.38.14,4.13.94,1.53-.03,1.78.66,3.36,1.68,5.27,2.09,3.56.77,7.25,1.1,10.88.77,1.86-.17,3.96-.34,5.67-1.13,3.85-1.77-.2,2.9-1.05-1.48.2,1.04,4.6,3,5.32,3.22,2.01.63,4.16.78,6.22.25,3.7-.95,5.39-3.44,7.97-5.84l-4.41,2.57c-2.46.23-2.1.43,1.08.6.75.17,1.49.18,2.23.04,1.13-.14,2.26-.29,3.39-.45,1.46-.5,1.86-.49,1.2.02l-5.05-1.37c5,2.12,8.27,3.26,13.75,1.87,2.27-.58,4.42-1.28,6.27-2.74,1.04-.82,1.59-1.44,2.4-2.49,1.49-1.95,2.28-1.82-.41-.25l-5.05,1.37c-.57-.02,4.42.87,3.69.85,2.18.06,4.27-.3,6.2-1.36,2.89-1.59,4.37-4.23,6.3-6.75l-3.59,3.59.77-.53-5.05,1.37c3.23-.14,8.17.78,12.18-.47,2.72-.85,5.05-2.69,6.56-5.11.56-1.03,1.04-2.1,1.44-3.22.68-1.7.39-1.35-.87,1.05l-4.41,2.57c-3.16-.04-3.03.1.39.41.8.12,1.59.08,2.37-.11,2.18-.26,3.98-1.13,5.94-2.11,3.6-1.8,5.07-4.17,7.68-6.86-2.21,2.27,1.16-.12,1.81-.55,1.83-1.21,3.19-2.75,4.75-4.23.48-.46,4.53-3.89,1.62-1.98,1.33-.87,3.07-1.18,4.47-2.02,2.61-1.55,4.9-3.63,7.48-5.23,3.21-1.99,6.2-3.02,8.19-6.65.83-1.51.93-3.04,1.44-4.61-.5,1.55.88-1.37.96-1.47,1.39-1.83,3.69-3.89,5.55-5.74,1.07-1.07,2.42-1.83,3.56-2.85.82-.73,4.77-3.67,1.09-2.05,3.55-1.56,6.61-2.14,8.84-5.72.89-1.43,1.02-3.32,1.8-4.69-1.67,2.9,1.22-.76,1.48-.97,1-.79,2.78-1.69,3.9-2.88,1.35-1.44,1.93-3.18,2.98-4.77,1.77-2.67,4.24-4.77,5.04-8.1.32-1.25.43-2.51.32-3.77-.03-1.46-.16-1.57-.39-.35-.51,1.65-.25,1.13.77-1.56-3.98,2.66-4.81,3.53-2.51,2.61,3.82-.97,7.2-4.18,8.33-7.93s-.14-6.55-.67-10.02v5.32c-.19.93.48-.89.65-.99-.86.52-1.99,1.48-.47.43,1.95-1.34,3.8-2.8,5.02-4.88,1.02-1.75,1.39-3.84,2.19-5.68.92-2.11,3.18-4.94,3-7.29-.14-1.82-.93,1-.24-.17.62-1.06,1.59-1.9,2.22-2.97,1.2-2.06,1.5-5.62,1.87-6.74-.27.82.85-1.44.98-1.7.71-1.46,1.21-2.81,1.5-4.4.35-1.95-.3-5.29-.27-6.21l-1.37,5.05c-2.14,3.41.64.11,1.61-.86,1.1-1.11,1.98-2.55,2.56-3.99,1.28-3.23.12-6.43.04-8.77l-1.37,5.05c1.08-2.52,2.53-4.61,3.49-7.25,1.02-2.8,1.31-5.34,1.73-8.28-6.55-.89-13.1-1.77-19.64-2.66.02,3.64-.56,6.58-1.35,10.17-.53,2.38-.64,4.6.09,6.96-.1-.32,2.62,5.5,2.12,3.63v-5.32c.85-2.76.41-1.56-.99.76-.69,1.14-1.25,2.43-1.58,3.73-.88,3.44.46,6.51,1.23,9.79v-5.32c-.6,4.3-2.07,8.13.17,12.31.68,1.27,1.52,2.4,2.57,3.41,1.18,1.13,6.44,4.25.44-.34.16,1.67.23,1.89.21.66.07-1.16-.01-1.01-.23.46-.46,1.95-.44,4.49.09,6.44.43,1.55,1.88,4.32,3.15,5.38,1.06,1.31,1.15,1.1.27-.62-.54-1.89-.71-1.97-.5-.24-.16,3.98,2.62,8.6,6.08,10.52,2.85,1.58-1.34-4.09-.28-.66.6,1.97,1.86,3.85,3.27,5.33,2.17,2.27,5.59,4.59,8.64,5.43,2.52.69,5.4.03,6.78,1.01l-3.59-3.59c3,3.9,5.09,6.63,10.06,7.98,2.18.6,4.43.98,6.67.84,2-.12,4.95-1.48,6.16-1.69h-5.32l.85.33-4.41-2.57c2.46,1.92,4.6,4.02,7.72,4.85,3.58.95,7.36-.95,9.73-1.48h-5.32c-2.4-1.45-2.3-1.25.31.61l.9.6c2.22,1.22,4.76,1.77,7.27,1.41,2.08-.3,3.86-1.07,5.59-2.3.65-.46,1.26-.97,1.84-1.51.92-1.03,1.07-1.17.47-.41l-7.71,1.01c2.79.52,6.24,2.59,9.94,1.57,1.87-.51,3.85-1.68,5.24-2.98l.75-.81c2.02-2.46,2.1-2.68.26-.68l-5.05,1.37.79.08-5.05-1.37c4.38,2.23,8.15,4.85,13.3,2.67,2.31-.98,4.25-2.62,5.55-4.8.45-.76.74-1.57,1.11-2.38,1.64-3.6-.78,1.03.68-1.28l-3.59,3.59c-1.02.78,2.2-.47,2.4-.52,1.46-.38,2.92-.64,4.35-1.13,2.89-.99,5.56-2.76,8.19-4.27s5.76-2.55,7.99-4.7,3.09-5.14,4.27-8.01l-2.57,4.41c1.21-1.55,4.8-4.67,6.1-5.26l-5.05,1.37c5.66-.48,10.6-.98,13.58-6.56,1.16-2.18,1.14-3.61,2.37-5.44-.1.16,1.11-1.8,1.09-1.55.77-.66.65-.74-.36-.25-1.21.38-1.14.38.19,0,2.25-.87,4.37-1.74,6.11-3.48,1.26-1.26,1.95-2.64,2.58-4.23.57-1.43,1.81-3.03-.23-1.24-2.95,2.58,1.42-.61,1.94-1.11.86-.82,1.75-1.81,2.35-2.82,1.19-2.03,1.59-5.97,2.01-7.14l-2.57,4.41c-1.05.97.42.1.96-.17,1.04-.51,1.91-1.38,2.8-2.11s3.45-2.74,4.62-4.38c3.43-4.82,1.54-8.84.68-13.94v5.32l.15-.65-2.57,4.41c-2.32,1.26-2.85,1.67-1.6,1.24.99-.28,1.94-.67,2.86-1.15,1.14-.6,2.17-1.26,3.11-2.19,2.33-2.31,2.63-5.27,4.09-7.87,2.87-5.1,7.12-10.45,7.4-16.53.13-2.92-.69,1.5.16-.41,1.08-2.43-4.62,1.9-1.53.97,4.1-1.22,6.75-4.06,8.31-7.96.95-2.37,1.74-4.71,2.35-7.18.43-1.74.92-3.41.96-5.24.02-.83-.08-4.93-.23-3.65l-1.37,5.05c1.38-2.39,3.33-5.13,4.36-8.29l-2.57,4.41-2.94,1.76c-3.76-4.9-7.53-9.79-11.29-14.69l-.57.85,3.59-3.59c-4.54,2.99-6.73,6.3-7.82,11.65-.53,2.6-.68,4.9.08,7.47.24.8,1.84,5.19,1,1.24-.77-3.61-.09-.64-.49-.14-2.5,3.1-2.89,6.61-4.08,10.23-.99,3-2.14,5.46-1.53,8.73.45,2.4,1.58,4.41,2.54,6.63l-1.37-5.05.11.92,1.37-5.05c.8-.6.7-.45-.29.44-.79.91-1.54,1.86-2.25,2.84-.98,1.67-1.71,4-1.71,5.9s.63,4.16,1.55,5.82c.69.97,1.41,1.91,2.16,2.84,1.21,1.44,1.15,1.06-.17-1.15v-5.32c-1.13,3.96-4.16,8.86-4.8,14.4-.34,2.99-.47,6.32.39,9.23.96,3.24,3.45,5.02,5.49,7.45l-2.57-4.41.25.75v-5.32l-.29.89,2.57-4.41c-2.3,2.98-4.72,5.36-5.22,9.3-.27,2.16.07,4.1.94,6.07.23.77.6,1.46,1.11,2.07,1.74,2.55,2.03,2.73.86.55-.61-1.97-.91-1.97-.89.01.47-.23.36.14-.33,1.09-.4,1.69-.91,3.06-.96,4.92-.08,2.89.58,6.04.95,8.89.3,2.25.54,3.89,1.72,5.9.63,1.08,2.49,2.46,3.08,3.63-1.82-3.57-1.01-.19-1.17.45.09-.34-.24,4.23-.08,2.68-.39,3.84-.7,6.7.27,10.57.53,2.11,1.2,3.94,2.53,5.67.2.26,2.91,3.43,2.08,1.94l-1.37-5.05c.17,1.5.21,2.98.37,4.48.31,2.88,1.27,3.72,1.89,6.43-.43-1.91-.16.78-.14,1.55.02.91.1,1.45-.03,3.09-.32,4.08.86,7.38,3.49,10.5.96,1.14,3.39,3.25,4.03,4.13l-1.37-5.05c.11.89-.33,4.59.06,6.45.44,2.14,1.24,3.78,2.58,5.48,1.8,2.29,4.1,4.28,6.21,6.98l-2.57-4.41c1.18,3.9.61,7.76,2.85,11.59s6.29,4.75,10.19,6.27l-4.41-2.57c-1.24-1.89-1.17-1.48.19,1.25-.25-2.17-.36-2.38-.32-.65.03,1.57.3,3.1.77,4.58,1.27,3.95,4.68,6.07,7.2,7.86-2.09-1.49,4.36,2.93,2.92,1.89,1.02.88,2.08,1.72,3.16,2.52-.67-1.27-.66-1.24.03.1,2.2,3.66,5.06,5.58,8.43,8.09l-3.59-3.59c-1.04-1.7,1.38,4.3,1.19,3.97.98,1.78,2.35,3.29,4.09,4.36,2.49,1.53,5.32,1.66,6.64,3.34l-2.57-4.41c1.51,3.76,2.88,6.84,5.93,9.63,1.88,1.73,3.6,3.27,6.09,4.09,1.45.48,4.28.65,4.82.82l-4.41-2.57c.84.78,3.26,3.88,5.14,5.02,2.35,1.41,4.93,2.33,7.32,3.76,2.58,1.55,5.39,3.11,8.34,3.64,1.65.3,3.27.3,4.92-.09.5-.12,3.35-.52,1.66-.64l-5.05-1.37.73.55-3.59-3.59c3.05,4.19,5.63,6.67,10.61,8.53,3.89,1.46,8.05,2.73,12.07,3.76,3.32.85,6.04,2.58,10.06,3.16,3.05.44,5.85.74,8.76-.44,1.24-.5,1.94-.98,3.01-1.77.48-.36.96-.73,1.42-1.12,1.04-.81.5-.51-1.61.9h-5.32c.88.28,3.71,1.92,5.62,2.12,2.97.32,5.58-.65,8.45-1.15h-5.32c3.93.86,7.13,1.76,11.23.92,2.72-.55,5.27-1.66,7.93-2.28.72-.11,1.43-.25,2.14-.42-1.74,0-2.05.13-.96.4.73,1.04,3.82-.15,4.39.6-3.43-1.15-3.51-1.08-.25.2l.85.22c1.99.47,4.7.54,6.69,0,1.88-.52,3.75-1.63,5.17-2.93l.77-.76c1.19-1.25,1.06-1.22-.4.1,2.56-.45,5.02-.53,7.7-.86,6.05-.74,14.27-.55,18.77-5.53,2.34-2.6-4.52.09-.64.36,1.62.11,3.56-.49,5.03-1.08,2.6-1.04,5.84-3.16,7.77-5.2,1.1-1.16,1.86-2.45,2.6-3.82-1.37,1.33-1.54,1.6-.5.81.63-.43,1.25-.86,1.86-1.3,1.87-1.37,3.12-2.4,4.4-4.36,1.81-2.76-3.87,1.54-.28.87.65-.12,3.57-1.5,3.15-1.38-.45.13,2.45-.54,3.02-.77,3.12-1.3,4.91-3.54,6.95-6.17,2.14-2.76,4.68-5.57,5.68-9l.16-1.04c.77-3.63.43-3.56-1.04.21-.14-.38,3.66-3.92,2.53-2.99l-4.41,2.57c2.93-1.24,5.87-2.08,8.17-4.42.51-.52,3.77-5.58,3.22-5.78-.69-.26-2.94,2.75.36-.07,3.01-2.57,3.86-5.5,5.27-9.05,1.25-3.16,3.03-5.88,3.03-9.41,0-.58-.2-4.97-.39-3.29.25,1.55.41.89.5-1.98-.48.84-.49.82-.04-.06.96-3,2.45-5.69,3.18-8.79.18-.73.33-1.46.42-2.2.42-1.85-.34-1.22-2.28,1.87.1.12,3.11-2.31,3.55-2.77,2.38-2.51,3.07-5.56,3.56-8.87.24-1.63.51-3.27.67-4.92.43-4.35-1.01,3.01,1.05-3.31,1.11-3.38.33-6.19-.21-9.02-.38.54-.41.09-.09-1.37.09-2.02-.17-2.04-.76-.06-1.1,2.18-.8,2,.92-.56l.61-.87c2.06-3.73,2.09-8.15.1-11.91l-.54-.94c-.91-1.48-.92-1.24-.03.72,0-.94-.08-1.73-.02-2.62.3-1.11.48-2.25.54-3.41-.38,1.43-.34,1.66.13.69.57-1.37,1.29-2.65,1.63-4.11.73-3.23.4-7.48-.55-10.63s-3.36-4.94-5.32-7.35l2.57,4.41-.26-.76v5.32l.23-.76-2.57,4.41c2.06-2.64,4.57-4.56,5.51-7.98,1.15-4.18-.75-7.06-1.57-10.18-3.25-12.44-22.55-7.17-19.29,5.32.37,1.43,1.54,3.93,1.68,4.47v-5.32c1.32-2.23,1.36-2.64.14-1.24-.73.93-1.46,1.87-2.18,2.81-1.26,2.15-1.74,4.7-1.41,7.14.55,4.18,3.29,6.4,5.76,9.44l-2.57-4.41c-.49-1.44.34,2.67.36.52.02-1.45-.67,1.11-.91,1.71-1.04,2.49-1.49,5.49-1.77,8.17s-.41,5.85.23,8.52c.27,1.14.66,2.27,1.21,3.32.19.36,1.21,2.79.91,1.36v-5.32c1.32-4.07-.49-.17-1.23,1.1-.81,1.41-1.25,3.02-1.49,4.6-.38,2.52-.6,7.33.41,9.73.36,1.61.58,1.61.66,0,.46-2.03.2-1.64-.79,1.18-.54,1.6-.74,3.2-.91,4.88-.08.84-.37,1.85-.26,2.66-.59,1.97-.26,2.04.99.22,1.53-1.44,1.66-1.68.37-.71-6.1,3.46-5.64,10.24-7.78,16.02-2.3,6.2-3.22,11.16-2.33,17.78v-5.32c-.39,2.71-2.53,6.85-3.61,9.71l2.57-4.41c-1.07,1.28-3.9,3.23-5.13,5.29-.41.68-1.8,3.18-1.64,3.81,3.43-2.45,4.28-3.28,2.56-2.49-.56.24-1.13.47-1.69.71-4.55,2.24-8.7,7.61-9.79,12.56-.58,2.98-.58,3.52,0,1.63.55-1.23.51-1.36-.09-.41-.61.59-1.16,1.62-1.67,2.31l-1.56,2.02c2.5-1.2,3.06-1.66,1.67-1.36-.48-.35-4.62,1.56-3.95,1.33-1.32.46-3.13.81-4.83,1.77-1.25.7-2.38,1.57-3.35,2.63-.37.4-3.14,3.47-1.84,2.46,1.39-1.09-1.19.58-1.44.75-1.16.81-2.35,1.59-3.33,2.63-.74.79-2.11,2.27-2.35,3.37-.41.69-.31.64.28-.17.91-.98.67-.9-.74.25-.14-.28,2.45-.41-.12-.69-1.41-.15-3.65.45-5.02,1.03s-3.27,1.62-4.17,2.79c-1.46,1.9,1.14.48-.37.77-4.41.86-8.8.98-13.31,1.19-2.95.14-6.71,1.27-9.35,2.64-1.09.56-2.06,1.16-2.99,1.99-.33.29-2.63,1.93-1.18,1.25l5.05-1.37c1.97,0,3.91.97-.55-.28-1.15-.33-2.4-.22-3.55-.49-1.09-.25-4.24-1-6.51-.76-4.97.52-9.44,2.57-14.31,3.42h5.32c-2.41-.45-4.58-1.53-7.11-1.53s-4.73.98-7.12,1.33h5.32c-2.53-.74-5.77-2.84-9.61-1.95-1.41.33-2.73.89-3.96,1.67l-2.02,1.56c-1.47,1.14-1.07.94,1.2-.61h5.32c-4.48-.61-7.51-2.25-12.27-3.54-3.45-.93-9.51-2.27-11.79-3.9l3.59,3.59c-2.14-2.88-3.87-5.75-7.32-7.26-1.98-.87-4.01-1-6.12-.75-.51.06-4.62.64-2.98.79l5.05,1.37c-2.01-1-3.98-2.06-5.88-3.26-.86-.54-1.66-1.07-2.58-1.52-.62-.27-1.25-.54-1.88-.8-1.82-.96-1.68-.55.42,1.24.33-.14-4.56-4.99-5.14-5.33-2.09-1.22-5.92-1.39-7.21-1.83l4.41,2.57c-1.36-1.16-2.78-2.39-3.92-3.77l2.57,4.41c-1.6-3.89-2.71-7.14-6.27-9.67-2.46-1.75-6.28-3.18-8.09-4.18l3.59,3.59c.93,1.44-.06-1.09-.2-1.56-.54-1.8-1.72-3.86-3.06-5.2.63.63-5.03-4.15-2.75-1.45-.65-.77-1.11-2.11-1.69-2.97-3.29-4.85-9.41-7.1-12.7-10.06l2.57,4.41c.34.84-.04.64-.03-.4,0-1.19-.11-2.59-.42-3.73-.56-2.06-1.81-4.86-2.85-6.68-2.48-4.34-6.25-5.21-10.53-6.93l4.41,2.57-.57-.51,2.57,4.41c-.84-2.68-.88-8.21-2.85-11.59-.53-.91-3.06-3.25-3.15-3.35-.69-1.02-1.43-2-2.21-2.95-1.17-1.31-1.12-1.1.16.64v5.32c.74-4.52,1.29-8.41-1.38-12.42-1.66-2.5-4.22-4.12-5.53-6.19l1.37,5.05c-.39-3.52,1.22-10.38-1.37-14.67-1.4-2.31-.22,1.15-.5-1.87-.12-1.34-.17-2.85-.53-4.14-.77-2.8-2.62-4.76-4.67-6.64l1.07,1.42-.27-1.47c-.12,1.72-.07,2.04.15.94.18-.63.28-1.27.32-1.92.3-2.26.41-4.69.31-6.97-.28-6.12-2.27-10.17-6.18-14.69l2.57,4.41c-.04-.09-.7-3.53-.76-4.86-.06-1.46.6-3.35.85-5.43.33-2.72.86-5.75.17-8.44-.28-1.09-.72-2.3-1.28-3.28-.43-.65-.9-1.28-1.39-1.89-1.14-1.58-1.07-1.33.2.76v5.32c-1.08,2.01-1.11,2.3-.11.86,1.24-1.25,2.1-2.72,2.57-4.41.66-2.05.87-4.09.29-6.21-.97-3.56-3.51-5.52-5.73-8.2l2.57,4.41c-.53-1.68,2.13-7.16,2.82-8.99,1.28-3.38,2.51-5.95,1.49-9.71-.37-1.36-.96-2.46-1.71-3.59l-1.56-2.02c-1.22-1.44-1.16-1.06.19,1.15v5.32l.35-.86-2.57,4.41c2.36-2.8,4.81-5.15,5.29-9.02s-1.19-6.8-2.65-10.21l1.37,5.05c-.57,1.67-.53,1.7.11.08.4-.85.72-1.72.96-2.63.29-.95.43-1.95.77-2.89.67-1.82,1.96-3.54,2.87-6.25s1.68-5.56,1.17-8.48c-.12-.67-.84-4.55-1.59-4.73l.38,3.28c.62-1.34.7-1.8.26-1.37l-3.59,3.59c2.43-1.61,4.32-3.17,5.94-5.63,4.57-6.89-3.14-17.87-11.29-14.69-3.07,1.2-5.71,2.44-7.45,5.4-.35.6-1.14,2.46-1.33,3.5,1.13-1.74,1.31-2.13.56-1.16-.68.81-1.32,1.64-1.95,2.49-1.22,1.9-1.86,3.86-1.99,6.13-.07,1.27-.1,6.16.39,2.19-.36,2.89-1.67,5.89-2.75,8.56l2.57-4.41c2.48-1.29,2.85-1.59,1.14-.89-1.12.39-2.19.87-3.22,1.45-1.7,1.05-3.01,2.53-4.12,4.18-1.62,2.39-5.26,7.61-3.96,10.55-.08,1.08.04.82.35-.78-.41.91-.85,1.8-1.31,2.68-.67,1.31-1.36,2.65-2.12,3.91-2.1,3.47-3.43,6.66-4.9,10.44l2.57-4.41c2.48-1.35,2.86-1.72,1.15-1.1-1.08.43-2.15.89-3.21,1.38-2.43,1.48-4.34,3.76-5.16,6.51-1.21,4.05.53,6.8,1.12,10.54v-5.32l-.16.66,2.57-4.41c-2.16,2.32-3.33,2.33-5.91,4.24-3.93,2.92-4.08,7.43-5.26,10.56l2.57-4.41c-.41.42-3.27,2.64-4.27,3.97-1.14,1.52-2,4.7-2.37,5.43l3.59-3.59c.68-.51.57-.08-.36.19-1.11.33-2.38.78-3.37,1.36-2.05,1.2-3.7,3.06-5.25,4.84s-2.84,3.72-3.98,5.82c-.82,1.5-1.72,4.3-2.19,5.12l3.59-3.59-.84.41,5.05-1.37c-2.97.28-5.83.13-8.58,1.57-2.35,1.23-4.15,3.19-6.16,4.89s-4.15,3.14-5.55,5.52c-.73,1.25-3.05,5.02.08,1.83,3.3-3.37-1.01-.47-2.24.19-4.12,2.2-7.29,3.91-11.81,5.1-3.21.85-5.71,1.91-7.86,4.52-.7.84-1.12,1.62-1.6,2.57l-1.01,2.39c.4-.85.34-.83-.18.05l3.59-3.59-.54.37,5.05-1.37-.78-.04,5.05,1.37c-3.23-1.56-5.57-3.64-9.46-3.57-2.1.04-4.08.75-5.86,1.83-1.07.64-2,1.43-2.77,2.4-2,2.49-2.1,2.69-.28.6,2.57-.34,5.14-.67,7.71-1.01-2.64-.42-6.27-2.58-9.94-1.57-3.23.89-5.33,3.16-7.73,5.28l4.41-2.57-.86.33h5.32c2.03,1.29,2.27,1.37.7.23-.61-.5-1.25-.97-1.92-1.4-1.4-.8-3.02-1.27-4.61-1.44-3-.33-6.62,1.33-8.4,1.66h5.32c2,1.14,2.5,1.34,1.51.62-.81-.63-1.62-1.26-2.43-1.88-1.36-.8-3.02-1.31-4.57-1.51-3.65-.47-6.66,1-9.88,2.52l5.05-1.37c-3.71.45,1.33.04,1.18,1.91.09-1.15-3.67-4.06-4.23-4.42-2.46-1.56-5.53-2.44-8.38-3.05l-2.66-.36c-1.8,0-1.78.13.05.37,1.74,3.47.73.72-.42-1.43-1.32-2.46-4.6-4.68-5.73-5.89l2.57,4.41c.26.76-.08-.56-.09-.9-.03-1.69-.46-3.44-1.13-4.98-.73-1.66-3.03-4.12-3.42-4.77l1.37,5.05s.47-3.32.41-4.72c-.08-1.95-.51-4.29-.94-6.23-.49-2.21-1.46-4.18-3.03-5.84-.84-.82-1.75-1.56-2.73-2.22-1.48-1.12-1.2-.81.84.94l1.37,5.05c.22-1.96.86-3.83.66-5.93s-1-3.83-1.4-5.8v5.32c-1.21,2.04-1.25,2.28-.13.71.5-.62.97-1.26,1.43-1.91.94-1.62,1.64-4.07,1.64-5.95s-.66-4.27-1.61-5.95c-.22-.39-1.51-2.9-1.09-1.24v5.32c1.02-5.56,2.23-10.51,2.2-16.23-.03-4.94-3.78-9.24-8.67-9.82-4.41-.52-10.26,2.18-10.97,7.16-.5,3.54-1.01,6.1-2.4,9.15-1.02,2.23-2.09,4.08-2.18,6.65-.06,1.62.82,4,.82,4.92l1.37-5.05c2.22-3.54-.58-.19-1.58.82-1.11,1.12-2.01,2.58-2.58,4.04-1.2,3.02-.27,6.45-.41,8.73l1.37-5.05c-1.22,2.66-2.77,5.04-3.38,7.96l-.36,2.66c1.34-2.2,1.58-2.75.73-1.65-.98.56-2,2.52-2.53,3.5-1.1,2.03-1.38,4.32-2.25,6.41-1.22,2.92-2.41,5.78-3.55,8.73l2.57-4.41c.56-.69.4-.18-.35.27-.99.59-2.08,1.35-2.88,2.15-1.68,1.67-2.92,3.92-4.01,6.01-2.42,4.64-1.35,8.24-.69,13.06v-5.32l-.18.78,2.57-4.41c2.49-1.31,2.88-1.64,1.19-.97-1.1.41-2.17.88-3.21,1.41-2.2,1.36-3.66,3.21-4.8,5.49-.91,1.81-2.04,4.11-2.51,6.07.08-.34-.64,6.28-.04,4.33l2.57-4.41c-1.66,2.05-3.6,3.88-4.95,6.16-.16.27-1.44,3.07-.56,1.65.93-1.51-2.89,1.96-2.65,1.76-1.43,1.23-2.93,2.55-4.2,3.94-1.77,1.94-2.36,5.11-3.12,6.63l3.59-3.59c.99-.23.83-.19-.48.12-1.17.34-2.31.79-3.41,1.34-1.46.84-2.63,2.04-3.82,3.2-2.55,2.48-5.28,4.6-7.73,7.2-2.58,2.74-5.19,4.83-7.2,8.1-.57.93-1.18,1.84-1.72,2.79.13-.23-2.12,5.6-1.18,4.1l3.59-3.59c-3.62,2.43-8.05,5.53-11.42,7.48-1.94,1.12-4.8,2.23-6.93,4.07-1.81,1.57-3.46,3.5-5.36,4.93-2.62,1.97-5.19,2.93-7.06,5.88-1.54,2.42,1.11-.91-.46.43-1.71.74-.82.75,2.67.01l-2.66-.36c-3.48-.14-6.78.8-9.31,3.31-.92.92-1.66,2-2.27,3.14l-1.01,2.39c-.68,1.72-.39,1.36.86-1.09l4.41-2.57c-1.63.33-4.59.23-1.75.38-2.23-.12-4.16-.84-6.44-.45-2.13.36-3.85,1.12-5.5,2.5-1.09.71-1.95,1.64-2.58,2.81-1.12,1.33-.83,1.19.87-.43l5.05-1.37c-.47,0-3.31-.91-4.84-.86-2.93.1-5.64,1.3-7.74,3.32-.76.88-1.48,1.79-2.16,2.73-1.28,1.79-.57,1.31,2.11-1.44-2.57.53-1.93.78,1.9.76-1.12-.48-2.24-.95-3.36-1.42-2.82-.78-4.93.15-7.71.11-1.53-.02-3.19-.66-4.78-.62-4.89.12-7.37,3.24-10.63,6.21l4.41-2.57-.73.28h5.32c2.38,1.37,2.27,1.15-.34-.68l-.91-.66c-1.75-.97-3.93-1.59-5.95-1.64-3.46-.08-6.79,1.07-10.12,1.51-1.34.18-4.31-.06-4.89-.24-1.52-.47-2.91-1.62-4.52-2.01-1.9-.46-3.89-.25-5.77-.62-3.19-.63-6.05-1.42-9.38-1.56-.75-.11-1.51-.13-2.27-.06-2.97.31-3.55.42-1.73.32,1.88.8-.87-.89-.35-.55-3.42-2.21-4.71-4.45-9.36-4.41-3.81.03-5.99,1.98-9.13,3.49l5.05-1.37-.78.04,5.05,1.37c-2.13-1.27-4.94-3.98-7.65-5.37-1.85-.95-3.9-1.44-5.99-1.43.29,0-6.28.62-4.08.8l5.05,1.37c-1.61-.8-3.27-1.67-4.72-2.73l3.59,3.59c-2.61-3.46-4.52-6.65-9.06-7.85-2.93-.77-6.86-.62-8.72-1.2l4.41,2.57-.56-.58,2.57,4.41c-1.45-3.63-1.89-7.1-5.24-9.71-2-1.56-4.49-2.33-7.02-2.39-1.28.09-2.55.25-3.82.46,1.74-.69,3.01-.41,3.84.83l1.37,5.05c.11-.6.1-1.2-.03-1.8-.6-5.37-4.17-10-10-10-5.01,0-10.51,4.59-10,10,.07.86.16,1.72.3,2.57.25,2.08.26,1.77,0-.92l2.57-4.41c-1.79,2.12-3.72,3.88-4.77,6.53-.54,1.37-.82,2.74-1.2,4.15.96-1.21,1.1-1.42.42-.63-.71.78-1.36,1.6-1.96,2.47-1.51,2.17-3.32,4.54-4.13,7.07-.17.53-.65,4.97-.82,5.04l.5-2.32c-.61.71-1.2,1.44-1.76,2.19-1.02,1.43-1.82,2.67-2.33,4.45l-.33,1.25c1.44-1.91,1.6-2.38.48-1.4-1.09.22-4.19,2.58-4.5,2.73-3.01,1.45-5.19,2.18-7.7,4.55-1.83,1.73-3.81,4.58-5.13,5.89l4.41-2.57c2.03-.67-4.57.26-4.21.17-2.16.52-3.99,1.51-5.55,3.1-2.79,2.83-2.69,5.83-3.97,9.18l2.57-4.41-.46.5,4.41-2.57-.79.17h5.32c-3.39-.51-6.07-1.79-9.67-.85s-7.09,2.82-9.94,5.1c-3.12,2.51,1.44-1.09-1.67,1.39-1.09.69-2.06,1.52-2.91,2.48l2.07-.99c.14-1.86-11.31,4.67-10.61,4.32l5.05-1.37-.78-.08,5.05,1.37c-3.2-1.74-5.46-3.82-9.39-3.82s-7.67,1.97-11.31,2.89h5.32c-1.72-.34-5.49-2.06-8.42-1.74-1.68.19-3.1.56-4.63,1.43-.42.24-2.93,1.45-1.36,1.12h5.32c-2.65-.58-4.71-1.62-7.22-2.51-2.85-1.02-5.67-.87-8.63-1.24l5.05,1.37c-2.61-1.15-5.26-2.36-7.85-3.58s-4.59-2.9-7.34-3.66c-.48-.17-.98-.28-1.49-.34-1.21-.26-1.04-.12.54.4-.82-.91-1.64-1.7-2.66-2.41-2.79-1.94-6.03-1.81-8.22-2.49l4.41,2.57c-1.12-1.16-3.09-4.07-5-5.54-2.01-1.55-4.02-3.12-5.89-4.84s-3.13-3.86-4.92-5.56c-1.41-1.34-3.34-2.48-5.21-3.04-.46-.14-3.01-1.09-1.51-.16l3.59,3.59c-1.17-1.74-2.26-4.44-3.59-6.75-1.14-1.99-2.41-3.58-4.35-4.88-.29-.2-2.73-1.39-2.11-.88l2.57,4.41c-.2-.57-.34-3.4-.82-4.87-.85-2.58-2.36-4.18-4.24-5.98-1.32-1.27-2.61-2.71-4.2-3.68-1.04-.51-2.11-.98-3.2-1.39-2.35-.91-1.46-.04,2.67,2.61-.57,2.29-.56,2.55,0,.77.37-1.22.59-2.47.65-3.76.06-2.5-.67-4.85-2.01-6.93-1.18-1.83-1.83-2.54-2.51-3.5.31.43-3.93-4.7-2.81-2.81l1.37,5.05c0-.25.46-3.49.6-4.79-.11,1,.18-.68.19-.83.23-1.77.48-3.34.19-5.12-.42-2.57-1.52-4.76-3.39-6.58-.77-.75-1.8-1.55-2.75-2.07-1.99-1.09-.75-1.35.58,1.26l1.37,5.05c-.1-4.18,1.52-5.88,1.05-10.41-.36-3.52-2.23-6.71-2.8-10.17v5.32l.23-.62-2.57,4.41c-1.26,1.32.67-.58.99-.82.91-.68,1.83-1.35,2.62-2.17,2.86-2.96,3.34-6.61,2.85-10.49-.13-1.07-.27-2.05-.41-3.12l-.36-2.66c-.46,2.31-.37,2.55.27.73,1.89-3.16,1.11-6.49,1.24-9.82l-1.37,5.05-1.37,1.5,2.02-1.56c1.01-.91,1.94-1.89,2.65-3.08,1.22-2.05,1.37-4.12,2.01-6.33.58-2,1.65-3.77,2.08-5.82.17-.79.86-4.79,0-5.32,1.11.68-3.39,6.92,1.08,1.02.44-.59,1.07-1.34,1.45-1.93,1.99-3.06-1.13.76.28-.38,2.28-1.85,4.04-3.42,5.64-5.92,1.14-1.78,2.27-3.66,2.81-5.72.5-1.89.33-3.28.06-5.11-.08-.55-.04-3.21-.19-2.02l-1.37,5.05.47-.61-3.59,3.59c3.07-2.23,6.06-3.83,7.52-7.57.92-2.37,1.11-4.9.43-7.4-.45-1.13-.93-2.24-1.45-3.34-.71-1.12-.78-1.3-.21-.53v5.32l.34-.86-2.57,4.41c1.59-1.9,3.28-3.59,4.33-5.86,1.66-3.58.84-6.48-.07-10.08-.98-3.91-.09,1.25-.18-1.38-.06-1.63.05-3.34-.38-4.93-.29-1.07-.76-2.3-1.31-3.24-.72-1.23-2.68-5.21-1.24-1.02v5.32c.28-1.42,1.67-3.86,1.86-5.97.24-2.72-.62-5.33-.65-7.96-.03-2.89-.05-5.57-1.55-8.18-.34-.59-1.7-2.86-2.19-2.91.99,3.22,1.42,3.92,1.3,2.12.02-.9,0-1.02-.06-.35l-2.57,4.41c2.45-2.59,4.94-4.28,5.96-7.96.55-1.99.36-4.25-.2-6.23-.37-1.2-.9-2.32-1.6-3.35-.78-1.16-.92-1.32-.44-.48v5.32c-.38,1,2.42-4.39,1.85-3.11.45-1.01.88-1.77,1.34-2.8,1.55-3.45.95-7,1.23-9.7l-1.37,5.05c1.18-1.94,3.67-4.07,4.23-7.36.3-1.76.29-3.08-.12-4.91-.14-.63-.27-3.16-.46-1.54l-1.37,5.05c.39-.92.79-1.85,1.18-2.77-3.44,1.96-3.53,2.17-.25.64,2.24-1.16,3.84-2.66,5.26-4.74,1.26-1.85,2.61-4.03,3.29-6.15.48-1.51.46-4.2.7-4.92l-2.57,4.41c1.51-1.33,4.78-3.16,6.25-5.95,1.13-2.14,2.39-5.62,3.27-7.09l-3.59,3.59-1.93.65,2.66-.36c1.23-.27,2.38-.57,3.51-1.19,2.17-1.18,3.82-2.86,5.01-5.03.61-1.11.73-2.58,1.35-3.64-1.06,1.81-.1.27.64.01-1.3.45-1.13.59.12.2,1.46-.46,2.74-1.24,4.04-2,3.71-2.16,7.46-3.97,10.85-6.61,3.88-3.02,4.83-6.31,6.57-10.63l-2.57,4.41.53-.57-4.41,2.57.96-.19h-5.32c3.4.55,6.24,1.28,9.78.58,4.07-.81,6.98-2.35,10.25-4.89.94-.73,2.46-1.88,4.1-2.4,3.25-1.03,6.37-3.04,8.75-4.15l-5.05,1.37c.79.03,3.31,1.04,4.92,1,2.65-.07,4.38-1.14,6.7-2.21.8-.37,1.64-1.12,3.32-1.2-2.23.1,3.88.63,4.5.71l-5.05-1.37c3.38,1.58,6.37,3.3,10.28,2.83,2.12-.25,3.94-1.15,5.63-2.37.31-.22,3.48-2.87,2.14-2.12l-5.05,1.37c-2.55-.82-2.97-.89-1.28-.22,1.04.56,2.13.98,3.27,1.25,2.77.66,5.96.37,8.45-1.09,1.99-1.16,3.55-2.92,4.61-4.93-.11.21,2.74-5.6,1.39-3.59l-3.59,3.59c3.52-2.54,6.78-4.5,8.28-8.86.76-2.23,1.29-4.87,1.38-7.22.08-2.05-.57-3.88-.54-4.24.27-3.59,1.21-7.07,2.05-10.53.57-2.34.69-4.66,0-7-.41-1.16-.91-2.28-1.52-3.35-.74-1.14-.84-1.29-.28-.47v5.32l.35-.88-2.57,4.41c3-3.51,5.47-6.36,5.6-11.23.04-1.58.01-3.19-.1-4.76-.05-.63-2-10.05-1.42-3.9l-1.37,5.05c-1.97,1.76-2.22,2.08-.74.98.97-.67,1.89-1.41,2.74-2.21,1.99-2.1,3.23-4.88,3.3-7.78.02-.92-.55-6.55-1.86-7.01.07,4.09.27,4.27.58.54-3.06,3.42-3.74,4.58-2.04,3.5,1.67-.12,4.05-3.24,4.81-4.44,1.31-2.07,1.94-4.42,1.9-6.87-.03-1.64-.19-2.4.04-3.97.28-.99.5-2,.67-3.01.55-3.03.55-3.53,0-1.5l-3.59,3.59c1.64-1.25,3.48-2.27,4.92-3.76,1.13-1.17,1.79-2.38,2.48-3.78l1.01-2.39c-.77.87-.82.99-.14.38,1.92-2,3.88-3.54,4.73-6.41.34-1.13.6-2.41.61-3.58-.02-.83-.1-1.66-.24-2.48-.23-2.01-.26-1.77-.1.72l-2.57,4.41c.29-.31,3.07-3.24,1.65-1.97-1.02.91,1.21-.54,1.73-.79,3.16-1.51,5.36-3.69,6.78-6.91.26-.58,1.67-2.78.62-1.67-1.41,1.5,1.52-1.09,1.81-1.42.79-.89,1.6-1.92,2.19-2.96-.2.35,1.9-3.67,1.55-3.18l-3.59,3.59c.64-.46,2.1-1.01,2.55-1.6-.23.29-3.26.24-.65.18,2.91-.06,5.71-.67,8.04-2.53,1.64-1.31,2.79-3.53,3.59-4.79.31-.49,2.6-3.49,2.66-3.55l-4.41,2.57c-1.05.35-.29.18.5.25,1.37.13,2.89-.08,4.21-.45,3.41-.95,4.98-3.04,7.21-5.51,1.42-1.57,5.56-5.53,7.09-6.89l-4.41,2.57.75-.16h-5.32c3.36.6,6.05,1.89,9.65.94,2.08-.55,3.68-1.52,5.21-3.03.79-.68,1.45-1.48,1.98-2.41.83-1.2.92-1.37.27-.52-1.28.99,2.85-1.5,3.37-1.76,2.89-1.46-2.08.51,3.31-.63,2.9-.61,6.42-1.83,8.91-3.43,2.85-1.83,3.74-2.27,6.65-4.03,1.46-.88,2.55-2.07,3.82-3.16-1.68.66-1.61.66.22,0l-1.95-.28c3.81.81,7.01,1.59,10.74-.41,3.21-1.72,4.49-3.46,7.81-5l-5.05,1.37-2.01-.47,2.39,1.01c1.35.44,2.73.75,4.16.75,2.6.01,4.92-1,7.43-1.47s4.57-.31,6.84-1.53c1.19-.64,2.25-1.48,3.2-2.44.41-.45.79-.92,1.15-1.42,1.21-1.49,1.02-1.37-.57.36l-5.05,1.37.93.08-5.05-1.37c3.78,1.7,7.37,3.78,11.69,2.59,1.84-.51,3.86-1.73,5.23-3.02.84-.9,1.61-1.85,2.31-2.86-3.81,1.89-4.68,2.64-2.63,2.25,3.59.42,7.31-1.08,10.79-1.5s6.89-.68,10.37-1.28h-5.32c-1.32-.27.35.41.9.73,1.17.69,2.46,1.18,3.78,1.49,3.5.84,6.38-.51,9.67-1.33h-5.32c2.93.49,5.42,1.59,8.5,1.24,1.93-.22,4.73-1.74,5.7-2h-5.32c2.76.55,6.29,1.99,10.09,1.68,1.71-.14,3.38-.2,5.03-.7,1.23-.31,2.33-.86,3.28-1.65,2.62-1.83,2.72-2.05.3-.66h-5.32c1.58.34,5.68,2.11,8.09,2.77,4.31,1.18,7.45-.73,10.59-1.3h-5.32c2.66.83,5.7,2.97,9.63,2.03,1.43-.34,2.72-.94,3.95-1.73l2.02-1.56c1.44-1.18,1.03-1.04-1.23.41h-5.32c1.09.15,4,.73,4.17.79,2,.72,3.65,1.94,5.83,2.32,3.36.59,8.34-.2,10.44-.25l-5.05-1.37c-1.8-2-2.16-2.26-1.06-.78l1.56,2.02c1.31,1.43,2.75,2.44,4.54,3.14,2.04.8,3.96.99,6.11.6,1.28-.23,8.06-1.65,2.58-1.24l-5.05-1.37c3.6,1.59,6.8,3.63,10.65,4.93,4.14,1.4,8.28,1.91,12.64,1.76,1.3-.13,2.6-.33,3.88-.58-2.39.06-2,.22,1.16.46,1.5.28,3.12.69,4.56,1.19,3.09,1.09,6.49,1.92,9.28,3.48,4.54,2.54,8.09,4.22,13.43,3.61,1.73-.31,1.6-.27-.41.11.9.38,1.82.7,2.76.97.94.28,1.86.6,2.77.97-1.36-1.06-1.39-1.03-.09.07,3.91,3.31,8.98,3.99,13.94,4.36,2.16.16,4.43.23,6.52-.39-.34.1,5.59-2.38,3.66-1.94h-5.32l.73.26-4.41-2.57c2.52,2.05,4.27,4.38,7.64,5.32,4.14,1.16,7.12-.75,10.06-1.57h-5.32c3.98.67,7.67,2.29,12.55.33,1.6-.64,3.35-1.29,4.81-2.19-.36.22,4.61-3.86,2.88-2.82l-5.05,1.37c1.11-.06,5.14.55,7.37-.07,2.55-.7,4.37-2.61,6.22-3.56l-5.05,1.37c-1.55.05.09.26.86.48,1.17.33,2.48.49,3.69.48,2.74-.02,6.14-.96,8.67-2.01,1.82-.76,3.98-2.48,5.03-3.24.93-.67,1.98-1.24,2.8-2.05.52-.59,1.01-1.19,1.47-1.82,1.23-1.49,1.02-1.37-.63.35l-5.05,1.37c.07,0,2.81.74,3.72.78,2.37.09,4.29-.52,6.43-1.38,2.8-1.14,5.31-2.7,8.03-3.89l-5.05,1.37c2.76-.3,9.11.36,11.02-2.22-4.68-.9-5.74-.88-3.16.07.71.33,1.44.61,2.19.86,2.02.54,3.18.31,5.1.27,3.25-.07,6.86-.19,10.03-1.11,1.55-.45,3-1.27,4.29-2.2.43-.31,3.68-2.54,2.11-1.82l-5.05,1.37c1.9.06,5.51,1.04,8.35.17,3.17-.98,4.34-1.89,7.86-2.36h-5.32c-3.78-1.12.11.77,1.3,1.46,1.38.81,3.05,1.29,4.62,1.47,3.01.34,6.6-1.23,8.52-1.6h-5.32c2.45.52,4.59,1.54,7.17,1.62,1.62.05,3.31-.4,4.88-.37,2.74.05,4.96.84,7.74,0-.19.06,5.46-2.43,3.8-2.07h-5.32c2.75.65,5.41,1.57,8.18,2.17,1.54.33,3.01.51,4.57.42,1.13,0,2.22-.18,3.26-.55,1.08-.26.8-.35-.87-.26l1.46.51c-1.05-.95-1.18-1.07-.39-.37,1.24.75,2.25,1.84,3.56,2.52,2.06,1.06,3.97,1.39,6.24,1.3.89-.04,3.72-.91,3.69-.91l-5.05-1.37c-1.83-1.94-2.23-2.16-1.2-.66.7.93,1.42,1.85,2.15,2.76,1.78,1.72,3.97,2.83,6.41,3.16,4.36.59,7.25-1.61,10.92-3.33l-5.05,1.37.79-.04-5.05-1.37.66.44-3.59-3.59c1.94,2.65,2.97,5.38,6.02,7.21,3.94,2.36,7,.86,10.36,1.06l-5.05-1.37c1.7,1.09,3.39,3.4,6.06,4.12,1.09.29,2.49.5,3.6.5,1.91,0,5.82.03,1.45-.72l-4.41-2.57c-1.2-.97-.19.16.34,1.07.65,1.11,1.4,2.15,2.32,3.06,2.07,2.03,5.84,4.18,8.64,4.99,1.41.41,3.18.75,4.65.53,3.21-.48-3.14-.65.61-.13,1.44.69,1.58.69.43,0l.76.93c.89,1.25,2.36,2.51,3.62,3.28,1.07.65,2.97,1.86,4.08,1.61,1.61-.35-2.51-3.53-.82-.98.87,1.31,2.2,2.88,3.47,3.91l1.04,1.14c-.53-1.6-.5-1.61.06-.02,1.42,3.13,2.87,5.71,6.05,7.42,1.66.9,2.82,1.11,4.54,1.45-1.97-.4-1.05-1.68-.28.08l-1.37-5.05c.36,5.17,1.22,8.9,4.17,13.28,2.56,3.81,6.53,5.19,9.22,7.82l-2.57-4.41-.16-2.03-.36,2.66c-.07,1.29-.1,2.51.21,3.8.67,2.81,2.17,5.02,4.41,6.82.66.53,1.53,1.28,2.36,1.6s-.78-1.61-.44-.11c.43,1.89,2.48,4.26,3.37,6l-1.37-5.05c-.11-.9.15-.41-.11.5-.33,1.16-.6,2.55-.6,3.74,0,2.21.61,5.25,1.18,7.33,1.34,4.85,4.74,6.67,8.47,9.43l-3.59-3.59c0-1.18.35-.49,1.02,2.07.9-4.97.69-5.57-.61-1.82-.5,1.5-.8,3.05-.75,4.64.07,2.14.74,4.07,1.85,5.87.63,1.07,1.43,1.99,2.39,2.76,2.47,2.03,2.68,2.1.64.23l-1.37-5.05c0,.16-.8,4.57-.8,4.56-.51,3.5-.83,5.63.03,9.14,1.19,4.86.78,10.81,3.44,15.33.76,1.29.56,1.09.27-.25.41,1.85.29,3.78.69,5.64.23,1.05.76,2.03.97,3.06.04.22-.51,3.07-.08,1.31s-1.28,2.44-1.41,2.88c-.52,1.7-.62,3.3-.47,5.04s.62,3.2,1.37,4.75c.26.52,1.12,3.18.7,1.23v-5.32c.45-2.15,1.93-2.81.48-1.25-1.35,1.45-2.23,3.01-2.71,4.93-1.28,5.14,1.27,10.32,6.02,12.52,2.68,1.24,5.2,1.83,7.87,3.23,3.38,1.78,6.65,2.8,10.21,4.07l-4.41-2.57c-1.14-2.15-1.31-2.33-.5-.54.28.74.61,1.46.99,2.16.71,1.18,1.73,2.08,2.65,3.06,1.88,2,3.76,3.79,6.24,5.05,2.25,1.14,4.37,2.44,6.61,3.59,2.03,1.05,3.65,1.53,5.92,1.7.66.05,3.05.74,1.49.11l-4.41-2.57c.27.22,3.59,2.51,3.51,2.91-1.58-2.55-1.65-2.34-.21.62l.41.93c.96,1.58,2.51,3.38,4.16,4.32,1.65,1.51,1.67,1.16.05-1.05.23.83.53,1.64.9,2.43,1.89,4.2,4.67,5.77,8.67,7.57.63.28,1.06.68,2.33,1.16.71.41,1.47.64,2.29.69,3.3.6,3.54.51.7-.27l-3.59-3.59.34.72-1.37-5.05c.18,3.58-.43,6.73,1.6,10.07,1.51,2.48,4.02,4.23,6.77,5.09.69.22,1.4.38,2.12.49-1.69-.96-2.04-1.01-1.06-.13.61,1.41,2.66,2.67,3.65,3.84-.71-1.55-.77-1.56-.19-.04.33,1.01.75,1.98,1.29,2.89,2.04,3.52,5.5,6.11,8.21,9.07l-2.57-4.41c.19-2.95.15-3.48-.11-1.59-.25,1.19-.38,2.39-.39,3.59.07,2.48.86,4.86,2.38,6.81,2.59,3.3,5.99,3.84,9.65,5.16l-4.41-2.57c.29.24,2.01,4.21,1.07-.31s-.82-.16-.84,1.18c-.06,3.3.96,5.72,2.82,8.38,1.3,1.87,2.13,3.95,3.35,5.85,1.39,2.17,3.44,3.42,4.97,5.38l-2.57-4.41.13.93v-5.32c-.94,4.37-1.63,7.73.28,12.01,1.32,2.96,3.51,6.35,4.99,8.26.57.74,3.42,5.19,2.25,2.23.54,1.36.43,2.77.52,4.2.16,2.66.86,4.85,2.11,7.19.45.52.79,1.1,1.03,1.74.99,2.89,1.26,3.21.78.95l1.37-5.05c-1.58,3.59-3.67,6.46-3.1,10.67.33,2.44,1.43,4.65,3.14,6.43.88.77,1.8,1.5,2.76,2.18,1.5,1.07,1.27.71-.69-1.1l-1.37-5.05c0,.12-.65,3.29-.6,4.7.05,1.31,1.28,4.56,1.15,5.54l1.37-5.05c-1.2,2.8-2.57,5.45-2.57,8.59,0,2.54,1.95,5.52,2.41,7,3.83,12.24,23.15,7.02,19.29-5.32Z"/>
  </g>
  <path d="M405.69,281.59c-2.05,2.18-5.77,4.05-7.99,7.11-.84,1.16-1.37,2.26-1.88,3.61-1.17,3.13.75-.35-.45,1.43-1.63,2.4-3.59,4.03-4.38,7.01-.29,1.11-.47,2.55-.38,3.72.23,3.07.37-1.77.76-1.66l-1.56,2.02,2.45-1.86c-.29-.22-2.8,1.17-3.32,1.48-2.62,1.57-4.59,4.14-5.4,7.07-.32,1.18-.46,2.47-.45,3.68.03.63.1,1.27.22,1.89.21,2.02.27,1.77.19-.75-3.44,12.42,15.85,17.72,19.29,5.32.38-1.35.59-2.72.57-4.13-.03-.63-.1-1.27-.22-1.89-.21-2.02-.27-1.77-.19.75l-2.57,4.41c-2.59,1.39-2.39,1.4.59.03,1.1-.49,2.09-1.17,2.95-2.04,1.27-1.18,2.3-2.64,3.37-4,1.33-1.7,2.47-3.32,3-5.49-.09.38.98-6.23.28-4.12l-2.57,4.41c1.5-1.81,3.35-3.41,4.59-5.44l.6-1.41c1.63-2.88,1.38-3.16-.76-.86-.08-.54,6.97-5.68,7.41-6.15,8.82-9.36-5.29-23.53-14.14-14.14h0Z"/>
  <path d="M366,276.1c-2.06,2.96-4.05,6.59-7.32,9.26l4.41-2.57c-3.56,1.46-6.9,1.81-9.51,5.14s-2.03,6.92-2.48,10.81l1.37-5.05-.28.61c-2.28,4.89-1.37,10.78,3.59,13.68,4.33,2.53,11.39,1.33,13.68-3.59,1.65-3.54,1.29-6.21,1.7-9.79l-1.37,5.05-.76.99-4.41,2.57c1.23-.5,2.55-.69,3.8-1.14,3.01-1.07,4.8-2.83,6.74-5.21,2.86-3.51,5.54-6.96,8.13-10.67,3.09-4.43.81-11.11-3.59-13.68-4.98-2.92-10.58-.85-13.68,3.59h0Z"/>
  <path d="M344.98,251.64c-.94.58-.86.62.24.13-.66.27-1.31.54-1.97.82-1.39.59-2.39,1.18-3.59,2.11-2.39,1.84-3.96,4.56-4.74,7.47-.43,1.15-.23.9.6-.74.3-.85.82-1.53,1.55-2.03-.43-.06-1.63.97-2.05,1.26-2.29,1.55-4.04,3.5-6.05,5.36-3.85,3.56-3.87,10.59,0,14.14,4.12,3.78,10.04,3.8,14.14,0,.7-.65,1.36-1.33,2.03-2,.33-.34.67-.68,1.02-.99.59-.54.46-.43-.38.32,1.86-.89,3.72-2.25,5.09-3.76s2.14-3.04,2.88-4.97c.2-.52.74-1.4.68-1.93l-3.01,3.89c-1.01.39-1.18.44-.5.17.99-.92,2.95-1.14,4.16-1.99,4.27-3.01,6.69-8.88,3.59-13.68-2.73-4.24-9.11-6.81-13.68-3.59h0Z"/>
  <path d="M828.47,271.03c.24,1.08.73,4.59.72,1.59,0,2.16-.84,4.15-.51,6.37s1.13,3.9,2.37,5.61c.46.66.98,1.28,1.55,1.85,1.05.9,1.2,1.07.48.51l-1.37-5.05c-.17,3.83-.14,6.71.91,10.41.64,2.23-.15,4.99,1.39.94,1.79-4.7-.95-.16-1.71,1.11-1.77,2.97-2.21,6.34-1.2,9.65.95,3.14,3.37,4.96,5.28,7.41l-2.57-4.41c-.04-2.33-.18-1.92-.44,1.22.74-1.92.67-2.16-.21-.72-1.01,1.11-1.48,2.81-1.81,4.24-.5,2.11-.36,4.19.25,6.25.34,1.21.89,2.32,1.62,3.33,1.87,2.57,2.07,2.71.57.42v-5.32c-.14.64-1.18,3.12-1.52,4.59-2.85,12.53,16.42,17.88,19.29,5.32.48-2.12,2.03-5.53,1.7-8.58-.19-1.71-.57-3.07-1.43-4.65l-.61-.94c-1.87-2.57-2.06-2.71-.6-.42v5.32c-.27,1.04.14.08.47-.39.67-.96,1.24-2.2,1.57-3.31.63-2.16.97-5.27.98-7.47.03-5.19-2.87-7.87-5.84-11.6l2.57,4.41-.26-.76v5.32c-1.37,2.09-1.64,2.62-.82,1.61.67-.78,1.31-1.59,1.91-2.43.77-1.24,1.35-2.56,1.7-3.97.78-3.16.03-7.6-.82-10.7-.14-.53-1.05-3.4-.82-1.63-.36-2.73.85-4.04.07-6.88-.53-1.92-1.66-3.83-2.96-5.3-.33-.37-1.8-2.54-1.26-1.35l1.37,5.05c.01-.34.7-3.3.64-4.77-.09-2.43-.87-4.82-1.39-7.18-2.79-12.56-22.08-7.24-19.29,5.32h0Z"/>
  <path d="M795.16,292.7c.59,1.62,1.23,3.22,2.2,4.65-.56-.82-.25-1-.09.15.12.85.34,1.68.45,2.53.23,1.71-.16-1.31-.03.43.09,1.23.23,2.48.46,3.69.28,1.52.85,2.96,1.25,4.46,1.36,5.05,7.18,8.64,12.3,6.98s8.44-6.89,6.98-12.3c-.35-1.31-.94-2.61-1.18-3.95.2,1.1.14.09.1-.44-.1-1.39-.37-2.81-.6-4.18s-.39-2.67-.79-3.93c-.34-1.07-.83-2.18-1.37-3.15-.24-.43-1.1-2.16-.4-.25-1.79-4.9-6.87-8.74-12.3-6.98-4.81,1.56-8.91,7.04-6.98,12.3h0Z"/>
  <path d="M765.85,302.27l-.04.32.36-2.66c.2-.94.61-1.75,1.23-2.45.64-.79.71-.91.23-.37-.22.2-.42.42-.62.64-1.29,1.38-2.33,2.77-3.06,4.49-1.59,3.78-.61,7.13-.03,10.97l-.36-2.66.04.64c.31,5.21,4.38,10.25,10,10,5.15-.23,10.33-4.41,10-10-.13-2.23-.67-4.3-1-6.48l.36,2.66c-.06-.32-.06-.64,0-.96l-.36,2.66c-.31,1.21-.89,2.25-1.76,3.14.2-.22.4-.43.61-.64.3-.31.6-.63.89-.96.71-.82,1.41-1.72,1.98-2.66,1.18-1.94,1.23-3.49,1.53-5.68.31-2.34-1.34-5.49-2.93-7.07-1.73-1.73-4.58-3.04-7.07-2.93s-5.27.97-7.07,2.93c-1.92,2.09-2.55,4.28-2.93,7.07h0Z"/>
</svg>