<?xml version="1.0" encoding="UTF-8"?>
<svg id="_レイヤー_2" data-name="レイヤー 2" xmlns="http://www.w3.org/2000/svg" viewBox="0 0 1000 1000">
  <path d="M618.5,163.5c-.9,13.99-10.69,25.71-20.42,34.97-11.26,10.7-24.25,19.68-37.7,27.4-29.95,17.18-63.14,27.37-96.2,36.68-72.02,20.28-143.41,42.02-210.83,75.01-32.63,15.96-64.81,36.33-83.77,68.31-6.58,11.1,10.7,21.17,17.27,10.09,16.49-27.82,44.77-45.26,73.01-59.37,33.43-16.69,68.3-30.54,103.59-42.76s71.6-22.26,107.71-32.47c33.85-9.57,67.85-20.33,98.57-37.8,15.79-8.98,31.2-19.79,44.16-32.56,13.11-12.92,23.4-28.72,24.61-47.5.35-5.4-4.85-10-10-10-5.7,0-9.65,4.59-10,10h0Z"/>
  <path d="M618.32,168.89c3.27,96.51,48.61,189.04,124.01,249.63,20.18,16.22,41.97,30.19,65.32,41.4,4.87,2.34,10.8,1.34,13.68-3.59,2.56-4.37,1.3-11.33-3.59-13.68-80.49-38.65-141.91-110.1-166.95-195.95-7.4-25.35-11.58-51.43-12.47-77.82-.43-12.84-20.44-12.89-20,0h0Z"/>
  <path d="M745.84,210.14c34.39,8.63,75.04,2.64,105.63-15.22,32.9-19.21,52.97-61.11,47.48-98.8-5.11-35.05-33.32-61.51-64.69-74.83-34.72-14.74-73.87-15.04-108.61-.17-19.56,8.37-36.8,21.75-48.83,39.39-14.72,21.59-19.2,48.75-12.74,74,3.19,12.46,22.48,7.18,19.29-5.32-9.19-35.91,11.24-69.37,42.51-86.11,27.84-14.9,61-16.81,90.73-7.19,26.71,8.64,52.63,27.72,60.73,54.82,4.24,14.19,3.04,29.19-2.06,43.55-5.33,14.99-14.14,29.61-26.55,38.63-26.66,19.36-66.43,25.77-97.56,17.96-12.49-3.13-17.81,16.15-5.32,19.29h0Z"/>
  <path d="M175.16,590.92c-26.51,11.63-48.97,33.08-61.83,59.03-6.58,13.29-14.69,32.83-2.98,45.75,9.7,10.71,29.15,8.64,33.65-5.9,1.36-4.38-.95-8.92-4.6-11.29-16.76-10.93-35.83-.4-46.24,13.86-11.01,15.08-16.31,34.27-16.38,52.79-.05,12.87,19.95,12.89,20,0s3.39-26.04,10.17-37.42c4.31-7.23,13.1-17.99,22.35-11.96-1.53-3.76-3.06-7.53-4.6-11.29.35-1.12,2.04-1.46,2.26-1.95-.21.47-1.57-.01-2.11-.46,1.25,1.03-.26-1.19-.37-2.48-.21-2.35.41-4.69,1.05-6.93,2.77-9.66,7.86-18.79,13.54-27.02,11.47-16.63,27.75-29.38,46.18-37.46,4.95-2.17,6.09-9.4,3.59-13.68-2.98-5.1-8.72-5.77-13.68-3.59h0Z"/>
  <path d="M800.93,623.81c13.89,1.75,27.26,8.6,37.18,18.38,5.25,5.18,9.96,11.24,11.97,18.44.76,2.73,1.14,6.09-.04,8.78-.15.33-1.2,1.67-1.16,1.87-.46-2.3,5.87,3.63,3.88,3.15.05.01,4.66-2.37,5.14-2.52,3.37-1.04,6.87-1.87,10.37-2.34,6.43-.85,13.25-.75,19.64.31,14.2,2.35,27.3,8.71,37.6,18.78,9.21,9.01,23.36-5.12,14.14-14.14-12.62-12.35-28.99-20.93-46.43-23.93-8.67-1.49-17.37-1.95-26.11-.88-9.28,1.14-19.81,3.03-27.12,9.29-7.52,6.45-10.21,19.02-2.79,26.7s20.06,6.44,26.96-1.51c14.01-16.16,3.46-39.19-8.67-52.77-14.13-15.81-33.72-25.01-54.55-27.64-5.37-.68-10,5.08-10,10,0,5.97,4.62,9.32,10,10h0Z"/>
</svg>