<?xml version="1.0" encoding="UTF-8"?>
<svg id="_レイヤー_2" data-name="レイヤー 2" xmlns="http://www.w3.org/2000/svg" viewBox="0 0 1000 1000">
  <defs>
    <style>
      .cls-1 {
        fill: #fff;
      }
    </style>
  </defs>
  <g>
    <path class="cls-1" d="M171.11,481.43c.01,1.49-.13,3.16-.11,4.65s-1.3,3.02-1.26,4.51,3.48,2.88,3.53,4.37-1.67,3.04-1.6,4.53,1.45,2.91,1.53,4.4,1.03,2.91,1.12,4.4.11,2.96.22,4.45-2.11,3.14-1.99,4.63.42,2.96.55,4.45.83,2.92.98,4.4.84,2.91,1,4.39.66,2.92.83,4.4-.19,3.02,0,4.5.99,2.87,1.19,4.35.36,2.95.58,4.42,1.07,2.84,1.3,4.31-1.08,3.18-.84,4.65,1.93,2.69,2.19,4.16-1.99,3.38-1.72,4.85,1.54,2.75,1.82,4.21-.19,3.08.11,4.54,1.5,2.73,1.81,4.19,1.27,2.77,1.59,4.22-1.06,3.3-.72,4.75.73,2.9,1.08,4.35c.35,1.46.73,2.92,1.1,4.37s.64,2.94,1.02,4.39,1.41,2.73,1.81,4.18,1.77,2.62,2.18,4.06-.84,3.37-.41,4.81,3.36,2.12,3.8,3.55.32,3.03.77,4.46.58,2.96,1.05,4.38-1.05,3.52-.57,4.94,2.34,2.37,2.83,3.79,2.42,2.31,2.94,3.72-1.02,3.57-.49,4.98,1.62,2.6,2.16,4,2.29,2.31,2.86,3.71,1.22,2.73,1.8,4.11-1.23,3.78-.64,5.16,1.36,2.7,1.97,4.07.43,3.12,1.05,4.48,2.62,2.11,3.26,3.47-.08,3.38.57,4.73,3.8,1.48,4.47,2.83-.67,3.71.01,5.05,1.63,2.56,2.33,3.88,2.43,2.11,3.15,3.43,3.07,1.72,3.81,3.03.74,3.01,1.49,4.31.01,3.47.78,4.76,2.3,2.12,3.09,3.4,1.57,2.56,2.37,3.83.96,2.95,1.78,4.21.56,3.25,1.4,4.49,3.82,1.04,4.67,2.28,1.89,2.33,2.76,3.55,2.23,2.08,3.11,3.29.98,2.99,1.88,4.19,1.09,2.94,2.01,4.13,1.26,2.84,2.2,4.02,3.45,1.07,4.4,2.23.39,3.59,1.36,4.74,1.55,2.65,2.54,3.79,2.97,1.4,3.97,2.52,2.78,1.52,3.8,2.63,2.43,1.81,3.47,2.9,2.49,1.74,3.54,2.81-.21,4.45.87,5.5,2.16,2.15,3.26,3.19,1.98,2.36,3.1,3.37,4.73-.82,5.88.16-.08,4.78,1.09,5.74,2.54,1.71,3.73,2.64,4.26-.6,5.47.31.88,3.87,2.11,4.75,3.19.72,4.43,1.57,2.07,2.32,3.33,3.15,2.86,1.14,4.13,1.94,2.5,1.68,3.79,2.46,2.63,1.48,3.93,2.24,1.67,3.2,2.98,3.93,3.77-.59,5.1.12,2.4,1.92,3.74,2.6,2.62,1.51,3.97,2.17,2.32,2.16,3.69,2.79,3.05.6,4.43,1.22,3.13.36,4.52.95,2.59,1.61,3.99,2.18,3.41-.45,4.82.1,2.54,1.73,3.96,2.26,1.93,3.51,3.35,4.01,3.15.17,4.58.66,3.58-1.24,5.01-.77,2.64,1.58,4.08,2.03,2.5,2.13,3.95,2.56,2.91.79,4.37,1.2,2.86.98,4.32,1.37,3,.44,4.47.8,2.98.5,4.45.85,2.9.82,4.38,1.15,3.02.45,4.5.76c.17,2.23-2.38,1.7-2.94,3.87s-.57,2.16-1.14,4.33,1.35,2.66.79,4.83-2.51,1.66-3.07,3.82,2.32,2.92,1.76,5.08-2.28,1.72-2.84,3.88,1.95,2.82,1.39,4.99-1.36,1.96-1.93,4.12-2.03,1.79-2.59,3.95.25,2.38-.31,4.54-1.51,1.92-2.07,4.09-.09,2.29-.66,4.46-.6,2.16-1.16,4.32-.4,2.21-.96,4.37-1.74,1.86-2.3,4.03.62,2.47.06,4.64-.5,2.18-1.07,4.35-1.91,1.82-2.47,3.99,2.05,2.85,1.49,5.01-2.6,1.64-3.17,3.8.54,2.45-.03,4.62-.02,2.31-.58,4.48-3.09,1.51-3.66,3.68,2.25,2.9,1.69,5.07-1.98,1.65-3.13,3.58c-1.48.03-2.25,1.87-3.79,1.89s-3.02-3.19-4.55-3.18-2.98.87-4.51.87-3,1.37-4.52,1.37-3,.78-4.53.77-3,.06-4.53.05-3-.13-4.52-.15-2.96-2.98-4.48-3-3,.31-4.52.28-3.04,1.66-4.55,1.62-3-.33-4.51-.37-2.97-1.54-4.48-1.57-3.01.26-4.53.22-3.02.62-4.54.58-3.06,1.58-4.57,1.54-2.95-1.89-4.46-1.94-2.99-.51-4.5-.57-3.05.97-4.56.92-2.94-1.81-4.45-1.86-3.06,1.3-4.57,1.24-3.09,1.83-4.6,1.77-2.95-1.44-4.46-1.5-3.02.1-4.52.03-3-.28-4.51-.35-3.04.49-4.54.42-2.92-2.12-4.43-2.19-3.08,1.29-4.58,1.22-3-.5-4.5-.57-2.96-1.3-4.46-1.38-3.14,2.32-4.64,2.25-2.85-3.42-4.36-3.49-3-.48-4.5-.56-3.04.31-4.54.23-3.1,1.48-4.61,1.4-3.06.62-4.56.54-3-.5-4.5-.59-3.01-.3-4.51-.38-2.96-1.17-4.46-1.26-3.15,2.08-4.64,1.99-2.87-2.8-4.36-2.89-3.05.46-4.55.37-2.99-.63-4.49-.72-3.17,2.31-4.66,2.22-2.94-1.54-4.43-1.63-3.06.53-4.56.43-2.84-3.11-4.33-3.2-3.05.23-4.54.14-3-.63-4.48-.72-3.11,1.09-4.59,1-3.04-.03-4.52-.13-3.09.67-4.57.57-3.06.21-4.54.12-3.11.89-4.58.79-2.83-3.32-4.31-3.42-3.05-.08-4.52-.18c-1.54-.1-3.24,2.57-4.7,2.47-1.55-.11-2.89-2.73-4.34-2.83-1.56-.11-3.15,1.03-4.59.93-1.58-.11-2.94-2.17-4.37-2.27-1.6-.11-3.2,1.21-4.61,1.11-1.64-.12-3.14-.3-4.5-.4-1.74-.12-3.34,1.12-4.6,1.03-2.93-.21-3.99-1.07-3.99-1.07,1.09-1.04.47-3.76,1.51-4.84s4.04-.34,5.03-1.46,1.76-2.5,2.7-3.66.52-3.39,1.41-4.6,2.83-1.66,3.67-2.9,1.23-2.78,2.03-4.06.12-3.39.87-4.69,4.91-.71,5.61-2.04-1.69-4.25-1.03-5.6,3.04-1.86,3.67-3.23,2.15-2.36,2.74-3.75.46-3.08,1.01-4.48,1.42-2.7,1.93-4.11-.68-3.43-.19-4.85.33-3.03.78-4.46,2.25-2.44,2.68-3.88-.97-3.38-.57-4.83,4.09-2.01,4.47-3.47-.88-3.33-.52-4.79,1.65-2.71,1.98-4.17-1.5-3.41-1.18-4.88,1.2-2.81,1.5-4.28c.3-1.47,2.37-2.58,2.65-4.05s-1.85-3.4-1.57-4.87,1.49-2.76,1.75-4.24-.65-3.14-.4-4.62.81-2.89,1.05-4.36,1.52-2.78,1.75-4.26-.18-3.05.04-4.53-.56-3.09-.35-4.57,1.65-2.79,1.84-4.27,1.17-2.87,1.35-4.35,1.35-2.86,1.53-4.34-1.73-3.21-1.57-4.7,2.42-2.75,2.57-4.24-2.88-3.29-2.74-4.78,2.82-2.74,2.96-4.23.93-2.93,1.06-4.42-.47-3.05-.35-4.54.54-2.96.65-4.46.9-2.94,1-4.44-3.24-3.2-3.15-4.69,1.07-2.93,1.15-4.42,1.67-2.91,1.74-4.4-1.3-3.06-1.23-4.55.6-2.97.65-4.46.21-2.98.26-4.48-.71-3.01-.67-4.51.13-2.98.17-4.48,2.48-2.94,2.51-4.43-2.45-3.04-2.43-4.53,2.9-2.95,2.92-4.45-3.53-3.03-3.52-4.52,3.79-2.97,3.8-4.47-2.97-3-2.97-4.5,1.72-2.99,1.72-4.49-2.33-2.98-2.34-4.48,2.71-3.01,2.69-4.51-.12-2.99-.14-4.49-.92-2.98-.94-4.48,1.08-3.01,1.06-4.51-.82-2.98-.85-4.47,1.07-3.02,1.04-4.52-1.28-2.96-1.32-4.46-2.19-2.93-2.23-4.43,2.18-3.06,2.13-4.55.83-3.02.78-4.52-2.5-2.91-2.55-4.41,1.45-3.04,1.39-4.54-2.48-2.9-2.53-4.4,3.68-3.13,3.62-4.63-.97-2.96-1.03-4.45-.43-2.98-.49-4.47-1.11-2.95-1.18-4.45,1.48-3.06,1.42-4.55-1.3-2.94-1.37-4.44.47-3.02.41-4.51.49-3.02.42-4.51-2.94-2.87-3.01-4.36,2.57-3.11,2.5-4.61-.23-2.99-.3-4.48-2.1-2.9-2.17-4.4.79-3.03.72-4.53-1.21-2.94-1.27-4.44-.84-2.96-.9-4.45-.5-2.97-.57-4.47.8-3.03.74-4.52-.24-2.99-.29-4.48,2.1-3.07,2.05-4.56-.84-2.96-.89-4.46-.85-2.96-.9-4.46,1.84-3.05,1.79-4.54-1.34-2.95-1.38-4.45.5-3,.46-4.5-1.49-2.96-1.53-4.45.84-3.01.81-4.5.19-2.99.16-4.49-.68-2.98-.7-4.48-.04-2.99-.06-4.49-1.93-2.98-1.94-4.47.3-3,.3-4.49,2.77-3,2.77-4.5.26-2.99.26-4.48-.87-2.99-.86-4.49-1.4-3-1.38-4.5-.46-3-.44-4.5,1.17-2.98,1.19-4.47.25-2.99.28-4.48-.3-3-.27-4.5-.2-3-.16-4.5-.73-3.02-.68-4.52.41-2.98.47-4.48,0-3,.06-4.49,3.28-2.84,3.35-4.34-3.13-3.15-3.05-4.65,1.98-2.89,2.07-4.38-1.21-3.07-1.12-4.56,2.01-2.87,2.11-4.36-1.6-3.11-1.49-4.61,2.19-2.83,2.31-4.32-1.88-3.16-1.75-4.65.17-3,.31-4.48.83-2.93.98-4.42,2.03-2.8,2.19-4.29-.1-3.01.07-4.5,1.64-2.82,1.81-4.3-1.27-3.16-1.09-4.64-.91-3.13-.72-4.62.89-2.9,1.09-4.39-.23-3.06-.02-4.54.1-3.02.33-4.5,2.61-2.63,2.85-4.1-2.12-3.38-1.88-4.85,3.51-2.44,3.77-3.92-1.85-3.36-1.59-4.84,1.96-2.69,2.23-4.16-.48-3.14-.19-4.61,3.32-2.38,3.62-3.85-1.45-3.35-1.14-4.81,1.75-2.68,2.07-4.14-2.03-3.52-1.69-4.98,1.95-2.63,2.3-4.08-.19-3.13.17-4.58,3.46-2.21,3.83-3.66-.56-3.23-.17-4.67,1.87-2.59,2.26-4.03-1.63-3.56-1.22-5,3.42-2.12,3.84-3.56.02-3.11.45-4.54-.52-3.29-.08-4.72,2.76-2.27,3.23-3.68,1.38-2.69,1.86-4.1,1.42-2.66,1.92-4.06-.24-3.27.29-4.67-.27-3.33.28-4.72,2.36-2.29,2.93-3.67.73-2.95,1.32-4.32-.38-3.46.23-4.82,2.87-2,3.5-3.36-.27-3.47.38-4.81,4.56-1.09,5.23-2.42.3-3.2.99-4.52,2.1-2.26,2.81-3.57,1.67-2.48,2.41-3.78,1.21-2.74,1.97-4.02,1.42-2.62,2.2-3.9-.8-4.03,0-5.29,3.15-1.56,3.97-2.81.68-3.15,1.52-4.39,1.78-2.43,2.64-3.65.86-3.09,1.73-4.3,1.54-2.63,2.43-3.82,4.69-.22,5.6-1.4,1.39-2.7,2.32-3.87.67-3.31,1.62-4.46,1.6-2.59,2.57-3.72,1.53-2.66,2.51-3.79,3.37-1.03,4.37-2.14,2.24-2.01,3.25-3.1,1.47-2.73,2.5-3.81.75-3.47,1.8-4.54,2.45-1.83,3.52-2.87,3.47-.75,4.55-1.78,1.01-3.32,2.1-4.33,3.76-.34,4.87-1.33,2.21-2.01,3.33-2.99,2.56-1.6,3.7-2.56,1.01-3.48,2.16-4.42,1.69-2.71,2.85-3.64,4.05.27,5.22-.64,1.54-2.93,2.73-3.83,2.53-1.64,3.73-2.52,1.85-2.59,3.07-3.45,2.96-1.03,4.19-1.87,2.89-1.1,4.12-1.93,3.17-.63,4.42-1.44,1.87-2.63,3.13-3.42,3.17-.57,4.43-1.34,1.04-4.11,2.31-4.87,3.84.61,5.13-.13,1.07-4.25,2.36-4.97,3.23-.42,4.53-1.12,2.52-1.72,3.83-2.4,2.87-1.05,4.18-1.71,3.3-.15,4.63-.79,2.16-2.51,3.49-3.13,2.48-1.9,3.81-2.5,3.75.99,5.09.41c1.41-.61,1.97-3.12,3.32-3.68,1.43-.6,3.44.36,4.79-.17,1.44-.58,2.39-2.25,3.74-2.76,1.47-.56,2.7-1.58,4.04-2.07,1.5-.54,3.37.23,4.69-.23,1.54-.53,3.19-.29,4.48-.71,1.65-.53,3.11-.81,4.31-1.17,2.79-.83,1.2-3.3,3.29-4.11,1.32-.73,2.56-1.16,3.9-1.84s3.97,1.21,5.33.56,1.9-3.08,3.27-3.69,2.57-1.72,3.96-2.3,3.81,1.43,5.22.89,2.95-.58,4.37-1.09,2.54-1.79,3.97-2.26,2.72-1.35,4.16-1.78,3.04-.27,4.49-.67,2.67-1.63,4.13-2,3.21.52,4.68.18,2.17-4.12,3.65-4.43,3.5,2.03,4.98,1.74,2.5-3.12,3.99-3.38,3.53,2.87,5.02,2.64,2.96-.36,4.46-.57,2.96-.4,4.46-.59,2.79-2.07,4.28-2.23,3.01-.22,4.51-.36,2.87-2.06,4.37-2.17,3.13,1.33,4.63,1.23,3.11,1.87,4.62,1.8,3,.08,4.5.02,2.93-2.41,4.44-2.44,3.05,2.21,4.55,2.19,2.99-.63,4.5-.63c1.51,0,3.01-.97,4.52-.96s3.05-1.82,4.56-1.79,2.94,3.11,4.45,3.15,3.04-.82,4.54-.75,3.04-.44,4.54-.36,2.99.48,4.5.57,3.04-.29,4.55-.18,2.94,1.05,4.44,1.18,3.05-.3,4.55-.16,3,.3,4.5.46,2.96.62,4.46.8,3.01.24,4.5.43,3.24-1.42,4.74-1.21,2.71,2.33,4.21,2.56,3.15-.63,4.64-.39,2.69,2.19,4.17,2.45,2.8,1.36,4.29,1.64,2.97.43,4.45.72,2.96.47,4.44.77,3.49-1.9,4.96-1.58,3.11.01,4.57.35,2.51,2.51,3.98,2.87,2.96.61,4.42.98,3.41-1.09,4.87-.7,2.75,1.43,4.21,1.84,2.17,3.39,3.62,3.81,2.91.73,4.36,1.17,3.13.05,4.57.5,2.81,1.08,4.25,1.55,3.44-.76,4.87-.27,2.46,2.13,3.88,2.64,2.67,1.47,4.09,1.99,2.96.7,4.37,1.23,2.67,1.44,4.08,1.99,3.57-.77,4.96-.2,2.16,2.68,3.55,3.26,3.24.12,4.62.72,3.21.24,4.59.86,1.92,3.08,3.29,3.72,1.94,2.92,3.3,3.58,3.84-1,5.19-.33,2.52,1.72,3.86,2.4,2.01,2.67,3.34,3.37,2.81,1.11,4.14,1.83,3.15.53,4.46,1.27,2.94.96,4.24,1.71,2.22,2.2,3.51,2.97,2.98.91,4.27,1.7,1.37,3.5,2.65,4.3,2.61,1.48,3.88,2.3,2.87,1.11,4.12,1.95,2.1,2.25,3.34,3.11,2.37,1.85,3.6,2.72,3.89-.24,5.1.65,2.1,2.25,3.3,3.16,1.25,3.33,2.44,4.25,3.37.57,4.55,1.51,1.19,3.3,2.36,4.26,4.6-.8,5.75.18,1.03,3.45,2.17,4.44,3.11,1.05,4.23,2.06,2.74,1.5,3.85,2.53,2.28,2.02,3.37,3.06,1.68,2.64,2.76,3.69,2.39,1.91,3.45,2.98.81,3.43,1.86,4.52,1.07,3.12,2.1,4.22,4.17.27,5.18,1.39.46,3.63,1.45,4.76,3.71.8,4.69,1.95.38,3.61,1.34,4.78,1.61,2.56,2.54,3.74,4.06.67,4.98,1.87,1.89,2.39,2.78,3.61,1.31,2.81,2.19,4.04.8,3.14,1.66,4.38.62,3.21,1.46,4.47,2.88,1.71,3.7,2.98.15,3.46.95,4.74c.8,1.28,4.29.92,5.07,2.21s.82,3.04,1.57,4.35,2.14,2.28,2.87,3.6-.85,3.91-.13,5.23,3.94,1.34,4.63,2.68-.25,3.53.42,4.88,1.96,2.41,2.61,3.77-1.08,3.83-.45,5.2,3.6,1.67,4.21,3.05,2.42,2.26,3.01,3.64-.84,3.63-.26,5.03,1.22,2.76,1.77,4.16.09,3.19.62,4.6,1.11,2.79,1.63,4.21,2.18,2.42,2.67,3.84.89,2.88,1.37,4.31,2.34,2.42,2.8,3.86-1.74,3.7-1.3,5.15.29,3.04.71,4.49,3.71,2.08,4.11,3.53.16,3.09.55,4.55-.47,3.23-.1,4.7.6,2.95.95,4.41,2.27,2.56,2.61,4.03-.73,3.25-.41,4.73.09,3.05.39,4.53.23,3.01.52,4.49,3.87,2.34,4.14,3.82.37,3.01.63,4.5-.96,3.22-.71,4.71.03,3.05.26,4.54,2.76,2.65,2.97,4.14-1.62,3.27-1.42,4.77-.08,3.05.1,4.54.79,2.94.96,4.44.63,2.96.79,4.46,1.1,2.92,1.24,4.43-.45,3.07-.32,4.58-1.61,3.15-1.49,4.66,1.12,2.93,1.23,4.43,1.3,2.93,1.4,4.44.6,2.99.68,4.5-.6,3.05-.52,4.56.77,2.99.83,4.49-1.44,3.07-1.39,4.58-.21,3.02-.17,4.52,3.08,2.95,3.1,4.46.14,3.03.16,4.53-2.71,3.04-2.71,4.55,2.99,3.02,2.98,4.53-1.38,3.02-1.39,4.53-1.18,3-1.2,4.51,1.99,3.06,1.95,4.56-1.18,2.99-1.22,4.5-.23,3.01-.28,4.52,1.51,3.08,1.45,4.59-.63,3-.69,4.51-1.76,2.94-1.83,4.45,1.88,3.12,1.79,4.63-1.1,2.97-1.19,4.47.83,3.08.73,4.58-.48,3-.59,4.5-.91,2.97-1.01,4.47-1.25,2.94-1.36,4.44-1.3,2.92-1.41,4.43,2.26,3.21,2.14,4.71-.85,2.96-.97,4.46-1.34,2.91-1.47,4.42,1.94,3.2,1.8,4.71-2.06,2.84-2.2,4.35,1.27,3.15,1.13,4.65.12,3.05-.02,4.55-3.35,2.7-3.5,4.2.17,3.05.02,4.55-1.37,2.89-1.52,4.39,3.21,3.37,3.05,4.87-3.22,2.7-3.38,4.2,2.79,3.33,2.63,4.83-1.11,2.92-1.27,4.42-2.38,2.78-2.54,4.28-1.04,2.92-1.2,4.42.66,3.11.49,4.61.4,3.08.24,4.58,1.14,3.16.98,4.66-1.51,2.87-1.67,4.37.93,3.13.77,4.63-2.51,2.77-2.67,4.27,1.81,3.23,1.65,4.73-3.88,2.62-4.04,4.13.51,3.09.35,4.59.18,3.05.03,4.55-1.66,2.87-1.81,4.37,1.26,3.16,1.12,4.66.69,3.1.54,4.6-1.67,2.87-1.81,4.37-1.06,2.93-1.2,4.44,1.24,3.14,1.11,4.65-1,2.94-1.13,4.45-1.03,2.94-1.16,4.45,1.97,3.19,1.85,4.69-2.56,2.83-2.67,4.33,1.36,3.13,1.25,4.63-.94,2.96-1.04,4.47,1.66,3.13,1.56,4.64-1.37,2.94-1.46,4.44-1.67,2.93-1.75,4.44,2.69,3.17,2.62,4.67-1.47,2.95-1.54,4.45.62,3.05.55,4.55.68,3.04.63,4.55c-.05,1.49.39,2.98.35,4.47s-1.84,2.92-1.88,4.41,1.61,3.01,1.58,4.5-1.9,2.94-1.92,4.43.02,2.98.01,4.47,1.59,2.98,1.59,4.47-1.01,2.98-1,4.47.22,2.97.24,4.46-1.2,3-1.16,4.49-1.04,3.02-.99,4.51.95,2.96,1.01,4.44-.29,3-.21,4.49,1.92,2.88,2.01,4.37-2.11,3.13-2.01,4.62,2.43,2.81,2.55,4.29.81,2.91.95,4.39-2.78,3.27-2.63,4.75,1.96,2.8,2.13,4.28-1.03,3.13-.84,4.61.81,2.92,1.02,4.39,3.39,2.52,3.61,3.99-.81,3.13-.57,4.6-.25,3.06.01,4.53.04,3.03.32,4.49,1.62,2.72,1.92,4.18-.67,3.19-.35,4.65,1.66,2.68,2,4.13-.23,3.13.13,4.57,3.17,2.25,3.55,3.69.22,3.01.62,4.44,1.7,2.58,2.13,4.01-.37,3.21.09,4.63.02,3.13.49,4.54,2.21,2.38,2.71,3.78,1.07,2.76,1.59,4.15-1.86,3.91-1.31,5.3,1.53,2.63,2.1,4,2.51,2.18,3.11,3.55,2.45,2.16,3.07,3.51-1.02,3.77-.37,5.11,2.41,2.15,3.08,3.48.49,3.11,1.19,4.43,2.98,1.77,3.71,3.08.51,3.13,1.26,4.42,3.26,1.51,4.03,2.78.99,2.85,1.79,4.11-.77,4.06.06,5.3,1.82,2.41,2.67,3.63,4.28.61,5.15,1.81,2.01,2.16,2.92,3.35-.86,4.45.07,5.61,2.04,2.22,3,3.36,1.46,2.72,2.45,3.84,2.31,1.98,3.32,3.08,2.44,1.84,3.47,2.91,3.18,1.04,4.24,2.09.93,3.34,2.02,4.36,1.63.95,2.75,1.94c-.29,2.22.76,2.66-2.03,3.74-1.15.45-3.23-.78-4.88-.2-1.26.44-3.02-.15-4.59.35-1.32.42-1.96,3.4-3.49,3.86-1.35.4-3.2-.58-4.72-.16-1.37.38-3.23-.87-4.74-.47-1.38.36-2.68,1.25-4.18,1.61-1.4.34-2.16,3.6-3.67,3.94-1.41.32-2.97.27-4.47.59-1.42.31-3.08-.31-4.58,0-1.42.29-3.03-.13-4.53.16s-3.1-.6-4.6-.33-2.51,2.78-4.01,3.04-3.16-.97-4.66-.73-2.72,1.74-4.22,1.96-3.32-2.29-4.82-2.08-2.68,2.17-4.18,2.37c-1.46.19-3.11-.99-4.61-.81s-2.57,3.43-4.07,3.61-3.15-1.41-4.65-1.24-2.73,2.38-4.24,2.53-3.25-2.69-4.75-2.55-2.97-.03-4.48.1-2.88,1.07-4.38,1.19-3-.42-4.51-.3-2.94.37-4.44.47-2.81,2.57-4.31,2.66-3.04-1.06-4.54-.97-2.93.73-4.44.81-2.93.93-4.44.99-2.99-.28-4.49-.22-3.05-2.2-4.55-2.15-2.88,3.11-4.38,3.15-3-.66-4.5-.62-3-1.52-4.51-1.5-2.96.79-4.46.81-2.97.1-4.48.11-2.97.58-4.48.59-2.98.14-4.48.14-2.97-1.46-4.47-1.47-2.96-1.1-4.46-1.12-3,2.07-4.5,2.05-2.96-.65-4.47-.68-2.95-1.13-4.45-1.16-2.96-.48-4.46-.52-2.97.04-4.47,0-2.99.38-4.49.33-2.96-.37-4.46-.43-3.01.69-4.51.63-3.06,1.81-4.56,1.74-2.99-.02-4.49-.09-2.79-3.67-4.29-3.75-3.09,2.01-4.59,1.92-2.96-.39-4.46-.48-2.88-1.7-4.38-1.79-2.98-.04-4.48-.14c-1.39-.09-2.72.1-4.09-.16s-3.2.66-4.32-.24c-1.17-.94-1.77-2.49-2.34-3.88s-1.69-2.67-2-4.1c-.31-1.4-.59-2.89-.9-4.4-.3-1.42,1.54-3.32,1.24-4.83-.28-1.43.04-3.01-.25-4.51s-.76-2.86-1.03-4.36-3.27-2.43-3.54-3.92,1.97-3.36,1.71-4.85-1.6-2.75-1.85-4.23-2-2.69-2.25-4.18,2.06-3.36,1.82-4.84-2.37-2.65-2.61-4.13,1.03-3.19.81-4.67-3.23-2.54-3.46-4.02,1.39-3.25,1.17-4.73.62-3.13.41-4.6-1.58-2.8-1.8-4.28,1.03-3.19.82-4.66-1.01-2.9-1.22-4.36-3.02-2.62-3.23-4.08,1.72-3.29,1.52-4.75-.59-2.97-.79-4.43-.81-2.95-1-4.4c-.21-1.53-.1-3.06-.29-4.49-.21-1.55-2.26-2.79-2.45-4.21-.21-1.57-.09-3.1-.27-4.5-.21-1.61-.56-3.08-.74-4.43-.22-1.71,2.83-3.62,2.67-4.87-.36-2.85-2.58-1.91-1.57-3.91,1.35-.68,2.91-.12,4.26-.86s1.59-3.4,2.91-4.17,2.14-2.29,3.45-3.09,2.35-1.89,3.64-2.72,4.19.85,5.46,0,2.09-2.35,3.34-3.23,2.04-2.37,3.27-3.27,1.57-2.95,2.79-3.87,3.1-.93,4.3-1.87,3.05-1.06,4.23-2.01,2.8-1.4,3.97-2.37,2.05-2.32,3.2-3.3,2.04-2.31,3.18-3.31,2.24-2.08,3.37-3.09,3.36-.85,4.48-1.87,1.05-3.37,2.15-4.41.79-3.59,1.88-4.64,2.94-1.32,4.03-2.38,3.65-.64,4.73-1.7.45-3.87,1.52-4.94,3.68-.66,4.74-1.74.62-3.65,1.66-4.74c1.04-1.08,3.61-.72,4.62-1.81s.62-3.49,1.62-4.6,2.17-2.06,3.16-3.19,2.29-1.97,3.26-3.11,3.38-1.1,4.33-2.26-.1-3.94.83-5.11,1.07-2.94,1.98-4.12,4.82-.1,5.72-1.3-1.07-4.51-.2-5.72,3.39-1.25,4.25-2.47.77-3.11,1.61-4.34,3.68-1.14,4.51-2.39-.4-3.84.41-5.1,2.42-2.01,3.21-3.28.4-3.26,1.18-4.54,2.78-1.82,3.54-3.11.5-3.16,1.24-4.46,2.31-2.13,3.04-3.44.97-2.88,1.67-4.2.32-3.2,1.01-4.53,2.44-2.1,3.12-3.43,1.85-2.42,2.51-3.76,1.06-2.81,1.7-4.16,2.2-2.27,2.83-3.63,0-3.29.61-4.66,3.36-1.79,3.95-3.17-.8-3.61-.21-4.99.81-2.9,1.38-4.28,2.1-2.38,2.65-3.77,2.47-2.25,3.01-3.65.48-3.03,1.01-4.44-1.24-3.65-.73-5.06,3.64-1.87,4.14-3.28-1.58-3.72-1.1-5.14,1.78-2.55,2.25-3.97,2.09-2.47,2.55-3.89,1.85-2.56,2.3-3.99-.96-3.44-.52-4.87-.08-3.14.35-4.58.77-2.88,1.18-4.32,1.33-2.73,1.73-4.17,2.71-2.37,3.09-3.81-1.56-3.51-1.18-4.96.47-2.96.84-4.41,2.82-2.38,3.18-3.83.9-2.87,1.24-4.33,1.27-2.79,1.6-4.25-1.69-3.45-1.36-4.91,2.47-2.52,2.78-3.99,1.63-2.72,1.94-4.19-3.01-3.68-2.71-5.14,3.61-2.33,3.9-3.8-.85-3.22-.57-4.69,2.01-2.67,2.28-4.15,1.06-2.86,1.32-4.33-2.02-3.4-1.77-4.87,2.58-2.6,2.83-4.08-2.8-3.49-2.57-4.97,4.05-2.4,4.27-3.87-2.67-3.44-2.45-4.91,2.93-2.6,3.14-4.08-1.91-3.29-1.71-4.78,2.09-3.19,2.29-4.67c-1.45-1.72-2.12,1.12-5.04.76-1.24-.15-2.67-.87-4.4-1.12-1.34-.2-2.8-.57-4.42-.84-1.38-.23-2.6-1.92-4.17-2.21-1.4-.25-2.88-.41-4.42-.71-1.41-.28-2.8-.89-4.32-1.21-1.42-.3-3.13.58-4.64.24-1.42-.32-2.84-.82-4.34-1.18-1.42-.33-2.61-1.75-4.1-2.12s-3.66,2.37-5.14,1.98-2.62-1.75-4.09-2.15-2.26-2.93-3.73-3.35-3.32.81-4.78.38-2.33-2.55-3.79-2.99-2.91-.61-4.36-1.07-2.85-.81-4.3-1.29-3.75,1.82-5.19,1.33-2.26-2.6-3.69-3.11-3.33.45-4.76-.06-2.2-2.67-3.62-3.2-2.35-2.2-3.76-2.75-2.87-.8-4.28-1.36-2.64-1.39-4.04-1.96-2.7-1.25-4.09-1.83-3.06-.4-4.45-1-3.69,1-5.07.39-1.69-3.55-3.06-4.17-3.35.16-4.72-.47-3.31.01-4.68-.63-1.14-4.54-2.5-5.2-2.78-1.08-4.13-1.74-3.18-.3-4.53-.98-2.87-.94-4.21-1.64-2.19-2.26-3.52-2.96-3.73.64-5.06-.08-1.48-3.52-2.8-4.25-2.14-2.27-3.46-3.01-3.01-.73-4.31-1.48-2.15-2.23-3.45-2.99-3.13-.55-4.43-1.32-3.29-.33-4.58-1.11-3.05-.77-4.33-1.57-2.69-1.36-3.97-2.17-1.34-3.47-2.61-4.29-1.79-2.72-3.05-3.55-3.73.23-4.99-.61-2.23-2.04-3.48-2.89-2.44-1.73-3.68-2.59-2.53-1.61-3.76-2.48-2.24-2.01-3.46-2.89-2.74-1.32-3.95-2.21-3.39-.46-4.6-1.36-.62-4.17-1.82-5.07-2.29-1.92-3.48-2.84-3.85.07-5.03-.85-1.63-2.77-2.81-3.71-3.06-.98-4.23-1.93-.3-4.36-1.47-5.32-2.39-1.79-3.54-2.75-3.53-.45-4.68-1.43-1.46-2.89-2.6-3.88-3.61-.41-4.75-1.42-2.28-1.95-3.41-2.97-2.12-2.12-3.24-3.16-1.02-3.3-2.13-4.34-3.31-.86-4.41-1.91-2.63-1.6-3.72-2.66-1.84-2.41-2.93-3.47-2.57-1.68-3.64-2.75-1.3-2.96-2.37-4.03-2.07-2.18-3.13-3.26-2.09-2.15-3.15-3.23-.52-3.68-1.57-4.77-3.82-.48-4.87-1.57-1.22-2.99-2.26-4.08-2.44-1.82-3.48-2.92-3.27-1.05-4.31-2.15-2.1-2.16-3.13-3.26-.76-3.4-1.79-4.51-1.27-2.92-2.29-4.03-1.76-2.46-2.78-3.58-1.93-2.3-2.94-3.41-4.42-.05-5.43-1.16-1.13-3.04-2.14-4.15-1.63-2.58-2.64-3.7-2.14-2.12-3.14-3.25-1.77-2.45-2.77-3.58-2.94-1.43-3.93-2.55-2.38-1.92-3.37-3.05-.98-3.16-1.97-4.29-2.84-1.53-3.83-2.66,0-4-.99-5.14-2.22-2.06-3.21-3.2-2.3-2-3.28-3.14-1.33-2.84-2.31-3.98-1.99-2.27-2.96-3.41-4.42-.19-5.39-1.33.54-4.43-.44-5.57-4.19-.4-5.16-1.55-1.23-2.92-2.19-4.06-1.4-2.77-2.36-3.92-2.99-1.43-3.95-2.57.11-4.04-.85-5.18-4.27-.36-5.23-1.51-1.76-2.48-2.71-3.62-2.59-1.78-3.55-2.93.35-4.23-.6-5.37-1.55-2.65-2.5-3.8-3.86-.75-4.8-1.9.14-4.05-.8-5.19-3.82-.8-4.75-1.94-2.39-1.97-3.32-3.12-2.3-2.05-3.23-3.19c-.98-1.2-1.94-2.36-2.86-3.49-.98-1.21-.73-3.35-1.65-4.48-.98-1.21-.5-3.53-1.41-4.65-.99-1.23-4.57-.27-5.47-1.39-1-1.25.57-4.44-.31-5.54-1.02-1.28-3.53-1.2-4.38-2.27-1.09-1.36-1.63-2.86-2.41-3.85-1.82-2.29-1.25-3.01-1.25-3.01-.61,1.38-4.09,1.48-4.71,2.85s2,4.22,1.37,5.59-2.01,2.4-2.65,3.77-.58,3.07-1.23,4.43-4.12,1.37-4.78,2.73-.98,2.87-1.64,4.22-2.31,2.21-2.98,3.56-.32,3.2-1,4.55-.4,3.18-1.09,4.52-2.56,2.06-3.26,3.4.62,3.73-.09,5.06-2.22,2.24-2.93,3.57-1.63,2.55-2.35,3.87-2.73,1.94-3.46,3.26-1.09,2.84-1.82,4.15-1.04,2.87-1.78,4.19-.66,3.1-1.41,4.4-2.51,2.03-3.27,3.34-1.66,2.52-2.43,3.82.7,3.92-.07,5.21-2.26,2.17-3.04,3.46-1.76,2.47-2.54,3.76-1.66,2.52-2.45,3.81-2.19,2.2-2.98,3.48-1.01,2.93-1.81,4.2-1.2,2.82-2.01,4.09-1.89,2.38-2.7,3.65-2.05,2.27-2.87,3.54-1.07,2.91-1.89,4.17-3.9,1.05-4.73,2.31-.48,3.29-1.32,4.55-1.95,2.33-2.79,3.58-1.76,2.45-2.61,3.7-1.61,2.55-2.46,3.79.07,3.71-.79,4.95-1.53,2.62-2.39,3.85-1.49,2.65-2.35,3.88-4.94.21-5.81,1.44-.73,3.18-1.61,4.4-2.28,2.07-3.16,3.29.73,4.25-.15,5.47-2.65,1.81-3.53,3.03-2.65,1.8-3.54,3.01-.54,3.36-1.43,4.56-1.16,2.91-2.05,4.11-4.76.21-5.66,1.41-.43,3.46-1.34,4.65-2.84,1.63-3.75,2.82.5,4.19-.42,5.38-3.71.96-4.62,2.15-.25,3.64-1.17,4.82-4.37.42-5.3,1.6-.08,3.78-1.02,4.96-2.41,1.95-3.34,3.12-2.41,1.94-3.35,3.11-.26,3.67-1.2,4.84-3.49,1.07-4.43,2.23-1.06,3.04-2.01,4.2-2.87,1.56-3.82,2.71-1.87,2.38-2.82,3.53-.08,3.88-1.04,5.02-2.62,1.76-3.59,2.9-3.17,1.28-4.14,2.42-1.31,2.86-2.27,4-2.15,2.14-3.13,3.27-1.28,2.89-2.26,4.02-1.53,2.69-2.51,3.81-1.75,2.51-2.73,3.62-2.68,1.7-3.66,2.81-1.92,2.36-2.9,3.47-2.57,1.79-3.55,2.89-3.03,1.37-4.02,2.47-.17,3.96-1.16,5.05-1.89,2.42-2.88,3.5c-1.05,1.14-3.41,1.02-4.4,2.1-1.06,1.15-.84,3.4-1.83,4.47-1.07,1.15-3.01,1.4-3.99,2.46-1.08,1.16-1.47,2.86-2.45,3.9-1.1,1.17-2.06,2.34-3.03,3.36-1.14,1.19-3.18,1.32-4.12,2.3-1.21,1.26-3.33,1.3-4.2,2.2-2.06,2.11-1.32,2.29-2.2,4.37Z"/>
    <path d="M161.11,481.43c-.07,3.53-1.69,6.82-1.19,10.49.59,4.28,3.34,6.41,6,9.38l-2.57-4.41.28.74v-5.32c-.71,3.38-2.74,6.47-1.35,10.96-.34-1.1,1.54,4.13,1.28,3.29.3.97.35,2.34.84,3.23-.13,2.07.14,1.99.82-.24-.43.59-.81,1.22-1.13,1.88-.94,1.82-1.52,3.9-1.54,5.96-.03,3.54.98,7.36,1.74,10.77,1.35,6.02,1.7,11.98,3.1,17.92.49,2.06.28,4.3,1.03,6.32,1.1,2.93.96-1.62.14,1.06-.58,1.9-.55,4.51-.06,6.46.43,1.17.91,2.32,1.42,3.45.91,1.65,1.02,1.31.31-1.03l1.37-5.05c-1.24,2.64-2.73,5.01-2.88,8.04-.07,1.48.06,2.87.52,4.29.14.45,1.71,4.35,1.29,2.35.59,2.81.23,5.49,1.42,8.3.43,1.02.83,1.99,1.25,3.01l1.01,2.39c.03-2.71-.11-3.35-.43-1.91-2.69,3.19,1.14,12.26,2,15.8,1.32,5.48,3.6,9.99,6.02,15.03l-1.37-5.05c.1,2.34-.82,6.64.95,9.86,1.61,2.92,4.33,4.42,6.86,6.36l-3.59-3.59-.37-1.28c.09,1.15.26,2.28.51,3.4.17.84.27,2.18.67,2.93.75,1.4.49-1.87-.09.65-.39,1.7-.43,3.44-.13,5.16.88,5.01,4.86,7.85,6.96,11.23l-1.37-5.05c.05.83-.57,3.38-.49,4.98.16,2.99,1.44,5.18,2.84,7.7,2.02,3.62,3.75,5.51,5.34,9.16l-1.37-5.05c.33-1.02.28-.85-.15.49-.31,1.23-.51,2.47-.6,3.74,0,2.12.61,4.07,1.47,5.98,1.4,3.11,1.79,6.61,3.7,9.48,3.65,5.46,2.39.19,1.49-.14-.36-.13,1.3,6.8,1.66,7.41.95,1.63,2.53,3.18,4.1,4.17,1,.61,2.06,1.1,3.18,1.46,1.67.72,1.26.46-1.24-.78l-2.57-4.41c-.62-2.91-.45-2.35-.5.95-.02,1.19.1,2.48.41,3.64.68,2.56,2.29,5.01,3.78,7.18,1.57,2.29,2.78,3.29,4.37,5,.79.85,1.65,1.59,2.63,2.26.38.26,2.17,1.89,1.18.77l-2.57-4.41c1.36,3.51,1.1,5.47,2.27,9.07s4.31,5.8,6.07,8.98c1.56,2.83,1.78,6,3.35,8.81,2.27,4.09,6.02,5.28,10.14,6.81l-4.41-2.57c4.4,3.55,5.71,7.28,8.21,12.4,1.19,2.43,2.55,5.45,4.49,7.37,1.46,1.45,3.25,2.41,5.14,3.14.61.24,2.52,1.6,1.29.65l-3.59-3.59c-.1-.23.83,3.6.87,3.68.52,1.04,1.1,1.99,1.75,2.96,1.98,2.95,3.86,4.84,6.84,6.74,0,0,3.79,2.33,3.77,2.32,1.2.86,2.32,1.97,3.47,2.9,1.01.81,3.89,4.58,2.33,1.49l-1.37-5.05c.33,3.2-.1,6.14,1.51,9.14,1.39,2.6,3.72,4.36,5.7,6.46,2.27,2.41,4.27,4.74,7.61,5.66,1.46.4,2.98.35,4.46.26l2.66-.36c-.95.06-.9.08.17.08l-5.05-1.37.63.27-3.59-3.59.4.7-1.37-5.05c.82,6.14.71,10.13,6.25,14.12,1.94,1.39,3.88,2.87,6.24,3.48,1.13.29,2.43.39,3.6.37,1.09-.03,2.75.26,1.13-.34l-5.98-4.6c-.18-.96-.12-.77.18.57.36,1.18.82,2.32,1.36,3.44,1.22,2.16,3.03,3.72,5.19,4.83,1.13.62,2.32,1.05,3.56,1.31-1.21-1-1.38-1.07-.53-.21,1.27,1.64,3.22,2.9,5.04,3.83,1.94.98,3.47,1.74,5.31,2.9,1,.63,5.29,4.19,2.85.96,2.53,3.36,4.11,6.2,8.63,7.25,1.23.34,2.48.44,3.73.29,4.04-.25,3.55-.65-1.48-1.18.4,1,3.59,2.52,4.62,3.11,3.28,1.86,5.99,4.42,10.18,5.72,1.42.44,2.99.84,4.46,1.14,2.88.4,3.54.49,1.99.26.85.56,1.73,1.05,2.65,1.48,2.66,1.28,4.69.95,7.45,1.42-1.73-.89-1.74-.81-.02.24.77.31,1.47.73,2.1,1.27l-3.59-3.59c2.73,4.02,5.01,7.29,10.08,8.33,1.95.4,4.7.84,6.67.79-.38,0,6.24-.71,4.08-.83l-5.05-1.37c3.28,1.51,4.44,2.57,7.52,4.33s6.86,2.43,10.14,3.39c6.17,1.81,12.91,2.89,19.24,4l-7.34-9.64-.12.91,1.37-5.05-.44.6,3.59-3.59c-3.98,2.8-6.07,5.3-7.43,10.06-.54,1.88-1.06,3.86-1.08,5.82-.02,1.21.13,2.49.46,3.66.16.57.37,1.11.64,1.64.78,1.93.69,1.58-.27-1.03l1.37-5.05c2.35-1.95,2.23-1.9-.35.14-.89.76-1.63,1.65-2.24,2.66-1.12,1.81-1.79,3.94-1.85,6.07-.1,3.71,1.78,6.01,3.15,9.15l-1.37-5.05-.03.98,1.37-5.05c.53-1.18-.46.4-.82.83-1.7,2.03-2.78,4.13-3.21,6.77-.65,4.04,1,6.77,2.59,10.22l-1.37-5.05c.65-2.07.61-2.42-.12-1.03-1.35,2.74-1.41,3.15-.19,1.21-.9,1.38-2.1,2.49-2.86,4-1.29,2.57-.78,4.73-1.52,7.32.54-1.9-.76.99-.89,1.26-2.66,5.62-1.7,10.65-4.28,16.83l2.57-4.41c-2.44,2.98-4.47,5.89-4.71,9.86-.1,1.64.54,3.4.39,4.98.48-4.75-.74.08-.71.06l1.01-1.13c-.82.87-1.58,1.8-2.25,2.78-1.14,1.86-1.82,4.11-1.91,6.28-.06,1.37.08,2.7.46,4.04.35.94.74,1.88,1.16,2.79.87,1.49.83.89-.14-1.81l1.37-5.05c2.29-1.96,2.15-1.92-.41.13-.91.74-1.67,1.63-2.27,2.66-1.14,1.85-1.72,3.91-1.86,6.07-.11,1.73.27,3.25.34,4.97-.24-2.58-.44-2.26-.62.96-.14,1.54.02,1.25.49-.87l3.59-3.59c-3.36,2.45-6.52,4.32-7.71,8.65-.51,1.86-.51,4.44-.03,6.3.45,1.07.9,2.14,1.35,3.21.92,1.48.92.89,0-1.77l1.37-5.05c1.69-1.33,1.8-1.43.34-.29-.77.48-1.4,1.09-1.91,1.85l4.41-2.57c-1.12.34-4.55,2.11-3.79,1.89h5.32l-.75-.23,4.41,2.57c-2.47-1.93-4.27-4.35-7.45-5.29-3.47-1.02-7.15-.21-10.59.64-4.17,1.03-9.97,3.03-13.67,1.71l4.41,2.57c-3.91-3.25-6.8-5.62-12.15-5.55-2.2.03-4.72.17-6.81.82-1.21.45-2.39.98-3.53,1.58,1.76-.62,1.68-.89-.24-.82,1.67.66,1.73.64.18-.06-1.11-.63-2.28-1.05-3.52-1.27-2.35-.52-4.81-.34-7.18-.14s-4.89.43-7.2.93c-1.48.32-3.9,1.4-4.57,1.54h5.32c-1.74-.49-4.89-2-7.46-2.35-4.12-.56-7.38.17-11.38.76h5.32c-3.52-.96-6.37-2.94-10.91-1.69-2.62.73-5.92,2.35-8.03,2.83h5.32c.61.14-.7-.11-.95-.24-1.12-.57-2.29-.98-3.51-1.26-2.6-.61-5.29-.23-7.93-.37-2.24-.12-4.36-.44-6.6-.02-1.74.13-1.77.23-.1.3,1.38.33,1.61.25.68-.25-.5-.85-3.14-1.51-4.05-1.74-2.5-.64-5.21-.24-7.61.61-1.42.5-1.14.16.02.2-.08,0-3.94-.71-2.08-.16-3.35-.99-5.99-2.26-9.66-1.28-1.14.3-2.3.79-3.31,1.4-.4.24-2.21,1.05-.87.74h5.32l-.74-.28,4.41,2.57c-3.65-3.24-5.9-5.5-11.03-6.18-2.75-.37-5.18-.54-7.95-.31-3.14.27-5.16,1.28-8.11,2.09,2.83-.77-1.06-.18-2.16-.18-2.12-.01-5.19-.38-7.33-.85-2.98-.64-5.28-1.69-8.45-.97-1.33.3-2.55.82-3.78,1.44-.49.25-2.2.81-.87.55h5.32l-.89-.33,4.41,2.57c-1.92-1.56-3.55-3.23-5.81-4.31-3.11-1.49-6.52-.68-8.52-.71,1.05.02-1.57-.32-1.85-.36-2.07-.34-4-.6-6.06-.1-1.14.27-2.28.65-3.31,1.21-.28.15-2.8,1.34-1.35,1.01h5.32c-.5-.13-3.01-1.31-4.43-1.63-1.38-.36-2.78-.45-4.18-.26-3.17.26-3.55.41-1.12.44l4.41,2.57c-2.61-2.13-4.49-4.62-8-5.51-2.27-.57-3.93.03-6.05-.07-2.37-.11-4.54-.86-6.96-.69-1.6.11-3.34.62-4.78.77-1.93.2-3.91.04-5.86.23-1.6.16-3.14.29-4.75.37-1.02-.05-2.03.01-3.03.19-3.16.12-3.54.35-1.13.68l4.41,2.57c-3.7-3.22-6.09-5.76-11.39-6.1-2.28-.15-4.66-.27-6.88.33-1.16.31-2.31.82-3.34,1.43-.53.33-1.02.69-1.49,1.09-1.54,1.12-1.34,1.06.6-.17h5.32l-.91-.32,4.41,2.57c-2.4-1.89-4.35-4.03-7.42-4.91-3.61-1.04-6.82.25-10.34.77h5.32c-1.51-.51-3.49-2.17-5.7-2.45-2.65-.33-5.33.87-7.52.97-2.05.1-4.45-.52-6.85.04-.18.04-2.33.69-2.32.77-.21-1.34,3.03.3,2.71.08l3.59,13.68c.7-1.17,1.25-2.39,1.6-3.71.15-.61.24-1.23.29-1.85.33-2.02.2-1.78-.38.72l-3.59,3.59c-2.79.75-2.54.82.74.23.81-.08,1.58-.31,2.29-.71,1.78-.72,3.16-1.74,4.49-3.14.08-.09,6.85-9.57,5.53-9.76-.68-.1-3.91,4.53.98,0,1.3-1.2,2.24-2.63,3.09-4.15,1.72-3.08,2.48-7.54,3.18-9.82l-2.57,4.41.51-.45-4.41,2.57c3.92-1.4,7.5-1.41,10.3-5.17,1.82-2.43,2.38-5.17,2.09-8.17-.1-1.04-.32-1.85-.6-2.81-.3-1.03-.17-2.17-.37-.68l-2.93,7.07c-.52.65-.49.17.27-.33.95-.62,2.04-1.38,2.84-2.17,1.32-1.32,1.92-2.48,2.71-3.5,2.88-3.73,4.08-8.4,5.6-12.79,1.01-2.92.96-5.28.52-8.3-.32-2.19-.05,3.49.29-.55.38-1.68.25-1.77-.38-.26-.73,1.2-.78,1.4-.16.61,4.83-2.7,3.24-10.15,3.29-13.38l-1.37,5.05.44-.66-3.59,3.59c2.76-1.92,5.53-2.93,7.4-6.07,2.22-3.74,1.02-7.2,1.06-10.17l-1.37,5.05c1.44-3.39,3.42-6.32,3.32-10.15-.04-1.69-.49-3.32-1.2-4.85-.86-2.26-.81-1.55.15,2.13.79-1.52.86-1.83.19-.93-.65,1.42,1.73-2.07,2-2.53,1.07-1.79,1.81-4.02,1.86-6.09.07-3.37-1.57-6.04-2.85-8.99l1.37,5.05-.21,1.31,1.01-2.39c.45-1.34.81-2.65.87-4.08.02-.62-.28-5.55-.41-3.8-.08,1.04.47-1.55.54-1.79,1.49-4.75,2.6-8.61,2.27-13.7s-.72-.14-.75-.15c.25.07,1.52-3.27,1.58-3.44.64-1.79,1.09-3.64,1.7-5.44.96-2.86,1.95-5.25,1.71-8.33-.16-2.07-1.51-4.65-1.74-6.03v5.32c-1.6,4.42.47.42,1.26-.98,1.28-2.29,1.76-4.66,1.5-7.25-.18-1.8-.66-3.29-1.6-4.89-.53-.86-1.14-1.67-1.82-2.43-1.15-1.45-.98-1.05.51,1.2v5.32l.35-.87-2.57,4.41c2.38-2.77,4.23-4.91,5.33-8.51,1.18-3.88.79-7.01.91-10.88.09-3.02,1.65-5.85,1.65-8.89,0-1.91-.63-4.13-1.57-5.81-.7-.95-1.42-1.89-2.15-2.81-1.21-1.41-1.14-.99.22,1.27v5.32c.94-4.35,3.44-7.93,3.07-12.81-.1-1.29-.39-2.4-.79-3.6-.52-1.55-.08-1.01-.15.07.16-2.64.75-5.22.76-7.88,0-2.03-.53-4.02-.6-6,.02-.5.04-1,.06-1.49.17-1.78-.24-1.06-1.22,2.17.48-.04,1.85-2.33,2.18-2.91,1.45-2.53,1.98-5.78,1.28-8.6-.33-1.3-.87-2.6-1.55-3.75-.33-.51-.69-1-1.08-1.47-1.14-1.56-1.07-1.33.21.68v5.32l.31-.89-2.57,4.41c2.97-3.66,6.03-6.85,5.35-11.96-.57-4.31-3.39-6.48-6.01-9.51l2.57,4.41-.26-.75v5.32l.21-.64-2.57,4.41c2.39-2.81,5.15-4.24,6.16-8.24.72-2.86.21-5.9-1.23-8.45-.68-.94-1.39-1.87-2.11-2.77-1.19-1.39-1.07-.92.37,1.41v5.32c.54-2.26,2.27-5.24,1.9-8.48-.19-1.68-.57-3.09-1.43-4.61-.21-.38-1.55-2.88-1.08-1.19v5.32c-1.28,4.14.65.13,1.41-1.22,1.18-2.11,1.58-4.31,1.62-6.7.06-3.77-.8-7.21-1.42-10.88v5.32c.43-2.4,1.41-4.68,1.41-7.17s-.85-4.79-1.21-7.13v5.32c.69-3.96,1.72-7.25.69-11.32-.65-2.56-2.59-5.52-3.2-7.4v5.32c-.44,1.92,2.03-3.99,1.92-3.65.51-1.68.72-3.53.98-5.25.34-2.23.44-4.17-.27-6.38-.19-.59-3.99-8.98-2.27-3.52v5.32c.32-1.77,1.93-5.65,1.57-8.53-.21-1.68-.61-3.06-1.47-4.61-.8-1.44-2.59-5.38-1.25-1.12v5.32l.19-.65-2.57,4.41c3.18-4.06,6.76-6.49,6.19-12.38-.48-4.92-1.84-9.9-2.87-14.7v5.32c.21-1.19,1.78-4.93,1.78-7.21,0-2.61-.93-4.15-1.73-6.53,1.01,2.98.48.61.73-1.67.31-2.82.75-5.58-.05-8.37-.92-3.16-3.05-5.06-5.08-7.45l2.57,4.41-.33-.88v5.32c-1.22,1.97-1.28,2.18-.16.63.51-.62.98-1.26,1.41-1.94.81-1.42,1.23-3.02,1.43-4.63.36-3.02.08-6.68-.83-9.58l-1.01-2.39c-.8-1.51-.96-1.46-.49.15.27,2.13.47,1.65.59-1.42l.17-1.51c-.07-3.18-1.48-6.22-2.08-9.32-.41-2.09-.58-3.69-.28-5.72.21-1.41.51-2.9.27-4.33-.54-3.21-1.51,1.25-.23-.68,3.79-5.75.93-12.33-.07-18.44v5.32c.21-.9,1.45-3,1.79-4.54.79-3.53-.28-5.97-1.38-9.19.32,2.63.56,2.32.7-.91.21-1.39.12-2.78-.25-4.16-.21-1.24-.63-2.4-1.26-3.5-.72-1.05-.81-1.37-.27-.95v5.32c.6-4.43,1.58-8.64,1.15-13.14-.34-3.58-.15-7.85-1.23-11.25-.4-1.25-.96-2.42-1.67-3.51.44,1.81.64,1.75.62-.19l-1.06,2.88c.76-.97,1.51-1.95,2.25-2.92,2.19-3.91,2.29-9.54,1.45-13.83-.31-1.59-.51-3.31-.96-4.86-.49-1.17-.99-2.34-1.49-3.51.79,2.16.86,1.7.21-1.36-.22,2.42.86-2.13.86-2.15.46-2.23.64-4.85.64-7.14,0-3.44-.24-7.06-.59-10.49-.3-2.95-.59-8.63-.08-10.06l-2.57,4.41c2.54-2.98,5.26-5.15,5.84-9.34.34-2.47-.17-4.95-1.39-7.14-.69-.95-1.4-1.89-2.13-2.8-1.2-1.41-1.1-.98.3,1.3v5.32c.32-1.03,2.03-3.71,2.25-5.71.16-1.38.1-2.41-.15-3.79,0-.67-.12-1.3-.38-1.9-.47-1.62-.71-.73-.72,2.67,1.47-.28,2.42-6.06,2.42-7.23,0-2.42-1.58-5.75-1.85-7.26v5.32c-.09.24,1.96-3.37,1.92-3.23.39-1.21.75-2.46.75-3.75,0-2.26-.7-4.18-1.61-6.19l-.64-1.18c.48,1.5.69,1.66.64.48.68-.89.95-3.66,1.21-4.29,1.46-3.45,2.01-5.91,2.12-9.67-.07,2.25-.01.77.67-.86s1.16-3.21,1.19-4.94c.05-2.67-.88-4.48-1.24-6.17-1.02-4.84-.77-.43-.17-3.35.33-1.62.67-3.21.71-4.88.04-2.07-.14-5.46.29-6.48l-2.57,4.41c2.34-2.8,4.72-5.15,5.24-8.99.55-4.04-1.22-6.88-2.94-10.3l1.37,5.05-.12-.93-1.37,5.05c-2.03,1.79-2.31,2.12-.86,1.01.98-.65,1.88-1.39,2.71-2.21,1.31-1.39,2.42-3.28,2.92-5.11,1.16-4.22-.88-7.87-2.51-11.61l1.37,5.05c-.68,2.34-.57,2.68.35,1.03.5-1.14.98-2.29,1.44-3.45.63-2.5.14-4.82.17-7.27l-1.37,5.05c-1.96,1.71-2.42,2.16-1.38,1.36.82-.61,1.63-1.23,2.43-1.86.94-.88,1.75-1.88,2.39-3,.55-.95,3.15-9.82.61-10.46.49.12-1.65,5.91.58,1.02.71-1.55,1.27-3.18,1.28-4.91,0-3.41-1.63-6.11-2.98-9.09l1.37,5.05-.08-.94-1.37,5.05c.8-1.86,2.11-3.33,2.8-5.28,1-2.82.79-5.51,1.03-8.44l-1.37,5.05c-1.91,1.74-2.33,2.23-1.26,1.48.86-.56,1.67-1.17,2.44-1.84,1.03-.97,1.94-2.05,2.64-3.3,1.04-1.85,1.5-4.07,1.44-6.19l-.36-2.66c-.39-1.25-.36-1.54.11-.88l-1.37,5.05c1.2-2.72,2.98-4.64,3.45-7.75.26-1.71.24-3.17-.19-4.92l-.36-1.03c-1.16-3.07-1.32-3.19-.49-.37l-1.37,5.05c-2.03,1.89-2.31,2.31-.84,1.27.93-.68,1.84-1.39,2.71-2.14,1.62-1.69,2.53-3.58,3.08-5.82.9-3.72.25-7.46.63-11.17l-1.37,5.05c-1.02,1.76,2.99-3.26,2.76-2.89.94-1.53,1.56-3.27,2.34-4.89.99-2.07,2.27-4.25,2.93-6.45.45-1.51.32-4.05.39-4.83,0,.07.48-4.87.39-4.86-1.79,3.04-1.95,3.71-.47,2.01.81-.93,1.54-1.93,2.18-2.98,2-3.68,2.03-8.7,2.56-11.53l-2.57,4.41c.99-1.26,3.86-3.32,5.06-5.38s1.16-6.15,1.39-7.2l-2.57,4.41c-2.69,1.37-3.13,1.78-1.32,1.24,1.15-.29,2.25-.71,3.31-1.27,1.2-.63,2.3-1.39,3.24-2.39,2.55-2.7,2.44-5.26,3.33-8.55-1.18,4.34,1.76-1.22,2.43-2.21,1.96-2.92,3.35-6.07,5.08-9.12.95-1.69,1.89-3.34,2.34-5.25.38-1.26.46-2.52.24-3.79-.28-3.35-.44-3.55-.47-.58l-2.57,4.41c-1.04,1.07.46-.1.86-.34,1.14-.68,2.2-1.5,3.11-2.47,1.64-1.75,2.58-5.41,3.08-6.41,1.04-2.09,2.74-3.66,3.65-5.87.97-2.36,1.45-3.35,3.15-5.91l-3.59,3.59c-2.47.54-3.03.74-1.68.62,1.08-.05,2.16-.18,3.23-.39,1.16-.27,2.33-.6,3.38-1.2,2.9-1.67,4.61-4.4,6.17-7.26,1.03-1.9,1.88-4.54,2.46-5.71,1.16-2.33,3.14-4.78,4.64-6.9l-3.59,3.59c2.4-1.65,5.99-3.12,8.57-5.77s4.83-5.75,6.21-9.09c.4-.78.67-1.6.83-2.45-1.98,2.36-1.75,2.44.7.25-2.98,1.51,2.65-.61,2.66-.62,3.98-2.09,4.83-5.66,6.71-8.48l-3.59,3.59c-2.5.65-2.74.81-.72.46.8-.09,1.59-.21,2.38-.36,1.06-.3,2.25-.86,3.22-1.43,2.31-1.37,4.23-3.57,6.43-5.12,2.89-2.04,4.78-4.29,5.94-7.64,1.09-3.15-.61-.05-.38.37-.05-.1,2.53-3.29,2.08-2.8l-4.41,2.57c-1.05-.03-.87,0,.56.07,1.27.02,2.53-.11,3.78-.38,2.43-.61,4.4-1.93,6.06-3.76.87-.93,1.59-1.96,2.17-3.09-1.41,1.1-1.32,1.1.27,0,2.26-1.41,4.14-3.02,5.64-5.22,1.22-1.53.92-1.28-.9.74,1.28-.49,2.53-1.04,3.75-1.67.88-.4,3.94-1.65,3.94-1.65,2.5-.93,4.58-1.43,6.62-3.28.96-.78,1.77-1.72,2.41-2.79.55-1.12.79-1.33.72-.63l-4.41,2.57c3.27-1.37,6.37-1.43,9.11-4.21,2.48-2.51,2.84-5.39,4.09-8.42l-2.57,4.41.52-.57-4.41,2.57c-3.06-.08-2.9.04.48.37,1.25.17,2.5.08,3.74-.28,2.01-.47,3.82-1.32,5.31-2.79,2.55-2.52,3.1-5.67,4.4-8.82l-2.57,4.41.53-.57-4.41,2.57c2.64-.94,5.01-1.06,7.56-2.53,1.09-.62,2.06-1.43,3.18-2.01.72-.37,4.86-1.42,1.46-.76,3.21-.63,5.45-.54,8.28-2.43,1.75-1.17,3.46-3.86,4.91-4.09h-5.32c3.67.62,7.01,1.63,10.67.05s5.2-4.34,7.37-7.23l-3.59,3.59c-2.33.57-2.55.84-.65.82,1.26-.15,2.52-.33,3.77-.53,2.23-.66,3.6-1.89,5.42-3.17.91-.65,1.82-1.66,3.43-2.04-3.67.85,2.45.31,3.08.23,3.58-.51,7.15-1.11,10.52-2.46,1.93-.78,3.44-1.76,4.85-3.32,1.24-1.25,2.1-2.72,2.57-4.41.41-1.1.37-1.08-.12.06l-3.59,3.59c.93-.63,2.96-1.47,3.23-1.51h-5.32c3.77.77,7.1,1.8,10.9.2,3.52-1.48,5.14-4.33,7.32-7.22l-3.59,3.59c1.45-1.09,3.1-2,4.7-2.85l-5.05,1.37c-1.47.12,1.14.48,1.61.59,1.67.39,3.26.37,4.94.12,3.32-.5,6.46-1.41,9.43-2.98,1.59-.84,2.96-1.89,4.74-2.39,2.73-.77,3.9-.4,6.54-1.62,1.4-.64,2.71-1.4,4.13-2l-5.05,1.37c3.59-.1,6.98.53,10.31-1.52,1.67-1.03,3.07-2.58,4.11-4.22,1.24-1.96,2.02-1.57-1.05.13l-5.05,1.37.94.09-5.05-1.37c3.43,1.58,6.45,3.34,10.41,2.84,2.12-.27,3.9-1.13,5.57-2.4.35-.26,3.39-2.79,2.14-2.16-2.57.34-5.14.67-7.71,1.01-2.18-1.52-2.52-1.71-1.03-.57l2.02,1.56c1.25.79,2.59,1.32,4.02,1.65,3.37.77,7.44-.26,10.83-.7,2.06-.27,3.81-.48,5.69-1.36.83-.26,1.58-.67,2.25-1.22-1.65.14-1.87.17-.65.08,1.83-.1,3.7-.21,5.47-.72,1.29-.37,3.29-1.81,3.82-1.98h-5.32c4.31.59,7.35,3.1,11.91,3.39,2.28.15,4.94.21,7.16-.33,1.32-.32,2.57-.89,3.73-1.58.51-.33.99-.69,1.45-1.08,1.58-1.14,1.33-1.07-.74.22h-5.32c-1.02-.24-.22.02.35.41.97.67,2.19,1.23,3.3,1.56,2.74.8,5.12.4,7.89,0,2.23-.32,4.42-.67,6.59-1.25,1.71-.46,4.19-1.64,5.31-1.91h-5.32l.75.24-4.41-2.57c1.71,1.34,3.07,3.12,4.98,4.23,3.2,1.87,6.47,1.59,9.97,1.07,4.12-.61,8.42-.51,12.62-.18,2.43.19,4.75,1.19,7.3,1.17,2.19-.02,4.17-.12,6.37.2,2.88.42,5.71,1,8.63,1.19.94.06,1.73.08,2.66.02-.43.03,4.33-1.16,3.58-1.07l-5.05-1.37c3.22,1.37,6.27,4.09,10.79,3.87,3.5-.31,3.54-.47.15-.48.44.47.96.8,1.55,1,1.26.86,4.28,1.87,5.77,2.38,3.24,1.11,6.95,1.47,10.33,1.99,4.48.69,7.7-.8,11.73-2.52l-5.05,1.37c1.8-.13,3.72.08,5.51.28l-5.05-1.37c.95.49,2.6,2.13,3.98,2.87,2.4,1.28,5.44,1.83,8.14,2.17,1.41.18,2.42.19,3.83,0,.67-.03,1.33-.15,1.96-.35,1.04-.22.84-.29-.61-.22-1.64-.2-1.65-.05-.04.46,1.6.77,1.6.66-.02-.31-1.46-1.16-1.6-1.1-.43.2.49.63.98,1.27,1.47,1.9,3.65,3.67,8.98,3.9,13.73,4.84,1.98.39,3.92,1.31,5.98,1.66,1.9.32,5.35-.16,6.19-.09l-5.05-1.37c3.5,1.9,7.91,4.76,12.54,6.25,2.14.69,4.08,2.02,6.26,2.61,2.3.63,6.33.01,7.62.16l-5.05-1.37c1.73,1.22,3.66,3.71,6.7,4.43,1.27.3,2.58.37,3.86.56l1.5.35c3.06.5,3.54.53,1.44.06l-3.59-3.59c2.36,3.16,4.27,5.78,6.97,8.38,4.31,4.16,9.1,3.31,14.44,2.45h-5.32c.99.17,2.57,2.34,3.72,3.36,2.3,2.05,5.64,3.4,8.55,4.4,1.16.4,2.31.53,3.47.87,2.18,1.43,2.92,1.67,2.21.74-.49-.68-.18-.4.93.83,1.29.98,2.5,2.03,3.92,2.81,1.02.45,2.05.89,3.09,1.31-2.52-3.76-3.22-4.43-2.07-2.03,1.2,3.31,3.61,5.36,6.5,7.19,1.27.8,2.59,1.56,3.94,2.21l2.39,1.01c-.68-.5-.67-.42.03.24,2.32,1.93,4.64,4.33,7.29,5.85,1.79,1.03,3.89,1.57,5.93,1.68.6.03,3.17.57,1.56-.02l-4.41-2.57c.31.28,3.37,2.7,3.3,3.16-1.52-2.58-1.57-2.38-.15.59.26.73.66,1.38,1.21,1.94,2.31,3.25,5.4,3.56,7.95,4.8l-3.59-3.59c1.91,2.52,3.11,6.47,7.14,8.35,1.66.78,3.22,1.13,5.1,1.13,1.06,0,2.12-.13,3.16-.37,1.94-.25,1.5-.28-1.32-.08l-5.98-4.6c-.75-.99.09.09.42.82.5,1.09.85,2.22,1.47,3.24,1.88,3.1,4.24,4.05,7.24,5.57s5.57,4.53,8.34,7.57c.55.61,1.39,1.8,2.2,2.08,1.29.44-.34-1.7.42.59.82,2.46,1.63,3.41,2.57,5.46,1.18,2.59,2.8,4.75,5.38,6.16,1.03.56,2.16.93,3.29,1.2,1.05.18,2.11.32,3.17.4,1.35.15.7-.06-1.95-.62l-3.59-3.59c-.59-2.58-.72-2.85-.38-.8.07.79.2,1.58.39,2.35.5,1.76,1.7,3.93,3.01,5.24,1.4,1.4,3.34,2.48,5.19,3.1.51.17,2.83,1.33,1.52.41l-3.59-3.59c-.68-.12-.73.32-.15,1.31.48,1.16.97,2.32,1.48,3.47,1.03,1.86,2.62,4.28,4.11,5.77,1.61,1.61,3.73,2.74,5.91,3.32.66.12,1.32.25,1.98.37-1.9-1.02-2.47-1.09-1.7-.24-.08.18,2.24,4.36,2.01,3.83.54,1.25,1.47,4.19,1.56,4.42.91,2.5,1.43,4.64,3.3,6.65,1.02,1.11,3.19,2.46,3.7,2.98l-2.57-4.41c.85,2.45.95,6.6,3.82,9.41,2.6,2.55,5.46,2.81,8.59,4l-4.41-2.57.59.52-2.57-4.41c1.02,2.47,1.62,5.05,3.04,7.35,3.75,6.08,1.86-1.23,1.22-1.52-.1-.05-.36,4.67-.32,5.1.26,2.79,1.42,5.28,3.48,7.24.84.8,1.84,1.43,2.85,1.98.94.44,1.89.84,2.87,1.18,1.23.48.69.13-1.62-1.05l-2.57-4.41c.1.42-.03,3.42.42,4.88.4,1.34,1.01,2.56,1.84,3.66,1.75,2.37,2.06,2.72.91,1.04v-5.32c-.95,5.1-1.9,9.76,1.98,14,1.34,1.47,2.88,2.51,4.67,3.34-1.92-2.01-1.86-1.79.19.67.76,1.01,1.02,1.23.8.66l-1.37-5.05c.06.58-.35,3.09-.32,4.44.04,2.48.99,4.08,1.72,6.33.91,2.81,1.06,5.66,2.18,8.48.64,1.62,1.19,3.31,2.1,4.79.74,1.02,1.52,2,2.34,2.94l-.77-1.05c.64,1.75,1.02,3.6,1.91,5.27.71,1.34,2.43,3.19,2.8,3.86l-1.37-5.05c.77-2.73.59-2.57-.54.47-.52,1.18-.76,2.42-.75,3.73-.05,1.34.24,2.63.43,3.95.59,4.23,2.05,10.04,6.84,11.62,1.72,1.1,1.01-.09-2.13-3.56.41,1.02.51,2.04.29,3.04.05,2.29-.08,4.21.36,6.55.75,3.97,3.04,7.27,4.4,10.1l-1.37-5.05c.08,2.71-.12,8.08.34,11.91.28,2.38.31,4.72,1.52,6.88.7,1.24,3.57,5.31,5.2,5.2,1.04.75.79.23-.77-1.56-1.17-2.35-1.53-2.53-1.06-.53-.76,3.29,1.21-.86-.11.47-1.09,1.09-.51,5.18-.43,6.68.15,2.71.31,5.32,1.68,7.75.58,1.04,1.37,1.92,2.1,2.86.38.48,1.13,1.92.68.85l-1.01-7.71c-.23,1.69-1.63,4.95-1.78,7.43-.18,2.89.2,5.86.75,8.69.48,2.45.9,4.98,1.46,7.42.08.33,1.12,3.87.94,2.55s-.8,4.93.25,1.07c-1,3.67-2.62,5.95-1.76,10.03.51,2.41,1.3,4.8,2.12,7.11.41,1.16.78,2.79.61,5.31-.24,3.57.36,6.49.88,10v-5.32c-.43,2.46-1.9,6.71-1.88,10.25.02,2.6.22,5,1.57,7.3.39.67,3.59,6.03,2.21,1.84-.66-2.18-.86-2.23-.6-.15,1.78-3.48,1.66-3.75-.34-.81-1.16,1.74-1.89,3.47-2.14,5.54-.31,2.5.17,4.92,1.41,7.13.68.94,1.39,1.87,2.12,2.78,1.19,1.39,1.07.93-.37-1.4v-5.32c-.47,2.45-1.72,5.47-2.44,8.28-1.22,4.82.8,6.81,1.79,10.63v-5.32c-.73,3.41-1.67,6.62-1.77,10.17-.05,1.61-.03,3.14.38,4.73.15,1.05.53,2.04,1.11,2.96.64,1.55.69,1.54.12-.05-.48-2.07-.73-1.59-.75,1.45l.25-1.32c-.68,1.55-1.52,2.94-1.93,4.61-.97,3.97,1.1,6.83,1.79,9.94v-5.32c-.33,1.52-.87,2.95-1.19,4.47-.52,2.55.06,4.36.17,6.84s-.54,5.03-1.23,7.46c-.88,3.11-2.43,6.24-2.77,9.45-.23,2.17.07,4.1.87,6.11.17.41,1.75,4.09,1.45,2.59v-5.32c-.64,3.45-2.25,6.77-2.62,10.21-.23,2.17.08,4.1.83,6.1.2.53,1.39,4.08,1.15,2.59v-5.32c-.73,2.12-2.6,4.93-2.42,8.15.14,2.54,1.54,4.87,1.02,6.12l2.57-4.41c-1.49,1.62-3.32,2.81-4.47,4.77-1.04,1.77-1.54,3.75-1.67,5.78-.02.36.02,3.8.17,2.73.28-.71.16-.41-.38.89-.41.85-.72,1.74-.93,2.67-.45,1.9-.42,3.81.09,5.71.36,1.34.94,2.47,1.67,3.6l1.56,2.02c1.19,1.44,1.1,1.06-.28-1.14v-5.32l-.29.73,2.57-4.41c-2.58,2.9-5.23,5.06-5.84,9.21-.36,2.46.15,4.96,1.34,7.15.58,1.02,1.27,1.96,2.06,2.83,1.13,1.47.93,1.08-.59-1.17v-5.32c-.3,1.2-.9,2.45-1.09,3.68-.4,1.39-.15,1.02.77-1.12l-1.56,2.02c-1.37,2.1-2.16,4.62-2.78,7.05-1.19,4.73-.5,10.94.31,15.8,0,.67.13,1.31.37,1.92.42,1.63.7.76.85-2.6-.6.28-1.38,2.94-1.54,3.47-.45,1.49-.61,2.99-.58,4.53.15,7.67,2.17-.36,1.91-.66-.69-.79-3.89,7.87-3.89,8.79,0,2.59,1.66,5.48,2.01,7.38l1.01-7.71c2.3-1.93,2.69-2.35,1.15-1.24l-.76.57c-1.62,1.17-3.12,2.44-4.16,4.18-2.03,3.38-1.49,6.58-1.28,10.26.06,1.01-.13,4.66.49,1.69-.32,1.54-1.54,2.97-1.91,4.57-.85,3.62.24,7.35,1.04,10.17.13,2.15.37,1.78.72-1.12-.43.72-.79,1.48-1.09,2.28-.61,1.47-1.01,2.98-1.43,4.52-.49,1.82-.93,3.53-.89,5.45.12,1.08.26,2.16.42,3.23.3,1.43.48,1.57.54.42.24-1.25.11-1.01-.37.72-.16.74-.32,1.49-.49,2.23-.44,1.69-1.01,3.28-1.17,5.03-.2,2.18.07,4.09.84,6.1.19.49,1.45,4.1,1.19,2.58v-5.32c1.48-4.18-.68-.09-1.35,1.06-.8,1.37-1.31,3.04-1.5,4.6-.39,3.21.99,5.6,1.43,8.62v-5.32c-.57,2.88-1.48,5.45-1.22,8.45.18,2.02,1.5,4.7,1.74,5.97v-5.32c-.93,3.45-2.39,5.29-3.21,8.88-.49,2.11-.36,4.17.25,6.24.33,1.24.88,2.35,1.67,3.33,1.82,2.58,2.05,2.72.7.42v-5.32c-.43,1.82-1.95,5.67-1.77,8.63.17,2.77.78,5.59,1.1,8.33.16,1.36.14,3.25.73.89-.38,1.54-1.55,2.97-1.95,4.59-.91,3.72,1.02,7.2,1.58,9.81v-5.32c-.08.3-1.33,2.41-1.61,3.32-.62,1.97-.66,3.97-.66,6,0,3.51,1.39,6.86,1.95,9.36v-5.32c-.61,3.47-1.02,6.58-1.18,10.1-.12,2.47-1.26,5.27-1.72,7.83-.61,3.4.39,6.78.48,10.1.09,3.51,1.53,5.95,2.33,8.52v-5.32c.37-1.84-1.91,3.96-1.83,3.71-.66,2.21-.66,4.45-.03,6.66.03.09,3.29,5.96,3.33,5.7-.97-2.35-1.19-2.48-.66-.38.3.96.53,1.93.68,2.92v-5.32c1.52-2.27,1.72-2.68.59-1.22-.69.75-1.29,1.56-1.81,2.42-.94,1.6-1.41,3.09-1.58,4.88-.25,2.49.16,5.28,1.56,7.46,1.93,2.99,1.04-4.58-.02-1.04s-.16,7.56.94,10.84c.63,1.9,1.52,3.65,2.89,5.12.79.85,1.68,1.59,2.68,2.22,1.43,1.14,1.12.82-.96-.96l-1.37-5.05c-.36,5.3-1.28,10.99.12,16.28.33,1.27.99,2.63,1.56,3.8.1-2.26.05-2.42-.16-.49-.15.69-.21,1.39-.19,2.09-.07,3.85,1.91,6.57,3.36,9.95l-1.37-5.05c.35,5.12.22,9.42,4.35,13.15,2.93,2.6,2.83,1.97-.31-1.92.15,1.38.35,2.76.61,4.13.7,2.32,2.1,4.25,3.14,6.4l-1.37-5.05c.34,4.66-.33,9.92,1.94,14.21.56,1.1,1.26,2.11,2.12,3.01,1.03,1.28,1.06,1.2.1-.23.7,2.57,1.18,1.81,1.42-2.29-.5,1.11-.99,2.23-1.44,3.36-1.51,4.79.34,9.33,2.9,13.39.81,1.28,2.73,3.1,3.11,3.55.68,1.03,1.42,2.01,2.21,2.96,1.25,1.35,1.24,1.05-.01-.91v-5.32c-1.09,6.28-1.04,10.17,3.16,15.25.98,1.19-.12-2.14,0-.05.08,1.44.88,3.36,1.61,4.6,1.24,2.12,4.1,3.84,5.27,5.1l-2.57-4.41c1.35,4.05,2.44,10.13,7.37,11.56,1.32.76,1.32.57.02-.57-1.41-1.75-1.39-1.29.05,1.36-.29-3.99-.56-4.14-.81-.44-.2,1.27-.11,2.53.26,3.79.87,3.66,4.37,8.47,7.51,10.51,1.54,1,3.15,1.65,4.96,1.92,1.71.34,1.42.16-.88-.53.69.71,1.35,1.44,1.97,2.21l-2.57-4.41c.16-2.86.11-3.33-.16-1.41l-.36,2.66c-.06,1.5.13,2.94.59,4.37,1.08,3.39,4.08,6.03,6.02,8.97s4.72,5.26,7.44,7.51c2.35,1.94,5.77,3.6,7.61,4.77l-3.59-3.59c.61.98,1.56,3.9,2.8,5.37,1.57,1.87,3.61,3.07,5.55,4.51l-4.95-8.63c-.05.77-.02,1.53-.08,2.3l1.37-5.05-.25.49,3.59-3.59c-.49.45-1.06.77-1.7.96l5.05-1.37c-1.85.14-7.99-.4-11.32.4-2.26.54-4.13,1.44-5.82,3.08-.71.9-1.41,1.8-2.1,2.71-1,1.46-.59,1.19,1.24-.81l5.05-1.37c.79-.06-.37.2-.87.1.1.02-3.7-.2-3.68-.2-1.8-.19-5.11-.81-7.57-.17-2.1.54-5.05,1.73-6.9,2.82-.53.31-5.75,4.67-5.05,5.36-.89-.88,7.65-2.59,1.15-2.26-.61.03-1.28-.21-1.9-.2-2.08.03-4.2.32-6.27.25-3.48-.11-6.18-.71-9.45,1.01-1.19.63-2.2,1.44-3.23,2.31-.44.37-1.88,1.22-.77.72l5.05-1.37c.98.04-.71-.28-.84-.32-1.62-.46-3.5-.46-5.15-.23-1.89.27-4.71,1.86-5.55,2.14h5.32c1.29.22-1.05-.68-1.49-.91-1.49-.77-2.99-1.2-4.66-1.34-1.8-.16-3.34.03-5.04.61-6.82,2.33-.09,1.53-.1,1.54-.05.08-4.09-.72-4.41-.73-2.02-.02-3.85.37-5.62,1.33-1.25.67-2.41,1.51-3.39,2.54-.58.61-2.33,1.79-.68,1.07l5.05-1.37c1.35.17-2.27-.94-2.16-.92-1.74-.34-3.38-.45-5.14.03-1.07.29-2.3.77-3.25,1.32-1.24.72-5.24,2.7-.99,1.22h5.32c2.3,1.56,2.71,1.77,1.24.65l-2.02-1.56c-1.23-.78-2.55-1.31-3.96-1.64-4.08-.95-7.98.11-11.97.7-2.45.36-5.16.03-7.75.33-1.97.23-3.68.4-5.47,1.24-1.12.53-7.16,3.54-2.25,1.85h5.32c-4.43-.68-7.5-1.4-12.07-.57-1.75.32-3.46.64-5.17,1.12-1.54.44-3.03-1.61-.09.31-3.15-2.05-6.62-3.38-10.45-2.41-3.54.89-5.37,3.36-8.05,5.48l4.41-2.57c2.47-.2,2.11-.4-1.08-.58,1.67.64,1.73.62.16-.06-2.51-1.2-4.74-1.6-7.51-1.41-3.92.27-7.81.86-11.76,1.25-1.08.11-2.24.02-3.32.18,1.69.83,1.76.89.2.17-1.1-.65-2.27-1.06-3.51-1.24-4.31-1.34-9.15-2.31-13.29.21-1.9,1.01-1.45,1.08,1.35.23-1,.1-1.94-.04-2.82-.42-2.02-.44-3.66-1-5.79-1.28-3.5-.45-6.9-.63-10.42-.45-3.92.21-7.7-.24-11.61.33-2.47.36-4.26.66-6.53,1.74-1.57.8-1.53.82.12.08-1.64-.03-2-.03-1.07,0l4.41,2.57c-2.53-2.46-4.35-4.99-7.97-6.02-2.6-.74-5.23-.22-7.64.78-.84.29-1.62.69-2.35,1.19,1.75-.51,1.68-.75-.22-.74,1.73.54,1.82.45.28-.27l-2.39-1.01c-2.2-.7-4.47-.68-6.75-.75-1.41-.04-2.82-.03-4.23-.08-.54-.02-4.44-.59-3.02-.02l4.41,2.57c-.93-1.04-2.55-4.98-2.36-6.46-.49,3.93,1.19-2.48,1.19-2.48.09-1.38.07-2.79,0-4.18-.21-3.5-.85-7.78-2.53-10.93-.59-1.12-1.31-2.13-2.22-3.03-.6-.59-2.15-2.65-1.32-.89l1.37,5.05.1-.92-1.37,5.05c1.89-4.04,3.74-7.59,2.44-12.17-.33-1.14-1.61-3.56-1.67-3.7-.45-1.16-.93-2.31-1.43-3.45-.93-1.65-1.05-1.32-.34,1l-1.37,5.05c1.43-2.9,3.05-5.59,3.07-8.97.02-3.79-2.84-6.63-3.97-9.18l1.37,5.05c.12-2.27,1.23-6.33-.56-9.72-.66-1.25-1.48-2.41-2.51-3.39-.62-.59-1.71-2.32-.95-.62l1.37,5.05c-.04.39.96-2.81,1.05-3.57.16-1.39.39-2.84.47-4.24.1-1.81-.08-3.55-.64-5.27-.42-1.19-.94-2.34-1.57-3.44.07,3.41.3,4.29.69,2.64,1.86-2.49.06-8.14-.8-10.68-.62-1.84-1.24-3.44-2.37-4.99-.29-.4-2.64-3.47-2.05-2.21l1.01,7.71c.46-3.03,2.13-6.18,1.52-10.07-.44-2.82-1.25-5.63-1.59-8.44-.22-1.84-.18-3.63-.72-5.43-.39-.99-.8-1.97-1.23-2.94-.68-1.32-.94-1.43-.78-.32.02,1.22.01.96-.03-.79-.04-.93-.13-1.85-.28-2.77-.24-1.93-.61-3.84-.92-5.76v5.32c-1.51,2.06-1.7,2.39-.57.98.75-.88,1.45-1.81,2.08-2.79.93-1.68,1.52-3.82,1.52-5.72,0-3.79-1.93-7.2-4.62-9.71l2.57,4.41-.14-.48v5.32l.26-.79c-2.33,2.33-4.66,4.66-6.98,6.98,2.27-.59,4.53-.63,6.64-1.86,1.14-.67,5.64-4.25,5.04-5.65.44-.76.28-.71-.49.14-1.07.92-.97.88.28-.13.8-.65,1.46-1.38,2.24-2.04.06-.05,1.83-1.66,1.53-1.23,1.71-1.06,1.28-1.2-1.28-.42-2.47.14-3.06.29-1.78.46,1.13,1.22,6.45.23,7.53-.11,2.79-.87,4.6-2.8,6.61-4.76,1.48-1.44,3.02-2.79,4.41-4.31.8-.87,1.8-1.83,2.34-2.88,1.43-2.74-2.8.43-1.25.46s3.62-1.65,4.26-1.96c2.01-1.01,3.99-1.83,5.93-2.99,4.15-2.48,6.98-6.03,10.39-9.37.7-.68,1.46-1.48,2.25-2.06-1.08.79-1.17.64.18.25,2.82-.8,5.4-2.75,6.99-5.18.98-1.5,1.9-3.71,2.41-4.8s1.05-2.14,1.42-3.28c.16-.48.98-2.16.2-.97l-3.59,3.59c3.71-2.63,3.98-1.44,7.96-3.6,2.12-1.15,3.72-2.78,4.86-4.9.64-1.08,1.05-2.24,1.23-3.46.56-3.32.5-3.54-.19-.66l-3.59,3.59c-1.34.82,1.29-.16,1.55-.24,1.82-.57,3.85-1.7,5.21-3.06s2.5-3.4,3.06-5.22c.13-.41,1.06-3.06.17-1.54l-3.59,3.59c-1.7,1.09,4.2-1.5,3.85-1.31,2.18-1.2,3.76-2.93,4.9-5.12-.32.62,2.66-5.97.56-2.62,1.02-1.63,3.1-2.69,4.31-4.17-2.02.67-2.25.74-.69.22,1.11-.47,2.22-.93,3.32-1.4,1.63-.98,3.36-2.53,4.31-4.16,1.24-2.12,1.77-4.58,1.8-7.01.02-1.76-.06-1.57-.25.57.28-1,.7-1.94,1.26-2.8l-3.59,3.59c-3.06.6-3.61.84-1.67.71,1.22-.06,2.43-.2,3.63-.42,2.16-.51,4.19-1.56,5.78-3.15,2.02-2.02,3.1-4.99,3.16-7.83-.09-1.22-.23-2.44-.44-3.65-.32-1.92-.44-1.47-.35,1.34l-2.57,4.41c-2.21,1.92-1.57,1.41,1.07-.08,1.12-.63,2.26-1.47,3.17-2.39s1.49-1.96,2.06-3.04c.52-.94.91-1.93,1.17-2.96.39-1.17.09-.82-.9,1.06l-4.41,2.57c3.36-1.38,6.65-2.34,8.99-5.37,1.31-1.69,1.96-3.54,2.25-5.62.05-.37.51-4.72-.05-2.88l-2.57,4.41c1.57-1.85,3.51-3.14,4.78-5.3s1.32-4.62,2.19-6.93l-2.57,4.41c.97-1.06,3.93-3.13,5.1-5.13.7-1.2,1.17-2.7,1.53-4.03.64-2.4.7-.82-.32-.12,2.03-1.39,3.28-4.12,4.18-6.32.81-1.99,3.1-6.17,2.37-8.34.17-1.12.05-.8-.36.95-.79,1.77-.64,2.02.44.74.87-.64,1.6-2.03,2.24-2.94,1.7-2.4,3.05-4.77,4.11-7.53s-.51.37.36-.62c.93-1.05,1.89-2.18,2.58-3.41.6-1.07,1-2.31,1.28-3.5-.35,1.48.63-4.75.34-3.55l-2.57,4.41c-.88.43-.72.33.46-.29,1.02-.64,2-1.36,2.92-2.15,2.21-2.13,3.32-4.76,3.51-7.8.25-1.28.17-2.55-.22-3.82-.36-1.8-.31-1.77.14.08.68-1.81.56-1.92-.35-.34.53-.62,1.05-1.26,1.53-1.92,2.14-2.91,4.63-5.39,5.76-9.49.56-2.03,1.11-4.48,1.06-6.56,0,.28-.65-6.2-.81-4.13l-1.37,5.05.45-.63-3.59,3.59c2.73-1.95,5.52-3.1,7.28-6.24,1.01-1.81,1.42-3.92,1.4-5.99,0,.31-1.07-6.25-1.13-4.2l-1.37,5.05c1.69-3.28,2.73-4.65,4.8-7.86,2.72-4.23,3.8-7.78,3.35-12.86-.16-1.84-.03-3.58.56-5.85.08-.65.27-1.26.58-1.82,1.34-2.86,1.38-3.17.12-.93,1.14-1.11,2.22-2.04,3.08-3.47,2.13-3.56,2.4-7.92.58-11.67-.82-2.23-.83-1.55-.02,2.04.56-1.96.27-1.99-.86-.09,1.13-1.37,2.07-1.76,3.14-3.48,1.79-2.87,2.72-7.12,3.8-10.35.56-1.66.85-3.26.8-5.01.03-1.29-.21-2.52-.74-3.67-1.12-3.09-1.31-3.19-.58-.32l-1.37,5.05c1.55-3.03,4.75-6.61,5.73-10.56.71-2.84.26-5.93-1.12-8.49-.57-1.05-1.27-2.01-2.08-2.89-1.15-1.51-.98-1.2.5.93l-1.01,7.71c-1.98,1.81-2.24,2.18-.76,1.1l2.02-1.56c1.06-.98,1.95-2.06,2.64-3.34,1.05-1.96,1.45-4,1.36-6.19-.09-1.31-.3-2.59-.63-3.86-.74,3.3-.67,4.23.2,2.78,1.68-1.17,3.09-7.68,3.29-9.62.42-4-1.19-6.86-2.84-10.31l1.37,5.05-.11-.93-1.37,5.05c-.8.62-.72.48.24-.41.78-.91,1.52-1.86,2.23-2.82,1.04-1.72,1.73-3.88,1.73-5.9s-.57-4.12-1.49-5.83c-.56-1.04-1.24-1.99-2.05-2.86-1.12-1.49-.92-1.14.61,1.06l-1.01,7.71c-2.25,1.97-2.59,2.43-1.02,1.39.99-.62,1.93-1.32,2.82-2.09,1.62-1.5,2.88-3.41,3.48-5.57.76-2.76.25-5.99-1.13-8.48-.42-.77-1.63-3.7-1.33-1.75l-1.01,7.71c-.61,1.33.84-.82,1.19-1.2,1.67-1.86,2.83-4.1,3.14-6.59.47-3.91-1.19-6.84-2.77-10.23l1.37,5.05c-.63,2.17-.49,2.36.4.6.54-1.15,1.01-2.33,1.42-3.54,1.1-3.05-.04-7.65-2.57-9.73-2.83-2.33-5.8-3.79-9.52-3.29-1.21.16-3.35.56-4.27,1.42-1.17.62-.77.64,1.21.07,2.3-.11,2.43-.36.36-.76-1.09-.5-2.59-.54-3.75-.76-.45-.09-3.02-.98-1.93-.52-2.91-1.23-5.08-2.11-8.21-2.71-2.88-.55-5.49-1.7-8.49-1.69-1.06,0-4.77-.18-2.66.23-.23-.04-3.28-1.15-2.55-.85-2.86-1.17-4.64-2.51-7.9-2.39-3.43.13-5.67,1.97-8.62,3.26l5.05-1.37-.8.04,5.05,1.37c-1.28-.54-3-1.32-4.09-2.15,1.4,1.06-1.65-1.89-1.9-2.09-3.89-3.05-8.25-2.05-11.66-2.24l5.05,1.37c-.7-.42-2.47-2.27-3.79-2.99-2.28-1.25-4.98-1.59-7.46-2.29-2.22-.63-4.38-1.43-6.72-1.43-1.23,0-2.5.22-3.67.56-.59.21-1.17.45-1.73.71-1.81.69-1.58.71.68.06l5.05,1.37c-.94-.6-3.03-2.88-4.89-3.61-1.32-.52-2.96-1.02-4.42-.93-1.18.07-2.99-.58-.36.7,3.93,1.91-2.39-2.43-2.25-2.33-2.4-1.81-4.06-3.19-7.01-4.19-4-1.36-7.68-3.66-11.71-4.93-4.73-1.48-9.11-1.28-13.91-.47h5.32l-.93-.14,4.41,2.57c.48.82.41.62-.22-.58-.59-1.07-1.3-2.07-2.13-2.97-1.58-1.65-3.49-2.73-5.69-3.31-2.92-.77-6.76-.45-8.84-.98l4.41,2.57c1.37,2.7,1.77,3.15,1.21,1.33-.31-1.14-.74-2.25-1.28-3.3-.64-1.21-1.41-2.29-2.42-3.23-2.97-2.8-7.53-3.93-11.34-4.89-1.44-.36-3.26-.63-4.55-1.46,2.85,1.84-1.25-1.64-1.6-1.87-1.32-.87-2.67-1.52-4.22-1.88-1.23-.36-2.47-.45-3.72-.27-3.4.32-3.55.45-.43.4l4.41,2.57c1.32,1.27-2.34-3.82-2.13-3.6-.49-.52-3.48-3.1-2.4-2.15-3.27-2.87-6.46-3.99-10.46-5.56l4.41,2.57c-1.84-1.46-3.43-3.36-5.47-4.56-1.84-1.07-3.79-1.33-5.76-1.9-1.53-.45-3.01-.75-4.56-1.14-1.31-.34-3.83-2.15-5-2.03-1.06-.68-.98-.36.22.94,1.04,1.69,1.17,1.73.39.09-.43-1.25-.98-2.11-1.75-3.16-1.24-1.68-1.49-1.77-2.85-3.44-1.72-2.12-3.78-3.76-6.46-4.52-1.16-.33-2.42-.45-3.63-.52-.63-.04-2.35-.44-.92.06l4.41,2.57c-3.94-3.11-8.07-5.9-12.08-8.89-2.11-1.58-3.97-3.32-6.29-4.62-1-.56-2-1.08-3.03-1.57-.77-.36-3.67-.96-3.54-.9l3.59,3.59c.57.76.2,1.09.1-.14-.06-.66-.25-1.29-.44-1.91-.85-2.71-2.62-4.69-4.78-6.46-2.05-1.67-3.98-3.41-6.59-4.17-1.18-.35-2.41-.42-3.63-.57-.72-.09-2.22-.62-.97-.11l4.41,2.57c-.59-.64-2.41-3.38-3.82-4.49s-4.58-2.33-5.24-2.71l3.59,3.59c.46.7.59,3.71.54,1.32-.02-1.15-.24-2.47-.56-3.59-.84-2.93-2.85-4.97-5.19-6.78-1.8-1.4-3.46-2.81-5.63-3.61-1.1-.4-3.59-1.82-1.31.25,2.64,2.4.2-.56-.19-1.1-1.67-2.31-3.94-4.1-6.74-4.89-.61-.17-3.41-.86-3.67-.56.75-.86,4.38,2.98,1.87.17-.62-.69-4.59-4.19-2.87-1.91-1.95-2.59-1.8-5.07-4.65-7.38-1.64-1.33-4.02-1.9-5.51-2.71-1.61-.88-2.07-1.56-2.75-2.39-.78-.95-1.46-1.82-2.37-2.62-.36-.32-3.18-2.54-2.39-1.6.94,1.1-.61-1.44-.8-1.74-.62-1.03-1.45-2.05-2.24-2.96-1.28-1.48-2.72-3.03-4.18-4.33-1.7-1.51-.36-.92-.23.42-.07-.71-.2-1.45-.4-2.13-.86-2.92-2.85-5.5-5.47-7.02-1.02-.59-2.19-1.06-3.32-1.36-.61-.15-1.23-.25-1.86-.29-2.01-.32-1.78-.21.71.32l3.59,3.59c-2.85-4.15-4.87-7.72-9.33-10.59-1.07-.69-2.18-1.14-3.35-1.65l-1.19-.43c1.35.66,1.58.61.69-.13-.62-.73-.69-.73-.21,0,.37.74.43.71.16-.08-.56-1.37-1.04-2.71-1.74-4.03-1.94-3.69-4.43-6.98-7.13-10.19-1.55-1.85-3.02-3.6-5.16-4.81-1.47-.83-3.02-1.15-4.67-1.34-2.5-.29-2.92-1.08-.08.57l3.59,3.59c-1-1.56-3.05-5.51-4.78-7.85-2.26-3.06-5.2-6.58-7.93-9.21-.92-.89-3.27-2.04-3.48-2.19-.71-.73-1.47-1.4-2.28-2.01.55,1.42.64,1.64.29.65-1.33-2.2-1.5-4.04-3.36-5.98-.94-.8-1.91-1.57-2.9-2.3-1.51-1.01-1.43-.74.25.8l1.37,5.05c-.35-3.8-.4-7.09-2.74-10.33-1.82-2.52-4.69-4.17-6.52-6.61-2.01-2.68-3.48-5.76-6.01-8.12-1.42-1.32-3.22-2.43-5.09-2.99-1.19-.25-2.39-.43-3.6-.54-1.88-.2-1.46.01,1.27.63l4.6,5.98c0,1.32.04,1.28.13-.13.12-.68.15-1.36.09-2.05-.08-2.48-.94-4.83-2.45-6.79s-3.52-3.3-5.85-4.02c-1.16-.32-2.35-.52-3.56-.58-1.86-.26-1.38-.1,1.45.48l3.59,3.59c-1.38-2.14-2.39-4.53-3.73-6.71-.93-1.5-1.97-2.84-3.28-4.02l-2.02-1.56c-1.56-.97-1.5-.68.16.87l1.37,5.05c-.27-4.17-.18-8.15-3.4-11.38-1.33-1.33-3.28-2.46-5.07-3.01-1.17-.31-2.36-.5-3.58-.57-1.87-.24-1.41-.07,1.39.51l3.59,3.59c-2.52-3.28-4.74-5.82-7.82-8.58l2.57,4.41c-.02,1.01.02.79.1-.67.04-1.29-.08-2.56-.36-3.82-.53-2.11-1.77-4.06-2.99-5.84-1.46-2.13-2.9-4.07-5.22-5.36.19.1-5.49-2.36-4.02-1.36l4.6,5.98c.34.83-.04.36-.03-.55,0-1.39-.2-2.89-.59-4.21-.87-2.96-2.85-5.45-5.55-6.96-1.04-.58-2.28-1.02-3.43-1.33-2.45-.66.77,1.53-.19-.08-1.04-1.74-3.5-3.22-4.88-4.73-.61-.67-1.5-1.55-1.93-2.35.69,1.3.72,1.01.5-.2-.37-2.04-1.28-3.98-1.96-5.83-.99-2.7-2.74-4.82-5.24-6.26-1.46-.84-3.05-1.17-4.69-1.39-2.71-.37-2.62-1.12-.09.46l4.6,5.98c0,1.27.04,1.22.16-.16.13-.66.18-1.33.15-2.01-.03-1.92-.66-4.1-1.62-5.75s-2.77-3.25-4.35-4.21c-1.12-.49-2.24-.96-3.36-1.43-1.29-.36-1.37-.43-.25-.22l3.59,3.59c-.72-1.07-1.35-2.19-2.04-3.28-1.83-2.9.08-1.35-.29,1.56l-1.37,5.05.04-.09c2.15-4.48,1.61-9.77-2.58-12.9-3.74-2.8-9.81-3.04-13.13.78,2.42-1.22,2.77-1.47,1.06-.76-1.12.39-2.2.87-3.23,1.46-2.06,1.29-3.67,3.14-4.61,5.38s-1.16,4.86-.57,7.31c.31,1.16.75,2.27,1.3,3.35.75,1.77.67,1.37-.21-1.21l1.37-5.05c-2.38,3.7-3.55,6.42-4.89,10.59l2.57-4.41c2.25-1.16,2.75-1.5,1.52-1.03-.99.34-1.95.73-2.89,1.19-1.02.55-2.04,1.18-2.87,1.99-1.49,1.47-2.33,3.06-3.11,4.99-.17.43-1.9,3.91-.81,2.21,1.35-2.13-2.99,3.53-2.15,2.25-.84,1.27-1.46,2.58-1.87,4.06-.76,2.75-1.07,5.57-1.89,8.33l2.57-4.41c-2.9,3.75-6.26,6.07-6.4,11.38.07,1.25.22,2.49.44,3.72,2-4.83,2.12-6.16.34-4.01-.73.7-3.2,3.68-3.4,4.89-.72.91-.49.91.68-.02-1.01.76-2.01,1.53-3.01,2.31-2,1.9-2.89,4.2-3.95,6.66-1.62,3.77-2.95,7.55-4.38,11.37l2.57-4.41c-2.19,2.71-4.66,4.8-6.46,7.9-.86,1.48-1.62,2.9-2.04,4.58-.36,1.25-.45,2.5-.26,3.77.31,3.37.45,3.55.42.53l2.57-4.41c-2.46,3.05-4.96,5.96-7.14,9.24-1.92,2.9-4.54,5.56-6.08,8.66-1.62,3.27-2.66,6.44-4.99,9.34-.74.92-1.43,1.82-2.19,2.74-.98.99-1.72,2.12-2.24,3.39-1.28,2.69-1.41,3.15-.39,1.39l4.41-2.57c-4.89,1.82-9.1,3.3-10.98,8.69-.39,1.12-.47,2.4-.88,3.49,1.08-2.89-2.69,2.95-3.08,3.49-2.12,2.95-4.72,6.16-5.58,9.76-.28,1.33-.41,2.66-.39,4.01.39-1.74.19-1.74-.61,0-1.3,1.43-2.14,3.52-3.16,5.16l3.59-3.59c1.88-1.38,3.67-.82.62-.53-2.19.21-3.94.47-5.88,1.57-3.28,1.85-4.53,4.66-5.79,8-.45,1.19,1.55-1.48-.53.54-1.59,1.55-2.91,3.41-3.59,5.54-.45,1.41-.65,2.86-.59,4.35l.36,2.66c.25,1.9.27,1.39.08-1.54l2.57-4.41c-1.76,1.8-4.87,3.66-7.07,6.04-3.07,3.33-3.07,7.1-5.05,10.7l3.59-3.59c1.98-1.42,3.73-.8.74-.55-2.15.18-3.95.49-5.86,1.56s-6.31,5.32-5.71,8.07c.37,1.71,3.56-2.58.91-.97-1.61.98-3.48,2.73-4.43,4.36-1,1.71-1.62,4-1.67,5.95-.01.5-.3,3.41.25,1.81l4.6-5.98c.98-.75-.87.35-1.49.57-1.92.69-3.7,1.67-5.16,3.14-2.62,2.62-2.81,6.96-3.74,9.23l4.6-5.98c2.76-.55,3.21-.69,1.33-.44-1.22.07-2.42.26-3.59.59-1.83.56-3.72,1.67-5.06,3.02-3.04,3.04-3.13,7.17-3.57,11.18l1.37-5.05c-.59,1.36-4.1,3.53-5.5,5.06-2.52,2.74-2.81,6.93-3.78,9.25l2.57-4.41-.74.57,4.41-2.57c-2.9,1.16-5.82,1.93-8.11,4.23-1.32,1.32-2.65,3.61-3.16,5.4-.68,1.55-.54,1.5.42-.14,1.22-1.43,1.15-1.65-.2-.66-2.71,1.22-5.79,5.42-7.28,7.86-1.75,2.88-1.67,6.02-2.02,9.22l1.37-5.05c1.6-1.35,1.91-1.66.93-.94-.86.59-1.7,1.23-2.5,1.9.61-.39-2.01.92-2.03.93-3.12,1.79-4.04,4.33-5.98,7-1.65,2.27-3.66,4.08-5.06,6.58-1.15,2.04-2.34,4.15-3.78,6.01-1.34,1.72-2.77,2.36-4.67,4.22-2.06,2.02-3.31,4.35-5.89,5.87-1.69.99-4.66,2.46-6.15,4.99-1.71,2.89-1.72,6.05-2.12,9.26l1.37-5.05c.17-.36-1.93,3.07.48.81-.97.91-3.35,1.25-4.57,2.03-3.3,2.11-4.07,5.66-5.42,8.05l3.59-3.59c-3.11,2.39-6.05,3.42-8.28,6.99-1.18,1.89-1.75,2.95-3.24,3.91-2.59,1.67-5.76,2.48-8.31,4.88s-3.61,5.47-4.77,8.78c-1.79,5.1,2.03,10.94,6.98,12.3,5.52,1.52,10.51-1.87,12.3-6.98.55-1.58,1.67-2.97-1.12-.09s-.97,1.55.69.75c2.15-1.05,3.45-1.7,5.87-3.19,4.39-2.7,6.64-7.24,9.57-11.21l-3.59,3.59c1.98-1.48,4.2-2.21,6.02-4.02s2.5-4.92,3.4-6.49l-3.59,3.59c.64-.41,3.11-1.25,4.4-2.1,1.87-1.23,3.04-2.76,4.41-4.48,3.05-3.82,3.53-7.15,4.16-11.85l-1.37,5.05.42-.86-3.59,3.59c3.12-2.38,6.76-4.05,9.6-6.92.72-.73,2.63-3.23,2.7-3.3,1.57-1.49,3.36-2.47,4.78-4.16,2.69-3.21,4.76-6.79,7-10.28,2.01-3.13,4.51-6.04,6.54-9.29l-3.59,3.59c3.22-2.44,6.09-3.53,8.91-6.1,3.67-3.35,3.9-7.41,4.41-12.02l-1.37,5.05c.91-2.02,2.48-2.41,4.6-4.32s3.49-5.37,4.44-6.98l-3.59,3.59c-1.03.8.61-.38,1.31-.65,1.89-.72,3.69-1.7,5.15-3.15,2.64-2.61,2.81-6.94,3.78-9.25l-2.57,4.41c2.43-2.4,5.46-4.47,7.48-7.25,2.29-3.16,2.37-6.44,2.79-10.16l-1.37,5.05.38-.86-3.59,3.59c-2.77.56-3.21.71-1.33.45l2.66-.36c1.9-.45,3.5-1.24,4.98-2.47,3.6-2.99,3.5-6.95,4.75-10.02l-4.6,5.98c-1.21.91.92-.36,1.49-.57,2.37-.85,4.39-2.14,5.94-4.15,1.31-1.69,1.98-3.55,2.28-5.63.06-.44.45-4.68-.07-3.15l-2.57,4.41c.73-.68,3.42-2.34,4.54-3.83,1.24-1.67,1.73-4.77,2.12-5.67l-3.59,3.59c-3.08.59-3.65.8-1.71.64,1.21-.09,2.42-.24,3.62-.44,2.15-.51,4.2-1.6,5.77-3.17,1.67-1.67,2.67-4.05,3.62-6.14.52-1.13,1.02-2.28,1.48-3.44.55-1.61.28-1.66-.81-.13-1.39,1.31-1.42,1.44-.09.4,1.05-.67,2-1.46,2.83-2.38.32-.27,2.58-2,3.53-3.03,1.98-2.15,3.09-4.89,3.19-7.81,0-1.21-.12-2.41-.38-3.6-.25-1.9-.27-1.39-.08,1.54l-2.57,4.41c1.59-1.76,3.46-3.27,4.73-5.32.76-1.22,1.46-4.1,1.61-4.4l-3.59,3.59c-.59.43-4.14.62-1.61.62,1.17,0,2.54-.16,3.66-.45,2.14-.54,4.22-1.61,5.79-3.18,2.88-2.88,6.4-8.84,7.5-12.71.36-1.28.35-2.59.55-3.89s-.99.9.28,0,2.43-3.65,3.41-4.98c1.32-1.78,2.76-3.39,3.72-5.39.9-1.88,1.04-3.85,1.82-5.74l-2.57,4.41.73-.6-4.41,2.57c2.34-.87,4.59-1.45,6.67-2.89,2.73-1.9,3.47-4.42,4.99-7.16-.63,1.14.32-.37.59-.73.88-1.13,1.75-2.28,2.62-3.42,1.55-2.03,2.76-3.9,3.88-6.19.94-1.93,2.2-4.92,2.44-5.26,1.51-2.13,3.26-4.08,4.7-6.3,2.48-3.83,6.52-7.33,7.62-11.8.31-1.24.32-2.5.27-3.76-.25-5.6-.59.58-.63.58-.19-.01,2.84-3.27,2.97-3.41,2.24-2.39,2.83-4.9,3.81-7.83.66-1.97,1.85-3.81,2.44-5.79.99-3.32-2.77,1.41-.19-.38,1.05-.73,1.92-1.51,2.77-2.45,1.5-1.65,2.83-4.32,3.87-5.77,1.1-1.54,3.3-3.69,3.99-6.08.32-1.11.56-2.42.57-3.57-.04-.8-.12-1.6-.26-2.39-.21-2.07-.28-1.77-.22.9l-2.57,4.41c1.25-1.6,2.88-2.7,4.04-4.41,1.82-2.67,2.36-5.57,3.09-8.66.22-.67.35-1.36.39-2.07.33-1.7.25-1.77-.24-.22-.7,1.39-.56,1.48.41.27l1.56-2.02c1.5-2.31,2.27-5,3.3-7.55l-2.57,4.41c-2.24,1.16-2.74,1.5-1.52,1.03.99-.34,1.95-.73,2.89-1.19,1.01-.55,2.04-1.18,2.87-1.99,2.32-2.29,2.9-5.9,3.73-7.73.99-2.18,3.6-4.77,3.65-8.51.02-1.37-.19-2.71-.61-4.01l-1.01-2.39c-.74-1.77-.67-1.37.21,1.21l-2.93,7.07c-2.26,1.13-2.78,1.45-1.56.95.98-.37,1.94-.77,2.89-1.2,1.27-.68,2.43-1.52,3.38-2.61-5.24-4.04-10.47-8.08-15.71-12.12-2.3,4.8-1.37,8.79,1.25,13.11,1.2,1.97,2.33,4.23,3.97,5.87,1.12,1.12,2.51,1.92,3.9,2.59s3.38,2.05.47-.32l-2.57-4.41c-.8-2.18-.38,1.21-.36,2.11.07,2.48.95,4.87,2.46,6.83s3.51,3.29,5.84,3.99c1.19.24,2.39.42,3.61.54,1.88.19,1.49,0-1.17-.56l-3.59-3.59c.41.91,1.04,4.39,1.51,5.69,1.23,3.44,3.54,6.28,5.98,8.95,2,2.2,4.28,4.4,6.55,6.3,1.26,1.06,2.48,1.93,3.98,2.6.44.2,4,1.76,2.8.91l-4.6-5.98c-.61-1.52.03,1.02.07,1.65.17,2.55.94,4.9,2.51,6.94,1.28,1.66,2.88,2.77,4.77,3.6.42.18,4.06,1.71,2.84.87l-3.59-3.59c.83,1.2,1.8,4.21,1.48.8.12,1.25-.11,2.47.09,3.76.7,4.38,3.21,6.37,6.25,9.21-1.12-1.05.77.94,1.08,1.35,1.2,1.61,2.32,3.12,4.05,4.19,1.23.76,2.55,1.31,3.95,1.65l2.66.36c1.86.24,1.4.07-1.38-.5l-4.6-5.98c-.62-1.47.07.99.12,1.65.15,2.07.65,4.13,1.74,5.92.87,1.44,2.84,3.56,4.47,4.31,1.35.89,1.45.74.3-.47.3.71.68,1.38,1.12,2.01,1.53,2.7,2.72,5.48,5.19,7.51,1.37,1.12,2.75,1.86,4.5,2.33,1.02.27,2.05.42,3.11.47,1.86.25,1.38.1-1.44-.47l-4.6-5.98c-.77-1.85-.25.69-.24,1.69.02,1.88.39,3.42,1.18,5.07,1.93,4.01,6.15,6.89,10.75,6.74,1.66.19,1.45.03-.61-.49-2-.98-2.23-.79-.7.57.43,1.08,1.08,2.13,1.73,3.09,1.6,2.4,5.92,5.07,6.87,7.2l-1.37-5.05c.27,2.95.13,5.73,1.58,8.46.65,1.23,3.66,5.77,5.37,5.48.89.61.78.3-.33-.95-.96-1.65-1.11-1.68-.45-.09.31,1.16.96,2.36,1.6,3.38,1.35,2.16,3.47,3.8,5.39,5.43,2.28,1.95,3.13,1.89,4.54,3.58s2.86,3.05,4.21,4.62c2.98,3.47,3.93,8.99,9.34,11.13,1.28.51,2.1.67,3.47.84,5.4.64-1.03-.4-.95-1.01-.09.7,3.42,4.1,3.8,4.73,2.23,3.72,2.77,7.2,6.05,10.75,1.85,2,3.79,3.73,6.27,4.88,1.01.47,3.22,1.83,1.26.44.62.44,2.6,2.64,1.43.84,1.69,2.6,2.26,4.91,5.2,6.72.98.6,2.1,1.17,3.2,1.49.78.21,1.58.34,2.39.41,2.02.32,1.78.21-.71-.33l-3.59-3.59c-1.01-1.75,1.29,4.32,1.1,3.97,1.04,1.94,2.62,3.43,4.13,4.99,2.09,2.14,3.36,3.91,4.98,6.33,1.53,2.28,3.29,2.96,5.21,4.77,1.11,1.04,1.81,2.43,2.93,3.47,3,2.8,7.33,4.48,10.15,6.13l-3.59-3.59c1.31,1.98,2.59,5.16,4.79,7.42s4.82,4.98,7.58,6.64c1.3.78,2.77,1.32,4.23,1.67,3.39.75,3.54.5.45-.77-2.23-1.66-2.77-1.68-1.64-.07,1.54,3.6,5.64,5.22,9.04,6.19l-.9-.93c2.9,2.75,2.95,1.89.17-2.58-.6.56.4,3.81.66,4.66,1.19,3.91,4.47,7.09,8.41,8.21,3.22.92-2.36-3.47-.7-.36.75,1.4,2.1,2.7,3.35,3.64,1.71,1.29,3.53,1.96,5.6,2.33.8.13,1.6.22,2.41.26,1.39-.05,1.53-.03.43.06l-4.41-2.57c.19.15,2.28,1.94,2.32,1.91.41-.34-1.15-3.22-.41-.43.53,2.02,1.25,3.81,2.61,5.42,3.41,4.02,7.38,3.45,11.07,6.04,3.41,2.4,7.05,4.87,10.34,7.45,2.17,1.7,3.99,3.67,6.71,4.52,1.33.41,2.67.61,4.07.68.61.03,2.38.43.92-.07l-4.41-2.57c.07.06,1.61,2.17,2.22,2.77,1.25,1.31,1.17.99-.24-.96l1.01,2.39c1.79,3.44,4.59,5.31,8,7.01,5.32,2.65,10.97,3.24,16.38,5.38l-4.41-2.57c3.22,2.58,5.78,5.3,10.02,6.31,1.18.34,1.01.23-.53-.33.54.62,1.15,1.15,1.83,1.61,2.64,2.23-1.53-2.66.21,1,1.86,3.9,6.28,6.18,10.46,6.29l1.06-.08c4.3-.26,3.56-.76-2.22-1.5.02,1,2.95,2.57,3.78,3.04,3.39,1.88,7.05,2.54,10.73,3.41-1.03-.34-.84-.23.57.31,2.56,1.3,1.93.22-1.9-3.22-.32.85,1.16,3.57,1.53,4.27,3.8,7.15,11.24,5.81,16.22,6.89l-4.41-2.57c-1.13-.97.54,1.15.79,1.54,1.32,2.06,3.22,3.77,5.49,4.7,3.66,1.49,6.96.64,10.66-.01h-5.32c2.88.39,5.14,1.03,7.75,2.27,1.91.91,3.75,1.91,5.75,2.65.74.27,4.61,1.93,1.76.17,2.77,1.7,3.95,3.79,6.56,5.49,3.63,2.37,6.76,1.56,10.76,2.07l-5.05-1.37c2.61,1.67,4.62,4.33,8.74,4.47,1.63.06,3.17-.24,4.7-.75,3.42-1.22,3.17-1.39-.73-.5.72.2,1.43.41,2.14.63.49.14,4.73,1.1,3.1.57-.86-.61-.74-.43.36.56.77.72,1.6,1.34,2.52,1.85,3.72,2.18,7.48,1.15,10.32,1.28l-5.05-1.37c-.92-.53-.16.12.2.56.84,1.02,2.01,1.88,3.13,2.56,1.42.86,2.99,1.66,4.49,2.38,5.56,2.65,9.42.36,14.47-1.93l-5.05,1.37c-1.17.08-3.01-1-1.2.28.9.64,2.35,1.06,3.42,1.43,2.18.74,4.7,1.43,7,1.53,1.38.06,2.89-.49,4.22-.34-1.54-.17.2.4.68.58,1.8.67,4.27.59,5.72,1.13,1.29.49,3.28,1.83,5.07,2.29,1.98.51,4.02.78,6,1.28,2.4.61,4.67,1.04,7.15.69,1.37-.2,2.15-.42,3.42-.96,3.43-1.44.92.16-1.42-.09-2.36-.98-4.71-1.95-7.07-2.93l.58.48-2.57-9.73c-.95,2.64-2.65,4.51-2.59,7.79s1.61,5.68,2.9,8.44l-1.37-5.05.12.92,1.37-5.05c.72-.63.57-.5-.44.41-.86.87-1.63,1.81-2.31,2.82-1.06,1.74-1.76,3.85-1.76,5.9,0,1.91.57,4.15,1.49,5.82.43.79,1.62,3.69,1.32,1.75l1.01-7.71c2.26-1.97,2.6-2.43,1.02-1.39-.99.62-1.93,1.32-2.82,2.09-1.62,1.5-2.89,3.41-3.48,5.57-.77,2.79-.22,5.96,1.13,8.48.56,1.04,1.24,1.99,2.05,2.86,1.12,1.49.92,1.14-.62-1.06l1.01-7.71c.59-1.37-.5.73-.9,1.21-1.63,1.94-2.81,4.04-3.12,6.59-.49,3.97,1.21,6.89,2.85,10.32l-1.37-5.05c.13,1.14-2,3.64-2.7,5.69-1,2.92-.24,6.61-.23,8.41l1.37-5.05c1.99-1.81,2.24-2.18.77-1.1-.96.67-1.87,1.4-2.73,2.19-1.7,1.79-2.79,3.99-3.12,6.43s.12,4.96,1.31,7.16c.58,1.05,1.27,2.01,2.08,2.9,1.15,1.51.98,1.2-.5-.93v-5.32c-.75.73-1.21,1.66-1.37,2.78.89-1.33.8-1.35-.26-.05-2.04,2.18-3.38,5.11-3.46,8.1-.04,1.6.41,5.77,1.8,6.99.4-5.05,0-5.69-1.19-1.91-.36.94-.66,1.89-.89,2.87-.75,1.92-.57,1.93.56.03-.56.44-1.09.93-1.57,1.46-1.83,1.97-2.68,4.13-3.31,6.7-.51,2.07-.96,4.42-.88,6.54,0,1.28.23,2.51.71,3.68,1.17,3.08,1.32,3.19.46.35l1.37-5.05c.67-1.26-.4.25-.74.61-.92.98-1.73,2.02-2.36,3.2-1.32,2.47-2.36,5.32-3.14,8s-1.11,5.16-1.31,7.83c-.17,2.27.4,5.77.35,7.16l1.37-5.05c-1.9,3.71-3.78,6-5.97,9.87-1.35,2.39-2.5,4.67-2.51,7.5,0,1.2.15,2.52.52,3.67.15.48.54,2.52.59,1l1.37-5.05-.44.64,3.59-3.59c-3.39,2.44-7.07,4.18-8.29,8.62-.62,2.26-.58,5.09.19,7.3.48,1.71.54,1.45.17-.78-.5,1.88-.36,2.01.44.39-1.94,3.89-5.06,5.47-6.74,10-.82,2.22-1.59,4.57-1.74,6.94-.1,1.57.29,4.35.21,4.99l2.93-7.07c.76-.95-.42.25-.89.59-1.11.8-2.15,1.57-3.06,2.58-1.32,1.46-2.19,3.05-2.7,4.97-.08.3-.4,4.41-.52,4.43.45-.09,2.67-4.96-.37-1.05-1.19,1.53-1.58,2.44-2.42,4.35s-1.83,3.85-3.2,5.54c-.74.91-3.42,3.58-4.12,5.82-.39,1.23-.58,2.45-.71,3.74-.31,3.21,1.17-2.13-.38.98-.91,1.82-1.91,2.38-3.28,4.61-1.51,2.45-1.6,4.74-2.59,7.3l2.57-4.41c-.99,1.11-3.92,3.11-5.1,5.13-1.29,2.21-1.3,4.63-2.19,6.93l2.57-4.41c-1.87,2.26-4.01,3.69-5.28,6.49-.71,1.57-1.08,2.94-1.14,4.75-.02.53-.33,3.3.22,1.55l2.57-4.41-.71.61,4.41-2.57c-2.92,1.21-5.91,2.03-8.22,4.35-1.19,1.2-1.94,2.7-2.55,4.25-.38.74-.65,1.53-.82,2.34,4.19-3.19,4.97-4.15,2.36-2.88-3.44,1.17-6.33,4.05-7.42,7.52-.45,1.45-.57,2.91-.5,4.41l.36,2.66c.33,1.92.44,1.47.34-1.35l4.6-5.98c.61-.43,4.15-.62,1.68-.7-1.27-.04-2.82.19-4.04.51-2.83.76-5.38,2.57-6.94,5.07-1.17,1.88-2.29,4.4-2.99,6.51-.44,1.34-.58,2.66-.74,4.08-.08.72-.59,2.25-.08,1.03l2.57-4.41c3.89-3.07-1.08-.11-2.3.69-1.95,1.28-3.61,3.06-5.28,4.68s-3.5,3.26-4.72,5.21c-.83,1.33-1.28,3.96-1.62,4.6l3.59-3.59c1.31-.86-1.05.17-1.45.3-1.84.6-3.81,1.69-5.19,3.07s-2.49,3.4-3.04,5.22c-.13.42-1.06,3.02-.18,1.54l3.59-3.59c1.36-.84-1.25.15-1.54.24-1.82.57-3.86,1.71-5.22,3.07s-2.48,3.41-3.03,5.24l-.22,1.07c-.56,3.32-.5,3.54.17.66l3.59-3.59c1.27-.77-.58-.04-1.02.08-1.33.35-2.51.98-3.71,1.63-2.02,1.09-4.41,2.3-6.05,3.94-1.96,1.96-2.4,4.34-3.51,6.73-.42.91.22-.74-.59.91-.46.94-1.24,3.04-1.51,3.43l3.59-3.59c-.99.57-3.93,1.47-5.49,2.65-1.74,1.31-3.38,2.87-4.92,4.41-2.61,2.63-5.5,5.73-8.08,7.1-3.81,2.01-7.76,2.52-11.05,6.1-2.9,3.15-5.1,6.37-8.62,9.51l4.41-2.57c2.75.17,3.44.14,2.07-.07-.61-.12-1.23-.21-1.85-.27-1.67-.21-3.26-.28-4.93.13-2.7.66-4.64,2.32-6.79,3.95-1.85,1.41-3.25,2.76-4.46,3.87s-2.36,2.04-3.26,3.46c-.24.37-1.85,2.59-.66,1.48l4.41-2.57c-5.17,1.46-9.65,2.14-11.37,8.23-.6,2.11-.62,4.08,0,6.19.48,1.69,1.33,3.16,2.57,4.41.96.96.67.37-.88-1.77v-5.32c1.5-2.4,1.68-2.83.53-1.29-.83.87-1.51,1.84-2.06,2.9-.94,1.76-1.5,3.92-1.5,5.91,0,3.08.63,7.24,1.19,10.26.41,2.19,1.44,3.81,2.4,5.77l-.02-1.44c0,1.01.07,2.02.17,3.03.38,3.86,1.5,7.66,2.15,11.48v-5.32c-.2,1.25-1.55,4.03-1.7,6.08-.26,3.46.77,6.64,3.14,9.24.51.56,1.19,1,1.67,1.57-2.03-2.42-.36.92-.57-.62-.27-1.99-.5,1.47-.54,1.75-.27,1.8-.36,3.3.11,5.14.29,1.13.73,2.5,1.35,3.47,1.66,2.62-.3-1.48.1-1.43.63.08-1.18,5.86-1.28,6.42-.52,2.87-.08,5.7,1.39,8.24.65,1.13,1.65,2.12,2.58,3,.69.66,1.18,1.68.56.3l-1.37-5.05c-.07,1.29-1.12,4.87-.45,7.33.64,2.32,2.96,5.06,3.62,6.52l-1.37-5.05-.12.93,1.37-5.05c-1.97,4.01-3.86,7.56-2.5,12.15.38,1.28,1.95,3.45,2.04,3.64.36,1.19.82,2.35,1.37,3.47.81,1.69.82,1.37.02-.96l1.37-5.05c-2.15,4.64-4.35,8.99-1.61,14.01.67,1.23,1.51,2.41,2.54,3.38.53.41,1.06.82,1.59,1.24-1.32-2.12-1.62-2.18-.89-.16-.06.32-.12,3.61-.05,3.08-.23,1.64-1.02,3.27-.98,5.04.11,4.62,1.9,8.84,3.92,12.87,2.16,4.31,4.55,8.24,9.61,9.53,3.13.8,6.92.32,10.12.38,1,.05,1.99.08,2.99.09-1.72-.62-1.81-.56-.28.18,1.94,1.08,3.97,1.4,6.15,1.67,2.43.3,4.68.67,7.12.13,1.61-.36,3.47-1.65,4.59-1.92h-5.32l.74.3-4.41-2.57c1.65,1.59,2.8,3.52,4.85,4.72,2.7,1.58,5.73,1.75,8.77,1.72,3.43-.04,5.72-.96,8.82-2.19-3.05,1.22.97-.11,1.73-.13,1.24-.03,2.49.3,3.72.37,4.71.24,9.07-.67,13.73.48,2.73.67,5.77,1.45,8.6,1.52,3.47.09,5.3-1.58,7.9-2.32h-5.32c5.16,1.02,9.41,3.16,15.34,2.82s11.23-1.06,16.82-1.88h-5.32c2.89.58,7.73,2.58,11.67,2.48,4.75-.12,7.33-3.12,10.72-5.83l-4.41,2.57.73-.25h-5.32c-1.88-.43,3.99,2.05,3.66,1.94,2.01.61,4.45.74,6.56.75,4.42.02,8.67-1.44,13.02-2.12h-5.32c3.55.55,6.64,1.86,10.3.82,1.39-.4,2.53-1.03,3.69-1.8,2.57-1.65,2.75-2,.52-1.03-2,.59-2.01.71-.03.36,3.1.03,6.33.39,9.38-.37.81-.2,1.76-.37,2.49-.72,2.04.25,2.01-.03-.11-.84-1.85-1.11-2.11-1.18-.79-.21,2.19,2.18,5.53,3.55,8.62,3.55,1.93,0,4.25-.74,5.92-1.67l.84-.6c3.51-2.35,2.56-2.34-2.85.01,1.09,2.4,8.68.33,10.01-.39,1.25-.67,2.43-1.5,3.42-2.54.57-.59,2.36-1.84.65-1.07l-5.05,1.37c-.96-.06.73.35.83.38,1.58.47,3.5.48,5.11.25,2.07-.3,4.7-2.22,5.51-2.55h-5.32c-1.2-.2,1.08.69,1.52.92,1.06.55,2.15.89,3.3,1.16,2.26.53,4.25.32,6.41-.37.96-.31,5.69-1.8,1.8-1.42-4.47.43,2.2.87,2.21.87,1.75.08,3.34-.21,4.98-.82,1.55-.57,2.83-1.36,4.07-2.46.4-.35,2.57-1.77,1.13-1.08l-5.05,1.37c5.46.09,10.91.51,16.37-.18,2.77-.35,5.11-.47,7.56-1.99,1.4-.87,2.43-2,3.42-3.29,3.08-4.04-.61.61-1.39.24l2.39-1.01c-2.73-.09-3.38,0-1.94.26,1.01.68,3.21.42,4.37.46,1.04.04,5.32.36,7.38-.2,2.95-.81,5.72-3.09,7.27-5.71,1.71-2.9-5.06,1.25-2.55,1.94-.15-.04,2.26-.16,1.91-.17,6.4.11,13.26-1.21,15.27-8.51.59-2.14.66-5.52.08-7.61-.44-1.59-1.41-3.25-2.57-4.41-.33-.33-4.32-4.24-2.09-.99s-.12-1.62-.5-2.31c-.83-1.49-1.9-2.71-3.19-3.78s-2.76-1.81-4.37-2.41c-2.61-.97.94,1.48-1.01-.67-1.34-1.47-3.11-2.54-4.31-4.1-1.92-2.49-3.71-4.92-5.77-7.31l2.57,4.41c.28.78-.43,3.83.14,1.43.43-1.78.46-3.23.22-4.96-.42-3.06-1.98-5.3-3.97-7.61-1.36-1.58-2.8-3.18-4.61-4.25-1.15-.68-2.54-1.05-3.82-1.36-1-.24-1.87-.88-.7.01l3.59,3.59c-.23-.31-1.47-2.41-1.8-2.41.06,0,.29,6.18.57.58.13-2.77-.5-4.74-1.57-7.28-.97-2.31-1.8-4.47-3.6-6.28-.81-.81-1.8-1.57-2.79-2.14-.41-.24-1.94-1.38-.92-.31l2.57,4.41c-.96-2.76-1.27-5.35-3.05-7.82-1.16-1.62-3.61-3.12-4.49-4.09l2.57,4.41c-.75-2.3-.99-4.65-2.19-6.82-.72-1-1.47-1.98-2.24-2.94-1.24-1.35-1.24-1.04.02.93v5.32c.96-5.69,1.51-10.28-2.71-14.85-2.18-2.37-4.37-4.68-6.06-8.11l1.37,5.05c-.92,2.7-1.02,3.18-.28,1.43.54-1.06.97-2.15,1.28-3.29.64-2.66.23-4.93-.58-7.48-.66-2.06-1.48-4.33-2.63-6.14-.72-1.03-1.51-2-2.36-2.93,1.46,3.01,1.77,2.84.96-.52-.14-2.13.29-3.94-.31-6.12-.04-.15-2.82-6.51-2.16-4.32-.82-2.71-.47-4.77-2.09-7.32-.62-1.08-1.41-1.99-2.39-2.73-2.45-2.05-2.68-2.11-.67-.16l1.37,5.05c-.25-3.22.34-6.72-1.5-9.62l-.6-1.39c-.15,2.29-.11,2.46.11.52.23-1.88.36-3.62-.15-5.52-.35-1.31-1.12-2.52-1.58-3.8.54,1.52-.2-.69-.24-1.47-.13-2.4-.05-4.66.21-7.02.34-3.05.18-5.86-1.41-8.6-.92-1.59-1.91-2.38-3.23-3.46-3.11-2.54-.58-.51.65,1.1l-.4-1.46c-.05,1.73.04,2.05.28.96.64-.63.62-3.5.61-4.38-.03-2.54-2.01-5.57-2.48-6.94v5.32c-1.53,2.28-1.73,2.68-.6,1.23.78-.87,1.47-1.81,2.06-2.82,1.46-2.69,1.7-5.49,1.17-8.47-.32-1.76-.69-3.57-1.25-5.27-.2-.61-4.13-9.01-2.25-3.42v5.32c-.19.96-.12.28.3-.39.62-.98,1.21-2.21,1.52-3.32.81-2.89.53-5.79-.66-8.52-.18-.41-1.1-3.34-.97-1.59.14,1.89.36-1.24.36-1.56-.02-2.73-.86-5.2-1.35-7.85v5.32c.63-3.9,2.35-7.69,2.51-11.66.07-1.76-.02-3.13.14-4.78.25-2.63.85-4.69.14-7.36-.2-1.04-.58-2.02-1.13-2.95-.74-1.56-.73-1.49.02.21.13-1.94,0-1.98-.42-.15.49-.71.88-1.48,1.16-2.3,1.99-4.69,0-8.46-.77-12.12v5.32c.66-2.4,2.3-5.19,2.16-8.56-.13-3.02-.64-6.06-1.03-9.05l-.36-2.66c-.9,2.79-.95,3.23-.15,1.33.96-1.84,1.63-4.09,1.63-6.17,0-1.63-.46-3.3-1.11-4.77-.24-.8-.63-1.51-1.17-2.14-1.82-2.58-2.05-2.72-.7-.42v5.32c.49-1.86,2.32-5.61,3.01-8.13,1.21-4.43-.72-7.28-1.36-10.7v5.32c.57-2.89,1.45-5.44,1.22-8.45-.16-2.14-1.14-3.89-1.43-5.96v5.32c-1.46,4.17.67.1,1.35-1.06.94-1.6,1.68-4.08,1.68-5.93,0-2.04-.64-4.17-1.52-5.97-.26-.52-.95-2.93-.69-1.38v5.32c1.01-4.59,3.19-9.26,2.33-14.03-.26-1.42-.49-3.64-.81-.99.1-.86.56-2.12.86-2.95.33-.94,1.76-3.84,1.99-5.7.27-2.21-.13-4.31-.43-6.5-.09-.64-.14-4.2-.85-4.41.58.17-1.86,5-.08,2.11,2.78-4.52,1.49-10.37,1.31-15.3l-1.37,5.05c-2.31,1.93-2.69,2.35-1.15,1.24.94-.69,1.87-1.41,2.79-2.13.99-.94,1.77-2.04,2.41-3.24,1.32-2.49,1.6-4.96,1.01-7.71-.34-1.6-1.45-3.65-1.65-4.73v5.32c-1.52,4.11.31.57,1.02-.58s1.32-2.39,1.65-3.69c.04-.16.73-6.85-.16-6.85.09,0-1.67,4.08-.25,1.34,2.9-5.6.79-10.76.41-16.15-.04-.53-.24-4.72-.46-2.66.05-.48,1.46-4.8.38-2.01-.97,2.51,1.36-1.36,1.7-1.94.71-1.23,1.05-2.67,1.5-4,1.04-3.07,1.87-6.13,1.01-9.38-.34-1.28-.87-2.47-1.58-3.59l-1.56-2.02c-1.13-1.47-.93-1.08.59,1.17v5.32l.29-.73-2.57,4.41c2.58-2.9,5.23-5.06,5.84-9.21.36-2.46-.16-4.98-1.37-7.15-.67-.98-1.38-1.93-2.14-2.84-1.19-1.44-1.1-1.06.28,1.14v5.32c.58-1.97,1.4-3.67,1.7-5.72.11-.78.39-4.64.1-3.95l-2.57,4.41c2.14-2.32,4.43-3.94,5.47-7.16s.96-7.16.37-10.41c-.02-.88-.22-1.71-.61-2.51-.95,3.25-.98,4.14-.11,2.67,1.25-1.06,1.72-3.75,1.93-5.36.28-2.16-.08-4.11-.83-6.1-.2-.52-1.39-4.09-1.15-2.59v5.32c.94-3.38,2.33-6.62,2.62-10.21.18-2.18-.06-4.09-.87-6.1-.16-.41-1.76-4.09-1.45-2.59v5.32c1.68-6.32,4.07-12.33,4.56-19,.15-1.96-.38-3.72-.35-5.68-.04,2.23.55-1.85.62-2.22.85-4.15-1.03-6.59-1.79-9.94v5.32c.44-1.59,1.97-5.01,2.34-7.45.28-1.87.53-3.61.37-5.49s-1.49-3.66-1.65-5.43c-.47-1.01-.32-.78.47.67l.11-1.51c.49-.85.75-2.44.94-3.35.84-4.11-1.1-6.66-1.95-9.88v5.32c.81-3.83,2.42-6.36,2.77-10.37.23-2.55-.14-4.87-1.41-7.13-.68-.94-1.38-1.87-2.11-2.78-1.19-1.39-1.07-.93.36,1.4v5.32c-.75,2.44-.43,1.46.75-.34.69-1.04,1.31-2.08,1.68-3.3.73-2.39.67-4.87.5-7.35-.37-5.25-2.78-7.62-5.81-11.54l2.57,4.41c.52,1.61.22-3.97-.38.15.22-1.55,1.35-3.1,1.7-4.68.46-2.08.27-3.98-.11-6.07-.09-.76-.25-1.51-.48-2.24.18,1.21.3,1.03.36-.56,1.55-6.18-2-13.02-3.37-18.87v5.32c.57-3.25,2.34-7.74,2.17-11.89s-1.72-8.34-2.53-12.29c-.3-1.45-.31-2.64-.49-4.07-.9,1.56-.96,1.54-.18-.07.71-1.1,1.1-2.28,1.17-3.55.62-3.01.23-5.91-1.38-8.57-.7-.99-1.46-1.93-2.27-2.84-.99-.89-1.1-1.04-.33-.44l1.37,5.05c-.33-4.31.69-7.52.05-12.26-.35-2.59-.6-4.94-1.97-7.24-.84-1.41-2.03-2.46-3.32-3.43-1.91-1.44-1.92-2.36-.43.3l1.37,5.05c-.43-3.35-.99-7.52-.82-9.94s.66-3.94-.03-6.47-3.06-4.11-3.87-6.43c1.09,3.11.85-2.16.83-2.51-.1-1.53-.2-3.1-.38-4.59-.49-4.15-2.04-10.18-6.79-11.64-1.71-1.1-1.04.1,2.02,3.6-.27-3.69-.51-3.54-.74.44,1.38-.46,1.78-6.14,1.75-7.06-.08-2.19-.79-4.21-1.93-6.06-.73-1.04-1.52-2.02-2.39-2.95.88,1.52.97,1.39.26-.39-.46-2.48-1.94-4.99-3.6-6.85l-.78-.92c.89,1.55.94,1.44.15-.31-.54-4.42-2.19-8.44-3.94-12.55l1.37,5.05c-.08-.8.36-3.43.26-5.03-.2-3.28-1.51-5.58-3.56-8.03-.85-1.02-1.79-2.25-2.99-3.4.11.11-4.61-3.49-3.6-2.34l2.57,4.41-.13-.94v5.32c.55-2.92,1.41-5.65.73-8.65-.38-1.7-1.01-3.13-1.97-4.6l-1.56-2.02c.68,2.41,1,2.9.96,1.49,1.34-2.3-2.06-7.76-3.44-9.14-.93-.94-1.96-1.66-3.11-2.27l-2.39-1.01c-1.69-.68-1.31-.39,1.13.89l2.57,4.41c.88,4.33.59.39.62-1.1.03-1.37-.09-2.8-.49-4.13-.55-1.81-1.61-3.13-2.69-4.63-2.25-3.12.61,2.23-1.16-1.9-1.19-2.79-2.22-5.3-4.76-7.13-2.36-1.71-4.68-1.98-7.28-2.96l4.41,2.57-.6-.52,2.57,4.41c-1.25-3.73-1.61-8.62-6.35-11.54-1.81-1.3-1.49-.77.98,1.58-.21-1.26-.63-2.45-1.27-3.57-.42-1.13-.5-1.67-1.12-3.2-1.56-3.86-3.81-7.61-6.62-10.69-1.79-1.96-3.39-3.39-5.96-4.24-.83-.27-3.6-1.6-1.96-.39l3.59,3.59c-.7-1.01-2.06-3.42-2.2-3.75-.63-1.5-.77-3.29-1.68-4.77-1.03-1.68-2.65-3.13-4.35-4.12.22.13-5.41-2.43-3.92-1.41l3.59,3.59c.72,3,.79,2.82.22-.54l-.22-1.02c-.74-2.43-2.07-4.42-4.03-6.01-1.37-1.11-2.76-1.84-4.51-2.31-1.02-.24-2.06-.39-3.11-.46-1.85-.22-1.38-.03,1.43.59l3.59,3.59c-.85-1.35-2.02-4.56-2.86-6.54-1.41-3.33-4.11-5.11-6.34-7.69-2.49-2.89-4.75-5.59-7.92-7.83-2.38-1.69-6.36-3.54-8.08-4.59l3.59,3.59c.17,1.03.09.91-.23-.35-.43-1.13-.89-2.24-1.38-3.35-.96-1.71-2.45-3.33-4.15-4.33s-3.86-1.59-5.79-1.65c-1.23-.01-2.45.11-3.66.38-1.93.25-1.5.28,1.31.09l5.98,4.6c-.63-.86-1.9-3.84-3.14-5.27-.97-1.11-4.96-4.92-6.85-4.22-1.35-.41-1,.15,1.03,1.67,2,2.59,2.21,2.39.64-.59-.56-1.06-1.19-2.03-2-2.94-1.2-1.36-2.53-2.68-3.9-3.86-2.35-2.02-5.35-3.34-8.5-3.27-.65.01-3.46-.01-.35.42,2.84.39.2-.44-.83-1.35-1.88-1.67-3.45-3.36-5.73-4.53-.9-.47-1.88-.78-2.78-1.25l-1.28-.78c-1.6-1.16-1.74-.99-.41.52,1.04,1.67,1.17,1.69.38.07-.21-.57-.46-1.13-.74-1.67-.57-1.01-1.3-2.01-2.12-2.84-.9-.91-1.94-1.6-3.04-2.21-.76-.42-4.4-1.8-2.74-.77-2.03-1.25-3.52-3.11-5.73-4.2-2.36-1.17-4.97-1.99-7.47-2.75-.5-.15-2.05-.69-2.41-.76-2.66-.53.01.46-.84-.33-1.77-1.67-3.29-3.13-5.38-4.51-4.92-3.23-8.92-3.07-14.53-2.15h5.32l-.93-.15,4.41,2.57c-.54-.45-1.93-2.25-2.85-3.21-.53-.57-.61-.48-.24.25-.26-.47-.56-.91-.89-1.33-3.51-4.18-5.89-5.43-11.18-6.29-.72-.12-4.67-1.15-4.6-.82,2.36,1.35,2.81,1.33,1.35-.06l-2.02-1.56c-3.82-2.52-7.61-1.48-10.96-1.83l5.05,1.37c-3.25-1.53-6.51-2.62-9.81-3.86s-5.23-3.97-8.98-5c-2.71-.75-5.29.64-7.75.13,2.82.59-.29-1.13-1.36-1.41-1.73-.46-3.59-.35-5.29-.71-.72-.21-1.45-.4-2.18-.57,2.88,2.49,3.16,2.41.83-.24-2.44-2.76-6.53-4.92-10.1-5.8-1.91-.47-4.58-.54-6.49,0-1.73.35-1.68.47.15.36-1.78-.62-1.95-.45-.52.49-1.41-.71-2.55-2.21-4.01-2.99-2.57-1.37-5.29-1.43-8.11-1.56-4.02-.18-6.98,1.15-10.58,2.71l5.05-1.37c-1.99.16-7.56-.8-10.08-2.18-1.65-.91-3.07-2.15-5.02-2.74-2.75-.83-5.05-.29-7.84-.19l5.05,1.37c-1.25-.54-3.47-2.38-5.4-3.06-3.53-1.24-5.47-.42-8.88.1-2.72.42-8.57-1.11-12.42-1.36-4.56-.3-8.92-.88-13.54-.93-2.27-.02-4.48-.62-6.77-.49-.97.06-2.09.19-3.03.29-1.33.15-5.96-.24-2.63.86l4.41,2.57c-2.66-2.1-4.59-4.6-8.11-5.48-4.22-1.05-7.92,1.1-11.38,2.03-.6.26-1.22.43-1.85.52-3.62.16-3.55.51.23,1.06-.2-.88-3.5-1.99-4.22-2.21-2.38-.73-4.75-.7-7.12.05-1.2.33-2.29.86-3.27,1.61-2.55,1.73-2.74,2.02-.57.89,1.96-.64,1.94-.88-.04-.71,1.62.69,1.65.63.07-.17-1.78-.9-3.41-1.18-5.26-1.66s-3.41-1.19-5.56-1.19c-1.13,0-6.16.78-6.69,2.09-.96.51-.68.58.82.2-1,.06-2,.14-3.01.24-1.06.12-6.22.71-6.66,2.11-.95.51-.66.61.89.3-1.38.18-2.76.37-4.14.55-1.98.26-3.96.5-5.94.77h5.32c2.17,1.5,2.52,1.68,1.02.55-.87-.81-1.83-1.5-2.87-2.06-1.73-.93-3.87-1.49-5.83-1.49s-4.15.76-5.89,1.79c.13-.08-4.5,3.66-3.14,2.96l5.05-1.37-.94-.1,5.05,1.37c-4.3-2.01-8.14-4.05-12.93-2.14-1.72.68-3.06,1.64-4.33,3.02-.8.86-1.48,1.81-2.04,2.84-.98,1.59-.47,1.29,1.53-.92l5.05-1.37c-2.42.04-4.88-.5-7.34.18-1.56.43-2.97,1.42-4.46,2-1.9.75,2,.05-1.35.22-4.2.21-8.86,2.83-12.39,4.89-1.65.96-1.5-.22.35.46-.74-.27-1.46-.54-2.23-.72-2.92-.68-5.98-.25-8.65,1.08-1.99.99-4.03,2.18-5.71,3.64-1.15.99-1.91,2.06-2.88,3.22-.39.46-1.66,1.48-.66.7,2.36-.98,4.71-1.95,7.07-2.93.9-.12.24.12-.61-.12-1.17-.32-2.58-.59-3.78-.59-2.89,0-5.4,1.22-7.94,2.42-4.52,2.14-6.61,5.14-8.2,9.76l2.57-4.41c1.99-1.07,2.01-1.27.06-.61-.59.28-1.21.44-1.84.49.53-.1-5.06.5-3.84.41-4.37.32-7.72,1.27-11.49,3.58-.64.39-3.52,3.08-3.85,2.92,3.29-1.09,3.81-1.61,1.54-1.55-1.28.14-2.55.32-3.82.56-4.05,1.21-6.13,4.54-8.53,7.71l3.59-3.59-.76.56,5.05-1.37c.87-.12.6.23-.42-.01-1.7-.4-3.35-.5-5.06-.36-2.81.22-4.86,1.5-7.16,3.03-.74.49-1.5.94-2.22,1.46-1.17.84-4.64,2.58-1.33,1.97,3.87-.71-.57-.29-1.04-.21-1.94.3-2.89.72-4.83,1.51-3.46,1.41-6.19,3.06-9.61,4.04-6.11,1.76-7.21,6.42-9.35,11.57l2.57-4.41-.54.58,4.41-2.57c3.08.06,2.92-.08-.47-.4-1.26-.16-2.51-.06-3.75.28-2.01.47-3.84,1.34-5.32,2.81-2.51,2.49-3.06,5.6-4.35,8.7l2.57-4.41-.53.58,4.41-2.57c-4.41,1.78-8.32,2.37-11.25,6.69-1.39,1.73-.89,1.32,1.48-1.22-1.25.21-2.44.64-3.56,1.27-1.51.65-2.99,1.38-4.49,2.04-1.61.71-3.37,1.28-4.86,2.22-2.33,1.47-3.16,3.56-5.12,5.3,2.82-2.51-3.57,2.11-3.7,2.23-1.08,1.02-2.34,3.39-2.73,3.83l4.41-2.57c.95-.35.27-.05-.56-.09-1.2-.05-2.64.07-3.78.39-2.84.78-5.07,2.47-6.85,4.75-1.3,1.67-2,2.33-3.14,4.19-.62,1.02-.98,2.14-1.47,3.23-.26.58-1.2,1.89-.41.83l3.59-3.59c-1.91,1.38-3.91,2.61-5.72,4.13-.32.27-2.22,1.62-2.22,1.99,0-.46,6.92-2.61-.22-.76-5.58,1.44-7.02,5.77-9.43,9.46l3.59-3.59c-1.03.57-3.95,1.39-5.56,2.56-2.21,1.6-4.64,3.34-6.09,5.68-1.02,1.65-1.61,3.87-2.24,5.15-.35.72-.99,1.43-1.38,2.09-.18.3-2.83,2.3-.14.68-2.25,1.36-4.62,1.68-6.59,3.65-1.79,1.79-3.09,4.33-4.52,6.42-2.77,4.05-3.65,7.63-6.06,11.45l3.59-3.59c2.64-.61,3.01-.81,1.1-.6l-2.66.36c-1.45.33-2.78.85-4.04,1.65-2.95,1.88-4.99,5.34-6.54,8.42s-2.14,3.97-3.85,6.95c-.42.73-2.14,3.77-1.77,4.57-.34-.75,4.17-3.98.52-1.63s-5.73,5.99-5.82,10.21l.11,1.13c.27,3.71.52,3.54.74-.51-.24-.05-2.03,3.72-2.13,3.93-1.17,2.31-2.35,4.55-3.88,6.64-2.73,3.74-3.42,5.92-4.63,10.32l2.57-4.41c2.51-2.59,2.59-1.68.39-.99-2.04.64-3.88,1.64-5.39,3.17-3.18,3.21-2.57,6.51-3.19,9.47l2.57-4.41c-2.03,2.51-5.35,4.76-6.28,8.9-.47,2.08-.11,3.35-.26,4.4-.26.71-.46,1.43-.61,2.18.92-1.44.85-1.53-.22-.28-3.11,3.02-3.21,7.28-3.46,10.1-.15,1.65-.29,3.37-.51,4.98.85-1.79.82-1.79-.09-.02-.3.68-.6,1.37-.9,2.06-.24.52-2.28,4.21-1.21,2.88-1.11,1.38-2.02,1.67-3.12,3.41-2.04,3.24-1.62,6.08-1.61,9.4-.98,4.05-.16,3.67,2.43-1.15l-.83.54c-1.91,1.12-3.62,2.9-4.67,4.83s-1.4,3.88-1.36,5.98c0,1.29.23,2.52.72,3.69,1.15,3.07,1.32,3.19.5.37l1.37-5.05c-1.01,2.24-2.59,3.96-3.27,6.42-.31,1.14-.45,2.59-.44,3.8,0-.8.19,4.55.26,3.54l1.37-5.05c1.9-1.74,2.32-2.23,1.25-1.48-.86.56-1.67,1.17-2.44,1.84-.96.88-1.78,1.82-2.44,2.96-1.84,3.16-1.46,6.51-1.72,9.97l1.37-5.05c-1.38,3.14-3.58,5.42-3.66,9.13-.08,3.45,1.61,6.11,2.97,9.09l-1.37-5.05c-.1-1.09,1.02-2.88-.21-1.03-.88,1.33-1.38,3.23-1.6,4.78-.3,2.1.88,5.21.96,6.14l1.37-5.05c1.96-1.71,2.41-2.16,1.37-1.36-.82.61-1.63,1.23-2.43,1.86-.81.78-1.65,1.69-2.22,2.66-1.03,1.76-1.61,3.71-1.71,5.74l-.02,1.52c.26,3.09.4,3.55.4,1.39.28-1.4.18-1.66-.3-.76-.64.86-1.09,1.83-1.35,2.9-.47,1.38-.76,2.67-.74,4.19.05,3.23,1.58,5.67,2.82,8.49l-1.37-5.05.09.93,1.37-5.05c2.02-1.79,2.3-2.13.85-1.01-.98.65-1.88,1.38-2.71,2.21-1.31,1.39-2.41,3.28-2.92,5.11s-.37,4.44.12,6.25c.43,1.16.93,2.29,1.51,3.38.77,1.15.85,1.33.25.54l1.01-7.71c.48-1.13-.49.71-.92,1.23-1.29,1.52-2.38,3.32-2.93,5.27-.76,2.7-.57,5.88-.73,8.66-.17,2.99-1.08,5.91-.88,8.95.08,1.27.44,2.45.64,3.66.11,1.08.24,2.16.42,3.23.39,1.71.64,1.57.75-.44,1.71-3.57-.97.91-1.26,1.83-.52,1.68-.74,3.49-.74,5.25,0,3.08,1.21-1.19-.45,1.16-.82,1.16-1.15,2.88-1.53,4.22-.86,3.02-1.3,6.19-1.39,9.33-.1,3.41,1.43,6.08,2,8.8v-5.32c.35-.96-1.51,2.22-1.42,2.03-.74,1.58-1.25,3.16-1.25,4.95,0,2.38,1.59,5.84,1.85,7.26v-5.32c-.54,1.64-2.42,4.35-2.47,7.02-.02,1.14-.06,3.9.71,4.37.29,1.1.44.75.47-1.04.54-1.96.4-2.14-.42-.53-1.72,2.54-2.03,6.34-1.25,9.19.36,1.33.95,2.43,1.68,3.55l1.56,2.02c1.2,1.41,1.1.98-.29-1.3v-5.32l-.27.74,2.57-4.41c-1.46,1.7-3.22,2.9-4.38,4.89-1.45,2.47-1.63,5.24-1.66,8.03-.03,2.49-.55,5.01-.41,7.48.13,2.29.64,4.46.72,6.76.09,2.46.45,5.03.22,7.49s-1.34,4.84-1.39,7.46c-.1,5.04,2.27,9.81,2.61,13.9-.01-.16.03,2.01-.06,1.83-.21,1.75.12,1.04,1-2.13l-1.56,2.02c-1.84,2.75-2.15,5.13-2.42,8.34-.23,2.79-.16,5.35.95,7.97.52,1.22,1.17,3.48.79.99.18,1.21.02,2.51.13,3.74.22,2.35.69,4.36.47,6.72-.26,2.84-1.15,5.7-.49,8.66.3,1.34.58,3.08,1.51,4.06.4.95.38.73-.04-.69-.35-2.12-.57-1.64-.65,1.42-.18,3.13.9,5.68,1.63,8.6v-5.32c-.73,3.08-2.48,5.88-1.79,9.86.52,2.99,1.3,5.92,1.79,8.91v-5.32c.33-1.5-.66.91-.85,1.27-.77,1.48-1.2,2.97-1.38,4.62-.32,2.92-.23,5.9-.45,8.83s.26,5.8.75,8.63c.25,1.47.54,3.01.9,4.45.08.34,1.02,3.99.82,2.55.21,1.53-.77,5.7.59,8.72.27.84.68,1.6,1.23,2.29l-.19-1.35c-.11,1.96.16,1.99.81.09,1.16-2.11.87-1.91-.87.62-4.39,6.69-1.14,12.12,3.37,17.43l-2.57-4.41v-1.42c-.21,1.13-.35,2.27-.4,3.41-.11,1.04-.33,3.13-.37,3.76-.17,3.12.91,5.69,1.63,8.6v-5.32c-.09.49-1.11,3.11-1.42,4.55-.59,2.73-.05,4.94.59,7.54.89,3.63,1.42,7.46,2.11,11.15v-5.32l-.19.65,2.57-4.41c-2.19,2.8-4.87,4.3-5.91,8.07-.62,2.25-.52,4.33.19,6.53.31,1.22.85,2.31,1.63,3.26,1.85,2.63,2.06,2.72.63.25v-5.32c-.5,2.82-2.37,6.32-1.25,10.3-.04-.15,2.91,6.39,3.34,5.73l-1.52-4.07c-.53,3.23-.51,3.54.07.93-2.16,3.04-3.3,6.72-2.4,10.44s2.72,5.34,3.55,8.89v-5.32c-.41,2.4-1.39,4.69-1.39,7.17s.85,4.78,1.21,7.13v-5.32c-.6,3.4-1.68,6.3-1.06,9.83.13.73.29,2.63.62,3.32l.06,1.5c1.62-3.13,1.77-3.74.44-1.86-2.29,2.48-3.3,5.88-2.92,9.19.18,1.6.63,3.2,1.43,4.61.21.38,1.54,2.88,1.08,1.19v-5.32c-.64,2.72-2.64,6.05-1.72,9.81.35,1.41.99,2.68,1.78,3.89l1.56,2.02c1.19,1.39,1.07.92-.37-1.41v-5.32l-.21.64,2.57-4.41c-2.68,3.16-5.78,4.92-6.34,9.57-.66,5.53,2.77,8.42,6.01,12.17l-2.57-4.41.26.75v-5.32l-.31.89,2.57-4.41c-2.36,2.91-4.83,5.36-5.36,9.3-.29,2.16.07,4.12.93,6.08.24.77.61,1.47,1.11,2.1,1.87,2.6,2.06,2.71.57.33v-5.32c1.25-2.07,1.31-2.32.17-.74-.5.61-.96,1.24-1.4,1.9-1.09,1.89-1.45,3.8-1.64,5.94-.27,3.08.25,5.77.42,8.81.15,2.58-.46,5.06-.65,7.63-.25,3.28.94,5.63,1.41,8.7v-5.32c-.66,2.52-2.76,6.68-3.07,10.15-.23,2.54.13,4.88,1.4,7.14.7.95,1.42,1.88,2.15,2.81,1.22,1.41,1.14.99-.22-1.27v-5.32c-.67,3.59-1.68,7.14-1.91,10.81-.04.71.24,5.79.32,4.5.05-.8-.86,2.77-1.11,3.41l2.57-4.41c-2.65,3.11-5.54,6.02-5.54,10.43,0,1.93.61,4.14,1.53,5.82.61,1,1.3,1.94,2.08,2.83,1.15,1.45.98,1.05-.51-1.2v-5.32c1.53-4.28-.55-.22-1.25.98-.8,1.37-1.31,3.03-1.5,4.59-.41,3.25,1.33,6.24,1.74,8.68v-5.32c-1.18,3.96-2.52,7.51-3.87,10.69s-.98,5.75-.8,9.11c.03.62-.15,1.27-.11,1.9.13,2.29.61.08-.36,2s-1.46,4.17-1.9,6.26c-.35,1.64-.55,3.24-.47,4.91l.36,2.66.13-1.8c-2.55,5.92-1.48,9.76.97,15.46l-1.37-5.05.08.93,1.37-5.05c-.66,1.41-2.82,4.24-3.66,6.44-1.16,3.01-2.16,5.93-1.65,9.19.07.46,1.09,5.17,1.53,4.72.49-.5.21-7.28-1.68-1.78-1.09,3.17-.28,6.42-.34,8.64l1.37-5.05-.43.66,3.59-3.59c-2.76,1.93-5.53,2.92-7.4,6.07-2.29,3.84-.93,7.12-1.02,10.21l1.37-5.05c-1.3,2.46-3.55,5.35-4.16,9.08-.48,2.91-.28,7.33-.47,9.16l1.37-5.05c-1.02,2.32-3.9,6.18-3.44,8.75.26,1.44,1.39-1.18-.08.6-.98,1.2-1.8,2.5-2.73,3.72l3.59-3.59c-3.2,2.4-6.55,4.29-7.7,8.47-1.02,3.7.33,6.63,1.15,10.14v-5.32l-.12.78,2.57-4.41-.49.46,4.41-2.57c-4.2,1.55-8.52,1.77-11.1,6.17-.93,1.59-1.25,3.08-1.53,4.82-.12.65-.19,1.3-.22,1.96-.09,1.09-.03.84.18-.74.08.25-.92,2.69.43.59-.68,1.05-2.55,1.7-3.46,2.61-1.8,1.78-3.44,4.55-3.67,7.12.06-.7-.07,1.31-.61,1.11,1.07.38,7.46-3.03.52-1.25-2.97.76-5.74,2.48-7.36,5.16-.59.97-1.15,2.13-1.46,3.21-.18.79-.32,1.58-.39,2.38-.32,2.03-.21,1.78.34-.75-2.91,4.86-.85,10.68,3.59,13.68,5.3,3.58,11.37,1.47,16.54,1.67,1.69.07,3.68.16,5.34-.37,3.48-1.12-4.06-2.06-.96-.09,4.38,2.8,8.81,1.1,13.45.46h-5.32l.86.32c-1.47-.86-2.94-1.71-4.41-2.57,3.67,2.97,6.81,5.81,11.88,5.25,2.05-.23,3.82-.91,5.56-2.04,2.92-2.05,2.68-2.11-.71-.18,1.64.04,2.01.05,1.1.04l-4.41-2.57c2.38,2.11,3.98,4.43,7.25,5.43s6.26.07,9.49-.16c6.59-.47,12.89-.91,19.38-1.91h-5.32c1.94.27,3.86.71,5.81.9.68.07,4.77.24,3.94-.05l-4.41-2.57c1.66,1.37,2.98,3.13,4.88,4.24,1.68.98,3.86,1.56,5.79,1.63,1,.03,6.55-.34,2.94-.72-3.26-.34,2.03,1.2,2.27,1.28,1.68.53,3.37.64,5.11.46,1.63-.17,3.18-.6,4.63-1.39.4-.22,2.93-1.36,1.36-1.01h-5.32c1.94.27,3.86.73,5.82.9.94.21,1.88.24,2.84.1,3.13-.32,3.55-.43,1.27-.33l-4.41-2.57c2.88,2.35,5.33,4.78,9.22,5.31,2.15.3,4.11-.08,6.1-.87.42-.17,4.1-1.62,2.54-1.3h-5.32c6,1.39,12.75,3.04,18.97,2.29,3.28-.4,5.95-1.56,9.07-2.31-2.93.7.94.4,1.8.43,1.02.03,3.99,1.01,2.58.48l-4.41-2.57c2.62,2.33,4.35,4.85,8.03,5.79,2.03.52,4.23.36,6.23-.21-.26.07,5.47-2.44,3.73-2.03h-5.32c3.32.83,6.6,1.89,10.12,2.14,3.28.24,5.67-.95,8.74-1.41h-5.32c.82.27,2.86,1.81,4.43,2.19,2.41.58,4.41,0,6.83-.09,1.1-.04,2.29.2,3.38.27,1,.1,2,.14,3.01.11,1.7.18,1.99.06.85-.35-1.02-.47-.87-.41.45.19,1.1.63,2.27,1.05,3.51,1.26,2.14.48,4.35.39,6.46-.26,3.01-.93,4.78-2.24,8.02-2.75h-5.32c1.7.47,4.54,2.22,7.11,2.22,1.66,0,3.33-.59,4.94-.82.9-.25,1.02-.3.36-.14-1.27.24-.52.39,2.26.45-1.42-.46-1.34-.32-.2.42,1.37.89,3.22,1.32,4.84,1.5,1.71.2,3.46.1,5.13-.4.48-.15,4.63-1.64,2.91-1.32-1.99.38,2.17-.19,2.4-.21.91-.08,2.17.16,3.02-.17-1.48-.71-1.73-.83-.74-.36.57.28,1.16.54,1.75.77,1.66.64,3.2.92,4.97,1.12,2.78.31,5.58.56,8.31-.24,1.23-.36,2.32-1.2,3.53-1.57-3.34,1.03.55.43,0,.23l-4.41-2.57c2.53,2.09,4.68,4.36,7.98,5.26s6.98.59,10.21.48c6.18-.21,11.67-2.45,17.72-3.38h-5.32l.77.23-4.41-2.57c2.7,2.09,4.72,4.59,8.19,5.52,2.57.69,5.17.27,7.54-.8,2.6-1.18,1.24-.51,3.95-2.09,3.05-1.78,6.66-5.68,7.73-9.55.53-1.92.52-4.4.03-6.3-.45-1.07-.9-2.14-1.35-3.21-.92-1.48-.92-.89,0,1.77l-1.37,5.05.54-1.01-3.59,3.59c3.87-2.81,6.9-4.94,7.96-9.96.72-3.41.48-2.84.69-5.83.28-1.33.21-2.66-.19-3.99-.37-1.05-.29-1.26.22-.63l-1.37,5.05c-2.29,1.96-2.15,1.92.41-.13l.7-.63c1.79-1.88,2.82-4.24,3.24-6.76.31-1.86.25-3.52-.29-5.37-.35-.94-.74-1.88-1.16-2.79-.87-1.49-.83-.89.14,1.81l-1.37,5.05c.87-1.96,3.24-5.42,4.01-8.55.4-1.62.78-3.14.89-4.83.26-1.33.19-2.66-.21-3.99-.32-1.58-.21-1.32.31.77l-2.57,4.41c3.35-4.1,4.36-7.91,5.66-12.86.6-2.3.82-4.75,1.44-7,.16-.58.37-1.22.05-.32-.13.36,1.95-4.08,1.58-3.01.31-.88.51-1.65.69-2.57,1.29-6.67-.04-1.07-1.17-.79,1.87-.46,3.38-5.27,3.84-6.23.94-1.93,2.31-4.72,2.31-7.52,0-3.36-1.47-5.48-2.78-8.32l1.37,5.05.02-1.14-1.37,5.05c-.71.52-.64.46.2-.18.82-.81,1.55-1.7,2.19-2.68,1.1-1.8,1.77-3.97,1.82-6.07.1-3.71-1.78-6.01-3.15-9.15l1.37,5.05.03-.98-1.37,5.05c-2.02,1.67-2.25,1.88-.67.64.61-.42,1.17-.89,1.69-1.42,1.17-1.2,1.98-2.68,2.55-4.24.78-2.12,2.02-9.22-.7-10.91,1,.62-.04,5.59,1.1,2.28.74-2.15-4.26,3.39-1.76,1.9,3.85-2.3,4.97-5.99,5.52-10.15s-3.45-8.96-7.34-9.64-7.88-1.7-11.85-2.45c-1.97-.37-4-.63-5.95-1.11-1.82-.45-4.69-2.2-6.51-1.96-1.67.22.91.93-.22.32s-1.93-1.6-3.01-2.21c-1.82-1.03-3.82-2.07-5.79-2.79-2.57-.94-5.29-1.18-7.97-.43-.44.13-2.75,1.1-.67.46,1.37,0,1.23-.08-.41-.22-1.73-.32-1.77-.24-.11.24l3.59,3.59c-2.99-4.36-6.22-7.9-11.33-9.8-1.42-.53-3.52-1.24-5-1.03-1.33.19-1.46.46.03.74-1.21-.23-2.66-1.52-3.83-1.99-1.9-.76-3.27-.8-5.34-1.24-.6-.13-1.19-.57-1.84-.67-3.97-.63.49.85-.85.02-2.08-1.28-3.89-2.86-6.07-4.03-2.54-1.36-4.63-3.52-7.45-4.33-1.11-.32-2.43-.56-3.57-.57-.81.03-1.61.12-2.4.25-2.06.21-1.77.28.88.2l4.41,2.57c1.1.99-.51-.93-.74-1.28-.91-1.37-1.96-2.45-3.26-3.43-2.31-1.74-5-3.12-7.47-4.66-1.24-.77-2.52-1.33-3.82-2-1.98-1.03-.1.38-1.75-1.34-2.24-2.34-5.67-3.23-7.59-4.15l3.59,3.59c.16.98.09.8-.19-.55-.36-1.18-.81-2.33-1.35-3.44-1.46-2.59-3.72-4.45-6.54-5.35-1.78-.57-3.56-.77-5.4-.5-1.76.14-1.4.25,1.09.32-.86-.54-1.69-1.13-2.49-1.75l3.59,3.59c.68,2.6.95,2.94.81,1.02-.16-1.22-.33-2.45-.49-3.67-.74-2.7-2.6-5.24-4.99-6.68-1.97-1.19-4.24-1.68-6.52-1.65-1.21.16-2.42.32-3.63.48.96-.06.9-.09-.16-.09l5.05,1.37c.93.41-1.58-1.96-1.69-2.08-.31-.32-2.43-2.58-2.06-1.86l1.37,5.05c-.51-4.76-.28-8.74-4.01-12.35-3-2.91-7.21-5.86-10.3-7.97.02.01-1.64-1.22-1.85-1.36.11.07-3.24-2.08-1.74-.78,1.24,1.07-1.14-1.63-1.29-2.01.22.54.18-1.13.13-1.28-1.99-5.69-5.91-7.59-11.14-9.71l4.41,2.57c-.8-.63-2.44-4.76-3.01-6.02-1.35-2.98-2.61-5.55-4.81-8.01-1.64-1.83-3.14-3.99-4.87-5.72-2.36-2.36-5.36-3.13-8.36-4.25,1.47.86,2.94,1.71,4.41,2.57,1.13,2.01,1.43,2.14.9.38-.48-1.15-.97-2.3-1.45-3.45-.68-1.65-1.3-3.29-2.18-4.85-1.85-3.27-4.37-5.71-6.62-8.62l2.57,4.41c-.84-2.73-1.27-8.03-3.28-11.46-1.04-1.78-3.12-4.03-5.04-4.84-1.45-.92-1.27-.62.53.91-.66-1.09-1.47-2.03-2.45-2.83.04.79-.22.46-.77-.99-1.19-2.29-1.35-1.61-.47,2.05,1.14-1.03.23-6.2-.1-7.29-.83-2.74-2.71-5.05-5.11-6.56-1-.61-2.06-1.09-3.18-1.46-1.68-.72-1.26-.46,1.25.77l2.57,4.41c-.04-.18-.15-3.36-.57-4.73-.79-2.54-2.23-3.67-3.73-5.74-.73-.75-.71-.48.06.81-.09-1.03-.31-2.04-.64-3.02-.72-2.23-1.98-4.34-2.98-6.46l1.37,5.05c.11.94-.13.42.14-.48.34-1.15.6-2.55.6-3.74,0-2.93-1.22-5.42-2.37-8.04-1.72-3.94-4.09-6.11-5.91-9.76l1.37,5.05c-.23-3.63,1.11-6.98-1.48-11-1.58-2.44-3.98-4.49-5.16-6.53l1.37,5.05c-.04-1.05.67-4.29.39-6.27s-.96-4.01-1.35-6.04c-.52-2.69-.68-4.92-2.18-7.31s-4.09-3.84-6.35-5.57l3.59,3.59-.52-.78,1.37,5.05c-.03-.6.56-4.29.24-6.14-.46-2.61-1.7-4.51-2.92-6.8-2.14-4-2.38-8.7-3.73-12.99-.54-1.7-.1-1.48-.36.04.23-1.3.66-2.54.7-3.88.09-2.9-.83-5.2-1.88-7.83-.5-1.26-1.25-2.7-1.6-4.01.36,1.35.1,0,.07-.77-.07-1.65-.2-3.3-.72-4.87-.42-1.29-.8-4.51-1.09-1.77l-1.37,5.05c1.78-3.79,3.72-7.28,2.63-11.63-.15-.6-1.92-4.58-2.11-4.47-.05,3.67.17,4.38.69,2.11.24-1.26.38-2.52.43-3.8-.08-3-1.42-5.79-1.88-8.74-.6-3.87-.91-7.65-1.55-11.5-.53-3.2-1.27-6.36-1.98-9.52-.1-.45-1.25-5.23-1.01-5.15.45.15-1.58,4.9.43,1.02,3.75-7.24-.26-15.71-1.68-21.87v5.32c.6-2.92,2.63-6.17,1.46-10.22-1.04-3.61-3.41-5.12-5.69-7.68l2.57,4.41-.27-.74v5.32c.66-4.02,1.64-7.61,1.72-11.82.24-12.87-19.76-12.88-20,0Z"/>
  </g>
  <path d="M710.25,257.24c3.87,5.55,5.44,11.62,8.74,17.55,1.73,3.11,2.65,7.25,5.12,9.85,2.59,2.72,5.75,3.1,9.01,4.41l-4.41-2.57.6.55-2.57-4.41c.12-2.56.07-2.82-.15-.79-.14.81-.22,1.62-.24,2.44.02,1.89.64,4.34,1.6,5.99.8,1.38,2,2.54,3.24,3.51.41.32,3.71,2.94,2.41,1.33-1.47-1.8.71,1.85.91,2.25.56,1.06,1.16,2.18,1.59,3.3,1.05,2.77.57,4.82,1.25,8.06,1.11,5.29,7.33,8.35,12.3,6.98,5.48-1.51,8.09-7,6.98-12.3-.25-1.21-.32-4.48-.89-6.49-.82-2.9-1.9-5.56-3.26-8.25-1.12-2.23-2.26-4.51-3.77-6.5-.98-1.29-2.08-2.41-3.46-3.28-.33-.21-2.64-1.83-1.6-.72l2.57,4.41c-.11,3,0,2.82.34-.55.13-1.26.03-2.52-.3-3.76-.47-2.02-1.34-3.85-2.82-5.35-2.57-2.61-5.78-3.13-9-4.42l4.41,2.57-.6-.55,2.57,4.41c-1.15-2.74-2.07-5.5-3.45-8.16-.92-1.78-2.54-3.77-3.22-5.51-1.98-5.06-3.44-9.51-6.63-14.09s-8.76-6.47-13.68-3.59c-4.38,2.56-6.69,9.23-3.59,13.68h0Z"/>
  <path d="M688.42,294.08c1.51,3.21,2.91,6.19,6.14,8.02,2.08,1.18,3.69,1.35,6,1.63.52.07,1.04.13,1.56.18-1.37-.25-1.58-.21-.64.1l-4.41-2.57.37.33-2.57-4.41c-.12-.37.53-4.87-.16-2.61-.27.9-.38,1.92-.49,2.84-.32,2.61.04,5.21,1.39,7.53,1.02,1.74,2.59,2.9,3.85,4.4-.81-.97,0,.22.28.72.36.69.68,1.28,1.15,1.91,3.24,4.31,8.64,6.54,13.68,3.59,4.25-2.49,6.85-9.34,3.59-13.68-.9-1.2-1.42-2.61-2.25-3.86-1.3-1.96-3.09-3.43-4.59-5.2l2.57,4.41c-.33,3.53-.33,4.54,0,3.04.09-.39.19-.78.29-1.17.25-1.22.49-2.48.49-3.72,0-3.15-1.23-6.06-3.47-8.26s-5.23-2.92-8.32-3.29c-4.63-.56,3.88.24,4.22,2.99-.12-.93-1.03-2.17-1.42-3-2.3-4.88-9.31-6.14-13.68-3.59-5,2.93-5.9,8.78-3.59,13.68h0Z"/>
  <path d="M662.57,314.4c1.81,3.16,3.62,6.31,5.45,9.45,2.63,4.52,9.15,6.51,13.68,3.59,4.56-2.94,6.41-8.84,3.59-13.68-1.83-3.14-3.64-6.29-5.45-9.45-2.6-4.54-9.17-6.5-13.68-3.59s-6.37,8.82-3.59,13.68h0Z"/>
  <path d="M274.33,242.38c-1.68,2.6-3.11,5.11-4.35,7.96-1.11,2.55-1.26,5.57-1.92,7.68l2.57-4.41c-1.07,1.2-2.38,2.08-3.46,3.28-.93,1.02-1.71,2.14-2.34,3.36-1.35,2.09-.8,1.97,1.65-.37-.79-.5-5.04,2.68-5.42,3.03-1.79,1.64-2.99,3.6-3.57,5.98-.28,1.24-.4,2.48-.37,3.74.04,1.72.15,1.52.33-.59-.7.83-1.05,1.5-1.77,2.29-1.78,1.97-3.34,3.46-4.26,6.11-.53,1.53-.72,3.11-1.3,4.62l2.57-4.41c.96-1.05-1.08.61-1.35.79-1.64,1.09-3.22,2.58-4.22,4.29s-1.55,4.03-1.6,5.98l.08,1.11c.32,3.36.45,3.55.39.56l2.57-4.41c2.23-1.18,2.74-1.53,1.51-1.07-.99.33-1.95.72-2.88,1.18-1.27.68-2.43,1.52-3.43,2.56-2.83,2.93-2.42,6.52-3.14,9.39-3.14,12.48,16.14,17.81,19.29,5.32.39-1.53.37-4.2.57-4.98l-2.57,4.41c-2.39,1.26-2.73,1.56-1.03.9l2.39-1.01c1.71-.9,3.08-2.02,4.22-3.57,1.29-1.74,1.96-3.54,2.2-5.67.2-.81.23-1.62.1-2.44-.32-3.36-.45-3.55-.39-.55l-2.57,4.41c-.94,1.05,1.05-.59,1.35-.79,1.35-.91,2.5-1.95,3.45-3.28,1.81-2.54,2-5.22,3.09-8.02l-2.57,4.41c2.28-2.76,4.76-4.83,6.59-8.04.85-1.48,1.67-2.95,2.11-4.62-.1.37.86-6.2.23-4.22l-2.57,4.41c-3.05,2.81.66.27,1.83-.41,1.71-1.01,3.22-2.6,4.3-4.24,1.39-2.1,2.03-3.08,3.77-4.88,3.04-3.14,3.02-6.08,3.7-10.04-.45,2.6.34-.47,1.02-1.74.72-1.35,1.66-2.65,2.49-3.94,7.02-10.83-10.28-20.87-17.27-10.09h0Z"/>
  <path d="M242.5,235.5c-.48,1.24-.52,2.44-.78,3.75-.49,2.49-.32-.1-.23-.16-1.3.87-2.63,3.6-3.56,4.9-.36.5-1.17.84-1.42,1.41.17-.4,2.8-.98.44-.34-2.81.77-5.18,2.15-7.02,4.44-1.33,1.65-2.32,3.62-3.33,5.48-.46.84-1.56,2.49-1.5,3.45-.41,1.03-.21.79.6-.73,1.1-1.26,1.19-1.6.26-1.02-1.63-.25-4.77,4.13-5.45,5.21-1.15,1.82-1.98,2.96-3.52,4.54-8.96,9.25,5.17,23.41,14.14,14.14,1.82-1.88,3.72-3.67,5.14-5.9.19-.3,1.84-2.84.71-1.52-1.6,1.89,3.85-2.59,2.74-1.59,3.57-3.21,4.41-7.23,6.7-10.96l-3.59,3.59c-1.11.78,1.24-.27,1.64-.4,1.14-.38,2.16-.92,3.15-1.55,2.87-1.83,5.09-4.89,7.12-7.55,1.52-1.99,3.16-3.98,4.45-6.12,1.42-2.35,1.98-6.17,2.6-7.75,1.95-5.04-2.15-10.97-6.98-12.3-5.65-1.55-10.34,1.93-12.3,6.98h0Z"/>
</svg>