<?xml version="1.0" encoding="UTF-8"?>
<svg id="_レイヤー_2" data-name="レイヤー 2" xmlns="http://www.w3.org/2000/svg" viewBox="0 0 1000 1000">
  <defs>
    <style>
      .cls-1 {
        fill: #fff;
      }
    </style>
  </defs>
  <g>
    <path d="M323.39,119.48c-1.27.8-1.86,2.68-3.12,3.49s-1.81,2.73-3.07,3.54-3.03.83-4.28,1.65-3.46.21-4.71,1.04-1.99,2.44-3.23,3.28-2.58,1.55-3.81,2.4-2.93,1.05-4.16,1.91-1.19,3.51-2.41,4.38-2.95,1.04-4.16,1.93-2.95,1.06-4.15,1.96-2.11,2.2-3.3,3.11-2.24,2.01-3.42,2.94-1.23,3.26-2.4,4.2-2,2.26-3.16,3.22-3.66.28-4.8,1.25-2.15,2.11-3.28,3.09-3.21.91-4.33,1.9-.3,4.13-1.41,5.14-3.56.57-4.65,1.61-.53,3.75-1.6,4.8-3.07,1.14-4.12,2.21-3.16,1.12-4.2,2.2-.79,3.37-1.81,4.47-2.23,2.01-3.22,3.13-2.46,1.83-3.44,2.97-.37,3.59-1.32,4.74-4.18.47-5.11,1.65-.13,3.69-1.04,4.88-1.28,2.74-2.17,3.96-2.41,1.93-3.27,3.16-1.99,2.26-2.82,3.51-2.31,2.07-3.11,3.34c-.81,1.28-2.31,2.13-3.1,3.41s-2.01,2.33-2.78,3.63,1.01,4.09.25,5.39-3.83,1.3-4.56,2.62-1.63,2.57-2.34,3.9-1.11,2.85-1.81,4.18,1.32,4.07.64,5.41-1.98,2.36-2.64,3.72-3.78,1.53-4.42,2.9.03,3.35-.59,4.73-1.36,2.7-1.97,4.08-.31,3.15-.9,4.54-2.94,2.05-3.52,3.44.37,3.4-.19,4.81-.88,2.89-1.41,4.3-.08,3.17-.59,4.59-.83,2.88-1.32,4.31-3.42,2.01-3.9,3.44-.74,2.94-1.2,4.38-1.64,2.66-2.09,4.1-1.27,2.79-1.69,4.24,1.99,3.7,1.58,5.16-.35,3.01-.73,4.47-2.22,2.53-2.58,4,.72,3.27.38,4.74-2.48,2.52-2.8,3.99-.95,2.88-1.26,4.36-1.94,2.7-2.23,4.18,1.04,3.28.77,4.76,1.23,3.27.97,4.76-.32,2.98-.55,4.47-3.4,2.54-3.61,4.03-1.1,2.91-1.29,4.41,3.17,3.43,2.99,4.93-1.82,2.82-1.98,4.32-.73,2.96-.87,4.46-1.02,2.95-1.13,4.45-.21,3.02-.31,4.53-1,2.98-1.08,4.49,1.71,3.11,1.65,4.62.13,3.02.09,4.53.62,3.02.59,4.53.58,3,.58,4.51-.32,3-.31,4.51-.08,3-.04,4.51-3.1,3.12-3.04,4.62,2.98,2.9,3.05,4.4.61,2.97.7,4.48-2.97,3.23-2.86,4.74,3.81,2.71,3.94,4.22-.88,3.1-.73,4.6-.37,3.07-.2,4.57.44,2.9.63,4.4c2.11.71,2.2.41,4.43.44s2.2,1.75,4.43,1.79,2.28-2.89,4.51-2.86,2.22.67,4.45.71,2.22.74,4.45.78,2.26-2.06,4.49-2.02,2.18,3.04,4.41,3.07,2.24-.42,4.47-.39,2.25-1.05,4.48-1.01,2.24-.46,4.47-.42,2.24-.53,4.47-.49,2.19,2.46,4.42,2.5,2.23.23,4.46.27,2.24-.54,4.47-.5,2.21,1.17,4.44,1.21,2.26-1.71,4.49-1.67,2.26-1.94,4.49-1.9,2.18,3.4,4.41,3.43,2.27-2.14,4.5-2.1,2.24-.23,4.47-.2,2.23.1,4.46.13,2.25-.89,4.48-.85,2.2,1.99,4.43,2.02,2.23-.09,4.47-.05,2.24-.13,4.47-.09,2.23-.12,4.47-.08,2.24-.55,4.47-.51,2.25-1.01,4.48-.97,2.19,2.71,4.42,2.75,2.22.6,4.45.64,2.24-.12,4.47-.08,2.22.43,4.46.47,2.26-1.49,4.49-1.45,2.22,1.05,4.45,1.09,2.25-1.02,4.48-.98,2.27-1.94,4.5-1.9,2.2,1.72,4.44,1.76,2.25-1.2,4.49-1.16,2.21,1.34,4.45,1.37,2.22,1.3,4.45,1.33,2.38-.23,4.54-.8c.5-1.4-.48-3.54.06-4.98s1.34-2.72,1.9-4.14,1.76-2.54,2.34-3.96,3.04-1.99,3.63-3.4-.19-3.34.4-4.74.69-2.98,1.3-4.38,1.8-2.5,2.42-3.89.39-3.13,1.02-4.51,3.16-1.86,3.79-3.24,1.26-2.73,1.91-4.1-1.5-4.05-.85-5.42,3.27-1.78,3.93-3.15.86-2.93,1.53-4.29.15-3.29.82-4.65,3.82-1.47,4.5-2.83.26-3.24.94-4.6,1.36-2.69,2.05-4.04,2.17-2.28,2.86-3.62-1.25-4.05-.56-5.39,3.03-1.82,3.74-3.16.45-3.18,1.15-4.51,2.41-2.14,3.12-3.48,2.52-2.08,3.23-3.41.49-3.17,1.21-4.5,1.6-2.57,2.32-3.9,1.09-2.85,1.82-4.18,1.63-2.56,2.35-3.88,1.82-2.45,2.55-3.77,1.86-2.43,2.6-3.75.85-2.99,1.59-4.31,1.79-2.47,2.53-3.79,1.09-2.87,1.83-4.18,2.76-1.92,3.51-3.23,1.59-2.58,2.34-3.88-1.39-4.28-.64-5.59,2.2-2.24,2.95-3.54,2.37-2.13,3.12-3.43.27-3.35,1.03-4.65,3.57-1.43,4.33-2.72-1.1-4.16-.34-5.45,2.41-2.11,3.17-3.4,2.73-1.92,3.49-3.21,1.62-2.57,2.38-3.86,1.16-2.85,1.92-4.13,1.1-2.89,1.86-4.17,3.12-1.68,3.89-2.96-1.1-4.22-.33-5.49,4.11-1.09,4.87-2.35,1.76-2.5,2.53-3.76c.81-1.33.6-3.22,1.37-4.47.81-1.33-.29-3.77.48-5.02.82-1.34,4.11-1.09,4.87-2.32.83-1.35,1.32-2.82,2.08-4.04.84-1.37,1.61-2.67,2.35-3.87.87-1.4,1.75-2.63,2.47-3.79.92-1.48-.12-3.93.55-5,1.56-2.49,4.59-2.53,4.59-2.53-.71,1.31-1.42,2.61-2.13,3.92s-.67,3.01-1.36,4.32-2.27,2.16-2.96,3.48-.48,3.09-1.16,4.42-1.79,2.42-2.46,3.75-1.45,2.59-2.11,3.93-2.52,2.08-3.17,3.42-2.16,2.27-2.8,3.61.52,3.54-.11,4.89-3.03,1.88-3.65,3.23-.9,2.87-1.51,4.23-.74,2.93-1.34,4.3.55,3.48-.05,4.85-1.55,2.57-2.13,3.93-2.98,1.97-3.56,3.34.17,3.29-.4,4.67-.37,3.05-.93,4.44-1.57,2.57-2.11,3.96-3.45,1.85-3.98,3.24-1.31,2.7-1.84,4.09-.23,3.1-.75,4.5-1.79,2.52-2.3,3.92-.84,2.87-1.34,4.28,1.27,3.6.78,5.01-1.54,2.61-2.02,4.02-1.08,2.77-1.55,4.19-.41,2.99-.87,4.41-1.57,2.62-2.02,4.04-1.13,2.77-1.57,4.19-2,2.51-2.43,3.93-.56,2.95-.98,4.38,1.49,3.53,1.08,4.96-2.41,2.41-2.81,3.84-2.22,2.48-2.62,3.92-.89,2.86-1.27,4.3,2.15,3.64,1.77,5.08-1.69,2.64-2.05,4.08.77,3.25.42,4.7-2.87,2.37-3.22,3.82.16,3.09-.18,4.55-2.22,2.55-2.54,4.01c-.32,1.44.62,3.15.31,4.59s1.04,3.22.74,4.66-1.72,2.65-2,4.09-2.75,2.48-3.02,3.93,1.26,3.22,1.01,4.67-1.43,2.76-1.66,4.21-.25,2.95-.45,4.41.44,3.03.27,4.49-.28,2.93-.43,4.39-2.31,2.76-2.43,4.22,2.07,3.12,1.98,4.58.93,2.97.87,4.44.28,2.91.26,4.38c-.02,1.34-1.3,2.59-1.06,3.91s.73,2.15,1.65,3.18c1.05,1.17,1.52,3.49,3.06,3.84s3.35-2.11,4.85-2.08c1.51.03,2.99,1.45,4.49,1.48s3.04-1.49,4.55-1.46,2.97,2.46,4.47,2.49,3.03-.78,4.54-.75,2.98,1.67,4.49,1.7,3.06-2.16,4.56-2.13,2.96,2.55,4.47,2.58,3.01.18,4.52.21,3.04-1.1,4.54-1.07,3.02-.49,4.53-.46,2.99,1.31,4.49,1.34,3.02-.28,4.53-.25,3.01.46,4.51.49,3.08-3.09,4.58-3.06,2.95,3.01,4.46,3.04,3.02-.36,4.53-.33,3.07-2.81,4.58-2.78,2.94,3.79,4.45,3.82,3.02-.31,4.53-.28,3.06-2.25,4.57-2.22,2.99,1.28,4.5,1.31,3.01.22,4.52.25,3.02-.45,4.53-.42,3.04-1.27,4.55-1.24,2.99,1.46,4.49,1.49,3.05-1.88,4.56-1.85,2.97,1.99,4.48,2.02,3,.96,4.5.99c2.21.04,5.11-.32,6.85-1.68,1.69-1.32,3.42-3.78,3.93-5.87.35-1.44.18-3.02.53-4.47s-1.59-3.42-1.26-4.87-.06-3.05.26-4.5,4.41-2.08,4.72-3.53-.04-3.05.26-4.51-.1-3.06.19-4.51,1.72-2.7,2-4.16-1.61-3.33-1.34-4.79,1.53-2.74,1.79-4.2-.83-3.16-.58-4.62,3.29-2.47,3.53-3.93-1.56-3.26-1.33-4.73-1.18-3.18-.96-4.65,2.95-2.57,3.16-4.04-1.04-3.14-.84-4.62,1.83-2.76,2.01-4.23-.94-3.11-.77-4.59.06-2.98.23-4.45,1.13-2.86,1.29-4.34-.34-3.02-.2-4.5-.27-3-.14-4.48-.37-3-.24-4.48,2.81-2.75,2.93-4.23-2.12-3.13-2.01-4.61,3.13-2.77,3.22-4.25-.36-3-.27-4.49.7-2.95.77-4.43-1.69-3.05-1.63-4.54,1.61-2.91,1.66-4.4-1.17-3.01-1.13-4.5.42-2.96.45-4.45,1.5-2.95,1.52-4.44-2.22-2.99-2.21-4.48-.85-2.96-.86-4.45.06-2.96.04-4.44,2.32-3,2.29-4.48.38-2.99.35-4.47-2.83-2.89-2.87-4.38.3-2.97.24-4.46.75-3,.68-4.48.03-2.98-.05-4.46-1.14-2.91-1.23-4.39,2.02-3.11,1.92-4.59-1.71-2.86-1.82-4.34,1.58-3.11,1.46-4.59.21-3.01.07-4.49-.45-2.96-.6-4.43-1.49-2.84-1.65-4.32-2.44-2.71-2.61-4.19,1.17-4,.99-5.47c2.25-.22-.79,3.04.48,5.69.55,1.14,2.38,1.94,3.13,3.51.59,1.24,1.84,2.31,2.55,3.8.6,1.28-.71,3.56-.03,5.01.61,1.3,3.66,1.53,4.33,2.97.61,1.31.57,3,1.23,4.42.62,1.32.63,2.98,1.28,4.39.62,1.33,1.63,2.53,2.28,3.93s1.41,2.63,2.06,4.03.04,3.26.68,4.66,1.81,2.46,2.44,3.85,3.34,1.78,3.96,3.17.94,2.86,1.56,4.26.62,3.01,1.24,4.4-.83,3.65-.22,5.04,2.34,2.24,2.96,3.64,1.84,2.47,2.45,3.86-.49,3.49.12,4.89,1.52,2.61,2.12,4.01,1.88,2.46,2.48,3.86,3.13,1.93,3.72,3.33.5,3.06,1.09,4.46,1.67,2.56,2.26,3.96-.5,3.48.08,4.88,1.53,2.63,2.11,4.03-.4,3.43.17,4.83,3.28,1.91,3.85,3.31-.01,3.26.55,4.66,1.16,2.78,1.73,4.18-.07,3.27.48,4.67,2.85,2.11,3.41,3.51,2.2,2.38,2.75,3.78.82,2.92,1.37,4.33,2.07,2.44,2.61,3.85-.28,3.35.25,4.76,1.49,2.67,2.02,4.08-1.12,3.64-.6,5.06.61,2.99,1.13,4.4,4.33,1.65,4.84,3.06-1.62,3.79-1.11,5.21.9,2.88,1.4,4.3,3.54,1.98,4.03,3.4-.79,3.46-.31,4.89.13,3.14.6,4.57,3.15,2.16,3.61,3.58.81,2.93,1.26,4.36-1.76,3.72-1.32,5.15.92,2.87,1.35,4.31,3.74,2.06,4.16,3.49.09,3.13.49,4.57,1.42,2.77,1.81,4.21-1.17,3.44-.81,4.89.05,3.09.4,4.54,2.98,2.42,3.31,3.87,1.8,2.74,2.1,4.19-1.19,3.62-.92,5.08c2.08.86,2.53-1.56,4.76-1.3s1.94,2.79,4.17,3.05,2.17.75,4.4,1.01,2.32-.52,4.55-.26,2.33-.59,4.56-.33,2.26.01,4.49.27,2.05,1.8,4.29,2.05,2.16.85,4.39,1.11,2.22.36,4.45.62,2.26.04,4.49.3,2.63-3.23,4.87-2.98,1.83,3.72,4.07,3.98,2.36-.88,4.6-.62,2.43-1.48,4.66-1.22,1.94,2.8,4.17,3.06,2.3-.35,4.53-.09,2.37-.93,4.6-.67,1.95,2.68,4.19,2.94,2.26,0,4.5.26,2.48-1.88,4.71-1.62,2.36-.88,4.6-.62,2.24.19,4.48.45,2.03,1.99,4.27,2.24,2.16.85,4.39,1.11,2.51-2.1,4.74-1.85,2.22.32,4.46.58,1.95,2.73,4.18,2.99,2.15.98,4.39,1.24,2.65-3.31,4.88-3.05,1.97,2.58,4.2,2.84,2.37-.96,4.61-.7,2.1,1.44,4.33,1.69,2.07,1.71,4.3,1.97,2.39-1.09,4.63-.83,2.57,2.13,4.79,1.78c.66-1.34,1.86-3.97,2.5-5.32s-.51-3.52.1-4.88.8-2.88,1.38-4.26,3.68-1.72,4.23-3.11.36-3.08.89-4.48,1.8-2.54,2.3-3.95.4-3.04.87-4.46.53-2.98.97-4.4,1.27-2.75,1.69-4.18,1.55-2.69,1.94-4.13-1.04-3.37-.67-4.82.34-2.98.68-4.43,2.73-2.46,3.04-3.92-1.57-3.37-1.28-4.84.07-3,.33-4.48.8-2.87,1.04-4.35,1.15-2.83,1.36-4.31-.78-3.1-.6-4.58,3.05-2.65,3.21-4.14-1.75-3.17-1.62-4.66,1.34-2.88,1.44-4.37-1.59-3.08-1.5-4.57,3.28-2.83,3.34-4.32.56-3,.59-4.49-2.83-3.04-2.82-4.53,1.08-2.98,1.06-4.47,0-2.99-.04-4.48.17-3,.12-4.49-.82-2.95-.9-4.44,1.51-3.09,1.41-4.58-2.19-2.83-2.32-4.32-.69-2.92-.84-4.41.27-3.02.11-4.51,1.54-3.2,1.36-4.68.2-3.07,0-4.54-3.62-2.49-3.85-3.96,1.8-3.32,1.55-4.79-2.83-2.53-3.1-4,1.81-3.39,1.52-4.85-2.18-2.6-2.49-4.07-1.31-2.76-1.65-4.22,1.58-3.44,1.23-4.89-2.09-2.56-2.46-4.01.11-3.12-.28-4.56-2.47-2.41-2.87-3.85-1.39-2.69-1.82-4.12.88-3.38.44-4.81-1.54-2.64-2-4.06-.91-2.84-1.39-4.25-.07-3.14-.57-4.55.47-3.36-.05-4.77-2.25-2.37-2.78-3.76-.79-2.91-1.34-4.3-.9-2.88-1.47-4.26-1.24-2.74-1.83-4.11-3.81-1.6-4.41-2.96,1.84-4.11,1.22-5.47-1.95-2.4-2.59-3.75-2.67-2.03-3.32-3.37-.66-3.01-1.33-4.34c-.67-1.32-2.32-2.12-3-3.43s-1.86-2.34-2.56-3.64,1.42-4.14.71-5.43-1.97-2.3-2.71-3.58-3.96-1.12-4.7-2.39-1.18-2.71-1.95-3.97-.51-3.14-1.29-4.39-2.18-2.11-2.97-3.35-1.58-2.48-2.39-3.71.34-3.78-.49-5-1.65-2.47-2.5-3.68-4.1-.7-4.96-1.9-2.05-2.12-2.93-3.31.12-3.78-.78-4.95-1.36-2.7-2.28-3.85-1.79-2.37-2.73-3.51-3.75-.71-4.7-1.83.02-3.92-.95-5.03-4.06-.32-5.06-1.41-1.18-2.9-2.2-3.98-1.4-2.75-2.43-3.8-1.19-3.01-2.24-4.04-2.04-2.18-3.11-3.2-2.2-2.02-3.29-3.01-2.42-1.77-3.53-2.74-3.71-.23-4.84-1.18-.47-4.07-1.61-5.01-4.19.5-5.35-.41-1-3.55-2.18-4.44-2.39-1.77-3.59-2.64-2.48-1.64-3.7-2.48-3.52-.23-4.8-1.06-2.02-2.49-3.32-3.29-2.68-1.47-4-2.24-2.98-.92-4.31-1.66-2.06-2.61-3.41-3.31-2.19-2.48-3.56-3.15-2.94-1.01-4.33-1.65-3.51.33-4.91-.28-3.43.35-4.84-.23-2.43-2.06-3.86-2.6-3.08-.36-4.52-.86-2.24-2.84-3.69-3.31-2.83-1.19-4.3-1.63-3.13-.14-4.61-.54-2.89-1-4.37-1.36-3.05-.33-4.54-.65-3.08-.07-4.58-.35-2.93-.86-4.43-1.1-3.18.89-4.69.69-2.99-.24-4.5-.4-2.81-2.67-4.33-2.78-3.1.93-4.63.87-3.02-.26-4.55-.28-3.04-.52-4.56-.49-3.14-1.9-4.66-1.83-3.03,1.09-4.55,1.21-2.76,3.06-4.28,3.23-3.36-2.41-4.87-2.2-3.2-.41-4.7-.14-2.59,1.71-4.09,2.02c-2.24-.28-.92-1.48-3.64-2.58-1.17-.47-3.64,1.72-5.28,1.12-1.28-.47-1.64-3.94-3.2-4.48-1.33-.46-3.68,1.79-5.21,1.3-1.36-.44-2.62-1.42-4.13-1.88-1.38-.42-2.33-2.59-3.83-3.02-1.4-.4-3.31.83-4.81.43-1.42-.37-2.96-.37-4.46-.74s-2.35-3.02-3.85-3.36-3.12.24-4.63-.08-3.21.83-4.72.54-2.85-.96-4.36-1.23-2.77-1.54-4.28-1.78-2.92-.8-4.43-1.02-3.34,2.35-4.85,2.15-2.63-3.12-4.14-3.29-3.02-.05-4.54-.2-3.18,2.01-4.7,1.88-2.85-1.92-4.37-2.02-2.93-1.5-4.45-1.57-3.03.34-4.55.29-3.04,1.18-4.56,1.15-2.99-.56-4.51-.56-3-.06-4.52-.04-2.96,1.47-4.48,1.51-2.95.81-4.46.88-3.06-1.5-4.58-1.4-3.06-.7-4.57-.59-2.78,2.62-4.29,2.76-3.09-.95-4.6-.79-3.25-1.89-4.75-1.7-2.57,3.43-4.07,3.64-2.96.37-4.45.61-3.15-.69-4.64-.43-2.67,2-4.16,2.29-3.18-.67-4.66-.37-2.86.93-4.34,1.26-3.11-.13-4.58.23-2.91.74-4.38,1.12-3.37-.9-4.83-.49-2.87.99-4.33,1.41-2.19,3.17-3.63,3.62-3.16-.04-4.6.44-2.81,1.08-4.24,1.57-3.17.08-4.59.6-2.07,3.06-3.48,3.6-3.34-.3-4.74.26-3.19.17-4.59.75-1.65,3.79-3.03,4.4-4.1-1.8-5.48-1.17-1.91,3.05-3.28,3.7-3.5-.29-4.85.38-1.6,3.53-2.95,4.22-3.14.48-4.47,1.19-3.25.34-4.58,1.07-1.19,4.04-2.5,4.79-3.59-.22-4.9.55-2.39,1.88-3.68,2.67-3.2.56-4.49,1.36Z"/>
    <path d="M316.32,112.41c-1,.91-2.83,3.16-3.12,3.49-.83.92-1.68,1.76-2.4,2.8-.96,1.29-.93,1.32.07.1,1.16-1.07,1.02-1.2-.42-.39-1.42.5-1.61.63-.54.39.86-.14.87-.16.02-.05-1.28.26-2.58.25-3.83.62-2.55.74-4.26,2.29-6.19,3.96-2.97,2.57-7.18,3.65-9.96,6.4-.3.3-4.06,6.01-3.6,6.08.34.05,5.49-4.48.4-2.03-1,.48-1.96.98-2.96,1.45-4.03,1.89-7.53,5.22-10.7,8.35-1.96,1.93-2.63,4.22-4.1,6.4-.38,1-.37.77.05-.68l-1,1.13,3.05-1.22-2.66.36c-2.41.54-4.39,1.55-6.26,3.15-.76.65-1.42,1.42-2.18,2.07.9-.77,1.5-.71-.03-.23-2.98.95-5.62,2.88-7.2,5.59-.61,1.04-1.04,2.21-1.34,3.36-.38,1.5-1.76,4.83.17,1.37l3.59-3.59c-2.27,1.17-5.23,1.44-7.45,4.18-1.04,1.29-1.79,2.55-2.27,4.2-.12.41-1,3.12-.11,1.62l3.59-3.59c-.82.55-3.77,2.11-4.99,2.75-3.88,2.01-7.2,4.12-8.51,8.64-.66,2.28,1.71-.48-.83,1.13-.89.56-2.84,2.51-3.39,3.01-1.17,1.05-2.13,2.2-2.91,3.58-.67,1.19-.95,3.93-1.08,4.21l3.59-3.59c3.37-.67,3.31-.74-.17-.19-.65.04-1.29.17-1.91.38-1.84.58-3.69,1.66-5.05,3.02-3.02,3.02-3.13,7.12-3.6,11.1l1.37-5.05c-2.29,5.33-7.26,9.7-11.15,13.97-2.23,2.44-4.85,4.99-6.45,7.9-2.22,4.02-1.21,7.91-.57,12.16v-5.32l-.19.94,2.57-4.41c2.33-1.21,2.89-1.58,1.66-1.1-.97.34-1.92.74-2.85,1.18-1,.54-2.01,1.18-2.82,1.98-1.99,1.94-3.56,4.68-4.76,7.17s-2.56,5.23-2.83,7.99c-.29,2.93.63,5.09,1.11,7.85v-5.32l.62-1.19c-1.88,2.16-2.16,2.63-.83,1.39,2.07-1.39-.87.03-1.11.16-2.41,1.32-4.27,3.32-5.38,5.84-.67,1.53-1.18,3.3-1.14,4.97.04,1.52-.07,1.2.4-.08-.15.42-3.76,9.37-3.05,9.25.8-.14,4.22-5.67.2-1.99-.98.9-1.92,1.9-2.61,3.06-1.55,2.57-1.4,5-1.73,7.83.08-.68-.3,1.45-.44,1.89-.4,1.23-.74,2.38-.98,3.65-.32,1.73-.45,4.76-1.18,5.78l3.59-3.59c-2.58,1.86-5.28,3.4-6.93,6.26-1.4,2.41-1.73,5.31-2.97,7.79-1.48,2.95-3.28,6.64-3.37,9.98s1.6,6.18,2.9,9.25l-1.37-5.05c.31-.62.29-.25-.05,1.11-.45,2.07-.11,1.81,1-.76-.09-.1-2.66,3.66-2.85,4.02-1.73,3.31-.92,7.45-.99,9.78l1.37-5.05c-1.2,2.32-3.24,4.78-4.21,7.84-.9,2.82-2.24,3.96-3.09,7.08-.8,2.94.15,6.55.49,8.58l.36,2.66c.26,1.46.45,1.63.55.49.31-1.6.24-.96-.21,1.93-.09,1-.21,1.99-.35,2.98l1.37-5.05c.42-.9.69-.63-.25,0s-1.6,1.43-2.25,2.31c-1.52,2.06-2.37,4.59-3.03,7.05s-.92,5.03-.21,7.57c.45,1.6,1.35,2.94,2.35,4.23.35.51.74.99,1.16,1.44.84,1,.61.5-.69-1.52v-5.32c-.55,1.67-2.08,4.74-2.6,7.29-.68,3.4-1.39,6.66-1.85,10.11s-1.68,6.71-.92,10.16c.36,1.65,1.49,3.11,1.83,4.7-.72-3.43-.42,1.88-.38,2.54.22,3,1.11,6.03,1.06,9.04-.02,1.5-.23,3-.27,4.51,0,.75-.01,1.5-.04,2.25,1.82-3.19,2.16-4.14,1.03-2.87-3.01,1.75-4.32,7.28-3.89,10.32.55,3.99,2.98,6.36,5.46,9.25l-2.57-4.41c.1.25.86,4.01,1.04,5.37v-5.32c1.45-2.26,1.59-2.67.42-1.24-.76.89-1.46,1.83-2.1,2.82-1.21,2.2-1.7,4.67-1.37,7.15s1.39,4.67,3.07,6.47c.83.85,1.74,1.61,2.74,2.26,1.48,1.15,1.25.88-.69-.8l-1.37-5.05c-.62,5.76-.78,10.38.06,16.22.48,3.35,3.95,6.11,6.98,6.98.47.13,5.75,1.03,5.75.82-3.83-2.36-4.22-2.43-1.16-.23,1,.6,2.05,1.08,3.17,1.45,4.24,1.19,9.45.27,12.5-3.11,1.86-1.94.31-1.67-4.66.8,1.16.34,2.35.54,3.56.59,1.75.3.34.12,1.79.41,2.55.51,5.22.69,7.75-.07,1.15-.33,2.21-.83,3.18-1.52,2.63-1.98,2.7-2.08.2-.31h-5.32l.95.24-4.41-2.57c2.38,1.95,3.66,4.21,6.93,5.17,1.59.46,3.29.61,4.93.54-2.63.11,5.17-.57,3.14-.34,3.91-.46,4.8-1.1,8.46-1.42,1.54-.13-.14.07,1.15-.04,1.12-.04,2.22-.17,3.32-.39,1.56-.25,1.21-.3-1.07-.15l-4.41-2.57c3.93,3.11,6.54,4.79,11.72,5.21,1.05.09,2.08.22,3.13.22,1.34-.03,2.67-.17,3.98-.43,1.99-.28,1.21-.56-2.34-.84-.4.6,6.84,1.97,7.27,1.97,2.15,0,4.23-.67,6.16-1.53.54-.24,1.03-.54,1.48-.93-.82.57-.61.64.62.24,1.14-.35,2.2-.84,3.18-1.49,2.63-2.01,2.7-2.08.2-.23h-5.32l.83.2-4.41-2.57c-.93-.72-.49-.7.3.19.85.96,1.51,1.98,2.45,2.85,2.58,2.39,5.78,3.25,9.23,2.95,1.68-.15,7.2-1.37,7.65-3.48-.3,1.45-5.2.93-1.79,1.43.75.11,1.67-.05,2.44-.04,2.19.02,4.27.19,6.46-.18s3.46-.06-.23-1.33c-5.18-1.77-1.3.32.33,1.22,4,2.19,8.92,1.56,13.3,1.46,3.55-.08,8.12-.31,10.93-.67.05,0,3.07-.08,3.78-.45,3.11-1.64-4.47-.61-4.37-2.03-.12,1.65,5.77,3.75,6.62,3.95,3.27.75,7.26.8,11.58.91-1.38-.04,2.07.24,1.8.21,1.36.17,2.41.22,3.76.12,2.78-.21,4.87-1.41,7.32-2.53l-5.05,1.37c-.46-.52-.23-.51.68.05.69.37,1.43.55,2.22.54,2.6.51,4.54.21,7.1-.32.6-.12.61-.22.04-.31,1.26-.14,2.52-.32,3.77-.54,1.14-.35,2.2-.84,3.18-1.48,2.63-2.01,2.7-2.08.2-.23h-5.32c-1.18-.21.34.27.94.56,1.59.75,3.07,1.22,4.82,1.38,3.48.32,6.4-.77,9.53-2.18l-5.05,1.37c-1.8-.99-2-1.12-.59-.39,1.15.7,2.39,1.11,3.71,1.23-1.6-.55,5.43,1.77,3.13,1.12,3.71,1.05,7.56.45,11.18-.59,4.68-1.34,6.78-5.16,7.34-9.64.19-.82.2-1.65.02-2.47-.95,1.62-.96,1.56-.05-.2.62-1.42,1.53-2.64,2.22-4.01,2.01-3.97-3.71,3.27,1.44-1.32,1.5-1.34,2.65-2.79,3.44-4.63,1.43-3.34.42-6.02,1.73-8.86.48-1.04,1.35-1.92,1.89-2.95,1.18-2.27,1.37-4.51,2.03-6.9l-2.57,4.41c-.51.66-.42.14.34-.34.97-.61,2.08-1.37,2.88-2.17,1.74-1.75,2.73-3.97,3.73-6.18,2.17-4.8,1.36-8.17.36-13.03v5.32l.12-.78-2.57,4.41c-.88.43-.74.34.42-.28,1.02-.65,1.99-1.36,2.91-2.15,1.51-1.45,2.43-3.2,3.17-5.13,1.06-2.74,1.88-7.31,2.35-8.94l-2.57,4.41c-2.5,1.24-2.91,1.5-1.24.78.98-.31,1.91-.72,2.79-1.23,1.55-.9,2.7-1.96,3.73-3.39,1.63-2.26,2.17-4.42,2.48-7.16l.13-1.2c-.43,1.85-.27,1.87.47.05,1.43-1.53,3.76-4.67,4.56-7.36,1.06-3.58-.19-6.49-.71-9.94v5.32l.15-.77-2.57,4.41c-.92.42-.82.33.29-.29.98-.68,1.93-1.4,2.85-2.16,1.8-1.73,3.13-4.14,3.62-6.59.66-3.33-1.4.49.56-1.19,1.43-1.23,1.89-2.05,3.21-3.42,2.8-2.89,3.37-6.62,5.04-10.02s3.24-6.8,5.35-10c2.36-3.59,4.54-6.76,6.32-10.68.94-2.07.37-1.15,1.71-3.02.76-1.06,3.77-8.43.81-3.48,1.02-.75,2.03-1.51,3.02-2.3.83-.92,1.6-1.88,2.32-2.89.84-1.21,1.68-2.58,2.34-3.88,2.22-4.4.96-8.05.21-12.52v5.32c-.6,2.91.47.03,1.24-.81.8-.88,1.65-1.61,2.42-2.52,2.31-2.74,2.89-6.98,3.6-9.06l-2.57,4.41c-2.5,1.35-2.27,1.34.68-.02l.96-.48c2.12-1.32,3.77-3.15,4.76-5.44.72-1.66,1.03-3.24,1-5.09-.11-1.05-.25-2.09-.41-3.13-.35-1.88-.49-1.35-.42,1.58l-2.57,4.41c2.26-2.86,4.22-3.91,6.66-6.61,2.57-2.85,4.32-6.56,5.87-10.01.62-1.23,1.17-2.49,1.67-3.77-2.31,1.98-2.64,2.46-.98,1.44,1.35-.55,2.52-1.73,3.5-2.78,1.99-2.16,3.07-4.91,3.13-7.85-.12-1.21-.27-2.41-.46-3.61-.35-1.89-.49-1.37-.43,1.55l-2.57,4.41c-2.61,2.44-2.19,1.35-.54.92,1.79-.47,3.49-1.49,4.84-2.75,1.72-1.61,3.5-4.19,4.66-6.31,1.07-1.96,1.64-4.2,2.16-6.34.34-1.37.79-2.64.86-4.09.02-.54.39-3.3-.17-1.45l-2.57,4.41c-2.59,2.41-1.97,1.38-.11.76,1.63-.55,3.16-1.38,4.41-2.57,2.15-2.05,3.15-4.73,4.62-7.24,1.27-2.18,2.76-4.22,4.03-6.4,1.58-2.72,1.54-6.25,1.94-7.98l-2.57,4.41c.07-.09-3.17.44-2.48.4-2.88-5.02-5.76-10.03-8.63-15.05-1.13,2.07-2.33,4.09-3.13,6.31-.4.93-.69,1.9-.86,2.91.88-1.52.8-1.66-.24-.43-2.07,1.83-2.66,4.36-3.68,6.77-.69,1.64-1.16,2.7-2.15,4.34-1.73,2.86-3.51,5.09-5.12,7.13s-3.2,3.66-3.97,6.22c-.44,1.47-.08,4.71-.11,4.89l2.57-4.41c.96-.4.87-.29-.25.34-.96.71-1.9,1.43-2.84,2.17-1.68,1.68-2.59,3.64-3.39,5.84-1.18,3.21-3.63,8.12-3.12,11.62.48,3.29,1.47-2.15.05,1.27-1.09,1.89-.87,1.79.68-.29-.95.72-1.89,1.45-2.82,2.2-2.94,3.04-3.18,7.05-3.5,9.83-.4,1.34-.64,2.71-.72,4.11.26-.95.18-.98-.25-.09-.76,1.05-.41.96,1.05-.27-.68.33-1.32.72-1.93,1.16-3.52,2.39-5.74,6.78-7,10.8-.33,1.36-.55,2.74-.67,4.13.43-1.16.21-.97-.66.57-1.05,1.53-1.59,3.39-2.18,5.14-.7,2.06-1.35,4.24-1.3,6.44,0-.35.71,6.26.85,4.09l1.37-5.05c-3.29,7.01-4.97,14.25-8.26,21.14-1.35,2.82-2.98,5-3.7,8.21-.42,1.89-.92,3.82-.85,5.77-.01-.45,1.07,6.34,1.09,4.04l1.37-5.05c-1.94,3.5-5.06,6.18-6.64,10.86-.76,2.25-1.47,4.62-1.39,7.01.04,1.23.34,2.37.71,3.52.31,1,.74,1.95,1.26,2.84.62,1.21.55.53-.22-2.05l1.37-5.05c-1.18,2.63-2.75,4.88-3.24,7.8-.23,1.4-.19,2.4-.04,3.8,0,.06.25,3.07.28,2.23l1.37-5.05c.64-1.2-.41.17-.85.61-.94.94-1.73,2.05-2.37,3.21-1.65,3.01-1.28,6.31-1.54,9.59l1.37-5.05c-.64,1.35-2.93,4.14-3.55,6.4-.69,2.51-.28,5.3-.03,7.82.07.68.02,4.1.71,4.42-.83-.38,1.67-4.95-.23-2.33-1.25,2.65-1.41,3.15-.47,1.5.71-.98.75-1.15.13-.51-.97.43-2.15,2.31-2.68,3.16-1.57,2.56-1.98,5.44-1.49,8.34.83,4.95.74-.1.94-.05-.46-.12-1.59,4.73-1.66,5.13-.4,2.34-.72,4.85-.61,7.23.06,1.32.24,2.44.17,3.73-.06.49-.11.97-.15,1.46-.09,1.22-.11.97-.07-.74-4.16,3.88-2.54,10.85.08,14.96-.51-2.19-.61-2.33-.3-.41.02.72.16,1.41.41,2.07.13.83.18,1.6.28,2.48l.54-.98-1.01,2.39c-.47,1.71-.52,3.56-.34,5.29.48,4.55,3.53,9.24,6.66,12.34,2.33,2.31,5.6,3.39,8.81,3.26,1.79-.07,3.46-.56,5.05-1.37.12-.06,2.87-1.31,1.54-.98h-5.32c1.34.29,4.83,1.84,7.15,1.84s5.97-1.58,7.21-1.82h-5.32l-1.73-.96c.79.67,1.61,1.29,2.47,1.87,1,.6,2.15,1.13,3.28,1.45,1.65.46,3.01.42,4.62.3l2.66-.36c-2.58-.93-3.2-1.07-1.88-.43,2.27,1.92,6.74,2.22,9.39,1.57,1.13-.28,2.27-.67,3.3-1.22.3-.16,2.78-1.27,1.27-.91h-5.32c-5.37-1.66,3,2.12,3.57,2.31,2.07.66,4.4.78,6.57.79,2.58,0,4.73-.62,7.19-1.09,1.01-.06,2.02-.19,3.02-.38-2.08-.56-2.24-.51-.5.14,3.98,1.72,8.64,1.03,12.89,1.32,2.6.18,5-.15,7.31-1.45.94-.69,1.87-1.4,2.79-2.13,1.4-1.2.95-1.1-1.35.3h-5.32c-2.34-1.42-2.82-1.52-1.44-.33.91.72,1.84,1.43,2.77,2.13,2.34,1.32,4.68,1.58,7.3,1.52,2.14-.04,4.56-.24,6.59-.89.5-.16,8.81-4.09,3.67-2.5h-5.32l.64.22-4.41-2.57c3.5,3.01,5.63,6.38,10.87,6.53,2.25.06,5.01-.13,7.19-.64,1.32-.31,2.58-.8,3.76-1.51.4-.24,2.2-1.05.81-.71h-5.32c4.18.97,8.04,2.05,12.42,1.87,3.85-.16,7.28-1.36,10.98-1.96h-5.32c1.36.29,4.82,1.85,7.15,1.85,2.61,0,5.35-1.75,7.22-2.21h-5.32c1.05.3,3.5,1.66,5.23,2.15,2.29.64,4.72,1.19,7.11,1.2,5.5.03,11-1.94,14.71-6.07s4.93-8.08,5.54-13.27c.31-2.6.42-4.69-.39-7.24-1.01-2.76-1.26-3.21-.76-1.34.19,1.3.3,1.4.32.31.3-1.1.09-2.64.19-3.75l-1.37,5.05.35-.58-3.59,3.59c1.95-1.45,4.28-2.17,6.06-3.94,3.15-3.15,3.24-7.24,3.47-11.41.03-.5.39-5.12.02-3.03-.32,1.82,1.48-2.51,1.68-3.2,1.27-4.35-.29-7.91-2.02-11.87l1.37,5.05c-.47,1.92-.21,1.49.78-1.29.59-1.28.88-2.64.88-4.07.05-1.37-.59-4.68-.58-4.62l-1.37,5.05c-.82,1.73.4,0,1-.56,1.4-1.3,2.37-2.8,3.03-4.56,1.71-4.55.13-8.26-1.69-12.48l1.37,5.05c-.15-1.21-.21-2.42-.41-3.62.03.19-.78-3.25-.69-2.18l-1.37,5.05c-.4.85-.07.1.46-.38.85-.79,1.74-1.82,2.32-2.81,1.26-2.16,1.78-4.56,1.68-7.03-.02-.43-.13-3.58-.7-3.83.79.35-1.71,4.96.21,2.24,1.79-2.54,1.79-6.09,1.4-8.97-.55-4.09,1.05-7.16,1.08-11.28.02-2.85-1.23-9.28-.59-10.92l-2.57,4.41c2.39-2.82,4.78-5.24,5.34-9.11.31-2.14-.08-4.11-.86-6.09-.16-.42-1.66-4.13-1.34-2.51v5.32l.27-.73-2.57,4.41c1.12-1.33,2.45-2.37,3.47-3.81,2.1-2.97,2.38-5.5,2.28-9.03-.06-2.19.63-4.39.63-6.67,0-2.42-1.67-5.71-1.98-7.2v5.32c.33-1.31,2.01-4.68,2.01-7.06s-.87-3.59-1.2-5.66c.34,2.15.38-1.3.4-1.8-.59,1.52-.66,1.78-.22.79.46-.97.88-1.95,1.26-2.94.34-1.16.6-2.58.6-3.77,0-1.94-.66-4.25-1.59-5.94-.12-.21-1.54-2.5-1.09-1.5.37.82-.53-2.73-.52-2.67-.16-.84.91-2.81-.11-.9-1.16,2.17.87-.72.98-.91.81-1.45,1.19-2.99,1.42-4.61.42-2.92.84-6.03.02-8.9-.89-3.12-3.02-5.06-4.98-7.47l2.57,4.41c-.38-1.06.89-5.92.96-7.91.12-3.88-.76-7.06-1.62-10.76v5.32c.55-2.28,2.27-4.33,2.27-7.25,0-2.38-1.81-5.74-2.18-7v5.32c.37-2.15,1.67-5.69,1.81-8.75.15-3.32-.12-6.84-.88-10.09-.6-2.6-2.14-6.18-3.59-8.39l-1.56-2.02c.38,5.27.85,6.77,1.4,4.49,1.01-1.08.78-4.05.85-5.39-4.22,3.21-8.44,6.43-12.66,9.64l.67.11-6.98-6.98.19.46v-5.32c-.67,4.06-1.68,7.65.13,11.63,1.09,2.41,4.99,4.81,5.33,7.23v-5.32c-.68,4.51-1.22,8.67,1.61,12.61,1.01,1.42,2.13,2.46,3.67,3.38.73.43,2.61,2.04,1.44.6l-2.57-4.41c1.04,3.31,1.64,6.81,3.01,10.01.78,1.81,1.83,3.41,2.78,5.13.45.82,1.7,4.66,1.02,1.3.77,3.81,1.12,6.55,3.37,9.93.92,1.37,1.72,2.9,2.93,4.06.92.79,1.89,1.51,2.92,2.15,1.18.61,1.33.71.46.31l-2.57-4.41c1.19,3.09,2.41,6.3,2.95,9.57v-5.32c-.64,4.68-1.49,8.56,1.27,12.78-.3-.46,2.54,2.97,2.32,2.69.48.9,1.04,1.75,1.68,2.55-.48-1.73-.7-1.73-.67,0-.44,3.91,2.5,8.29,4.45,11.52,2.25,3.72,5.02,6.15,8.45,8.72l-3.59-3.59c-.19-.26.47,2.29.64,2.82.57,1.72,2.04,3.34,2.55,5.01-1.29-4.16-.24,3.37-.39,2.67.38,1.76,1.03,3.28,1.86,4.89,1.42,2.76.43-1.56.05,1.31-.23,1.78.74,4.75,1.55,6.2,1.62,2.87,4.31,4.32,6.88,6.15l-3.59-3.59c-1.34-1.77-.45.02-.16,1.5.21,1.05.47,1.91.84,2.92.81,2.19.93,3.65,1.39,5.94.51,2.53,1.48,4.82,3.34,6.71.48.49,2.8,1.78,2.79,2.23.02-1.09-2.32-2.49-.09.49.17.22,1.84,2.93,1.21,1.38-.66-1.63.2,1.35.29,1.64.62,1.8,1.9,5.6,3.74,6.59.67.89.55.59-.38-.92-.57-1.63-.83-1.88-.78-.76-.45.54.25,3.18.42,3.85.63,2.49,2.04,4.72,3.12,7.04l-1.37-5.05c-.09-.94.15-.5-.11.42-.37,1.32-.56,2.82-.54,4.17.03,2.4.77,5.24,1.53,7.53.88,2.65,2.62,5.02,5,6.52.88.55,1.8.89,2.75,1.32,3.58,1.6-.99-.78,1.28.66l-3.59-3.59.4.54-1.37-5.05c-.04-1.13-.2-.09-.43.51-.45,1.14-.69,2.53-.71,3.74-.04,2.49.73,4.88,1.55,7.2,1.67,4.72,4.68,6.58,8.42,9.44l-3.59-3.59.43.65-1.37-5.05c.23,2.95-.52,8.25.65,12.11.72,2.36,2.11,4.26,3.92,5.89,2.68,2.34,2.73,2.06.13-.85.47,2.49.77,1.93.92-1.67-1.4.62-1.81,5.99-1.77,7.06.08,2.33.9,4.79,1.7,6.97,1.64,4.45,4.81,6.14,8.33,8.81l-3.59-3.59c-2.05-3.19-.44,1.59-.1,2.84.5,1.28,1.02,2.55,1.57,3.81l-.16-2.46c.39.5-.76,3.9-.77,5.09,0,1.87.21,4.03.58,5.87.42,2.12,1.11,3.85,2.42,5.56.44.66.95,1.25,1.56,1.76,1.02,1.03,1.16.97.41-.16-.85-1.66-.67-1.16.54,1.5.75,1.53.89,1.36.43-.51-.56-3.8-.97,2.43-1.04,3.64-.24,3.95,3.25,8.99,7.34,9.64,4.81.76,7.21,0,11.31-2.19l-5.05,1.37-.58-.18-4.41-2.57c-.58-1.02-.54-1.06.1-.12l1.56,2.02c1.39,1.45,3.16,2.51,5.06,3.12,2.49.8,5.38,1.54,7.99,1.67,3.97.19,5.02-.43,8.55-.6,1.35-.06.28.32,1.89.12l1.83.04c-3.53-1.93-4.29-2.18-2.27-.74,4.58,3.71,11.33,4.01,16.07,4.55,2.4.27,4.95.54,7.34.11,2.09-.38,3.76-1.09,5.43-2.39.24-.19,3.56-2.87,1.45-1.58l-5.05,1.37-.99-.17-4.41-2.57c-.64-.62-.65-.88-.14.07.58,1.08,1.43,2.18,2.3,3.04,2.13,2.13,5.16,3.41,8.17,3.5,1.35.04,2.68-.19,4-.38.19-.03,1.48-.38.59-.24,1.4-.22,2.81-.17,4.2-.58.54-.22,1.08-.44,1.61-.67,2.49-.92,1.53-.93-2.88-.02l-4.41-2.57c-.58-1.02-.54-1.06.1-.11.57,1.02,1.3,1.88,2.21,2.58,2.24,2.05,5,3.08,8,3.23,1.49.07,3.05-.02,4.53-.09,1.35.02,2.68-.11,4.01-.39,1.59-.41,1.26-.49-.98-.26l-4.41-2.57c-1.28-1.23,1.24,1.41,1.31,1.49.79.82,1.76,1.68,2.74,2.25,2.42,1.42,5.19,1.69,7.92,1.87,4.36.28,7.53-.78,11.33-2.75l-5.05,1.37c2.6-.22,5.48-.32,7.06-.57,3.5-.56-.04,2.53-1.48-1.2.43,1.11,4.23,2.8,5.15,3.09,2.49.8,5.54,1.72,8.14,1.77,1.7.04,3.42-.36,4.99-.98.56-.22,5.44-3.14,3.66-2.11l-5.05,1.37c.88-.09,3.19.18,3.87.4l-4.41-2.57c-1.42-1.17.4.27.89.85.99,1.18,2.1,2.32,3.46,3.12,1.79,1.04,4.36,1.75,6.39,2.27,2.91.75,5.88.78,8.68-.34,1.43-.57,2.8-1.43,3.92-2.5.4-.39,2.23-1.97.45-.85l-5.05,1.37-.72-.09-4.41-2.57c3.03,2.8,5.8,5.23,10.19,5.4,1.35.01,2.68-.12,4.01-.39,2.01-.5,1.25-.77-2.28-.83,1.01.65,2.09,1.16,3.25,1.52,1.62.58,1.73.47.33-.33-1.66-1.17-1.31-.87,1.05.9.97.64,2.01,1.12,3.13,1.46,2.11.66,4.27.76,6.43.4.81,0,1.57-.19,2.29-.54-3.5-1.1-4.37-1.11-2.6-.04,1.77,1.54,4.84,1.72,7.05,1.76,3.29.07,7.16-1.9,8.63-4.95,1.28-2.64,2.88-5.45,3.6-8.28.37-1.43.05-3.65.16-4.42.1-.66.82-2.99,1.22-4.15l-2.57,4.41c-1.21,1.55.99-.43,1.74-.93,1.61-1.07,3.05-2.53,4.05-4.2.66-1.22,1.12-2.5,1.37-3.86.42-2.89.5-3.54.24-1.96.74-1.75,2-3.08,2.59-5,.92-3,1.01-6.26,2-9.25,1.35-4.04,4.01-7.25,3.84-11.74-.02-.42-.84-6.09-.77-2.47.8-3.51.45-3.55-1.03-.14.55-.46,1.05-.96,1.51-1.5,3.12-3.48,4.05-8.01,2.58-12.47-1-2.77-1.26-3.21-.77-1.33.23,1.55.37,1.41.4-.42.42-1.45.42-3.16.85-4.68s1.03-2.84,1.36-4.31c.62-2.75-.03-4.52-.24-7.24l-1.37,5.05c-.49,1.09.97-.92,1.27-1.26,1.31-1.45,2.42-3.36,2.95-5.27,1.05-3.82-1.06-7.05-1.62-9.98v5.32c.82-2.95,1.9-5.13,1.62-8.36-.17-1.96-1.48-4.81-1.68-5.9v5.32l.27-.73-2.57,4.41c3.12-3.62,5.38-6.03,6.08-11,.93-6.61-.98-9.74-4.94-14.86l2.57,4.41-.29-.9v5.32c1.55-8.14,1.66-15.01.24-23.21v5.32c.1-.55,1.1-3.12,1.41-4.58.69-3.26,0-5.88-1.4-8.8-1.73-3.62-.07,2.03-1.16-2.31-.12-.46-.26-5.6-.81-2.08.41-2.61,1.82-4.59,2.03-7.39.11-1.47.09-3.08,0-4.54-.2-2.95-1.24-5.62-3.27-7.78-.84-.82-1.74-1.56-2.72-2.22-1.47-1.11-1.21-.79.78.98l1.37,5.05.1-.92-1.37,5.05c1.46-3.38,3.14-6.4,2.64-10.24-.27-2.11-1.13-3.88-2.36-5.57-.28-.38-2.57-3.49-1.93-2.15l1.37,5.05.08-.93-1.37,5.05c1.26-2.98,2.81-5.63,2.8-8.97,0-2.02-.8-4.34-1.83-6.1-.65-.84-1.29-1.68-1.95-2.52-.65-.82-.51-.66.44.47l-1.01-2.39c-.82,5.09-.59,5.74.71,1.95.49-1.48.78-3.01.73-4.59-.11-3.83-2.33-5.9-3.83-9.06l1.37,5.05c-.37-3.73-.07-7.25-2.2-10.62-.03-.05-3.61-4.72-1.87-1.84-1-3.25-1.34-3.19-1.03.18l.27-1.25c1.46-6.41-3.3-12.23-3.75-18.43-.29-4.02-.12-6.62-2.69-10.04-.48-.68-1.01-1.31-1.59-1.91.73,1.37.9,1.5.51.38-.05-1.37-.96-2.98-1.41-4.28-1.12-3.24-2.38-6.83-4.36-9.63-1.01-1.43-2.14-2.51-3.69-3.41-.72-.42-2.76-2.07-1.51-.56l2.93,7.07c-.93,2.63-1.03,3.07-.32,1.3.57-1.06.99-2.17,1.27-3.32.68-2.87.3-5.88-1.09-8.49-1.92-3.6-5.05-6.04-7.48-9.15l2.57,4.41c-1.06-3.08-1.66-6.05-3.78-8.65.02.02-2.09-2.13-1.56-1.51l-.81-1.24c-1.74-2.47-2.04-2.73-.88-.78v5.32c.59-3.2,1.78-5.85,1-9.22-.71-3.04-2.69-5.39-4.64-7.74-.39-.47-6.77-6.19-7.54-4.78,2.66,2.64,3.54,3.11,2.65,1.42.01-.58-.12-.79-.38-.64-.11-1.18-.48-2.25-.87-3.35-.77-2.19-2.08-3.76-3.51-5.56-.2-.25-1.41-1.93-1.66-2.03-.64-1.18-.68-.77-.12,1.25l.09-1.13c.12-1.56-.18-3.12-.66-4.59-.99-3.07-3.34-6.4-5.67-8.57s-5.21-2.56-8.17-3.52l4.41,2.57c-1.33-1.03-2.44-2.5-3.54-3.78l2.57,4.41c.49,1.26.02-.03-.05-.91-.09-1.21-.22-2.45-.56-3.61-.79-2.69-2.6-5.43-4.25-7.68s-3.2-4.61-5.53-6.08c-.99-.62-2.02-1.17-3.15-1.53-.38-.12-2.81-1.14-1.56-.31l3.59,3.59-.37-.85,1.37,5.05c-.32-3.69-.37-7.12-2.73-10.24-1.26-1.67-2.88-2.78-4.8-3.55-.72-.41-1.48-.64-2.3-.7-3.29-.6-3.54-.52-.75.26l3.59,3.59c-3.41-5.12-5.64-10.98-9.98-15.46-2.51-2.59-5.17-4.92-8.03-7.11-1.05-.8-2.04-1.6-3.2-2.21-.65-.34-9.64-3.46-4.02-.78l3.59,3.59c.64,2.81.68,2.57.13-.73-.2-1.23-.61-2.4-1.25-3.49-.97-1.77-2.33-3.35-4.09-4.37s-3.81-1.58-5.76-1.66c-.95-.04-4.02-.56-1.98.24l5.98,4.6c.51.66.07.57-.23-.36-.51-1.59-1.23-3.01-2.16-4.37-1.48-2.15-3.68-3.54-5.76-5.06-1.57-1.14-3.19-2.42-4.9-3.35-2.09-1.13-5.89-1.61-7.19-2.07l4.41,2.57c-2.27-1.95-4.04-4.03-6.66-5.62-2.97-1.8-6.2-2.82-9.38-4.14l4.41,2.57c-6.13-4.95-10.49-10.79-19.52-11.28-1.29-.07-3.14-.42-4.9-.26-3.45.31,3.18,3.22.53.87-2.01-1.78-4.28-2.91-6.9-3.48-3.51-.74-3.55-.47-.13.81-.31-.43-.66-.84-1.03-1.21-2.56-3-7.63-4.59-11.38-5.29s-7.68-1.75-11.63-2.26c-3.26-.43-6.2-.88-9.39-1.48-3.84-.72-7.76.84-10.08-.04l4.41,2.57c-3.86-3.05-6.83-5.58-12.05-5.18-3.73.29-6.86,1.04-10.68.01,2.99.8-2.48-1.35-3.52-1.59-2.33-.52-4.53-.22-6.84.32-1.99.46-4.55,1.23-6.3,2.26-.12.07-4.43,3.32-3.4,2.86l7.71-1.01c.8.46.62.3-.55-.46-1.06-.66-2.19-1.18-3.38-1.57-1.66-.49-3.45-.42-5.15-.52-2.06-.13-3.71-.3-5.8.22-1.33.33-4.09,2.02-4.09,2.02h5.32l-.98-.27,4.41,2.57c2.34,2.12-.96-1.16-1.45-1.65-1.38-1.35-3.75-2.72-5.62-3.23s-4.31-.49-6.16,0c-.42.11-3.05.68-1.78.76l7.07,2.93c1.65,1.32-.49-1.27-.95-1.97-1.09-1.66-2.53-3.1-4.27-4.07-1.84-1.03-3.87-1.4-5.95-1.36-1.31-.02-2.55.23-3.72.75-3,1.13-3.2,1.31-.58.54l5.05,1.37c-1.45-.63-3.85-1.47-5.08-2.3,2.11,1.42-.14-.7-.83-1.23-3.16-2.42-6.98-3.3-10.89-2.43-2.59.58,1.7,1.04-1.14.02-3.92-1.4,2.7,2.95.47.15s-6-4.1-9.42-4.21c-2.26-.07-6.26-.59-8.27.46-1.09.21-.79.22.89.02l-1.44-.47c-.74-.33-3.89-1.5-4.3-1.65-2.57-.92-5.8-1.89-8.54-1.89-2,0-4.22.6-5.97,1.53-.43.23-2.95,1.24-1.54.98l7.71,1.01c.64.67.5.49-.43-.55-.86-.89-1.81-1.67-2.84-2.35-2.31-1.41-4.79-1.68-7.41-1.85-2.17-.14-4.51-.22-6.61.4-1.15.42-2.26.91-3.33,1.49-1.12.72-1.27.8-.45.24h5.32c-2.3-.74-4.87-2.45-7.69-3.33-4.32-1.34-9-.22-13.27.59-1.03.33-1.02.38.03.16-1.38-.22-2.77-.39-4.17-.5-1.94-.12-3.92-.1-5.85.14-3.98.48-6.45,1.93-10.27,2.57h5.32c-2.66-.48-7.35-2.22-11.04-2.29-4.81-.09-7.69,2.5-11.24,5.3l4.41-2.57c2.25-.32,1.81-.54-1.29-.65,1.95.83,2.16.86.66.07-2.06-1.2-4.54-1.97-6.94-1.93-2.87.04-5.71,1.3-7.78,3.25-.58.55-3.1,2.56-1.34,1.76l5.05-1.37c-.79.1-7.02.42-4.9.58-2.94-.22-5.03-.61-7.92.38-1.26.34-2.4.91-3.4,1.72,3.39-.09,3.33-.28-.16-.56-2.57-.13-4.66.72-7.09,1.19-1.9.37-4.07.26-6.04.63-.97.24-1.95.48-2.92.74,1.86.22,1.92.17.19-.15-4.55-.93-10.09.47-13.99,2.96-1.09.61-2,1.41-2.72,2.4-2.59,2.95-1.98,2.81,1.83-.42-1.56-.8-5.44,1.16-7,1.63-4.54,1.37-8.4,1.17-11.85,5.03-2.78,3.09-1.89,2.91,2.65-.54-1.31-.14-2.61-.04-3.9.3-1.9.27-3.9.38-5.73.96-2.74.86-5.04,2.68-6.58,5.08-.44.69-2.39,3.13-.86,1.89l7.07-2.93c2.12-.21-1.16-.69-2.03-.9-1.92-.47-4.21-.43-6.11.09-1.75.48-3.86,1.85-5.15,3.13-.74.94-1.47,1.89-2.18,2.85-.62,1.13-.74,1.23-.37.29l4.41-2.57c.79-.16-4.63.33-3.71.13-1.69.38-3.14,1.03-4.54,2.04s-2.34,1.96-3.27,3.43c-.22.36-1.84,2.62-.69,1.57l4.41-2.57c-3.33,1.04-7.09,1.28-10.24,2.77-2.24,1.05-4.02,2.51-5.33,4.65-.5,1.06-.97,2.14-1.4,3.23-.64,1.71-.3,1.37,1.01-1.02l4.41-2.57c-1.83.47-5.42.4-7.91,1.99-.5.32-4.11,2.62-1.74,1.66-1.09.44-2.31.47-3.43.94-4.98,2.08-8.55,6.62-6.98,12.3,1.29,4.7,7.29,9.08,12.3,6.98,1.87-.78,3.83-.98,5.68-1.87.34-.16,4.65-2.72,4.46-2.94-.17-.19-4.18,1.28.46.69,2.87-.36,5.39-1.45,7.42-3.61.81-.86,1.41-1.85,1.95-2.87.48-.93.87-1.89,1.16-2.88.44-1.24.05-.73-1.16,1.53l-4.41,2.57c2.92-1.01,6.1-1.27,9.05-2.26,1.96-.66,3.66-1.73,5.11-3.21-.16.16,3.51-4.71,2.25-3.58l-4.41,2.57c-.78.17,4.71-.36,3.72-.14,1.7-.37,3.11-1.04,4.54-2.03,2.24-1.55,3.52-3.81,5.12-5.95l-3.59,3.59.73-.56-5.05,1.37c-2.06.23,1.11.66,2.03.89,2.42.61,5.01.38,7.3-.58s4.08-2.53,5.39-4.59c.47-.73,2.4-3.1.86-1.88l-4.41,2.57c4.05-.89,7.65.24,11.72-2.02,1.41-.78,4.59-3.19,5.02-4.94-4.47,2.26-4.74,2.93-.84,2.01,1.02-.08,2-.34,2.92-.78,3.52-1.13,7.38-.93,10.61-3,1.09-.61,2-1.41,2.72-2.4,2.33-2.67,2.06-2.73-.82-.17,1.93-.42,1.92-.65-.02-.71,1.28.33,2.58.54,3.91.64,2.38.09,4.46-.75,6.74-1.14,1.95-.33,4.04-.15,6.04-.59-.07.01,4.35-1.15,2.16-.93,2.93-.29,4.91.63,7.92-.4,1.27-.34,2.4-.91,3.4-1.72-3.41.13-3.36.33.14.59,2.03.12,3.98-.27,5.98-.54,2.98-.4,5.57-1.13,7.79-3.26.61-.59,3.1-2.54,1.33-1.75l-5.05,1.37.93.12-5.05-1.37c3.94,1.81,7.59,3.22,11.95,3.55,5.2.39,8.15-2.17,12.01-5.2l-4.41,2.57c-1.83.07-1.85.17-.06.31,1.74.36,1.77.24.09-.36,1.22.34,2.31,1.17,3.54,1.52,3.38.95,6.85.27,10.17-.56,1.51-.37,2.81-.78,4.26-1.38,2.36-.97-.83-.47.57.12.71.3,1.82.01,2.61.08,2.74.22,4.06.71,6.81.16,1.12-.22,2.17-.5,3.24-.87s2.55-.61.4-.8c2.04.18,4.07,1.79,5.48,2.46,3.61,1.72,7.15,2.14,10.93.7,1.09-.42,2.05-1.18,3.11-1.59-2.95,1.13-.39.82,1.35.93l-5.05-1.37c-1.23-.55.89.99,1.27,1.33,1.85,1.7,4.1,2.81,6.59,3.15,2.15.29,4.14-.07,6.13-.85.48-.19,4.08-1.72,2.71-1.48h-5.32c4.28.89,8.1,2.82,12.35,3.84,4.84,1.16,8.26-.19,12.73.09l-5.05-1.37c-1.46-.78,3.27,3.05,3.05,2.91,1.46.92,3.03,1.4,4.7,1.73,3.42.69,8.15.31,10.42.4l-5.05-1.37c2.48,1.41,5,3.59,7.96,4.9,2.03.9,3.82,1.42,6.05,1.38,1.32,0,2.57-.24,3.77-.74,3.05-1.12,3.2-1.31.44-.57l-5.05-1.37.69.49-3.59-3.59c1.94,2.87,2.89,5.7,6.1,7.58,1.77,1.03,4.06,1.46,6.11,1.44-.24,0,6.63-1.17,4.21-1.19l-5.05-1.37c-1.94-2.39-1.89-2.29.15.3.47.45.97.86,1.5,1.22,1.74,1.28,3.57,1.99,5.71,2.24,2.47.28,5.29-.19,7.43-1.6,2.61-1.71-3.05.34,1.13-.1-1.69-.82-2.04-.92-1.06-.28.47.35.97.66,1.49.93,1.74.92,3.99,1.55,5.99,1.55,4.63,0,7.35-2.93,10.47-5.79l-4.41,2.57c1.71-.71,3.62-1.19,5.43-1.57h-5.32c1.15.26,3.05,1.47,4.66,1.83,1.76.4,3.93.53,5.7.71,1.49.15,3.05.28,4.55.33,1.4.19,2.79.1,4.18-.26,1.98-.09,2.05-.27.2-.55l-4.41-2.57c2.24,1.75,4.16,3.8,6.97,4.7,2.41.77,5.49,1.11,8.05,1.09,1.72-.01,3.33-.5,5-.72-1.57.21-1.7-.1-.02.41,2.46.75,5.04.68,7.57.93,2.66.27,4.84,1.18,7.4,1.77s4.97.51,7.47,1.63c-2.62-1.17-1.14-.23-.08.78.81.78,1.84,1.5,2.82,2.06.05.03,6.5,2.56,6.54,1.69.02-.42-3.83-2.25-.17.41,4.95,3.6,9.54,2.23,14.25,2.97.09.01,2.46.75,2.8.96-2.18-1.41,0,.65.65,1.25,1.21,1.11,2.5,2.75,4.34,4.01,2.29,1.57,5.02,2.06,7.33,3.55,1.53.98,2.69,2.5,4.3,3.64,1.37.96,2.86,1.78,4.51,2.19l2.66.36c1.53.11,1.73.15.58.12-1.42-1.11,1.32,1.35,1.75,1.65.56.39,2.27,1.95,2.13,1.79l-2.57-4.41c1.46,3.76,2.43,7.49,6.21,9.7,1.7,1,3.82,1.57,5.77,1.65.66.05,1.31.03,1.96-.09,1.37-.09,1.38-.14.01-.15l-5.98-4.6-.48-1.95c.08,1.08.24,2.16.47,3.21.3,1.15.76,2.31,1.37,3.34,1.53,2.6,4.12,4.59,7.05,5.39,1.29.35,5.17,1.73,2.23-.18-3.38-2.19.35.68.89,1.14,1.65,1.39,3.48,2.94,4.85,4.61,2,2.44,3.9,5.96,5.52,8.88,1.32,2.38,2.44,4.61,4.92,6.11.97.59,2.12,1.16,3.2,1.47.81.15,1.62.27,2.44.37,1.98.34,1.78.2-.59-.42l-3.59-3.59.38.84-1.37-5.05c.46,5.02.79,9.84,5.53,12.82.54.34,4.59,2.71,5.31,2.03-.58.56-3.97-3.35-.81.58.4.5,1.97,2.6.76.79-.72-1.07-.16-.56-.08.72s.22,2.46.56,3.62c.76,2.61,2.46,4.51,4.21,6.49,2.99,3.37,6.16,4.31,10.24,5.65l-4.41-2.57c-.32-.78-.08-.48.71.9-.16-2.26-.26-2.52-.33-.76-.11,2.04.33,3.95,1.15,5.79,1.76,3.96,4.73,6.98,7.43,10.28l-2.57-4.41c1.62,3.97,2.32,8.22,5.02,11.76,1.43,1.88,3.21,3.11,5.39,3.98,1.17.47,3.41,1.9.78-.3-1.61-1.46-1.81-1.48-.6-.08.99,1.43,1.05,1.34.19-.27v-5.32c-.57,3.16-1.77,5.89-1,9.22s3.04,6.13,5.15,8.71c.45.69.99,1.29,1.62,1.82-.6-1.54-.73-1.72-.41-.53.27,2.02,1.33,3.94,2.45,5.57,1.85,2.71,3.23,3.11,5.13,6.11l-1.37-5.05c.88-2.47,1.06-3.07.55-1.81-.24.57-.48,1.13-.72,1.7-.6,1.55-1.1,3.1-1.12,4.79-.05,3.16,1.23,6.26,3.5,8.45.96.93,2.12,1.61,3.27,2.24,2.43,1.34.3-.83-.31-.53.08-.04,2.06,5.73,2.16,6.03.94,2.97,1.75,5.98,4.03,8.27s-1.12-1.64-.71-1.91c-.49.32.15,3.34.19,3.71.73,6.19,2.62,10.92,5.15,16.58l-1.37-5.05c.14,2.65-.56,6.43.99,10.04,1.23,2.86,3.43,5.61,4.62,7.78l-1.37-5.05c.31,2.89.12,5.62,1.14,8.41.72,1.97,2.1,3.35,2.97,5.21l-1.37-5.05c.84-2.89.68-2.79-.48.3-.49,1.16-.73,2.38-.71,3.66-.07,1.75.26,3.36.83,5,1.11,3.22,3.64,7.02,4.64,9.25l-1.37-5.05c.32-4.08-.56-.61-1.08,1.27s-.58,4.44-.08,6.24c.52,1.9,1.68,3.81,2.97,5.25.36.4,1.78,2.53,1.13,1.14l-1.37-5.05-.09.92,1.37-5.05c-1.6,3.76-3.64,7.33-2.47,11.58.5,1.81,1.64,3.76,2.92,5.12.84.82,1.75,1.56,2.73,2.22,1.47,1.11,1.21.79-.79-.98l-1.37-5.05c.03.84-.26,2.26-.03,3.04.79-1.41.95-1.61.48-.6-.26.59-.51,1.19-.76,1.79-.9,2.55-1.13,5.29-1.14,8.01,0,2.41.42,4.75.95,7.09.3,1.33.55,2.5,1.14,3.76.01.02,1.59,2.53,1.41,2.04v-5.32c-.43,2.57-2.06,6.22-1.41,9.9.51,2.91.64,5.49.45,8.52-.2,3.35-1.55,6.29-.55,9.82.45,1.61,1.54,4.38,3.07,5.32,1.14,1.59.87.4-.82-3.56-.1,2.8-.24,3.54-.43,2.23l2.57-4.41c-2.15,2.52-4.52,4.16-5.52,7.63-1.18,4.11.83,7.24,1.37,10.26v-5.32c-.79,2.95-1.91,5.13-1.62,8.36.18,2.05,1.56,4.65,1.8,5.99l1.01-7.71c.56-1.28-.9.86-1.26,1.26-1.31,1.45-2.44,3.36-2.96,5.27-.8,2.89.34,4.02.12,6.84.18-2.29-.84,1.94-.88,2.06-.93,3.29-1.41,6.59-1.57,10-.06,1.32-.14,2.41.08,3.74.01.81.19,1.59.54,2.32,1.15,3.1,1.32,3.19.51.26l1.37-5.05c.8-1.64-2.75,3.29-2.63,3.09-1.45,2.34-1.65,4.7-2.03,7.35-.35,2.46-.69,4.31-.07,6.78.45,2.09.56,1.65.34-1.31-.38.86-.75,1.72-1.11,2.58-1.59,3.76-2.41,7.36-3.49,11.25-.52,1.87-.93,2.74-1.84,4.55-.67,1.22-1.12,2.5-1.35,3.86-.52,3.13-.52,3.54,0,1.23l3.59-3.59c-1.43.96-2.96,1.55-4.3,2.66-2.6,2.15-3.72,4.78-4.74,7.94-.6,1.86-2.11,5.49-1.1,7.23-.13-.22,1.45-3.04.34-.54-.49,1.09-1.01,2.17-1.53,3.25l8.63-4.95-1.14-.02,5.05,1.37c-2.96-1.28-5.29-3-8.7-3.12-1.39-.05-3.35-.12-4.49.59-1.08.67,8.72,4.04,2.07.14-2.38-1.4-4.33-2.06-6.88-2.87-1.71-.55-3.52-.74-5.31-.66l-2.66.36c-1.58.41-1.26.51.98.3l4.41,2.57c-3.17-2.93-5.97-5.42-10.62-5.35-2.27.04-4.27.64-6.17,1.85.57-.36-4.93,3.96-2.47,2.42l5.05-1.37c.99-.12-.17-.05-.83-.34-.84-.37-1.81-.46-2.68-.74l4.41,2.57c.56.46.54,1.12-.11.16-1.01-1.5-1.82-2.36-3.23-3.35-2.07-1.44-5.48-2.23-6.56-2.37-2.03-.27-3.99-.64-6.02-.53s-3.74.6-5.47,1.61c-.33.19-3.5,2.21-2.04,1.36l5.05-1.37c.53-.06-1.15-.36-1.56-.39-1.63-.46-1.74-.35-.33.33,1.69,1.05,1.35.72-1.04-.99-2.82-1.78-5.85-2.09-9.11-2.42-5.8-.59-10.16.53-15.46,3.29l5.05-1.37c-1.24.1-3.69-.06-4.05-.19l4.41,2.57c.65,1.29.21.79-1.31-1.49-.83-.85-1.74-1.6-2.74-2.25-2.04-1.19-4.47-1.74-6.8-1.73s-5.71,1.13-6.74.8l4.41,2.57c.58.49.51,1.05-.1.11s-1.38-1.8-2.21-2.58c-2.31-2.16-5.43-3.23-8.56-3.2-1.21,0-2.5.22-3.64.55-.95.28-4.35.9-1.63.91,2.91,0-.93-.15-1.5-.07-.62.01-1.22.12-1.81.32-1.19.3-.61.36,1.73.16l4.41,2.57c.64.62.65.88.14-.07s-1.25-1.98-2.01-2.76c-1.92-1.97-4.41-3.26-7.13-3.61s-5.29.15-7.58,1.5c-.93.55-1.93,1.3-2.67,2.09-.41.44-1.73,1.46-.14.48l5.05-1.37c-3.45.39-5.52,0-8.46-.68-.38-.09-.87-.43-1.31-.49-.35-.15-.72-.24-1.1-.28-1.01-.28-.9-.1.32.52,1.32.9,1.31.85-.03-.14-.43-.38-.89-.72-1.38-1.02-1.17-.7-2.52-1.21-3.85-1.53-3.99-.97-8.11-.48-12.09-.11,1.08-.1-.78-.23-.96-.22-1.05.11-2.09.25-3.13.44-.75.11-.62.12.39.03,1.88.67-.12-.32-.47-.46-.84-.34-1.82-.39-2.69-.67l4.41,2.57c.58,1.02.54,1.06-.1.12l-1.56-2.02c-1.52-1.58-3.42-2.68-5.53-3.27-1.93-.54-3.67-.57-5.61-.21-1.33.06-2.57.46-3.72,1.19-1.15.49-1.2.61-.14.35h5.32l-1.08-.17c2.45,3.21,4.89,6.43,7.34,9.64.06-1.02.98-3.38.92-5.08-.09-2.53-1-4.38-2.09-6.62-.34-.69-1.04-2.21-1.81-3.44.15.24-3.68-4.55-2.87-3.05l1.37,5.05c-.35-3-.16-4.27.22-6.92.54-3.77-1.09-5.96-1.98-9.38-.76-2.94-.16-4.84-1.92-7.62s-4.42-3.88-6.89-5.76l3.59,3.59c.34.75.23.37-.32-1.14-.91,3.92-.75,4.17.48.75.83-2.49.92-4.78.39-7.34-.86-4.17-2.47-8.59-6.18-11.02-2.01-1.72-1.57-.83,1.33,2.67-.23-3.12-.38-3.55-.47-1.29.08-2.79.93-4.93.15-7.76-1.22-4.42-4.87-6.19-8.18-8.72l3.59,3.59c.53.79-.31-.99-.35-1.13.26.96-.49,2.78.32.71,1.04-2.64.91-5.99-.19-8.55-.98-2.29-2.66-4.26-4.84-5.54-.77-.45-1.59-.73-2.4-1.1-3.58-1.6,1,.78-1.29-.66l3.59,3.59c.39.86.35.49-.12-1.1l-.27,1.88c.3-1.74.91-2.86.91-4.8,0-2.12-.58-4.07-1.46-5.98-.48-1.04-1.2-4.57-.78-1.42-.5-3.71-.57-6.31-2.84-9.44-.5-.66-1.01-1.3-1.53-1.94.8,1.32.99,1.43.58.32.02-1.54-1.28-3.84-1.99-5.05-1.34-2.29-2.78-4.3-4.54-6.09-.56-.52-1.15-1-1.78-1.45-2.06-1.73-1.54-.86,1.58,2.63.5-1.01-.77-4.45-1.18-5.58-1.17-3.18-1.04-6.87-2.72-9.84s-4.3-4.33-6.88-6.15l3.59,3.59c.57,2.32.84,2.53.81.62l-.36-2.66c-.38-1.75-1.05-3.28-1.87-4.89-1.53-3-.41,1.52.03-1.35.26-1.7-.82-4.74-1.54-6.2-1.34-2.71-1.88-5.81-3.35-8.42-1.59-2.82-4.26-4.32-6.75-6.18l3.59,3.59c-1.1-1.46-2.09-3.04-3.03-4.6-.43-.91-.91-1.8-1.44-2.67.56,1.69.81,1.68.75-.03.56-3.9-2.56-8.03-4.64-11.02-.69-1.06-1.5-2.02-2.41-2.89.75,5.22,1.24,6.49,1.46,3.79.76-2.68.05-5.13-.61-7.69-1.01-3.92-2.15-8.56-4.91-11.61-1.34-1.49-2.95-2.29-4.51-3.44,3.53,2.6-.79-2.27.69,1.13-.96-2.21-.59-4.97-1.7-7.36-.85-1.83-1.89-3.58-2.8-5.38-1.45-2.89-1.97-5.93-3.04-9.01-.95-2.76-2.65-5.03-5.11-6.6-.67-.43-3.2-2.43-1.8-.77l2.57,4.41-.2-1.22v5.32c.54-3.96,1.19-7.81-.78-11.5-1.01-1.89-3.55-6.31-5.3-7.31-2.26-1.29-.06,6.6.88,3.33.54-1.88.61-4.2.12-6.06-.96-3.66-4.02-6.94-7.84-7.55-6.58-1.06-12.31,2.63-12.66,9.64.1-.93,0-.7-.31.68-.34,1.24-.55,2.51-.63,3.8-.05,1.57.16,3.02.62,4.51.11.35,4.32,7.18,2.74,4.28-1.93-3.54,1.94,5.42,1.03,2.18.35,1.25.03,3.19.42,4.45-.32,1.92-.14,2,.55.25-.55,1.17-1.07,2.35-1.54,3.55-1.29,4.31.76,7.74,1.62,10.79v-5.32c-.8,3.36-2.82,5.7-1.92,9.91.51,2.4,1,4.05.76,6.52-.35,3.63-1.31,7.64-.41,11.27.82,3.29,3.1,5.39,5.14,7.91l-2.57-4.41c.04.12-1.29,1.55-.07.32,1.4-1.41-.63.23-1.02.91-1.52,2.71-1.68,5.87-1.63,8.9.04,2.65.43,5.28,1.09,7.85.36,1.39.64,2.73,1.35,4.02.23.41,1.4,2.9.97,1.2v-5.32c-.24,1.13-1.57,5.13-1.84,7.4-.51,4.2.25,7.27,1,11.3v-5.32c-.35,1.42-2.01,4.63-2.01,7.06s1.68,5.74,1.98,7.2v-5.32c-.28,1.93-.77,3.81-.95,5.76-.06.62-.19,4.92.19,3.89l2.57-4.41c-2.18,2.61-4.63,4.39-5.53,7.94-.51,1.99-.37,4.24.18,6.22-.07-.24,2.19,5.56,1.83,3.71v-5.32l-.34.87,2.57-4.41c-3.16,3.73-5.61,6.76-5.48,11.93.09,3.73.91,7.85.26,11.48-.43,2.37-.99,4.6-1.12,7.06-.05,1.01-.1,1.98-.04,2.99.07.7.15,1.39.26,2.09.07,1.75.23,1.77.48.07,1.52-2.36-.5.22-.84.97-.56,1.26-.87,2.23-1.05,3.6s-.14,2.41.08,3.79c-.03-.21.66,3.27.59,2.15l1.37-5.05c.71-.65.56-.52-.45.38-.87.86-1.64,1.79-2.32,2.81-1.33,2.18-1.8,4.52-1.67,7.03s.69,3.16,1.01,4.66c.58,2.71,1.32,4.93,2.41,7.48l-1.37-5.05.14,1.15,1.37-5.05c.66-1.41.11-.37-.59.25-.97.87-1.92,1.86-2.6,2.98-1.66,2.72-2.17,6.44-1.32,9.54s-.01-1.49.31-1.43c-.57-.11-1.62,4.45-1.71,5.13-.48,3.67.97,6.72,2.4,10.01l-1.37-5.05c.71-1.93.77-2.37.19-1.3-.57.9-1.01,1.87-1.31,2.9-.49,1.46-.73,2.91-.81,4.46-.14,2.75-.14,5.53-.4,8.28l1.37-5.05-.34.58,3.59-3.59c-3.56,2.67-7.64,4.07-8.97,8.93-.65,2.38-.68,5.6-.58,8.08.05,1.27.34,2.47.72,3.66l1.01,2.39c-.14-3.72-.32-4.37-.54-1.95-.54,1.99-.45,1.89.39,1.73-1.05.2-2.59-.19-3.43-.5-2.19-.8-4.44-2.37-7.21-2.37-2.61,0-5.35,1.75-7.22,2.21h5.32c-2.93-.63-6.26-2.39-10.38-1.4-2.6.62-4.54,1.41-7.36,1.13-3.48-.34-6.53-1.99-10.16-1.14-1.43.34-3.08.8-4.21,1.78-1.46.9-1.19.95.8.14-1.66-.07-1.99.05-1,.35l4.41,2.57c-2.72-2.34-4.05-4.97-7.9-6.06-2.25-.64-4.33-.53-6.55.17-1.26.3-2.36.87-3.31,1.7-2.94,1.95-2.68,2.12.79.52-2.07-.02-2.02.28.16.91,1.86,1.06,2.17,1.07.93.02-1.35-1.6-3.95-2.88-5.9-3.37-2.07-.51-4.06-.41-6.07.22-1.01.31-5.95,2.54-5.95,3.88,5.34-.99,5.93-1.58,1.77-1.76-.75-.13-1.5-.17-2.26-.11-.76.02-1.51.07-2.26.16,1.25.92.64.73-1.84-.57-4.31-1.37-8.55-.1-12.86.37-.64.6-1.27.73-1.88.38-2.51-.31-2.05.06,1.38,1.11-.13-1.13-4.26-2.88-5.3-3.21-2.37-.75-4.73-.8-7.12-.06.34-.1-5.55,2.37-3.66,1.92h5.32c-.97-.24-3.89-1.68-5.82-1.88-1.36-.14-2.82-.19-4.17.19-2.01.06-1.79.37.68.94,2.71,1.25,2.7.98-.01-.8-2.01-1.29-4.4-2.25-6.84-2.25s-5.84,1.56-7.21,1.82h5.32c-1.83-.39-5.55-1.98-8.48-1.66s-5.11,1.87-7.64,3.17l5.05-1.37-.93.09,5.05,1.37c1.26.65,2.15,2.49.81.16-.33-.49-.69-.96-1.07-1.42-1.33-1.83-1.11-1.3.66,1.58l-1.37,5.05c2.18-5.02,2.54-9.31,1.65-14.69-.29-1.74-.54-3.62-1.05-5.34.06.21-2.15-5.57-1.8-3.68v5.32c-.14.38,2.02-3.21,2-3.15.41-1.25.63-2.4.78-3.73.34-3.02.11-5.73.11-8.71,0-.82.17-2.38.34-3.11-.51,2.23.96-1.39,1.23-2.31.92-3.16-.28-6.12-.41-8.04l-1.37,5.05c-.39.84-.25.25.34-.32.95-.91,1.83-2.06,2.47-3.2,1.24-2.18,1.94-3.19,2.81-5.85,1.61-4.92-.28-8.46-.3-12.95l-1.37,5.05c.4-.86,2.43-3.48,3.05-5.2,1.01-2.79.8-5.49,1.04-8.4l-1.37,5.05c-.71,1.34.99-.74,1.22-.98,1.1-1.17,1.94-2.54,2.5-4.03,1.09-2.87.39-6.78.45-8.55l-1.37,5.05c2.04-4.62,4.36-8.22,2.68-13.43-.2-.62-.83-2.93-1.52-3.29l.54,3.73.44-1.43c-.56.02-1.4,1.81-.06.08.76-.99,1.38-2.04,2.09-3.04,2.4-3.37,5.13-7.35,3.82-12.48-.17-.68-.42-1.48-.77-2.08.91,1.58-.89,2.36.31.44.62-1,1.69-2.82,2.27-4.19,1.6-3.77,3.74-7.63,4.53-11.63s3.47-7.63,4.19-11.74c.35-1.97.42-4.68-.57-6.49-.26-.85-.28-.71-.06.43.03,1.2.14,1.28.34.25-.27.18.92-1.93.81-1.71,1.2-2.35,2.47-4.43,2.65-7.15.22-3.44-.53.59.17-1.35.36-.98.86-1.96,1.49-2.78l-3.59,3.59c4.02-2.68,6.53-5.03,8.78-9.38,1.26-2.44,1.8-4.88,2.27-7.49.22-1.21.63-2.55.58-3.78-.17-3.97-5.22,4.67-1.55,2.33s6.36-7.63,7.22-11.64c.52-2.44.03-3.48.35-5.12s1.41-4.79,1.92-5.44l-3.59,3.59c3.86-2.88,9.1-6.61,8.24-12.28.05-1.78-.24-1.74-.88.11-.94,1.51-1.05,1.83-.34.98,1.06-.42,1.84-2.57,2.58-3.4.41-.47,2.65-2.66,3.51-4.08,1.16-1.91,2.26-3.85,3.43-5.76.72-1.16,1.36-2.35,1.8-3.65.13-.4,1.17-4.38.38-2.36-.66,1.69,1.11-1.01,1.28-1.22,1.09-1.35,1.85-2.67,2.45-4.31.77-2.11,1.39-3.86,2.48-5.85,3.42-6.27-.76-15.55-8.63-15.05-6.27.4-12.63,3.94-14.35,10.39-.38,1.4.02,3.21-.42,4.49,1.04-3.08-1.33,1.17-1.47,1.4-1,1.59-2.76,5.79-3.43,6.4l4.41-2.57c-5.24,2.13-9.94,3.44-11.55,9.67-.31,1.21-.27,2.48-.36,3.71-.27,3.66.35-1.12-.07.96-.37,1.85-.96,3.17-1.68,3.82l4.41-2.57c-3.58,1.5-7,2.12-9.5,5.41-1.5,1.98-2.29,4.31-2.33,6.82.13,1.2.29,2.4.47,3.6.35,1.87.49,1.36.41-1.52l2.57-4.41c1.38-1.48-3.54,2.54-3.25,2.27-1.98,1.87-2.79,4.04-3.85,6.46-.6,1.35-1.23,2.88-1.88,4.16-.19.38-2.93,4.93-.78,2.26-1.18,1.46-3.13,2.65-4.48,4.07-.82.86-1.69,1.6-2.46,2.51-1.94,2.28-3.06,4.81-3.11,7.83.13,1.2.29,2.4.46,3.59.35,1.87.49,1.35.42-1.56l2.57-4.41c2.13-1.14,2.31-1.31.53-.5-.74.28-1.46.61-2.16.99-1.35.81-2.55,1.97-3.48,3.24-.98,1.34-1.74,2.86-2.16,4.49l-.36,2.66c.07,1.31-.03,1.61-.3.9l2.57-4.41c-2.37,3.05-5.73,5.59-7.63,8.99-2.39,4.27-.93,8.14-.21,12.51v-5.32c.2-.96-.6.88-.72.97,2.61-2.01-.72.66-.95.85-2.11,1.78-3.34,3.76-4.48,6.25-.89,1.96-2.19,3.52-3.21,5.4-1.13,2.08-1.61,4.28-2.89,6.18-5.24,7.78-9.69,15.59-12.56,24.49l2.57-4.41c-1.5,1.93-4.13,4.29-5.23,5.56-2.94,3.37-3.57,6.11-4.85,10.26l2.57-4.41c.92-.42.82-.33-.3.29-.98.68-1.92,1.4-2.85,2.16-1.43,1.38-2.63,3.2-3.16,5.13-.96,3.51.18,6.54.71,9.94v-5.32c1.22-1.9,1.41-2.37.59-1.39-.72.76-1.37,1.58-1.96,2.46-.78,1.16-1.39,2.38-2.01,3.64-.77,1.57-1.62,3.12-2.03,4.83-.17.72-.74,3.94-.6,3.5l2.57-4.41c2.49-1.24,2.9-1.5,1.23-.78-1.12.37-2.18.85-3.18,1.46-2.1,1.32-3.6,3.12-4.61,5.37-.92,2.03-.76,4.08-1.28,6.18-.07-.83-.26-.47-.6,1.08-.26.98-.59,1.94-.98,2.88l2.57-4.41c.87-.43.73-.33-.43.28-1.02.65-1.98,1.36-2.9,2.15-1.43,1.37-2.65,3.2-3.16,5.13-.95,3.58.24,6.55.96,9.96v-5.32c.2-1.4-.36,2.99.38.69.92-.54,1.01-.59.29-.16-.46.26-.9.56-1.32.89-2.62,1.85-4.54,4.28-5.37,7.45-1.18,4.51-3.81,8.44-4.76,13.18-.18.91-.75,2.95-.33,3.9,3.17-4.21,3.66-5.37,1.47-3.48-.48.36-.95.73-1.42,1.1-1.66,1.59-2.98,3.72-4.12,5.72-1.32,2.31-2.93,5.31-3.63,7.86s-.1,5.09-.42,7.63l7.34-9.64c-.74.22-1.49.43-2.24.63,3.42.87,4.18.9,2.28.06-1.98-1.2-3.18-.97-4.45-1.37-5.57-1.75-9.13-1.67-14.58.76l5.05-1.37c2.02,1.15,2.41,1.28,1.16.4l-.78-.43c-1.87-.9-4.04-1.56-6.15-1.56s-4.36.57-6.16,1.55c-1.02.57-1.96,1.25-2.82,2.04,3.66-1.39,4.27-1.84,1.82-1.37-.79,0-1.54.18-2.24.53,1.88.46,2.31.5,1.3.13-1.01-.76-2.81-.82-4-.91-3.78-.27-6.46.98-9.76,2.5l5.05-1.37c-1.61.2-5.71-.17-8.71-.25-1.47-.04-1.77-.02-.89.04-1.17-.3-2.35-.49-3.56-.57,3.46,2.03,4.45,2.3,2.97.79-.89-.71-1.79-1.41-2.72-2.07-2.29-1.29-4.75-1.6-7.32-1.44-.73.05-3.86.98-3.15.83-3.89.8-5.16.52-8.94.6-1.49.03-2.98.07-4.47.09-.74-.02-1.49,0-2.23.03-2.07-.08-1.31.47,2.29,1.65-2.14-3.99-9.45-3.71-12.94-3.17-1.36.21-4.57.22-7.19.33-1.98.09-4.09.09-6,.66-1.16.32-2.23.83-3.18,1.53-2.64,1.96-2.7,2.08-.21.36h5.32l-.83-.2,4.41,2.57c1.29,1,.24.42-.3-.19-.85-.95-1.51-1.99-2.45-2.85-2.88-2.63-6.77-3.61-10.56-2.77-1.21.27-2.39.57-3.5,1.2-.65.35-1.25.77-1.81,1.26-1.32,1-1.35,1.04-.1.12,1.28-.72,1.22-.89-.2-.5l-2.39,1.01c-.56.25-2.31.7-.99.5h5.32c-1.97-.3-6.37-1.76-9.76-1.32-1.85.24-3.14.46-4.72.07l4.41,2.57c-2.49-1.97-4.5-4.03-7.73-4.8-2.54-.6-6.65.04-7.79.16-4.17.43-3.84.1-7.79.9-1.85.38.71.05-1.82.55l-2.66.36c-1.62.21-1.21.25,1.23.1l4.41,2.57c-2.63-2.15-4.31-4.52-7.88-5.41-2.58-.64-5.2-.29-7.62.7-.72.23-1.38.56-1.99,1.01-3.52,2.37-2.56,2.34,2.89-.08-.64-.87-8.48-1.48-9.33-1.46-2.01.05-4.26.59-6,1.57-.92.68-1.83,1.38-2.73,2.09-1.19,1.23-.67,1.08,1.57-.45h5.32l1.86,1.42-2.02-1.56c-1.15-.72-2.42-1.21-3.72-1.54s-2.6-.34-3.88-.45c-.42-.04-2.12-.39-1.1-.09l6.98,6.98c-.54-3.81.75-7.16.66-10.91-.07-2.89-1.29-5.7-3.26-7.8-.83-.85-1.75-1.6-2.75-2.26-1.49-1.15-1.25-.88.7.8l1.01,7.71c-.2.87-2.06,2.85-.44,1.24.78-.77,1.55-1.85,2.1-2.82,1.67-2.9,1.59-6.01,1.09-9.22-.78-4.98-2.68-7.88-5.89-11.65l2.57,4.41-.33-.89v5.32c-1.41,2.29-1.51,2.73-.31,1.32.73-.92,1.44-1.85,2.13-2.8,1-1.78,1.45-3.79,1.58-5.81.21-3.18.42-6.61.27-9.77s-.94-6.52-1.11-9.8c-.1-1.9-.01-3.81-.43-5.68-.34-1.54-1.47-3.75-1.65-4.62v5.32c1.15-5.89,1.59-12.18,3.39-17.93.92-2.95,2.97-5.41,1.98-9.64-.3-1.27-.79-2.46-1.47-3.59-.57-.85-1.18-1.66-1.85-2.44-1.19-1.46-1.08-1.09.32,1.09v5.32c.21-.83.91-2.12.9-2.94,0,1.09-1.92,2.31.02.6,1.83-1.61,3.32-3.72,3.97-6.11,1.2-4.38.56-9.66-.11-13.05-.09-.47-.1-3.63-.7-3.88.89.37-1.6,4.85.41,2.21.74-.98,1.22-2.92,1.64-4.19.09-.27.88-3.23.27-1.69-.56,1.41,1.75-2.01,2.05-2.5.62-1.02,1.23-2.29,1.55-3.42.6-2.2-.06-6.38-.02-7.39l-1.37,5.05c.73-1.5,3.09-4.63,3.73-7.13.76-3.02,1.39-6.94.55-10-.37-1.35-1.5-5.85-1.43-1.39.07,4.21.34,1.04,1.21-.73,1.13-2.3,2.15-6.37,3.19-7.86l-3.59,3.59c4.37-3.17,6.98-5.53,8.61-10.81.7-2.27.76-4.48,1.26-6.74s1.55-4.35,1.77-6.77c.19-2.05.93-3.92-1.25-.49-2.67,4.21-.09,1.35,1.09.21,2-1.93,3.26-4.28,3.87-6.98.03-.15.85-3.89.18-2.03.34-.93.92-1.81,1.33-2.71.94-2.06,1.33-6.04,1.6-7.12l-2.57,4.41c-.63.75-.9.48.18.11s1.87-.96,2.72-1.64c1.94-1.54,3.53-3.79,4.89-5.85,3.06-4.63,1.9-8.57,1.06-13.61v5.32c-.23,1.19.41-1.48.86-2.36.35-.68,1.03-1.44,1.26-2.16.76-2.46-4.54,1.84-1.59,1,1.53-.44,2.96-1.25,4.21-2.2,5.43-4.11,4.56-9.62,3.68-15.53v5.32c-.58,2.74.35-.16,1.38-1.33s2.08-2.28,3.1-3.39c2.04-2.21,3.87-4.64,5.98-6.8,2.47-2.52,4.43-4.83,5.97-8.04s1.62-5.81,2.03-9.09l-1.37,5.05.38-.84-3.59,3.59c-.37.21-.76.32-1.17.36-1.19.16-.41.05,2.35-.32,1.27-.3,2.49-.8,3.61-1.47.41-.24,7.6-7.84,5.57-8.58-.8-.29-3.18,3.34.98-.41.92-.83,1.86-1.69,2.72-2.59,2.27-2.36,3.2-5.41,4.44-7.55l-3.59,3.59c1.99-1.37,5.18-2.49,7.85-4.09,1.96-1.17,3.45-2.7,4.53-4.71-.18.33,2.16-5.71,1.13-4l-3.59,3.59c2.23-1.18,5.26-1.42,7.45-4.18,1.03-1.3,1.76-2.58,2.25-4.23l.19-1.13c.6-3.27.52-3.53-.25-.79l-3.59,3.59c1.12-.66,4.61-1.97,6.35-3.47.56-.5,1.1-1.02,1.63-1.55,1.37-1.21.54-.97-2.48.72.6.57,4.18-.77,4.88-1.03,5.8-2.18,9.21-8.01,11.47-13.38l-2.57,4.41c1.17-1.51,2.73-2.57,4.13-3.85-.06.05,3.13-2.78,1.69-1.8,3.49-2.36,7.53-2.63,10.52-5.91.67-.73,3.2-4.05,2.99-5.38-3.71,3.2-3.84,3.88-.4,2.04.93-.41,1.8-.91,2.62-1.5,3.05-1.82,5.19-4.16,7.8-6.43l-4.41,2.57c3.01-1.1,8.81-1.91,12.39-4.49,3.09-2.22,5.05-5.85,7.2-7.81,9.55-8.67-4.63-22.78-14.14-14.14Z"/>
  </g>
  <g>
    <path d="M749.76,702.16c1.51-.17,3.26,2.6,4.77,2.5s2.92-1.56,4.43-1.59,3,.43,4.52.47,2.91,1.28,4.42,1.39,2.99-.25,4.5-.08,3.22-1.36,4.71-1.13,2.95.73,4.44,1.03,3.31-.82,4.79-.47,2.25,3.41,3.7,3.82,3.72-1.81,5.16-1.34,2.81,1.29,4.24,1.81,1.93,3.41,3.34,3.98,3.12.32,4.51.93,2.61,1.53,3.97,2.19,3.78-.73,5.12-.03,1.52,3.56,2.83,4.31,3.58-.11,4.87.68,1.41,3.45,2.67,4.28,3.48.24,4.72,1.1,2.79,1.35,4.01,2.25,2.54,1.72,3.73,2.66,1.69,2.76,2.86,3.73,2.39,1.88,3.52,2.88,1.75,2.58,2.86,3.61,2.03,2.24,3.11,3.3,2.4,1.87,3.44,2.96,1.37,2.76,2.37,3.91,2.76,1.56,3.71,2.76.9,3.06,1.8,4.28,4.24.67,5.11,1.93-.07,3.68.75,4.96,2.39,2.05,3.17,3.35,1.67,2.52,2.42,3.84.42,3.21,1.15,4.54,1.18,2.76,1.88,4.11.61,3.04,1.28,4.39,1.65,2.52,2.3,3.88,2.83,2,3.46,3.37,2.2,2.33,2.81,3.72,1.21,2.78,1.8,4.17.2,3.2.77,4.59-.48,3.44.08,4.84.76,2.93,1.3,4.34,2.29,2.35,2.82,3.76,1.31,2.73,1.83,4.15.86,2.9,1.37,4.32,1.24,2.77,1.73,4.19.76,2.94,1.25,4.36-.02,3.2.46,4.62,2.17,2.46,2.64,3.88-.29,3.28.17,4.71,3.52,2.05,3.97,3.47-1.76,3.75-1.31,5.17,1.93,2.57,2.38,3.98,2.86,2.28,3.31,3.69-.72,3.42-.27,4.82.96,2.85,1.45,4.27-.75,3.51-.21,4.91,3.3,1.94,3.88,3.32.37,3.12.99,4.48,3.19,1.82,3.84,3.17-1.06,3.87-.38,5.2,2.85,1.91,3.56,3.23.97,2.9,1.7,4.2.85,3,1.62,4.28.87,3.03,1.66,4.29,2.72,1.86,3.53,3.11,2.31,2.08,3.15,3.31-.04,3.73.83,4.93,2,2.32,2.88,3.51,3.11,1.46,4.01,2.63.17,3.74,1.09,4.89,2.78,1.69,3.72,2.82c.99,1.19,3.13,1.35,4.08,2.45,1.01,1.18,2.79,1.59,3.75,2.67,1.04,1.17-.69,4.77.28,5.82,1.08,1.17,4.8-.27,5.78.75,1.13,1.18,1.05,3.32,2.02,4.29,1.22,1.23,2.61,1.94,3.52,2.82,2.09,2,2.02,1.11,1.28,3.23-1.35-.65-1.44-.53-2.81-1.14s-3.24.02-4.62-.56-1.94-3.14-3.34-3.68-2.36-2.29-3.77-2.8-3.84,1.9-5.26,1.43-1.97-3.68-3.4-4.12-3.82,2.41-5.26,2.01-2.26-3.08-3.71-3.45-2.73-1.57-4.18-1.9-2.99-.5-4.45-.8-2.98-.51-4.45-.77-3.17.75-4.65.53-3.02.07-4.51-.12-2.9-.96-4.38-1.11-2.91-1.21-4.4-1.32-3.12,1.89-4.61,1.81-2.88-3-4.38-3.04-3.04,1.51-4.53,1.51-2.99.22-4.49.25-3.01-.36-4.51-.29-2.94,1.02-4.43,1.12c-1.54.11-3.28-1.88-4.81-1.73s-2.86,2.44-4.4,2.62-3.34-1.8-4.88-1.6-3.1.29-4.63.5-2.85,1.94-4.38,2.17-3.01.78-4.54,1.01-3.17-.31-4.7-.09-2.71,2.92-4.24,3.14-3.09.35-4.62.55-3.31-1.57-4.85-1.4-2.98,1.23-4.52,1.37-3.11.08-4.65.18-3.07.91-4.61.97-3.12-.02-4.67,0c-1.51,0-3.01-1.91-4.52-1.95s-3.03.43-4.54.32-2.93-.96-4.44-1.12-3.19,1.28-4.69,1.07-2.64-2.6-4.13-2.86-2.91-.57-4.4-.88-3.66,2.44-5.13,2.08-2.26-3.3-3.72-3.72-3.49,1.1-4.93.64-2.89-.99-4.32-1.5-1.86-3.59-3.27-4.15-3.52.66-4.91.06-2.89-.97-4.26-1.62-1.86-3.02-3.2-3.72-2.89-.92-4.21-1.66-3.61.19-4.91-.59-1.98-2.56-3.25-3.39-1.85-2.62-3.09-3.48-3.93.27-5.14-.64-2.93-1.25-4.11-2.2-1.24-3.29-2.39-4.28-2.87-1.36-3.98-2.39-1.25-3.09-2.32-4.16-1.6-2.63-2.63-3.74-3.77-.67-4.77-1.81-.07-3.9-1.02-5.07-1.93-2.28-2.84-3.49-3.01-1.54-3.87-2.78-.65-3.19-1.47-4.46-1.7-2.47-2.47-3.77-3.04-1.75-3.77-3.08-.62-3.11-1.3-4.47.45-3.54-.18-4.91-2.86-2.01-3.45-3.4-.43-3.07-.96-4.48-.68-2.93-1.17-4.36-3.74-1.98-4.18-3.43.17-3.23-.22-4.7-.09-3.1-.43-4.58-1.47-2.79-1.76-4.27.02-3.09-.22-4.59-.57-2.98-.77-4.48,1.07-3.15.93-4.66.2-3,.11-4.51-1.11-2.94-1.15-4.45.06-3,.07-4.51-2.03-3.08-1.97-4.59,2.63-2.88,2.74-4.39-1.31-3.14-1.15-4.64,1.58-2.84,1.8-4.34-1.13-3.24-.86-4.73-.63-3.25-.31-4.73,3.67-2.25,4.04-3.72-2.36-3.8-1.93-5.25"/>
    <path d="M747.1,711.8c-2.23-1.46-2.07-1.25.48.61,1,.76,2.12,1.32,3.35,1.66,2.45.76,4.93.72,7.36-.05,1-.37,1.98-.8,2.94-1.28,1.33-.6.68-.5-1.93.3.07-.7,5.1,1.35,5.93,1.53,4.25.94,8.06-.09,12.17-.67-1.97-.36-1.97-.31,0,.14,1.35.37,2.73.6,4.14.7,1.45.06,4.5-.48,4.79-.47l-5.05-1.37c-1.85-2.04-2.24-2.33-1.17-.86.67.95,1.39,1.85,2.17,2.72,1.81,1.73,3.96,2.79,6.42,3.15,2.08.31,4.01.07,6.02-.61,3.73-1.27,3.15-1.51-1.75-.71,2.39.23,3.12.61,2.17,1.15l-3.59-3.59c1.22,1.76,2.21,3.66,3.77,5.16,2.89,2.78,5.53,2.32,8.93,3.58-1.41-.52.25.43.62.67,1.08.72,2.48,1.36,3.72,1.73,1.32.4,2.76.51,4.12.49,1.68-.03,5.26.44,1-.51l-4.41-2.57c-1.07-1.02.49,1.44.6,1.62.82,1.35,1.98,2.55,3.25,3.47,2.66,1.94,6.09,1.82,8.27,2.47l-4.41-2.57c-1.37-2.56-1.37-2.35,0,.62l.48.95c1,1.61,2.56,3.3,4.23,4.27,2.05,1.2,3.92,1.36,6.15,1.76,1.73.15,1.7.19-.1.11l1.38.69c1.07,1.02,2.72,1.5,3.81,2.54-2.37-2.29.89,1.77,1.29,2.21,2.16,2.37,4.53,4.31,6.66,6.76,1.87,2.15,4.29,3.86,6.12,5.94s3.38,6.8,6.67,7.42c1.33.9.88.18-1.33-2.15.21.81.5,1.58.86,2.34.85,2.04,1.91,3.58,3.61,5.02,2.45,2.07,5.03,2.28,7.89,3.22l-4.41-2.57.62.5-2.57-4.41c.36,1.13.4,4.32,1.25,6.15,1.03,2.21,2.6,3.48,4.1,5.28,1.88,2.25,2.63,6.03,3.8,9,1.68,4.27,2.83,8.26,5.6,12.05,1.05,1.44,2.13,2.39,3.53,3.48,1.65,1.29.17.66-.24-.16,1.19,2.37,2.34,2.56,3.1,4.83s-.37-2.33.15,1.46c.07.51.34,2.68.34,2.71.06,1.54.14,4.28.7,6.4,1.12,4.24,4.01,7.34,5.37,10.62,1.52,3.68,3.14,7.72,4.03,11.6.45,1.97.33,4.08.89,6.06.61,2.16,3.01,5.09,3.65,6.27l-1.37-5.05c.35,3.54-.18,6.83,1.75,10.08.66,1.12,1.55,2.06,2.49,2.92,1.42,1.31,3.84,4.19,1.27.22l-1.37-5.05c.76-2.7.57-2.54-.55.49-.52,1.18-.77,2.42-.75,3.73-.09,2.52.58,4.86,1.86,7.03.75,1.26,1.57,2.52,2.36,3.76-.22-.35,3.88,4.63,2.83,2.88l-1.37-5.05c.07.9-.4,4.23-.09,6.15.24,1.44.58,2.82,1.14,4.18l.38-1.44c-.16.87-.29,1.74-.39,2.62-.57,6.79,3.09,10.12,8.2,13.7l-3.59-3.59c-.59-.77.28,1.85.35,2.1.54,1.96,1.37,3.62,2.77,5.14.8.87,1.61,1.61,2.6,2.29.45.31,2.1,1.92,1.24.88l-2.57-4.41.15.94v-5.32c-.72,4.06-1.75,8.16.48,11.97,1.02,1.75,3.01,3.96,4.85,4.84,1.12.84.72.44-1.2-1.18.36.94.76,1.87,1.19,2.78,1.53,3.81,2.45,8.48,5.26,11.58,2.4,2.64,4.31,3.77,6.69,6.42l-2.57-4.41c.14.42.21,2.82.45,3.83.59,2.42,1.88,4.22,3.42,6.12.91,1.13,1.81,2.29,2.85,3.3.79.69,1.61,1.34,2.47,1.95,1.58.99,1.55.7-.08-.86l-1.37-5.05c.81,6.15,1.77,9.97,7.02,13.77,1.9,1.38,6.82,4.15,8.16,5.27l-2.57-4.41c-.07-.41-.06-.81,0-1.21-.27,1.21-.39,2.43-.37,3.66.1,2.82,1.2,5.77,3.22,7.79,3.48,3.48,7.72,3.09,12.16,3.35l-5.05-1.37.69.33-3.59-3.59c1.03,1.61,1.83,4.48,3.58,6.31.93.97,2.16,1.91,3.28,2.64.97.64,1.63,2.24.43-.1l-1.01-7.71c-.09.51-.25,1-.47,1.48l14.69-5.98c-1.54-.67-3.07-1.45-4.68-1.94-1.06-.33-6.33-2.44-3.49-.32l3.59,3.59c-2.73-3.65-5.38-6.71-8.96-8.94-2.06-1.28-4.38-1.99-6.81-1.98-1.68,0-3.22.52-4.75,1.15-2.61,1.07-2.52.23.27.32l5.05,1.37-.64-.44,3.59,3.59c-2.5-3.38-4.27-7.05-8.73-8.28-4.71-1.3-8.16,1.18-12.18,2.98l5.05-1.37-.79.04,5.05,1.37,1.4,1.39-1.56-2.02c-.81-.88-1.71-1.73-2.74-2.36-1.79-1.09-4-2.09-5.97-2.81-3.91-1.45-9.6-2.58-13.74-2.45s-6.89.58-10.85-.57c-2.63-.76-4.84-1.56-7.65-1.31-2.14.19-4.37,1.62-5.94,1.99h5.32l-.89-.34,4.41,2.57c-5.42-4.68-10.21-7.26-17.31-3.79-.78.35-.76.35.07-.01,1.12-.39.84-.44-.85-.16-1.24-.07-2.5,0-3.75-.08-3.38-.22-6.1.64-9.34,1.35h5.32c-2.93-.6-5.27-2.38-8.8-1.91-1.68.22-3.08.64-4.62,1.5l-.87.62c-3.13,2.12-2.64,2.18,1.47.2l5.05,1.37c-3.28-1.41-6.03-2.91-9.75-2.76-4.35.17-7.2,1.4-11.1,2.86-1.51.57-4.18.52-6.38.64-2.08.11-4.14.67-5.93,1.76-1.01.7-1.96,1.47-2.85,2.31-.9,1.03-1.06,1.17-.5.43l5.05-1.37c-.82.1-2.37,0-3.08.37-.04.02,2.31,1.13-.15.32-3.05-1-5.58-1.92-8.89-1.18-4.14.93-8.26,1.46-12.46,2.23-.19.03-2.96-.15-1.16.14s-1.53-.9-1.71-.98c-2.46-1.05-4.65-1.01-7.25-1.01-1.85,0-3.47-.6-5.37-.8-1.4-.14-2.42-.12-3.82.13-.67,0-1.32.13-1.92.39-1.27.36-.77.49,1.51.38l4.41,2.57c-3.69-3.05-6.49-4.92-11.34-5.8-5.21-.95-8.28.82-12.78,2.88l5.05-1.37-.79.05,5.05,1.37c3.63,2.17.25-.55-.89-1.64-1.85-1.78-4.04-2.86-6.55-3.26-1.86-.3-4.04-.38-5.81.34-1.11.27-.85.27.77,0-1.57-.45-1.94-.6-1.12-.45l3.59,3.59c-1.88-2.61-2.92-5.26-5.9-7.06-3.86-2.33-7.6-1.59-11.78-1.01h5.32c-1.88-.27-3.66-1.07-5.41-1.79l4.41,2.57c.4.95.29.86-.32-.27-.69-.98-1.41-1.93-2.16-2.85-1.46-1.52-3.21-2.38-5.13-3.16-1.13-.46-3.22-1.35-4.21-1.66-1.48-.47-4.32-.43-4.91-.59l4.41,2.57c-3.02-2.56-4-5.25-7.36-7.65-2.26-1.62-4.72-2.4-7.5-2.47-.58-.01-2.77-.32-.85.17,2.29.58-1.71-1.21-1.9-1.32l3.59,3.59c-.93-1.21-2.27-4.63-3.95-6.31s-4.05-2.55-6.01-3.95l3.59,3.59c-1.8-2.47-3.21-5.34-4.95-7.89-1.17-1.72-2.58-3.06-4.39-4.09.23.13-5.51-2.34-3.97-1.31l3.59,3.59-.4-.85,1.37,5.05c-.35-3.21-.23-6.37-1.99-9.27-1.3-2.15-5.26-7.59-7.84-8.15-1.38-.86-.92-.18,1.38,2.05-.11-.84-.37-1.63-.77-2.38-.57-1.52-1.32-2.78-2.21-4.13-1.94-2.97-4.58-4.85-6.55-7l2.57,4.41c-1.26-3.58-.54-4.8-1.28-8.22-.47-2.17-1.3-3.91-2.77-5.57-.7-1.04-1.62-1.87-2.75-2.48,1.25,2.38,1.71,2.8,1.37,1.25.24-2.3-1.77-7.5-2.87-9.33-1.82-3.04-4.49-4.06-7.11-6.03l3.59,3.59-.43-.66,1.37,5.05c-.48-4.45-.07-9.08-1.55-13.37-.06-.17-1.35-3.67-.99-1.7-.17-.96,0-2.09-.09-3.07-.12-1.39-.38-2.78-.62-4.15l-.27-1.49c.02,1.68.15,1.98.4.91,1.01-.83.66-5.29.69-6.65.06-2.52-.46-4.7-.88-7.14-.3-1.76-.07-3.59-.31-5.41-.28-2.13-1.75-4.32-2.15-5.92v5.32c-1.19,3.57.46.51,1.41-1.11.55-.95,1.04-2.2,1.33-3.28.47-1.75.49-4.67-.16-6.47-1.09-3.07-2.07,2.84-.84,1.51,4.09-4.41.82-11.51.83-16.14l-1.37,5.05c-1.96,1.83-2.19,2.21-.69,1.16.94-.69,1.86-1.42,2.76-2.17,1.31-1.36,2.48-3.29,2.98-5.09s.45-4.33-.04-6.11c-.46-1.1-.92-2.19-1.39-3.28-.85-1.69-.9-1.2-.14,1.49-.33-12.85-20.33-12.9-20,0,.1,3.81,1.82,6.18,3.25,9.5l-1.37-5.05.04.8,1.37-5.05c1.92-1.83,2.14-2.22.65-1.16l-2.02,1.56c-1.06.98-1.96,2.06-2.67,3.32-1.89,3.35-1.38,7.29-1.01,10.94l.36,2.66c.47,2.24.77,1.59.9-1.97.14.13-1.72,3.87-1.89,4.56-.86,3.64.68,6.49,1.15,9.96v-5.32l-.32.89,2.57-4.41c-1.96,2.54-4.19,4.67-4.99,7.91-.53,2.13-.34,4.37.28,6.46.32,1.05.77,2.04,1.35,2.96.52.97.5.75-.05-.67.16,3.03.88,6.04,1.1,8.96s-1.06,4.26-1.02,7.66c.03,2.93.72,6.12.99,9.07.22,2.46,1.15,4.15,1.88,6.49-.7-2.25.48,4.13.46,3.51.1,3.19-.05,6.05,1.65,8.92,1.8,3.03,4.46,4.1,7.1,6.03l-3.59-3.59c.46.67.97,5.2,1.57,7.11,1.11,3.53,4.31,5.66,6.02,7.82l-2.57-4.41c.05.28-.12,3.46.18,4.91s.79,3.04,1.3,4.47c.72,2.03,1.81,3.77,3.36,5.27.97.84,2,1.6,3.1,2.26-1-1.02-1.15-1.07-.46-.16,1.66,2.37,1.74,5.63,4.29,8.37,2.18,2.33,4.54,2.83,5.53,5.12l-1.37-5.05c.36,3.69.42,7.15,2.79,10.26,1.27,1.67,2.89,2.77,4.78,3.6.34.15,4.18,1.66,2.79.79l-3.59-3.59c1.8,2.43,3.07,4.9,4.61,7.43,2.05,3.34,4.91,4.4,7.91,6.44l-3.59-3.59c2.23,3.08,3.72,6.68,8.02,8.98,1.69.9,3.47,1.96,5.33,2.43-.27-.07,6.13.97,4.26.31l-4.41-2.57c1.79,1.72,4.62,5.75,7.36,7.65,2.53,1.76,4.83,2.18,7.84,2.46,2.24.21-3.02-1.44.65.02,1.34.53,2.69,1.01,4.03,1.56l-4.41-2.57c-.42-.91-.31-.81.31.3.7.97,1.42,1.91,2.17,2.84,1.65,1.7,3.68,2.59,5.84,3.43,1.57.61,3.07,1.17,4.71,1.5,1.79.36,5.66.04,6.41.13l-5.05-1.37.63.47-3.59-3.59c2.53,3.59,4.25,6.58,8.61,8.28,2.25.88,4.54,1.74,6.98,1.85,1.6.07,4.14-.65,4.93-.64l-5.05-1.37c-4.58-2.9,2.45,2.94,2.91,3.23,1.78,1.13,3.72,1.85,5.86,1.85,3.67,0,6.25-1.89,9.38-3.37l-5.05,1.37c-1.11.1.88-.18,1.06.18-1.14-2.29-1.38-1.12-.08-.13,2.49,1.9,5.06,3.59,8.34,3.62,1.12,0,2.81-.06,3.81-.46,2.36-.95-1.13-1,.44-.39,2.35.9,5.44,1.2,7.9.66-.81.18-1.98-.78-.15.21,1.09.59,2.32,1.01,3.52,1.3,2.7.65,5.91.5,8.66.19,5.11-.58,10.14-1.39,15.11-2.7h-5.32c.97.14,3.25,1.07,4.85,1.4,2.32.47,4.23.19,6.51-.09s4.6-.57,6.7-1.85c1.01-.7,1.96-1.47,2.85-2.31.9-1.02,1.06-1.17.5-.44l-5.05,1.37c4.06-.07,7.96-.04,11.89-1.28,1.64-.52,3.07-1.32,4.58-2.1-1.83.15-1.76.14.23-.05.83-.21,1.66-.23,2.49-.06l-5.05-1.37c2.94,1.25,5.67,2.84,8.98,2.86,1.98,0,4.25-.75,5.95-1.69,1.38-.77,5.39-2.77,1.11-1.29h-5.32c1.77.33,3.93,1.71,6.14,1.91,2.81.26,5.35-.78,8.01-.81,2.26-.03,4.47.12,6.74-.09s5.96-1.62,7.19-1.86h-5.32l.89.32-4.41-2.57c2.47,2.11,4.64,4.39,7.9,5.29,3.94,1.08,6.89-1.15,9.93-1.81h-5.32c4.63,1.13,8.85,2.71,13.7,2.83,1.01.03,2.02.07,3.02.02.61-.03,3.8-.51,3.07-.5-.91.01,1.53.23,1.87.29,1.22.21,2.52.35,3.72.65.68.17,1.26.39,1.87.6,4.96,1.77-.37.07.02-.84-.46,1.09,4.43,4.5,5.1,4.87,5.39,3.02,9.72.14,14.57-1.98l-5.05,1.37.79-.02-5.05-1.37.65.42-3.59-3.59c2.29,3.05,3.75,6.2,7.53,7.79,2.31.98,4.85,1.13,7.3.53,1.13-.35,2.22-.78,3.29-1.3,1.73-.76,1.24-.69-1.47.21l-5.05-1.37c.78.46,3.13,2.35,4.52,3.34l-3.59-3.59c1.87,2.47,3.41,5.11,6.17,6.73,1.98,1.17,4.33,1.36,6.56,1.63.54.06,2.43.75.87.07,6.23,2.72,12.29.6,14.69-5.98,1.15-3.15,1.03-6.62-.73-9.55-.85-1.41-1.91-2.39-3.13-3.41-.67-.56-1.36-1.1-2.06-1.63-1.49-1.35-1.44-.96.16,1.16-.99-.68-1.34-3.47-2.08-4.61-1.1-1.7-2.48-2.96-4.28-3.92-3.15-1.68-6.08-1.08-9.4-1.4l5.05,1.37-.73-.39,4.6,5.98c-.21,2.89-.18,3.26.06,1.12.09-.64.17-1.27.26-1.91.06-1.41.08-2.88-.29-4.27-.88-3.37-3.05-5.51-5.76-7.45-1.25-.89-2.68-1.92-4.36-2.9-.7-.41-.51-.13-1.43-.7l-2.02-1.56c-1.49-1.03-1.38-.81.33.69l1.37,5.05c-.52-4.01-.6-8.05-3.64-11.13-1.19-1.2-2.75-1.85-4.03-2.86-.42-.33-2.11-2.33-2.86-3.28l2.57,4.41c-1.12-3.31-.71-6.48-3.9-9.91-1.11-1.19-2.24-2.47-3.43-3.58l-2.02-1.56c-1.6-1.19-1.34-.92.79.81-.1.04-3.32-8.48-3.32-8.5-.87-2.14-1.61-4.08-3.17-5.8-1.02-1.13-3.09-2.66-3.56-3.23l2.57,4.41-.16-.92v5.32c.64-3.72,1.54-7.1.04-10.79-.79-1.94-2.09-3.4-3.67-4.72-.45-.37-3.14-2.82-2.24-1.67l2.57,4.41c-.75-2.74-.98-5.17-2.57-7.61s-4.02-3.76-6.34-5.42l3.59,3.59-.56-.75,1.37,5.05c-.15-1.43.3-5.81-.39-8.28-.37-1.33-1.31-3.07-1.07-.64-.16-1.6.56-3.42.49-5.09-.3-6.42-4.91-8.32-7.06-12.72l1.37,5.05c-.75,2.72-.56,2.57.56-.47l.39-1.08c.62-2.5.48-5.1-.5-7.47-.67-1.62-1.55-2.9-2.84-4.15-.79-.62-1.58-1.24-2.38-1.84-1.48-1.01-1.23-.57.74,1.33l1.37,5.05c-.28-2.93.03-5.73-1.03-8.56-.48-1.27-1.04-2.12-1.83-3.21-.37-.51-.76-1-1.17-1.48-.63-.79-.53-.61.3.55,1.01,1.82,1.12,1.27.33-1.65l-.23-1.52c-.22-.96-.52-1.96-.81-2.91-.66-2.18-1.67-4.21-2.4-6.35-1.52-4.46-2.84-9.6-6.12-13.14-1.11-1.19-.48-.88-.12.2-.16-.47-.68-2.75-.68-2.78-.1-1.06-.08-3.69-.32-5.4-.75-5.28-2.75-9.98-6.06-14.16-.98-1.23-2.89-3.26-4.54-4.78-1.44-1.32-.15-.79.11-.19-.24-.56-.86-1.03-1.04-1.63-1.14-3.88-2.56-7.77-3.83-11.6-1.56-4.69-5.12-7.94-8.17-11.6l2.57,4.41c-.95-3.14-.46-6.54-3.63-9.62-1.51-1.47-3.16-2.37-5.17-2.97-.86-.26-3.19-1.44-1.65-.28l3.59,3.59c-.61-1.16-1.76-4.6-3.37-6.31-.98-1.05-2.27-1.77-3.37-2.65-.87-.7.94,1.77-.3-.75-1.33-2.7-3.77-4.24-5.86-6.22-1.88-1.78-3.28-3.82-4.96-5.76-1.19-1.37-3.69-3.12-4.38-3.88-1.93-2.13-3.25-4.13-5.64-5.89-2.06-1.52-4.17-2.93-6.46-4.07s-6.23-1.93-7.77-2.5l4.41,2.57c1.17,2.16,1.35,2.34.53.55-.28-.74-.6-1.45-.99-2.13-.81-1.35-1.97-2.55-3.23-3.47-2.67-1.96-6.01-1.85-8.27-2.47l4.41,2.57c.77.76.13-.24-.07-.68-.55-1.21-1.48-2.38-2.42-3.31-2.18-2.16-5.23-3.45-8.33-3.46-.62,0-3.57.13-3.73.46.57-1.2,4.86,2.1,1.94-.36-2.22-1.87-5.58-2-8.24-2.63l4.41,2.57c.35.88.23.72-.39-.5-.68-1.01-1.41-1.99-2.19-2.93-1.64-1.64-3.52-2.47-5.6-3.37-2.49-1.08-4.63-2.02-7.42-1.92-1.31-.02-2.55.23-3.73.75-3.04,1.11-3.2,1.31-.48.6l5.05,1.37c.73.43,2.26,2.75,1.17.83-.53-.94-1.39-1.93-2.17-2.7-2.03-1.99-4.94-3.21-7.75-3.31-1.28-.04-2.56.06-3.82.32-1.92.4-.72-.19.21.16-2.5-.93-5.51-1.22-8.1-.76-2.4.42-2.17.88-4.47.87-2.46-.01,2.33.97-1.33-.11-1.42-.42-2.52-.81-4.01-1.04-2.38-.36-4.78-.74-7.17-.47-1.89.21-4.82,1.53-5.76,1.77h5.32l1.54.9c-.79-.69-1.62-1.32-2.51-1.88-1.18-.7-2.46-1.23-3.8-1.53-12.54-2.77-17.9,16.51-5.32,19.29h0Z"/>
  </g>
  <path class="cls-1" d="M741.75,333.62c.76,1.1,1.52,2.2,2.48,3.13,1.1,1.07,3.28,3.91.97.4l-1.37-5.05c.35-1.03.32-.89-.09.42-.29,1.22-.48,2.46-.58,3.71-.05,2.22.51,4.37,1.65,6.26s2.62,3.24,4.47,4.32c1.06.51,2.14.97,3.24,1.4-.87-.38-.86-.31.04.22l-3.59-3.59.39.56-1.37-5.05c.83-2.53.97-3.17.4-1.94-.46.93-.88,1.89-1.24,2.86-.43,1.41-.68,2.87-.65,4.35.07,4.08,2.8,6.14,4.39,8.89l-1.37-5.05c.28,4.6.35,8.57,2.11,12.95.76,1.9,1.92,3.22,3.16,4.84,1.18,1.19,1.03,1.01-.45-.52.52,1.49.54,1.92.07,1.3l1.37-5.05c-1.39,3.11-2.57,5.54-2.96,9.05-.6,5.38,5.02,10,10,10,5.9,0,9.4-4.61,10-10l.1-.95-1.37,5.05c1.6-3.51,3.13-6.36,2.77-10.37s-1.25-7.96-3.95-11.11c-.32-.42-.67-.81-1.06-1.17-.77-.8-.54-.48.7.94.01-.04-.39-3.07-.4-3.43-.07-2.32-.36-4.53-1.46-6.6-.76-1.44-2.44-2.87-3.03-3.85l1.37,5.05c-.85,2.69-.9,3.17-.15,1.46.52-1.06.96-2.16,1.31-3.28.7-2.83.4-5.94-1.03-8.5-1.09-1.94-2.74-3.48-4.65-4.6-1.06-.51-2.14-.98-3.23-1.4.87.38.85.31-.05-.22l3.59,3.59-.4-.55,1.37,5.05c.13,1.49.21-.89.33-1.48.41-2.04.46-4.21-.1-6.25-.51-1.87-1.77-3.81-3.08-5.19-1.12-1.18-3.98-4.55-1.37-.73-3.05-4.45-8.78-6.45-13.68-3.59-4.41,2.58-6.65,9.2-3.59,13.68h0Z"/>
  <path class="cls-1" d="M708.75,355.31c.65,1.26,1.56,2.3,2.21,3.56l-1.37-5.05c.22,1.92-.17,3.71.13,5.67.4,2.6.96,5.6,2.32,7.89,1.14,1.92,2.87,3.33,4.8,4.37.95.51,2.05.94,3.09,1.25,2.27.66-1.4-.99.12.04l-3.59-3.59.27.39-1.37-5.05c-.11-1.4.02-.5-.19.56-.27,1.3-.5,2.64-.39,3.97.43,5.38,4.29,10,10,10,5.08,0,10.43-4.59,10-10,.07.9-.15,1.05.09-.09s.57-2.41.57-3.6c0-2.66-.79-5.24-2.48-7.29-1.47-1.77-3.01-2.81-5.08-3.67-.41-.17-1.65-.85-2.26-.86-1.04-.02,1.53.94.24.07l3.59,3.59c1.26,1.82-.07-1.17-.02-.36-.08-1.09.24-2.18.17-3.3-.25-3.55-2.07-5.67-3.57-8.61-2.46-4.8-9.2-6.21-13.68-3.59-4.88,2.85-6.06,8.86-3.59,13.68h0Z"/>
  <path class="cls-1" d="M320.73,308.76c-1.25,1.42-3.82,3.3-5.27,5.29-1.69,2.31-3.12,4.75-4.58,7.21s-3.29,4.61-4.02,7.45c-.83,3.23.06,6.05.58,9.19v-5.32c.15-.92,1.7-2.32.19-.67-1.14,1.25-2.04,2.66-2.69,4.2-.75,1.76-.97,5.15-1.16,5.97l2.57-4.41c.86-1.08-.91.68-1.36.99-2.05,1.42-3.73,3.19-4.68,5.53-1.5,3.67-.63,7.01-.05,10.73v-5.32c-.17,1.16-1.92,3.92-2.62,5.44-1.35,2.92-1.67,5.45-2.2,8.54-.91,5.32,1.41,10.77,6.98,12.3,4.81,1.32,11.38-1.63,12.3-6.98.46-2.66.31-3.68.87-5.14.65-1.69,1.64-3.21,2.46-4.81,2.22-4.36,1.6-8,.9-12.62v5.32l.15-.94-2.57,4.41c-.7.89.86-.66,1.35-.99,1-.69,1.82-1.44,2.62-2.31,1.5-1.64,2.35-3.43,2.85-5.56.2-.86,1.34-5.93-.18-2.51-1.68,3.78,1.77-1.52,1.78-1.53.78-1.2,1.36-2.45,1.72-3.85.83-3.23-.07-6.05-.58-9.19v5.32c.22-1.33,3-4.86,4.03-6.5.33-.52,2.97-4.07.9-1.9,1.15-1.19,2.75-1.91,3.88-3.2,3.57-4.05,3.99-10.15,0-14.14-3.64-3.64-10.56-4.07-14.14,0h0Z"/>
  <path class="cls-1" d="M278.83,310.26c-.37,2.41-.59,4.41.09,6.8.44,1.1.9,2.2,1.37,3.29-.29-.82-.3-.74-.03.26v-5.32l-.1.67,2.57-4.41c2.35-1.29,2.65-1.61.91-.97-1.1.44-2.19.91-3.26,1.41-2.06,1.26-3.72,3.12-4.64,5.34-1.64,3.96-.36,7.26.38,11.15v-5.32l-.13.77,2.57-4.41c.64-.67,3.18-1.48,1-.93-1.05.26-2.29.86-3.24,1.42-2.77,1.64-4.31,4.31-5.42,7.24-1.78,4.71-1.64,8.28-.7,13.18v-5.32c.03-.17-1.35,2.11-1.51,2.39-.76,1.32-2.94,3.4.05,1.68,4.34-2.51-2.33.53-1.98.35-1.28.67-2.42,1.48-3.43,2.53-8.96,9.25,5.17,23.41,14.14,14.14-2.13,2.2-2.08,1.39.23.44,1.52-.62,2.88-1.33,4.08-2.47,1.99-1.88,2.87-4.27,4.18-6.58s2.81-4.19,3.45-6.7c.84-3.28-.08-6.03-.69-9.18v5.32c.27-1.76,1.07-3.51,1.74-5.16l-2.57,4.41c-2.39,1.28-2.72,1.59-1,.93,1.1-.42,2.19-.89,3.24-1.42,2.06-1.27,3.71-3.12,4.63-5.35,1.64-3.96.36-7.26-.38-11.15v5.32l.13-.77-2.57,4.41c-2.35,1.29-2.65,1.61-.91.97,1.1-.44,2.19-.91,3.26-1.41,2.41-1.47,4.36-3.81,5.15-6.54.65-2.23.54-4.58-.09-6.8-.44-1.1-.9-2.2-1.37-3.29.29.82.3.74.03-.26v5.32l.1-.67c.82-5.33-1.35-10.75-6.98-12.3-4.74-1.3-11.48,1.61-12.3,6.98h0Z"/>
</svg>