<?xml version="1.0" encoding="UTF-8"?>
<svg id="_レイヤー_2" data-name="レイヤー 2" xmlns="http://www.w3.org/2000/svg" viewBox="0 0 1000 1000">
  <path d="M619.39,160.87c.2-.82-.24.56-.32.77-.66,1.63-1.3,3.02-1.53,4.78-.18,1.39-.14,2.4.07,3.79-.02-.11.48,3.25.48,2.17l1.37-5.05c-.91,1.54-3.4,3.4-4.12,6.01-.61,2.21.05,6.54-.07,7.51l2.93-7.07c-1.04,1.32-4.66,4.36-6.46,6.42-3.19,3.65-2.64,6.51-4.61,10.05,1.78-3.2-.95.06-2.27,1.06-1.15.86-2.47,1.65-3.6,2.61-2.6,2.22-5.15,4.29-7.8,6.48s-5.33,4.85-5.83,8.41c-.33,1.08-.16.68.51-1.19-2.22,2.49-2.09,2.69.39.59-.13-.26-4.11,1.66-4.48,1.87-1.32.74-2.46,1.83-3.8,2.55-2.15,1.16-4.1,1.54-5.88,3.34-2.5,2.53-2.97,5.59-4.11,8.75l2.57-4.41c.62-.74-.98.32-1.16.37,3.68-.1,4.31-.27,1.91-.49-.62-.11-1.25-.18-1.88-.22-3.08-.04-6.28.91-8.52,3.13-.98.97-4.12,4.82-3.6,6.3-.42,1.2.02.76,1.34-1.31,1.86-1.69,2.12-2.19.78-1.51-1.12.12-2.4,1.07-3.41,1.51-4.27,1.87-8.06,4.24-12.12,6.48-.56.31-3.05,1.27-1.33.78-1.34.38-2.79.28-4.14.69-1.63.49-3.03,1.38-4.32,2.47.04-.03-2.09,2.2-1.51,1.78l5.05-1.37c1.63-.18.22-.22-.97-.58-1.41-.42-2.89-.56-4.34-.52-2.23.07-4.12.81-5.97,2.03-.72.47-2.6,2.58-2.55,2.54l5.05-1.37c.56.53.21.54-1.05.05-1.26-.38-2.53-.46-3.81-.24-2.66.16-4.79,1-6.81,2.65-.66.4-1.22.92-1.67,1.54-2.09,2.51-2.1,2.69-.02.53-.37.76-3.53,2.87-3.65,2.95l5.05-1.37c-1.1.11-5.27-.43-7.46.17s-5.09,3.14-6.14,3.75l5.05-1.37,1.92.45-2.39-1.01c-1.21-.4-2.44-.73-3.73-.75-2.99-.06-5.37,1.07-8,2.34-4.17,2.02-5.82,4.92-8.19,8.62l3.59-3.59-.63.46,5.05-1.37-.79-.04,5.05,1.37c-3.28-1.54-5.71-3.61-9.61-3.52-2.18.05-4.01.74-5.82,1.87-.51.32-7.53,6.27-2.75,3.15l5.05-1.37c-2.41.23-4.86-.12-7.25.54s-4.25,2.15-6.38,3.19l5.05-1.37c-3.44.28-8.87-.46-12.75,3.31-1.29,1.05-1.22,1.12.19.2-1,.25-1.91.66-2.73,1.23-2.18.95-4.29,2.01-6.47,2.94l5.05-1.37c-4.02.45-8.09.4-12.12.72-2.67.21-5.03.55-7.33,2.02-.52.33-7.59,6.07-2.83,3.11l5.05-1.37c-.66.02-4.47-.6-5.73-.75-3.81-.45-6.71-.16-10.23,1.61-1.57.82-1.79.97-.65.45l-2.66.36c-1.7.36-3.39.92-4.89,1.83-2.28,1.38-3.18,2.42-5.41,3.66-.44.24-2.9,1.47-2.92,1.4,2.73.19,3.37.17,1.91-.04-1.09-.19-2.18-.34-3.28-.46-1.8-.05-3.55.39-5.22.97l-2.39,1.01c2.66.09,3.27-.01,1.82-.3-2.53-1.8-7.95-.05-10.17,1.31-2.77,1.7-3.88,4.39-5.74,6.83l3.59-3.59c-1.1.72-3.96,1.42-6.15,1.92-.28.07-3.57.83-3.58,1.14,3.52.94,4.18.98,1.97.14-.73-.34-1.49-.63-2.26-.87-3.14-.81-6.59-.27-9.3,1.45s-3.84,4.35-5.7,6.82l3.59-3.59-.65.44,5.05-1.37c-1.05.1-5.31-.36-7.45.23-2.27.62-4.95,3.06-6.22,3.78l5.05-1.37c-.66.04-3.37-.53-4.92-.45-2.39.12-4.72.94-6.94,1.79-4.38,1.66-6.08,4.73-8.69,8.25l3.59-3.59-.64.44,5.05-1.37c2.62.76,3.06.73,1.34-.1-1.09-.49-2.2-.94-3.32-1.37-1.86-.47-4.23-.51-6.11,0-2.73.75-3.99,2.67-6.32,3.96,3.24-1.79-1.99.13-1.65.08-.79.13-3.37-.11-4.9.28-1.8.47-3.76,1.27-5.44,2.06-3.75,1.77-5.19,4.68-7.37,7.9l3.59-3.59c.67-.5-.77.42-1.06.51-1.27.39-2.61.95-3.8,1.54-.83.41-1.76,1.29-2.62,1.56,2.6-.82-.15-.71-1.31-.62-5.45.41-8.04,4.08-11.08,8.1l3.59-3.59-.75.55,5.05-1.37c2.42.78,3.02.89,1.79.33-.55-.29-1.12-.54-1.7-.75-1.55-.65-3.08-1.14-4.79-1.18-3.44-.08-6.3,1.41-8.83,3.59-1.25,1.08-2.74,2.7-4.45,4.01,1.67-1.28.47-.48-1.05-.04s-3.11,1.09-4.46,1.9c-.41.25-2.04,1.06-.66.59-2.54.86-4,.58-6.53,1.72-2.12.96-4.2,1.92-6.05,3.33-4.2,3.2.8-.07.86.06-.31-.63-3.98.15-4.54.3-1.45.37-2.67.96-3.9,1.77l-2.02,1.56c-1.35,1.26-1.04,1.29.91.08h5.32c-4.06-.61-8.08-1.65-11.89.58-1.61.94-3.2,2.52-4.18,4.09-.41.66-2.32,3.22-.75,1.89l7.07-2.93c.91-.12.39.13-.52-.12-1.16-.32-2.56-.59-3.76-.59-3.11,0-6.12,1.19-8.35,3.35-3.33,3.24-2.49,4.01-6.03,6.81l4.41-2.57c1.27-.35-4.98.8-3.51.44-1.16.29-2.44.72-3.47,1.32-1.4.82-2.5,2.06-3.72,3.08.88-.73-1.36.93-1.54,1.15-.9,1.07,2.11.05-.49.07-1.69.01-3.43.48-4.96,1.15-3.07,1.36-4.42,4.03-6.2,5.74l4.41-2.57c1.1-.39-2.06.49-2.14.5-1.74.32-3.17.63-4.78,1.58-2.1,1.23-3.8,4.26-4.85,5.36l4.41-2.57c1.03-.32.45-.12-.4-.18-1.19-.07-2.58.06-3.71.36-2.32.61-4.44,1.9-6.12,3.61-1.04,1.06-2.07,2.24-3.08,3.34-.45.5-2.19,2.2-2.26,2.95.14-1.64,4.13-3.13-.24-1.55-2.37.85-4.02,2.43-5.94,3.98-1.73,1.4,1.7-.72-.24-.3-1.2.26-2.47.75-3.55,1.37-2.32,1.31-4.01,3.24-5.02,5.69-.52,1.27-.68,2.07-.86,3.44-.34,2.63-1.08,2.69.51-.03l3.59-3.59c-2.92,1.96-5.31,2.39-8.26,4.3-3.77,2.44-5.84,6.12-8.41,9.6-2.29,3.1-5.49,5.5-7.12,9.06-.81,1.77-1.44,3.86-1.11,5.83.09,1.77.26,1.56.49-.65-.54.82-1.05,1.65-1.55,2.49-6.69,11.04,10.6,21.1,17.27,10.09,1.29-2.13,2.81-4.12,3.48-6.56.32-1.15.5-2.46.47-3.66-.02-.56.2-2.51-.27-1.03l-2.57,4.41c2.14-2.67,4.62-5.08,6.71-7.79.91-1.18,2.04-2.6,2.62-3.95l1.06-1.07c-1.58.65-1.56.71.06.17,3.11-1.05,6.93-3.23,9.24-5.54,1.32-1.32,2.43-3.27,2.96-5.08.23-1.18.41-2.38.53-3.58.18-1.88-.04-1.42-.67,1.38l-3.59,3.59c-.58.28,2.43-.43,2.41-.42,1.64-.6,2.93-1.44,4.27-2.55.5-.42,3.39-2.14,1.71-1.49-1.89.74,3.58-.94,3.13-.72,4.44-2.26,5.85-5.75,9.17-8.73l-4.41,2.57c-1.61.54.93.18,1.45.16,1.65-.06,3.24-.45,4.73-1.14,2.96-1.37,4.39-4.18,6.05-5.86l-4.41,2.57c-1.07.39,1.99-.49,2.13-.51,1.74-.32,3.17-.62,4.78-1.56,2.03-1.19,3.95-4.25,5-5.24l-4.41,2.57c.09-.02,3.07-.08,4.22-.4,1.81-.49,3.26-1.36,4.81-2.34s3.61-2.07,4.79-3.42c2.23-2.54-4.79.19-1.07.11,4.05-.09,7.04-2.13,9.81-4.87.77-.76,1.59-1.46,2.36-2.22.78-.91,1.49-1.87,2.13-2.88.62-1.14.7-1.26.24-.36l-4.41,2.57.93-.13h-5.32c4.13.89,7.99,2.04,11.99-.29,1.61-.94,3.19-2.52,4.18-4.09.42-.67,2.32-3.21.75-1.88l-4.41,2.57.92-.16h-5.32c2.89.43,5.63,1.24,8.58.58.83-.18,7.39-2.59,7.09-4.31.15.89-4.96,1.02-1.54,1.47,1.44.19,3.62-.49,5.01-1.04,2.1-.84,4.31-2.9,5.57-3.61.34-.19,3.08-1.21,1.41-.75,1.35-.37,2.79-.29,4.15-.71,2.43-.74,4.58-2.05,6.97-2.81,5.26-1.68,7.36-5.36,11.02-7.71l-5.05,1.37c-2.61-.84-3.03-.86-1.28-.09,1.08.52,2.19.96,3.33,1.33,1.91.47,4.23.48,6.11-.04,4.09-1.13,6.2-4.6,8.6-7.76l-3.59,3.59c-1.05.76-2.76.67-.6.96,1.45.2,3.61-.48,5-1.02,1.96-.75,3.67-1.97,5.58-2.82,2.34-1.04,4.58-1.7,6.45-3.57,1.56-1.56,2.31-3.59,3.52-5.37l-3.59,3.59c1.56-1.15,4.71-.51,7.97-1.39,3.79-1.02,7.12-3.41,9.78-4.95l-5.05,1.37c-2.62-.76-3.06-.73-1.34.09,1.09.48,2.2.94,3.32,1.37,2.44.62,5,.47,7.31-.51,3.75-1.58,5.23-4.7,7.49-7.74l-3.59,3.59c-.81.55,3.47-1.06-.32-.64,1.55-.17,3.47.65,5.12.58,3.82-.16,6.45-2.76,8.88-4.14l-5.05,1.37c2.36-.24,6.85.51,10.17-1.46,3-1.79,4.07-4.45,6.02-7.04l-3.59,3.59.65-.43-5.05,1.37c-2.32-.72-2.56-.73-.73-.02.73.34,1.49.63,2.26.87,1.98.52,4.29.45,6.26,0,2.66-.62,5.34-1.49,7.99-2.16s5.65-1.99,7.94-3.4c2.73-1.68,3.89-4.42,5.74-6.83l-3.59,3.59.66-.43-5.05,1.37c.62-.02,3.34.63,4.89.56,1.43.01,2.79-.29,4.07-.89,3.23-.99,3.19-1.33-.13-1.02-.04.18,4.63.5,5.05.48,2.62-.11,4.49-1.09,6.85-2.1,3.08-1.31,6.94-3.19,9.44-5.51,1.61-1.22,1.22-1.11-1.15.34,1.39-.13,2.77-.35,4.14-.65,2.26-.7,4.3-2,6.47-2.92l-5.05,1.37c2.34-.05,5.85,1.11,8.96,1.1,2.38-.01,4.41-.6,6.41-1.87.52-.33,7.59-6.06,2.83-3.11l-5.05,1.37c5.63-.61,12.12.22,17.46-1.75,2.34-.86,4.55-2.11,6.83-3.1s4.87-3.05,6.39-3.89l-5.05,1.37c-.71.06.42-.2.89-.1,1.73.35,3.38.41,5.12.09,2.93-.54,5.1-2.09,7.71-3.36l-5.05,1.37c3.31-.31,6.59.2,9.64-1.54.96-.55,2.02-1.29,2.8-2.07.96-.96,4.32-3.96.72-1.59l-5.05,1.37.79.04-5.05-1.37c4.04,1.9,7.47,4.48,12.27,3.16s6.26-5.02,8.57-8.65l-3.59,3.59c1.37-1.01,3.1-1.71,4.65-2.42l-5.05,1.37c-2.3-.64-2.54-.62-.72.07.74.34,1.5.63,2.27.9,1.58.42,3.32.44,4.93.18,3.09-.5,5.61-2.84,7.47-3.93l-5.05,1.37c3.36-.32,7.91.5,11.82-2.56,1.13-.88,1.68-1.43,2.44-2.06.58-.48,7.66-6.2,2.7-2.87l-5.05,1.37c1.28-.13,5.24.46,7.51-.17,1.21-.33,2.28-.99,3.32-1.66-.28.18,2.93-2.83,2.54-2.55l-5.05,1.37c-1.42.14-.74-.02.49.39.94.32,1.71.5,2.72.61,2.95.32,5.59-.32,8.07-1.94.96-.52,1.77-1.2,2.42-2.03.72-.7.48-.71-.74-.03-1.58.51-1.52.6.19.26.95-.08,1.89-.26,2.81-.52,2.37-.72,4.88-2.17,6.99-3.45,3.55-2.16,7.01-4.23,10.88-5.76,2.64-1.04,5.04-1.79,7.05-3.94.81-.86,1.39-1.83,1.93-2.85.49-.92.88-1.88,1.15-2.87.42-1.25,0-.73-1.25,1.56l-4.41,2.57-2.16.02,2.66.36c1.25.05,2.53.02,3.75-.29,2.24-.57,4.65-1.77,6.64-2.94,4.34-2.55,5.26-6.29,6.79-10.66l-2.57,4.41c-1.62.93-1.63,1.02-.03.27.87-.33,1.7-.73,2.51-1.19,1.05-.59,1.98-1.43,3.03-2.03,1.23-.7,4.89-1.96,6.81-3.73,1.68-1.55,3.92-4.09,5.05-6.09.7-1.24.93-3.09,1.66-4.32-1.12,1.88-.81,1.49.66.78,2.27-1.08,4.24-3.2,6.12-4.85,1.73-1.52,3.67-2.91,5.54-4.35,5.51-4.24,6.61-9.23,9.07-15.28l-2.57,4.41c2.35-2.62,4.06-3.71,6.46-6.42,3.44-3.88,2.39-8.18,2.65-11.92l-1.37,5.05c1.84-2.72,4.47-4.6,4.48-9.23.03-1.08-.08-2.15-.35-3.22-.29-1.73-.49-1.58-.59.45-1.15,3.88,1.24-1.7,1.52-2.87,3.02-12.51-16.26-17.84-19.29-5.32h0Z"/>
  <path d="M617.21,171.59c1.42,3.78,3.39,5.32,5.91,8.07l-2.57-4.41.29.75v-5.32c-.6,4.14-3.08,7.66-3.08,11.92,0,4.8,3.22,7.41,6.11,10.61l-2.57-4.41c-.04-.91-.06-.55-.06,1.1l1.65-3.13s-2.31,2.9-2.74,3.68c-2.05,3.79-1.43,7.53-.18,11.43.59,1.84,1.22,3.51,1.88,5.34-.14-2.12-.28-2.23-.41-.34-.17.95-.25,1.91-.24,2.87.08,2.99.76,6.1,1.14,9.07.27,2.17.68,4.2,1.85,6.11l1.56,2.02c1.14,1.29,1.09,1.33-.16.14.2,1.54.6,2.94,1.13,4.4l1.01,2.39c.94-5.03.75-5.66-.56-1.89-1.19,3.55-.78,6.54.62,9.91,1.16,2.78,3.34,6.01,4.36,8.02l-1.37-5.05c.23,3.4-.33,6.59,1.43,9.75.55.99,1.25,2.01,2.03,2.83.12.13,2.14,2.29,1.31.9l-1.37-5.05c.03.55-.48,3.43-.42,4.89.11,2.55.61,5.52,1.33,7.93.63,2.12,1.39,4.48,2.51,6.37.59,1,1.39,1.95,2.21,2.76,1.06,1.04,3.31,3.9,1.02.42l-1.37-5.05c.56-.5.58-.14.08,1.08-.39,1.27-.47,2.54-.22,3.82.16,2.55,1.11,4.57,2.07,6.88,1.6,3.84,4.71,7.13,6.62,9.88l-1.37-5.05c-.15-1.31-.11.34-.27,1.09-.25,1.21-.44,2.45-.42,3.68.06,3.15,1.59,5.69,2.66,8.54,1,2.65,1.67,5.37,3.67,7.51.79.85,1.66,1.64,2.65,2.27.23.15,2.48,1.76,1.55.73l-2.57-4.41.15.95v-5.32c-.72,3.75-1.64,7.16-.1,10.91.8,1.95,2.09,3.4,3.68,4.71.37.3,3.22,2.83,2.21,1.64l-2.57-4.41c1.01,2.71,1.56,5.37,3.26,7.79,1.09,1.56,3.57,3.48,4.26,4.27l-2.57-4.41c-.3-1.11-.21-.24-.28.46-.12,1.2.03,2.58.32,3.73.73,2.86,2.36,5.14,4.65,6.94-.02-.02,2.92,2.29,1.7,1.04-1.1-1.13.73,1.19.9,1.45,1.22,1.83,2.23,3.78,3.58,5.52.84,1.08,1.53,1.77,2.6,2.62,3.5,2.8.82-.3.38-.1.65-.29,1.34,4.64,1.44,5.01,1.26,4.56,5.51,9.12,9.47,11.57,1.76,1.09-1.25-1.96.24-.07.61.78,1.16,1.68,1.69,2.52,1.1,1.71,2.16,3.45,3.25,5.17,2.22,3.54,5.58,6.34,7.67,9.91,1.06,1.8,1.67,3.6,3.2,5.15.98.99,3.51,2.36,3.86,2.65,2,1.62,3.26,3.78,5.55,5.12.99.58,2.19,1.13,3.32,1.37.38.08,2.42.71,1.16-.02l-3.59-3.59.34.73-1.37-5.05c.17,3.34-.43,6.23,1.3,9.39s4.66,5.38,8.17,6.04c2.45.46-1.46-2.32.51.65.71,1.07,2.16,2.72,2.9,3.56,2.31,2.63,5.12,3.22,7.5,4.54l-3.59-3.59c-1.01-1.49,1.53,4.14,1.41,3.92.96,1.73,2.39,3.37,4.12,4.36s3.8,1.6,5.77,1.68c.68.07,1.36.06,2.03-.05,1.4-.09,1.43-.12.11-.1l-5.98-4.6c-1.19-1.73,0,1.31.23,2.05.84,2.72,2.64,5.1,5.05,6.62.79.5,4.52,2.36,4.14,2.12,1.44.91,2.68,2.13,4.15,2.99.92.52,1.88.95,2.89,1.28,2.02.82,1.62.31-1.18-1.52.1-.02,3.53,4.16,4.22,4.81,2.07,1.95,3.85,3.73,6.64,4.68,1.44.49,4.31.89,4.79,1.06l-4.41-2.57.6.73-2.57-4.41c1.46,3.84,2.57,7.65,6.32,9.92.39.23,4.65,1.92,3.45,1.17,1.7,1.06,3.2,2.93,4.91,4.1,2.82,1.92,5.78,3.11,8.89,4.37,1.73.7,3.36,1.72,5.15,2.3,1.37.44,4.47.84,4.69.91l-4.41-2.57c-.53-.5-1.51-3.42-.84-1.24.52,1.69,1.19,2.86,2.22,4.19,1.58,2.03,3.76,3.44,5.98,4.71,2.35,1.34,4.73,2.34,7.46,2.48,3.13.17-1.88-1.79-1.36-.3.34.97,2.57,2.09,3.39,2.67,4.42,3.11,11.12.79,13.68-3.59,2.92-5,.84-10.56-3.59-13.68-.71-.5-3.05-2.82-4.76-3.6-1.28-.59-2.25-.79-3.63-1.02-.84-.12-1.69-.23-2.53-.33l1.43.1-1.29-.83,1.91,2.96c.07-.03-1.49-3.53-1.59-3.71-1.5-2.59-3.89-4.63-6.76-5.53-1.23-.39-2.48-.59-3.77-.7-1.69-.15-.95-.36.11.13-2.23-1.02-4.63-1.87-6.82-2.92-1.75-.84-2.91-1.8-4.34-3.04-1.23-1.06-2.45-2.12-3.89-2.87-.97-.5-3.85-2.57-2.19-.59l2.57,4.41c-1.15-2.99-1.94-6.01-4.29-8.36-2.62-2.62-6.94-2.78-9.2-3.63l4.41,2.57c-3.57-3.09-5.82-7.26-10.61-9.29-3.18-1.35-6.98-3.83-9.88-5.63l3.59,3.59c1.2,1.7,0-1.26-.23-2.05-.72-2.33-2.11-4.36-4.03-5.84-3.46-2.67-6.85-2.17-10.86-2.35l5.05,1.37-.73-.31,3.59,3.59c.81,1.16-.26-1.08-.41-1.52-.52-1.56-1.27-2.92-2.32-4.18s-2.31-2.34-3.83-3.14c-.95-.52-1.95-.92-3-1.18-1.3-.43-.89-.07,1.24,1.08-.11.06-4.92-6.09-5.52-6.66-1.4-1.33-3.37-2.49-5.23-3.04-.41-.12-3.11-.99-1.61-.11l3.59,3.59-.35-.73,1.37,5.05c-.19-3.35.38-6.22-1.3-9.39-1.58-2.99-4.35-5.15-7.66-5.92-3.06-.71-.07,1.23-.69-.08-.45-.96-1.65-1.7-2.45-2.39-.77-.74-1.62-1.36-2.54-1.86-.95-.63-.78-.29.5,1.01-.48-1.11-.97-2.12-1.63-3.13-3.05-4.67-6.82-8.77-9.87-13.48-1.75-2.7-3.44-5.65-5.82-7.82s-3.85-2.65-6.11-5.39l2.57,4.41c-1-2.44-1.35-5.11-2.34-7.6-1.6-4.02-3.39-5.71-6.56-8.53-.85-.58-.7-.43.44.46l-.78-1.3c-.66-1.33-1.68-2.57-2.53-3.78-1.85-2.61-4.41-4.42-6.24-6.3l2.57,4.41c.48,1.7.32-1.22.31-1.53-.03-1.63-.44-3.29-1.11-4.76-1.23-2.72-4.2-4.89-5.54-6.48l2.57,4.41c-1.18-3.09-1.69-6.28-4.04-8.8-.8-.86-1.66-1.6-2.63-2.27-.45-.31-2.07-1.91-1.19-.87l2.57,4.41-.15-.94v5.32c.7-3.76,1.64-7.16.11-10.92-.79-1.95-2.09-3.42-3.71-4.7-.33-.26-3.52-2.61-2.56-1.52l2.57,4.41c-1.44-3.65-2.82-7.29-4.36-10.9l1.37,5.05c.16,1.27.14-.42.26-1.09.25-1.41.45-2.74.37-4.16-.2-3.94-2.15-6.04-4.51-8.86-.17-.2-1.88-3.61-2.62-4.1-.48,1.68-.61,1.95-.4.81.18-1.1.33-2.2.46-3.3.04-1.71-.33-3.46-.98-5.02s-1.4-2.76-2.58-4c-.84-.88-4.61-3.87-1.86-1.03,2.16,2.22.31-.29-.04-1.66-.26-1.01-.53-4.58-.48-2.37.06,2.54.64-4.7.59-3.25.05-1.73-.28-3.43-.92-5.02-.59-1.47-1.44-2.87-2.55-4.02-.29-.3-2.15-2.37-1.3-.91l1.37,5.05c-.38-5.02-.18-8.7-3.52-12.81-.9-1.13-1.04-1.29-.42-.47.83,1.21.62.58-.65-1.9-.83,5-.6,5.62.69,1.86.37-.74.56-1.53.57-2.36.67-4.07-1.38-7-2.39-10.63-.52-1.87-.64-3.59-1.55-5.37-.71-1.39-2.26-3.34-2.62-4.13l1.37,5.05c-.32-2.4-.56-4.8-.88-7.2-.14-1.01-.27-2.01-.41-3.02.33,1.55.51.89.54-1.98.28-4.64-2.16-8.63-3.31-13v5.32c-.14.76-2.17,2.91-.58,1.14,1.2-1.34,1.92-2.44,2.57-4.04,1-2.43,1.08-5.05,1-7.66-.17-5.59-2.65-8.2-6.16-12.12l2.57,4.41-.29-.74v5.32c.8-3.67,3.08-7.61,3.08-11.92,0-4.91-3.32-7.48-6.28-10.73l2.57,4.41-.28-.75c-1.9-5.05-6.76-8.51-12.3-6.98-4.85,1.33-8.89,7.22-6.98,12.3h0Z"/>
  <path d="M745.94,209.75c.68.16,5.1,1.62,1.67-.48,1.3.8,2.26,2.27,3.62,3.09,3.44,2.09,6.66,1.81,10.35,1.07.7-.14,1.32-.48,2.65-.55s2.55-.13,3.82-.25c3.06-.13,3.54-.32,1.45-.58-1.58-.44-1.61-.29-.09.45,1.63,1.05,3.25,1.19,5.05,1.56,3.14.66,6.35,1.24,9.58,1.3,1.58.03,3.06-.22,4.55-.71,1.29-.35,2.46-.94,3.49-1.77h-1.32c2.04-.97,6.67-1.39,8.96-1.65,1.94-.22,3.73.11,5.73-.35l1.46-.45c2.81-1.08,3.2-1.3,1.17-.64l-5.05-1.37c4.81,2.11,9.02,4.21,14.18,1.54,1.15-.5,2.17-1.2,3.07-2.1,1.59-1.3,1.25-1.2-1.03.28,0-.21,6.82-.84,7.29-.93,2.57-.51,4.82-1.47,6.73-3.33.5-.5.96-1.03,1.37-1.61-1.96.99-1.92,1.23.12.72,2.31-.13,5.04-1.92,6.64-3.52.75-.94,1.48-1.89,2.18-2.87.62-1.15.73-1.27.35-.36l-4.41,2.57c1.77-.45,5.46-.73,8-2.41-1.99,1.32,4-3.36,2.55-2.39,1.46-.97,3.15-1.52,4.62-2.52.88-.67,1.75-1.35,2.62-2.02,1.31-1.12,1.5-1.33.58-.63-1.28.8,2.84-.85,3.5-1.24,3.49-2.02,4.3-4.94,6.5-7.95l-3.59,3.59c2.81-1.76,7.18-4.15,10.12-7.3,1.74-1.85,3.45-3.83,4.54-6.11.85-1.78,1.05-5.11,1.33-6l-2.57,4.41.72-.61-4.41,2.57c4.35-1.76,8.16-3.02,10.3-7.56.96-2.03.85-4.04,1.36-6.17-.96,4.05,1.45-3.06,1.75-3.78l-2.57,4.41c-.99,1.06,1.35-.53,1.55-.66,1.36-.85,2.48-1.96,3.41-3.26,1.8-2.5,2.77-5.81,3.38-8.84.09-.44.63-5.14.06-3.19-.62,2.13.93-1.52,1.13-1.94,1.67-3.54.83-7.21.87-9.79l-1.37,5.05c2.21-3.93,5.28-6.65,6-11.76.67-4.78-1.52-9.2-2.19-13.11v5.32l.24-.64-2.57,4.41c1.84-2.07-1.84,1.41,1.11-1.1.8-.68,1.58-1.25,2.29-2.03,2.7-2.94,3.48-6.51,2.78-10.36-.4-2.17-.9-4.41-1.84-6.42-.68-1.45-1.52-2.76-2.67-3.9-.61-.6-1.69-2.38-.94-.68l1.37,5.05c0-2.49.26-5,.16-7.48-.11-2.75-1.2-4.84-1.78-7.2-.73-2.96-.15-5.69-1.86-8.51-1.02-1.69-2.29-2.84-3.86-3.96-.47-.34-2.13-2.13-1.16-.93l2.57,4.41-.15-.92v5.32c.79-5.07,1.71-9.77-2.17-13.93-.55-.59-4.89-4.36-6.03-3.69,2.84,2.62,3.1,2.59.78-.1-.67-.72-1.3-1.47-1.89-2.24l2.57,4.41c-.07,2.61.02,3.24.28,1.88.26-1.05.42-2.13.48-3.21.06-1.5-.08-2.94-.51-4.4-1.12-3.76-3.88-5.29-6.53-7.16-1.67-1.18-3.89-3.09-5.72-4.68-2.3-2-5.61-3.4-7.4-4.42l3.59,3.59c.62,2.78.82,3.23.59,1.37-.09-1.21-.27-2.4-.56-3.57-.55-1.82-1.67-3.72-3-5.06-1.25-1.25-3.69-2.66-5.42-3.09-2.09-.69-1.68-.18,1.23,1.53-.34-.78-.8-1.49-1.38-2.12-2.16-2.9-6.21-5.84-9.71-6.96s-5.73-.65-9.23-1.82l4.41,2.57c1.12.97-.52-.87-.77-1.25-.92-1.37-1.95-2.42-3.28-3.39-1.98-1.43-4.24-2.43-5.72-3.48-2.74-1.94-5.03-3.13-8.35-3.84-1.73-.37-3.49-.83-5.27-.81-.94.01-3.56.58-3.74.57l5.05,1.37c-2.27-1.24-5.9-4.04-9.17-5.17-4.92-1.7-8.48.05-12.93,2.08l5.05-1.37-.94.09,5.05,1.37c-1.82-.86-5.07-3.12-7.89-3.87s-5.68-1.12-8.56-1.18c-3.14-.06-5.85.61-8.93.4-2.71-.19-5.38.16-8.09-.02-3.15-.2-6.17-1.12-9.35-.41l-1.44.4c-3,1.09-3.2,1.3-.58.63-1.89-.2-3.58-.51-5.49-.26-5.74.73-11.11,3.58-16.29,5.83l5.05-1.37c-1.29,0-5-.85-7.37-.19-2.15.59-5.19,3.07-6.2,3.63l5.05-1.37c.66-.06-.5.17-.94.08-1.29-.26-2.49-.3-3.78-.23-2.08.11-3.87.71-5.71,1.7-.39.21-3.04,1.42-1.25.89,2.08-.61-1.95-.18-1.9-.18-1.39.14-2.35.4-3.64.9-2.22.86-4.42,2.11-6.43,3.38-1.83,1.15-3.82,2.45-5.41,3.92-.56.52-.97,1.26-1.57,1.73,1.85-1.48-.95,0-1.59.34-2.27,1.17-4.34,2.87-6.15,4.68-1.22,1.22-2.67,3.97-3.07,4.46l4.41-2.57c2.03-.8-1.03-.25-1.98-.2-2.81.13-5.75,1.21-7.77,3.23-1.7,1.7-2.78,3.94-3.3,6.25-.69,3.66-.44,3.55.73-.31-1.16.97-1.33,1.32-.53,1.05l5.05-1.37c-5.83.73-10.76.59-13.89,6.62l-1.01,2.39c-.57,1.64-.29,1.69.82.16,1.42-1.35,1.44-1.45.06-.31-.64.5-1.28.99-1.92,1.49-2.4,2.25-2.82,4.57-4.17,7.34.08-.17-3.05,4.66-3.43,5.72-.72,1.99-1.73,4.35-1.97,6.45-.18,1.59,1.33-1.23-.48.35-1.16,1-2.1,2.74-2.68,4.17-.64,1.55-1.03,3.29-1,4.98l.36,2.66c.42,1.25.39,1.56-.09.95l1.37-5.05,1.33-1.44-2.02,1.56c-.88.81-1.74,1.68-2.37,2.72-1.62,2.65-2.12,5.65-1.68,8.7s1.12-1.87-.27.78c-.65,1.24-.97,2.59-1.15,3.96s-.14,2.41.08,3.79c.01.66.13,1.3.36,1.91.32,1.27.43.75.35-1.55l2.57-4.41c-1.99,2.51-4.17,4.7-5.02,7.9-1.1,4.2,1.19,6.72,2.21,9.82v-5.32c.41-1.74-2.05,4.03-1.96,3.75-.6,1.99-.73,4.22-.18,6.23.5,1.83,1.59,3.75,2.88,5.13.8.86,1.7,1.6,2.7,2.24,1.45,1.14,1.18.84-.8-.89l-1.01-7.71c1.38-2.01,1.67-2.49.88-1.45-.64.82-1.27,1.64-1.91,2.47-1.12,1.83-1.75,3.73-1.86,5.9-.18,3.85,1.76,6.68,3.25,10.06,2.17,4.95,9.41,6.09,13.68,3.59,5.11-2.99,5.76-8.71,3.59-13.68-.64-1.9-.82-1.89-.52.03l-1.37,5.05c1.21-2.1,4.3-6.24,3.71-10.64-.33-2.44-1.41-4.65-3.1-6.46-.82-.84-1.73-1.59-2.72-2.24-1.47-1.14-1.19-.84.86.89l1.01,7.71c-.27,1.38.69-.94.91-1.36.77-1.46,1.24-3,1.4-4.63.35-3.63-1.59-5.74-2.38-8.5v5.32c-1.1,2.05-1.15,2.36-.13.93,1.24-1.25,2.1-2.72,2.57-4.41.74-2.24.96-5.03.2-7.34-.48-2-.69-1.53-.64,1.41.57-1.25,1.08-2.52,1.53-3.82.63-2.59.04-4.77.1-7.32l-1.37,5.05c-1.75,1.66-1.87,1.88-.38.64.63-.47,1.25-.96,1.84-1.48,1.1-1.12,1.99-2.56,2.57-4.01,1.08-2.72.55-7.07.73-8.59l-1.37,5.05c1.22-1.88,3.52-4.25,4.52-7.37.44-1.38.94-2.88,1.28-4.3.47-1.69.48-1.98.04-.85.69-.86,1.35-1.73,2-2.62.7-1.09,2.39-3.39,2.08-4.57.37-1.11.1-.8-.82.92-.52.43-.25.23.82-.62,3.35-2.28,3.6-5.65,4.87-8.17l-3.59,3.59c-2.74.68-3.16.96-1.26.84,1.21-.15,2.41-.31,3.62-.48,2.53-.7,4.3-2.2,6.06-4.04,1.42-1.49,2.96-3.23,3.93-5.04.63-1.08,1.04-2.24,1.24-3.46.54-3.34.49-3.54-.12-.6l-3.59,3.59.7-.3-5.05,1.37c4.6-.19,8.5.19,12.06-3.52,1.28-1.33,2.08-3.24,2.71-4.02.18-.22,2.14-1.78,1.38-1.3-.4.25,2.88-1.09,3.46-1.44,1.13-.69,3.14-2.95,3.33-3.12,1.44-1.3,3.43-2.16,5.08-3.14,1.82-1.08,1.13-.09-.03-.17,1.47.1,3.03,0,4.48-.36,2.54-.64,4.56-2.15,6.85-3.32l-5.05,1.37c-.98.11,2.03.05,2.26.07,1.78.15,3.31.22,5.12-.28,2.11-.58,5.27-3.15,6.2-3.63l-5.05,1.37c2.73-.09,6.59,1.26,10.27-1.04,1.63-1.02.83-.69,2.55-1.25,1.41-.46,2.89-.59,4.3-1.08,6.42-2.23-3.78-.71,3.19-.29,1.96.12,3.73-.06,5.61-.67,3.02-1.11,3.2-1.31.54-.59l2.66.36c1.71.18,3.45.35,5.17.41,5.84.21,11.59-.31,17.33-.39,1.54.66,1.87.61.99-.14-.77-.78-.6-.68.51.3,1.8,1.2,3.31,2.48,5.45,3.06,4.34,1.19,7.94-.91,11.74-2.6l-5.05,1.37.93-.07-5.05-1.37c5.52,2.37,9.75,7.21,16.85,5.71,1.53-.31,1.72-.39.58-.24-1.22.06-.95.18.8.36-2.18-1.08-.22-.04.83.75s2.09,1.58,3.31,2.05c3.18,1.22-.46-1.73.83.23,1.87,2.84,3.94,4.92,7.23,6.06,1.38.48,2.92.92,4.34,1.28,1.62.41,3.66.09,5.12.61-2.72-.97.48,1.43-.6.21s1.34,2.39,1.66,2.74c2.12,2.32,5.38,3.11,7.19,4.03l-3.59-3.59c-.54-2.64-.74-3.28-.6-1.92.07,1.07.21,2.13.4,3.18.27,1.13.62,2.29,1.2,3.31,1.95,3.42,4.63,4.42,7.96,6,1.6.76-2.33-2.35.52.52,1.01,1.02,2.12,1.88,3.24,2.77,1.55,1.24,4.46,2.96,5.31,3.69l-2.57-4.41c.1-2.83-.02-3.28-.36-1.35-.19,1.21-.34,2.43-.46,3.66.06,3.09,1.26,5.46,3.14,7.84,1.09,1.38,2.17,2.86,3.46,4.05.86.9,1.87,1.58,3.01,2.02,2.95,1.38,3.17,1.37.68-.04l-2.57-4.41.19.91v-5.32c-.51,3.7-1.43,7.08.07,10.73s4.36,5.13,7.28,7.27l-3.59-3.59c-1.46-2-.5.13-.23,1.63.22,1.24.62,2.22.94,3.42.52,1.97.43,4.05.38,6.19-.13,6.05,2.28,8.56,5.96,12.68l-2.57-4.41c.63,1.65,1.04,3.49,1.34,5.23v-5.32l-.2.63,2.57-4.41c-1.14,1.32-4.87,4-5.98,7.54-.72,2.31-.74,4.73-.04,7.07,1.03,2.96,1.28,3.2.73.73.04.82.13,1.64.26,2.46.06.86.22,1.69.5,2.5.87-3.55.81-4.3-.2-2.26-1.29,2.85-1.37,3.17-.24.96-.63.58-1.19,1.22-1.68,1.93-1.61,2.12-2.6,4.35-2.72,7.07-.06,1.44.51,4.52.5,4.75l1.37-5.05c-1.37,2.95-3.1,5.48-3.45,8.81-.29,2.77-.2,3.35-1.35,6.53l2.57-4.41c1.22-1.37-3.73,2.39-3.54,2.21-1.56,1.47-2.41,3.14-3.21,5.1-.47,1.13-1.33,3.13-1.66,4.13-.44,1.34-.91,4.54-.94,4.62l2.57-4.41-.69.61,4.41-2.57c-2.94,1.2-5.94,2.01-8.26,4.35-2.71,2.74-2.56,6.8-3.39,9.22l2.57-4.41c-1.3,1.64-3.61,3.26-4.67,5-.88,1.45,1.71-.5-.51.44-1.17.5-2.3.95-3.37,1.62-1.43.91-3.13,2.47-3.93,4.05-.27.3-.47.64-.59,1.03-.75,1.44.03,1.06,2.35-1.12-1.5-.82-6.35,3.27-7.19,3.89-1.56,1.16-3.21,1.86-4.88,2.9-.95.59-2.22,1.44-2.93,2.26-2.03,2.32,3.26.29,1.56-.15-5.75-1.51-10.14,4.71-12.9,8.5l3.59-3.59c-.73.54-4.23.92-5.67,1.77-1.09.65-2.41,1.47-3.11,2.59-1.5,2.38,4.03-.47.46-.32-2.27.09-5.33.42-7.43,1.05-2.39.72-4.76,2.99-6.41,3.82l5.05-1.37-.95-.06,5.05,1.37c-2.7-1.16-5.15-2.72-8.18-2.84-1.77-.07-3.37.19-5.07.75l-2.39,1.01c.9-.23.86-.32-.13-.27-3.03.13-5.7.66-8.65,1.31s-6.18.53-8.76,2.26l-1.1.77c1.55-.19,1.72-.31.52-.36-.52-.29-2.1-.33-2.72-.47-1.98-.44-3.67-1.68-6.01-2.23-3.17-.75-6.35.17-9.53.34-1.16.06-2.31.13-3.47.24-.8.08-3.88,1.01-3.61.99l5.05,1.37c.77.34.09.3-.44-.34-.85-1.03-2.12-1.85-3.25-2.49-2.24-1.27-4.78-1.59-7.25-2.17-12.51-2.97-17.86,16.31-5.32,19.29h0Z"/>
  <path d="M178.31,591.68c-3.61.77-9.1,1.2-13.22,2.39-3.47,1-5.97,3.25-7.46,6.48-.46,1.01-.71,1.9-.94,2.95l-.36,2.66c.14-.93.08-.88-.19.14l2.57-4.41-.43.52,4.41-2.57c2.99.1,2.81-.02-.55-.36-1.27-.14-2.52-.04-3.77.3-2.23.54-4.09,1.63-5.73,3.22-.95.92-1.83,2-2.7,2.99-.9.84-1.68,1.79-2.36,2.83-1.07,1.45-.86,1.3.64-.45l5.05-1.37c-6.43.69-10.03,1.91-14.11,7.13-.75.96-1.6,1.91-2.2,2.97-.46.97-.86,1.96-1.22,2.97-.37.94-.26.79.32-.46,1.05-1.7.56-1.52-1.49.52l-1.16.95c-1.11,1.12-1.98,2.55-2.92,3.82-.74,1-1.5,2-2.09,3.11-2.16,4.04.57.87.23.42-.2-.26-4.49,3.12-4.88,3.42-2.67,2.04-4.74,4.2-5.6,7.55-.31,1.21-.29,2.41-.24,3.62.04,1.09.2,2.15.5,3.19.29,1.35.41.69.37-1.97l2.57-4.41c1.42-1.51-3.57,2.55-3.24,2.23-1.42,1.35-2.86,3.52-3.95,5.16-1.83,2.76-3.14,6.43-4.59,9.46-.49,1.03-2.72,6.4-1.57,7.38,3.36-4.54,3.5-5.42.44-2.65-.99.72-1.78,1.63-2.39,2.71-2.11,3.32-1.82,7.26-2.59,10.96-.99,4.78-.28,9.1,3.24,12.65.94.75,1.88,1.48,2.84,2.21-2.44-3.59-2.83-3.71-1.17-.36,1.62,2.57.05-3.36.07,1.18.02,4.94,2.95,9.71,7.86,11.13s8.11-.87,12.21-2.71l-5.05,1.37.8-.09-5.05-1.37c-.76-.34-.29-.48.38.13.83.76,1.82,1.51,2.8,2.08,2.68,1.53,6.11,1.79,9.02.95,4.44-1.29,9.24-5.67,10.68-10.07,1.94-5.94-.47-10.7-4.55-14.18-2.06-1.75-4.43-2.58-7.07-2.98-.68-.1-1.36-.19-2.04-.26-1.01-.14-.94-.11.21.08,1.05.33,1.2.27.46-.17-.42-.33-.87-.62-1.36-.85-2.51-1.36-5.82-1.92-8.59-1.17-1.09.3-6.54,2.46-6.47,3.78-.05-.92,5.24-1.89.15-1.18-1.38.19-2.31.43-3.59.97-2.05.86-3.82,2.12-5.6,3.44-3.61,2.68-8.23,5.67-10.37,9.71-1.09,2.04-1.32,5.89-1.5,6.83.22-1.14-.65,2.2-.61,1.98-.04.2-.78,3.02-.45,2.08l2.57-4.41c2.37-2.27,2.14-1.43-.09-.49-1.48.62-2.86,1.33-4.03,2.47-2.11,2.07-4.07,5.65-3.73,8.77s2.58-2.49.53-.62c-.89.81-1.49,2.01-2.17,3-1.1,1.61-2.98,4.5-3.82,7.05s-.93,5.46-1.71,8.07c-.34,1.13-1.95,3.81-2.22,5.85-.33,2.5.54,5.39.92,6.88.7,2.77.45,5.52.44,8.34-.08,12.87,19.92,12.89,20,0,.03-4.09.34-8.98-.98-12.93-.56-2.25-.88-1.61-.95,1.93.69-1.08,1.23-2.23,1.63-3.45.61-1.82.68-3.56,1.07-5.45.54-2.65,1.58-4.45,2.77-5.99,1.62-2.1,3.27-3.6,4.07-6.23.44-1.45.24-4.52.33-4.91l-2.57,4.41c-.57.6-3.35,1.52-1.16.97,1.04-.26,2.28-.85,3.22-1.4,2.6-1.53,4.52-4.18,5.35-7.04,1.1-3.83,1.29-6.19,1.73-10.63l-1.37,5.05c-1.56,1.33-1.18,1.07,1.12-.78.56-.37,1.05-.81,1.47-1.31.66-.52,5.87-3.53,2.23-2.33,2.53-.83,4.87-.16,7.41-1.5,1.87-.99,3.4-2.47,5.06-3.77l-4.41,2.57,1.05-.41h-5.32c-2.01-.37,3.78,2.01,3.59,1.95,1.12.46,2.3.68,3.53.67,1.87.19,1.92.17.15-.05l-3.59-3.59c.93,1.34,1.91,2.62,3.03,3.8l-2.57-9.73c-.07.66-.23,1.29-.5,1.89l2.57-4.41c-1.09,1.09-2.83,1.83.21.7h5.32c2.14,1.42,2.69,1.73,1.65.93-.8-.64-1.6-1.27-2.42-1.88-1.73-1.01-3.9-1.71-5.88-1.74-2.09-.03-3.98.57-5.85,1.45-.31.15-3,1.35-1.4.8h5.32l-.72-.11,5.98,4.6-.41-.59,1.37,5.05c-.16-1.4.13-2.73.1-4.13-.08-2.81-1.16-4.56-2.35-6.98-.81-1.64-1.65-3.51-3.08-5.03-1.28-1.36-2.41-1.98-2.98-2.6l2.57,4.41c.19,1.76.38,2.01.56.74.29-1.12.47-2.26.54-3.43.13-1.57.09-3.11.29-4.67l-1.37,5.05c-1.98,2-1.74,1.96.7-.11,1.02-.69,1.82-1.59,2.41-2.7,1.24-1.91,2.25-4.57,2.09-6.94-.18-2.71-1.51,1.74.26-1.14,1.26-2.05,1.64-4.48,2.75-6.55-.64,1.31-.2.82,1.32-1.47-1.63,1.24-1.76,1.45-.38.63,1.34-.63,2.51-1.69,3.5-2.76,1.99-2.15,3.07-4.91,3.11-7.84-.16-1.21-.32-2.42-.49-3.63-.38-1.9-.54-1.41-.48,1.46l-2.57,4.41c1.02-1.03,3.51-2.36,4.8-3.22,3.39-2.26,4.4-5.22,6.58-8.34,1.76-2.51,4.61-3.64,6.33-6.29.8-1.24,1.19-2.64,1.83-3.95.37-.98.26-.79-.32.55,1.89-2.25,2.13-2.66.73-1.21l-5.05,1.37c4.36-.52,8.31-.66,11.61-3.99,2.43-2.46,3.01-4.15,5.62-6.52l-4.41,2.57c-3.02-.13-2.84-.03.53.32,1.27.15,2.53.06,3.78-.29,2.17-.52,3.97-1.48,5.54-3.08s2.49-3.39,3.05-5.48c.21-1.2.38-2.42.52-3.63-.14.93-.08.89.2-.13l-2.57,4.41.44-.5-4.41,2.57c3.78-1.33,9.3-1.63,13.76-2.58,12.58-2.69,7.26-21.97-5.32-19.29h0Z"/>
  <path d="M800.79,625.07c4.17-.52,5.33-1.36,9.44-.9l-5.05-1.37c2.14,1.13,4.71,3.32,7.4,4.51,1.9.84,3.51,1.49,5.56,1.69,1.53.15,2.23.08,3.06.18,4.95.62,9,5.84,12.73,8.9,2.12,1.74,4.05,3.59,5.7,5.77,1.39,1.84,2.47,3.11,4.45,4.36,1.27.96,1.3.9.1-.18l.9,1.28c2.8,4.78,6.06,11.32,7.49,16.16v-5.32c.26-1.32-.83.96-1.06,1.36-.79,1.41-1.31,3.05-1.51,4.64s-.1,3.37.35,4.97c.4,1.45,1.27,5.61,1.21,1.55l1.37-5.05c1.66-2.66,1.46-1.89-.33-.69-1.18.78-2.05,2.02-3.15,2.8-2.13,1.5.85-.07-.23.32s-2.85.19-3.95.13l5.05,1.37,1.32,1.62v5.32c-.2,1.22.75-1.16.92-1.51.5-.97.8-3.26,1.03-3.73l-3.59,3.59c-2.5.57-2.74.69-.72.36.81-.01,1.57-.19,2.3-.53,1.46-.47,2.62-1.27,3.92-2.02.84-.49,1.66-.93,2.47-1.47.41-.27,3.35-2.8,2.34-2.18l-5.05,1.37c-.73-.32-.46-.28.83.1,1.25.3,2.51.41,3.78.34,1.43.03,2.77-.27,4.02-.91,2.73-.88,3.23-1.18,1.48-.92,2.28-.31,4.66-.1,7.02-.49,1.41-.23,3.02-.76,4.4-.86.12,0,4.68.47,2.24-.16,2.83.73,4.9,1.61,7.91,1.85,4.69.37,7.76-.93,11.84-2.93l-5.05,1.37.91-.09-5.05-1.37c-1.51-.74.56.64.98,1.02,1.44,1.31,3.32,2.48,5.21,3.01,1.13.17,2.26.32,3.4.44,2.18.36,1.21-.47-2.91-2.5.43,1.38,3.1,3.67,4.22,4.4,2.48,1.61,5.75,2.56,8.6,3.42,2.17.66,6.57,1.05,7.59,1.35l-4.41-2.57-1.12-1.81,1.01,2.39c.56,1.07,1.18,2.05,2,2.97,1.43,1.6,3.02,3.24,4.72,4.53s3.49,2.19,5.31,3.08c1.08.53,2.19.99,3.34,1.28,1.6.4,4.94,1.76,1.17-.26,11.34,6.08,21.45-11.18,10.09-17.27-1-.54-2.1-1.14-3.19-1.44-.54-.15-5.47-.98-2.73-.15,2.45.74-.43-.37-.93-.7-.71-.47-1.27-1.1-1.96-1.56-2.5-1.65-.15.76.06.79-.13-.02-1.92-3.9-2.24-4.33-1.72-2.33-4.08-3.85-6.9-4.56-2.2-.55-3.46-.41-5.03-.76-1.25-.28-2.35-.54-3.55-.96-.99-.34-3.4-1.78-.7.22,3.22,2.39.06-.98-.87-1.88-.79-.76-1.81-1.51-2.77-2.06-2.91-1.67-6.33-1.37-9.53-1.72l5.05,1.37c1.52.83-.62-.74-.97-1.05-1.44-1.29-3.33-2.45-5.22-2.97s-4.35-.42-6.23.09c-1.15.44-2.28.93-3.38,1.49-1.3.76-1.36.82-.17.19,1.31-.5,1.11-.66-.59-.47,1.19.44,1.06.36-.41-.23-2-.76-3.86-1.04-6.01-1.28-3.51-.38-6.42.1-9.9.75-3.14.59-6.29.07-9.38.82l-1.37.5c-3.29,1.02-3.18,1.36.33,1.02-.95.52-3.68-.6-4.96-.54-2.15.1-4.09.73-5.91,1.89l-2.02,1.56c-.95.76-1.05.99-.29.69-.6.45-4.5,2.55-.19.99-2.17.79-3.92.3-6.11,1.54-3.79,2.15-4.72,5.21-6.21,8.92-.61,1.53-2.53,5.08-2.53,7.86,0,8.78,7.92,14.44,15.9,14.29,3.77-.07,7.31-.38,10.7-2.2,1.59-.85,3.25-2.08,4.48-3.43,2.58-2.84-.6.28,1.41-1.34,3.4-2.73,6.17-4.46,6.88-9.14.29-1.9.15-3.62-.41-5.49-.4-.98-.81-1.95-1.23-2.92-.77-1.17-.86-1.43-.28-.77v5.32c-.44,1.29.67-.51.92-.89.65-.96,1.09-2.22,1.38-3.32.86-3.29.13-6.31-1.25-9.3-1.62-3.51-3.55-7.91-5.42-11.84-2.13-4.48-4.47-9.81-8.98-12.48-1.1-.65-1.11-.73-.14.24-1.12-1.11-1.87-2.68-2.92-3.88-1.51-1.71-3.21-3.28-4.98-4.72-7.34-6.01-13.23-12.24-22.87-14.38-1.46-.32-2.97-.59-4.47-.44.99-.1,1.86.8-.1-.09l-2.39-1.01c1.17.69,1.36.71.57.06-1-.78-1.91-1.65-3.02-2.28-2.7-1.55-5.66-1.71-8.69-1.8-.93-.03-1.79-.08-2.71-.02.19-.01-4.18,1.15-3.6,1.08-5.36.67-10,4.11-10,10,0,4.88,4.6,10.68,10,10h0Z"/>
</svg>