<?xml version="1.0" encoding="UTF-8"?>
<svg id="_素材配置" data-name="素材配置" xmlns="http://www.w3.org/2000/svg" viewBox="0 0 1000 1000">
  <path d="M478.5,229.43c-1.41-1.63-2.83-3.31-4.65-4.51-1.57-1.03-3.6-1.66-4.19-2.03-4.31-2.69-7.55-5.14-12.8-5.77-3.33-.4-6.2-1.79-9.45-2.46-2.74-.57-5.44.03-7.66,1.72-.87.67-1.38,1.26-2.07,2.1-.85,1.03-2.21,1.89-.26.79l4.04-1.09c-.49-.02-2.84-1.03-4-1.05-1.99-.05-4.19.57-6.06,1.21-2.08.71-4.1,1.64-5.62,3.27-.7.75-1.26,1.63-1.74,2.53l-.81,1.91c.75-.98.75-1.1,0-.36-2.75,2.84-5.1,5.87-7.84,8.64-3.46,3.5-5.04,7.36-6.23,12.01-2.57,9.98,12.86,14.23,15.43,4.25,1.21-4.69,4.2-6.38,7.01-10.2,1.05-1.43,2.26-2.56,3.5-3.87.81-.85,1.53-1.8,2.1-2.81.49-.87,2.19-2.99.56-1.42l-3.53,2.06c.95-.45,1.94-.78,2.98-.98-1.21-.37-1.15-.31.18.17,1.72.51,3.37.77,5.14.51,2-.29,3.79-1.18,5.27-2.58.67-.74,1.3-1.52,1.88-2.34.91-1.24.79-1.19-.35.17l-6.16.81c1.76.28,3.92,1.22,5.83,1.75,2.37.66,5.3.74,7.26,1.35,2.26.71,3.95,2.74,5.94,3.88,3.65,2.08,2.49.78,5,3.68,6.76,7.8,18.03-3.56,11.31-11.31h0Z"/>
  <path d="M442.07,246.13c-4.19-1.19-8.54-1.98-12.91-1.7-4.81.31-7.25,1.91-11.27,4.08l4.04-1.09c-1.33.04-3.01-.99-4.44-.99-1.67,0-3.55.44-5,1.21-2.85,1.52-5.38,4.33-7.78,6.45-3.02,2.67-6.03,4.96-8.21,8.48s-2.18,6.61-2.64,10.41c-.53,4.3,4.05,8,8,8,4.76,0,7.47-3.69,8-8,.39-3.18,1.38-3.51,4.21-5.85,2.18-1.8,4.1-4.14,6.5-5.68l-4.04,1.09c.92-.12,3.11.86,4.42.89,2.63.06,4.76-.86,6.89-2.31s-.55-.25.83-.64c.86-.24,1.96-.15,2.84-.13,2.22.05,4.19.6,6.32,1.2,9.92,2.82,14.16-12.61,4.25-15.43h0Z"/>
  <path d="M533.58,241.41c2.66-3.07,5.62-3.64,9.11-5.53,1.8-.98,2.82-2.31,4.8-3,1.58-.55,3.29-.95,4.93-1.25h-4.25c2.75.46,4.93,1.46,7.8,1.41.94-.02,1.89-.07,2.84-.09.33,0,4.47-.1,2.65-.37l-3.53-2.06c-.7-1.45-.87-1.7-.51-.76.27.82.6,1.63.98,2.41.58,1.13,1.29,2.17,2.23,3.04,2.55,2.39,5.38,1.8,8.18,2.88l-3.53-2.06c2.38,2.04,4.46,4.34,6.36,6.82s4.11,4.14,5.93,6.33l-2.06-3.53.13.91v-4.25c-.53,2.18-1.33,4.11-1.18,6.41.66,10.22,16.67,10.3,16,0-.05-.85.9-3.15.9-4.28,0-1.59-.43-3.6-1.22-4.95-1.64-2.8-4.2-4.12-5.91-6.34-2.01-2.61-4.06-5.24-6.51-7.47-3.22-2.92-5.38-2.75-9.3-3.84l3.53,2.06c1.64,1.65.51.35-.02-.83s-1.13-2.39-2.09-3.38c-1.94-2.01-4.63-2.93-7.38-2.99-2.17-.05-4.3.57-6.48.35-2.81-.29-4.81-1.37-7.8-.84-4.87.86-8.87,2.94-12.92,5.49-1.8,1.13-4.23,1.82-6.23,2.83-2.81,1.42-4.7,3.2-6.75,5.57-6.71,7.75,4.56,19.12,11.31,11.31h0Z"/>
  <path d="M561.83,260.22c3.44-1.01,3.97-.38,7.92.36,3.37.63,5.96,0,9.16.23l-4.04-1.09c1.97.91,3.76,2.08,5.74,2.96,2.28,1.33,2.53,1.1.74-.68.41.98.82,1.95,1.24,2.92,1.92,3.27,6.22,4.29,6.66,8.26.48,4.29,3.34,8,8,8,3.96,0,8.48-3.68,8-8-.45-4.01-.71-7.28-3.1-10.73s-4.87-5.32-8.03-7.7l2.87,2.87c-2.42-3.17-2.78-6.14-6.79-8.13-3.46-1.72-7.44-4.43-11.3-4.67s-5.01.64-8.7-.29c-4.76-1.19-7.85-1.14-12.63.27-9.86,2.9-5.66,18.35,4.25,15.43h0Z"/>
  <path d="M498.7,260.84c-.06-1.52,1.82-3.39,1.84-4.93s-1.96-3.21-1.84-4.74,3.02-2.79,3.23-4.31.25-3.02.55-4.52,1.72-2.68,2.11-4.15-2.7-4.04-2.21-5.48,2.4-2.48,3-3.87,3.29-1.78,4.01-3.11-.62-3.91.22-5.17,2.54-1.98,3.52-3.14,2.14-2.16,3.25-3.2,2.02-2.35,3.28-3.23,2.6-1.62,3.98-2.31,3.13-.19,4.61-.67,2.52-2.15,4.07-2.42,3.05.08,4.62.02,2.98,1.54,4.52,1.63,2.96-.05,4.48.2,3.2-.58,4.69-.19,3.73-1.3,5.19-.77,2.51,2.33,3.91,2.99,2.28,2.34,3.62,3.12,3.51.32,4.78,1.21,1.32,3.4,2.51,4.39,2.64,1.64,3.74,2.73,3.31,1.21,4.31,2.38,2.58,2.06,3.51,3.3,1.12,3.12,1.98,4.42,1.12,3.01,1.91,4.35,1.54,2.72,2.26,4.1-.2,3.54.46,4.95,2.95,2.07,3.56,3.5-.09,3.38.47,4.83,2.2,2.49,2.72,3.96,2.22,2.55,2.71,4.02-.26,3.37.2,4.85c.44,1.42,1.49,2.67,1.91,4.09s1.43,2.7,1.84,4.13,0,3.11.39,4.54,1.18,2.77,1.56,4.21-.48,3.21-.11,4.65.09,3.05.46,4.49,2.1,2.55,2.45,3.99.9,2.85,1.25,4.3.89,2.85,1.23,4.3.3,2.99.64,4.44.73,2.89,1.07,4.34.48,2.95.81,4.4,1.99,2.6,2.32,4.05-.65,3.21-.32,4.66,2.1,2.57,2.44,4.02.72,2.88,1.06,4.33.56,2.92.91,4.37.88,2.84,1.24,4.29-1.33,3.4-.96,4.84.82,2.87,1.2,4.31-.65,3.26-.26,4.7,3.95,2,4.35,3.44.51,2.94.92,4.37-2.36,3.81-1.93,5.24,2.26,2.43,2.71,3.85.68,2.92,1.15,4.33,2.72,2.21,3.21,3.62-.26,3.25.26,4.65,1.34,2.68,1.87,4.07.97,2.82,1.53,4.2-.19,3.32.4,4.69,1.98,2.41,2.59,3.77,1.6,2.55,2.24,3.89,2.96,1.86,3.62,3.19.23,3.2.92,4.52,1.27,2.69,1.99,3.99,1.03,2.84,1.79,4.12,1.89,2.34,2.68,3.6,2.37,2,3.19,3.24,1.84,2.31,2.7,3.53-.26,3.86.62,5.05,3.54,1.04,4.46,2.2,1.85,2.28,2.81,3.42.54,3.46,1.54,4.57,3.71.6,4.74,1.67,1.53,2.61,2.6,3.65,2.25,1.9,3.35,2.9.7,3.72,1.84,4.68c1.13.96,2.79,1.33,3.95,2.25s2.66,1.41,3.86,2.29,1.86,2.54,3.09,3.37,2.45,1.74,3.71,2.53,3.17.51,4.46,1.25,2.59,1.43,3.91,2.13,2.83.95,4.17,1.6,2.56,1.5,3.92,2.09,2.93.62,4.31,1.17,2.22,2.5,3.62,3,3.49-1.11,4.9-.66,2.37,2.32,3.8,2.72,3.17-.52,4.62-.17,2.93.21,4.39.5,2.65,1.74,4.12,1.98,2.94,1.35,4.42,1.54c1.76-1.38.39-1.76.99-4.5.27-1.24.86-2.66,1.22-4.31.29-1.35-1.61-3.29-1.28-4.85.3-1.39.69-2.83,1.01-4.36.3-1.41,3.17-2.34,3.48-3.84s1.06-2.8,1.36-4.28-.77-3.19-.47-4.66,1.7-2.7,1.99-4.17-1.61-3.37-1.33-4.82.8-2.91,1.07-4.35,3.08-2.51,3.34-3.94c.27-1.52-1.71-3.4-1.47-4.81.26-1.56.23-3.08.44-4.45.25-1.64,2.18-2.89,2.33-4.19.16-1.34-1.16-3.39-.33-4.46.98-1.26,3.04-1.38,4.5-1.21,1.28.15,2.77.75,4.07,1.53s.97,3.25,1.93,4.17c1.07,1.04,2.51,1.72,3.6,2.75s2.92,1.26,4.02,2.27,3.41.65,4.53,1.64,1.36,2.97,2.5,3.94,2.74,1.37,3.89,2.32,1.25,3.19,2.41,4.12,2.18,2.08,3.36,3,4.2-.58,5.39.32,1.26,3.28,2.46,4.17,2.82,1.18,4.04,2.04.91,3.93,2.14,4.78,2.9,1.08,4.14,1.91,3.1.73,4.35,1.54,3.15.59,4.42,1.38,1.98,2.48,3.26,3.24,1.54,3.3,2.83,4.05,2.61,1.5,3.92,2.23,4.51-2.02,5.83-1.31,1.86,2.82,3.19,3.51,3.24.17,4.58.84c1.1.55,1.85,1.67,3.04,2.09s2.09,2.86,3.31,2.91,2.21-2.02,3.36-2.63c1.7-.91,1.81-2.78,2.83-4.42.26-.41,2.48-.9,3.11-3.29.32-1.21,1.31-2.54,1.69-4.22.3-1.32,1.02-2.73,1.34-4.32.28-1.37-2.53-3.43-2.25-4.99.26-1.4.58-2.83.84-4.37.24-1.41,3.61-2.38,3.85-3.91.22-1.43-1.27-3.16-1.05-4.69.2-1.44-1.34-3.13-1.14-4.65s.94-2.84,1.11-4.35,1.65-2.78,1.81-4.3,1.18-2.86,1.32-4.37-1.39-3.09-1.26-4.6.45-2.93.56-4.44,2.22-2.83,2.31-4.34-3.18-3.14-3.11-4.65.34-2.94.4-4.45,1.97-2.9,2.01-4.41-.24-2.98-.22-4.48-1.39-2.98-1.39-4.48,2-2.97,1.99-4.47-2.11-2.94-2.13-4.45,1.26-2.99,1.22-4.5,2.02-3.05,1.96-4.55.11-3,.04-4.51-3.92-2.76-4.01-4.26,1.02-3.04.91-4.54,1.7-3.13,1.58-4.62-2.25-2.79-2.4-4.28-.97-2.88-1.13-4.37,1.26-3.14,1.08-4.63-2.32-2.7-2.51-4.19,1.82-3.25,1.6-4.74-1.35-2.81-1.59-4.29-.59-2.92-.84-4.39,1.26-3.26.99-4.73-1.54-2.75-1.83-4.22-2.77-2.47-3.08-3.93,2.21-3.53,1.88-4.99-.19-3.03-.54-4.49-1.85-2.63-2.22-4.08.84-3.32.45-4.76-3.98-2-4.38-3.44,1.65-3.58,1.23-5.02-3.66-1.99-4.11-3.42.66-3.33.19-4.75-.64-2.93-1.13-4.35-2.33-2.33-2.84-3.74.26-3.27-.28-4.67-1.21-2.73-1.76-4.12-.9-2.85-1.48-4.24-1.5-2.61-2.09-3.98-2.19-2.28-2.81-3.65-1.14-2.74-1.78-4.09.15-3.37-.5-4.72-.69-3-1.37-4.34-1.31-2.7-2.01-4.03-3.95-1.25-4.67-2.56-.36-3.2-1.1-4.5-2.74-1.83-3.51-3.12.84-3.98.05-5.26-2.46-1.98-3.27-3.25-2.76-1.74-3.59-2.99.83-4.16-.02-5.4-3.3-1.34-4.17-2.56-.86-3.07-1.75-4.27-.82-3.14-1.73-4.33-4.6-.2-5.53-1.37-.61-3.32-1.56-4.48-3.04-1.33-4.01-2.47-1.09-2.97-2.08-4.1-2.33-1.9-3.34-3-2.47-1.75-3.5-2.84-.16-3.96-1.21-5.04-2.86-1.37-3.92-2.43-1.11-3.15-2.19-4.19-2.12-2.13-3.21-3.15-4.05,0-5.16-1-2.2-1.98-3.33-2.96-.6-3.88-1.75-4.84-2.89-1.2-4.06-2.15-2.1-2.16-3.27-3.09-3-1-4.19-1.91-1.36-3.17-2.57-4.06-3.76.09-4.98-.78-1.4-3.19-2.63-4.05-4.03.63-5.28-.2-1.91-2.48-3.16-3.3-2.86-1.03-4.13-1.83-2.62-1.38-3.9-2.16-1.37-3.5-2.66-4.26-2.14-2.28-3.44-3.02-3.68.46-4.99-.27-1.37-3.73-2.7-4.44-4.04,1.28-5.38.6-2.31-2.01-3.65-2.68-2.91-.8-4.27-1.45-1.89-2.97-3.25-3.6-3.14-.3-4.51-.92-2.91-.79-4.28-1.39-1.71-3.6-3.09-4.18-2.81-1.06-4.21-1.63-2.92-.79-4.31-1.34-3.28.07-4.71-.47-2.88-.92-4.33-1.43-2.26-2.81-3.71-3.29-3.37.54-4.83.08-3.39.78-4.86.35-2.24-3.2-3.71-3.6-3.11-.13-4.59-.51-2.69-1.79-4.17-2.15-3.06-.31-4.55-.65-2.88-1.1-4.37-1.41-3.28.9-4.78.61-3.26,1.03-4.76.76-2.46-3.61-3.96-3.85-3.23.93-4.73.71-2.75-2.31-4.26-2.51-3.24,1.34-4.75,1.16-2.84-2-4.36-2.16-3.38,3.45-4.9,3.31-3-.21-4.52-.33-2.82-3.22-4.34-3.31-3.18,2.89-4.7,2.83-2.99-.51-4.51-.56-3.01.16-4.53.14-3.01-.9-4.53-.89-3.05-1.48-4.57-1.44-3.04.35-4.55.41-3.13-1.55-4.65-1.47-3.06.32-4.57.43-2.75,3.68-4.26,3.82-3.05-.22-4.56-.06-3.26-1.68-4.76-1.48-3.16-.45-4.66-.23-3.06.37-4.55.62-2.44,3.61-3.93,3.89-3.06.1-4.54.42-3.46-1.45-4.93-1.1-3.03.57-4.49.95-2.9,1.06-4.35,1.48l.3,1.39c-1.42-.41-2.85-.79-4.29-1.17s-3.04,0-4.49-.34-2.63-1.77-4.09-2.08-2.96-.3-4.43-.57-2.65-2.08-4.13-2.33-3.43,2.75-4.91,2.53-2.62-2.6-4.1-2.79-3.2,1.89-4.68,1.72-2.61-3.65-4.09-3.78-2.99-.07-4.48-.19-3.13,2.22-4.62,2.13-2.96.04-4.44-.02-2.87-2.71-4.35-2.75-3.03,2.78-4.52,2.76-2.95-.42-4.43-.43-2.98-2.4-4.47-2.38-2.96,1.01-4.45,1.04-2.9,2.03-4.39,2.09-2.99-.71-4.47-.63-2.92.82-4.4.91-3.19-3.01-4.67-2.9-2.95.65-4.43.78-2.8,2.07-4.27,2.22-2.9.75-4.38.92-2.89.73-4.37.91-2.93.43-4.4.63-3.43-2.89-4.89-2.67-2.6,2.67-4.06,2.91-3.19-.98-4.65-.72-3.12-.36-4.57-.08-2.95.56-4.4.86-2.13,4.32-3.58,4.64-3.28-1.02-4.71-.68-3.27-.78-4.7-.42-2.21,3.39-3.63,3.77-2.89.67-4.31,1.07-2.86.78-4.27,1.21-3.4-.9-4.8-.45-2.13,3.03-3.52,3.5-3.2-.15-4.58.36-2.64,1.43-4,1.97-2.43,1.95-3.81,2.51-3.74-1.22-5.11-.64-2.75,1.22-4.11,1.81-3.02.62-4.37,1.23-2.09,2.65-3.43,3.28-2.74,1.2-4.08,1.85-3.14.41-4.47,1.07-3.01.73-4.33,1.42-1.58,3.45-2.89,4.15-3.17.43-4.47,1.15-2.7,1.33-3.99,2.06-3.02.79-4.3,1.54-2.2,2.18-3.47,2.96-2.09,2.33-3.35,3.12-3.37.3-4.62,1.11-2.1,2.28-3.33,3.11-3.17.7-4.39,1.54-.62,4.33-1.83,5.2-2.19,2.04-3.39,2.92-2.58,1.5-3.77,2.4-2.77,1.29-3.93,2.21-2.23,1.98-3.38,2.92-2.31,1.88-3.45,2.84-2.09,2.13-3.21,3.11-2.85,1.28-3.96,2.27-3.19.95-4.28,1.96-.99,3.31-2.07,4.34-3.44.77-4.5,1.82-2.36,1.91-3.4,2.97-1.39,2.84-2.41,3.93-1.05,3.11-2.05,4.21-3.92.52-4.9,1.64-.2,3.8-1.16,4.93-1.13,2.93-2.08,4.08-1.59,2.52-2.52,3.69-2.92,1.49-3.83,2.67-2.07,2.18-2.96,3.37-.38,3.4-1.25,4.61-2.19,2.09-3.03,3.31-1.32,2.69-2.14,3.93-3.41,1.33-4.21,2.59-1.17,2.8-1.95,4.07-1.48,2.6-2.24,3.88-2.34,2.1-3.08,3.39-2.01,2.32-2.73,3.63-.74,3.02-1.44,4.33-1.09,2.81-1.77,4.14-.98,2.85-1.63,4.19-2.42,2.16-3.06,3.51-.58,3.03-1.2,4.39.12,3.31-.48,4.68-4.04,1.54-4.61,2.92.56,3.47.02,4.86-1.35,2.69-1.88,4.08-1.26,2.73-1.77,4.13-1.02,2.82-1.51,4.23.47,3.31,0,4.73-3.61,1.99-4.06,3.41-.13,3.11-.55,4.54-.37,3.02-.77,4.45-1.26,2.77-1.65,4.2-.86,2.88-1.22,4.33.31,3.16-.04,4.61-1.05,2.83-1.38,4.28-.79,2.9-1.1,4.35.3,3.12,0,4.58-1.08,2.84-1.35,4.3-1.94,2.71-2.19,4.17,2.71,3.48,2.48,4.95-2.79,2.6-3,4.07-1.02,2.89-1.22,4.37,1.71,3.24,1.54,4.72-.02,3-.18,4.48.39,3.03.25,4.51-1.19,2.88-1.32,4.36-.64,2.95-.75,4.43.54,3.03.45,4.51-3.1,2.83-3.17,4.31-.12,3.01-.18,4.5,2.88,3.1,2.84,4.58-.04,2.98-.07,4.46-1.23,2.98-1.24,4.46-1.43,3-1.43,4.48,1.3,2.99,1.32,4.47,1.45,2.96,1.49,4.44-2.81,3.09-2.76,4.57,2.56,2.9,2.63,4.37-.88,3.05-.79,4.52-1.53,3.12-1.43,4.59,1.2,2.94,1.32,4.4,1.76,2.87,1.9,4.33-1.76,3.21-1.61,4.67,3.17,2.69,3.34,4.14.66,2.94.84,4.39c.19,1.52-1.03,3.18-.83,4.62.21,1.53-1.17,3.25-.95,4.67.24,1.53,2.74,2.64,2.98,4.06.26,1.54.9,2.93,1.16,4.32.29,1.56-2.14,3.55-1.87,4.92.32,1.59,2.64,2.63,2.94,3.95.38,1.68.59,3.15.91,4.36.63,2.38.99,3.71,1.24,4.12,1.02,1.64,2.44,2.3,4.14,3.21,1.15.62,1.76,3.01,3.02,2.95s1.76-3.15,2.99-3.58,2.33-.49,3.43-1.04c1.34-.67,2.63-1.35,3.96-2.04s2.83-.99,4.15-1.69,3.22-.33,4.52-1.05,2.2-2.15,3.5-2.9,2.12-2.25,3.4-3.02,2.72-1.23,3.99-2.02,2.39-1.76,3.65-2.57,3.39-.25,4.63-1.08,3.44-.26,4.67-1.1.5-4.5,1.72-5.37,3.41-.36,4.61-1.24,3.48-.35,4.67-1.25,1.95-2.4,3.13-3.32.96-3.6,2.13-4.53,2.72-1.37,3.87-2.32,2.4-1.78,3.53-2.75,3.68-.33,4.8-1.32,1.6-2.72,2.71-3.72,1.96-2.3,3.05-3.32,2.89-1.32,3.96-2.36c.96-.93,1.83-1.62,3.07-2.36,1.3-.78,1.95-1.73,3.23-1.88,1.46-.17,1.88-.19,2.86,1.07.83,1.07,2.98,1.72,3.14,3.06.16,1.32-.84,2.97-.89,4.64-.04,1.4-.77,2.85-.93,4.44-.15,1.43-1.8,2.68-2.03,4.22-.22,1.44-.21,2.91-.49,4.42s2.92,3.61,2.61,5.1-.84,2.92-1.18,4.39-.36,3.04-.72,4.5-3.88,2.15-4.26,3.59-1.14,2.82-1.53,4.24.29,3.23-.1,4.64c-.42,1.51-.07,3.18-.47,4.55-.45,1.54-2.31,2.56-2.71,3.89-.49,1.63-1.13,3.01-1.51,4.23-.84,2.7-1.52,3.05-.33,4.97,1.41-.18,3.56,1.36,5.13,1.13,1.43-.21,2.32-4.32,3.86-4.57,1.44-.23,3.46,2.76,4.98,2.5,1.44-.25,2.68-1.9,4.19-2.18s3.25,1.05,4.74.75,2.83-1.11,4.32-1.43,2.73-1.53,4.21-1.86,3.31.96,4.78.61,2.89-.91,4.35-1.28,2.13-3.74,3.58-4.13,3.64,1.86,5.08,1.45,3.05-.39,4.49-.82,2.85-1.09,4.27-1.56,2.82-1.19,4.22-1.69,2.52-1.96,3.91-2.48,2.57-1.75,3.93-2.31,2.42-1.98,3.76-2.59,2.47-1.72,3.78-2.39c1.38-.7,2.89-.89,4.15-1.63,1.35-.78,2.31-1.87,3.51-2.69,1.3-.89,3.79,0,4.88-.93,1.14-.96,1.08-3.27,2.18-4.27s1.99-2.17,3.06-3.2,4.37.13,5.4-.94,1.45-2.78,2.44-3.89,2.5-1.83,3.46-2.97,1.9-2.36,2.82-3.53.22-3.6,1.11-4.8,1.9-2.29,2.75-3.51,1.45-2.6,2.27-3.84,2.33-2.04,3.12-3.3.42-3.21,1.18-4.49,2.1-2.21,2.83-3.51,1.88-2.37,2.57-3.68,1.93-2.37,2.6-3.7.58-3.03,1.22-4.38.48-3.05,1.09-4.41.33-3.08.92-4.45,2.3-2.24,2.86-3.62,1.8-2.49,2.34-3.88-.65-3.41-.13-4.81,1.33-2.66,1.82-4.07.35-3,.83-4.41,1.8-2.52,2.25-3.94.87-2.84,1.3-4.26.94-2.82,1.36-4.25,2.08-2.5,2.48-3.94.24-3.02.63-4.46,2.48-2.43,2.85-3.87-.38-3.18-.01-4.62,1.65-2.66,2-4.11-1.7-3.48-1.35-4.93,2.93-2.36,3.27-3.81,1.47-2.72,1.81-4.17-.81-3.25-.48-4.7.15-3.02.48-4.47,2.43-2.5,2.76-3.95-1.24-3.34-.91-4.79-.33-3.13,0-4.59,1.18-2.79,1.52-4.24,2.4-2.49,2.75-3.94,1.03-2.81,1.38-4.26-2.06-3.58-1.69-5.02,2.54-2.43,2.91-3.87-.09-3.1.29-4.54.26-3.02.65-4.46,3.33-2.15,3.74-3.59-1.81-3.63-1.38-5.06,2.23-2.44,2.67-3.86c.46-1.48,1.02-2.93,1.51-4.41s1.46-2.77,1.98-4.24.53-3.11,1.09-4.56,2.35-2.38,2.95-3.81-.49-3.6.17-5,2.68-2.13,3.39-3.51.92-2.99,1.71-4.34,2.42-2.09,3.28-3.39.68-3.26,1.61-4.5,2.09-2.26,3.11-3.45.89-3.42,1.99-4.51,2.99-1.38,4.18-2.37,1.63-3.05,2.9-3.94,2.87-1.43,4.21-2.21,3.45-.12,4.85-.78,2.84-1.05,4.29-1.58,2.17-3.58,3.66-3.98,3.28-.19,4.8-.44,3.3,1.37,4.85,1.27,3.01.31,4.57.37,3.45-2.48,4.91-2.23c1.54.27,3.2.94,4.62,1.41s2.29,2.77,3.64,3.45,2.63,1.5,3.88,2.38,3.57.56,4.69,1.61,2.49,2.1,3.48,3.28-.8,4.4.06,5.69,4.01,1.12,4.74,2.48-.35,3.56.26,4.98.44,3,.94,4.46.71,2.85,1.1,4.34,2.49,2.5,2.79,4.01,1.9,2.83,2.11,4.35-1.69,3.28-1.58,4.81,1.45,3,1.48,4.53-1.02,2.63-1.08,4.15c-.75.72-1.58.91-1.6.8Z"/>
  <path d="M508.34,263.5c.54-2.51,2.2-4.66,2.2-7.59,0-2.7-1.75-5.26-2.2-7.4v5.32l.36-.89-2.57,4.41c1.6-1.78,3.3-3.3,4.43-5.45,1.24-2.34.79-4.21,1.53-6.56.28-.89-.13.89.35-.55,1.01-3.02,2.48-5.29,1.94-8.63-.26-1.58-.75-3.07-1.51-4.51-1.15-2.16-.43-2.5-.49,1.05l-1.37,5.05c.62-1.06,4.87-3.8.88-1.61,1.55-.85,2.98-1.72,4.25-3,1.62-1.64,2.6-3.47,3.11-5.7.34-1.25.44-2.5.29-3.76-.36-3.39-.46-3.55-.29-.47l-2.57,4.41c2.18-2.45,5.55-5.53,8.37-8.01,2.3-2.02,1.45-1.17,4.3-1.73,1.4-.28,2.65-.56,3.94-1.25.38-.2,3.14-2.04,1.25-1.22-1.98.87,2.04.02.21-.14-1.53-.13,1.24.6,1.71.79,2.61,1.05,5.21,1.12,7.98,1.22,2.06.07,4.21.05,6.19-.05,1.42-.07,2.77-.19,4.17-.47.62-.13,2.37-.17,1.02-.3l-5.05-1.37c1.67.98,3.61,2.87,5.04,4.19,3.18,2.95,6.32,2.75,9.66,4.14l-4.41-2.57c-2.93-3.25-.4.34.35,1.61,1.07,1.83,2.5,3.13,4.18,4.34,2.33,1.67,4.46,3.3,7.12,4.4.11.04,1.13,1.12,1.32,1.3-.52-1.28-.6-1.44-.25-.49.35,1.01.76,2,1.22,2.97,1.03,2.34,1.92,5.48,3.6,7.45,1,1.17.04-1.61-.05.79-.07,1.91.63,4.53,1.61,6.22.76,1.29,1.84,2.46,2.93,3.45,4.7,4.29-.32-5.16-.49-1.33s1.82,6.43,3.74,9.26c.77,1.14.42.89,1.14,1.95.63.85,1.28,1.69,1.96,2.51,1,1.28.64.57-1.08-2.15-1.32-.14,2.32,9.3,2.42,9.52.52,1.13,1.13,2.25,1.53,3.44-.61-1.83.23,1.74.29,2.24.25,2.34.71,3.38,1.43,5.46l.32-.78c-.3,1.13-.41,2.27-.33,3.42.02,3.24.34,7.41,1.85,10.3,1.16,2.23,1.98,3.44,2.7,5.9s1.21,4.75,1.63,7.27c.48,2.92,1.19,5.86,1.84,8.75.69,3.1,2.4,5.14,3.61,7.9l-1.37-5.05c-.05-1.29-.19,2.3-.18,2.19-.14,1.4-.19,2.39.04,3.79.51,3.01,2.07,4.24,3.15,6.7.57,1.31.76,4.24,1.13,5.9.21.96.39,1.95.71,2.89.89,2.56.7-.46.14.59-1.16,2.17-.7,6.38.13,8.55.53,1.39,1.06,1.54.67-.1.31,1.29-.53,3.09-.52,4.44.07,6.39,4.36,8.77,8.9,11.99l-3.59-3.59c-.65-.97-.09,2.12-.04.76l1.37-5.05c-2.32,5.4-4.88,9.79-1.36,15.55.63,1.02,1.85,1.88,2.37,2.95-1.37-2.83-.44.55-.26,1.13.98,3.19,3.05,4.67,4.43,6.73l-1.37-5.05c.27,2.43-.05,4.9.61,7.3.49,1.77,1.58,3.41,2.27,5.1,1.25,3.04.5,3.83,1.41,7.3s3.39,6.35,5.22,9.3c.86,1.38,1.67,2.9,2.85,4.05.93.74,1.87,1.46,2.82,2.16,1.11.62,1.19.73.24.31l-2.57-4.41c1.42,5.49,3.28,11.47,6.56,16.25,1.6,2.33,3.46,4.39,5.41,6.41.37.38,1.93,2.45,2.04,2.43-.36.08-1.04-4.91-.81-.56.18,3.3,1.52,6.3,3.97,8.51,1.71,1.55,3.36,2.06,5.39,2.95l1.06.31c-2.04-.92-2.32-.7-.84.65l-.87-.98c.09.87.35,1.68.76,2.45.6,1.54,1.41,3.06,2.59,4.24,1.34,1.34,3.39,2.52,5.19,3.07.43.13,3.07,1.07,1.58.17l-3.59-3.59c1.26,1.68,2.29,3.52,3.7,5.09.84.93,3.55,4.58,2.04.88,1.5,3.66,2.1,6.49,5.64,8.85,2.24,1.5,4.93,2.52,6.97,4.21,2.52,2.1,4.66,4.62,7.66,6.22,2.34,1.25,4.8,1.68,7.05,2.69,3.18,1.42,6.26,2.9,9.39,4.39,1.69.8,3.61,1.03,5.27,1.76-3.37-1.49,1.68,1.79,1.7,1.81,4.07,2.63,7.26,1.26,10.91,1.31l-5.05-1.37c.75.42,3.25,2.57,5,3.23,1.51.56,2.98.87,4.61.89.49,0,4.76-.3,2.66-.33,1.07.02,3.1.06,4.13.46-1.28-.49-1.7-.43-.52.43,1.84,1.34,5.72,2.29,7.86,2.91,3.39.98,7.26-.06,9.73-2.57,3.29-3.35,3.12-6.29,3.92-10.21.45-2.25,1.26-4.16,1.16-6.54.03-1.28-.21-2.49-.72-3.63-1.22-3.47-1.4-3.17-.54.9.8-2.32.24-2.05-1.7.78,1.01-.69,1.96-1.47,2.85-2.32,1.85-1.97,2.58-4.17,3.44-6.67.76-2.19,1.4-4.29,1.31-6.66-.11-1.3-.31-2.58-.6-3.85-.75,3.53-.63,4.28.36,2.26,1.29-1.99,1.8-4.73,1.7-7.04.03-1.28-.21-2.5-.73-3.65-1.22-3.48-1.41-3.17-.56.94.71-1.9.5-1.93-.62-.09.61-.45,1.17-.96,1.7-1.5,2-2.12,3.28-4.96,3.35-7.89,0-.23-1.56-7.31-1.83-6.99.24,2.7.42,2.92.55.64.11-1.96.14-1.99.09-.08,2.52-4.91,2.41-7.79,1.53-13.18v5.32l.28-.96-2.57,4.41.91-.74-4.41,2.57c-.17.06-2.17-1.62-1.49-.88l-2.57-4.41c1.12,2.83,1.72,5.66,3.92,7.96s5.43,4.17,8.17,5.7c1.22.68,2.37,1.4,3.69,1.93.77.41,1.58.67,2.44.79-2.26-2.23-2.99-2.66-2.19-1.27.44,3.36,6.06,5.8,8.46,7.33l-3.59-3.59c1.31,1.71,1.81,3.55,3.27,5.24,1.23,1.42,2.61,2.7,4.06,3.9,2.3,1.91,4.78,3.11,7.8,3.21.91.03,4.08.46,2-.32l-4.41-2.57-1.15-1.84,1.01,2.39c.63,1.19,1.34,2.29,2.31,3.27,1.85,1.88,4.1,2.72,6.36,3.95l-3.59-3.59c-.75-.97.14.45.38,1.12.51,1.46,1.1,2.67,1.97,3.93,1.88,2.74,4.37,3.82,7.32,5.12,3.98,1.75,7.08,2.26,11.36,4.03l-4.41-2.57c.92.78,1.58,1.62,2.39,2.52,1.22,1.37.09-.11.72.73,2.01,2.68,3.36,4.54,6.31,6.35,2.53,1.55,5.28,2.97,8.33,2.97,1.72,0,2.91-.39,4.42-.91l2.39-1.01c-.76.29-.65.3.34.02h-5.32l.67.11-4.41-2.57c3.08,2.67,5.84,6.7,11.35,6.77,2.17.29,1.63-.02-1.61-.93.93.88,1.97,1.6,3.1,2.17-1.49-1.42,1.27,1.6,1.6,1.85,8.79,6.53,17.69-1.87,21.58-9.58l-3.59,3.59c5.03-3.78,7.3-7.55,9.39-13.49.88-2.51,1.72-5.03,1.61-7.72-.15-3.53-1.98-5.55-3.44-8.48l1.37,5.05c-.32.9-.28.56.12-1.02-2.79,2.64-3.3,3.29-1.52,1.94,1.99-1.28,3.53-2.88,4.64-4.97,2.11-3.97.89-7.77.19-10.85.02-1.35-.24-2.63-.81-3.83-.4,2-.33,2.03.21.09.65-1.42,1.07-2.55,1.81-4.67,1.33-3.83,2.65-7.85,1.49-11.92-.31-.78-.63-1.55-.94-2.33.26,2.1.46,1.63.59-1.44-.3,1.53-.19,1.82.35.86.67-.86,1.13-1.84,1.39-2.93.81-2.42.94-4.7.18-7.18-.16-.51-3.16-6.52-3.92-5.97,1.07,3.81,1.62,4.41,1.66,1.78l-.24,1.36c1.05-2.6,2.24-4.34,2.37-7.26.18-4.02-1.42-8.79-1.96-11.63v5.32c.58-2.03,2.35-4.27,2.35-7.13,0-2.7-1.93-5.27-2.49-7.11v5.32c1.09-5.13,3.68-9.02,3.59-14.71-.05-3.07-.58-5.66-2.4-8.19-.65-.91-1.31-1.5-2.12-2.22l-2.02-1.56c.62.57.56.49-.16-.24l2.57,4.41-.25-.63v5.32c.5-3.4,1.35-4.91,2.28-8.01,1.4-4.68-.5-7.2-2.09-10.87-.17-.39-.31-3.82-.79-2.01.04,1.17.22,1.03.52-.4.17-1.07.31-2.15.42-3.23.08-4.45-2.3-7.43-4.93-10.76l2.57,4.41.02.67-1.37,5.05c1.52-3.41,3.12-6.31,2.67-10.2-.24-2.06-1.19-3.65-1.77-5.62l-.27-1.46c-.37-1.96-.4-1.95-.07.02.97-4.27.76-7.42-1.05-11.49-.52-1.18-1.01-2.51-1.71-3.63.13.21-3.47-4.7-2.68-3.1l1.37,5.05.11-.94-1.37,5.05c2.06-4.11,3.36-7.22,2.8-11.93-.52-4.32-2.14-6.97-3.79-10.79l1.37,5.05c-.07-2.63.98-6.59-1.13-10.14-1.87-3.14-4.56-4.11-7.32-6.05l3.59,3.59-.44-.66,1.37,5.05c-.81,2.81-.64,2.68.51-.39.49-1.17.73-2.41.72-3.7.07-2.1-.3-4.14-1.36-5.98-1.76-3.04-4.6-4.36-7.27-6.36l3.59,3.59-.43-.65,1.37,5.05c-.16-1.98.09-6.44-.73-9.58-.46-1.77-.93-3.45-1.87-5.05-.5-.85-4.35-5.06-2-1.97.61,1.85.85,1.93.73.22-.14-1.27-.32-2.53-.55-3.78-.49-1.78-1.54-3.41-2.18-5.13-1.07-2.86-2-5.55-3.47-8.26-1.32-2.42-3.1-4.47-4.08-6.34-1.52-2.93-.24,1.46-.06-1.28.12-1.83-.62-3.51-1.12-5.2-.95-3.18-2.09-6.5-3.89-9.33-1.17-1.84-2.64-3.26-4.54-4.34-.91-.45-1.84-.86-2.8-1.21-1.7-.66-1.34-.33,1.1.97l2.57,4.41c-.82-2.38-.78-4.61-2.11-6.89-1.14-1.94-4.23-4.21-5.07-5.14l2.57,4.41c.07,2.98.25,2.79.51-.57.23-1.26.15-2.52-.24-3.78-.53-2.27-1.57-4.06-3.16-5.76-1.85-1.97-5.18-4.45-6.49-5.8l2.57,4.41c-.15,2.95-.09,3.48.18,1.59.24-1.19.37-2.38.4-3.59-.05-1.91-.63-4.13-1.6-5.79-1.09-1.86-2.88-3.39-4.72-4.44-.92-.48-1.86-.89-2.84-1.24,3.13,4.07,4.19,4.82,3.18,2.24-.75-2.94-2.49-7.41-4.83-9.75-1.34-1.34-3.29-2.47-5.07-3-1.2-.25-2.41-.44-3.63-.55-1.9-.2-1.52,0,1.15.61l3.59,3.59c-1.21-2.5-2.16-7.05-6.04-8.78-1.88-1.15-1.73-.43.44,2.17-.47-1.17-.95-2.33-1.45-3.48-.97-1.78-2.35-3.15-3.83-4.48-1.04-.94-3.55-3.87-4.83-4.04,1.91,4.61,2.44,4.94,1.6,1.01-.02-.82-.24-1.58-.66-2.29-1.6-4.26-5.11-5.58-8.44-8.05l3.59,3.59c-1.55-2.33-3.58-6.24-6.42-8.84-3.61-3.3-7.26-3.64-11.91-4.05l5.05,1.37c.24.63-.11.37-1.05-.8.7,1.98.86,2.12.49.43-.39-2.25-1.75-4.64-3.36-6.25-2.13-2.13-5.03-3.28-7.33-5.24-.53-.46-6.52-3.62-6.5-3.53l2.6,1.61c-.48-1.2-1.18-2.25-2.11-3.17-1.64-1.84-3.58-3.17-6.02-3.79-1.23-.23-2.47-.37-3.72-.43-1.37.04-1.5.03-.4-.02l4.41,2.57c-1.57-1.84-2.67-4.68-5.85-6.11-1.57-.71-2.95-1.08-4.75-1.13l-1.13.07c-3.35.33-3.55.45-.59.35l4.41,2.57c-2.23-2-3.72-4.11-6.53-5.52.48.24-3.74-1.9-4.07-1.91-2.08-1.36-1.93-.72.45,1.9-.35-.98-.77-1.94-1.25-2.86-1.63-2.86-3.94-4.59-6-6.28-1.52-1.24-2.93-2.08-4.88-2.59-1.29-.34-4.05-.06-4.42-.14l4.41,2.57c1.39,2.42,1.39,2.17.01-.75-.47-1.14-1.15-2.15-2.05-3.02-1.4-1.5-3.07-2.69-5.08-3.24-3.52-.96-6.52.19-9.92.74h5.32c1.96,1.03,1.7.7-.78-.98-.73-.61-1.54-1.06-2.44-1.35-1.76-.83-3.64-1.29-5.46-1.96l4.41,2.57c1.23.96-.57-.51-.95-1.02-1.53-2.08-3.19-3.59-5.51-4.65-3.05-1.39-6.76-1.7-9.99-2.82l4.41,2.57c.74.63.06-.05-.23-.61-.53-1.04-1.32-2.16-2.13-2.98-1.85-1.85-4.14-2.79-6.53-3.73-4.22-1.66-8.28-2.17-12.56-3.13-.62-.14-3.04-1.48-1.43-.28s-.03-.47-.31-.78c-1.82-2.01-4.32-3.1-6.91-3.6-3.48-.67-8.4.4-11.02.26l5.05,1.37c1.95,1.96,1.89,1.72-.16-.72-.74-.98-1.65-1.78-2.74-2.39-1.52-.93-2.99-1.38-4.71-1.72-4.63-.92-1.71-.11-3.28-.67-1.92-.69-3.46-1.61-5.47-2.01-3.57-.71-7.64-2.3-11.24-2.16-2.92.11-6.2,1.28-8.38,1.36l5.05,1.37c1.65,1.86,2.08,2.26,1.3,1.22-.59-.84-1.22-1.66-1.87-2.46-1-1.05-2.12-1.92-3.39-2.61-1.93-1.06-4.02-1.42-6.21-1.33l-2.66.36c-1.82.38-1.6.45.66.21l4.41,2.57c-3.08-2.38-6.12-4.97-10.25-4.98-.69,0-4.79.19-5.03.93,3.2.95,4.07,1,2.61.16-.89-.62-1.86-1.07-2.93-1.36-3.56-1.18-7.05-.76-10.18,1.24-.99.63-2.43,1.6-3.11,2.6-1.31,1.25-.27.79,3.11-1.38-1.64-.05-2-.09-1.09-.13l4.41,2.57c-2.4-2.04-4.08-4.32-7.27-5.34s-6.4-.64-9.22.92c-.81.45-3.57,1.88-3.6,2.79,4.87-.98,5.89-1.56,3.04-1.74-.94-.14-1.89-.25-2.84-.33-2.23-.09-4.47.27-6.35-.25-2.37-.66-5.77-2.6-8.8-1.83l-1.52.18c1.6.91,1.61.99.03.22-1.71-.58-3.03-1.22-4.87-1.39-2.96-.27-6.46.03-9.3.92-1.99.63-3.69,1.76-5.12,3.27-.53.56-2.4,1.95-.8,1.24l5.05-1.37c-.11,0-5.38.14-1.9.56-1.19-.14-2.43-1.24-3.6-1.57-3.01-.83-6.73-.86-9.81-.58s-6.03.5-8.63,1.99c-1.15.66-2.13,1.48-3.03,2.44l-1.56,2.02c-1.1,1.46-.77,1.21,1.01-.75l5.05-1.37c-1.18.13-3.98.25-4.35.21-1.67-.16-3.33-.95-5.12-.9-3.92.12-7.84,1.56-11.5,2.79-5.34,1.79-8.19,6.76-6.98,12.3l.3,1.39c4.1-4.1,8.2-8.2,12.3-12.3-3.21-.91-6.9-.77-9.95-1.71,3.7,1.13-1.19-1.24-1.87-1.47s-6.43-1.35-4.66-.7c1.47.54-2.28-1.48-2.69-1.67-2.06-.99-3.96-1.32-6.24-1.11-1.8.16-3.3.6-4.9,1.54-.74.44-3.24,1.48-1.34,1.16h5.32l-.85-.36,4.41,2.57c-2.79-2.31-5.23-4.64-9-5.19-2.14-.31-4.11.08-6.09.8-.73.29-1.44.6-2.14.95-1.12.72-1.27.77-.44.14l7.71,1.01,1.55,1.69c-.47-.64-.95-1.27-1.44-1.89-.83-1.03-1.4-1.69-2.47-2.48-2.73-2.02-5.68-2.43-9.01-2.57-2.85-.12-5.63.1-8.2,1.47-.66.35-1.24.79-1.87,1.2,2.74-1.78,1-.44.54-.6l4.41,2.57c-4.16-3.25-7.95-6.47-13.65-4.88-1.16.32-2.28.87-3.29,1.49-1.26.77-4.62,2.48-.45,1.36,2.48-.39,2.71-.63.7-.72-1.82-.37-1.78-.22.13.46,3.55,1.82-.77-1.12-1.46-1.52-4.41-2.5-9.61-1.37-14.15.13-.18.06-3.6,1.4-3.48,1.71,2.98-.26,3.38-.47,1.2-.63-.69-.11-1.38-.19-2.07-.25-2.67-.09-5.2.73-7.8,1.2h5.32c2.28,1.44,2.71,1.57,1.28.39l-2.02-1.56c-1.23-.78-2.51-1.37-3.93-1.73-3.32-.85-7.61.1-10.83,1.16-.9.3-3.12,1.81-3.19,1.84-1.3.53-3.01.62-4.38.92-2.91.64-5.81,1.11-8.76,1.54h5.32c2.22,1.5,2.59,1.68,1.11.54-.88-.79-1.83-1.48-2.85-2.07-1.72-.94-3.87-1.5-5.82-1.5s-4.19.75-5.9,1.73c-.98.7-1.92,1.45-2.82,2.25-.9.97-1.03,1.07-.39.3l5.05-1.37c1.01.04-2.35-.53-2.19-.51-1.35-.19-2.63-.15-3.98-.18-2.96-.06-5.75.12-8.66.81-5.81,1.38-7.16,4.9-10.44,9.19l3.59-3.59-.58.34,5.05-1.37c-2.49-.04-6.01-1.26-9.41-1.11-2.94.13-5.62,1.28-7.75,3.31-.93.89-4.1,5.59-1.35,2.35,1.87-1.24,1.84-1.52-.07-.83-.96.24-1.91.5-2.86.77-1.92.34-1.9.53.06.58-1.28-.32-2.59-.53-3.91-.63-2.52-.08-4.85.57-6.97,1.92-.54.35-7.63,6.24-2.74,3.01l5.05-1.37c-3.69.48-6.84.37-10.31,2.03-2.54,1.22-4.75,2.73-7.13,4.16l5.05-1.37c1.02.33.87.28-.46-.15-1.22-.31-2.46-.51-3.73-.6-2.78-.05-4.84,1.18-7.35,2.06-1.56.55-3.14.89-4.72,1.44-2.73.95-3.9,2.63-6.14,4.21-1.79,1.26-5.89,1.88-8.77,2.89-2.46.86-4.68,1.79-6.51,3.72.22-.23-3.54,4.77-2.2,3.52l4.41-2.57c-4.4,1.36-8.49,3.09-12.77,4.75-4.57,1.78-7.53,5.64-11.23,8.65l4.41-2.57c-2.04.74-6.33,1.37-9.03,3.68-.87.75-3.61,2.63-1.13,1.3-1.39.74-3.18.92-4.58,1.78-3.03,1.86-5,5.1-5.52,8.57-.34,1.72-.17,1.43.51-.86l-1.09,1.02c-1.25.37-2.4,1.53-3.52,2.18-5.45,3.16-9.46,7.65-14.45,11.36-2.36,1.76-3.94,1.67-6.64,3.27-3.75,2.21-4.39,5.5-6.14,8.23l3.59-3.59c-.72.41-3.22,1.02-4.5,1.82-2.23,1.39-4.55,3.55-6.21,5.55-2.19,2.63-3.94,7.05-5.24,9.15l3.59-3.59c1.55-.95-4.37,1.28-4.11,1.14-2.14,1.17-3.67,2.78-4.79,4.92-.69,1.07-1.08,2.22-1.16,3.45-.65,3.32-.52,3.53.4.65-.11,1.15-1.76,3.73-2.07,4.25-.02.04-3.57,3.53-.87,1.26-1.66,1.39-3.4,2.43-4.9,4.04s-2.98,3.29-4,5.32-.98,3.93-1.81,5.94l2.57-4.41c-1.17,1.34-6.83,6.24-6.01,7.97,0-.02,5.25-4.01-.69-.33-1.36.84-2.51,1.95-3.47,3.21-1.8,2.34-2.48,5.28-4.23,7.67-1.08,1.47-2.81,3.36-4.13,5.06-2.17,2.8-3.26,5.48-4.42,8.76-.86,2.44-1.84,6.11-3.29,8.17,2.3-3.26-2.21,1.96-1.96,1.58-.97,1.49-1.59,3.05-2.12,4.76-.71,2.31-.97,6.47-1.21,7.63l2.57-4.41c2.44-1.2,2.82-1.44,1.12-.72l-2.39,1.01c-1.69.91-3.02,2.09-4.12,3.64-2.68,3.77-1.6,6.79-2.13,10.92l1.37-5.05c-1.69,3.75-3.46,7.46-4.91,11.3s-1.18,7.05-1.61,10.91l1.37-5.05-.43.65,3.59-3.59c-2.43,1.84-5.1,2.95-6.79,5.7s-1.86,5.91-2.29,9.05c-.39,2.88-1.46,5.13-2.33,7.9-1.01,3.23-.79,6.35-1.42,9.5-.49,2.46-1.64,4.85-2.12,7.35-.59,3.1-.04,5.95-1.34,8.88-1.14,2.55-3.12,5.36-2.19,9.49.28,1.26.69,2.44,1.36,3.58.45.77,1.42,3.26,1.13,1.37l1.01-7.71c.75-.62.63-.49-.36.4-.82.89-1.58,1.83-2.27,2.82-.88,1.44-1.25,3.11-1.75,4.7-.88,2.79-1.47,5.26-.85,8.22.1,1.27.5,2.45,1.19,3.55.71,1.4.78,1.6.24.61-.47-1.06-.59-.76-.35.9-.09,1-.1,1.99-.05,2.99-.09,1.69-.1,2.27-.55,3.99s-.67,3.44-.93,5.16c-.36,1.38-.45,2.77-.27,4.16.25,3.19.4,3.55.46,1.08l2.57-4.41c-3.06,3.76-5.5,6.26-5.87,11.4-.17,2.38-.26,4.84.41,7.16.32,1.13.91,2.18,1.53,3.16.48.75,3.55,5.03,1.49,1.15-1.75-3.3-.31-1.07-.78,0-.32.73-.53,1.6-.75,2.38-.33,1.17-1.15,3.31-1.59,5.22-1.13,4.97,1.99,10.52,2.82,14.23v-5.32c1.39-4.59-1.5,1.42-1.98,2.48-.9,1.96-1.23,3.93-.95,6.08.26,2.04.98,3.76,2.12,5.48l1.56,2.02c-1.1-5.01-1.71-5.48-1.84-1.43.58-3.51-1.03,2.21-1.06,2.3-.62,2.08-.65,4.33-.19,6.44.62,2.84,2.63,6.84,3.22,8.73v-5.32c-.59,3.23-2.67,6.18-1.46,10.35,1.01,3.47,3.25,5.02,5.47,7.48l-2.57-4.41c.4.96.42,1.94.71,2.92.5,1.7.54-2.09-.33.36-.33.91-.4,3.15-.49,3.63s-.77,2.99-.8,3.7c-.13,2.99.73,5.63,2.44,8.05.67.95,1.64,1.68,2.3,2.6-1.49-2.07-.76-.48-.8-.18l1.37-5.05c-2.89,5.94-4.63,11.34.21,16.95.32.43.68.82,1.08,1.18.8.79.54.48-.78-.93-.15.68.41,2.06.58,2.75.65,2.69,1.48,5.23,3.03,7.52.76,1.13,1.59,2,2.59,2.89l2.02,1.56c1.27.97,1.45.93.52-.13-.67-.94-.78-1.08-.31-.41.57.84,1.18,1.65,1.84,2.42,1.1,1.18,2.35,2.02,3.81,2.68,3.25,1.48,6.8,1.35,9.92-.45,1.68-.97,2.85-2.19,3.92-3.76.33-.49,2.08-2.27.76-1.21l-4.41,2.57c3.01-.81,5.66-2.05,8.46-3.4,1.51-.73,2.44-1.08,4.1-1.78-2.35.99-.18.16,1.24-.11,5.71-1.08,8.85-5.76,13.54-8.47,1.07-.62,2.29-.99,3.22-1.85l1.2-.88c-1.71.04-2,.02-.88-.09,2.16-1.05,4.57-.96,6.62-1.34,3.58-.67,6.66-2.27,8.62-5.5.68-1.13,1.19-2.36,1.5-3.65l.36-2.66c.28-1.89.15-1.47-.37,1.26l-5.98,4.6c4.18-1.7,8.88-1.5,12.68-4.28,2.14-1.56,4.28-3.93,5.7-6.13.65-1,1.15-1.98,1.57-3.12.22-.61,1.36-2.48.56-1.41l-3.59,3.59c2.03-1.29,3.97-2.4,5.9-3.88,5.14-3.96.38.31-.58-.53.77.67,5.49-1.24,6.07-1.55,1.84-.97,3.14-2.23,4.37-3.86,1.42-1.88,2.22-3.34,4.19-4.78,1.29-.94,2.7-1.77,4-2.75.29-.82.64-1.08,1.05-.8,2.19-1.24,1.37-1.46-2.46-.67l-4.41-2.57c.52.57,1.08,1.11,1.67,1.61,2.42,2.01,2.68,2.11.76.3l-1.37-5.05c-.56,5.26-3.21,7.99-3.86,13.3-.3,2.48-.71,5-.07,7.47.69,2.67,2.16,4.03,3.45,6.31l-1.37-5.05c-.12-.89-.64,2.19-.71,2.53-.29,1.31-2.06,5.95-.12,2.78l3.59-3.59c-2.47,1.9-5.25,3.05-7.01,5.84s-3.08,6.75-3.31,9.96c-.09,1.19.11,2.35.03,3.52-.83,3.32-.51,3.53.95.62l-.81.91c-2.55,2.87-3.68,6.7-4.85,10.28-2.74,8.36,1.19,15.3,9.47,17.06,3.64.77,6.7,1.72,10.54-.5,1.6-.93,2.58-1.96,3.63-3.38.51-.57.94-1.19,1.29-1.87,1.01-1.61.55-1.33-1.36.82l-7.71,1.01c-.97-.16-.87-.5.07.25s1.82,1.21,2.92,1.63c2.76,1.06,5.52,1.16,8.36.21.4-.13,3.35-1.06,3.41-1.68-.05.51-6.12.04-.68.8,2.88.4,5.31-.2,8.02-1.13.96-.33,1.92-.62,2.87-.99,4.54-1.76-.16-.86-.13-1-.25,1.08,7.92.22,8.44.1,2.25-.54,4.7-1.28,6.68-2.49,1.4-.86,2.43-2.01,3.39-3.32,1.28-1.74,2.5-2.26-.48-.41l-5.05,1.37c-2.61-.11-1.77-.08.43.65,1.36.45,2.72.78,4.18.79,2.39.01,5.31-.53,7.62-1.17,4.34-1.2,9.07-3.08,12.86-5.48,3.43-2.18,6.9-4.29,10.29-6.53,2.03-1.34,3.73-1.97,5.94-3.04,2.56-1.24,4.62-3.1,6.86-4.84l-4.41,2.57c3.47-1.17,6.98-.88,10.08-4.51,1.31-1.54,1.7-3.2,2.68-4.93.37-1,.29-.79-.23.62,1.18-1.01,1.41-1.33.69-.95l-5.05,1.37c3.15-.37,6.12.01,9.07-1.58s4.27-4.84,5.67-6.39c1.27-1.4,4.02-3.71,5.75-5.92,2.29-2.94,2.75-6.78,3.68-9.21l-2.57,4.41c2.07-2.64,3.89-5.4,5.82-8.1,1.71-2.38,3.89-4.01,4.89-6.97.37-1.09.37-2.38.79-3.43-1.08,2.69,1.93-1.81,2.21-2.19,1.56-2.12,3.41-4.49,4.76-6.75,1.59-2.66,2.29-5.85,3.07-8.84.38-1.44.75-2.96,1.04-4.42l.36-2.66c-1.28,2.29-1.46,2.9-.54,1.84,1.65-.58,4.1-5.7,4.91-7.29,1.68-3.27.99-7.53,1.23-9.86l-1.37,5.05c.92-2.13,2.18-4.23,2.83-6.46.35-1.35.58-2.72.69-4.11-.38,1.22-.14,1.05.71-.51,1.34-1.88,1.89-4.39,2.56-6.56.18-.57,1.35-5.29.9-3.73-.7.82-.6.68.29-.44.9-.88,1.59-1.9,2.06-3.04.72-1.2,1.14-2.49,1.26-3.86.76-3.37.5-3.54-.77-.51.91-.9,1.72-1.89,2.44-2.95.63-1.08,1.15-2.21,1.56-3.4.67-2.44.22-4.83.35-7.28l-1.37,5.05c1.3-3,3.33-5.74,3.37-9.16.01-1.15-.1-2.49-.39-3.59-.4-1.49-1.15-5.75-.96-1.34l-1.37,5.05c-.5.92.02.18.51-.24.88-.75,1.73-1.78,2.32-2.76,1.12-1.86,2.38-4.63,2.98-6.67.51-1.73,1.4-6.09.16-7.77-.13-.85-.18-.8-.15.14-.06,1.19,0,.99.16-.59.21-1.44.27-2.88.46-4.32l-1.37,5.05c1.6-3.12,4.29-5.6,4.08-10.16-.13-2.69-.8-3.21-.78-5.15,0-.65.83-3.9.26-2.72-.63.84-.47.7.49-.43.89-.9,1.58-1.91,2.09-3.05.93-1.79,1.63-3.98,2.17-5.93,1.32-4.78-.49-8.27-2.41-12.5l1.37,5.05-.07-.94-1.37,5.05c1.28-2.33,3.45-4.27,4.1-7.59.29-1.47.17-2.91.31-4.38.11-.54.18-1.09.24-1.64.54-2.64-.13-1.91-2.01,2.2,2.52-.29,5.39-5.32,5.98-7.44.52-1.88.44-4.38-.03-6.26-.41-1.63-1.09-5.93-1-1.46l-1.37,5.05c.74-1.39,3.07-4.66,3.93-6.99.98-2.67,2.37-5.22,3.25-7.91.12-.38.91-4.36.33-2.56-.45,1.39,1.73-1.9,2.07-2.43.93-1.46,1.47-2.89,1.84-4.57.18-.84,1.12-6.12-.34-2.57-1.23,2.99.5.4,1.14-.33,1.34-1.53,2.23-3.19,2.87-5.13.56-1.71-1.18.77.45-.91,1.21-1.24,2.27-2.13,3.23-3.7.75-1.23,1.18-2.72,1.64-4.06.4-1.19-1.49,1.35.47-.72,2.22-2.35,3.24-5.53,4.61-7.68l-3.59,3.59c2.04-1.48,4.34-2.11,6.2-3.93.86-.84,1.71-1.93,2.34-2.93l.64-1.1c-1.02.94-1.03,1.11-.03.52.94-.37.97-.45.1-.24-1.05.15-.83.17.67.05,1.28-.09,2.58-.31,3.82-.65,2.4-.66,5.25-1.74,7.36-3.05,1.39-.87,7.39-7.19,2.94-3.82-3.05,2.31-1.12,1.1-.44,1.44.8.4,1.57.51,2.43.69,2.81.6,7.07,1.06,9.88.37,1.16-.28,2.31-.68,3.36-1.24.5-.26,2.75-1.17,1.55-.99h-5.32c1.07.22,2.11.52,3.13.9-1.57-1.16-1.82-1.16-.72.02.99,1.72,3.19,2.64,4.8,3.66,1.81,1.15,3.88,2.69,6.03,3.13,1.59.51,1.71.38.36-.39.82.69,1.59,1.43,2.3,2.23l-2.57-4.41c.21-2.88.17-3.35-.12-1.42-.23,1.21-.37,2.43-.41,3.66.05,1.95.62,4.16,1.6,5.83.92,1.58,2.63,3.17,4.18,4.11,1.07.48,2.15.94,3.24,1.38,1.72.62,1.34.29-1.12-.99l-2.57-4.41c.12.52.15,4.01.46,5.71.41,2.22.88,4.43,1.49,6.61.72,2.56,1.63,4.94,3.48,6.92,2.19,2.34-.79-2.34.59.85.02.04,1.32,2.47,1.18,2.06v-5.32c-.29,1.97-1.94,4.82-1.94,7.47,0,2.24,1.62,6.09,1.83,7.18v-5.32c-.26,1.44-.76,2.72-1.08,4.15l4.6-5.98.79-.21c-5.33.89-8.31,7.48-6.98,12.3,1.55,5.65,6.96,7.88,12.3,6.98,5.05-.84,7.96-5.29,9.15-9.85s-.09-8.31-.97-11.93v5.32c.23-1.2,1.24-3.18,1.58-4.81.67-3.24.03-5.91-1.38-8.82-.62-1.28-1.31-2.8-2.24-4.3-.74-1.05-1.54-2.05-2.42-2.99.93,1.42,1.09,1.25.45-.49-.09-1.92-1.16-3.96-1.36-5.89-.07-.67.24-3.38-.26-4.98-.85-2.74-2.71-5.05-5.14-6.55-1.04-.53-2.11-.99-3.21-1.41-1.69-.64-1.34-.29,1.04,1.06l2.57,4.41c-.12,2.6-.09,3.23.11,1.88.19-1.06.34-2.13.45-3.2.04-1.5-.17-2.94-.62-4.36-1.1-3.54-4.15-6.33-7.07-8.48-2.33-1.71-4.88-2.18-6.96-3.24-3.26-1.66-1.82-2.2-5.45-4.49-2.52-1.59-6.19-2.79-9.16-3.08-4.02-.39-5.84,1.17-9.3,2.58,3.47-1.42.56-.42-.04-.75-1.57-.84-3.37-1.22-5.13-1.33-3.2-.2-6.87.03-9.84,1.2-1.88.74-6.53,3.66-6.63,6.03,3.08-1.89,3.75-2.5,2-1.81-.73.24-1.44.51-2.13.84,1.21-.33-2.91.33-2.39.24-3.12.5-6.39,2.01-9.05,3.76-1.63,1.07-3.43,2.69-4.41,4.44-1.4,2.49,1.93-.48-.61.65-3.13,1.39-5.41,3.92-6.78,7-.37.78-.67,1.59-.9,2.42.76-1.15.77-1.29.03-.42-1.01,1.24-2.26,2.39-3.09,3.77-.76,1.26-1.71,3.15-1.84,4.62,1.22-1.35,1.42-1.63.58-.86-.45.39-.9.79-1.34,1.19-2.66,2.76-3.6,6.22-5,9.66l2.57-4.41c-2.76,3.47-7.25,6.54-6.54,11.75.46,3.34.45-1.49,1.48-1.35-.48-.07-2.23,2.64-2.41,2.93-1.38,2.19-1.59,4.35-2.33,6.71-.65,2.08-1.84,4.13-2.61,6.21-.1.27-1.08,3.26-.4,1.7s-1.08,1.26-1.21,1.43c-1.63,2.24-2.68,4.7-2.67,7.53,0,1.22.23,2.49.57,3.65.44,1.52.92,4.97.81.94l1.37-5.05c2.39-3.69-.61-.32-1.67.77-1.64,1.69-2.63,3.68-3.2,5.94-.89,3.54-.8,7.33-1.17,10.92l1.37-5.05c-1.51,2.72-4.19,4.94-4.28,8.92-.08,3.47,1.62,6.14,2.98,9.13l-1.37-5.05c-.07-.91-.35,1.01-.52,1.11.92-1.16,1.03-1.35.34-.55-.44.47-.84.96-1.21,1.49-1.56,2.14-2.56,4.72-3.37,7.24s-.8,4.66-.76,7.15c.03,1.91.8,5.46.83,6.3l1.37-5.05c-1.66,3.25-3.68,5.18-4.23,9.74-.19,1.6-.46,3.25-.4,4.88l.36,2.66c.36,2.06.44,1.6.24-1.38-1.21,2.6-1.41,3.16-.59,1.66.68-.99.52-1-.46-.02-1.25.78-2.08,2.29-2.77,3.57-1.03,1.92-1.41,3.82-1.32,5.98-.03,1.3.22,2.52.74,3.67,1.13,3.09,1.32,3.19.57.33l1.37-5.05c-.93,2.17-2.38,4.19-3.01,6.5-.67,2.44-.21,4.83-.35,7.28l1.37-5.05c-.42.78-2.13,2.5-2.85,3.87-.72,1.2-1.14,2.49-1.25,3.87-.82,3.36-.5,3.54.95.54-.77.99-1.54,1.98-2.3,2.97-.58,1.1-1.08,2.24-1.51,3.41-.69,1.85-1.09,3.82-1.79,5.67-.61,1.63-1.33,2.82-2.12,4.39-1.2,2.39-1.12,4.32-1.83,6.8s-2.02,4.05-2.18,6.73c-.22,1.27-.15,2.54.24,3.8.47,1.25.44,1.58-.1,1.01l1.37-5.05c-1.94,3.55-4.92,5.72-6.21,9.89-.98,3.18-1.9,7.02-2.46,10.29-.52,1.65-.5,1.98.04.98-.87,1.04-1.67,2.13-2.4,3.27-.85,1.17-1.66,2.52-2.57,3.68-1.58,2.04-3,3.38-3.83,5.9-.5,1.49-.61,3.03-1.18,4.49l2.57-4.41c-2.61,3.06-4.83,5.99-7.09,9.32-1.36,2-2.82,3.36-3.62,5.74-.55,1.18-.81,2.43-.78,3.75.18,1.34.07,1.69-.33,1.05l2.57-4.41c-1.69,2.15-3.14,3.68-5.15,5.48-2.22,1.99-3.45,4.53-5.13,6.92l3.59-3.59-.68.37,5.05-1.37c-4.38.56-8.23.28-11.79,3.5-1.63,1.48-3.42,3.4-4.62,5.23-.82,1.25-1.85,3.81-2.18,4.27l5.98-4.6c.72.25.36.31-1.07.18-1.33,0-2.6.26-3.81.75-2.44.81-3.76,2.49-5.9,3.7-1.66.94-3.69,1.42-5.4,2.4-2.04,1.17-3.83,2.74-5.81,3.99-2.39,1.52-4.91,3.13-7.33,4.55-1.55.91-3.93,1.63-5.66,2.19-.94.39-1.91.66-2.91.81-2.56.23-2.02.4,1.62.53-.46-1.35-6.12-1.85-7.05-1.83-2.92.08-5.65,1.32-7.74,3.35-.72.92-1.43,1.84-2.15,2.77-1.22,1.82-.49,1.41,2.19-1.21-1.94.41-1.93.6.02.56-1.27-.37-2.57-.59-3.89-.67-2.92-.12-5,.87-7.63,1.92-.71.28-5.53,1.61-1.79,1.35-2.7.18-4.81-1.1-7.67-.38-1.4.35-4,2.11-4.19,2.18h5.32c1.04.64.99.56-.13-.23-.52-.45-1.08-.83-1.7-1.14-2.48-1.38-5.71-1.89-8.47-1.13-2.2.61-4.08,1.89-5.6,3.55-.8.89-1.5,1.85-2.09,2.88-1.03,1.63-.54,1.34,1.45-.85l5.05-1.37c-1.2-.1-3.47-.95-5.13-1.13l8.64,4.95.37.59v5.32c.32-1.78,1.13-3.44,1.69-5.15s-1.35,1.38.38-.66c1.12-1.32,2.01-2.66,2.63-4.29,1.44-3.79.47-10.45,2.02-12.9l-3.59,3.59c2.17-1.64,4.46-2.63,6.23-4.83,2.12-2.62,2.25-5.41,2.92-8.57.57-2.69,1.56-5.03,1.43-7.84-.1-2.15-.74-4.1-1.86-5.92-.43-.69-1.29-2.88-1-1.05v5.32c.22-1.63.44-3.26.62-4.9.2-1.78-.99,1.76.55-.32s1.78-5.48,2.29-7.87c.68-3.2,1.79-6.68.89-9.95-.96-3.48-3.27-5.44-5.91-7.61-4.21-3.44-9.94-5.43-15.9-2.12-2.25,1.25-4.11,3.18-6.26,4.56-1.3.84-3.91,2.26-5.42,3.77-1.03,1.03-5.21,4.84-5.14,6.16-.81,1.13-.19.9,1.86-.69,3.04-1.33,2.88-1.61-.49-.83-1.35.3-2.6.7-3.83,1.4-2.07,1.18-3.84,2.89-5.88,4.12-2.88,1.74-5.14,3.59-6.59,6.68-.5,1.06-.68,2.22-1.15,3.26,1.25-2.77-.99-.34.1-.87,1.8-.88-1.5.08-1.84.18-.97.26-1.96.45-2.92.71-3.29.89-6.07,2.4-7.9,5.44-.69,1.14-1.19,2.36-1.49,3.66l-.36,2.66c-.27,1.9-.15,1.48.36-1.27l5.98-4.6c.48-.18-1.82.44-2.26.52.1-.02-3.24,1.04-2.06.77-3.36.78-5.62.83-8.59,2.75-1.9,1.23-3.79,2.28-5.75,3.39-1.49.85-5.75,3.72-6.68,5.39-.44.79-.3.64.73.2-1.09.46-2.56.34-3.74.72-2.68.85-5.32,2.19-7.85,3.39-2.77,1.32-5.76,1.79-8.09,3.96-1.65,1.54-2.62,3.43-3.89,5.25l3.59-3.59-.66.35,7.71-1.01-.69-.23,4.41,2.57c1.34,1.39-.73-.95-.92-1.17-.84-1.01-1.36-1.55-2.43-2.34-.14-.11-2.07-1.79-2.29-1.36-.16.32,1.71,3.91.7.02-.65-2.53-.86-5.23-2.13-7.55-.55-1-1.2-1.93-1.95-2.79-.4-.46-1.44-2.18-.99-1.16l1.37,5.05.12-.89-1.37,5.05c2.33-4.55,3.6-7.97,2.4-13.13-.48-2.05-1.09-4.33-2.19-6.13-.69-.99-1.44-1.93-2.27-2.8-.99-.87-1.1-1.02-.33-.43l1.37,5.05c-.12,1.53.73-2.48.68-2.17.01-.07.35-2.65.29-2.31.43-2.38.88-5.12.31-8.19-.42-2.3-.81-4.71-2.01-6.76-1.12-1.91-2.9-3.11-4.32-4.72l2.57,4.41-.29-.73v5.32c.58-3.18,2.63-6.29,1.44-10.52-.93-3.31-2.22-4.79-3.05-8.19v5.32c.41-2.39,2.14-6.91,2.38-10.26.13-1.8.08-3.31-.46-5.05-.17-.57-4.1-8.95-2.34-3.5v5.32c-1.56,5.18,2.31-3.13,2.48-3.66.66-2.08.78-4.08.28-6.23-.84-3.6-2.01-5.36-2.82-8.91v5.32c.76-3.88,3.13-9.47,3.06-14.57-.04-2.76-.35-5.26-1.8-7.67-.1-.17-2.29-3.31-2.52-3.18l1.57,3.28c.08-1.64.09-2,.02-1.08l-2.57,4.41c2.12-2.6,4.54-4.58,5.49-8,.36-1.38.45-2.76.26-4.15-.11-2.79-.25-3.54-.43-2.25,0,.65.62-3.21.83-4,1.08-4.09,1.03-7.36,1.14-11.57.05-1.93.15-3.72-.26-5.65-.33-1.56-1.39-3.81-1.54-4.72v5.32c.2-.99.48-1.96.85-2.9-1.41,1.55-1.51,1.73-.3.53,1.63-1.8,3.01-3.67,3.67-6.06.76-2.76.25-5.99-1.13-8.48-.3-.61-.68-1.18-1.13-1.7-.78-1.13-.86-1.16-.23-.09v5.32c1.07-2.77,3.65-7.03,3.89-11.14.22-3.6.92-6.31,1.89-9.84s.37-6.66,1.6-10.06c1.04-2.88,1.71-4.88,2.17-7.93.19-1.21,2.26-6.42.1-3.12l-3.59,3.59c2.41-1.84,5.08-3,6.79-5.7,2.03-3.21,1.31-6.19,1.79-9.23.28-1.78,2.01-4.73,2.84-6.54.88-1.91,1.73-3.69,2.13-5.76.14-.73-.12-4.06-.19-3.53l-2.57,4.41c-1.16,1.4-3.03,1.59.06.21,1.22-.55,1.98-.91,3.03-1.75,2.26-1.79,3.68-4.1,4.33-6.91.79-3.43-.15-3.52.98-6.52-.45,1.2-.87,1.41.28.39s2.07-2.73,2.73-4.14c1.04-2.19,1.8-4.52,2.74-6.76.49-1.15,1.03-2.29,1.42-3.48.1-.31.9-2.59.55-1.91.53-1,2.31-2.49,3.17-3.43,1.82-1.97,3.25-4.43,4.51-6.79.24-.45,1.7-3.72,1.68-3.73-.41-.12-6.8,5.24-.25,1.52,2.55-1.45,3.83-3.37,5.46-5.74,1.17-1.7,2.44-3.22,3.66-4.94.82-1.16,2.07-2.99,2.22-4.46.12-1.2-.3-1.67-.8-.28.77-2.12,3.35-2.68,4.97-4.16,1.81-1.65,3.22-3.77,4.51-5.85.59-.95,1.05-1.73,1.53-2.76-.11.23,1.55-3.11.99-1.92.49-1.03,1.11-2.13,1.4-3.23.37-1.39,1.81-5.9-.24-1.7l-3.59,3.59c-1.42.89,2.57-.51,2.91-.64,1.94-.81,3.46-1.93,4.8-3.57,2.03-2.47,2.42-5.04,4.02-7.19,1.07-1.43.13-.73,1.93-1.9-2.76,1.8,2.04-.39,2.59-.68,3.99-2.12,4.77-5.64,6.66-8.51l-3.59,3.59c2.52-1.53,7.34-3.24,10.27-5.8s5.76-5.78,9.1-7.99c3.52-2.34,7.07-4.14,10.33-6.95,1.79-1.54,3.26-3.15,4.24-5.3.42-.93.63-1.68.85-2.64s.89-1.89,0-.73l-3.59,3.59c.17-.08,3.19-.8,4.39-1.54,2.05-1.26,3.56-3.13,5.36-4.67l-4.41,2.57c2.18-.82,6.62-1.48,9.47-4.03,2.13-1.91,4.11-3.94,6.38-5.72l-4.41,2.57c3.7-1.51,7.48-3.32,11.31-4.3,2.51-.65,4.75-1.75,6.55-3.66-.2.22,3.54-4.73,2.21-3.52l-4.41,2.57c5.07-1.87,10.54-2.54,15.27-5.35.91-.54,2.31-1.45,2.94-2.25,1.59-2.04-1.2-.41.29-.64,2.97-.44,5.96-2.25,8.69-3.43l-5.05,1.37c-1.44.16.86.24,1.52.38,1.21.25,2.38.31,3.59.26,3.87-.15,6.34-2.45,9.52-4.19.45-.2.89-.42,1.32-.67.87-.54.88-.47.04.23,1.83-.34,3.62-.33,5.37-1.06,1.45-.6,2.84-1.47,3.98-2.57,1.21-1.16,4.53-3.84.74-1.44l-5.05,1.37c.53-.03,4.29.54,6.13.27,2.39-.35,4.69-1.16,7.03-1.76,2.06-.52,4.08-.98,5.93-2.09,1.39-.84,2.42-1.99,3.39-3.26,1.62-2.11,2.09-1.55-.43-.13l-5.05,1.37c2.29-.07,6.11,1.23,9.41,1.11,2.84-.11,5.62-1.24,7.65-3.27.55-.55,2.94-3.31,3-4.47-3.6,2.2-4.1,2.92-1.48,2.16.62.06,1.25.12,1.87.19,1.9.08,2.19.51,5.02.64,2.48.12,4.89-.39,7.03-1.69.98-.7,1.92-1.45,2.82-2.26.89-.98,1.02-1.08.4-.29l-7.71,1.01c-2.23-1.51-2.6-1.7-1.12-.55l2.02,1.56c1.24.77,2.57,1.31,3.99,1.66,3.49.86,7.67-.23,11.17-.91,2.77-.54,5.69-1.03,8.37-1.94,3.27-1.11,3.97-2.06,7.62-2.61h-5.32c-2.13-1.37-2.69-1.62-1.68-.77.75.7,1.56,1.35,2.42,1.92.99.63,2.03,1.23,3.17,1.55,2.91.83,7.32-.34,8.57-.36-.92.02,3.13.63,3.72.63,1.72-.02,3.41-.52,4.96-1.21,2.41-1.07,3.53-1.73,6.54-2.28h-5.32c-2.42-1.54-2.32-1.36.29.53.99.74,2.08,1.27,3.28,1.6,1.68.53,3.45.55,5.18.73,2.23.24,4.15.37,6.37-.34.53-.17,8.85-4.06,3.62-2.47h-5.32l.88.3-4.41-2.57c4.52,3.5,7.61,5.51,13.51,5.38,2.63-.06,5.06-.26,7.44-1.53.84-.45,2.93-.91,1.01-.85-2.63.09,2.14.47,2.13.47l-5.05-1.37c-1.73-2.02-2.02-2.3-.88-.83.65.99,1.39,1.9,2.24,2.72,1.4,1.31,3.28,2.39,5.12,2.9s4.31.38,6.23-.13c1.14-.44,2.25-.92,3.34-1.46,1.13-.72,1.27-.77.43-.12h-5.32l.85.34-4.41-2.57c3.11,2.54,6,5.38,10.32,5.38,1.89,0,4.18-.57,5.82-1.49.79-.44,3.7-1.69,1.74-1.39h-5.32c.29.12,2.82,1.96,4.13,2.33s2.81.18,4.14.56c.85.25-1.07-.22.46.35,2.65.97,4.43,1.94,7.33,2.18,2,.17,3.4.52,5.38,1.08,7.66,2.16,13.88-5.02,12.3-12.3l-.3-1.39-6.98,12.3c2.14-.72,5.06-2.27,7.35-2.11-2.74-.19.21.7,1.25.88,1.49.26,2.52.18,4.02.08,2.91-.19,5.84-.29,8.44-1.78,1.15-.67,2.13-1.49,3.02-2.46s4.33-4.44.36-1.6c-3.31,2.37-.62,1.25,1.24,1.1.97-.08,2.39-.06.45-.41,1.4.25,2.78,1.31,4.19,1.67,1.59.4,3.16.35,4.76.42,3.11.14,6.05,0,8.83-1.6,2.06-1.19,3.18-3.13,4.82-4.75l-4.41,2.57c-.9-.17-.53-.26,1.13-.26-1.59-.94-1.61-1.02-.03-.24,2.47.83,4.98,2.13,7.72,1.46,3.19-.77-1.08-1.28,1.42-.43,2.24.76,4.21,1.46,6.55,1.89,3.84.7,7.82.57,11.71.85,2.62.19,4.98-.1,7.32-1.39.98-.64,1.92-1.33,2.81-2.09,1.43-1.16,1.01-1-1.27.47h-5.32l.74.27-4.41-2.57c1.36,1.14,2.4,2.51,3.87,3.55,2.92,2.07,5.59,2.33,9.06,2.58,2.74.2,5.51.08,7.97-1.34.96-.56,1.9-1.32,2.72-2.04,2.12-1.86,1.61-.64-.88-.11h-5.32c.66.23,2.91,1.78,4.36,2.16,1.28.34,2.54.29,3.83.22,1.55-.09,6.26-.19,1.78-1.36-4.75-1.24,0,.96,1.13,1.52,1.23.61,2.26.93,3.61,1.14,1.89.29,5.34-.5,6.06-.53l-5.05-1.37c-1.64-1.87-2.07-2.28-1.29-1.23.59.84,1.22,1.66,1.87,2.46.79.83,1.68,1.68,2.67,2.27,3.43,2.03,6.47,1.67,10.19,1.15.78-.11.34-.03,1.5-.2,1.11-.06,2.2-.23,3.27-.5.86-.17.82-.2-.12-.08-1.96-.66,1.68.93,2.17,1.05,1.44.34,3.15.17,4.55.65.9.31,3.72,1.98,5.7,2.36l2.66.36c-3.43-2.93-4.29-3.39-2.58-1.38.91,1.36,2.12,2.55,3.51,3.41,5.34,3.32,10.28.87,15.54,1.43l-5.05-1.37c-.92-.54-.21.03.19.49.84,1,2.01,1.9,3.13,2.56,2.04,1.2,4.8,2.12,7.11,2.68,2.04.5,4.14.49,6.15.94,2.43.54,4.78,1.59,7.09,2.5l-4.41-2.57c-1.13-.94.55,1.14.81,1.55,1.39,2.16,3.21,3.61,5.49,4.7,1.52.73,3.17,1.17,4.77,1.65.71.28,1.43.48,2.18.62,3.08.47,3.54.51,1.38.1l-3.59-3.59c1.33,1.74,2.44,3.59,4.08,5.07,1.52,1.37,3.18,2.16,5.12,2.83.37.13,3,1.27,1.56.46,2.69,1.52,4.45,3.43,7.75,3.75,2.91.28,5.08-.63,7.83-1.07h-5.32l.76.15-4.41-2.57-1-1.64,1.01,2.39c.64,1.22,1.38,2.37,2.37,3.36,1.98,1.99,4.45,3.05,7.22,3.33,5.39.54-.24-.39-.17-1.22-.04.44,2.68,2.42,2.84,2.39-.77.11-3.64-5.02-1.15-.26.64,1.22,1.37,2.31,2.36,3.3,1.59,1.6,3.62,2.65,5.6,3.69,1.37.72,3.11,1.25,4.39,2.03-1.04-.63-.79-.69-.05.25,1.51,1.92,3.63,3.52,5.99,4.23,1.33.4,2.75.6,4.14.58.64-.03,1.27-.1,1.9-.21,2.02-.21,1.77-.27-.76-.17l-4.41-2.57c1.63,1.87,2.69,4.61,5.85,6.11,1.64.78,2.81,1.06,4.72,1.19.66.05,3.07.72,1.45.09l-4.41-2.57c.36.43,1.46,3,2.57,4.06,2.02,1.93,4.32,2.08,6.52,3.52-3.29-2.16,2.81,2.94,2.97,3.04,1.31.83,2.75,1.31,4.06,2.15l-3.59-3.59c-1-1.52,1.37,4.29,1.25,4.06,1.06,1.94,2.64,3.36,4.3,4.78,4.01,3.43,7.38,4.05,12.49,4.52l-5.05-1.37c-.51-.24,2.9,2.46.57-.34.95,1.14,1.26,3.18,2.09,4.49,1.92,2.99,4.86,4.01,7.51,6.02l-3.59-3.59c-2.72-5.28.47,3.59.79,4.2,1.3,2.47,3.05,3.68,5.14,5.4.35.29,4.58,3.71,2.16.93,1.26,1.45,1.5,3.86,2.82,5.45.57.68,4.66,4.22,4.82,3.81-1.67-3.01-2.19-3.44-1.54-1.29.44,1.17.95,2.31,1.51,3.42,1.5,2.42,3.92,4.2,6.65,5.02,1.2.25,2.41.43,3.64.54,1.91.2,1.52,0-1.16-.61l-3.59-3.59c.96,1.84,1.69,5.19,2.96,7.59.74,1.38,1.62,2.57,2.76,3.65.86.87,1.84,1.54,2.94,2.02,2.99,1.39,3.18,1.36.54-.08l-2.57-4.41c.17-2.95.11-3.49-.17-1.6-.23,1.19-.37,2.38-.4,3.59.08,2.93,1.17,5.66,3.16,7.82,2.46,2.67,4.53,3.46,6.86,6.23l-2.57-4.41c-.03-2.54-.13-2.79-.31-.77-.12.81-.22,1.63-.31,2.45,0,1.61.43,3.31,1.07,4.77,1.22,2.75,4.23,4.82,5.57,6.34l-2.57-4.41c1.54,4.28,1.79,8.41,6.24,11.03.94.56,3.08,1.81,4.19,1.73-2.92-2.66-3.69-2.87-2.31-.63.29.58.47,1.2.53,1.86.72,2.69,1.12,6.41,2.62,9.89s3.75,5.67,5.03,8.36c.6,1.26,1,2.53,1.51,3.84-.1-.26,1.75,4.89,1.55,3.8.3,1.6.03,3.36.49,4.99.76,2.74,2.83,3.93,4,6.28-.88-1.58-1.02-1.46-.42.36.37-1.91.4-2,.11-.27-.24,2.25-.54,4.18.09,6.46,1.23,4.47,4.92,6.21,8.28,8.75l-3.59-3.59.42.65-1.37-5.05c.83-2.81.67-2.68-.49.39-.49,1.17-.74,2.4-.72,3.7-.08,2.1.28,4.14,1.35,5.98,1.83,3.14,4.74,4.39,7.54,6.38l-3.59-3.59.43.65-1.37-5.05c-.03-.89-.51,4.69-.48,3.61-.05,2.22.42,4.2,1.39,6.2.51,1.05,1.3,1.99,1.78,3.03-1.23-2.67-.55,2.12-.48,1.42l1.37-5.05c-1.47,2.97-3.21,5.58-3.15,9.09.04,2.08.69,4.11,1.78,5.88-.18-.29,4.19,4.95,2.66,2.83-.88-1.45-.7-.88.55,1.69.12-2.71-.02-3.36-.41-1.94-1.05,1.2-.62,4.2-.47,5.74.16,1.66.5,3.37.89,4.99.1.75.3,1.47.6,2.18,1.07,2.83,1.29,3.2.66,1.11l1.37-5.05c-1.27,2.9-2.85,5.58-2.86,8.86-.02,4.07,2.62,7.18,5,10.19-.86-1.47-1.71-2.94-2.57-4.41.15-2.1.04-2.55-.3-1.35-.42,1.03-.6,2.11-.57,3.24-.09,1.82.16,3.47.56,5.26.31,1.34.76,2.71,1.22,4,.31.86,1.98,3.19,1.98,3.19v-5.32c-.67,3.68-3.32,8.55-2.67,13.15.36,2.51,1.47,4.86,3.29,6.68.63.63,1.37,1.13,2.07,1.69,2.97,2.38-.67-.94,1.16,1.02l-2.57-4.41c-.16-1.03-.21-.7-.15.98.62-1.65.52-1.69-.3-.13-1,1.76-1.39,3.85-1.91,5.77-.7,2.56-1.25,4.86-.62,7.56.37,1.56,1.88,3.62,2.13,4.45v-5.32c-.98,3.6-3.1,5.65-1.88,10.35.16,1.05.53,2.03,1.12,2.95.69,1.56.64,1.5-.14-.19l.12,1.5c.64-1.71.55-1.79-.27-.25-1.74,2.98-2.17,7.21-2.1,10.59.04,1.95.61,4.1,1.58,5.81.7.95,1.41,1.88,2.15,2.81,1.21,1.42,1.13.98-.26-1.31v-5.32c-.07.21-1.61,2.33-1.92,3.26-.58,1.75-.72,3.56-.95,5.39-.5,3.94.76,6.41,1.27,10.06v-5.32c-1.08,4.32-3.02,7.61-4.08,12.3-1.18,5.25,1.35,9.16,1.67,12.71l1.37-5.05c.35-.72,2.76-2.21.79-.98-1.47.92-2.49,1.89-3.51,3.2-1.63,2.1-2.24,4.45-2.71,7.03s-.89,4.99-.19,7.54c.6,2.2,2.04,3.87,3.08,5.83l-1.37-5.05c-.11-.88-.87,2.4-1.07,2.97-1.65,3.1-1.31,3.21,1.01.32-.37.17-.71.39-1.02.65-2.68,1.69-3.04,3.84-4.75,6.07-.4.52-1.91,1.64-2.57,2.25l4.41-2.57-.9.3h5.32l-.69-.28,4.41,2.57c-1.86-1.85-3.75-3.52-5.66-4.81-2.99-2.02-6.83-2.67-8.99-3.32l4.41,2.57c-2.3-1.95-4.26-5.26-8.27-6.2-2.07-.48-4.11-.35-6.15.19-1.86.49-2.99,1.2-3.66,1.35h5.32c.64.26.56.19-.24-.22-1.09-.72-.95-.41.45.94-.79-1.5-1.29-2.58-2.55-3.9-1.52-1.59-3.13-3.41-4.93-4.67-2.34-1.64-4.74-2.07-6.46-2.62-.66-.21-3.64-1.19-3.32-1.07l-1.35-.67c-2.71-1.26-3.16-1.39-1.34-.41l2.57,4.41c-.9-2.67-1.46-5.24-3.35-7.44-1.07-1.24-2.44-2.87-4.13-3.29-1.73-1.03-1.89-.78-.48.75,1.32,2.11,1.29,1.76-.08-1.05-1.51-2.9-3.82-5.22-7.01-6.2-1.39-.43-2.86-.67-4.32-.64-.95.02-2.96-.41-1.07.32l4.41,2.57c-.91-.78-2.87-2.84-3-3.03-1.48-2.18-2.46-4.08-4.79-5.66-.83-.59-1.7-1.09-2.63-1.5,1.24,1.18,1.42,1.09.54-.27-.95-2.13-3.35-3.99-5.32-5.01-2.63-1.37-4.18-1.25-6.68-2.74-2.54-2.37-2.73-2.06-.59.95-.12-.66-.33-1.28-.61-1.89-1.01-2.8-2.66-5-5.18-6.61-7.79-4.96-21.06-3.82-23.54,6.62-.48,1.77-.48,3.54,0,5.32.27,2.3.44,1.55.48-2.24-.99-.59-2.52,6.81-2.57,7.27-.2,1.77-.42,3.57-.35,5.35.03.63,1.83,10.01,1.38,3.91l1.37-5.05c.67-1.3-1.13.84-1.34,1.07-1.44,1.53-2.33,3.29-3,5.26-.82,2.43-1.48,5.39-1.37,7.92.06,1.31.6,4.92,1.74,6.03.79-5.05.66-6.58-.4-4.58-.56.9-1,1.87-1.31,2.9-.47,1.4-.76,2.78-.76,4.29-.04,1.09.08,2.16.35,3.23.26,1.45.31,1.6.15.42-.03-1.26-.24-1.04-.62.64l1.96-2.25c-.88-.28-4.14,3.9-4.41,4.32-1.57,2.5-2.3,5.94-2.64,8.87-.19,1.64-.22,3.33.21,4.96.24.76.53,1.49.86,2.21.84,2.24.83,1.55-.03-2.08-.69.49-1.14,5.17-1.16,5.39-.07.84-.82,3.88.09,1.11l2.57-4.41-.72.73c3.24-.86,6.49-1.71,9.73-2.57-3.67-1.06-4.7-2.56-8.53-3.52s-7.89-.55-11.66-.69l5.05,1.37c-1.31-.7-3.88-3.1-6.19-3.73-2.42-.67-6.1.36-7.56.3l5.05,1.37c-.44-.27-2.4-2.31-3.62-3-1.81-1.02-3.78-1.09-5.64-1.83-4.06-1.62-7.86-3.89-11.86-5.66-1.37-.61-3.48-.86-4.56-1.45-.92-.51-1.51-1.6-2.31-2.39-3.23-3.2-7.22-4.93-11.02-7.34l3.59,3.59c.56.81.14.29-.04-.49-.29-1.3-.87-2.66-1.55-3.8-1.36-2.29-3.45-3.4-5.17-5.31-1.59-1.77-2.46-3.84-4.62-5.21-1.14-.72-2.38-1.28-3.7-1.62-.49-.13-2.26-.84-1.04-.06l3.59,3.59c-.24-.47-.74-3.28-1.54-4.57-.93-1.5-2.26-3-3.45-4.29-2.65-2.89-5.49-3.95-9.09-5.35l4.41,2.57-.72-.58,2.57,4.41c.54,1.44.07-.88.04-1.51-.11-2.07-.65-4.1-1.67-5.93-1.34-2.4-3.58-4.75-5.43-6.78-1.2-1.31-2.4-2.36-3.29-3.96-1.99-3.58-2.58-5.83-3.15-8.41-.85-3.84-2.95-6.2-5.95-8.46-2.17-1.64-.12-.71.21.1-.53-1.3-1.52-2.69-2.32-3.86-1.62-2.46-1.99-2.76-1.09-.9.47,1.53.63,1.49.5-.11.16-1.67-.57-3.61-1.1-5.17-1.08-3.2-2.54-6.18-3.88-9.26l1.37,5.05c-.3-2.43.05-4.9-.61-7.3-.77-2.81-2.75-3.95-4.19-6.22,2,3.15-1.07-3.91-1.18-4.12-.69-1.3-2.43-3.33-2.71-3.85l1.37,5.05.02-.78-1.37,5.05c.71-1.67,1.76-3.13,2.38-4.86,1.22-3.4.79-6.03.07-9.48-1.22-5.79-4.52-7.77-8.97-10.94l3.59,3.59-.43-.65,1.37,5.05c0,.13.31-3,.3-4.13-.02-1.61-.21-3.88-.99-5.38-.29-1.19-.33-.95-.12.74.52-1.24.78-2.55.79-3.92.09-1.81-.25-3.51-.71-5.25-.76-2.88-1.41-5.77-2.1-8.67-.86-3.64-2.66-6.03-4.16-9.3l1.37,5.05c-.1-2.53.58-7.17-1.5-10.75-1.51-2.59-1.85-5.35-2.56-8.64s-1.26-6.78-2.24-10.19c-1.08-3.75-2.91-6.56-4.51-9.96l1.37,5.05c-.5-3.81-.36-5.03-.29-7.62s-1.05-4.73-1.64-7.11c-.69-2.79-.57-5.58-1.79-8.41-.88-2.04-2.77-4.49-3.09-6.65.52,3.54.59-1.03.56-1.33-.16-1.75-.54-3.32-1.36-4.89-.97-1.84-2.34-3.67-3.28-5.06-.22-.32-1.86-2.98-2.34-2.98.99,2.97,1.43,3.65,1.34,2.05.03-.66-.03-1.31-.18-1.96-.39-3.17-1.63-5.77-3.93-8.01-1.15-1.12-3.69-3.97-1.16.15s1.32-.18.93-1.92c-.65-2.85-2.29-5.08-3.55-7.65-2.2-4.47-3.2-8.73-7.18-12.47-1.82-1.71-3.7-3.3-5.93-4.42-5.97-2.99.33,1.18-2.38-1.35-4.08-3.8-.3.6-.38.69,1.23-1.44-4.62-7-5.68-7.62-2.13-1.24-5.71-1.71-7.17-2.22l4.41,2.57c-2.99-2.32-5.4-5.13-8.52-7.08-4.11-2.56-7.44-1.66-11.87-1.09,1.5-.19-3.66.08-4.09.08-.7,0-5.12-.46-1.69.29-2.65-.58-4.46-1.87-7.31-2.12-1.96-.17-4.01-.19-5.95.16-2.13.38-3.97,1.11-5.8,2.32-1.27.91-1.3.99-.08.22-1.4.09-2.78.33-4.13.73-4.1,1.32-7.56,4.07-10.6,7.01-2.58,2.5-4.72,4.26-7.07,6.58-1.75,1.72-3.04,3.77-3.62,6.17-.32,1.24-.43,2.48-.31,3.74.33,3.37.45,3.55.37.54l2.57-4.41c.88-.97-.47.19-.96.52-.99.65-1.94,1.38-2.76,2.23-1.43,1.48-3.47,3.9-4.56,5.75-1.53,2.62-2.15,5.93-1.32,8.9.29,1.04.79,2.23,1.31,3.17,1.21,2.18.66,2.28.55-1.02l1.37-5.05c-.89,2.08-2.28,3.77-2.92,6-.71,2.48-.82,5.16-1.1,7.72l1.37-5.05c.43-.95-1.04,1.1-1.3,1.4-1.32,1.5-2.39,3.35-2.93,5.3-1.11,3.98,1,6.7,1.84,10.06v-5.32c-.41,1.62-1.47,3.19-1.84,4.93-2.72,12.55,16.56,17.91,19.29,5.32Z"/>
</svg>