<?xml version="1.0" encoding="UTF-8"?>
<svg id="_レイヤー_2" data-name="レイヤー 2" xmlns="http://www.w3.org/2000/svg" viewBox="0 0 1000 1000">
  <path d="M667.13,396.74c3.39-1.53,5.78-4.31,8.92-5.95-3.54,1.83,3.29-1,2.55-.6,1.89-.99,3.33-2.29,4.54-4.02.94-1.35,1.73-2.81,2.51-4.25s1.16-3.25,2.08-4.46c-2.06,2.71,1.13-.34,1.61-.84,1.24-1.29,2.3-2.81,3.71-3.9l-4.41,2.57c3.4-1.28,6.64-2.25,9-5.25,1.32-1.68,1.97-3.55,2.26-5.63.05-.36.37-4.78-.15-3.04l-2.57,4.41c2.16-2.1,5.06-4.1,7.2-6.68,1.33-1.6,2.28-3.21,2.77-5.28.34-1.25.44-2.51.29-3.77-.31-3.35-.44-3.55-.41-.59l-2.57,4.41c-.64.71.17-.04.62-.28,1.02-.54,2.14-1.35,2.95-2.15,1.2-1.2,1.93-2.55,2.84-3.76,3.4-4.53,3.58-8.84,3.19-13.82-.06-.76.08-3.37-.59-3.85-.17-.85-.3-.81-.39.12-.26,1.17-.26.97,0-.6.1-.68.19-1.36.26-2.04.1-.94.11-.95.03-.04-.83,1.17.96-1.12,1.19-1.63,2.61-5.99-.12-10.58-3.74-15.26l2.57,4.41-.46-1.09v5.32c-.2,1.33-.15.43.43-.56.67-1.14,1.35-2.4,1.7-3.66.82-2.97.36-6.25-1.18-8.89-.69-1.19-1.6-2.22-2.6-3.15l-2.02-1.56,1.28,1.39c-.34-.58-1.41-3.69-1.01-1.35.53,3.05-.34-3.99-.06-2.9-1.34-5.15-5.94-10.05-11.02-11.63-2.59-.8-5.37-1.2-8.06-1.26-.93-.02-1.9-.07-2.82-.04-.88.03-1.75.12-2.62.27-1.46.33-1.75.32-.87-.04l5.05,1.37c-5.64-2.38-10.7-4.92-16.25-.32-1.41,1.17-2.03,2.04-3.23,3.6-1.58,2.07,1.71-.64-.18-.19-2.18.52-4.54,3.98-5.59,4.47l5.05-1.37c-5.04.64-8.3,1.15-12.15,4.73-3.26,3.03-5.49,6.46-5.28,11.1.31,3.77.52,3.54.64-.69-.47.8-.92,1.61-1.34,2.44-.8,1.6-1.33,3.33-2.14,4.93,1.68-3.34-1.43,1.55-1.95,2.56-1.11,2.14-1.37,4.18-1.71,6.5,4.1-2.33,8.2-4.66,12.3-6.98-1.96-.74-4.1-.79-6.17-1.06l5.05,1.37-1.03-.44,3.59,3.59c.58,2.53.81,3.12.71,1.76-.02-1.08-.15-2.15-.38-3.22-.26-1.16-.57-2.31-1.17-3.36-.86-1.52-5.64-7.05-8.04-5.87-1.09-.3-.91,0,.55.92,1.35,1.38,1.54,1.4.56.06-.75-1.38-2.07-2.7-3.31-3.64-2.92-2.2-6.2-2.52-9.73-2.93l5.05,1.37c-.12-.05-7.83-6.99-8.63-5.36.17-.36,4.16,4.37,1.77.58-1.31-2.07-2.95-3.16-4.9-4.57-2.74-1.98-6.45-4.2-9.77-5.01-1.9-.47-4.31-.43-6.23.1.23-.06-5.48,2.25-3.85,1.89h5.32c2.8.98,1.25.19-.83-1.05-1.01-.61-2.15-1.1-3.29-1.41-3.13-.83-6.61-.17-9.64.85-6.16,2.08-7.44,6.01-9.71,11.48l2.57-4.41c.85-1-3.56,2.63-2.78,2.02,2.24-1.75.06-.25-1.56.66-3.33,1.87-5.26,4.7-6.41,8.31-.72,2.25-1.89,4.54-2.46,6.87-.87,3.57.53,6.34,1.05,9.72v-5.32c-.84,5.08-1.76,10.14-.15,15.21,1.42,4.47,3.22,8.89,4.57,13.37.81,2.69,1.4,5.2,3.44,7.35.8.85,1.7,1.62,2.68,2.26.81.52,3.24,2.35.78-.16-2.21-2.25-.76.05-.27,1.26.62,1.56,1.44,3.07,2.63,4.28,1.79,1.82,4.15,2.74,6.14,4.24l-3.59-3.59c1.23,1.72,1.97,3.64,3.4,5.25,1.67,1.87,3.73,2.94,5.67,4.47s3.49,3.33,5.82,4.41c2.03.94,4.33.66,6.18,1.13l-4.41-2.57c-.45-.92-.35-.82.3.3.73.95,1.47,1.9,2.2,2.85,1.45,1.45,2.44,1.88,3.61,2.77,2.58,1.97,4.73,3.32,8.1,3.53,1.28.26,2.55.19,3.83-.21,1.53-.29,1.75-.29.66,0-1.16.22-.88.42.83.59-1.28-1.01-1.28-.98-.02.06,1.63,1.33,3.32,2.28,5.13,3.3,2.29,1.3,4.33,2.37,7.07,2.51,1.61.08,4.32-.62,5.02-.62l-5.05-1.37c4.82,2.49,7.73,5.31,13.85,5.59,12.87.6,12.84-19.4,0-20,2.72.98,3.24,1.1,1.56.36l-2.39-1.01c3.3,1.59-1.61-1.49-2.36-1.92-4.23-2.42-6.72-.87-10.64-1.04l5.05,1.37c-3.58-1.68-5.5-3.99-9.24-5.58-2.2-.93-4.6-1.59-6.95-1.98-1.98-.33-5.34.06-6.35-.07l5.05,1.37c-1.03-.61-3.2-2.3-4.64-3.37l3.59,3.59c-1.62-2.1-2.85-4.4-5.08-5.96-2.71-1.9-6.41-1.82-8.39-2.42l4.41,2.57c-1.24-1.03-2.32-2.18-3.55-3.22-1.1-.94-3.74-2.18-4.73-3.28,1.35,1.5.55-.16.07-1.02-.98-1.78-2.63-3.46-4.42-4.44-3.93-2.15.67.9.09,1.33.43-.32-1.55-4.32-1.81-4.77-1.01-1.7-2.66-3.21-4.29-4.26-.37-.23-2.5-1.86-1.42-.71l2.57,4.41c-1.21-2.87-2.15-6.1-3.15-9.09-.85-2.55-2.07-5.57-2.45-8.08-.51-3.31,1.78-6.85.15-10.13-1.36-2.73-1.79,3.43-.05.43,1.21-2.09,1.3-4.42,2.12-6.63l-2.57,4.41c-2.89,2.76.67,0,1.87-.79,1.35-.89,2.99-2.02,4.27-3.06,1.6-1.3,2.69-2.74,3.6-4.61.3-.7.59-1.4.88-2.1.63-1.79.3-1.43-.97,1.07l-4.41,2.57c1.55-.51,3.02-.89,4.63-1.19h-5.32c-2-1.29-2.22-1.36-.67-.22.63.5,1.28.99,1.94,1.45,1.63.94,4.07,1.68,5.95,1.68,3.41,0,6.01-1.79,8.9-3.25l-5.05,1.37c-1.54-.33-1.75-.27-.63.17.69.31,1.36.66,2.01,1.04l1.24.93c-1.12-1.56-1.42-1.86-.91-.88.33,2.53,3.95,5,5.94,6.02.43.22,4.5,2.08,2.88.87-1.8-1.34,1.07,1.44,1.39,1.73,3.1,2.78,6.78,3.21,10.75,3.69l-5.05-1.37c-.78-.35-1.73-2.17-.57-.35.89,1.39,2.01,2.65,3.31,3.64,1.61,1.24,4.75,1.83,5.57,2.21l-3.59-3.59c-.66-2.67-.9-3.06-.72-1.16l.36,2.66c.43,1.92,1.15,3.51,2.38,5.01,2.7,3.31,7.2,3.78,9.74,4.73,4.63,1.74,11.56-1.97,12.3-6.98.1-.68.59-2.09.41-2.75-1.21,1.37-1.46,1.62-.74.78.4-.47.78-.95,1.14-1.45,1.34-1.81,1.99-3.8,2.97-5.79s2.41-3.85,3.08-6.03c.41-1.33.57-2.71.55-4.1-.03-.63-.1-1.26-.21-1.88-.23-2.06-.27-1.77-.1.88l-2.57,4.41c.32-.35,2.08-1.72,2.11-2.1-3.3,1.05-4.14,1.45-2.53,1.2.62-.08,1.24-.16,1.86-.25,3.26-.64,5.1-1.99,7.56-4.13,1.19-1.04,2.24-1.68,3.58-2.57s2.48-1.95,3.52-3.19c1.12-1.34,2.73-2.43-.15-.48l-5.05,1.37c-2.74-.92-3.27-.96-1.56-.11.69.29,1.38.58,2.08.88,2.08.75,3.85.85,5.98.75,1.32-.06,2.87.12,4.18-.08,2.89-.44.62,1.3.43-.49-.65-6.14-1.11-.83-.71.96.37,1.66,1.09,3.07,1.88,4.54.55,1.02,1.17,2.05,1.81,3.03.62,1.09,1.42,2,2.41,2.74,2.47,2.04,2.68,2.1.65.2l-1.37-5.05-.06.78,1.37-5.05c-1.08,2.26-2.55,4.1-3.14,6.61-.52,2.24-.28,4.25.46,6.41.27.8,3.26,6.96,1.98,3.21v-5.32c-.24.87-1.81,2.91-2.19,4.46-.43,1.78-.81,5.12-.85,7.01-.09,3.73,1.63,6.67,1.31,9.88l1.37-5.05c-.5.94-4.54,4.03-.75,1.82-1.49.87-2.69,1.42-4.01,2.68-2.66,2.52-5.42,8.8-3.36,12.54,1.89-4.65,1.92-5.94.08-3.87l-.75.92c-.95.87-2.78,1.83-3.9,3.05-1.4,1.5-2.36,3.32-2.84,5.32.07-.3-.66,6.29-.04,4.37l2.57-4.41-.72.59c1.47-.86,2.94-1.71,4.41-2.57-4.14,1.6-7.19,3.11-10.22,6.44s-5.35,5.77-7.33,9.62c-.1.2-1.89,2.58-1.68,2.93-.02-.03,5.55-3.66-1.01-.31-3.29,1.68-5.69,4.3-9.13,5.85-4.92,2.22-6.11,9.37-3.59,13.68,2.96,5.07,8.74,5.82,13.68,3.59Z"/>
  <path d="M669.96,392.52c1.47.38,2.9.51,4.4.44l2.66-.36c1.89-.36,1.42-.51-1.41-.46l-4.41-2.57.5.63-2.57-4.41c1.16,3.85,1.61,7.27,5.04,9.97,1.94,1.53,4.35,2.3,6.82,2.36,1.21-.07,2.41-.22,3.6-.43,1.88-.31,1.37-.4-1.52-.28l-4.41-2.57.51.61-2.57-4.41c.6,1.73.79,3.48,1.58,5.16,1.48,3.18,3.64,4.78,6.52,6.62,5.19,3.31,9,2.33,14.62,1.46h-5.32l.79.18-4.41-2.57c2.18,1.81,4.14,4.21,6.73,5.47l1.26.85c-.87-1.12-1.01-1.27-.41-.43.97,1.09,1.68,2.32,2.76,3.33,1.94,1.81,4.52,3.65,6.93,4.72,1.5.66,3.11,1.07,4.76,1.12l1.11-.06c3.37-.35,3.55-.46.54-.31l-4.41-2.57.52.6-2.57-4.41c1.09,2.94,1.43,5.88,3.72,8.31,2.4,2.55,5.93,3.81,9.19,4.95,1.95.69,3.28.76,4.74,2.11,2.52,2.32,4.3,4.67,7.9,5.6.85.22,6.2,1.43,2.32.03l2.39,1.01c2.04.68,1.68.12-1.08-1.68.32-.03,2.74,3.41,3.07,3.93-.92-1.43.49,1.3.59,1.47,4.12,6.6,10.39,4.85,16.26,6.96l-4.41-2.57c-.97-.98.04.63.29,1.12.59,1.16,1.54,2.27,2.48,3.17,2.44,2.34,5.78,2.9,8.81,4.1l-4.41-2.57c2.66,2.27,4.5,4.62,6.88,6.56,1.59,1.3,3.19,2.24,5.23,2.72-.42-.1,6.37.57,4.21,0l-4.41-2.57c3.38,2.63,6.01,5.09,10.27,6.1,1.55.37,2.94.88,4.46,1.36,1.16.37,1,.28-.49-.26.86.9,1.82,1.69,2.87,2.38,1.17.8,2.44,1.3,3.65,2.02,1.61.96,1.86,1.58,3.99,2.99,2.85,1.89,6.16,2.89,9.12,4.65,11.08,6.61,21.15-10.67,10.09-17.27-2.92-1.74-6.33-2.73-9.16-4.42,2.97,1.77-1.16-1.52-1.66-1.87-1.38-.94-2.94-1.47-4.33-2.36-1.83-1.17-4.39-3.55-7.31-4.64-2.73-1.01-5.53-1.48-8.22-2.43l4.41,2.57c-2.55-1.98-4.75-4.61-7.95-5.55-1.44-.43-3.15-.72-4.65-.55-3.16.37,2.59,2.64,1.77.94-.24-.49-2.48-2.14-2.22-1.86-.7-.73-1.23-1.59-1.96-2.3-2.66-2.6-5.95-3.16-9.25-4.48l4.41,2.57c1.27,1.28-2.31-3.84-2.1-3.61-1.57-1.68-3.41-2.8-5.62-3.44-2.78-.8-6.98-.94-9.07-1.51l4.41,2.57c.98.96-.05-.5-.34-1.01-.58-1.04-1.43-1.88-2.15-2.81-1.05-1.35-2.58-3.63-4.37-4.92-3.93-2.84-8.86-2.94-12.6-4.21l4.41,2.57c-2.82-2.44-5.11-5.13-8.4-7.15-1.7-1.04-3.43-1.53-5.29-2.1-1.28-.39-4.71-2.87-2.63-.47l2.57,4.41c-1.68-4.52-2.58-8.75-7.45-10.98-2.27-1.04-4.75-1.3-7.21-.89-1.87.18-1.77.25.3.23,1.78.37,2.12.23,1.02-.41-.73-.62-.8-.62-.21,0,.65.78.54.59-.31-.57-2.4-3.52-6.43-5.7-9.65-8.4-4.84-4.04-9.2-2.66-14.72-1.8h5.32c1,.23-1.31-1.36-.73-.67l2.57,4.41c-1.29-3.71-1.81-7.15-5.17-9.77-1.95-1.52-4.34-2.31-6.82-2.37-1.21.07-2.41.21-3.61.43-1.89.31-1.38.4,1.54.29l4.41,2.57-.5-.63,2.57,4.41c-1.17-3.84-1.61-7.26-5.03-9.97-1.93-1.53-4.37-2.3-6.84-2.35-1.21.14-2.43.3-3.64.47-1.9.36-1.42.52,1.42.47-12.48-3.19-17.8,16.09-5.32,19.29h0Z"/>
  <path d="M187.52,441.87c.86-1.01,1.72-2.02,2.37-3.17.26-.54.5-1.09.72-1.65,1.09-2.3.48-1.71-1.84,1.79l-5.05,1.37c3.63-.43,7.07-.52,10.13-2.84,1.67-1.27,2.77-2.88,3.61-4.76.18-.41,1.71-4.08.86-2.83l-3.59,3.59c.26-.15,3.05-1.19,4.23-1.95,2.36-1.52,3.14-3.49,4.89-5.51,1.14-1.31,4.25-4.21,6.29-5.61,3.28-2.25,7.54-2.1,10.19-6.4,2.2-3.57,1.26-6.65,1.63-10.4l-1.37,5.05.32-.6-3.59,3.59.86-.39-5.05,1.37c3.31-.26,6.48-.11,9.47-1.94,2.78-1.7,5.17-4.51,7.22-6.98,1.54-1.86,3.19-4.56,4.51-6.1,1.97-2.29,4.68-2.74,6.9-5.5,1.14-1.42,1.88-2.96,2.34-4.74.21-1.05.37-2.11.46-3.19-1.61,2.94-1.76,3.8-.44,2.58.82-.14,2.08-1.65,2.84-2.07.81-.53.81-.61,0-.23.54-.07,1.07-.19,1.59-.35,7.61-2.18,8.43-8.99,11.16-13.93l-3.59,3.59c3.31-2.25,7.07-3.78,10.62-6.88,4.75-4.15,5.77-7.89,6.25-14l-1.37,5.05c.52-1.15,1.93-1.22-.95-.55-5.12,1.2,2.44.07,2.01.17,2.77-.65,4.99-1.91,6.8-4.16,1.12-1.39,1.74-2.66,2.37-4.39s.54-.63-.15.04c2.03-1.95,3.5-3.65,4.98-6.02.98-1.56,2.24-2.81,3.41-4.29.82-1.04,1.57-2.61,2.46-3.54-1,1.03-.89,1.01.27.48,4.5-2.08,6.45-8.36,9.19-12.14l-3.59,3.59c-1.07.75.27-.04.94-.29,1.12-.42,2.25-.83,3.27-1.44,2.71-1.63,4.58-4.25,5.58-7.21s-2.19,1.33-.59,1.25c.86-.04,2.4-1.62,3-2.21,1.85-1.79,3.08-4.12,4.22-6.41.89-1.79,1.38-4.15,1.9-5.27.37-.78,1.28-1.41,1.63-2.15l1.02-1.1-3.47,1.05c1.84.79,6.15-1.18,7.66-2.11,1.43-.89,6.15-5.47,5.26-7.63.34-1.07.07-.88-.81.57-1.19,1.2-1.34,1.49-.43.88.89,0,2.76-2.01,3.4-2.61,1.88-1.75,3.67-3.8,5.11-5.91.48-.7,3.92-5.47,3.49-5.87-.04-.03-4.99,3.44-.16.96,1.2-.62,2.31-1.28,3.31-2.25,2.11-2.04,2.17-4.77,3.85-6.87-1.1,1.38-.38,1.04.62.24s1.72-1.84,2.5-2.8c1.73-2.13,3.57-4.15,4.28-6.89.29-1.12.4-2.44.38-3.61s.32-2.66-.29-1.12l-4.6,5.98c2.56-1.95,6.84-3.63,9.6-6.33,1.93-1.89,3.04-4.22,3.47-6.85.16-1.01.18-1.81.16-2.79-.03-1.08.38-2.07-.21-.56l-4.6,5.98c-1.06.74.56-.04,1.16-.22,1.14-.34,2.29-.81,3.3-1.42,3.05-1.83,3.6-4.18,5.58-6.71,1.78-2.28,3.96-3.64,4.93-6.64.37-1.16.63-2.3.71-3.54.04-.62.55-3,.02-1.6l-2.57,4.41c.94-.81,3.44-2.05,4.71-3.64,1.02-1.26,1.95-2.81,2.37-4.4.78-2.94-2.44,1.32-1,.93,4.33-1.17,7.16-9.06,9.55-12.42l-3.59,3.59c-.68.51-.08,0,.62-.17,1.14-.28,2.42-.73,3.43-1.32,2.08-1.21,3.76-3.1,5.34-4.87,1.87-2.09,3.11-4.33,3.53-7.09.21-1.39.15-2.29,0-3.68-.31-2.81.44-2.82-.44.23l-2.57,4.41c2.32-2.38.82-2.14-4.52.72l-9.64-7.34c.66,2.52,1.2,5.15,2.56,7.41.59.98,1.41,1.84,2.24,2.62.77.67,1.59,1.28,2.44,1.84,1.07.76.64.27-1.28-1.49l-1.37-5.05-.05.94,1.37-5.05c-1.5,3.53-3.26,6.51-2.7,10.51.3,2.12,1.13,3.85,2.41,5.54.21.28,2.72,3.5,1.88,1.96l-1.37-5.05c.33,4.27-.32,9.04,1.36,13.09s4.84,5.28,8.11,7.42l-3.59-3.59c.58.8,1.09,1.74,1.4,2.68.02.05.37,1.86.37,1.86.14,1.37.2,1,.19-1.12l-.41,1.09c-.57,1.26-.63,2.85-.62,4.18.03,3.03,1.39,5.59,2.74,8.21.93,1.8,3.21,4.05,3.82,4.95l-1.37-5.05c-.13-1.43-.15.32-.27.95-.27,1.39-.45,2.71-.39,4.11.21,4.21,2.25,5.68,4.37,8.91-1.27-1.93-.33-.32.14.95.57,1.52,1.27,2.96,1.96,4.42,1.05,2.23,1.68,4.73,2.87,6.91,1.1,2.01,2.63,3.56,3.53,4.96l.69,1.32c-.28-1.09-.28-.86,0,.68.25,1.98.77,3.3,1.56,5.19,1.04,2.46,2.29,4.32,3.48,6.62-1.13-2.18-.52-.16-.38,1.33.17,1.72.52,3.32,1.42,4.86,1.48,2.53,4.46,4.99,7.38,5.55,2.52.49-1.09-1.13-1.75-1.75.83,1.49,1.08,1.66.74.52-.18-1.12-.23-.92-.15.58.09,3.45,1.59,6.58,3.92,9.08.51.55,1.33.97,1.75,1.58-2.06-3,.73,3.62.03,1.04-.49-1.78.2,2.78.31,3.23.43,1.65,1.19,3.12,2.15,4.49,1.02,1.46,2.26,2.26,3.55,3.44,1.76,1.6.08-.74.08.75,0,1.72,3.15,5.58,4.14,6.84s2.09,2.37,3.46,3.22c.36.22,2.67,1.73,1.4.5l-2.57-4.41c1.55,3.72,2.42,7.21,4.7,10.68,2.14,3.25,5.61,6.68,7.59,8.74.6.79,1.25,1.55,1.93,2.28-1-1.4-1.24-1.32-.72.24.14,1.26,2.12,5.06,2.72,6.24,1.17,2.3,2.78,4.19,5.06,5.47,1.1.59,2.26,1.02,3.47,1.31,1.36.3,1.58.32.66.05l-3.59-3.59c1.7,2.9,1.79,4.42,3.32,7.35,1.36,2.59,3.57,4.75,5.46,6.98,5.66,6.7,17.29,1.2,17.07-7.07-.1-3.69.72-6.9-1.13-10.39-.67-1.26-1.49-2.4-2.54-3.38-.59-.55-1.79-2.3-1.03-.64l1.01,7.71c-.21,1.44.53-1.03.79-1.55,1.15-2.31,1.67-4.75,1.32-7.33-.29-2.11-1.13-3.89-2.36-5.58-.45-.65-.96-1.26-1.53-1.81-1.02-.9-1.17-1.04-.46-.44l1.01,7.71c-1.81,2.63-1.72,2.6.27-.08.46-.52.84-1.09,1.15-1.7.94-1.7,1.49-3.9,1.49-5.84,0-4.28-2.84-7.22-5.3-10.38l2.57,4.41.12.86-1.37,5.05c1.48-3.38,3.15-6.4,2.67-10.25s-2.92-6.21-5.32-9.03l2.57,4.41c-.64-1.53-2.15-4.41-2.41-5.16v5.32c-1.4,2.18-1.5,2.53-.32,1.07.77-.91,1.48-1.86,2.13-2.86,1.38-2.52,1.94-5.7,1.17-8.49-.59-2.14-1.84-4.09-3.45-5.6-.9-.75-1.84-1.45-2.81-2.11-1.55-1.07-1.19-.64,1.09,1.3l1.37,5.05.12-.93-1.37,5.05c.81-1.75,1.95-3.46,2.46-5.32.74-2.71.2-5.2-.11-7.91-.22-2-.26-4.03-.6-6.02s-2.08-4.56-2.48-5.61v5.32c-.42.83-.25.65.52-.54.7-1.04,1.24-2.17,1.61-3.38.8-2.65.43-5.1-.13-7.74-.93-4.39-3.03-7.33-5.84-10.71l2.57,4.41-.35-.87v5.32c.49-3.12,2.54-6.35,1.35-10.43-1.03-3.52-3.29-5.01-5.54-7.48l2.57,4.41c.37.88.05-1.41.12-1.89.16-1.03.24-.27.53-1.64.56-2.63.67-5.69.52-8.39-.07-1.29-.33-2.54-.72-3.76.2.65-1.66-4.99-1.48-2.78s.18-2.02.24-2.37c-.2,1.34.75-2.48.7-2.2.45-2.69.27-6.34-1.5-8.62-.85-1.57-1.07-1.39-.64.56-.05,1.8.04,2.14.28,1.03.89-.76.46-3.13.6-4.39.71-6.6-.98-10-5.02-15.05l2.57,4.41-.34-.87v5.32c.29-2.11,1.35-3.87,1.51-6.04.18-2.56-.43-4.81-.87-7.3-.39-2.19-.44-4.41-1.13-6.53-.93-2.86-2.96-4.72-4.85-6.9l2.57,4.41c.39.94-.3,3.19.39.93.48-1.6.46-3.5.26-5.13-.23-1.9-1.71-4.79-1.98-5.7v5.32c-.24,1.45.52-.97.77-1.47.92-1.82,1.52-3.9,1.52-5.97,0-4.36-2.23-5.47-2.06-8.9-.09,1.74,1.21-5.45,1.09-3.55.1-1.58-.02-3-.52-4.54-.59-1.83-1.54-3.38-2.9-4.76-.62-.64-2.11-2.79-1.37-1.07l1.01,7.71c.11-.78,1.04-3.17,1.36-4.7.69-3.29-.85-5.35-.96-8.29.12,3.51.77-.19.91-.81.62-2.92.24-6.28-1.43-8.85-1.86-2.87-.82,5,.25-.13.5-2.39.14-4.58-.25-6.97-.61-3.74-2.21-6.44-3.76-9.77l1.37,5.05.05-.58-2.93,7.07.55-.5c-5.24-.67-10.47-1.35-15.71-2.02.86,1.68,1.85,5.66,4.07,7.81,1.5,1.46,3.16,2.36,5.16,2.95.92.27,3.11,1.42,1.6.25l-3.59-3.59c1.38,2.67.83,3.65.88,1.01-.03,1.65-.11,3.29.3,4.91.5,1.97,1.51,3.8,2.89,5.29.81.93,1.74,1.72,2.8,2.37,1.18,1,1.23.94.13-.16-1.43-2.93,1.11,3.07,1.74,3.84,1.29,1.6,2.78,2.71,4.62,3.54.99.45,2.46,1.12,3.6,1.01,1.17.22.71,0-1.4-.67.74.67,1.43,1.38,2.07,2.14l-2.57-4.41c.21-3.19.11-3.81-.3-1.87-.28,1.19-.47,2.4-.56,3.62-.08,1.93.26,3.6,1.04,5.33,1.03,2.3,2.62,4.07,4.85,5.32,1.1.57,2.25,1.01,3.44,1.31,1.34.3,1.54.32.59.06l-3.59-3.59.36.85-1.37-5.05c.41,4.01.48,8.08,3.54,11.14,1.34,1.34,3.26,2.46,5.05,3.01,1.16.33,2.35.53,3.56.59,1.87.26,1.39.11-1.43-.45l-3.59-3.59c2.55,3.86,3.7,7.66,6.65,11.81,1.58,2.23,3.46,4.39,5.57,6.12,1.29,1.06,2.57,1.77,4.14,2.33.56.2,2.68,1.45,1.36.49l-3.59-3.59c.19.4.79,3.27,1.48,4.58,1.05,1.98,2.47,4.18,3.97,5.83,2.32,2.53,4.24,5.62,6.8,7.87,2.32,2.04,5.42,4.16,7.21,5.52,2.41,1.83,2.28,1.91,4.23,4.18.57.83,1.27,1.53,2.09,2.11,2.25,1.98,2.63,2.15,1.17.51l-1.37-5.05c.2,3.42-.37,6.18,1.49,9.45,1.59,2.81,5.01,6.16,7.88,7.72.97.49,1.97.89,3,1.21,1.33.48.86.16-1.42-.97-.12.09,2.95,3.68,3.49,4.29,2.48,2.81,5.94,4.31,8.28,5.86l-3.59-3.59.33.71-1.37-5.05c.21,4-.23,7.48,2.41,10.94,1.46,1.92,3.54,3.28,5.87,3.96,1.19.2,2.38.36,3.58.5,1.87.15,1.42-.11-1.36-.78l-3.59-3.59c-.78-2.92-.87-2.71-.27.62l.19,1.05c.72,2.4,2.07,4.46,4.02,6.01,1.38,1.1,2.79,1.79,4.53,2.24,1.03.17,2.07.31,3.12.43,1.87.16,1.4-.11-1.39-.78l-3.59-3.59.34.71-1.37-5.05c.24,3.41-.31,6.32,1.54,9.56,2.13,3.73,5.44,4.26,8.1,5.91l-3.59-3.59c1.97,2.67,2.98,5.62,5.99,7.48s6.09,1.71,9.33,2.11l-5.05-1.37.84.42-3.59-3.59c.58.79.92,1.67,1.45,2.49.32.49,1.96,2.26.59.47-1.66-2.16-.16,1.64.18,2.8.45,1.52,1.25,3,2.23,4.22,3.64,4.54,8.04,3.71,13.06,4.07l-5.05-1.37c-2.1-1.03-.76-.2.38,1.14.82.96,1.67,1.79,2.61,2.63s3.67,3.11,3.71,3.19l-1.37-5.05c.42,3.95.02,7.53,2.66,10.91,3.12,3.99,7.49,4.12,12.12,4.6l-5.05-1.37.84.4c4.88,2.31,10.79,1.35,13.68-3.59,2.55-4.36,1.31-11.36-3.59-13.68-3.1-1.47-5.98-1.67-9.31-2.02l5.05,1.37-.84-.41,3.59,3.59-.36-.69,1.37,5.05c-.36-3.41.15-6.34-1.7-9.56-1.74-3.02-4.77-4.97-7.22-7.37-2.22-2.17-3.65-4.89-6.48-6.41-3.53-1.9-6.08-.93-9.65-1.2l5.05,1.37-.6-.3,3.59,3.59.68,1.93-.36-2.66c-.27-1.22-.57-2.36-1.18-3.49-.77-1.43-1.61-2.93-2.48-4.29-3.22-5.06-7.83-5.47-13.25-6.15l5.05,1.37-.84-.43,3.59,3.59c-1.44-1.95-2.2-4.15-3.97-5.92-1.67-1.67-5.18-2.79-6.37-3.54l3.59,3.59-.34-.71,1.37,5.05c-.28-3.98.14-7.5-2.49-10.93-1.47-1.92-3.54-3.27-5.87-3.96-1.19-.2-2.38-.36-3.57-.5-1.87-.15-1.4.11,1.39.78l3.59,3.59c.77,2.93.86,2.72.27-.61l-.19-1.06c-.72-2.4-2.07-4.46-4.02-6.01-1.38-1.1-2.79-1.79-4.54-2.24-1.04-.17-2.08-.31-3.12-.43-1.87-.15-1.42.11,1.37.78l3.59,3.59-.33-.71,1.37,5.05c-.17-3.25.34-6.13-1.3-9.22-.96-1.81-2.2-3.19-3.92-4.3-1.01-.75-2.12-1.29-3.34-1.64-1.39-.49-1.57-.55-.54-.2,1.31,1.56-1.42-2.13-1.46-2.18-1.24-1.53-2.11-2.92-3.6-4.17s-3.24-1.67-4.97-2.61c-1.01-.35-.81-.25.59.29-1.1-1.15-1.4-1.41-.88-.78l1.37,5.05c-.26-4.38.1-8.32-3.21-11.83-1.13-1.2-2.71-1.91-3.84-3.09-2.03-2.11-3.32-3.87-5.66-5.71-2.69-2.12-5-3.16-7.19-5.54.6.95.47.67-.39-.83-.73-1.14-1.53-2.23-2.4-3.27-1.23-1.35-2.37-2.03-3.28-3.61-1.81-3.17-2.25-7.48-6.65-9.94-1.51-.85-2.97-.9-4.42-1.63,3.46,1.73.31-1.09-.34-2.12-1.5-2.36-2.95-6.28-5.04-9.29-1.66-2.4-3.81-4.17-6.62-5.03-1.16-.33-2.35-.53-3.56-.59-1.87-.26-1.39-.11,1.44.45l3.59,3.59-.37-.85,1.37,5.05c-.38-3.63-.44-7.05-2.75-10.12-1.26-1.68-2.89-2.78-4.76-3.61-.43-.19-4.09-1.75-2.83-.87l4.6,5.98c.41,1.18-.46,4.43.4,1.39.31-1.09.48-2.43.49-3.56.03-3.43-1.34-6.17-3.62-8.68-1.54-1.69-3.23-3.59-5.22-4.72-.98-.55-2.17-.99-3.27-1.27s-2.42-.98-1.14-.04l3.59,3.59c-1.19-2.12-1.91-4.2-3.62-6.05-.91-.99-3.29-2.92-3.4-3.03l2.57,4.41c.35.96.06.41.1-.47.06-1.2-.07-2.6-.37-3.75-.56-2.09-1.83-4.86-2.89-6.69-2.63-4.53-6.23-5.23-10.75-6.66l4.41,2.57c1.34,1.04,1.34,2.72.45-.08-.43-1.35-1.05-2.66-1.69-3.91-3.07-6.03-11.2-6.09-15.71-2.02-3.82,3.44-4.42,8.76-2.16,13.2,1.29,2.53,1.51,3.42,1.99,6.65v-5.32c-.36,2.51-1.57,4.68-1.56,7.33,0,1.29.37,2.5.77,3.7.09.28,1.93,3.15,1.97,3.27v-5.32c-.34,2.37-1.5,4.21-1.56,6.75-.06,2.77.95,5.05,1.62,7.67v-5.32c-.48,3.18-2.43,6.94-.86,11.21,1.11,3.03,3.26,4.44,5.32,6.66l-2.57-4.41c.04-2.42-.14-2.97-.55-1.66-.45,1.02-.65,2.1-.59,3.26-.08,1.37.04,2.6.22,3.98.41,3.12,1.21,5.77,2.05,8.75v-5.32c.22-1.31-.53.96-.78,1.45-.54,1.09-.89,2.16-1.16,3.33-.51,2.21-.34,4.28.33,6.41.24.78,2.11,5.84,1.32,1.87-.74-3.75-.9,1.41-.95,2.25-.08,1.46.03,2.82.45,4.25.92,3.12,3.01,4.99,5.03,7.33l-2.57-4.41c.82,2,1.3,6.81,1.83,9.84v-5.32c-.37,2.62-2.25,6.4-1.33,10.03.81,3.2,3.07,5.32,5.03,7.78l-2.57-4.41c.09-1.81.04-1.82-.15-.04-.14.69-.21,1.39-.21,2.1-.16,1.05-.14.22-.39,1.61-.58,3.27-.61,7.06,1.35,9.95,1.84,2.71,1.25-2.99.24-1.57-.69.97-.58,3.25-.66,4.41-.19,2.76-.16,5.68.68,8.33.39,1.24,1.15,2.28,1.64,3.46-1.14-2.71-.26.45-.42,1.69-.03.24-.9,3.76-1,5.45-.16,2.89-.18,5.73,1.1,8.4s3.01,3.87,4.88,5.92l-2.57-4.41.3.72v-5.32c-.44,2.82-2.45,6.36-1.5,10.06.82,3.22,3.08,5.33,5.1,7.75l-2.57-4.41c.68,1.67,1.03,3.54,1.41,5.3v-5.32c.2-.99-.21.1-.52.55-.69.98-1.29,2.23-1.61,3.38-.82,2.91-.55,5.82.73,8.54,0,0,2.03,3.35,1.21,1.54-.63-1.4.08.89.14,1.56.19,1.92.67,5.32.56,6.17l1.37-5.05c-1.96,4.26-3.92,8.04-2.08,12.76.67,1.72,1.57,3.13,2.94,4.41.9.75,1.84,1.45,2.8,2.11,1.55,1.07,1.19.63-1.09-1.32l-1.01-7.71c.2-.96,1.93-2.7.32-1.05-1.19,1.2-1.99,2.54-2.63,4.05-1.15,2.73-1.2,5.56-.29,8.39.58,1.79,1.47,2.96,2.03,4.07.92,1.82,1.63,3.14,2.92,4.82.37.49,1.12,1.94.66.86l-1.37-5.05-.1.94,1.37-5.05c-1.46,3.37-3.19,6.4-2.67,10.24.5,3.78,2.88,6.21,5.12,9.07l-2.57-4.41.34.86v-5.32c.15-.39.35-.75.63-1.06-.81.87-1.49,1.82-2.05,2.85-.93,1.73-1.49,3.86-1.49,5.82s.76,4.19,1.76,5.91c.69,1.02,1.46,1.96,2.32,2.83,1.01.91,1.16,1.05.45.4l-1.01-7.71c.6-.76.51-.56-.28.58-.59,1.09-1.1,2.21-1.52,3.38-.57,1.96-.68,4.27-.13,6.24.5,1.83,1.62,3.76,2.9,5.14.54.58,2.56,3.12,1.68,1.27l-1.37-5.05c.05,1.8-.28,3.54-.23,5.34l17.07-7.07c-.56-.66-1.1-1.33-1.69-1.97-1.45-1.59-.15-.79.04.25-.43-2.32-1.83-4.52-2.93-6.57-1.28-2.37-2.67-4.42-5.05-5.85-1.02-.62-2.17-1.08-3.32-1.43-.5-.15-2.21-.92-1.19-.2l3.59,3.59c-1.14-2.16-1.39-3.65-1.86-5.24-.91-3.08-2.93-5.36-4.97-7.74-.88-1.03-1.67-1.89-2.73-2.76-.8-.66-2.53-2.79-.94-.65-1.37-1.85-3.21-4.1-4.07-6.26-.42-1.06-1.16-4.68-2.91-6.49-.79-.81-1.73-1.62-2.68-2.2-.31-.19-2.8-1.82-1.24-.34,1.76,1.68-.66-1.47-.94-1.96-.61-1.1-1.05-2.27-1.67-3.36-1.28-2.28-4.23-4.62-5.32-5.88l2.57,4.41c-.54-1.63-1.41-6.01-2.49-8.68-1.4-3.44-3.65-5.19-5.8-7.97l2.57,4.41c-.08-.32-.12-3.38-.56-4.79-.66-2.08-1.86-3.75-3.1-5.49-1.37-1.92-2.49-3.52-4.54-4.77-1.07-.5-2.15-.97-3.25-1.4-1.73-.64-1.4-.31.99.98l2.57,4.41c-.07-.34.16-3.5-.24-4.92-.69-2.42-2.44-4.17-3.6-6.33-1.49-2.79-.51-2.04-1.39-5.35-.63-2.38-1.92-5.01-3.2-7.13-.6-1.01-1.35-2.16-2.19-2.97-1.11-1.07-.64-.84-.18.32-.89-2.21-1.53-4.43-2.59-6.59-.91-1.86-1.65-3.74-2.51-5.65-.78-1.73-2.86-4-3.4-4.87l1.37,5.05c-.32,1.04-.28.9.14-.42.31-1.22.51-2.46.6-3.71.04-2.05-.43-4.19-1.45-5.98-.85-1.48-2.16-2.51-3.17-3.82-.3-.39-1.51-2.75-2-3.84l1.37,5.05c.09,1.49.28-.38.43-.95.36-1.36.51-2.72.46-4.12-.13-3.13-.96-6.63-2.24-9.47-.89-2-1.72-4.04-3.14-5.73-1.93-2.3-4-3.02-6.36-4.58l3.59,3.59c1.64,2.31.44-.11.39-1.7-.07-2.06.25-3.67-.33-5.79-.52-1.89-1.72-3.8-3.02-5.22-.32-.35-1.9-2.45-1.09-.95l1.37,5.05c-.52,2.3-.47,2.6.15.91.9-1.56,1.36-3.24,1.37-5.05.1-2.31-.33-4.31-1.51-6.33-1.05-1.81-2.66-3.43-4.46-4.52-1.75-1.29-1.25-.57,1.5,2.15-.27-.96-.53-1.93-.78-2.9-1.06-4.03-5.34-7.6-9.64-7.34-4.03.24-7.05,2.11-9.63,5.14-1.92,2.26-3.06,4.75-3.12,7.74.09,1.2.23,2.39.44,3.58.3,1.85.32,1.42.07-1.31l2.57-4.41c-.53.6-1.68,1.42-2.01,2.12.17-.37,2.79-1,.44-.3s-4.55,1.78-6.27,3.5c-1.55,1.55-2.99,3.83-4.14,5.71-.53.86-.99,1.74-1.37,2.68l1.11-.77c-.65.5-1.29,1-1.94,1.5-1.98,1.64-3.39,3.44-4.44,5.79-.19.42-1.83,4.38-.1.99,1.26-2.47-.11-.79-1.29.07-2.22,1.62-3.86,3.7-4.64,6.38-.34,1.18-.44,2.42-.54,3.64-.05.66-.5,2.29-.02,1.07l2.57-4.41c-2.93,2.99-4.91,5.58-7.09,9.14l3.59-3.59c1.41-.97-4.21,1.45-4.07,1.36-1.74.97-3.36,2.41-4.37,4.13s-1.57,3.81-1.65,5.77c-.04.97-.56,3.98.22,2.04l2.57-4.41c.29-.26-5.53,3.7-1.46,1.37-2.34,1.34-4.54,1.78-6.53,3.77s-3.14,4.99-3.21,7.8c-.03.97-.53,4.02.25,2.07l2.57-4.41c-2.62,3.24-6.34,5.93-8.31,9.58-.08.15-1.58,3.43-1.37,3.55-.2-.11,6.64-5.4,1.03-2.49-2.39,1.24-4.25,2.85-5.63,5.22-1.71,2.95-3.4,6.32-5.8,8.28-1.19.97-3.4,2.2-4.65,3.82s-1.89,4.57-2.38,5.54l3.59-3.59c2.8-.58,3.26-.75,1.39-.51-1.21.08-2.4.27-3.57.57-1.89.58-3.62,1.67-5.07,3.01-2.86,2.63-5.54,6.19-7.46,9.56-.7,1.24-1.01,3.67-1.2,4.14-.59.85-1.06,1.76-1.42,2.73,1.07-1.03,1.17-1.27.3-.72-1.95,1.65-3.58,2.37-5.02,4.59-.75,1.17-1.99,3.93-2.11,4.13l3.59-3.59c.76-.54.37-.09-.44.12-1.29.34-2.63.93-3.77,1.61-2.33,1.4-3.75,3.54-5.25,5.72-1.11,1.62-2.17,3.14-2.82,5,.37-1.06,1.79-1.64,0-.74-1.41.71-2.7,2.12-3.69,3.3-2.67,3.2-5.19,6.66-7.53,10.06-.84,1.21-1.83,1.81-2.96,2.99-1.63,1.72-2.72,5.1-3.46,6.37l3.59-3.59c.8-.48,3.62-.61,1.32-.68-1.1-.03-2.51.23-3.59.53-2.72.75-4.76,2.59-6.54,4.69-3.62,4.26-4.51,7.68-4.94,13.15l1.37-5.05c-.43.94-2.24,1.71-3.02,2.26l-2.02,1.56c1.62-.79,1.89-.98.82-.54-1.3.14-2.86,1.19-3.93,1.88-4.65,3-5.3,8.95-7.48,12.29l3.59-3.59c.87-.56.22-.17-.49-.02-1.14.24-2.39.72-3.4,1.29-1.93,1.08-3.81,2.52-5.55,3.9-1.83,1.45-3.77,2.9-5.21,4.74-.49.63-3.91,7.88-2.8,7.94-1.05-.06,4.9-5.28,1.25-3.77-1,.41-2.05,1.55-2.92,2.26-1.84,1.5-3.65,2.98-4.99,4.95-1.63,2.4-3.45,6.22-5.86,7.35l5.05-1.37c-5.1.42-10.05.64-13.05,5.52-2.2,3.57-1.27,6.66-1.63,10.4l1.37-5.05-.32.59,3.59-3.59c-1.74.93-5.33,1.96-7.65,3.33-3.26,1.93-6.23,5.2-8.98,7.82-.66.62-3.62,4.37-3.44,4.45,3-1.68,3.47-2.11,1.42-1.29-1.02.31-1.98.74-2.88,1.29-1.94,1.13-3.52,2.67-4.61,4.65.1-.17-2.37,5.48-1.36,4.01l3.59-3.59-.85.39,5.05-1.37c-3.14.4-6.27.39-9.11,2.04-1.66.96-3.2,2.7-4.18,4.3-.87,1.42-3.38,5.16-.26,1.49-3.49,4.11-4.04,10.1,0,14.14,3.58,3.58,10.63,4.14,14.14,0h0Z"/>
  <path d="M725.33,728.51c.59,1.53,1.46,2.99,2.04,4.49-.15-1.96-.2-1.91-.14.14.11.95.24,1.9.37,2.84.43,2.11,1.1,3.86,2.48,5.53.74.89,5.23,5.95,2.49,1.81l-1.37-5.05c-.01-.89,1.33-3.44.14-1.47-.89,1.46-1.26,2.97-1.49,4.6-.38,2.67.11,5.31,1.47,7.67.86,1.49,1.91,2.99,2.87,4.43.08.13,2.34,3,2.43,2.91.39-.4-2.11-4.33-.62,1.33.62,2.36,1.83,3.87,3.03,5.87.63,1.06,1.41,2.91,1.72,3.96-.55-1.86.16,2.07.16,2.09.57,2.44,1.72,4.69,3.51,6.47,1.32,1.32,2.42,1.8,4,2.51,2.64,1.18,1.7,1.55-.06-.33l-2.57-4.41c.14.58.02,3.41.49,4.9.51,1.63,1.41,3.75,2.16,5.24.81,1.6,1.73,2.97,3.04,4.21.95.88,1.99,1.61,3.14,2.2-1.56-2.14-1.88-2.3-.97-.49.8,3.02,3.61,6.27,5.18,9.01,2.26,3.93,5.14,4.79,8.51,7.37l-3.59-3.59c.07.15.48,2.78.94,3.66.78,1.5,1.69,2.68,2.95,3.82,2.27,2.07,3.35,1.97,4.97,4.33,1.88,2.74,3.1,5.25,6.16,6.9s5.91,1.19,9.07,1.52l-5.05-1.37s3.14,3.34,3.93,4.14c1.3,1.32,1.67,2.54,3.43,4.4s3.71,3.66,5.8,5c2.19,1.41,4.56,2.05,6.54,3.84,2.89,2.61,6.03,4.82,8.79,7.42,4.01,3.77,8.92,4.84,13.84,6.66l-4.41-2.57c-.75-.7-.14-.04.15.53.6,1.17,1.52,2.32,2.45,3.24,2.24,2.21,4.93,2.65,7.67,3.88,2.09.94,3.96,2.15,6.14,2.97.3.11,2.46.93,1.92.64-.09-.05,2.37,1.87,3.08,2.25,2.43,1.32,4.75,1.24,7.37,1.73-3.11-.58,1.27.99,1.66,1.23,3,1.86,4.75,3.71,8.52,3.88,1.41.06,2.76-.08,4.15-.42.54-.13,2.46-.33,1.07-.43l-5.05-1.37c2.63,1.46,6.58,4.36,10.15,5.92,2.39,1.04,4.12,2.01,6.78,2.15,1.49.08,4.41-.45,4.82-.43l-5.05-1.37c-1.78-1.87-2.3-2.26-1.58-1.17.52.88,1.13,1.7,1.83,2.45.87.96,1.77,1.79,2.92,2.47,2.66,1.56,6.73,2.31,9.79,2.44,1.39.06,3.26.24,4.42-.49,1.11-.23.81-.25-.88-.08l1.44.38c1.58.55,3.56.79,5.23.76.71-.01,4.02-.4,3.52-.41l-5.05-1.37c-1.66-.81,3.3,2.69,3.1,2.57,1.79,1.1,4.05,1.74,6.09,2.24,2.58.63,5.07,1.01,7.69.25,1.18-.41,2.32-.93,3.4-1.55,1.18-.8,1.38-.92.6-.35-2.57-.34-5.14-.67-7.71-1.01-1.26-.67.87,1.25,1.05,1.42,1.34,1.29,3.43,2.51,5.24,3,1.92.53,4.34.41,6.24-.07,1.62-.41,6.05-1.38,1.21-1l-5.05-1.37c-1.81-2.08-2.16-2.4-1.03-.97.63.98,1.37,1.87,2.2,2.68,1.39,1.31,3.27,2.41,5.11,2.91s4.31.38,6.25-.15c1.2-.4,2.33-.92,3.4-1.58,1.19-.8,1.38-.94.58-.43h-5.32c-.99-.4,1.94,1.35,1.81,1.28,1.2.57,2.38.9,3.64,1.26,2.38.69,4.64,1.4,6.97,2.25,2.71.99,5.33,1.85,8.29,1.83,1.42,0,3.03-.08,4.45-.18l2.66-.36c-1.13-.05-1.2.02-.2.22,1.64.34,3.06.7,4.78.86.49.05,4.38.59,2.14.02-2.82-.72,4,2.09,2.61,1.5.87.37,1.7.75,2.57,1.12,5.27,2.24,10.24,1.05,15.68,1.24,6.5.23,11.37-6.58,9.64-12.66-.99-3.49-3.17-6.16-6.56-7.49-1.53-.6-3.05-.87-4.7-.88-.67,0-2.44-.33-1.81-.07l4.41,2.57c-1.37-1.13-2.85-2.47-3.99-3.83l2.57,4.41c-1.62-3.84-2.75-7.43-6.48-9.76-3.32-2.07-6.66-2.82-10.41-3.63l-1.32-.14c1.78.14,1.76-.13-.06-.8,1.07,1.22,1.14,1.16.2-.16l-1.56-2.02c-2.46-2.75-4.03-4.16-6.25-6.8s-4.74-5.42-8.09-6.91c-.78-.36-1.57-.66-2.39-.91,1.54.77,1.56.55.08-.66-.92-1.22-2.26-2.11-3.2-3.31-2.03-2.62-1.8-4.6-3.64-7.55-2.32-3.72-6.01-4.78-9.86-6.24l4.41,2.57-.73-.59,2.57,4.41c.52,1.34-.03-.8-.08-1.5-.11-1.69-.45-3.22-1.18-4.74-1.28-2.7-3.43-4.31-5.22-6.59l2.57,4.41c-.26.73-.35.44-.27-.88-.03-1.3-.26-2.55-.7-3.76-.76-2.33-2.08-3.95-3.51-5.89-2.27-3.08-4.56-4.3-7.64-6.28l3.59,3.59c.56,2.46.8,2.73.7.79-.43-3.23-.47-3.54-.14-.94.24-1.69.88-3.33.83-5.11-.14-4.42-2.82-7.08-5.41-10.31l2.57,4.41c-.49-1.25-.73-2.57-1.15-3.85-.1,1.64-.04,1.92.19.85.3-1.06.47-2.15.51-3.26.18-3.54-1.7-5.83-2.57-8.16v5.32c-.28,1.91.78-.98,1.2-1.78.92-1.77,1.48-3.83,1.48-5.84s-.76-4.21-1.75-5.92c-.7-1.01-1.47-1.96-2.31-2.85-1.02-.9-1.17-1.06-.44-.48l1.37,5.05c-.14-1.07-.44-4.17-.44-4.3.09-1.64.89-3.32.84-5.06-.12-4.32-2.81-7.21-5.37-10.4l2.57,4.41c-.87,4.63-.67,5.13.6,1.48.37-.73.56-1.51.57-2.33.37-2.12.15-3.98-.55-6.02-.03-.08-2.02-3.39-1.92-3.16.03.06-1.26-4.46-.99-2.3-.29-2.25.27-4.91-.02-7.29-.2-1.61-.26-3.06-.33-4.67-.17-3.97-1.59-7.59-3.14-11.21-1.08-2.52-2.58-4.76-3.79-7.13-.84-1.64-1.24-3.6-2.04-5.27-.4-.96-.9-1.86-1.49-2.7.45,1.49.67,1.7.63.63,1.17-1.28-1.8-10.25-2.43-11.43-1.06-1.97-4.18-4.58-4.45-6.11v5.32c.87-6.15.79-10.63-2.69-16.1-2-3.14-4.52-4.1-7.61-5.75,3.17,1.7.36-.64-.7-1.64-1.44-1.37-.21-1.38-.43.42.21-1.77.32-3.21-.16-5.02-.75-2.83-2.48-4.93-4.44-7-3.73-3.92-7.01-5.55-11.2-8.73l3.59,3.59-.33-.73,1.37,5.05c-.29-4.34.12-8.51-3.29-11.93s-7.67-3.01-12.07-3.28l5.05,1.37c1.59,1.46,1.4,1.06-.56-1.18.79,1.8.97,1.88.54.22-.24-2.17-1.89-4.74-3.41-6.26-1.68-1.68-3.42-2.06-5.36-3.11s-3.83-3-5.75-4.31c-7.59-5.22-16.82-6.48-25.71-6.44-12.87.05-12.89,20.05,0,20,3.43-.01,3.49-.65,6.42,0,2.13.47,4.79,1.39,6.79,2.25,1.47.64,2.76,1.66,4.11,2.64,2.42,1.77,4.82,3.15,7.39,4.67l-3.59-3.59c-.57-.81-.09-.03.05.64.24,1.17.71,2.45,1.3,3.48,1.08,1.9,2.96,4.24,4.46,5.78,3.7,3.81,7.74,3.48,12.57,3.84l-5.05-1.37.71.36-3.59-3.59.35.71-1.37-5.05c.42,5.33.15,10.9,5.76,13.86,3.29,1.74,5.56,3.88,8.27,6.94l-2.57-4.41c-.44-1.36-.26.68-.28,1.18-.05,1.41.18,2.8.61,4.15.91,2.88,2.95,5.98,4.92,8.26,1.45,1.68,3.07,3.48,4.85,4.81.73.54,3.7,2.65,4.38,2.28l-2.56-1.64c.76,1.91.89,1.85.39-.19-.87-3.54-.78,1.05-.78,2.17,0,1.62.43,3.3,1.02,4.78.99,2.47,2.84,4.88,4.44,7.01,2.67,3.54,1-.18.55-.19.35.01.49,4.4.46,3.92.18,3.31.58,5.83,2.14,8.84,1.18,2.27,1.82,4.76,3.01,7.03,1.01,1.94,2.24,3.43,3.08,5.48.8,1.94,1.36,3.32,1.61,5.3.19,1.47.31,2.95.5,4.41.14,1.13.34,4.11.39,2.24-.09,3.54-.16,6.36.84,9.83.46,1.58.92,3.6,1.83,4.96,2.23,3.36,2.49-6.7.45-2.78-3.28,6.3.19,11.37,4.05,16.2l-2.57-4.41c.1-2.44-.07-2.71-.52-.82-.22,1.27-.37,2.55-.45,3.84.02,1.5.38,3.08.57,4.56.27,2.11.67,4.06,1.75,5.92.7,1.01,1.47,1.96,2.31,2.85,1.03.9,1.17,1.06.43.48l-1.01-7.71c.26-1.79-.3.18-.75.94-.75,1.25-1.25,2.6-1.57,4.01-.52,2.3-.32,4.25.41,6.42.35,1.27.93,2.43,1.73,3.45.09-3.35-.05-4.2-.4-2.57-1.71,2.78-.11,8.02.77,10.82.57,1.81,1.21,3.44,2.3,5.01.29.41,2.31,3.54,1.7,2.23l-1.37-5.05c-.11,2.15-.89,6.35-.72,8.54.36,4.66,2.21,8.53,6.43,10.91,2.16,1.22,1.51,1.16.39-.33,1.77,2.8,2.07,2.71.89-.27.13,1.3.29,2.59.49,3.88.95,3.87,3.71,6.02,6.11,8.87l-2.57-4.41c-.58-1.64,0,.95.05,1.51.17,2.54.9,4.92,2.49,6.94,1.29,1.63,2.85,2.77,4.73,3.67.72.32,1.46.62,2.2.89,1.31.3,1.47.38.49.25l-3.59-3.59c1.51,3.02,2.99,7.27,5.72,10.47,2.37,2.78,5.36,6.19,8.41,8.18,1.03.74,2.15,1.28,3.38,1.64,1.58.56,1.59.55.03-.03,1.25,1.24,1.7,2.08,2.5,3.14,1.93,2.55,4.63,4.74,6.31,6.8,2.85,3.51,6.37,6.33,10.71,7.84,1.17.6,2.43.88,3.78.83,1.87.23,1.78.2-.27-.08,1.15.55,2.32,1.01,3.53,1.4-3.14-3.88-4.14-4.66-3.01-2.32.89,3.39,4,6.04,6.56,8.24,3.84,3.3,7.7,3.26,12.39,3.38l-5.05-1.37.57.29-4.6-5.98.2.72c3.21-4.22,6.43-8.44,9.64-12.66-2.52-.09-4.98.33-7.51.23-2.97-.12,1.56,1.15-3-.98-1.18-.55-.92-.51-1.53-.8-5.5-2.65-13.32-3.42-19.34-2.95-.89.07-2.44.15-3.31.08,2.29.18-1.2-.51-2.28-.9-2.51-.91-5.17-1.51-7.67-2.47-2.02-.77-4.83-2.9-8.1-2.9-2,0-4.23.6-5.98,1.52-.46.24-2.99,1.22-1.59,1,2.57.34,5.14.67,7.71,1.01,1.81,2.08,2.16,2.41,1.03.97l-1.56-2.02c-1.31-1.4-2.78-2.39-4.55-3.06-2.05-.78-3.95-.99-6.1-.61-1.31.23-8.07,1.6-2.54,1.17l5.05,1.37c1.4.73-.73-1.12-1.05-1.42-1.8-1.73-4.11-2.85-6.57-3.19-2.14-.29-4.13.06-6.12.81-.77.28-1.5.63-2.21,1.05-1.18.81-1.38.92-.6.34h5.32c-1.71-.45-3.85-1.62-1.49.28-1.2-.97-2.17-2.24-3.53-3.04-3.83-2.26-6.88-1.11-10.86-1.22,3.88.1-.81-.83-1.32-.94-2.12-.43-4.35-.55-6.47,0-1.48.27-1.65.37-.5.29,1.23.02.98-.06-.76-.26,5.39,6.23,1.47.3.67-.58-2.48-2.74-5.69-4.22-9.45-4.11l-2.66.36c-2.1.37-1.67.46,1.3.28-.1.42-3.74-2.08-3.95-2.21-2.19-1.3-3.75-2.76-6.38-3.78-2.04-.79-3.99-1-6.13-.75-.48.06-4.6.61-2.94.74l5.05,1.37c-1.37-.79-4.31-2.98-6.5-4.08-1.57-.79-3.14-1.56-4.86-1.97-1.08-.21-2.17-.34-3.27-.39-1.38-.14-.84.12,1.62.76.51-.63-17.06-8.16-18.33-8.67l4.41,2.57c1.2,1.09-.44-1.03-.69-1.42-1.03-1.61-2.59-3.25-4.27-4.23-2.35-1.38-5.03-1.24-7.21-2.64-4.54-2.92-9.02-7.57-13.64-10.87-2.96-2.11-5.09-2.47-6.73-4.35-1.21-1.38-2.96-4.07-4.92-5.83-2.37-2.13-4.28-5-7.07-6.59-3.18-1.82-6.07-1.32-9.43-1.69l5.05,1.37c2.59,1.33,1.58,1.14.32-.64-1.02-1.45-2.3-3.02-3.49-4.36-.9-1.02-1.76-1.85-2.87-2.67-3.9-2.87-.65.95-.09.9.15-.01-1.24-3.97-1.72-4.76-.88-1.44-2.86-3.56-4.51-4.3-2.1-.93-.31,1.24-.72-.21s-1.52-2.68-2.38-3.88c-1.86-2.58-2.51-5.74-4.71-8.09-.84-.9-3.87-2.24-3.99-2.99l1.48,1.69c-1.07-2.6-1.33-3.19-.77-1.78.3,1.68.04-2.86-.08-3.37-.49-2.09-1.33-3.98-2.85-5.56-.98-1.01-2.11-1.89-3.35-2.57l-2.39-1.01c-1.67-.71-1.25-.44,1.28.81l2.57,4.41c-.7-2.48-1.12-4.92-2.13-7.37-.71-1.73-1.32-3.53-2.37-5.09-1.29-1.93-.68.29-.84-1.96-.42-5.77-4.63-8.39-6.95-12.94l1.37,5.05c-.87,2.72-.92,3.21-.15,1.49l1.01-2.39c.61-1.91.78-3.72.48-5.68-.33-2.12-1.12-3.88-2.49-5.52-.77-.92-5.1-5.97-2.48-1.83l1.37,5.05c-.3-2.4-.11-4.91-.72-7.28-.35-1.38-1.97-3.91-2.08-4.19-1.95-5.03-6.72-8.52-12.3-6.98-4.81,1.32-8.95,7.24-6.98,12.3h0Z"/>
  <path d="M252.28,746.94c-.88,2.18-3.69,7.16-3.29,10.84-.41,1.74.24,1.19,1.95-1.65l-2.02,1.56c-.89.81-1.71,1.66-2.36,2.69-1.52,2.41-1.79,4.7-2.21,7.49-.66,4.48-.32,5.52-2.73,9.3-1.07,1.67-2.23,3.39-3.15,5.15-1.02,1.96-1.56,6.1-1.89,7.12l2.57-4.41c-1.01,1.22-2.27,2.12-3.32,3.3-1.88,2.1-2.01,4.32-3.37,6.62-.39.66-3.59,4.32-4.34,5.02-2.76,2.59-5.47,3.44-8.1,6.51-1.34,1.56-2.89,3.4-3.84,5.21-.69,1.08-1.08,2.24-1.17,3.48-.62,3.31-.52,3.54.33.69l3.59-3.59c2.69-1.44,1.32-.92-1.35-.26-1.15.29-2.33.7-3.38,1.3-3.45,1.98-4.2,4.46-5.86,7.76-.68,1.36,1.39-1-.2.04-.92.61-1.78,1.96-2.54,2.82-1.39,1.57-2.99,3.27-4.43,3.9l5.05-1.37c-3.19.31-6.32.2-9.21,1.95-1.48.89-3.55,2.82-4.33,4.47-1.07,1.65-.64,1.57,1.29-.24-1.06.37-2.08.82-3.06,1.36-2.23.83-5.62,2.01-7.82,4.59s-2.29,5.05-3.2,7.97l2.57-4.41-.49.62,4.41-2.57c1.47-.53-.84-.02-1.45.02-1.68.11-3.21.46-4.73,1.17s-2.72,1.55-3.84,2.77c-.44.48-3.43,4.49-3.01,5.4,2.29-2.33,2.68-3.03,1.17-2.12-1.63.76-.81.76,2.48,0-.37-.7-4.42-.36-5.12-.29-3.85.42-6.94,2.62-9.06,5.8l-.69,1.03c1.96-1.64,2.26-2.12.9-1.45-1.22-.24-2.94,1.26-4.01,1.97-2.6,1.74-3.39,4.06-6.45,5.43,2.24-1-.05-.51-1.2-.31-1.26.22-2.57.32-3.83.58-3.14.65-5.09,2.36-7.83,3.74l5.05-1.37c-2.62.24-8.19-.25-11.94.75-3.94,1.05-7.08,3.41-10.7,4.97l5.05-1.37c-4.56.44-8.61,1.26-13.06,2.25-3.92.87-7.93,1.28-11.92,2.21h5.32c2.01.46,2.68,1.56.22-.36-1.37-1.07-2.4-1.83-4.19-2.33-2.42-.68-4.69-.4-7.15-.31-5.26.19-10.87-.1-15.66,2.64-.62.35-2.86,1.65-2.94,2.19,3.16-.94,3.85-1.44,2.07-1.48-.32,0-.63-.04-.93-.11-2.23-1.3-6.01-1.62-8.44-.93-1.96.06-2.08.24-.35.56,1.37.5,1.6.51.68.02-.82-.84-2.87-1.4-3.99-1.69-1.26-.33-2.57-.33-3.86-.27,1.45-.07-4.94.85-3.45.75l5.05,1.37c1.65,1.96,1.94,2.2.86.73-.67-.96-1.4-1.87-2.19-2.74-2.11-2.01-4.81-3.15-7.73-3.27-1.9-.08-3.95.25-5.83.44-1.29.15-2.58.33-3.86.55-2.08.43-1.49.56,1.78.41l5.98,4.6-.29-.68c-1.99,4.9-3.98,9.79-5.98,14.69,5.51-1.44,10.89-3.38,16.44-6.32l-5.05,1.37c-.85.11-.59-.25.43-.02,1.68.37,3.34.48,5.04.34,3.17-.28,5.43-1.85,7.91-3.73,3.3-2.51,6.38-6.17,8.52-8.58l-4.41,2.57c-1.23.5.16-.03,1-.1,2.07-.18,3.67-.45,5.59-1.41,1.48-.74,3.04-1.49,4.44-2.36,3.82-2.37,7.1-7.73,8.08-12.11,1.02-4.52-.57-.71-.35-.59.19.1,1.48-2.33,1.7-2.64s2-2.41,1.95-2.45c-.31-.28-3.26,2.19.63.13,2.88-1.52,5.23-3.85,6.2-7.05.34-1.13.6-2.35.63-3.54,0-.34.23-3.21-.26-1.47l-2.57,4.41c-1.24,1.24,2.24-1.13,2.49-1.32,1.11-.85,2.64-2.69,3.19-3.33.66-.77,2.28-2.27,3.04-3.64.96-1.74.95-3.68,1.66-5.42-.55,1.34,1.75-2.4,2.02-2.83.81-1.26,1.6-2.6,2.27-3.95.92-1.86,1.51-3.87,1.47-5.97-.11-1.25-.3-2.49-.57-3.71-.4-1.32-.44-1.46-.11-.41l-1.37,5.05c1.16-1.92,3.51-4.33,4-7.47.27-1.71.26-3.17-.17-4.93l-.39-1.07c-1.12-3.04-1.31-3.2-.57-.48l-1.37,5.05c-1.8,1.69-1.94,1.92-.42.68.49-.34.96-.72,1.4-1.13.96-.94,1.71-2.03,2.43-3.16,1.57-2.42,2.79-5.08,3.61-7.85.64-2.14,1.27-4.32,1.77-6.49.68-2.94-.07-6.18-.04-8.2l-1.37,5.05c.98-1.66,3.17-3.78,4.05-6.19.96-2.62,1.42-5.25,2.01-7.96s1.87-5.28,1.88-8.23c0-1.55-.57-3.01-.66-4.51l.03,1.41c.54-3.12.53-3.53-.03-1.23l-3.59,3.59c3.34-2.1,6.48-3.41,8.19-7.34.99-2.28,1.12-4.88.51-7.3-.41-1.12-.86-2.22-1.35-3.31-.81-1.73-.8-1.27,0,1.39l-1.37,5.05c.37-.56,2.44-2.33,3.17-3.61,1.18-2.08,2.1-4.83,2.69-7.16.18-.72.88-3.26.42-3.87.03-1.14-.21-.88-.72.78-.9,1.51-.99,1.84-.28.99.49-.17,4.39-5.36,4.07-6.03.1.2-4.87,3.24-.12.76,1.08-.57,2.11-1.17,3.01-2.02,1.79-1.69,2.98-3.77,3.58-6.16.3-1.22,0-2.79.38-3.95-1.02,3.09.71.12,1.06-.47.83-1.39,1.94-4.44,2.2-4.91l-3.59,3.59c-2.85.56-3.33.71-1.46.46,1.21-.07,2.4-.26,3.57-.57,2.33-.72,4.36-2.08,5.85-4.01,2.71-3.51,2.13-6.9,2.28-10.95l-1.37,5.05.32-.71-3.59,3.59c-1.77,1.09,4.35-1.34,3.95-1.16,1.09-.5,2.18-.87,4.02-1.86,2.18-1.16,3.86-2.81,5.04-4.98.66-1.09,1.06-2.26,1.22-3.51.73-3.72.42-3.56-.94.47.8-.96,1.55-1.96,2.24-3-2.77,1.9-3.08,2.56-.93,1.98,1.16-.45,2.32-.93,3.46-1.44-.41.62-.06.67,1.03.15,2.39-.8,4.38-1.81,6.1-3.68.43-.47,5.78-7.89,1.91-3.82l-4.41,2.57c4.06-1.37,8.23-2.33,12.27-3.84,2.01-.75,4.04-1.6,5.99-2.51,1.77-.83,3.88-2.84,4.96-3.46l-5.05,1.37c1.56-.16,3.06-.06,4.63-.17,5.39-.39,10-4.32,10-10,0-5.11-4.58-10.39-10-10-4.47.32-9.34-.01-12.69,3.68-1.13.91-1.24,1.12-.32.62,1.37-.61.77-.36-1.81.75-1.28.52-2.53.99-3.83,1.45-3.12,1.11-6.36,1.77-9.47,2.84-2.02.7-3.61,1.69-5.05,3.25-.4.43-5.65,8.06-1.89,3.84l4.41-2.57c-4.55,1.76-9.55,1.36-13.52,5.12-1.58,1.5-2.77,3.29-3.73,4.59s-1.8,2.6-2.29,4.19l-.23,1.1c-.57,3.29-.51,3.54.19.76l3.59-3.59s-4.14,1.89-3.92,1.83c-.59.17-3.55.85-5.03,1.77-2.38,1.48-4.17,3.98-4.92,6.69-.36,1.33-.37,2.82-.34,4.18.02,1.06-.39,2.15.2.71l4.6-5.98c2.64-.54,3.29-.73,1.94-.55-.62.07-1.23.15-1.84.24-1.62.25-3.15.6-4.61,1.41-3.15,1.77-4.39,4.31-5.77,7.41-.59,1.32-1.31,2.32-2.28,4.03-1.48,2.59-1.6,5.91-2.15,7.79l2.57-4.41c4.12-3.86-3.28,1.54-3.74,1.97-1.65,1.54-2.54,3.43-3.72,5.29-2.04,3.24-4.65,6.35-5.16,11.14-.14,1.34.5,2.1-.74,3.82,1.8-2.51-2.1,1.54-2.68,2.62-1.41,2.58-1.74,5.64-1.03,8.49.4,1.12.85,2.22,1.35,3.3.8,1.72.8,1.26.01-1.38l1.37-5.05-.48.63,3.59-3.59c-2.99,1.86-5.76,2.76-7.68,6.15-1.64,2.9-2.29,7.33-2.22,10.67.08,1.34.3,2.64.67,3.93l-.16-1.46c-.46,1.71-1,3.3-1.32,5.05-.3,1.65-.53,3.55-1.31,5.06,1.54-2.96-1.79,1.69-1.88,1.84-1.17,1.87-1.86,3.81-1.95,6.05-.08,1.72.71,3.44.66,5.07.12-3.73-.89,1.36-1.11,2.14-.31,1.16-1.31,2.84-1.5,3.89l-.67,1.36c2.11-1.99,1.92-1.95-.58.11-1.1,1.02-2.09,2.18-2.84,3.5-1.06,1.86-1.43,3.88-1.36,5.99-.02,1.31.23,2.56.76,3.73,1.12,3.04,1.31,3.2.56.47l1.37-5.05c-1.07,1.84-3.45,4.4-4,7.47-.32,1.8-.29,3.01.09,4.91.13.66.11,3.14.3,1.46l1.37-5.05c-1.44,2.72-3.43,5.03-4.89,7.7-1.12,2.04-1.04,3.36-1.63,5.43.83-2.87-.45.96-1.77,1.65,1.97-1.03,1.35-1.74-.57-.56-1.63,1-3.28,2.6-4.24,4.24-.82,1.4-1.23,3.02-1.44,4.61-.05.38-.54,4.72.06,2.78l2.57-4.41c2.21-1.24,2.4-1.44.59-.61-.72.29-1.44.6-2.14.94-.94.55-1.94,1.39-2.72,2.17-2.11,2.13-3.92,4.81-5.55,7.3-1.51,2.31-2.77,4.61-2.98,7.43-.28,3.83,1.66-2.41-.16.16-.67.96-1.05,2.07-1.77,3.02l3.59-3.59c-1.46,1.05-3.27,1.94-4.91,2.69l5.05-1.37c-4.69.4-8.6.49-12.02,4.28-1.76,1.95-1.81,2.5-3.12,3.85-.39.56-.86,1.01-1.43,1.36-2.4,1.73-2.73,2.04-.98.93h5.32c-2.11-.32-4.19-.95-6.33-.91-3.28.06-5.23,1.81-8.07,2.89s-7.32,2.38-9.1,2.84c-6.86,1.8-8.45,8.94-5.98,14.69,3.69,8.59,13.39,4.82,19.5,4.6l-5.05-1.37c-1.71-1.85-2.16-2.24-1.36-1.18.35.5.72.99,1.1,1.46,1.01,1.27,2.09,2.44,3.5,3.29,2.53,1.53,6.64,2.36,9.57,1.28,3.1-1.15-1.94.09-2.02-.75.06.63,3.48,1.67,4.05,1.83,3.71,1.04,6.83-.21,10.49-.71h-5.32c5.91,1.37,12.41,3.4,18.06,0,.86-.58,1.68-1.2,2.48-1.87l-1.66.93c1.09-.22,2.25-.63,3.29-.72,1.22-.1,2.51.11,3.74.07,5.37-.19-1.36-1.19-.99-1.71-.67.93,6.37,3.9,6.79,4,3.39.8,6.15-.57,9.37-.92,5.34-.57,10.32-2.32,15.61-2.83,3.35-.32,5.33-1.75,8.08-3.27,1.97-1.09,3.75-.84,5.89-1.39-1.64-.19-1.91-.2-.81-.04,1.09.17,2.18.33,3.28.45,1.72.04,3.42-.37,5.01-.97,1.17-.44,2.17-.98,3.16-1.71,1.79-1.33-1.23-.39,1.34-.42,5.63-.06,10.7-3.13,14.34-6.07-.84.68,5.18-4.42,1.59-1.97,1.03-.7,2.7-.92,3.84-1.48,2.9-1.43,4.69-4.09,6.48-5.79l-4.41,2.57c-2.96.02-2.76.18.59.46,1.27.2,2.53.12,3.79-.25,1.91-.45,3.59-1.4,5.29-2.34s3.29-1.91,4.63-3.37c.42-.45,5.71-8.06,1.88-3.74l-4.41,2.57c-2.05.72,4.43-.44,4.11-.36,1.93-.48,3.89-1.46,5.29-2.89s2.48-3.19,3.06-5.03c.24-.63.4-1.29.47-1.97.27-1.34.25-1.41-.06-.21l-3.59,3.59c.82-.4,5.32-2,7.14-2.93,1.58-.81,2.92-1.84,4.11-3.16l1.56-2.02c.98-1.56.71-1.51-.83.14l-5.05,1.37c2.89-.27,5.7-.19,8.35-1.58,2.43-1.28,5.07-3.31,7-5.27,1.76-1.79,3.42-3.8,5.01-5.74,1.73-2.12,3.12-5.22,4.19-6.88l-3.59,3.59c-2.76,1.41-1.23.93,1.36.28,1.15-.29,2.33-.71,3.37-1.31,2.66-1.53,4.58-4.08,5.45-7.03l.17-1.08c.68-3.1.58-3.51-.3-1.25-.93,1.74-.89,1.87.13.4.3-.4.61-.79.92-1.18.38-.36,2.82-1.92,3.96-2.83,2.53-2.02,5.97-5.56,8.51-8.73,1.83-2.27,3.82-4.81,4.31-7.8-.15.88-1.8,1.95-.1.57.95-.77,1.73-1.66,2.43-2.67,2.02-2.93,1.42-5.35,2.6-8.41-1.19,3.11,2.23-2.45,2.66-3.11,2.76-4.3,4.01-8.95,4.37-13.41,0-.01.37-2.21.4-2.66.27-3.94-4.69,4.8-.14.62,1.98-1.83,3.32-4,4.03-6.61s.81-5.27,1.38-7.85c-.24,1.1-.57,1.19.14,0,.84-1.43,1.45-2.92,2.07-4.46,2.02-5.01-2.2-10.99-6.98-12.3-5.71-1.57-10.28,1.95-12.3,6.98h0Z"/>
  <path d="M710.92,331.94c1.75-1.29,3.3-2.37,4.5-4.26.48-.76,2.57-4.53,1.34-2.49l-3.59,3.59c-4.35.1-5.21.28-2.58.53.75.12,1.5.21,2.25.27,1.68,0,3.43-.48,4.95-1.16,3.18-1.41,5.15-3.82,7.1-6.61l-3.59,3.59c.98-.69,4.96-2.59,4.99-3.7-.02.73-4.79.79-2.02.92,1.81.09,3.48-.7,5.13-1.3s6.06-3.28,8.05-3.66h-5.32c1.46.41,6.1,1.75,9.44.79,3.78-1.08,6.16-4.05,8.29-7.13l-3.59,3.59c3.14-2.23,4.98-4.3,7-7.45l-3.59,3.59-.35.08h-5.32c3.03.55,5.52,1.38,8.7.53,2.54-.68,5.29-3.02,6.67-3.85,11.03-6.61.98-23.91-10.09-17.27-1.15.63-2.21,1.38-3.18,2.26-1.16,1.01-.91.91.73-.29h5.32c-3.63-.65-6.82-1.49-10.45.1s-5.13,4.11-7.09,7.16l3.59-3.59c-2.77,1.99-4.88,3.97-6.83,6.79l3.59-3.59h.15c1.77,0,3.54,0,5.32,0-2.65-.74-7.62-1.93-11.82.21-3.09,1.57-3.96,2.06-6.88,3.42,1.9-.31,2.11-.37.62-.18l-2.66.36c-2.67.65-4.71,2.08-6.84,3.7-1.94,1.48-4.54,3.83-6.44,6.54l3.59-3.59c4.16-.02,4.95-.16,2.39-.42-.75-.12-1.5-.21-2.25-.27-1.95,0-4.45.71-6.14,1.66-1.81,1.01-3.4,2.52-4.5,4.26-.48.76-2.57,4.53-1.34,2.49l3.59-3.59-.92.68c-4.34,3.2-6.52,8.67-3.59,13.68,2.51,4.28,9.31,6.81,13.68,3.59h0Z"/>
</svg>