<?xml version="1.0" encoding="UTF-8"?>
<svg id="_レイヤー_2" data-name="レイヤー 2" xmlns="http://www.w3.org/2000/svg" viewBox="0 0 1000 1000">
  <path d="M664.7,396.31c16.11-6.47,26.86-19.01,36.28-33.17,10.83-16.28,17.33-34.29,12.83-53.95-1.92-8.38-5.95-16.92-13.38-21.72-8.4-5.42-18.6-4.05-27.19.07-14.53,6.97-25.2,21.86-28.18,37.54l14.69-5.98c-14.44-9.99-25.08-24.08-43.75-26.04-17.05-1.8-30.84,10.15-33.19,26.74s4.6,31.87,14.77,44.32c9.05,11.07,20.58,17.92,33.68,23.05,9.17,3.59,18.62,6.59,28.13,9.14,12.45,3.33,17.76-15.96,5.32-19.29-21.11-5.64-43.69-11.74-56.01-31.4-4.79-7.65-12.16-26.58-.48-32,6.59-3.06,14.97,1.68,20.14,5.46,7.39,5.41,13.74,12.06,21.3,17.29,5.05,3.5,13.54.09,14.69-5.98,1.84-9.65,6.95-18.46,15.48-23.69,3.23-1.98,8.18-4.73,11.18-1.18,3.28,3.87,4.18,10.49,4.35,15.32.47,12.99-5.96,23.92-13.07,34.3-5.82,8.51-13.01,17.89-22.9,21.87-5.01,2.01-8.53,6.67-6.98,12.3,1.31,4.76,7.26,9.01,12.3,6.98Z"/>
  <path d="M668.45,390.13c44.72,28.67,89.67,57.27,136.6,82.21,11.36,6.04,21.48-11.22,10.09-17.27-46.93-24.95-91.88-53.55-136.6-82.21-10.87-6.97-20.91,10.34-10.09,17.27h0Z"/>
  <path d="M184.65,442.32c40.47-30.96,75.21-69.4,108.58-107.69,30.07-34.49,58.91-70.06,86.89-106.26,6.04-7.81,12.06-15.62,17.96-23.54-6.09-.8-12.18-1.59-18.28-2.39,16.38,65.68,47.52,126.94,90.41,179.25,2.77,3.38,8.57,3.64,12.12,1.56,4.08-2.39,5.34-6.87,4.6-11.29-10.71-63.97-17.14-129.17-23.88-194.22-.66-6.36-1.32-12.73-1.95-19.09-6.21,1.68-12.42,3.36-18.63,5.05,41.27,59.02,90.43,112.75,142.97,161.88,9.39,8.78,23.57-5.33,14.14-14.14-51.27-47.95-99.56-100.23-139.85-157.83-2.57-3.67-6.77-5.84-11.29-4.6-3.94,1.08-7.77,5.33-7.34,9.64,5.4,54.3,11.36,108.57,18.44,162.67,2.45,18.69,4.99,37.37,8.1,55.96,5.57-3.24,11.14-6.49,16.71-9.73-40.67-49.6-69.76-108.23-85.27-170.42-2.27-9.12-13.46-8.85-18.28-2.39-4.29,5.75-8.65,11.45-13.02,17.14-.55.71-1.1,1.42-1.64,2.14-.4.51-2.16,2.8-.61.79-1.25,1.61-2.5,3.23-3.75,4.84-2.71,3.49-5.42,6.96-8.15,10.43-6.42,8.17-12.89,16.31-19.4,24.41-32.56,40.46-66.16,80.26-102.29,117.6-9.69,10.02-19.59,19.85-29.81,29.33-4.76,4.42-9.6,8.75-14.53,12.98-2.39,2.05-4.8,4.07-7.24,6.05-1.05.85-2.1,1.7-3.16,2.54-1.56,1.24-2.11,1.66-2.64,2.07-4.28,3.28-6.55,8.61-3.59,13.68,2.47,4.22,9.37,6.89,13.68,3.59h0Z"/>
  <path d="M726.86,728.16c9.27,39.45,30.22,75.08,61.54,101,30.28,25.05,67.87,42.74,106.02,51.78,28.97,6.87,58.66,11.08,87.96,16.24,10.73,1.89,17.96-12.12,7.71-18.28-8.44-5.06-16.38-11.03-22.83-16.34-14.07-11.58-27.38-24.63-35.79-40.79-4.43-8.52-5.76-18.25-7.1-28.38-1.87-14.16-3.88-28.32-6.83-42.31-5.23-24.83-13.64-49.27-27.73-70.53-14.12-21.3-33.96-40.92-59.66-46.7-12.54-2.82-17.89,16.46-5.32,19.29,20.61,4.63,36.37,20.4,47.71,37.5,13.57,20.47,21.18,43.61,26.08,67.54,2.88,14.04,4.86,28.24,6.68,42.45,1.38,10.77,3.45,20.41,8.35,30.18,8.58,17.09,22.48,31.56,36.95,43.8,9.22,7.81,19,15.32,29.38,21.56,2.57-6.09,5.14-12.18,7.71-18.28-45.6-8.04-92.91-13.18-135.32-32.62-31.02-14.22-60.22-34.13-80.01-62.42-12.71-18.18-21.16-38.47-26.22-60.01-2.94-12.52-22.23-7.22-19.29,5.32h0Z"/>
  <path d="M251.86,746.84c-4.74,19.92-13.31,38.69-26.12,54.75-11.49,14.42-25.6,26.6-40.71,37.08-16.75,11.61-33.96,21.26-53.86,26.29-18.02,4.56-36.69,5.8-55.22,4.87-3.86-.19-7.71-.48-11.55-.88-1.69-.17-3.38-.37-5.07-.58-2.64-.32,2.17.32-.32-.04-.67-.1-1.34-.19-2-.29-2.66-.41-5.34-.84-7.97-1.44v19.29c34.72-6.06,56.63-37.9,68.63-68.55,13.04-33.27,15.77-72.73,39.76-100.85,12.65-14.82,29.33-25.23,48.18-30.09,12.45-3.21,7.17-22.51-5.32-19.29-17.77,4.58-34.19,13.49-47.81,25.78-14.22,12.84-23.94,29.19-31.09,46.8-13.32,32.78-16.65,69.42-37.28,99.03-9.78,14.04-23.28,24.9-40.4,27.89-9.8,1.71-9.27,17.19,0,19.29,27.59,6.25,57.91,5.69,85.46.02,22.32-4.59,42.27-14.16,61.13-26.72,16.77-11.17,32.8-23.88,46-39.19,16.91-19.61,28.83-42.64,34.82-67.85,2.97-12.51-16.31-17.85-19.29-5.32h0Z"/>
  <path d="M710.55,331.13c16.33-7.67,32.67-15.33,49-23,4.89-2.29,6.14-9.32,3.59-13.68-2.93-5.01-8.77-5.89-13.68-3.59-16.33,7.67-32.67,15.33-49,23-4.89,2.29-6.14,9.32-3.59,13.68,2.93,5.01,8.77,5.89,13.68,3.59h0Z"/>
</svg>